M48
; DRILL file {KiCad (5.1.5)-3} date 2020-08-03 10:27:41 PM
; FORMAT={-:-/ absolute / inch / decimal}
; #@! TF.CreationDate,2020-08-03T22:27:41-04:00
; #@! TF.GenerationSoftware,Kicad,Pcbnew,(5.1.5)-3
; #@! TF.FileFunction,Plated,1,2,PTH
FMAT,2
INCH
T1C0.0157
T2C0.0177
T3C0.0394
T4C0.0400
T5C0.0433
%
G90
G05
T1
X4.2539Y-3.25
X4.2953Y-3.1122
X4.3583Y-3.4508
X4.5217Y-3.1142
X4.5906Y-3.439
X4.5945Y-3.126
T3
X4.9173Y-4.1634
X5.2165Y-4.1634
X5.4783Y-3.0866
X5.4783Y-3.1866
X5.4783Y-3.2866
X5.4783Y-3.3866
X5.4783Y-3.4866
X5.4783Y-3.5866
X6.0783Y-3.0866
X6.0783Y-3.1866
X6.0783Y-3.2866
X6.0783Y-3.3866
X6.0783Y-3.4866
X6.0783Y-3.5866
T4
X3.539Y-3.6504
X3.539Y-3.7504
X3.539Y-3.8504
X3.639Y-3.6504
X3.639Y-3.7504
X3.639Y-3.8504
T5
X4.8504Y-2.3996
X4.8504Y-2.5768
X5.1063Y-2.3996
X5.1063Y-2.5768
X3.8543Y-4.1732
X3.8543Y-4.3504
X4.1102Y-4.1732
X4.1102Y-4.3504
X4.2598Y-2.3996
X4.2598Y-2.5768
X4.5157Y-2.3996
X4.5157Y-2.5768
T2
G00X3.5059Y-2.6171
M15
G01X3.5374Y-2.6171
M16
G05
G00X3.5374Y-2.8986
M15
G01X3.5059Y-2.8986
M16
G05
T0
M30
