G04 #@! TF.GenerationSoftware,KiCad,Pcbnew,(5.1.5)-3*
G04 #@! TF.CreationDate,2020-08-03T22:27:43-04:00*
G04 #@! TF.ProjectId,Kitchen Timer,4b697463-6865-46e2-9054-696d65722e6b,rev?*
G04 #@! TF.SameCoordinates,Original*
G04 #@! TF.FileFunction,Paste,Top*
G04 #@! TF.FilePolarity,Positive*
%FSLAX46Y46*%
G04 Gerber Fmt 4.6, Leading zero omitted, Abs format (unit mm)*
G04 Created by KiCad (PCBNEW (5.1.5)-3) date 2020-08-03 22:27:43*
%MOMM*%
%LPD*%
G04 APERTURE LIST*
%ADD10C,0.100000*%
%ADD11R,1.900000X1.750000*%
%ADD12R,1.400000X0.400000*%
%ADD13R,1.450000X1.150000*%
%ADD14R,1.500000X0.550000*%
%ADD15R,0.550000X1.500000*%
%ADD16R,7.875000X2.000000*%
G04 APERTURE END LIST*
D10*
G36*
X118174504Y-101476204D02*
G01*
X118198773Y-101479804D01*
X118222571Y-101485765D01*
X118245671Y-101494030D01*
X118267849Y-101504520D01*
X118288893Y-101517133D01*
X118308598Y-101531747D01*
X118326777Y-101548223D01*
X118343253Y-101566402D01*
X118357867Y-101586107D01*
X118370480Y-101607151D01*
X118380970Y-101629329D01*
X118389235Y-101652429D01*
X118395196Y-101676227D01*
X118398796Y-101700496D01*
X118400000Y-101725000D01*
X118400000Y-102975000D01*
X118398796Y-102999504D01*
X118395196Y-103023773D01*
X118389235Y-103047571D01*
X118380970Y-103070671D01*
X118370480Y-103092849D01*
X118357867Y-103113893D01*
X118343253Y-103133598D01*
X118326777Y-103151777D01*
X118308598Y-103168253D01*
X118288893Y-103182867D01*
X118267849Y-103195480D01*
X118245671Y-103205970D01*
X118222571Y-103214235D01*
X118198773Y-103220196D01*
X118174504Y-103223796D01*
X118150000Y-103225000D01*
X117225000Y-103225000D01*
X117200496Y-103223796D01*
X117176227Y-103220196D01*
X117152429Y-103214235D01*
X117129329Y-103205970D01*
X117107151Y-103195480D01*
X117086107Y-103182867D01*
X117066402Y-103168253D01*
X117048223Y-103151777D01*
X117031747Y-103133598D01*
X117017133Y-103113893D01*
X117004520Y-103092849D01*
X116994030Y-103070671D01*
X116985765Y-103047571D01*
X116979804Y-103023773D01*
X116976204Y-102999504D01*
X116975000Y-102975000D01*
X116975000Y-101725000D01*
X116976204Y-101700496D01*
X116979804Y-101676227D01*
X116985765Y-101652429D01*
X116994030Y-101629329D01*
X117004520Y-101607151D01*
X117017133Y-101586107D01*
X117031747Y-101566402D01*
X117048223Y-101548223D01*
X117066402Y-101531747D01*
X117086107Y-101517133D01*
X117107151Y-101504520D01*
X117129329Y-101494030D01*
X117152429Y-101485765D01*
X117176227Y-101479804D01*
X117200496Y-101476204D01*
X117225000Y-101475000D01*
X118150000Y-101475000D01*
X118174504Y-101476204D01*
G37*
G36*
X115199504Y-101476204D02*
G01*
X115223773Y-101479804D01*
X115247571Y-101485765D01*
X115270671Y-101494030D01*
X115292849Y-101504520D01*
X115313893Y-101517133D01*
X115333598Y-101531747D01*
X115351777Y-101548223D01*
X115368253Y-101566402D01*
X115382867Y-101586107D01*
X115395480Y-101607151D01*
X115405970Y-101629329D01*
X115414235Y-101652429D01*
X115420196Y-101676227D01*
X115423796Y-101700496D01*
X115425000Y-101725000D01*
X115425000Y-102975000D01*
X115423796Y-102999504D01*
X115420196Y-103023773D01*
X115414235Y-103047571D01*
X115405970Y-103070671D01*
X115395480Y-103092849D01*
X115382867Y-103113893D01*
X115368253Y-103133598D01*
X115351777Y-103151777D01*
X115333598Y-103168253D01*
X115313893Y-103182867D01*
X115292849Y-103195480D01*
X115270671Y-103205970D01*
X115247571Y-103214235D01*
X115223773Y-103220196D01*
X115199504Y-103223796D01*
X115175000Y-103225000D01*
X114250000Y-103225000D01*
X114225496Y-103223796D01*
X114201227Y-103220196D01*
X114177429Y-103214235D01*
X114154329Y-103205970D01*
X114132151Y-103195480D01*
X114111107Y-103182867D01*
X114091402Y-103168253D01*
X114073223Y-103151777D01*
X114056747Y-103133598D01*
X114042133Y-103113893D01*
X114029520Y-103092849D01*
X114019030Y-103070671D01*
X114010765Y-103047571D01*
X114004804Y-103023773D01*
X114001204Y-102999504D01*
X114000000Y-102975000D01*
X114000000Y-101725000D01*
X114001204Y-101700496D01*
X114004804Y-101676227D01*
X114010765Y-101652429D01*
X114019030Y-101629329D01*
X114029520Y-101607151D01*
X114042133Y-101586107D01*
X114056747Y-101566402D01*
X114073223Y-101548223D01*
X114091402Y-101531747D01*
X114111107Y-101517133D01*
X114132151Y-101504520D01*
X114154329Y-101494030D01*
X114177429Y-101485765D01*
X114201227Y-101479804D01*
X114225496Y-101476204D01*
X114250000Y-101475000D01*
X115175000Y-101475000D01*
X115199504Y-101476204D01*
G37*
G36*
X104549504Y-101476204D02*
G01*
X104573773Y-101479804D01*
X104597571Y-101485765D01*
X104620671Y-101494030D01*
X104642849Y-101504520D01*
X104663893Y-101517133D01*
X104683598Y-101531747D01*
X104701777Y-101548223D01*
X104718253Y-101566402D01*
X104732867Y-101586107D01*
X104745480Y-101607151D01*
X104755970Y-101629329D01*
X104764235Y-101652429D01*
X104770196Y-101676227D01*
X104773796Y-101700496D01*
X104775000Y-101725000D01*
X104775000Y-102975000D01*
X104773796Y-102999504D01*
X104770196Y-103023773D01*
X104764235Y-103047571D01*
X104755970Y-103070671D01*
X104745480Y-103092849D01*
X104732867Y-103113893D01*
X104718253Y-103133598D01*
X104701777Y-103151777D01*
X104683598Y-103168253D01*
X104663893Y-103182867D01*
X104642849Y-103195480D01*
X104620671Y-103205970D01*
X104597571Y-103214235D01*
X104573773Y-103220196D01*
X104549504Y-103223796D01*
X104525000Y-103225000D01*
X103600000Y-103225000D01*
X103575496Y-103223796D01*
X103551227Y-103220196D01*
X103527429Y-103214235D01*
X103504329Y-103205970D01*
X103482151Y-103195480D01*
X103461107Y-103182867D01*
X103441402Y-103168253D01*
X103423223Y-103151777D01*
X103406747Y-103133598D01*
X103392133Y-103113893D01*
X103379520Y-103092849D01*
X103369030Y-103070671D01*
X103360765Y-103047571D01*
X103354804Y-103023773D01*
X103351204Y-102999504D01*
X103350000Y-102975000D01*
X103350000Y-101725000D01*
X103351204Y-101700496D01*
X103354804Y-101676227D01*
X103360765Y-101652429D01*
X103369030Y-101629329D01*
X103379520Y-101607151D01*
X103392133Y-101586107D01*
X103406747Y-101566402D01*
X103423223Y-101548223D01*
X103441402Y-101531747D01*
X103461107Y-101517133D01*
X103482151Y-101504520D01*
X103504329Y-101494030D01*
X103527429Y-101485765D01*
X103551227Y-101479804D01*
X103575496Y-101476204D01*
X103600000Y-101475000D01*
X104525000Y-101475000D01*
X104549504Y-101476204D01*
G37*
G36*
X107524504Y-101476204D02*
G01*
X107548773Y-101479804D01*
X107572571Y-101485765D01*
X107595671Y-101494030D01*
X107617849Y-101504520D01*
X107638893Y-101517133D01*
X107658598Y-101531747D01*
X107676777Y-101548223D01*
X107693253Y-101566402D01*
X107707867Y-101586107D01*
X107720480Y-101607151D01*
X107730970Y-101629329D01*
X107739235Y-101652429D01*
X107745196Y-101676227D01*
X107748796Y-101700496D01*
X107750000Y-101725000D01*
X107750000Y-102975000D01*
X107748796Y-102999504D01*
X107745196Y-103023773D01*
X107739235Y-103047571D01*
X107730970Y-103070671D01*
X107720480Y-103092849D01*
X107707867Y-103113893D01*
X107693253Y-103133598D01*
X107676777Y-103151777D01*
X107658598Y-103168253D01*
X107638893Y-103182867D01*
X107617849Y-103195480D01*
X107595671Y-103205970D01*
X107572571Y-103214235D01*
X107548773Y-103220196D01*
X107524504Y-103223796D01*
X107500000Y-103225000D01*
X106575000Y-103225000D01*
X106550496Y-103223796D01*
X106526227Y-103220196D01*
X106502429Y-103214235D01*
X106479329Y-103205970D01*
X106457151Y-103195480D01*
X106436107Y-103182867D01*
X106416402Y-103168253D01*
X106398223Y-103151777D01*
X106381747Y-103133598D01*
X106367133Y-103113893D01*
X106354520Y-103092849D01*
X106344030Y-103070671D01*
X106335765Y-103047571D01*
X106329804Y-103023773D01*
X106326204Y-102999504D01*
X106325000Y-102975000D01*
X106325000Y-101725000D01*
X106326204Y-101700496D01*
X106329804Y-101676227D01*
X106335765Y-101652429D01*
X106344030Y-101629329D01*
X106354520Y-101607151D01*
X106367133Y-101586107D01*
X106381747Y-101566402D01*
X106398223Y-101548223D01*
X106416402Y-101531747D01*
X106436107Y-101517133D01*
X106457151Y-101504520D01*
X106479329Y-101494030D01*
X106502429Y-101485765D01*
X106526227Y-101479804D01*
X106550496Y-101476204D01*
X106575000Y-101475000D01*
X107500000Y-101475000D01*
X107524504Y-101476204D01*
G37*
G36*
X102199504Y-82726204D02*
G01*
X102223773Y-82729804D01*
X102247571Y-82735765D01*
X102270671Y-82744030D01*
X102292849Y-82754520D01*
X102313893Y-82767133D01*
X102333598Y-82781747D01*
X102351777Y-82798223D01*
X102368253Y-82816402D01*
X102382867Y-82836107D01*
X102395480Y-82857151D01*
X102405970Y-82879329D01*
X102414235Y-82902429D01*
X102420196Y-82926227D01*
X102423796Y-82950496D01*
X102425000Y-82975000D01*
X102425000Y-83900000D01*
X102423796Y-83924504D01*
X102420196Y-83948773D01*
X102414235Y-83972571D01*
X102405970Y-83995671D01*
X102395480Y-84017849D01*
X102382867Y-84038893D01*
X102368253Y-84058598D01*
X102351777Y-84076777D01*
X102333598Y-84093253D01*
X102313893Y-84107867D01*
X102292849Y-84120480D01*
X102270671Y-84130970D01*
X102247571Y-84139235D01*
X102223773Y-84145196D01*
X102199504Y-84148796D01*
X102175000Y-84150000D01*
X100925000Y-84150000D01*
X100900496Y-84148796D01*
X100876227Y-84145196D01*
X100852429Y-84139235D01*
X100829329Y-84130970D01*
X100807151Y-84120480D01*
X100786107Y-84107867D01*
X100766402Y-84093253D01*
X100748223Y-84076777D01*
X100731747Y-84058598D01*
X100717133Y-84038893D01*
X100704520Y-84017849D01*
X100694030Y-83995671D01*
X100685765Y-83972571D01*
X100679804Y-83948773D01*
X100676204Y-83924504D01*
X100675000Y-83900000D01*
X100675000Y-82975000D01*
X100676204Y-82950496D01*
X100679804Y-82926227D01*
X100685765Y-82902429D01*
X100694030Y-82879329D01*
X100704520Y-82857151D01*
X100717133Y-82836107D01*
X100731747Y-82816402D01*
X100748223Y-82798223D01*
X100766402Y-82781747D01*
X100786107Y-82767133D01*
X100807151Y-82754520D01*
X100829329Y-82744030D01*
X100852429Y-82735765D01*
X100876227Y-82729804D01*
X100900496Y-82726204D01*
X100925000Y-82725000D01*
X102175000Y-82725000D01*
X102199504Y-82726204D01*
G37*
G36*
X102199504Y-79751204D02*
G01*
X102223773Y-79754804D01*
X102247571Y-79760765D01*
X102270671Y-79769030D01*
X102292849Y-79779520D01*
X102313893Y-79792133D01*
X102333598Y-79806747D01*
X102351777Y-79823223D01*
X102368253Y-79841402D01*
X102382867Y-79861107D01*
X102395480Y-79882151D01*
X102405970Y-79904329D01*
X102414235Y-79927429D01*
X102420196Y-79951227D01*
X102423796Y-79975496D01*
X102425000Y-80000000D01*
X102425000Y-80925000D01*
X102423796Y-80949504D01*
X102420196Y-80973773D01*
X102414235Y-80997571D01*
X102405970Y-81020671D01*
X102395480Y-81042849D01*
X102382867Y-81063893D01*
X102368253Y-81083598D01*
X102351777Y-81101777D01*
X102333598Y-81118253D01*
X102313893Y-81132867D01*
X102292849Y-81145480D01*
X102270671Y-81155970D01*
X102247571Y-81164235D01*
X102223773Y-81170196D01*
X102199504Y-81173796D01*
X102175000Y-81175000D01*
X100925000Y-81175000D01*
X100900496Y-81173796D01*
X100876227Y-81170196D01*
X100852429Y-81164235D01*
X100829329Y-81155970D01*
X100807151Y-81145480D01*
X100786107Y-81132867D01*
X100766402Y-81118253D01*
X100748223Y-81101777D01*
X100731747Y-81083598D01*
X100717133Y-81063893D01*
X100704520Y-81042849D01*
X100694030Y-81020671D01*
X100685765Y-80997571D01*
X100679804Y-80973773D01*
X100676204Y-80949504D01*
X100675000Y-80925000D01*
X100675000Y-80000000D01*
X100676204Y-79975496D01*
X100679804Y-79951227D01*
X100685765Y-79927429D01*
X100694030Y-79904329D01*
X100704520Y-79882151D01*
X100717133Y-79861107D01*
X100731747Y-79841402D01*
X100748223Y-79823223D01*
X100766402Y-79806747D01*
X100786107Y-79792133D01*
X100807151Y-79779520D01*
X100829329Y-79769030D01*
X100852429Y-79760765D01*
X100876227Y-79754804D01*
X100900496Y-79751204D01*
X100925000Y-79750000D01*
X102175000Y-79750000D01*
X102199504Y-79751204D01*
G37*
G36*
X118924505Y-108901204D02*
G01*
X118948773Y-108904804D01*
X118972572Y-108910765D01*
X118995671Y-108919030D01*
X119017850Y-108929520D01*
X119038893Y-108942132D01*
X119058599Y-108956747D01*
X119076777Y-108973223D01*
X119093253Y-108991401D01*
X119107868Y-109011107D01*
X119120480Y-109032150D01*
X119130970Y-109054329D01*
X119139235Y-109077428D01*
X119145196Y-109101227D01*
X119148796Y-109125495D01*
X119150000Y-109149999D01*
X119150000Y-110050001D01*
X119148796Y-110074505D01*
X119145196Y-110098773D01*
X119139235Y-110122572D01*
X119130970Y-110145671D01*
X119120480Y-110167850D01*
X119107868Y-110188893D01*
X119093253Y-110208599D01*
X119076777Y-110226777D01*
X119058599Y-110243253D01*
X119038893Y-110257868D01*
X119017850Y-110270480D01*
X118995671Y-110280970D01*
X118972572Y-110289235D01*
X118948773Y-110295196D01*
X118924505Y-110298796D01*
X118900001Y-110300000D01*
X118249999Y-110300000D01*
X118225495Y-110298796D01*
X118201227Y-110295196D01*
X118177428Y-110289235D01*
X118154329Y-110280970D01*
X118132150Y-110270480D01*
X118111107Y-110257868D01*
X118091401Y-110243253D01*
X118073223Y-110226777D01*
X118056747Y-110208599D01*
X118042132Y-110188893D01*
X118029520Y-110167850D01*
X118019030Y-110145671D01*
X118010765Y-110122572D01*
X118004804Y-110098773D01*
X118001204Y-110074505D01*
X118000000Y-110050001D01*
X118000000Y-109149999D01*
X118001204Y-109125495D01*
X118004804Y-109101227D01*
X118010765Y-109077428D01*
X118019030Y-109054329D01*
X118029520Y-109032150D01*
X118042132Y-109011107D01*
X118056747Y-108991401D01*
X118073223Y-108973223D01*
X118091401Y-108956747D01*
X118111107Y-108942132D01*
X118132150Y-108929520D01*
X118154329Y-108919030D01*
X118177428Y-108910765D01*
X118201227Y-108904804D01*
X118225495Y-108901204D01*
X118249999Y-108900000D01*
X118900001Y-108900000D01*
X118924505Y-108901204D01*
G37*
G36*
X116874505Y-108901204D02*
G01*
X116898773Y-108904804D01*
X116922572Y-108910765D01*
X116945671Y-108919030D01*
X116967850Y-108929520D01*
X116988893Y-108942132D01*
X117008599Y-108956747D01*
X117026777Y-108973223D01*
X117043253Y-108991401D01*
X117057868Y-109011107D01*
X117070480Y-109032150D01*
X117080970Y-109054329D01*
X117089235Y-109077428D01*
X117095196Y-109101227D01*
X117098796Y-109125495D01*
X117100000Y-109149999D01*
X117100000Y-110050001D01*
X117098796Y-110074505D01*
X117095196Y-110098773D01*
X117089235Y-110122572D01*
X117080970Y-110145671D01*
X117070480Y-110167850D01*
X117057868Y-110188893D01*
X117043253Y-110208599D01*
X117026777Y-110226777D01*
X117008599Y-110243253D01*
X116988893Y-110257868D01*
X116967850Y-110270480D01*
X116945671Y-110280970D01*
X116922572Y-110289235D01*
X116898773Y-110295196D01*
X116874505Y-110298796D01*
X116850001Y-110300000D01*
X116199999Y-110300000D01*
X116175495Y-110298796D01*
X116151227Y-110295196D01*
X116127428Y-110289235D01*
X116104329Y-110280970D01*
X116082150Y-110270480D01*
X116061107Y-110257868D01*
X116041401Y-110243253D01*
X116023223Y-110226777D01*
X116006747Y-110208599D01*
X115992132Y-110188893D01*
X115979520Y-110167850D01*
X115969030Y-110145671D01*
X115960765Y-110122572D01*
X115954804Y-110098773D01*
X115951204Y-110074505D01*
X115950000Y-110050001D01*
X115950000Y-109149999D01*
X115951204Y-109125495D01*
X115954804Y-109101227D01*
X115960765Y-109077428D01*
X115969030Y-109054329D01*
X115979520Y-109032150D01*
X115992132Y-109011107D01*
X116006747Y-108991401D01*
X116023223Y-108973223D01*
X116041401Y-108956747D01*
X116061107Y-108942132D01*
X116082150Y-108929520D01*
X116104329Y-108919030D01*
X116127428Y-108910765D01*
X116151227Y-108904804D01*
X116175495Y-108901204D01*
X116199999Y-108900000D01*
X116850001Y-108900000D01*
X116874505Y-108901204D01*
G37*
D11*
X89450000Y-71175000D03*
D12*
X92100000Y-69400000D03*
X92100000Y-68750000D03*
X92100000Y-71350000D03*
X92100000Y-70700000D03*
X92100000Y-70050000D03*
D11*
X89450000Y-68925000D03*
D13*
X91680000Y-72370000D03*
X91680000Y-67730000D03*
D10*
G36*
X89449504Y-79526204D02*
G01*
X89473773Y-79529804D01*
X89497571Y-79535765D01*
X89520671Y-79544030D01*
X89542849Y-79554520D01*
X89563893Y-79567133D01*
X89583598Y-79581747D01*
X89601777Y-79598223D01*
X89618253Y-79616402D01*
X89632867Y-79636107D01*
X89645480Y-79657151D01*
X89655970Y-79679329D01*
X89664235Y-79702429D01*
X89670196Y-79726227D01*
X89673796Y-79750496D01*
X89675000Y-79775000D01*
X89675000Y-80700000D01*
X89673796Y-80724504D01*
X89670196Y-80748773D01*
X89664235Y-80772571D01*
X89655970Y-80795671D01*
X89645480Y-80817849D01*
X89632867Y-80838893D01*
X89618253Y-80858598D01*
X89601777Y-80876777D01*
X89583598Y-80893253D01*
X89563893Y-80907867D01*
X89542849Y-80920480D01*
X89520671Y-80930970D01*
X89497571Y-80939235D01*
X89473773Y-80945196D01*
X89449504Y-80948796D01*
X89425000Y-80950000D01*
X88175000Y-80950000D01*
X88150496Y-80948796D01*
X88126227Y-80945196D01*
X88102429Y-80939235D01*
X88079329Y-80930970D01*
X88057151Y-80920480D01*
X88036107Y-80907867D01*
X88016402Y-80893253D01*
X87998223Y-80876777D01*
X87981747Y-80858598D01*
X87967133Y-80838893D01*
X87954520Y-80817849D01*
X87944030Y-80795671D01*
X87935765Y-80772571D01*
X87929804Y-80748773D01*
X87926204Y-80724504D01*
X87925000Y-80700000D01*
X87925000Y-79775000D01*
X87926204Y-79750496D01*
X87929804Y-79726227D01*
X87935765Y-79702429D01*
X87944030Y-79679329D01*
X87954520Y-79657151D01*
X87967133Y-79636107D01*
X87981747Y-79616402D01*
X87998223Y-79598223D01*
X88016402Y-79581747D01*
X88036107Y-79567133D01*
X88057151Y-79554520D01*
X88079329Y-79544030D01*
X88102429Y-79535765D01*
X88126227Y-79529804D01*
X88150496Y-79526204D01*
X88175000Y-79525000D01*
X89425000Y-79525000D01*
X89449504Y-79526204D01*
G37*
G36*
X89449504Y-76551204D02*
G01*
X89473773Y-76554804D01*
X89497571Y-76560765D01*
X89520671Y-76569030D01*
X89542849Y-76579520D01*
X89563893Y-76592133D01*
X89583598Y-76606747D01*
X89601777Y-76623223D01*
X89618253Y-76641402D01*
X89632867Y-76661107D01*
X89645480Y-76682151D01*
X89655970Y-76704329D01*
X89664235Y-76727429D01*
X89670196Y-76751227D01*
X89673796Y-76775496D01*
X89675000Y-76800000D01*
X89675000Y-77725000D01*
X89673796Y-77749504D01*
X89670196Y-77773773D01*
X89664235Y-77797571D01*
X89655970Y-77820671D01*
X89645480Y-77842849D01*
X89632867Y-77863893D01*
X89618253Y-77883598D01*
X89601777Y-77901777D01*
X89583598Y-77918253D01*
X89563893Y-77932867D01*
X89542849Y-77945480D01*
X89520671Y-77955970D01*
X89497571Y-77964235D01*
X89473773Y-77970196D01*
X89449504Y-77973796D01*
X89425000Y-77975000D01*
X88175000Y-77975000D01*
X88150496Y-77973796D01*
X88126227Y-77970196D01*
X88102429Y-77964235D01*
X88079329Y-77955970D01*
X88057151Y-77945480D01*
X88036107Y-77932867D01*
X88016402Y-77918253D01*
X87998223Y-77901777D01*
X87981747Y-77883598D01*
X87967133Y-77863893D01*
X87954520Y-77842849D01*
X87944030Y-77820671D01*
X87935765Y-77797571D01*
X87929804Y-77773773D01*
X87926204Y-77749504D01*
X87925000Y-77725000D01*
X87925000Y-76800000D01*
X87926204Y-76775496D01*
X87929804Y-76751227D01*
X87935765Y-76727429D01*
X87944030Y-76704329D01*
X87954520Y-76682151D01*
X87967133Y-76661107D01*
X87981747Y-76641402D01*
X87998223Y-76623223D01*
X88016402Y-76606747D01*
X88036107Y-76592133D01*
X88057151Y-76579520D01*
X88079329Y-76569030D01*
X88102429Y-76560765D01*
X88126227Y-76554804D01*
X88150496Y-76551204D01*
X88175000Y-76550000D01*
X89425000Y-76550000D01*
X89449504Y-76551204D01*
G37*
G36*
X92299504Y-79526204D02*
G01*
X92323773Y-79529804D01*
X92347571Y-79535765D01*
X92370671Y-79544030D01*
X92392849Y-79554520D01*
X92413893Y-79567133D01*
X92433598Y-79581747D01*
X92451777Y-79598223D01*
X92468253Y-79616402D01*
X92482867Y-79636107D01*
X92495480Y-79657151D01*
X92505970Y-79679329D01*
X92514235Y-79702429D01*
X92520196Y-79726227D01*
X92523796Y-79750496D01*
X92525000Y-79775000D01*
X92525000Y-80700000D01*
X92523796Y-80724504D01*
X92520196Y-80748773D01*
X92514235Y-80772571D01*
X92505970Y-80795671D01*
X92495480Y-80817849D01*
X92482867Y-80838893D01*
X92468253Y-80858598D01*
X92451777Y-80876777D01*
X92433598Y-80893253D01*
X92413893Y-80907867D01*
X92392849Y-80920480D01*
X92370671Y-80930970D01*
X92347571Y-80939235D01*
X92323773Y-80945196D01*
X92299504Y-80948796D01*
X92275000Y-80950000D01*
X91025000Y-80950000D01*
X91000496Y-80948796D01*
X90976227Y-80945196D01*
X90952429Y-80939235D01*
X90929329Y-80930970D01*
X90907151Y-80920480D01*
X90886107Y-80907867D01*
X90866402Y-80893253D01*
X90848223Y-80876777D01*
X90831747Y-80858598D01*
X90817133Y-80838893D01*
X90804520Y-80817849D01*
X90794030Y-80795671D01*
X90785765Y-80772571D01*
X90779804Y-80748773D01*
X90776204Y-80724504D01*
X90775000Y-80700000D01*
X90775000Y-79775000D01*
X90776204Y-79750496D01*
X90779804Y-79726227D01*
X90785765Y-79702429D01*
X90794030Y-79679329D01*
X90804520Y-79657151D01*
X90817133Y-79636107D01*
X90831747Y-79616402D01*
X90848223Y-79598223D01*
X90866402Y-79581747D01*
X90886107Y-79567133D01*
X90907151Y-79554520D01*
X90929329Y-79544030D01*
X90952429Y-79535765D01*
X90976227Y-79529804D01*
X91000496Y-79526204D01*
X91025000Y-79525000D01*
X92275000Y-79525000D01*
X92299504Y-79526204D01*
G37*
G36*
X92299504Y-76551204D02*
G01*
X92323773Y-76554804D01*
X92347571Y-76560765D01*
X92370671Y-76569030D01*
X92392849Y-76579520D01*
X92413893Y-76592133D01*
X92433598Y-76606747D01*
X92451777Y-76623223D01*
X92468253Y-76641402D01*
X92482867Y-76661107D01*
X92495480Y-76682151D01*
X92505970Y-76704329D01*
X92514235Y-76727429D01*
X92520196Y-76751227D01*
X92523796Y-76775496D01*
X92525000Y-76800000D01*
X92525000Y-77725000D01*
X92523796Y-77749504D01*
X92520196Y-77773773D01*
X92514235Y-77797571D01*
X92505970Y-77820671D01*
X92495480Y-77842849D01*
X92482867Y-77863893D01*
X92468253Y-77883598D01*
X92451777Y-77901777D01*
X92433598Y-77918253D01*
X92413893Y-77932867D01*
X92392849Y-77945480D01*
X92370671Y-77955970D01*
X92347571Y-77964235D01*
X92323773Y-77970196D01*
X92299504Y-77973796D01*
X92275000Y-77975000D01*
X91025000Y-77975000D01*
X91000496Y-77973796D01*
X90976227Y-77970196D01*
X90952429Y-77964235D01*
X90929329Y-77955970D01*
X90907151Y-77945480D01*
X90886107Y-77932867D01*
X90866402Y-77918253D01*
X90848223Y-77901777D01*
X90831747Y-77883598D01*
X90817133Y-77863893D01*
X90804520Y-77842849D01*
X90794030Y-77820671D01*
X90785765Y-77797571D01*
X90779804Y-77773773D01*
X90776204Y-77749504D01*
X90775000Y-77725000D01*
X90775000Y-76800000D01*
X90776204Y-76775496D01*
X90779804Y-76751227D01*
X90785765Y-76727429D01*
X90794030Y-76704329D01*
X90804520Y-76682151D01*
X90817133Y-76661107D01*
X90831747Y-76641402D01*
X90848223Y-76623223D01*
X90866402Y-76606747D01*
X90886107Y-76592133D01*
X90907151Y-76579520D01*
X90929329Y-76569030D01*
X90952429Y-76560765D01*
X90976227Y-76554804D01*
X91000496Y-76551204D01*
X91025000Y-76550000D01*
X92275000Y-76550000D01*
X92299504Y-76551204D01*
G37*
G36*
X111549504Y-108626204D02*
G01*
X111573773Y-108629804D01*
X111597571Y-108635765D01*
X111620671Y-108644030D01*
X111642849Y-108654520D01*
X111663893Y-108667133D01*
X111683598Y-108681747D01*
X111701777Y-108698223D01*
X111718253Y-108716402D01*
X111732867Y-108736107D01*
X111745480Y-108757151D01*
X111755970Y-108779329D01*
X111764235Y-108802429D01*
X111770196Y-108826227D01*
X111773796Y-108850496D01*
X111775000Y-108875000D01*
X111775000Y-110125000D01*
X111773796Y-110149504D01*
X111770196Y-110173773D01*
X111764235Y-110197571D01*
X111755970Y-110220671D01*
X111745480Y-110242849D01*
X111732867Y-110263893D01*
X111718253Y-110283598D01*
X111701777Y-110301777D01*
X111683598Y-110318253D01*
X111663893Y-110332867D01*
X111642849Y-110345480D01*
X111620671Y-110355970D01*
X111597571Y-110364235D01*
X111573773Y-110370196D01*
X111549504Y-110373796D01*
X111525000Y-110375000D01*
X110600000Y-110375000D01*
X110575496Y-110373796D01*
X110551227Y-110370196D01*
X110527429Y-110364235D01*
X110504329Y-110355970D01*
X110482151Y-110345480D01*
X110461107Y-110332867D01*
X110441402Y-110318253D01*
X110423223Y-110301777D01*
X110406747Y-110283598D01*
X110392133Y-110263893D01*
X110379520Y-110242849D01*
X110369030Y-110220671D01*
X110360765Y-110197571D01*
X110354804Y-110173773D01*
X110351204Y-110149504D01*
X110350000Y-110125000D01*
X110350000Y-108875000D01*
X110351204Y-108850496D01*
X110354804Y-108826227D01*
X110360765Y-108802429D01*
X110369030Y-108779329D01*
X110379520Y-108757151D01*
X110392133Y-108736107D01*
X110406747Y-108716402D01*
X110423223Y-108698223D01*
X110441402Y-108681747D01*
X110461107Y-108667133D01*
X110482151Y-108654520D01*
X110504329Y-108644030D01*
X110527429Y-108635765D01*
X110551227Y-108629804D01*
X110575496Y-108626204D01*
X110600000Y-108625000D01*
X111525000Y-108625000D01*
X111549504Y-108626204D01*
G37*
G36*
X114524504Y-108626204D02*
G01*
X114548773Y-108629804D01*
X114572571Y-108635765D01*
X114595671Y-108644030D01*
X114617849Y-108654520D01*
X114638893Y-108667133D01*
X114658598Y-108681747D01*
X114676777Y-108698223D01*
X114693253Y-108716402D01*
X114707867Y-108736107D01*
X114720480Y-108757151D01*
X114730970Y-108779329D01*
X114739235Y-108802429D01*
X114745196Y-108826227D01*
X114748796Y-108850496D01*
X114750000Y-108875000D01*
X114750000Y-110125000D01*
X114748796Y-110149504D01*
X114745196Y-110173773D01*
X114739235Y-110197571D01*
X114730970Y-110220671D01*
X114720480Y-110242849D01*
X114707867Y-110263893D01*
X114693253Y-110283598D01*
X114676777Y-110301777D01*
X114658598Y-110318253D01*
X114638893Y-110332867D01*
X114617849Y-110345480D01*
X114595671Y-110355970D01*
X114572571Y-110364235D01*
X114548773Y-110370196D01*
X114524504Y-110373796D01*
X114500000Y-110375000D01*
X113575000Y-110375000D01*
X113550496Y-110373796D01*
X113526227Y-110370196D01*
X113502429Y-110364235D01*
X113479329Y-110355970D01*
X113457151Y-110345480D01*
X113436107Y-110332867D01*
X113416402Y-110318253D01*
X113398223Y-110301777D01*
X113381747Y-110283598D01*
X113367133Y-110263893D01*
X113354520Y-110242849D01*
X113344030Y-110220671D01*
X113335765Y-110197571D01*
X113329804Y-110173773D01*
X113326204Y-110149504D01*
X113325000Y-110125000D01*
X113325000Y-108875000D01*
X113326204Y-108850496D01*
X113329804Y-108826227D01*
X113335765Y-108802429D01*
X113344030Y-108779329D01*
X113354520Y-108757151D01*
X113367133Y-108736107D01*
X113381747Y-108716402D01*
X113398223Y-108698223D01*
X113416402Y-108681747D01*
X113436107Y-108667133D01*
X113457151Y-108654520D01*
X113479329Y-108644030D01*
X113502429Y-108635765D01*
X113526227Y-108629804D01*
X113550496Y-108626204D01*
X113575000Y-108625000D01*
X114500000Y-108625000D01*
X114524504Y-108626204D01*
G37*
G36*
X131999504Y-94926204D02*
G01*
X132023773Y-94929804D01*
X132047571Y-94935765D01*
X132070671Y-94944030D01*
X132092849Y-94954520D01*
X132113893Y-94967133D01*
X132133598Y-94981747D01*
X132151777Y-94998223D01*
X132168253Y-95016402D01*
X132182867Y-95036107D01*
X132195480Y-95057151D01*
X132205970Y-95079329D01*
X132214235Y-95102429D01*
X132220196Y-95126227D01*
X132223796Y-95150496D01*
X132225000Y-95175000D01*
X132225000Y-96425000D01*
X132223796Y-96449504D01*
X132220196Y-96473773D01*
X132214235Y-96497571D01*
X132205970Y-96520671D01*
X132195480Y-96542849D01*
X132182867Y-96563893D01*
X132168253Y-96583598D01*
X132151777Y-96601777D01*
X132133598Y-96618253D01*
X132113893Y-96632867D01*
X132092849Y-96645480D01*
X132070671Y-96655970D01*
X132047571Y-96664235D01*
X132023773Y-96670196D01*
X131999504Y-96673796D01*
X131975000Y-96675000D01*
X131050000Y-96675000D01*
X131025496Y-96673796D01*
X131001227Y-96670196D01*
X130977429Y-96664235D01*
X130954329Y-96655970D01*
X130932151Y-96645480D01*
X130911107Y-96632867D01*
X130891402Y-96618253D01*
X130873223Y-96601777D01*
X130856747Y-96583598D01*
X130842133Y-96563893D01*
X130829520Y-96542849D01*
X130819030Y-96520671D01*
X130810765Y-96497571D01*
X130804804Y-96473773D01*
X130801204Y-96449504D01*
X130800000Y-96425000D01*
X130800000Y-95175000D01*
X130801204Y-95150496D01*
X130804804Y-95126227D01*
X130810765Y-95102429D01*
X130819030Y-95079329D01*
X130829520Y-95057151D01*
X130842133Y-95036107D01*
X130856747Y-95016402D01*
X130873223Y-94998223D01*
X130891402Y-94981747D01*
X130911107Y-94967133D01*
X130932151Y-94954520D01*
X130954329Y-94944030D01*
X130977429Y-94935765D01*
X131001227Y-94929804D01*
X131025496Y-94926204D01*
X131050000Y-94925000D01*
X131975000Y-94925000D01*
X131999504Y-94926204D01*
G37*
G36*
X134974504Y-94926204D02*
G01*
X134998773Y-94929804D01*
X135022571Y-94935765D01*
X135045671Y-94944030D01*
X135067849Y-94954520D01*
X135088893Y-94967133D01*
X135108598Y-94981747D01*
X135126777Y-94998223D01*
X135143253Y-95016402D01*
X135157867Y-95036107D01*
X135170480Y-95057151D01*
X135180970Y-95079329D01*
X135189235Y-95102429D01*
X135195196Y-95126227D01*
X135198796Y-95150496D01*
X135200000Y-95175000D01*
X135200000Y-96425000D01*
X135198796Y-96449504D01*
X135195196Y-96473773D01*
X135189235Y-96497571D01*
X135180970Y-96520671D01*
X135170480Y-96542849D01*
X135157867Y-96563893D01*
X135143253Y-96583598D01*
X135126777Y-96601777D01*
X135108598Y-96618253D01*
X135088893Y-96632867D01*
X135067849Y-96645480D01*
X135045671Y-96655970D01*
X135022571Y-96664235D01*
X134998773Y-96670196D01*
X134974504Y-96673796D01*
X134950000Y-96675000D01*
X134025000Y-96675000D01*
X134000496Y-96673796D01*
X133976227Y-96670196D01*
X133952429Y-96664235D01*
X133929329Y-96655970D01*
X133907151Y-96645480D01*
X133886107Y-96632867D01*
X133866402Y-96618253D01*
X133848223Y-96601777D01*
X133831747Y-96583598D01*
X133817133Y-96563893D01*
X133804520Y-96542849D01*
X133794030Y-96520671D01*
X133785765Y-96497571D01*
X133779804Y-96473773D01*
X133776204Y-96449504D01*
X133775000Y-96425000D01*
X133775000Y-95175000D01*
X133776204Y-95150496D01*
X133779804Y-95126227D01*
X133785765Y-95102429D01*
X133794030Y-95079329D01*
X133804520Y-95057151D01*
X133817133Y-95036107D01*
X133831747Y-95016402D01*
X133848223Y-94998223D01*
X133866402Y-94981747D01*
X133886107Y-94967133D01*
X133907151Y-94954520D01*
X133929329Y-94944030D01*
X133952429Y-94935765D01*
X133976227Y-94929804D01*
X134000496Y-94926204D01*
X134025000Y-94925000D01*
X134950000Y-94925000D01*
X134974504Y-94926204D01*
G37*
G36*
X134974504Y-88676204D02*
G01*
X134998773Y-88679804D01*
X135022571Y-88685765D01*
X135045671Y-88694030D01*
X135067849Y-88704520D01*
X135088893Y-88717133D01*
X135108598Y-88731747D01*
X135126777Y-88748223D01*
X135143253Y-88766402D01*
X135157867Y-88786107D01*
X135170480Y-88807151D01*
X135180970Y-88829329D01*
X135189235Y-88852429D01*
X135195196Y-88876227D01*
X135198796Y-88900496D01*
X135200000Y-88925000D01*
X135200000Y-90175000D01*
X135198796Y-90199504D01*
X135195196Y-90223773D01*
X135189235Y-90247571D01*
X135180970Y-90270671D01*
X135170480Y-90292849D01*
X135157867Y-90313893D01*
X135143253Y-90333598D01*
X135126777Y-90351777D01*
X135108598Y-90368253D01*
X135088893Y-90382867D01*
X135067849Y-90395480D01*
X135045671Y-90405970D01*
X135022571Y-90414235D01*
X134998773Y-90420196D01*
X134974504Y-90423796D01*
X134950000Y-90425000D01*
X134025000Y-90425000D01*
X134000496Y-90423796D01*
X133976227Y-90420196D01*
X133952429Y-90414235D01*
X133929329Y-90405970D01*
X133907151Y-90395480D01*
X133886107Y-90382867D01*
X133866402Y-90368253D01*
X133848223Y-90351777D01*
X133831747Y-90333598D01*
X133817133Y-90313893D01*
X133804520Y-90292849D01*
X133794030Y-90270671D01*
X133785765Y-90247571D01*
X133779804Y-90223773D01*
X133776204Y-90199504D01*
X133775000Y-90175000D01*
X133775000Y-88925000D01*
X133776204Y-88900496D01*
X133779804Y-88876227D01*
X133785765Y-88852429D01*
X133794030Y-88829329D01*
X133804520Y-88807151D01*
X133817133Y-88786107D01*
X133831747Y-88766402D01*
X133848223Y-88748223D01*
X133866402Y-88731747D01*
X133886107Y-88717133D01*
X133907151Y-88704520D01*
X133929329Y-88694030D01*
X133952429Y-88685765D01*
X133976227Y-88679804D01*
X134000496Y-88676204D01*
X134025000Y-88675000D01*
X134950000Y-88675000D01*
X134974504Y-88676204D01*
G37*
G36*
X131999504Y-88676204D02*
G01*
X132023773Y-88679804D01*
X132047571Y-88685765D01*
X132070671Y-88694030D01*
X132092849Y-88704520D01*
X132113893Y-88717133D01*
X132133598Y-88731747D01*
X132151777Y-88748223D01*
X132168253Y-88766402D01*
X132182867Y-88786107D01*
X132195480Y-88807151D01*
X132205970Y-88829329D01*
X132214235Y-88852429D01*
X132220196Y-88876227D01*
X132223796Y-88900496D01*
X132225000Y-88925000D01*
X132225000Y-90175000D01*
X132223796Y-90199504D01*
X132220196Y-90223773D01*
X132214235Y-90247571D01*
X132205970Y-90270671D01*
X132195480Y-90292849D01*
X132182867Y-90313893D01*
X132168253Y-90333598D01*
X132151777Y-90351777D01*
X132133598Y-90368253D01*
X132113893Y-90382867D01*
X132092849Y-90395480D01*
X132070671Y-90405970D01*
X132047571Y-90414235D01*
X132023773Y-90420196D01*
X131999504Y-90423796D01*
X131975000Y-90425000D01*
X131050000Y-90425000D01*
X131025496Y-90423796D01*
X131001227Y-90420196D01*
X130977429Y-90414235D01*
X130954329Y-90405970D01*
X130932151Y-90395480D01*
X130911107Y-90382867D01*
X130891402Y-90368253D01*
X130873223Y-90351777D01*
X130856747Y-90333598D01*
X130842133Y-90313893D01*
X130829520Y-90292849D01*
X130819030Y-90270671D01*
X130810765Y-90247571D01*
X130804804Y-90223773D01*
X130801204Y-90199504D01*
X130800000Y-90175000D01*
X130800000Y-88925000D01*
X130801204Y-88900496D01*
X130804804Y-88876227D01*
X130810765Y-88852429D01*
X130819030Y-88829329D01*
X130829520Y-88807151D01*
X130842133Y-88786107D01*
X130856747Y-88766402D01*
X130873223Y-88748223D01*
X130891402Y-88731747D01*
X130911107Y-88717133D01*
X130932151Y-88704520D01*
X130954329Y-88694030D01*
X130977429Y-88685765D01*
X131001227Y-88679804D01*
X131025496Y-88676204D01*
X131050000Y-88675000D01*
X131975000Y-88675000D01*
X131999504Y-88676204D01*
G37*
G36*
X131999504Y-82376204D02*
G01*
X132023773Y-82379804D01*
X132047571Y-82385765D01*
X132070671Y-82394030D01*
X132092849Y-82404520D01*
X132113893Y-82417133D01*
X132133598Y-82431747D01*
X132151777Y-82448223D01*
X132168253Y-82466402D01*
X132182867Y-82486107D01*
X132195480Y-82507151D01*
X132205970Y-82529329D01*
X132214235Y-82552429D01*
X132220196Y-82576227D01*
X132223796Y-82600496D01*
X132225000Y-82625000D01*
X132225000Y-83875000D01*
X132223796Y-83899504D01*
X132220196Y-83923773D01*
X132214235Y-83947571D01*
X132205970Y-83970671D01*
X132195480Y-83992849D01*
X132182867Y-84013893D01*
X132168253Y-84033598D01*
X132151777Y-84051777D01*
X132133598Y-84068253D01*
X132113893Y-84082867D01*
X132092849Y-84095480D01*
X132070671Y-84105970D01*
X132047571Y-84114235D01*
X132023773Y-84120196D01*
X131999504Y-84123796D01*
X131975000Y-84125000D01*
X131050000Y-84125000D01*
X131025496Y-84123796D01*
X131001227Y-84120196D01*
X130977429Y-84114235D01*
X130954329Y-84105970D01*
X130932151Y-84095480D01*
X130911107Y-84082867D01*
X130891402Y-84068253D01*
X130873223Y-84051777D01*
X130856747Y-84033598D01*
X130842133Y-84013893D01*
X130829520Y-83992849D01*
X130819030Y-83970671D01*
X130810765Y-83947571D01*
X130804804Y-83923773D01*
X130801204Y-83899504D01*
X130800000Y-83875000D01*
X130800000Y-82625000D01*
X130801204Y-82600496D01*
X130804804Y-82576227D01*
X130810765Y-82552429D01*
X130819030Y-82529329D01*
X130829520Y-82507151D01*
X130842133Y-82486107D01*
X130856747Y-82466402D01*
X130873223Y-82448223D01*
X130891402Y-82431747D01*
X130911107Y-82417133D01*
X130932151Y-82404520D01*
X130954329Y-82394030D01*
X130977429Y-82385765D01*
X131001227Y-82379804D01*
X131025496Y-82376204D01*
X131050000Y-82375000D01*
X131975000Y-82375000D01*
X131999504Y-82376204D01*
G37*
G36*
X134974504Y-82376204D02*
G01*
X134998773Y-82379804D01*
X135022571Y-82385765D01*
X135045671Y-82394030D01*
X135067849Y-82404520D01*
X135088893Y-82417133D01*
X135108598Y-82431747D01*
X135126777Y-82448223D01*
X135143253Y-82466402D01*
X135157867Y-82486107D01*
X135170480Y-82507151D01*
X135180970Y-82529329D01*
X135189235Y-82552429D01*
X135195196Y-82576227D01*
X135198796Y-82600496D01*
X135200000Y-82625000D01*
X135200000Y-83875000D01*
X135198796Y-83899504D01*
X135195196Y-83923773D01*
X135189235Y-83947571D01*
X135180970Y-83970671D01*
X135170480Y-83992849D01*
X135157867Y-84013893D01*
X135143253Y-84033598D01*
X135126777Y-84051777D01*
X135108598Y-84068253D01*
X135088893Y-84082867D01*
X135067849Y-84095480D01*
X135045671Y-84105970D01*
X135022571Y-84114235D01*
X134998773Y-84120196D01*
X134974504Y-84123796D01*
X134950000Y-84125000D01*
X134025000Y-84125000D01*
X134000496Y-84123796D01*
X133976227Y-84120196D01*
X133952429Y-84114235D01*
X133929329Y-84105970D01*
X133907151Y-84095480D01*
X133886107Y-84082867D01*
X133866402Y-84068253D01*
X133848223Y-84051777D01*
X133831747Y-84033598D01*
X133817133Y-84013893D01*
X133804520Y-83992849D01*
X133794030Y-83970671D01*
X133785765Y-83947571D01*
X133779804Y-83923773D01*
X133776204Y-83899504D01*
X133775000Y-83875000D01*
X133775000Y-82625000D01*
X133776204Y-82600496D01*
X133779804Y-82576227D01*
X133785765Y-82552429D01*
X133794030Y-82529329D01*
X133804520Y-82507151D01*
X133817133Y-82486107D01*
X133831747Y-82466402D01*
X133848223Y-82448223D01*
X133866402Y-82431747D01*
X133886107Y-82417133D01*
X133907151Y-82404520D01*
X133929329Y-82394030D01*
X133952429Y-82385765D01*
X133976227Y-82379804D01*
X134000496Y-82376204D01*
X134025000Y-82375000D01*
X134950000Y-82375000D01*
X134974504Y-82376204D01*
G37*
G36*
X134974504Y-76076204D02*
G01*
X134998773Y-76079804D01*
X135022571Y-76085765D01*
X135045671Y-76094030D01*
X135067849Y-76104520D01*
X135088893Y-76117133D01*
X135108598Y-76131747D01*
X135126777Y-76148223D01*
X135143253Y-76166402D01*
X135157867Y-76186107D01*
X135170480Y-76207151D01*
X135180970Y-76229329D01*
X135189235Y-76252429D01*
X135195196Y-76276227D01*
X135198796Y-76300496D01*
X135200000Y-76325000D01*
X135200000Y-77575000D01*
X135198796Y-77599504D01*
X135195196Y-77623773D01*
X135189235Y-77647571D01*
X135180970Y-77670671D01*
X135170480Y-77692849D01*
X135157867Y-77713893D01*
X135143253Y-77733598D01*
X135126777Y-77751777D01*
X135108598Y-77768253D01*
X135088893Y-77782867D01*
X135067849Y-77795480D01*
X135045671Y-77805970D01*
X135022571Y-77814235D01*
X134998773Y-77820196D01*
X134974504Y-77823796D01*
X134950000Y-77825000D01*
X134025000Y-77825000D01*
X134000496Y-77823796D01*
X133976227Y-77820196D01*
X133952429Y-77814235D01*
X133929329Y-77805970D01*
X133907151Y-77795480D01*
X133886107Y-77782867D01*
X133866402Y-77768253D01*
X133848223Y-77751777D01*
X133831747Y-77733598D01*
X133817133Y-77713893D01*
X133804520Y-77692849D01*
X133794030Y-77670671D01*
X133785765Y-77647571D01*
X133779804Y-77623773D01*
X133776204Y-77599504D01*
X133775000Y-77575000D01*
X133775000Y-76325000D01*
X133776204Y-76300496D01*
X133779804Y-76276227D01*
X133785765Y-76252429D01*
X133794030Y-76229329D01*
X133804520Y-76207151D01*
X133817133Y-76186107D01*
X133831747Y-76166402D01*
X133848223Y-76148223D01*
X133866402Y-76131747D01*
X133886107Y-76117133D01*
X133907151Y-76104520D01*
X133929329Y-76094030D01*
X133952429Y-76085765D01*
X133976227Y-76079804D01*
X134000496Y-76076204D01*
X134025000Y-76075000D01*
X134950000Y-76075000D01*
X134974504Y-76076204D01*
G37*
G36*
X131999504Y-76076204D02*
G01*
X132023773Y-76079804D01*
X132047571Y-76085765D01*
X132070671Y-76094030D01*
X132092849Y-76104520D01*
X132113893Y-76117133D01*
X132133598Y-76131747D01*
X132151777Y-76148223D01*
X132168253Y-76166402D01*
X132182867Y-76186107D01*
X132195480Y-76207151D01*
X132205970Y-76229329D01*
X132214235Y-76252429D01*
X132220196Y-76276227D01*
X132223796Y-76300496D01*
X132225000Y-76325000D01*
X132225000Y-77575000D01*
X132223796Y-77599504D01*
X132220196Y-77623773D01*
X132214235Y-77647571D01*
X132205970Y-77670671D01*
X132195480Y-77692849D01*
X132182867Y-77713893D01*
X132168253Y-77733598D01*
X132151777Y-77751777D01*
X132133598Y-77768253D01*
X132113893Y-77782867D01*
X132092849Y-77795480D01*
X132070671Y-77805970D01*
X132047571Y-77814235D01*
X132023773Y-77820196D01*
X131999504Y-77823796D01*
X131975000Y-77825000D01*
X131050000Y-77825000D01*
X131025496Y-77823796D01*
X131001227Y-77820196D01*
X130977429Y-77814235D01*
X130954329Y-77805970D01*
X130932151Y-77795480D01*
X130911107Y-77782867D01*
X130891402Y-77768253D01*
X130873223Y-77751777D01*
X130856747Y-77733598D01*
X130842133Y-77713893D01*
X130829520Y-77692849D01*
X130819030Y-77670671D01*
X130810765Y-77647571D01*
X130804804Y-77623773D01*
X130801204Y-77599504D01*
X130800000Y-77575000D01*
X130800000Y-76325000D01*
X130801204Y-76300496D01*
X130804804Y-76276227D01*
X130810765Y-76252429D01*
X130819030Y-76229329D01*
X130829520Y-76207151D01*
X130842133Y-76186107D01*
X130856747Y-76166402D01*
X130873223Y-76148223D01*
X130891402Y-76131747D01*
X130911107Y-76117133D01*
X130932151Y-76104520D01*
X130954329Y-76094030D01*
X130977429Y-76085765D01*
X131001227Y-76079804D01*
X131025496Y-76076204D01*
X131050000Y-76075000D01*
X131975000Y-76075000D01*
X131999504Y-76076204D01*
G37*
G36*
X131999504Y-72926204D02*
G01*
X132023773Y-72929804D01*
X132047571Y-72935765D01*
X132070671Y-72944030D01*
X132092849Y-72954520D01*
X132113893Y-72967133D01*
X132133598Y-72981747D01*
X132151777Y-72998223D01*
X132168253Y-73016402D01*
X132182867Y-73036107D01*
X132195480Y-73057151D01*
X132205970Y-73079329D01*
X132214235Y-73102429D01*
X132220196Y-73126227D01*
X132223796Y-73150496D01*
X132225000Y-73175000D01*
X132225000Y-74425000D01*
X132223796Y-74449504D01*
X132220196Y-74473773D01*
X132214235Y-74497571D01*
X132205970Y-74520671D01*
X132195480Y-74542849D01*
X132182867Y-74563893D01*
X132168253Y-74583598D01*
X132151777Y-74601777D01*
X132133598Y-74618253D01*
X132113893Y-74632867D01*
X132092849Y-74645480D01*
X132070671Y-74655970D01*
X132047571Y-74664235D01*
X132023773Y-74670196D01*
X131999504Y-74673796D01*
X131975000Y-74675000D01*
X131050000Y-74675000D01*
X131025496Y-74673796D01*
X131001227Y-74670196D01*
X130977429Y-74664235D01*
X130954329Y-74655970D01*
X130932151Y-74645480D01*
X130911107Y-74632867D01*
X130891402Y-74618253D01*
X130873223Y-74601777D01*
X130856747Y-74583598D01*
X130842133Y-74563893D01*
X130829520Y-74542849D01*
X130819030Y-74520671D01*
X130810765Y-74497571D01*
X130804804Y-74473773D01*
X130801204Y-74449504D01*
X130800000Y-74425000D01*
X130800000Y-73175000D01*
X130801204Y-73150496D01*
X130804804Y-73126227D01*
X130810765Y-73102429D01*
X130819030Y-73079329D01*
X130829520Y-73057151D01*
X130842133Y-73036107D01*
X130856747Y-73016402D01*
X130873223Y-72998223D01*
X130891402Y-72981747D01*
X130911107Y-72967133D01*
X130932151Y-72954520D01*
X130954329Y-72944030D01*
X130977429Y-72935765D01*
X131001227Y-72929804D01*
X131025496Y-72926204D01*
X131050000Y-72925000D01*
X131975000Y-72925000D01*
X131999504Y-72926204D01*
G37*
G36*
X134974504Y-72926204D02*
G01*
X134998773Y-72929804D01*
X135022571Y-72935765D01*
X135045671Y-72944030D01*
X135067849Y-72954520D01*
X135088893Y-72967133D01*
X135108598Y-72981747D01*
X135126777Y-72998223D01*
X135143253Y-73016402D01*
X135157867Y-73036107D01*
X135170480Y-73057151D01*
X135180970Y-73079329D01*
X135189235Y-73102429D01*
X135195196Y-73126227D01*
X135198796Y-73150496D01*
X135200000Y-73175000D01*
X135200000Y-74425000D01*
X135198796Y-74449504D01*
X135195196Y-74473773D01*
X135189235Y-74497571D01*
X135180970Y-74520671D01*
X135170480Y-74542849D01*
X135157867Y-74563893D01*
X135143253Y-74583598D01*
X135126777Y-74601777D01*
X135108598Y-74618253D01*
X135088893Y-74632867D01*
X135067849Y-74645480D01*
X135045671Y-74655970D01*
X135022571Y-74664235D01*
X134998773Y-74670196D01*
X134974504Y-74673796D01*
X134950000Y-74675000D01*
X134025000Y-74675000D01*
X134000496Y-74673796D01*
X133976227Y-74670196D01*
X133952429Y-74664235D01*
X133929329Y-74655970D01*
X133907151Y-74645480D01*
X133886107Y-74632867D01*
X133866402Y-74618253D01*
X133848223Y-74601777D01*
X133831747Y-74583598D01*
X133817133Y-74563893D01*
X133804520Y-74542849D01*
X133794030Y-74520671D01*
X133785765Y-74497571D01*
X133779804Y-74473773D01*
X133776204Y-74449504D01*
X133775000Y-74425000D01*
X133775000Y-73175000D01*
X133776204Y-73150496D01*
X133779804Y-73126227D01*
X133785765Y-73102429D01*
X133794030Y-73079329D01*
X133804520Y-73057151D01*
X133817133Y-73036107D01*
X133831747Y-73016402D01*
X133848223Y-72998223D01*
X133866402Y-72981747D01*
X133886107Y-72967133D01*
X133907151Y-72954520D01*
X133929329Y-72944030D01*
X133952429Y-72935765D01*
X133976227Y-72929804D01*
X134000496Y-72926204D01*
X134025000Y-72925000D01*
X134950000Y-72925000D01*
X134974504Y-72926204D01*
G37*
G36*
X134974504Y-92176204D02*
G01*
X134998773Y-92179804D01*
X135022571Y-92185765D01*
X135045671Y-92194030D01*
X135067849Y-92204520D01*
X135088893Y-92217133D01*
X135108598Y-92231747D01*
X135126777Y-92248223D01*
X135143253Y-92266402D01*
X135157867Y-92286107D01*
X135170480Y-92307151D01*
X135180970Y-92329329D01*
X135189235Y-92352429D01*
X135195196Y-92376227D01*
X135198796Y-92400496D01*
X135200000Y-92425000D01*
X135200000Y-93675000D01*
X135198796Y-93699504D01*
X135195196Y-93723773D01*
X135189235Y-93747571D01*
X135180970Y-93770671D01*
X135170480Y-93792849D01*
X135157867Y-93813893D01*
X135143253Y-93833598D01*
X135126777Y-93851777D01*
X135108598Y-93868253D01*
X135088893Y-93882867D01*
X135067849Y-93895480D01*
X135045671Y-93905970D01*
X135022571Y-93914235D01*
X134998773Y-93920196D01*
X134974504Y-93923796D01*
X134950000Y-93925000D01*
X134025000Y-93925000D01*
X134000496Y-93923796D01*
X133976227Y-93920196D01*
X133952429Y-93914235D01*
X133929329Y-93905970D01*
X133907151Y-93895480D01*
X133886107Y-93882867D01*
X133866402Y-93868253D01*
X133848223Y-93851777D01*
X133831747Y-93833598D01*
X133817133Y-93813893D01*
X133804520Y-93792849D01*
X133794030Y-93770671D01*
X133785765Y-93747571D01*
X133779804Y-93723773D01*
X133776204Y-93699504D01*
X133775000Y-93675000D01*
X133775000Y-92425000D01*
X133776204Y-92400496D01*
X133779804Y-92376227D01*
X133785765Y-92352429D01*
X133794030Y-92329329D01*
X133804520Y-92307151D01*
X133817133Y-92286107D01*
X133831747Y-92266402D01*
X133848223Y-92248223D01*
X133866402Y-92231747D01*
X133886107Y-92217133D01*
X133907151Y-92204520D01*
X133929329Y-92194030D01*
X133952429Y-92185765D01*
X133976227Y-92179804D01*
X134000496Y-92176204D01*
X134025000Y-92175000D01*
X134950000Y-92175000D01*
X134974504Y-92176204D01*
G37*
G36*
X131999504Y-92176204D02*
G01*
X132023773Y-92179804D01*
X132047571Y-92185765D01*
X132070671Y-92194030D01*
X132092849Y-92204520D01*
X132113893Y-92217133D01*
X132133598Y-92231747D01*
X132151777Y-92248223D01*
X132168253Y-92266402D01*
X132182867Y-92286107D01*
X132195480Y-92307151D01*
X132205970Y-92329329D01*
X132214235Y-92352429D01*
X132220196Y-92376227D01*
X132223796Y-92400496D01*
X132225000Y-92425000D01*
X132225000Y-93675000D01*
X132223796Y-93699504D01*
X132220196Y-93723773D01*
X132214235Y-93747571D01*
X132205970Y-93770671D01*
X132195480Y-93792849D01*
X132182867Y-93813893D01*
X132168253Y-93833598D01*
X132151777Y-93851777D01*
X132133598Y-93868253D01*
X132113893Y-93882867D01*
X132092849Y-93895480D01*
X132070671Y-93905970D01*
X132047571Y-93914235D01*
X132023773Y-93920196D01*
X131999504Y-93923796D01*
X131975000Y-93925000D01*
X131050000Y-93925000D01*
X131025496Y-93923796D01*
X131001227Y-93920196D01*
X130977429Y-93914235D01*
X130954329Y-93905970D01*
X130932151Y-93895480D01*
X130911107Y-93882867D01*
X130891402Y-93868253D01*
X130873223Y-93851777D01*
X130856747Y-93833598D01*
X130842133Y-93813893D01*
X130829520Y-93792849D01*
X130819030Y-93770671D01*
X130810765Y-93747571D01*
X130804804Y-93723773D01*
X130801204Y-93699504D01*
X130800000Y-93675000D01*
X130800000Y-92425000D01*
X130801204Y-92400496D01*
X130804804Y-92376227D01*
X130810765Y-92352429D01*
X130819030Y-92329329D01*
X130829520Y-92307151D01*
X130842133Y-92286107D01*
X130856747Y-92266402D01*
X130873223Y-92248223D01*
X130891402Y-92231747D01*
X130911107Y-92217133D01*
X130932151Y-92204520D01*
X130954329Y-92194030D01*
X130977429Y-92185765D01*
X131001227Y-92179804D01*
X131025496Y-92176204D01*
X131050000Y-92175000D01*
X131975000Y-92175000D01*
X131999504Y-92176204D01*
G37*
G36*
X131999504Y-85526204D02*
G01*
X132023773Y-85529804D01*
X132047571Y-85535765D01*
X132070671Y-85544030D01*
X132092849Y-85554520D01*
X132113893Y-85567133D01*
X132133598Y-85581747D01*
X132151777Y-85598223D01*
X132168253Y-85616402D01*
X132182867Y-85636107D01*
X132195480Y-85657151D01*
X132205970Y-85679329D01*
X132214235Y-85702429D01*
X132220196Y-85726227D01*
X132223796Y-85750496D01*
X132225000Y-85775000D01*
X132225000Y-87025000D01*
X132223796Y-87049504D01*
X132220196Y-87073773D01*
X132214235Y-87097571D01*
X132205970Y-87120671D01*
X132195480Y-87142849D01*
X132182867Y-87163893D01*
X132168253Y-87183598D01*
X132151777Y-87201777D01*
X132133598Y-87218253D01*
X132113893Y-87232867D01*
X132092849Y-87245480D01*
X132070671Y-87255970D01*
X132047571Y-87264235D01*
X132023773Y-87270196D01*
X131999504Y-87273796D01*
X131975000Y-87275000D01*
X131050000Y-87275000D01*
X131025496Y-87273796D01*
X131001227Y-87270196D01*
X130977429Y-87264235D01*
X130954329Y-87255970D01*
X130932151Y-87245480D01*
X130911107Y-87232867D01*
X130891402Y-87218253D01*
X130873223Y-87201777D01*
X130856747Y-87183598D01*
X130842133Y-87163893D01*
X130829520Y-87142849D01*
X130819030Y-87120671D01*
X130810765Y-87097571D01*
X130804804Y-87073773D01*
X130801204Y-87049504D01*
X130800000Y-87025000D01*
X130800000Y-85775000D01*
X130801204Y-85750496D01*
X130804804Y-85726227D01*
X130810765Y-85702429D01*
X130819030Y-85679329D01*
X130829520Y-85657151D01*
X130842133Y-85636107D01*
X130856747Y-85616402D01*
X130873223Y-85598223D01*
X130891402Y-85581747D01*
X130911107Y-85567133D01*
X130932151Y-85554520D01*
X130954329Y-85544030D01*
X130977429Y-85535765D01*
X131001227Y-85529804D01*
X131025496Y-85526204D01*
X131050000Y-85525000D01*
X131975000Y-85525000D01*
X131999504Y-85526204D01*
G37*
G36*
X134974504Y-85526204D02*
G01*
X134998773Y-85529804D01*
X135022571Y-85535765D01*
X135045671Y-85544030D01*
X135067849Y-85554520D01*
X135088893Y-85567133D01*
X135108598Y-85581747D01*
X135126777Y-85598223D01*
X135143253Y-85616402D01*
X135157867Y-85636107D01*
X135170480Y-85657151D01*
X135180970Y-85679329D01*
X135189235Y-85702429D01*
X135195196Y-85726227D01*
X135198796Y-85750496D01*
X135200000Y-85775000D01*
X135200000Y-87025000D01*
X135198796Y-87049504D01*
X135195196Y-87073773D01*
X135189235Y-87097571D01*
X135180970Y-87120671D01*
X135170480Y-87142849D01*
X135157867Y-87163893D01*
X135143253Y-87183598D01*
X135126777Y-87201777D01*
X135108598Y-87218253D01*
X135088893Y-87232867D01*
X135067849Y-87245480D01*
X135045671Y-87255970D01*
X135022571Y-87264235D01*
X134998773Y-87270196D01*
X134974504Y-87273796D01*
X134950000Y-87275000D01*
X134025000Y-87275000D01*
X134000496Y-87273796D01*
X133976227Y-87270196D01*
X133952429Y-87264235D01*
X133929329Y-87255970D01*
X133907151Y-87245480D01*
X133886107Y-87232867D01*
X133866402Y-87218253D01*
X133848223Y-87201777D01*
X133831747Y-87183598D01*
X133817133Y-87163893D01*
X133804520Y-87142849D01*
X133794030Y-87120671D01*
X133785765Y-87097571D01*
X133779804Y-87073773D01*
X133776204Y-87049504D01*
X133775000Y-87025000D01*
X133775000Y-85775000D01*
X133776204Y-85750496D01*
X133779804Y-85726227D01*
X133785765Y-85702429D01*
X133794030Y-85679329D01*
X133804520Y-85657151D01*
X133817133Y-85636107D01*
X133831747Y-85616402D01*
X133848223Y-85598223D01*
X133866402Y-85581747D01*
X133886107Y-85567133D01*
X133907151Y-85554520D01*
X133929329Y-85544030D01*
X133952429Y-85535765D01*
X133976227Y-85529804D01*
X134000496Y-85526204D01*
X134025000Y-85525000D01*
X134950000Y-85525000D01*
X134974504Y-85526204D01*
G37*
G36*
X134974504Y-79226204D02*
G01*
X134998773Y-79229804D01*
X135022571Y-79235765D01*
X135045671Y-79244030D01*
X135067849Y-79254520D01*
X135088893Y-79267133D01*
X135108598Y-79281747D01*
X135126777Y-79298223D01*
X135143253Y-79316402D01*
X135157867Y-79336107D01*
X135170480Y-79357151D01*
X135180970Y-79379329D01*
X135189235Y-79402429D01*
X135195196Y-79426227D01*
X135198796Y-79450496D01*
X135200000Y-79475000D01*
X135200000Y-80725000D01*
X135198796Y-80749504D01*
X135195196Y-80773773D01*
X135189235Y-80797571D01*
X135180970Y-80820671D01*
X135170480Y-80842849D01*
X135157867Y-80863893D01*
X135143253Y-80883598D01*
X135126777Y-80901777D01*
X135108598Y-80918253D01*
X135088893Y-80932867D01*
X135067849Y-80945480D01*
X135045671Y-80955970D01*
X135022571Y-80964235D01*
X134998773Y-80970196D01*
X134974504Y-80973796D01*
X134950000Y-80975000D01*
X134025000Y-80975000D01*
X134000496Y-80973796D01*
X133976227Y-80970196D01*
X133952429Y-80964235D01*
X133929329Y-80955970D01*
X133907151Y-80945480D01*
X133886107Y-80932867D01*
X133866402Y-80918253D01*
X133848223Y-80901777D01*
X133831747Y-80883598D01*
X133817133Y-80863893D01*
X133804520Y-80842849D01*
X133794030Y-80820671D01*
X133785765Y-80797571D01*
X133779804Y-80773773D01*
X133776204Y-80749504D01*
X133775000Y-80725000D01*
X133775000Y-79475000D01*
X133776204Y-79450496D01*
X133779804Y-79426227D01*
X133785765Y-79402429D01*
X133794030Y-79379329D01*
X133804520Y-79357151D01*
X133817133Y-79336107D01*
X133831747Y-79316402D01*
X133848223Y-79298223D01*
X133866402Y-79281747D01*
X133886107Y-79267133D01*
X133907151Y-79254520D01*
X133929329Y-79244030D01*
X133952429Y-79235765D01*
X133976227Y-79229804D01*
X134000496Y-79226204D01*
X134025000Y-79225000D01*
X134950000Y-79225000D01*
X134974504Y-79226204D01*
G37*
G36*
X131999504Y-79226204D02*
G01*
X132023773Y-79229804D01*
X132047571Y-79235765D01*
X132070671Y-79244030D01*
X132092849Y-79254520D01*
X132113893Y-79267133D01*
X132133598Y-79281747D01*
X132151777Y-79298223D01*
X132168253Y-79316402D01*
X132182867Y-79336107D01*
X132195480Y-79357151D01*
X132205970Y-79379329D01*
X132214235Y-79402429D01*
X132220196Y-79426227D01*
X132223796Y-79450496D01*
X132225000Y-79475000D01*
X132225000Y-80725000D01*
X132223796Y-80749504D01*
X132220196Y-80773773D01*
X132214235Y-80797571D01*
X132205970Y-80820671D01*
X132195480Y-80842849D01*
X132182867Y-80863893D01*
X132168253Y-80883598D01*
X132151777Y-80901777D01*
X132133598Y-80918253D01*
X132113893Y-80932867D01*
X132092849Y-80945480D01*
X132070671Y-80955970D01*
X132047571Y-80964235D01*
X132023773Y-80970196D01*
X131999504Y-80973796D01*
X131975000Y-80975000D01*
X131050000Y-80975000D01*
X131025496Y-80973796D01*
X131001227Y-80970196D01*
X130977429Y-80964235D01*
X130954329Y-80955970D01*
X130932151Y-80945480D01*
X130911107Y-80932867D01*
X130891402Y-80918253D01*
X130873223Y-80901777D01*
X130856747Y-80883598D01*
X130842133Y-80863893D01*
X130829520Y-80842849D01*
X130819030Y-80820671D01*
X130810765Y-80797571D01*
X130804804Y-80773773D01*
X130801204Y-80749504D01*
X130800000Y-80725000D01*
X130800000Y-79475000D01*
X130801204Y-79450496D01*
X130804804Y-79426227D01*
X130810765Y-79402429D01*
X130819030Y-79379329D01*
X130829520Y-79357151D01*
X130842133Y-79336107D01*
X130856747Y-79316402D01*
X130873223Y-79298223D01*
X130891402Y-79281747D01*
X130911107Y-79267133D01*
X130932151Y-79254520D01*
X130954329Y-79244030D01*
X130977429Y-79235765D01*
X131001227Y-79229804D01*
X131025496Y-79226204D01*
X131050000Y-79225000D01*
X131975000Y-79225000D01*
X131999504Y-79226204D01*
G37*
D14*
X106600000Y-79350000D03*
X106600000Y-80150000D03*
X106600000Y-80950000D03*
X106600000Y-81750000D03*
X106600000Y-82550000D03*
X106600000Y-83350000D03*
X106600000Y-84150000D03*
X106600000Y-84950000D03*
X106600000Y-85750000D03*
X106600000Y-86550000D03*
X106600000Y-87350000D03*
D15*
X108300000Y-89050000D03*
X109100000Y-89050000D03*
X109900000Y-89050000D03*
X110700000Y-89050000D03*
X111500000Y-89050000D03*
X112300000Y-89050000D03*
X113100000Y-89050000D03*
X113900000Y-89050000D03*
X114700000Y-89050000D03*
X115500000Y-89050000D03*
X116300000Y-89050000D03*
D14*
X118000000Y-87350000D03*
X118000000Y-86550000D03*
X118000000Y-85750000D03*
X118000000Y-84950000D03*
X118000000Y-84150000D03*
X118000000Y-83350000D03*
X118000000Y-82550000D03*
X118000000Y-81750000D03*
X118000000Y-80950000D03*
X118000000Y-80150000D03*
X118000000Y-79350000D03*
D15*
X116300000Y-77650000D03*
X115500000Y-77650000D03*
X114700000Y-77650000D03*
X113900000Y-77650000D03*
X113100000Y-77650000D03*
X112300000Y-77650000D03*
X111500000Y-77650000D03*
X110700000Y-77650000D03*
X109900000Y-77650000D03*
X109100000Y-77650000D03*
X108300000Y-77650000D03*
D16*
X104612500Y-97400000D03*
X116487500Y-97400000D03*
M02*
