G04 #@! TF.GenerationSoftware,KiCad,Pcbnew,(5.1.5)-3*
G04 #@! TF.CreationDate,2020-08-03T22:27:43-04:00*
G04 #@! TF.ProjectId,Kitchen Timer,4b697463-6865-46e2-9054-696d65722e6b,rev?*
G04 #@! TF.SameCoordinates,Original*
G04 #@! TF.FileFunction,Legend,Top*
G04 #@! TF.FilePolarity,Positive*
%FSLAX46Y46*%
G04 Gerber Fmt 4.6, Leading zero omitted, Abs format (unit mm)*
G04 Created by KiCad (PCBNEW (5.1.5)-3) date 2020-08-03 22:27:43*
%MOMM*%
%LPD*%
G04 APERTURE LIST*
%ADD10C,0.120000*%
%ADD11C,0.150000*%
G04 APERTURE END LIST*
D10*
X134800000Y-105750000D02*
G75*
G03X134800000Y-105750000I-6100000J0D01*
G01*
X115597936Y-103260000D02*
X116802064Y-103260000D01*
X115597936Y-101440000D02*
X116802064Y-101440000D01*
X104947936Y-101440000D02*
X106152064Y-101440000D01*
X104947936Y-103260000D02*
X106152064Y-103260000D01*
X100640000Y-82552064D02*
X100640000Y-81347936D01*
X102460000Y-82552064D02*
X102460000Y-81347936D01*
X116550000Y-110560000D02*
X119410000Y-110560000D01*
X119410000Y-110560000D02*
X119410000Y-108640000D01*
X119410000Y-108640000D02*
X116550000Y-108640000D01*
X92360000Y-66240000D02*
X92360000Y-66900000D01*
X90630000Y-66240000D02*
X92360000Y-66240000D01*
X88060000Y-73860000D02*
X88270000Y-73860000D01*
X88060000Y-66240000D02*
X88270000Y-66240000D01*
X90630000Y-73860000D02*
X92360000Y-73860000D01*
X92360000Y-73860000D02*
X92360000Y-73210000D01*
X93060000Y-68290000D02*
X93060000Y-68740000D01*
X93060000Y-68290000D02*
X92670000Y-68290000D01*
X95835000Y-87370000D02*
X95835000Y-103150000D01*
X95835000Y-103150000D02*
X86485000Y-103150000D01*
X86485000Y-103150000D02*
X86485000Y-87370000D01*
X86485000Y-87370000D02*
X95835000Y-87370000D01*
X86235000Y-87120000D02*
X86235000Y-89660000D01*
X86235000Y-87120000D02*
X88775000Y-87120000D01*
X87890000Y-79352064D02*
X87890000Y-78147936D01*
X89710000Y-79352064D02*
X89710000Y-78147936D01*
X90740000Y-79352064D02*
X90740000Y-78147936D01*
X92560000Y-79352064D02*
X92560000Y-78147936D01*
X113152064Y-108590000D02*
X111947936Y-108590000D01*
X113152064Y-110410000D02*
X111947936Y-110410000D01*
X133602064Y-94890000D02*
X132397936Y-94890000D01*
X133602064Y-96710000D02*
X132397936Y-96710000D01*
X133602064Y-90460000D02*
X132397936Y-90460000D01*
X133602064Y-88640000D02*
X132397936Y-88640000D01*
X133602064Y-82340000D02*
X132397936Y-82340000D01*
X133602064Y-84160000D02*
X132397936Y-84160000D01*
X133602064Y-77860000D02*
X132397936Y-77860000D01*
X133602064Y-76040000D02*
X132397936Y-76040000D01*
X133602064Y-72890000D02*
X132397936Y-72890000D01*
X133602064Y-74710000D02*
X132397936Y-74710000D01*
X133602064Y-93960000D02*
X132397936Y-93960000D01*
X133602064Y-92140000D02*
X132397936Y-92140000D01*
X133602064Y-85490000D02*
X132397936Y-85490000D01*
X133602064Y-87310000D02*
X132397936Y-87310000D01*
X133602064Y-81010000D02*
X132397936Y-81010000D01*
X133602064Y-79190000D02*
X132397936Y-79190000D01*
X98900000Y-111500000D02*
X103400000Y-111500000D01*
X97650000Y-107500000D02*
X97650000Y-109000000D01*
X103400000Y-105000000D02*
X98900000Y-105000000D01*
X104650000Y-109000000D02*
X104650000Y-107500000D01*
X122950000Y-62450000D02*
X122950000Y-63950000D01*
X124200000Y-66450000D02*
X128700000Y-66450000D01*
X129950000Y-63950000D02*
X129950000Y-62450000D01*
X128700000Y-59950000D02*
X124200000Y-59950000D01*
X113700000Y-59950000D02*
X109200000Y-59950000D01*
X114950000Y-63950000D02*
X114950000Y-62450000D01*
X109200000Y-66450000D02*
X113700000Y-66450000D01*
X107950000Y-62450000D02*
X107950000Y-63950000D01*
D11*
X107125000Y-78175000D02*
X107125000Y-78750000D01*
X117475000Y-78175000D02*
X117475000Y-78850000D01*
X117475000Y-88525000D02*
X117475000Y-87850000D01*
X107125000Y-88525000D02*
X107125000Y-87850000D01*
X107125000Y-78175000D02*
X107800000Y-78175000D01*
X107125000Y-88525000D02*
X107800000Y-88525000D01*
X117475000Y-88525000D02*
X116800000Y-88525000D01*
X117475000Y-78175000D02*
X116800000Y-78175000D01*
X107125000Y-78750000D02*
X105850000Y-78750000D01*
D10*
X137150000Y-59480000D02*
X156390000Y-59480000D01*
X137150000Y-59480000D02*
X137150000Y-110020000D01*
X137150000Y-110020000D02*
X156390000Y-110020000D01*
X156390000Y-110020000D02*
X156390000Y-59480000D01*
X136900000Y-77400000D02*
X136900000Y-79400000D01*
X116450000Y-94850000D02*
X100475000Y-94850000D01*
X100475000Y-94850000D02*
X100475000Y-99950000D01*
X100475000Y-99950000D02*
X116450000Y-99950000D01*
D11*
X124509047Y-103281428D02*
X125270952Y-103281428D01*
X124890000Y-103662380D02*
X124890000Y-102900476D01*
M02*
