G04 #@! TF.GenerationSoftware,KiCad,Pcbnew,(5.1.5)-3*
G04 #@! TF.CreationDate,2020-08-03T22:27:43-04:00*
G04 #@! TF.ProjectId,Kitchen Timer,4b697463-6865-46e2-9054-696d65722e6b,rev?*
G04 #@! TF.SameCoordinates,Original*
G04 #@! TF.FileFunction,Soldermask,Top*
G04 #@! TF.FilePolarity,Negative*
%FSLAX46Y46*%
G04 Gerber Fmt 4.6, Leading zero omitted, Abs format (unit mm)*
G04 Created by KiCad (PCBNEW (5.1.5)-3) date 2020-08-03 22:27:43*
%MOMM*%
%LPD*%
G04 APERTURE LIST*
%ADD10C,0.100000*%
G04 APERTURE END LIST*
D10*
G36*
X104706564Y-109489389D02*
G01*
X104897833Y-109568615D01*
X104897835Y-109568616D01*
X105069973Y-109683635D01*
X105216365Y-109830027D01*
X105331385Y-110002167D01*
X105410611Y-110193436D01*
X105451000Y-110396484D01*
X105451000Y-110603516D01*
X105410611Y-110806564D01*
X105331385Y-110997833D01*
X105331384Y-110997835D01*
X105216365Y-111169973D01*
X105069973Y-111316365D01*
X104897835Y-111431384D01*
X104897834Y-111431385D01*
X104897833Y-111431385D01*
X104706564Y-111510611D01*
X104503516Y-111551000D01*
X104296484Y-111551000D01*
X104093436Y-111510611D01*
X103902167Y-111431385D01*
X103902166Y-111431385D01*
X103902165Y-111431384D01*
X103730027Y-111316365D01*
X103583635Y-111169973D01*
X103468616Y-110997835D01*
X103468615Y-110997833D01*
X103389389Y-110806564D01*
X103349000Y-110603516D01*
X103349000Y-110396484D01*
X103389389Y-110193436D01*
X103468615Y-110002167D01*
X103583635Y-109830027D01*
X103730027Y-109683635D01*
X103902165Y-109568616D01*
X103902167Y-109568615D01*
X104093436Y-109489389D01*
X104296484Y-109449000D01*
X104503516Y-109449000D01*
X104706564Y-109489389D01*
G37*
G36*
X98206564Y-109489389D02*
G01*
X98397833Y-109568615D01*
X98397835Y-109568616D01*
X98569973Y-109683635D01*
X98716365Y-109830027D01*
X98831385Y-110002167D01*
X98910611Y-110193436D01*
X98951000Y-110396484D01*
X98951000Y-110603516D01*
X98910611Y-110806564D01*
X98831385Y-110997833D01*
X98831384Y-110997835D01*
X98716365Y-111169973D01*
X98569973Y-111316365D01*
X98397835Y-111431384D01*
X98397834Y-111431385D01*
X98397833Y-111431385D01*
X98206564Y-111510611D01*
X98003516Y-111551000D01*
X97796484Y-111551000D01*
X97593436Y-111510611D01*
X97402167Y-111431385D01*
X97402166Y-111431385D01*
X97402165Y-111431384D01*
X97230027Y-111316365D01*
X97083635Y-111169973D01*
X96968616Y-110997835D01*
X96968615Y-110997833D01*
X96889389Y-110806564D01*
X96849000Y-110603516D01*
X96849000Y-110396484D01*
X96889389Y-110193436D01*
X96968615Y-110002167D01*
X97083635Y-109830027D01*
X97230027Y-109683635D01*
X97402165Y-109568616D01*
X97402167Y-109568615D01*
X97593436Y-109489389D01*
X97796484Y-109449000D01*
X98003516Y-109449000D01*
X98206564Y-109489389D01*
G37*
G36*
X111675562Y-108578181D02*
G01*
X111710481Y-108588774D01*
X111742663Y-108605976D01*
X111770873Y-108629127D01*
X111794024Y-108657337D01*
X111811226Y-108689519D01*
X111821819Y-108724438D01*
X111826000Y-108766895D01*
X111826000Y-110233105D01*
X111821819Y-110275562D01*
X111811226Y-110310481D01*
X111794024Y-110342663D01*
X111770873Y-110370873D01*
X111742663Y-110394024D01*
X111710481Y-110411226D01*
X111675562Y-110421819D01*
X111633105Y-110426000D01*
X110491895Y-110426000D01*
X110449438Y-110421819D01*
X110414519Y-110411226D01*
X110382337Y-110394024D01*
X110354127Y-110370873D01*
X110330976Y-110342663D01*
X110313774Y-110310481D01*
X110303181Y-110275562D01*
X110299000Y-110233105D01*
X110299000Y-108766895D01*
X110303181Y-108724438D01*
X110313774Y-108689519D01*
X110330976Y-108657337D01*
X110354127Y-108629127D01*
X110382337Y-108605976D01*
X110414519Y-108588774D01*
X110449438Y-108578181D01*
X110491895Y-108574000D01*
X111633105Y-108574000D01*
X111675562Y-108578181D01*
G37*
G36*
X114650562Y-108578181D02*
G01*
X114685481Y-108588774D01*
X114717663Y-108605976D01*
X114745873Y-108629127D01*
X114769024Y-108657337D01*
X114786226Y-108689519D01*
X114796819Y-108724438D01*
X114801000Y-108766895D01*
X114801000Y-110233105D01*
X114796819Y-110275562D01*
X114786226Y-110310481D01*
X114769024Y-110342663D01*
X114745873Y-110370873D01*
X114717663Y-110394024D01*
X114685481Y-110411226D01*
X114650562Y-110421819D01*
X114608105Y-110426000D01*
X113466895Y-110426000D01*
X113424438Y-110421819D01*
X113389519Y-110411226D01*
X113357337Y-110394024D01*
X113329127Y-110370873D01*
X113305976Y-110342663D01*
X113288774Y-110310481D01*
X113278181Y-110275562D01*
X113274000Y-110233105D01*
X113274000Y-108766895D01*
X113278181Y-108724438D01*
X113288774Y-108689519D01*
X113305976Y-108657337D01*
X113329127Y-108629127D01*
X113357337Y-108605976D01*
X113389519Y-108588774D01*
X113424438Y-108578181D01*
X113466895Y-108574000D01*
X114608105Y-108574000D01*
X114650562Y-108578181D01*
G37*
G36*
X119038674Y-108853465D02*
G01*
X119076367Y-108864899D01*
X119111103Y-108883466D01*
X119141548Y-108908452D01*
X119166534Y-108938897D01*
X119185101Y-108973633D01*
X119196535Y-109011326D01*
X119201000Y-109056661D01*
X119201000Y-110143339D01*
X119196535Y-110188674D01*
X119185101Y-110226367D01*
X119166534Y-110261103D01*
X119141548Y-110291548D01*
X119111103Y-110316534D01*
X119076367Y-110335101D01*
X119038674Y-110346535D01*
X118993339Y-110351000D01*
X118156661Y-110351000D01*
X118111326Y-110346535D01*
X118073633Y-110335101D01*
X118038897Y-110316534D01*
X118008452Y-110291548D01*
X117983466Y-110261103D01*
X117964899Y-110226367D01*
X117953465Y-110188674D01*
X117949000Y-110143339D01*
X117949000Y-109056661D01*
X117953465Y-109011326D01*
X117964899Y-108973633D01*
X117983466Y-108938897D01*
X118008452Y-108908452D01*
X118038897Y-108883466D01*
X118073633Y-108864899D01*
X118111326Y-108853465D01*
X118156661Y-108849000D01*
X118993339Y-108849000D01*
X119038674Y-108853465D01*
G37*
G36*
X116988674Y-108853465D02*
G01*
X117026367Y-108864899D01*
X117061103Y-108883466D01*
X117091548Y-108908452D01*
X117116534Y-108938897D01*
X117135101Y-108973633D01*
X117146535Y-109011326D01*
X117151000Y-109056661D01*
X117151000Y-110143339D01*
X117146535Y-110188674D01*
X117135101Y-110226367D01*
X117116534Y-110261103D01*
X117091548Y-110291548D01*
X117061103Y-110316534D01*
X117026367Y-110335101D01*
X116988674Y-110346535D01*
X116943339Y-110351000D01*
X116106661Y-110351000D01*
X116061326Y-110346535D01*
X116023633Y-110335101D01*
X115988897Y-110316534D01*
X115958452Y-110291548D01*
X115933466Y-110261103D01*
X115914899Y-110226367D01*
X115903465Y-110188674D01*
X115899000Y-110143339D01*
X115899000Y-109056661D01*
X115903465Y-109011326D01*
X115914899Y-108973633D01*
X115933466Y-108938897D01*
X115958452Y-108908452D01*
X115988897Y-108883466D01*
X116023633Y-108864899D01*
X116061326Y-108853465D01*
X116106661Y-108849000D01*
X116943339Y-108849000D01*
X116988674Y-108853465D01*
G37*
G36*
X98206564Y-104989389D02*
G01*
X98397833Y-105068615D01*
X98397835Y-105068616D01*
X98569973Y-105183635D01*
X98716365Y-105330027D01*
X98792143Y-105443436D01*
X98831385Y-105502167D01*
X98910611Y-105693436D01*
X98951000Y-105896484D01*
X98951000Y-106103516D01*
X98910611Y-106306564D01*
X98831385Y-106497833D01*
X98831384Y-106497835D01*
X98716365Y-106669973D01*
X98569973Y-106816365D01*
X98397835Y-106931384D01*
X98397834Y-106931385D01*
X98397833Y-106931385D01*
X98206564Y-107010611D01*
X98003516Y-107051000D01*
X97796484Y-107051000D01*
X97593436Y-107010611D01*
X97402167Y-106931385D01*
X97402166Y-106931385D01*
X97402165Y-106931384D01*
X97230027Y-106816365D01*
X97083635Y-106669973D01*
X96968616Y-106497835D01*
X96968615Y-106497833D01*
X96889389Y-106306564D01*
X96849000Y-106103516D01*
X96849000Y-105896484D01*
X96889389Y-105693436D01*
X96968615Y-105502167D01*
X97007858Y-105443436D01*
X97083635Y-105330027D01*
X97230027Y-105183635D01*
X97402165Y-105068616D01*
X97402167Y-105068615D01*
X97593436Y-104989389D01*
X97796484Y-104949000D01*
X98003516Y-104949000D01*
X98206564Y-104989389D01*
G37*
G36*
X104706564Y-104989389D02*
G01*
X104897833Y-105068615D01*
X104897835Y-105068616D01*
X105069973Y-105183635D01*
X105216365Y-105330027D01*
X105292143Y-105443436D01*
X105331385Y-105502167D01*
X105410611Y-105693436D01*
X105451000Y-105896484D01*
X105451000Y-106103516D01*
X105410611Y-106306564D01*
X105331385Y-106497833D01*
X105331384Y-106497835D01*
X105216365Y-106669973D01*
X105069973Y-106816365D01*
X104897835Y-106931384D01*
X104897834Y-106931385D01*
X104897833Y-106931385D01*
X104706564Y-107010611D01*
X104503516Y-107051000D01*
X104296484Y-107051000D01*
X104093436Y-107010611D01*
X103902167Y-106931385D01*
X103902166Y-106931385D01*
X103902165Y-106931384D01*
X103730027Y-106816365D01*
X103583635Y-106669973D01*
X103468616Y-106497835D01*
X103468615Y-106497833D01*
X103389389Y-106306564D01*
X103349000Y-106103516D01*
X103349000Y-105896484D01*
X103389389Y-105693436D01*
X103468615Y-105502167D01*
X103507858Y-105443436D01*
X103583635Y-105330027D01*
X103730027Y-105183635D01*
X103902165Y-105068616D01*
X103902167Y-105068615D01*
X104093436Y-104989389D01*
X104296484Y-104949000D01*
X104503516Y-104949000D01*
X104706564Y-104989389D01*
G37*
G36*
X132806564Y-104739389D02*
G01*
X132997833Y-104818615D01*
X132997835Y-104818616D01*
X133169973Y-104933635D01*
X133316365Y-105080027D01*
X133385594Y-105183635D01*
X133431385Y-105252167D01*
X133510611Y-105443436D01*
X133551000Y-105646484D01*
X133551000Y-105853516D01*
X133510611Y-106056564D01*
X133431385Y-106247833D01*
X133431384Y-106247835D01*
X133316365Y-106419973D01*
X133169973Y-106566365D01*
X132997835Y-106681384D01*
X132997834Y-106681385D01*
X132997833Y-106681385D01*
X132806564Y-106760611D01*
X132603516Y-106801000D01*
X132396484Y-106801000D01*
X132193436Y-106760611D01*
X132002167Y-106681385D01*
X132002166Y-106681385D01*
X132002165Y-106681384D01*
X131830027Y-106566365D01*
X131683635Y-106419973D01*
X131568616Y-106247835D01*
X131568615Y-106247833D01*
X131489389Y-106056564D01*
X131449000Y-105853516D01*
X131449000Y-105646484D01*
X131489389Y-105443436D01*
X131568615Y-105252167D01*
X131614407Y-105183635D01*
X131683635Y-105080027D01*
X131830027Y-104933635D01*
X132002165Y-104818616D01*
X132002167Y-104818615D01*
X132193436Y-104739389D01*
X132396484Y-104699000D01*
X132603516Y-104699000D01*
X132806564Y-104739389D01*
G37*
G36*
X125951000Y-106801000D02*
G01*
X123849000Y-106801000D01*
X123849000Y-104699000D01*
X125951000Y-104699000D01*
X125951000Y-106801000D01*
G37*
G36*
X104675562Y-101428181D02*
G01*
X104710481Y-101438774D01*
X104742663Y-101455976D01*
X104770873Y-101479127D01*
X104794024Y-101507337D01*
X104811226Y-101539519D01*
X104821819Y-101574438D01*
X104826000Y-101616895D01*
X104826000Y-103083105D01*
X104821819Y-103125562D01*
X104811226Y-103160481D01*
X104794024Y-103192663D01*
X104770873Y-103220873D01*
X104742663Y-103244024D01*
X104710481Y-103261226D01*
X104675562Y-103271819D01*
X104633105Y-103276000D01*
X103491895Y-103276000D01*
X103449438Y-103271819D01*
X103414519Y-103261226D01*
X103382337Y-103244024D01*
X103354127Y-103220873D01*
X103330976Y-103192663D01*
X103313774Y-103160481D01*
X103303181Y-103125562D01*
X103299000Y-103083105D01*
X103299000Y-101616895D01*
X103303181Y-101574438D01*
X103313774Y-101539519D01*
X103330976Y-101507337D01*
X103354127Y-101479127D01*
X103382337Y-101455976D01*
X103414519Y-101438774D01*
X103449438Y-101428181D01*
X103491895Y-101424000D01*
X104633105Y-101424000D01*
X104675562Y-101428181D01*
G37*
G36*
X107650562Y-101428181D02*
G01*
X107685481Y-101438774D01*
X107717663Y-101455976D01*
X107745873Y-101479127D01*
X107769024Y-101507337D01*
X107786226Y-101539519D01*
X107796819Y-101574438D01*
X107801000Y-101616895D01*
X107801000Y-103083105D01*
X107796819Y-103125562D01*
X107786226Y-103160481D01*
X107769024Y-103192663D01*
X107745873Y-103220873D01*
X107717663Y-103244024D01*
X107685481Y-103261226D01*
X107650562Y-103271819D01*
X107608105Y-103276000D01*
X106466895Y-103276000D01*
X106424438Y-103271819D01*
X106389519Y-103261226D01*
X106357337Y-103244024D01*
X106329127Y-103220873D01*
X106305976Y-103192663D01*
X106288774Y-103160481D01*
X106278181Y-103125562D01*
X106274000Y-103083105D01*
X106274000Y-101616895D01*
X106278181Y-101574438D01*
X106288774Y-101539519D01*
X106305976Y-101507337D01*
X106329127Y-101479127D01*
X106357337Y-101455976D01*
X106389519Y-101438774D01*
X106424438Y-101428181D01*
X106466895Y-101424000D01*
X107608105Y-101424000D01*
X107650562Y-101428181D01*
G37*
G36*
X115325562Y-101428181D02*
G01*
X115360481Y-101438774D01*
X115392663Y-101455976D01*
X115420873Y-101479127D01*
X115444024Y-101507337D01*
X115461226Y-101539519D01*
X115471819Y-101574438D01*
X115476000Y-101616895D01*
X115476000Y-103083105D01*
X115471819Y-103125562D01*
X115461226Y-103160481D01*
X115444024Y-103192663D01*
X115420873Y-103220873D01*
X115392663Y-103244024D01*
X115360481Y-103261226D01*
X115325562Y-103271819D01*
X115283105Y-103276000D01*
X114141895Y-103276000D01*
X114099438Y-103271819D01*
X114064519Y-103261226D01*
X114032337Y-103244024D01*
X114004127Y-103220873D01*
X113980976Y-103192663D01*
X113963774Y-103160481D01*
X113953181Y-103125562D01*
X113949000Y-103083105D01*
X113949000Y-101616895D01*
X113953181Y-101574438D01*
X113963774Y-101539519D01*
X113980976Y-101507337D01*
X114004127Y-101479127D01*
X114032337Y-101455976D01*
X114064519Y-101438774D01*
X114099438Y-101428181D01*
X114141895Y-101424000D01*
X115283105Y-101424000D01*
X115325562Y-101428181D01*
G37*
G36*
X118300562Y-101428181D02*
G01*
X118335481Y-101438774D01*
X118367663Y-101455976D01*
X118395873Y-101479127D01*
X118419024Y-101507337D01*
X118436226Y-101539519D01*
X118446819Y-101574438D01*
X118451000Y-101616895D01*
X118451000Y-103083105D01*
X118446819Y-103125562D01*
X118436226Y-103160481D01*
X118419024Y-103192663D01*
X118395873Y-103220873D01*
X118367663Y-103244024D01*
X118335481Y-103261226D01*
X118300562Y-103271819D01*
X118258105Y-103276000D01*
X117116895Y-103276000D01*
X117074438Y-103271819D01*
X117039519Y-103261226D01*
X117007337Y-103244024D01*
X116979127Y-103220873D01*
X116955976Y-103192663D01*
X116938774Y-103160481D01*
X116928181Y-103125562D01*
X116924000Y-103083105D01*
X116924000Y-101616895D01*
X116928181Y-101574438D01*
X116938774Y-101539519D01*
X116955976Y-101507337D01*
X116979127Y-101479127D01*
X117007337Y-101455976D01*
X117039519Y-101438774D01*
X117074438Y-101428181D01*
X117116895Y-101424000D01*
X118258105Y-101424000D01*
X118300562Y-101428181D01*
G37*
G36*
X90156778Y-96920547D02*
G01*
X90323224Y-96989491D01*
X90473022Y-97089583D01*
X90600417Y-97216978D01*
X90700509Y-97366776D01*
X90769453Y-97533222D01*
X90804600Y-97709918D01*
X90804600Y-97890082D01*
X90769453Y-98066778D01*
X90700509Y-98233224D01*
X90600417Y-98383022D01*
X90473022Y-98510417D01*
X90323224Y-98610509D01*
X90156778Y-98679453D01*
X89980082Y-98714600D01*
X89799918Y-98714600D01*
X89623222Y-98679453D01*
X89456776Y-98610509D01*
X89306978Y-98510417D01*
X89179583Y-98383022D01*
X89079491Y-98233224D01*
X89010547Y-98066778D01*
X88975400Y-97890082D01*
X88975400Y-97709918D01*
X89010547Y-97533222D01*
X89079491Y-97366776D01*
X89179583Y-97216978D01*
X89306978Y-97089583D01*
X89456776Y-96989491D01*
X89623222Y-96920547D01*
X89799918Y-96885400D01*
X89980082Y-96885400D01*
X90156778Y-96920547D01*
G37*
G36*
X92696778Y-96920547D02*
G01*
X92863224Y-96989491D01*
X93013022Y-97089583D01*
X93140417Y-97216978D01*
X93240509Y-97366776D01*
X93309453Y-97533222D01*
X93344600Y-97709918D01*
X93344600Y-97890082D01*
X93309453Y-98066778D01*
X93240509Y-98233224D01*
X93140417Y-98383022D01*
X93013022Y-98510417D01*
X92863224Y-98610509D01*
X92696778Y-98679453D01*
X92520082Y-98714600D01*
X92339918Y-98714600D01*
X92163222Y-98679453D01*
X91996776Y-98610509D01*
X91846978Y-98510417D01*
X91719583Y-98383022D01*
X91619491Y-98233224D01*
X91550547Y-98066778D01*
X91515400Y-97890082D01*
X91515400Y-97709918D01*
X91550547Y-97533222D01*
X91619491Y-97366776D01*
X91719583Y-97216978D01*
X91846978Y-97089583D01*
X91996776Y-96989491D01*
X92163222Y-96920547D01*
X92339918Y-96885400D01*
X92520082Y-96885400D01*
X92696778Y-96920547D01*
G37*
G36*
X108601000Y-98451000D02*
G01*
X100624000Y-98451000D01*
X100624000Y-96349000D01*
X108601000Y-96349000D01*
X108601000Y-98451000D01*
G37*
G36*
X120476000Y-98451000D02*
G01*
X112499000Y-98451000D01*
X112499000Y-96349000D01*
X120476000Y-96349000D01*
X120476000Y-98451000D01*
G37*
G36*
X132125562Y-94878181D02*
G01*
X132160481Y-94888774D01*
X132192663Y-94905976D01*
X132220873Y-94929127D01*
X132244024Y-94957337D01*
X132261226Y-94989519D01*
X132271819Y-95024438D01*
X132276000Y-95066895D01*
X132276000Y-96533105D01*
X132271819Y-96575562D01*
X132261226Y-96610481D01*
X132244024Y-96642663D01*
X132220873Y-96670873D01*
X132192663Y-96694024D01*
X132160481Y-96711226D01*
X132125562Y-96721819D01*
X132083105Y-96726000D01*
X130941895Y-96726000D01*
X130899438Y-96721819D01*
X130864519Y-96711226D01*
X130832337Y-96694024D01*
X130804127Y-96670873D01*
X130780976Y-96642663D01*
X130763774Y-96610481D01*
X130753181Y-96575562D01*
X130749000Y-96533105D01*
X130749000Y-95066895D01*
X130753181Y-95024438D01*
X130763774Y-94989519D01*
X130780976Y-94957337D01*
X130804127Y-94929127D01*
X130832337Y-94905976D01*
X130864519Y-94888774D01*
X130899438Y-94878181D01*
X130941895Y-94874000D01*
X132083105Y-94874000D01*
X132125562Y-94878181D01*
G37*
G36*
X135100562Y-94878181D02*
G01*
X135135481Y-94888774D01*
X135167663Y-94905976D01*
X135195873Y-94929127D01*
X135219024Y-94957337D01*
X135236226Y-94989519D01*
X135246819Y-95024438D01*
X135251000Y-95066895D01*
X135251000Y-96533105D01*
X135246819Y-96575562D01*
X135236226Y-96610481D01*
X135219024Y-96642663D01*
X135195873Y-96670873D01*
X135167663Y-96694024D01*
X135135481Y-96711226D01*
X135100562Y-96721819D01*
X135058105Y-96726000D01*
X133916895Y-96726000D01*
X133874438Y-96721819D01*
X133839519Y-96711226D01*
X133807337Y-96694024D01*
X133779127Y-96670873D01*
X133755976Y-96642663D01*
X133738774Y-96610481D01*
X133728181Y-96575562D01*
X133724000Y-96533105D01*
X133724000Y-95066895D01*
X133728181Y-95024438D01*
X133738774Y-94989519D01*
X133755976Y-94957337D01*
X133779127Y-94929127D01*
X133807337Y-94905976D01*
X133839519Y-94888774D01*
X133874438Y-94878181D01*
X133916895Y-94874000D01*
X135058105Y-94874000D01*
X135100562Y-94878181D01*
G37*
G36*
X92696778Y-94380547D02*
G01*
X92863224Y-94449491D01*
X93013022Y-94549583D01*
X93140417Y-94676978D01*
X93240509Y-94826776D01*
X93309453Y-94993222D01*
X93344600Y-95169918D01*
X93344600Y-95350082D01*
X93309453Y-95526778D01*
X93240509Y-95693224D01*
X93140417Y-95843022D01*
X93013022Y-95970417D01*
X92863224Y-96070509D01*
X92696778Y-96139453D01*
X92520082Y-96174600D01*
X92339918Y-96174600D01*
X92163222Y-96139453D01*
X91996776Y-96070509D01*
X91846978Y-95970417D01*
X91719583Y-95843022D01*
X91619491Y-95693224D01*
X91550547Y-95526778D01*
X91515400Y-95350082D01*
X91515400Y-95169918D01*
X91550547Y-94993222D01*
X91619491Y-94826776D01*
X91719583Y-94676978D01*
X91846978Y-94549583D01*
X91996776Y-94449491D01*
X92163222Y-94380547D01*
X92339918Y-94345400D01*
X92520082Y-94345400D01*
X92696778Y-94380547D01*
G37*
G36*
X90156778Y-94380547D02*
G01*
X90323224Y-94449491D01*
X90473022Y-94549583D01*
X90600417Y-94676978D01*
X90700509Y-94826776D01*
X90769453Y-94993222D01*
X90804600Y-95169918D01*
X90804600Y-95350082D01*
X90769453Y-95526778D01*
X90700509Y-95693224D01*
X90600417Y-95843022D01*
X90473022Y-95970417D01*
X90323224Y-96070509D01*
X90156778Y-96139453D01*
X89980082Y-96174600D01*
X89799918Y-96174600D01*
X89623222Y-96139453D01*
X89456776Y-96070509D01*
X89306978Y-95970417D01*
X89179583Y-95843022D01*
X89079491Y-95693224D01*
X89010547Y-95526778D01*
X88975400Y-95350082D01*
X88975400Y-95169918D01*
X89010547Y-94993222D01*
X89079491Y-94826776D01*
X89179583Y-94676978D01*
X89306978Y-94549583D01*
X89456776Y-94449491D01*
X89623222Y-94380547D01*
X89799918Y-94345400D01*
X89980082Y-94345400D01*
X90156778Y-94380547D01*
G37*
G36*
X132125562Y-92128181D02*
G01*
X132160481Y-92138774D01*
X132192663Y-92155976D01*
X132220873Y-92179127D01*
X132244024Y-92207337D01*
X132261226Y-92239519D01*
X132271819Y-92274438D01*
X132276000Y-92316895D01*
X132276000Y-93783105D01*
X132271819Y-93825562D01*
X132261226Y-93860481D01*
X132244024Y-93892663D01*
X132220873Y-93920873D01*
X132192663Y-93944024D01*
X132160481Y-93961226D01*
X132125562Y-93971819D01*
X132083105Y-93976000D01*
X130941895Y-93976000D01*
X130899438Y-93971819D01*
X130864519Y-93961226D01*
X130832337Y-93944024D01*
X130804127Y-93920873D01*
X130780976Y-93892663D01*
X130763774Y-93860481D01*
X130753181Y-93825562D01*
X130749000Y-93783105D01*
X130749000Y-92316895D01*
X130753181Y-92274438D01*
X130763774Y-92239519D01*
X130780976Y-92207337D01*
X130804127Y-92179127D01*
X130832337Y-92155976D01*
X130864519Y-92138774D01*
X130899438Y-92128181D01*
X130941895Y-92124000D01*
X132083105Y-92124000D01*
X132125562Y-92128181D01*
G37*
G36*
X135100562Y-92128181D02*
G01*
X135135481Y-92138774D01*
X135167663Y-92155976D01*
X135195873Y-92179127D01*
X135219024Y-92207337D01*
X135236226Y-92239519D01*
X135246819Y-92274438D01*
X135251000Y-92316895D01*
X135251000Y-93783105D01*
X135246819Y-93825562D01*
X135236226Y-93860481D01*
X135219024Y-93892663D01*
X135195873Y-93920873D01*
X135167663Y-93944024D01*
X135135481Y-93961226D01*
X135100562Y-93971819D01*
X135058105Y-93976000D01*
X133916895Y-93976000D01*
X133874438Y-93971819D01*
X133839519Y-93961226D01*
X133807337Y-93944024D01*
X133779127Y-93920873D01*
X133755976Y-93892663D01*
X133738774Y-93860481D01*
X133728181Y-93825562D01*
X133724000Y-93783105D01*
X133724000Y-92316895D01*
X133728181Y-92274438D01*
X133738774Y-92239519D01*
X133755976Y-92207337D01*
X133779127Y-92179127D01*
X133807337Y-92155976D01*
X133839519Y-92138774D01*
X133874438Y-92128181D01*
X133916895Y-92124000D01*
X135058105Y-92124000D01*
X135100562Y-92128181D01*
G37*
G36*
X92696778Y-91840547D02*
G01*
X92863224Y-91909491D01*
X93013022Y-92009583D01*
X93140417Y-92136978D01*
X93240509Y-92286776D01*
X93309453Y-92453222D01*
X93344600Y-92629918D01*
X93344600Y-92810082D01*
X93309453Y-92986778D01*
X93240509Y-93153224D01*
X93140417Y-93303022D01*
X93013022Y-93430417D01*
X92863224Y-93530509D01*
X92696778Y-93599453D01*
X92520082Y-93634600D01*
X92339918Y-93634600D01*
X92163222Y-93599453D01*
X91996776Y-93530509D01*
X91846978Y-93430417D01*
X91719583Y-93303022D01*
X91619491Y-93153224D01*
X91550547Y-92986778D01*
X91515400Y-92810082D01*
X91515400Y-92629918D01*
X91550547Y-92453222D01*
X91619491Y-92286776D01*
X91719583Y-92136978D01*
X91846978Y-92009583D01*
X91996776Y-91909491D01*
X92163222Y-91840547D01*
X92339918Y-91805400D01*
X92520082Y-91805400D01*
X92696778Y-91840547D01*
G37*
G36*
X90804600Y-93634600D02*
G01*
X88975400Y-93634600D01*
X88975400Y-91805400D01*
X90804600Y-91805400D01*
X90804600Y-93634600D01*
G37*
G36*
X139383642Y-90329781D02*
G01*
X139529414Y-90390162D01*
X139529416Y-90390163D01*
X139660608Y-90477822D01*
X139772178Y-90589392D01*
X139859837Y-90720584D01*
X139859838Y-90720586D01*
X139920219Y-90866358D01*
X139951000Y-91021107D01*
X139951000Y-91178893D01*
X139920219Y-91333642D01*
X139859838Y-91479414D01*
X139859837Y-91479416D01*
X139772178Y-91610608D01*
X139660608Y-91722178D01*
X139529416Y-91809837D01*
X139529415Y-91809838D01*
X139529414Y-91809838D01*
X139383642Y-91870219D01*
X139228893Y-91901000D01*
X139071107Y-91901000D01*
X138916358Y-91870219D01*
X138770586Y-91809838D01*
X138770585Y-91809838D01*
X138770584Y-91809837D01*
X138639392Y-91722178D01*
X138527822Y-91610608D01*
X138440163Y-91479416D01*
X138440162Y-91479414D01*
X138379781Y-91333642D01*
X138349000Y-91178893D01*
X138349000Y-91021107D01*
X138379781Y-90866358D01*
X138440162Y-90720586D01*
X138440163Y-90720584D01*
X138527822Y-90589392D01*
X138639392Y-90477822D01*
X138770584Y-90390163D01*
X138770586Y-90390162D01*
X138916358Y-90329781D01*
X139071107Y-90299000D01*
X139228893Y-90299000D01*
X139383642Y-90329781D01*
G37*
G36*
X154623642Y-90329781D02*
G01*
X154769414Y-90390162D01*
X154769416Y-90390163D01*
X154900608Y-90477822D01*
X155012178Y-90589392D01*
X155099837Y-90720584D01*
X155099838Y-90720586D01*
X155160219Y-90866358D01*
X155191000Y-91021107D01*
X155191000Y-91178893D01*
X155160219Y-91333642D01*
X155099838Y-91479414D01*
X155099837Y-91479416D01*
X155012178Y-91610608D01*
X154900608Y-91722178D01*
X154769416Y-91809837D01*
X154769415Y-91809838D01*
X154769414Y-91809838D01*
X154623642Y-91870219D01*
X154468893Y-91901000D01*
X154311107Y-91901000D01*
X154156358Y-91870219D01*
X154010586Y-91809838D01*
X154010585Y-91809838D01*
X154010584Y-91809837D01*
X153879392Y-91722178D01*
X153767822Y-91610608D01*
X153680163Y-91479416D01*
X153680162Y-91479414D01*
X153619781Y-91333642D01*
X153589000Y-91178893D01*
X153589000Y-91021107D01*
X153619781Y-90866358D01*
X153680162Y-90720586D01*
X153680163Y-90720584D01*
X153767822Y-90589392D01*
X153879392Y-90477822D01*
X154010584Y-90390163D01*
X154010586Y-90390162D01*
X154156358Y-90329781D01*
X154311107Y-90299000D01*
X154468893Y-90299000D01*
X154623642Y-90329781D01*
G37*
G36*
X135100562Y-88628181D02*
G01*
X135135481Y-88638774D01*
X135167663Y-88655976D01*
X135195873Y-88679127D01*
X135219024Y-88707337D01*
X135236226Y-88739519D01*
X135246819Y-88774438D01*
X135251000Y-88816895D01*
X135251000Y-90283105D01*
X135246819Y-90325562D01*
X135236226Y-90360481D01*
X135219024Y-90392663D01*
X135195873Y-90420873D01*
X135167663Y-90444024D01*
X135135481Y-90461226D01*
X135100562Y-90471819D01*
X135058105Y-90476000D01*
X133916895Y-90476000D01*
X133874438Y-90471819D01*
X133839519Y-90461226D01*
X133807337Y-90444024D01*
X133779127Y-90420873D01*
X133755976Y-90392663D01*
X133738774Y-90360481D01*
X133728181Y-90325562D01*
X133724000Y-90283105D01*
X133724000Y-88816895D01*
X133728181Y-88774438D01*
X133738774Y-88739519D01*
X133755976Y-88707337D01*
X133779127Y-88679127D01*
X133807337Y-88655976D01*
X133839519Y-88638774D01*
X133874438Y-88628181D01*
X133916895Y-88624000D01*
X135058105Y-88624000D01*
X135100562Y-88628181D01*
G37*
G36*
X132125562Y-88628181D02*
G01*
X132160481Y-88638774D01*
X132192663Y-88655976D01*
X132220873Y-88679127D01*
X132244024Y-88707337D01*
X132261226Y-88739519D01*
X132271819Y-88774438D01*
X132276000Y-88816895D01*
X132276000Y-90283105D01*
X132271819Y-90325562D01*
X132261226Y-90360481D01*
X132244024Y-90392663D01*
X132220873Y-90420873D01*
X132192663Y-90444024D01*
X132160481Y-90461226D01*
X132125562Y-90471819D01*
X132083105Y-90476000D01*
X130941895Y-90476000D01*
X130899438Y-90471819D01*
X130864519Y-90461226D01*
X130832337Y-90444024D01*
X130804127Y-90420873D01*
X130780976Y-90392663D01*
X130763774Y-90360481D01*
X130753181Y-90325562D01*
X130749000Y-90283105D01*
X130749000Y-88816895D01*
X130753181Y-88774438D01*
X130763774Y-88739519D01*
X130780976Y-88707337D01*
X130804127Y-88679127D01*
X130832337Y-88655976D01*
X130864519Y-88638774D01*
X130899438Y-88628181D01*
X130941895Y-88624000D01*
X132083105Y-88624000D01*
X132125562Y-88628181D01*
G37*
G36*
X116626000Y-89851000D02*
G01*
X107974000Y-89851000D01*
X107974000Y-88249000D01*
X116626000Y-88249000D01*
X116626000Y-89851000D01*
G37*
G36*
X139383642Y-87789781D02*
G01*
X139529414Y-87850162D01*
X139529416Y-87850163D01*
X139660608Y-87937822D01*
X139772178Y-88049392D01*
X139859837Y-88180584D01*
X139859838Y-88180586D01*
X139920219Y-88326358D01*
X139951000Y-88481107D01*
X139951000Y-88638893D01*
X139920219Y-88793642D01*
X139879521Y-88891895D01*
X139859837Y-88939416D01*
X139772178Y-89070608D01*
X139660608Y-89182178D01*
X139529416Y-89269837D01*
X139529415Y-89269838D01*
X139529414Y-89269838D01*
X139383642Y-89330219D01*
X139228893Y-89361000D01*
X139071107Y-89361000D01*
X138916358Y-89330219D01*
X138770586Y-89269838D01*
X138770585Y-89269838D01*
X138770584Y-89269837D01*
X138639392Y-89182178D01*
X138527822Y-89070608D01*
X138440163Y-88939416D01*
X138420479Y-88891895D01*
X138379781Y-88793642D01*
X138349000Y-88638893D01*
X138349000Y-88481107D01*
X138379781Y-88326358D01*
X138440162Y-88180586D01*
X138440163Y-88180584D01*
X138527822Y-88049392D01*
X138639392Y-87937822D01*
X138770584Y-87850163D01*
X138770586Y-87850162D01*
X138916358Y-87789781D01*
X139071107Y-87759000D01*
X139228893Y-87759000D01*
X139383642Y-87789781D01*
G37*
G36*
X154623642Y-87789781D02*
G01*
X154769414Y-87850162D01*
X154769416Y-87850163D01*
X154900608Y-87937822D01*
X155012178Y-88049392D01*
X155099837Y-88180584D01*
X155099838Y-88180586D01*
X155160219Y-88326358D01*
X155191000Y-88481107D01*
X155191000Y-88638893D01*
X155160219Y-88793642D01*
X155119521Y-88891895D01*
X155099837Y-88939416D01*
X155012178Y-89070608D01*
X154900608Y-89182178D01*
X154769416Y-89269837D01*
X154769415Y-89269838D01*
X154769414Y-89269838D01*
X154623642Y-89330219D01*
X154468893Y-89361000D01*
X154311107Y-89361000D01*
X154156358Y-89330219D01*
X154010586Y-89269838D01*
X154010585Y-89269838D01*
X154010584Y-89269837D01*
X153879392Y-89182178D01*
X153767822Y-89070608D01*
X153680163Y-88939416D01*
X153660479Y-88891895D01*
X153619781Y-88793642D01*
X153589000Y-88638893D01*
X153589000Y-88481107D01*
X153619781Y-88326358D01*
X153680162Y-88180586D01*
X153680163Y-88180584D01*
X153767822Y-88049392D01*
X153879392Y-87937822D01*
X154010584Y-87850163D01*
X154010586Y-87850162D01*
X154156358Y-87789781D01*
X154311107Y-87759000D01*
X154468893Y-87759000D01*
X154623642Y-87789781D01*
G37*
G36*
X118801000Y-87676000D02*
G01*
X117199000Y-87676000D01*
X117199000Y-79024000D01*
X118801000Y-79024000D01*
X118801000Y-87676000D01*
G37*
G36*
X107401000Y-87676000D02*
G01*
X105799000Y-87676000D01*
X105799000Y-79024000D01*
X107401000Y-79024000D01*
X107401000Y-87676000D01*
G37*
G36*
X132125562Y-85478181D02*
G01*
X132160481Y-85488774D01*
X132192663Y-85505976D01*
X132220873Y-85529127D01*
X132244024Y-85557337D01*
X132261226Y-85589519D01*
X132271819Y-85624438D01*
X132276000Y-85666895D01*
X132276000Y-87133105D01*
X132271819Y-87175562D01*
X132261226Y-87210481D01*
X132244024Y-87242663D01*
X132220873Y-87270873D01*
X132192663Y-87294024D01*
X132160481Y-87311226D01*
X132125562Y-87321819D01*
X132083105Y-87326000D01*
X130941895Y-87326000D01*
X130899438Y-87321819D01*
X130864519Y-87311226D01*
X130832337Y-87294024D01*
X130804127Y-87270873D01*
X130780976Y-87242663D01*
X130763774Y-87210481D01*
X130753181Y-87175562D01*
X130749000Y-87133105D01*
X130749000Y-85666895D01*
X130753181Y-85624438D01*
X130763774Y-85589519D01*
X130780976Y-85557337D01*
X130804127Y-85529127D01*
X130832337Y-85505976D01*
X130864519Y-85488774D01*
X130899438Y-85478181D01*
X130941895Y-85474000D01*
X132083105Y-85474000D01*
X132125562Y-85478181D01*
G37*
G36*
X135100562Y-85478181D02*
G01*
X135135481Y-85488774D01*
X135167663Y-85505976D01*
X135195873Y-85529127D01*
X135219024Y-85557337D01*
X135236226Y-85589519D01*
X135246819Y-85624438D01*
X135251000Y-85666895D01*
X135251000Y-87133105D01*
X135246819Y-87175562D01*
X135236226Y-87210481D01*
X135219024Y-87242663D01*
X135195873Y-87270873D01*
X135167663Y-87294024D01*
X135135481Y-87311226D01*
X135100562Y-87321819D01*
X135058105Y-87326000D01*
X133916895Y-87326000D01*
X133874438Y-87321819D01*
X133839519Y-87311226D01*
X133807337Y-87294024D01*
X133779127Y-87270873D01*
X133755976Y-87242663D01*
X133738774Y-87210481D01*
X133728181Y-87175562D01*
X133724000Y-87133105D01*
X133724000Y-85666895D01*
X133728181Y-85624438D01*
X133738774Y-85589519D01*
X133755976Y-85557337D01*
X133779127Y-85529127D01*
X133807337Y-85505976D01*
X133839519Y-85488774D01*
X133874438Y-85478181D01*
X133916895Y-85474000D01*
X135058105Y-85474000D01*
X135100562Y-85478181D01*
G37*
G36*
X154623642Y-85249781D02*
G01*
X154769414Y-85310162D01*
X154769416Y-85310163D01*
X154900608Y-85397822D01*
X155012178Y-85509392D01*
X155099030Y-85639376D01*
X155099838Y-85640586D01*
X155160219Y-85786358D01*
X155191000Y-85941107D01*
X155191000Y-86098893D01*
X155160219Y-86253642D01*
X155099838Y-86399414D01*
X155099837Y-86399416D01*
X155012178Y-86530608D01*
X154900608Y-86642178D01*
X154769416Y-86729837D01*
X154769415Y-86729838D01*
X154769414Y-86729838D01*
X154623642Y-86790219D01*
X154468893Y-86821000D01*
X154311107Y-86821000D01*
X154156358Y-86790219D01*
X154010586Y-86729838D01*
X154010585Y-86729838D01*
X154010584Y-86729837D01*
X153879392Y-86642178D01*
X153767822Y-86530608D01*
X153680163Y-86399416D01*
X153680162Y-86399414D01*
X153619781Y-86253642D01*
X153589000Y-86098893D01*
X153589000Y-85941107D01*
X153619781Y-85786358D01*
X153680162Y-85640586D01*
X153680970Y-85639376D01*
X153767822Y-85509392D01*
X153879392Y-85397822D01*
X154010584Y-85310163D01*
X154010586Y-85310162D01*
X154156358Y-85249781D01*
X154311107Y-85219000D01*
X154468893Y-85219000D01*
X154623642Y-85249781D01*
G37*
G36*
X139383642Y-85249781D02*
G01*
X139529414Y-85310162D01*
X139529416Y-85310163D01*
X139660608Y-85397822D01*
X139772178Y-85509392D01*
X139859030Y-85639376D01*
X139859838Y-85640586D01*
X139920219Y-85786358D01*
X139951000Y-85941107D01*
X139951000Y-86098893D01*
X139920219Y-86253642D01*
X139859838Y-86399414D01*
X139859837Y-86399416D01*
X139772178Y-86530608D01*
X139660608Y-86642178D01*
X139529416Y-86729837D01*
X139529415Y-86729838D01*
X139529414Y-86729838D01*
X139383642Y-86790219D01*
X139228893Y-86821000D01*
X139071107Y-86821000D01*
X138916358Y-86790219D01*
X138770586Y-86729838D01*
X138770585Y-86729838D01*
X138770584Y-86729837D01*
X138639392Y-86642178D01*
X138527822Y-86530608D01*
X138440163Y-86399416D01*
X138440162Y-86399414D01*
X138379781Y-86253642D01*
X138349000Y-86098893D01*
X138349000Y-85941107D01*
X138379781Y-85786358D01*
X138440162Y-85640586D01*
X138440970Y-85639376D01*
X138527822Y-85509392D01*
X138639392Y-85397822D01*
X138770584Y-85310163D01*
X138770586Y-85310162D01*
X138916358Y-85249781D01*
X139071107Y-85219000D01*
X139228893Y-85219000D01*
X139383642Y-85249781D01*
G37*
G36*
X154623642Y-82709781D02*
G01*
X154769414Y-82770162D01*
X154769416Y-82770163D01*
X154900608Y-82857822D01*
X155012178Y-82969392D01*
X155099837Y-83100584D01*
X155099838Y-83100586D01*
X155160219Y-83246358D01*
X155191000Y-83401107D01*
X155191000Y-83558893D01*
X155160219Y-83713642D01*
X155114507Y-83824000D01*
X155099837Y-83859416D01*
X155012178Y-83990608D01*
X154900608Y-84102178D01*
X154769416Y-84189837D01*
X154769415Y-84189838D01*
X154769414Y-84189838D01*
X154623642Y-84250219D01*
X154468893Y-84281000D01*
X154311107Y-84281000D01*
X154156358Y-84250219D01*
X154010586Y-84189838D01*
X154010585Y-84189838D01*
X154010584Y-84189837D01*
X153879392Y-84102178D01*
X153767822Y-83990608D01*
X153680163Y-83859416D01*
X153665493Y-83824000D01*
X153619781Y-83713642D01*
X153589000Y-83558893D01*
X153589000Y-83401107D01*
X153619781Y-83246358D01*
X153680162Y-83100586D01*
X153680163Y-83100584D01*
X153767822Y-82969392D01*
X153879392Y-82857822D01*
X154010584Y-82770163D01*
X154010586Y-82770162D01*
X154156358Y-82709781D01*
X154311107Y-82679000D01*
X154468893Y-82679000D01*
X154623642Y-82709781D01*
G37*
G36*
X139383642Y-82709781D02*
G01*
X139529414Y-82770162D01*
X139529416Y-82770163D01*
X139660608Y-82857822D01*
X139772178Y-82969392D01*
X139859837Y-83100584D01*
X139859838Y-83100586D01*
X139920219Y-83246358D01*
X139951000Y-83401107D01*
X139951000Y-83558893D01*
X139920219Y-83713642D01*
X139874507Y-83824000D01*
X139859837Y-83859416D01*
X139772178Y-83990608D01*
X139660608Y-84102178D01*
X139529416Y-84189837D01*
X139529415Y-84189838D01*
X139529414Y-84189838D01*
X139383642Y-84250219D01*
X139228893Y-84281000D01*
X139071107Y-84281000D01*
X138916358Y-84250219D01*
X138770586Y-84189838D01*
X138770585Y-84189838D01*
X138770584Y-84189837D01*
X138639392Y-84102178D01*
X138527822Y-83990608D01*
X138440163Y-83859416D01*
X138425493Y-83824000D01*
X138379781Y-83713642D01*
X138349000Y-83558893D01*
X138349000Y-83401107D01*
X138379781Y-83246358D01*
X138440162Y-83100586D01*
X138440163Y-83100584D01*
X138527822Y-82969392D01*
X138639392Y-82857822D01*
X138770584Y-82770163D01*
X138770586Y-82770162D01*
X138916358Y-82709781D01*
X139071107Y-82679000D01*
X139228893Y-82679000D01*
X139383642Y-82709781D01*
G37*
G36*
X102325562Y-82678181D02*
G01*
X102360481Y-82688774D01*
X102392663Y-82705976D01*
X102420873Y-82729127D01*
X102444024Y-82757337D01*
X102461226Y-82789519D01*
X102471819Y-82824438D01*
X102476000Y-82866895D01*
X102476000Y-84008105D01*
X102471819Y-84050562D01*
X102461226Y-84085481D01*
X102444024Y-84117663D01*
X102420873Y-84145873D01*
X102392663Y-84169024D01*
X102360481Y-84186226D01*
X102325562Y-84196819D01*
X102283105Y-84201000D01*
X100816895Y-84201000D01*
X100774438Y-84196819D01*
X100739519Y-84186226D01*
X100707337Y-84169024D01*
X100679127Y-84145873D01*
X100655976Y-84117663D01*
X100638774Y-84085481D01*
X100628181Y-84050562D01*
X100624000Y-84008105D01*
X100624000Y-82866895D01*
X100628181Y-82824438D01*
X100638774Y-82789519D01*
X100655976Y-82757337D01*
X100679127Y-82729127D01*
X100707337Y-82705976D01*
X100739519Y-82688774D01*
X100774438Y-82678181D01*
X100816895Y-82674000D01*
X102283105Y-82674000D01*
X102325562Y-82678181D01*
G37*
G36*
X132125562Y-82328181D02*
G01*
X132160481Y-82338774D01*
X132192663Y-82355976D01*
X132220873Y-82379127D01*
X132244024Y-82407337D01*
X132261226Y-82439519D01*
X132271819Y-82474438D01*
X132276000Y-82516895D01*
X132276000Y-83983105D01*
X132271819Y-84025562D01*
X132261226Y-84060481D01*
X132244024Y-84092663D01*
X132220873Y-84120873D01*
X132192663Y-84144024D01*
X132160481Y-84161226D01*
X132125562Y-84171819D01*
X132083105Y-84176000D01*
X130941895Y-84176000D01*
X130899438Y-84171819D01*
X130864519Y-84161226D01*
X130832337Y-84144024D01*
X130804127Y-84120873D01*
X130780976Y-84092663D01*
X130763774Y-84060481D01*
X130753181Y-84025562D01*
X130749000Y-83983105D01*
X130749000Y-82516895D01*
X130753181Y-82474438D01*
X130763774Y-82439519D01*
X130780976Y-82407337D01*
X130804127Y-82379127D01*
X130832337Y-82355976D01*
X130864519Y-82338774D01*
X130899438Y-82328181D01*
X130941895Y-82324000D01*
X132083105Y-82324000D01*
X132125562Y-82328181D01*
G37*
G36*
X135100562Y-82328181D02*
G01*
X135135481Y-82338774D01*
X135167663Y-82355976D01*
X135195873Y-82379127D01*
X135219024Y-82407337D01*
X135236226Y-82439519D01*
X135246819Y-82474438D01*
X135251000Y-82516895D01*
X135251000Y-83983105D01*
X135246819Y-84025562D01*
X135236226Y-84060481D01*
X135219024Y-84092663D01*
X135195873Y-84120873D01*
X135167663Y-84144024D01*
X135135481Y-84161226D01*
X135100562Y-84171819D01*
X135058105Y-84176000D01*
X133916895Y-84176000D01*
X133874438Y-84171819D01*
X133839519Y-84161226D01*
X133807337Y-84144024D01*
X133779127Y-84120873D01*
X133755976Y-84092663D01*
X133738774Y-84060481D01*
X133728181Y-84025562D01*
X133724000Y-83983105D01*
X133724000Y-82516895D01*
X133728181Y-82474438D01*
X133738774Y-82439519D01*
X133755976Y-82407337D01*
X133779127Y-82379127D01*
X133807337Y-82355976D01*
X133839519Y-82338774D01*
X133874438Y-82328181D01*
X133916895Y-82324000D01*
X135058105Y-82324000D01*
X135100562Y-82328181D01*
G37*
G36*
X154623642Y-80169781D02*
G01*
X154769414Y-80230162D01*
X154769416Y-80230163D01*
X154900608Y-80317822D01*
X155012178Y-80429392D01*
X155043320Y-80476000D01*
X155099838Y-80560586D01*
X155160219Y-80706358D01*
X155191000Y-80861107D01*
X155191000Y-81018893D01*
X155160219Y-81173642D01*
X155099838Y-81319414D01*
X155099837Y-81319416D01*
X155012178Y-81450608D01*
X154900608Y-81562178D01*
X154769416Y-81649837D01*
X154769415Y-81649838D01*
X154769414Y-81649838D01*
X154623642Y-81710219D01*
X154468893Y-81741000D01*
X154311107Y-81741000D01*
X154156358Y-81710219D01*
X154010586Y-81649838D01*
X154010585Y-81649838D01*
X154010584Y-81649837D01*
X153879392Y-81562178D01*
X153767822Y-81450608D01*
X153680163Y-81319416D01*
X153680162Y-81319414D01*
X153619781Y-81173642D01*
X153589000Y-81018893D01*
X153589000Y-80861107D01*
X153619781Y-80706358D01*
X153680162Y-80560586D01*
X153736680Y-80476000D01*
X153767822Y-80429392D01*
X153879392Y-80317822D01*
X154010584Y-80230163D01*
X154010586Y-80230162D01*
X154156358Y-80169781D01*
X154311107Y-80139000D01*
X154468893Y-80139000D01*
X154623642Y-80169781D01*
G37*
G36*
X139383642Y-80169781D02*
G01*
X139529414Y-80230162D01*
X139529416Y-80230163D01*
X139660608Y-80317822D01*
X139772178Y-80429392D01*
X139803320Y-80476000D01*
X139859838Y-80560586D01*
X139920219Y-80706358D01*
X139951000Y-80861107D01*
X139951000Y-81018893D01*
X139920219Y-81173642D01*
X139859838Y-81319414D01*
X139859837Y-81319416D01*
X139772178Y-81450608D01*
X139660608Y-81562178D01*
X139529416Y-81649837D01*
X139529415Y-81649838D01*
X139529414Y-81649838D01*
X139383642Y-81710219D01*
X139228893Y-81741000D01*
X139071107Y-81741000D01*
X138916358Y-81710219D01*
X138770586Y-81649838D01*
X138770585Y-81649838D01*
X138770584Y-81649837D01*
X138639392Y-81562178D01*
X138527822Y-81450608D01*
X138440163Y-81319416D01*
X138440162Y-81319414D01*
X138379781Y-81173642D01*
X138349000Y-81018893D01*
X138349000Y-80861107D01*
X138379781Y-80706358D01*
X138440162Y-80560586D01*
X138496680Y-80476000D01*
X138527822Y-80429392D01*
X138639392Y-80317822D01*
X138770584Y-80230163D01*
X138770586Y-80230162D01*
X138916358Y-80169781D01*
X139071107Y-80139000D01*
X139228893Y-80139000D01*
X139383642Y-80169781D01*
G37*
G36*
X102325562Y-79703181D02*
G01*
X102360481Y-79713774D01*
X102392663Y-79730976D01*
X102420873Y-79754127D01*
X102444024Y-79782337D01*
X102461226Y-79814519D01*
X102471819Y-79849438D01*
X102476000Y-79891895D01*
X102476000Y-81033105D01*
X102471819Y-81075562D01*
X102461226Y-81110481D01*
X102444024Y-81142663D01*
X102420873Y-81170873D01*
X102392663Y-81194024D01*
X102360481Y-81211226D01*
X102325562Y-81221819D01*
X102283105Y-81226000D01*
X100816895Y-81226000D01*
X100774438Y-81221819D01*
X100739519Y-81211226D01*
X100707337Y-81194024D01*
X100679127Y-81170873D01*
X100655976Y-81142663D01*
X100638774Y-81110481D01*
X100628181Y-81075562D01*
X100624000Y-81033105D01*
X100624000Y-79891895D01*
X100628181Y-79849438D01*
X100638774Y-79814519D01*
X100655976Y-79782337D01*
X100679127Y-79754127D01*
X100707337Y-79730976D01*
X100739519Y-79713774D01*
X100774438Y-79703181D01*
X100816895Y-79699000D01*
X102283105Y-79699000D01*
X102325562Y-79703181D01*
G37*
G36*
X135100562Y-79178181D02*
G01*
X135135481Y-79188774D01*
X135167663Y-79205976D01*
X135195873Y-79229127D01*
X135219024Y-79257337D01*
X135236226Y-79289519D01*
X135246819Y-79324438D01*
X135251000Y-79366895D01*
X135251000Y-80833105D01*
X135246819Y-80875562D01*
X135236226Y-80910481D01*
X135219024Y-80942663D01*
X135195873Y-80970873D01*
X135167663Y-80994024D01*
X135135481Y-81011226D01*
X135100562Y-81021819D01*
X135058105Y-81026000D01*
X133916895Y-81026000D01*
X133874438Y-81021819D01*
X133839519Y-81011226D01*
X133807337Y-80994024D01*
X133779127Y-80970873D01*
X133755976Y-80942663D01*
X133738774Y-80910481D01*
X133728181Y-80875562D01*
X133724000Y-80833105D01*
X133724000Y-79366895D01*
X133728181Y-79324438D01*
X133738774Y-79289519D01*
X133755976Y-79257337D01*
X133779127Y-79229127D01*
X133807337Y-79205976D01*
X133839519Y-79188774D01*
X133874438Y-79178181D01*
X133916895Y-79174000D01*
X135058105Y-79174000D01*
X135100562Y-79178181D01*
G37*
G36*
X132125562Y-79178181D02*
G01*
X132160481Y-79188774D01*
X132192663Y-79205976D01*
X132220873Y-79229127D01*
X132244024Y-79257337D01*
X132261226Y-79289519D01*
X132271819Y-79324438D01*
X132276000Y-79366895D01*
X132276000Y-80833105D01*
X132271819Y-80875562D01*
X132261226Y-80910481D01*
X132244024Y-80942663D01*
X132220873Y-80970873D01*
X132192663Y-80994024D01*
X132160481Y-81011226D01*
X132125562Y-81021819D01*
X132083105Y-81026000D01*
X130941895Y-81026000D01*
X130899438Y-81021819D01*
X130864519Y-81011226D01*
X130832337Y-80994024D01*
X130804127Y-80970873D01*
X130780976Y-80942663D01*
X130763774Y-80910481D01*
X130753181Y-80875562D01*
X130749000Y-80833105D01*
X130749000Y-79366895D01*
X130753181Y-79324438D01*
X130763774Y-79289519D01*
X130780976Y-79257337D01*
X130804127Y-79229127D01*
X130832337Y-79205976D01*
X130864519Y-79188774D01*
X130899438Y-79178181D01*
X130941895Y-79174000D01*
X132083105Y-79174000D01*
X132125562Y-79178181D01*
G37*
G36*
X89575562Y-79478181D02*
G01*
X89610481Y-79488774D01*
X89642663Y-79505976D01*
X89670873Y-79529127D01*
X89694024Y-79557337D01*
X89711226Y-79589519D01*
X89721819Y-79624438D01*
X89726000Y-79666895D01*
X89726000Y-80808105D01*
X89721819Y-80850562D01*
X89711226Y-80885481D01*
X89694024Y-80917663D01*
X89670873Y-80945873D01*
X89642663Y-80969024D01*
X89610481Y-80986226D01*
X89575562Y-80996819D01*
X89533105Y-81001000D01*
X88066895Y-81001000D01*
X88024438Y-80996819D01*
X87989519Y-80986226D01*
X87957337Y-80969024D01*
X87929127Y-80945873D01*
X87905976Y-80917663D01*
X87888774Y-80885481D01*
X87878181Y-80850562D01*
X87874000Y-80808105D01*
X87874000Y-79666895D01*
X87878181Y-79624438D01*
X87888774Y-79589519D01*
X87905976Y-79557337D01*
X87929127Y-79529127D01*
X87957337Y-79505976D01*
X87989519Y-79488774D01*
X88024438Y-79478181D01*
X88066895Y-79474000D01*
X89533105Y-79474000D01*
X89575562Y-79478181D01*
G37*
G36*
X92425562Y-79478181D02*
G01*
X92460481Y-79488774D01*
X92492663Y-79505976D01*
X92520873Y-79529127D01*
X92544024Y-79557337D01*
X92561226Y-79589519D01*
X92571819Y-79624438D01*
X92576000Y-79666895D01*
X92576000Y-80808105D01*
X92571819Y-80850562D01*
X92561226Y-80885481D01*
X92544024Y-80917663D01*
X92520873Y-80945873D01*
X92492663Y-80969024D01*
X92460481Y-80986226D01*
X92425562Y-80996819D01*
X92383105Y-81001000D01*
X90916895Y-81001000D01*
X90874438Y-80996819D01*
X90839519Y-80986226D01*
X90807337Y-80969024D01*
X90779127Y-80945873D01*
X90755976Y-80917663D01*
X90738774Y-80885481D01*
X90728181Y-80850562D01*
X90724000Y-80808105D01*
X90724000Y-79666895D01*
X90728181Y-79624438D01*
X90738774Y-79589519D01*
X90755976Y-79557337D01*
X90779127Y-79529127D01*
X90807337Y-79505976D01*
X90839519Y-79488774D01*
X90874438Y-79478181D01*
X90916895Y-79474000D01*
X92383105Y-79474000D01*
X92425562Y-79478181D01*
G37*
G36*
X154623642Y-77629781D02*
G01*
X154769414Y-77690162D01*
X154769416Y-77690163D01*
X154900608Y-77777822D01*
X155012178Y-77889392D01*
X155066621Y-77970873D01*
X155099838Y-78020586D01*
X155160219Y-78166358D01*
X155191000Y-78321107D01*
X155191000Y-78478893D01*
X155160219Y-78633642D01*
X155099838Y-78779414D01*
X155099837Y-78779416D01*
X155012178Y-78910608D01*
X154900608Y-79022178D01*
X154769416Y-79109837D01*
X154769415Y-79109838D01*
X154769414Y-79109838D01*
X154623642Y-79170219D01*
X154468893Y-79201000D01*
X154311107Y-79201000D01*
X154156358Y-79170219D01*
X154010586Y-79109838D01*
X154010585Y-79109838D01*
X154010584Y-79109837D01*
X153879392Y-79022178D01*
X153767822Y-78910608D01*
X153680163Y-78779416D01*
X153680162Y-78779414D01*
X153619781Y-78633642D01*
X153589000Y-78478893D01*
X153589000Y-78321107D01*
X153619781Y-78166358D01*
X153680162Y-78020586D01*
X153713379Y-77970873D01*
X153767822Y-77889392D01*
X153879392Y-77777822D01*
X154010584Y-77690163D01*
X154010586Y-77690162D01*
X154156358Y-77629781D01*
X154311107Y-77599000D01*
X154468893Y-77599000D01*
X154623642Y-77629781D01*
G37*
G36*
X139951000Y-79201000D02*
G01*
X138349000Y-79201000D01*
X138349000Y-77599000D01*
X139951000Y-77599000D01*
X139951000Y-79201000D01*
G37*
G36*
X116626000Y-78451000D02*
G01*
X107974000Y-78451000D01*
X107974000Y-76849000D01*
X116626000Y-76849000D01*
X116626000Y-78451000D01*
G37*
G36*
X92425562Y-76503181D02*
G01*
X92460481Y-76513774D01*
X92492663Y-76530976D01*
X92520873Y-76554127D01*
X92544024Y-76582337D01*
X92561226Y-76614519D01*
X92571819Y-76649438D01*
X92576000Y-76691895D01*
X92576000Y-77833105D01*
X92571819Y-77875562D01*
X92561226Y-77910481D01*
X92544024Y-77942663D01*
X92520873Y-77970873D01*
X92492663Y-77994024D01*
X92460481Y-78011226D01*
X92425562Y-78021819D01*
X92383105Y-78026000D01*
X90916895Y-78026000D01*
X90874438Y-78021819D01*
X90839519Y-78011226D01*
X90807337Y-77994024D01*
X90779127Y-77970873D01*
X90755976Y-77942663D01*
X90738774Y-77910481D01*
X90728181Y-77875562D01*
X90724000Y-77833105D01*
X90724000Y-76691895D01*
X90728181Y-76649438D01*
X90738774Y-76614519D01*
X90755976Y-76582337D01*
X90779127Y-76554127D01*
X90807337Y-76530976D01*
X90839519Y-76513774D01*
X90874438Y-76503181D01*
X90916895Y-76499000D01*
X92383105Y-76499000D01*
X92425562Y-76503181D01*
G37*
G36*
X89575562Y-76503181D02*
G01*
X89610481Y-76513774D01*
X89642663Y-76530976D01*
X89670873Y-76554127D01*
X89694024Y-76582337D01*
X89711226Y-76614519D01*
X89721819Y-76649438D01*
X89726000Y-76691895D01*
X89726000Y-77833105D01*
X89721819Y-77875562D01*
X89711226Y-77910481D01*
X89694024Y-77942663D01*
X89670873Y-77970873D01*
X89642663Y-77994024D01*
X89610481Y-78011226D01*
X89575562Y-78021819D01*
X89533105Y-78026000D01*
X88066895Y-78026000D01*
X88024438Y-78021819D01*
X87989519Y-78011226D01*
X87957337Y-77994024D01*
X87929127Y-77970873D01*
X87905976Y-77942663D01*
X87888774Y-77910481D01*
X87878181Y-77875562D01*
X87874000Y-77833105D01*
X87874000Y-76691895D01*
X87878181Y-76649438D01*
X87888774Y-76614519D01*
X87905976Y-76582337D01*
X87929127Y-76554127D01*
X87957337Y-76530976D01*
X87989519Y-76513774D01*
X88024438Y-76503181D01*
X88066895Y-76499000D01*
X89533105Y-76499000D01*
X89575562Y-76503181D01*
G37*
G36*
X132125562Y-76028181D02*
G01*
X132160481Y-76038774D01*
X132192663Y-76055976D01*
X132220873Y-76079127D01*
X132244024Y-76107337D01*
X132261226Y-76139519D01*
X132271819Y-76174438D01*
X132276000Y-76216895D01*
X132276000Y-77683105D01*
X132271819Y-77725562D01*
X132261226Y-77760481D01*
X132244024Y-77792663D01*
X132220873Y-77820873D01*
X132192663Y-77844024D01*
X132160481Y-77861226D01*
X132125562Y-77871819D01*
X132083105Y-77876000D01*
X130941895Y-77876000D01*
X130899438Y-77871819D01*
X130864519Y-77861226D01*
X130832337Y-77844024D01*
X130804127Y-77820873D01*
X130780976Y-77792663D01*
X130763774Y-77760481D01*
X130753181Y-77725562D01*
X130749000Y-77683105D01*
X130749000Y-76216895D01*
X130753181Y-76174438D01*
X130763774Y-76139519D01*
X130780976Y-76107337D01*
X130804127Y-76079127D01*
X130832337Y-76055976D01*
X130864519Y-76038774D01*
X130899438Y-76028181D01*
X130941895Y-76024000D01*
X132083105Y-76024000D01*
X132125562Y-76028181D01*
G37*
G36*
X135100562Y-76028181D02*
G01*
X135135481Y-76038774D01*
X135167663Y-76055976D01*
X135195873Y-76079127D01*
X135219024Y-76107337D01*
X135236226Y-76139519D01*
X135246819Y-76174438D01*
X135251000Y-76216895D01*
X135251000Y-77683105D01*
X135246819Y-77725562D01*
X135236226Y-77760481D01*
X135219024Y-77792663D01*
X135195873Y-77820873D01*
X135167663Y-77844024D01*
X135135481Y-77861226D01*
X135100562Y-77871819D01*
X135058105Y-77876000D01*
X133916895Y-77876000D01*
X133874438Y-77871819D01*
X133839519Y-77861226D01*
X133807337Y-77844024D01*
X133779127Y-77820873D01*
X133755976Y-77792663D01*
X133738774Y-77760481D01*
X133728181Y-77725562D01*
X133724000Y-77683105D01*
X133724000Y-76216895D01*
X133728181Y-76174438D01*
X133738774Y-76139519D01*
X133755976Y-76107337D01*
X133779127Y-76079127D01*
X133807337Y-76055976D01*
X133839519Y-76038774D01*
X133874438Y-76028181D01*
X133916895Y-76024000D01*
X135058105Y-76024000D01*
X135100562Y-76028181D01*
G37*
G36*
X135100562Y-72878181D02*
G01*
X135135481Y-72888774D01*
X135167663Y-72905976D01*
X135195873Y-72929127D01*
X135219024Y-72957337D01*
X135236226Y-72989519D01*
X135246819Y-73024438D01*
X135251000Y-73066895D01*
X135251000Y-74533105D01*
X135246819Y-74575562D01*
X135236226Y-74610481D01*
X135219024Y-74642663D01*
X135195873Y-74670873D01*
X135167663Y-74694024D01*
X135135481Y-74711226D01*
X135100562Y-74721819D01*
X135058105Y-74726000D01*
X133916895Y-74726000D01*
X133874438Y-74721819D01*
X133839519Y-74711226D01*
X133807337Y-74694024D01*
X133779127Y-74670873D01*
X133755976Y-74642663D01*
X133738774Y-74610481D01*
X133728181Y-74575562D01*
X133724000Y-74533105D01*
X133724000Y-73066895D01*
X133728181Y-73024438D01*
X133738774Y-72989519D01*
X133755976Y-72957337D01*
X133779127Y-72929127D01*
X133807337Y-72905976D01*
X133839519Y-72888774D01*
X133874438Y-72878181D01*
X133916895Y-72874000D01*
X135058105Y-72874000D01*
X135100562Y-72878181D01*
G37*
G36*
X132125562Y-72878181D02*
G01*
X132160481Y-72888774D01*
X132192663Y-72905976D01*
X132220873Y-72929127D01*
X132244024Y-72957337D01*
X132261226Y-72989519D01*
X132271819Y-73024438D01*
X132276000Y-73066895D01*
X132276000Y-74533105D01*
X132271819Y-74575562D01*
X132261226Y-74610481D01*
X132244024Y-74642663D01*
X132220873Y-74670873D01*
X132192663Y-74694024D01*
X132160481Y-74711226D01*
X132125562Y-74721819D01*
X132083105Y-74726000D01*
X130941895Y-74726000D01*
X130899438Y-74721819D01*
X130864519Y-74711226D01*
X130832337Y-74694024D01*
X130804127Y-74670873D01*
X130780976Y-74642663D01*
X130763774Y-74610481D01*
X130753181Y-74575562D01*
X130749000Y-74533105D01*
X130749000Y-73066895D01*
X130753181Y-73024438D01*
X130763774Y-72989519D01*
X130780976Y-72957337D01*
X130804127Y-72929127D01*
X130832337Y-72905976D01*
X130864519Y-72888774D01*
X130899438Y-72878181D01*
X130941895Y-72874000D01*
X132083105Y-72874000D01*
X132125562Y-72878181D01*
G37*
G36*
X89987916Y-73057334D02*
G01*
X90094382Y-73089631D01*
X90096495Y-73090272D01*
X90132601Y-73109571D01*
X90196557Y-73143756D01*
X90284264Y-73215736D01*
X90356244Y-73303443D01*
X90390429Y-73367399D01*
X90409728Y-73403505D01*
X90409729Y-73403508D01*
X90442666Y-73512084D01*
X90453787Y-73625000D01*
X90442666Y-73737916D01*
X90409729Y-73846492D01*
X90409728Y-73846495D01*
X90390429Y-73882601D01*
X90356244Y-73946557D01*
X90284264Y-74034264D01*
X90196557Y-74106244D01*
X90132601Y-74140429D01*
X90096495Y-74159728D01*
X90096492Y-74159729D01*
X89987916Y-74192666D01*
X89903298Y-74201000D01*
X88996702Y-74201000D01*
X88912084Y-74192666D01*
X88803508Y-74159729D01*
X88803505Y-74159728D01*
X88767399Y-74140429D01*
X88703443Y-74106244D01*
X88615736Y-74034264D01*
X88543756Y-73946557D01*
X88509571Y-73882601D01*
X88490272Y-73846495D01*
X88490271Y-73846492D01*
X88457334Y-73737916D01*
X88446213Y-73625000D01*
X88457334Y-73512084D01*
X88490271Y-73403508D01*
X88490272Y-73403505D01*
X88509571Y-73367399D01*
X88543756Y-73303443D01*
X88615736Y-73215736D01*
X88703443Y-73143756D01*
X88767399Y-73109571D01*
X88803505Y-73090272D01*
X88805618Y-73089631D01*
X88912084Y-73057334D01*
X88996702Y-73049000D01*
X89903298Y-73049000D01*
X89987916Y-73057334D01*
G37*
G36*
X92456000Y-68374001D02*
G01*
X92458402Y-68398387D01*
X92465515Y-68421836D01*
X92477066Y-68443447D01*
X92492611Y-68462389D01*
X92511553Y-68477934D01*
X92533164Y-68489485D01*
X92556613Y-68496598D01*
X92580999Y-68499000D01*
X92851000Y-68499000D01*
X92851000Y-71601000D01*
X92580999Y-71601000D01*
X92556613Y-71603402D01*
X92533164Y-71610515D01*
X92511553Y-71622066D01*
X92492611Y-71637611D01*
X92477066Y-71656553D01*
X92465515Y-71678164D01*
X92458402Y-71701613D01*
X92456000Y-71725999D01*
X92456000Y-72996000D01*
X90904000Y-72996000D01*
X90904000Y-71744000D01*
X91224001Y-71744000D01*
X91248387Y-71741598D01*
X91271836Y-71734485D01*
X91293447Y-71722934D01*
X91312389Y-71707389D01*
X91327934Y-71688447D01*
X91339485Y-71666836D01*
X91346598Y-71643387D01*
X91349000Y-71619001D01*
X91349000Y-68480999D01*
X91346598Y-68456613D01*
X91339485Y-68433164D01*
X91327934Y-68411553D01*
X91312389Y-68392611D01*
X91293447Y-68377066D01*
X91271836Y-68365515D01*
X91248387Y-68358402D01*
X91224001Y-68356000D01*
X90904000Y-68356000D01*
X90904000Y-67104000D01*
X92456000Y-67104000D01*
X92456000Y-68374001D01*
G37*
G36*
X90451000Y-72101000D02*
G01*
X88449000Y-72101000D01*
X88449000Y-70249000D01*
X90451000Y-70249000D01*
X90451000Y-72101000D01*
G37*
G36*
X90451000Y-69851000D02*
G01*
X88449000Y-69851000D01*
X88449000Y-67999000D01*
X90451000Y-67999000D01*
X90451000Y-69851000D01*
G37*
G36*
X89987916Y-65907334D02*
G01*
X90096492Y-65940271D01*
X90096495Y-65940272D01*
X90132601Y-65959571D01*
X90196557Y-65993756D01*
X90284264Y-66065736D01*
X90356244Y-66153443D01*
X90390429Y-66217399D01*
X90409728Y-66253505D01*
X90409729Y-66253508D01*
X90442666Y-66362084D01*
X90453787Y-66475000D01*
X90442666Y-66587916D01*
X90409729Y-66696492D01*
X90409728Y-66696495D01*
X90390429Y-66732601D01*
X90356244Y-66796557D01*
X90284264Y-66884264D01*
X90196557Y-66956244D01*
X90132601Y-66990429D01*
X90096495Y-67009728D01*
X90096492Y-67009729D01*
X89987916Y-67042666D01*
X89903298Y-67051000D01*
X88996702Y-67051000D01*
X88912084Y-67042666D01*
X88803508Y-67009729D01*
X88803505Y-67009728D01*
X88767399Y-66990429D01*
X88703443Y-66956244D01*
X88615736Y-66884264D01*
X88543756Y-66796557D01*
X88509571Y-66732601D01*
X88490272Y-66696495D01*
X88490271Y-66696492D01*
X88457334Y-66587916D01*
X88446213Y-66475000D01*
X88457334Y-66362084D01*
X88490271Y-66253508D01*
X88490272Y-66253505D01*
X88509571Y-66217399D01*
X88543756Y-66153443D01*
X88615736Y-66065736D01*
X88703443Y-65993756D01*
X88767399Y-65959571D01*
X88803505Y-65940272D01*
X88803508Y-65940271D01*
X88912084Y-65907334D01*
X88996702Y-65899000D01*
X89903298Y-65899000D01*
X89987916Y-65907334D01*
G37*
G36*
X108506564Y-64439389D02*
G01*
X108697833Y-64518615D01*
X108697835Y-64518616D01*
X108869973Y-64633635D01*
X109016365Y-64780027D01*
X109131385Y-64952167D01*
X109210611Y-65143436D01*
X109251000Y-65346484D01*
X109251000Y-65553516D01*
X109210611Y-65756564D01*
X109151612Y-65899000D01*
X109131384Y-65947835D01*
X109016365Y-66119973D01*
X108869973Y-66266365D01*
X108697835Y-66381384D01*
X108697834Y-66381385D01*
X108697833Y-66381385D01*
X108506564Y-66460611D01*
X108303516Y-66501000D01*
X108096484Y-66501000D01*
X107893436Y-66460611D01*
X107702167Y-66381385D01*
X107702166Y-66381385D01*
X107702165Y-66381384D01*
X107530027Y-66266365D01*
X107383635Y-66119973D01*
X107268616Y-65947835D01*
X107248388Y-65899000D01*
X107189389Y-65756564D01*
X107149000Y-65553516D01*
X107149000Y-65346484D01*
X107189389Y-65143436D01*
X107268615Y-64952167D01*
X107383635Y-64780027D01*
X107530027Y-64633635D01*
X107702165Y-64518616D01*
X107702167Y-64518615D01*
X107893436Y-64439389D01*
X108096484Y-64399000D01*
X108303516Y-64399000D01*
X108506564Y-64439389D01*
G37*
G36*
X130006564Y-64439389D02*
G01*
X130197833Y-64518615D01*
X130197835Y-64518616D01*
X130369973Y-64633635D01*
X130516365Y-64780027D01*
X130631385Y-64952167D01*
X130710611Y-65143436D01*
X130751000Y-65346484D01*
X130751000Y-65553516D01*
X130710611Y-65756564D01*
X130651612Y-65899000D01*
X130631384Y-65947835D01*
X130516365Y-66119973D01*
X130369973Y-66266365D01*
X130197835Y-66381384D01*
X130197834Y-66381385D01*
X130197833Y-66381385D01*
X130006564Y-66460611D01*
X129803516Y-66501000D01*
X129596484Y-66501000D01*
X129393436Y-66460611D01*
X129202167Y-66381385D01*
X129202166Y-66381385D01*
X129202165Y-66381384D01*
X129030027Y-66266365D01*
X128883635Y-66119973D01*
X128768616Y-65947835D01*
X128748388Y-65899000D01*
X128689389Y-65756564D01*
X128649000Y-65553516D01*
X128649000Y-65346484D01*
X128689389Y-65143436D01*
X128768615Y-64952167D01*
X128883635Y-64780027D01*
X129030027Y-64633635D01*
X129202165Y-64518616D01*
X129202167Y-64518615D01*
X129393436Y-64439389D01*
X129596484Y-64399000D01*
X129803516Y-64399000D01*
X130006564Y-64439389D01*
G37*
G36*
X115006564Y-64439389D02*
G01*
X115197833Y-64518615D01*
X115197835Y-64518616D01*
X115369973Y-64633635D01*
X115516365Y-64780027D01*
X115631385Y-64952167D01*
X115710611Y-65143436D01*
X115751000Y-65346484D01*
X115751000Y-65553516D01*
X115710611Y-65756564D01*
X115651612Y-65899000D01*
X115631384Y-65947835D01*
X115516365Y-66119973D01*
X115369973Y-66266365D01*
X115197835Y-66381384D01*
X115197834Y-66381385D01*
X115197833Y-66381385D01*
X115006564Y-66460611D01*
X114803516Y-66501000D01*
X114596484Y-66501000D01*
X114393436Y-66460611D01*
X114202167Y-66381385D01*
X114202166Y-66381385D01*
X114202165Y-66381384D01*
X114030027Y-66266365D01*
X113883635Y-66119973D01*
X113768616Y-65947835D01*
X113748388Y-65899000D01*
X113689389Y-65756564D01*
X113649000Y-65553516D01*
X113649000Y-65346484D01*
X113689389Y-65143436D01*
X113768615Y-64952167D01*
X113883635Y-64780027D01*
X114030027Y-64633635D01*
X114202165Y-64518616D01*
X114202167Y-64518615D01*
X114393436Y-64439389D01*
X114596484Y-64399000D01*
X114803516Y-64399000D01*
X115006564Y-64439389D01*
G37*
G36*
X123506564Y-64439389D02*
G01*
X123697833Y-64518615D01*
X123697835Y-64518616D01*
X123869973Y-64633635D01*
X124016365Y-64780027D01*
X124131385Y-64952167D01*
X124210611Y-65143436D01*
X124251000Y-65346484D01*
X124251000Y-65553516D01*
X124210611Y-65756564D01*
X124151612Y-65899000D01*
X124131384Y-65947835D01*
X124016365Y-66119973D01*
X123869973Y-66266365D01*
X123697835Y-66381384D01*
X123697834Y-66381385D01*
X123697833Y-66381385D01*
X123506564Y-66460611D01*
X123303516Y-66501000D01*
X123096484Y-66501000D01*
X122893436Y-66460611D01*
X122702167Y-66381385D01*
X122702166Y-66381385D01*
X122702165Y-66381384D01*
X122530027Y-66266365D01*
X122383635Y-66119973D01*
X122268616Y-65947835D01*
X122248388Y-65899000D01*
X122189389Y-65756564D01*
X122149000Y-65553516D01*
X122149000Y-65346484D01*
X122189389Y-65143436D01*
X122268615Y-64952167D01*
X122383635Y-64780027D01*
X122530027Y-64633635D01*
X122702165Y-64518616D01*
X122702167Y-64518615D01*
X122893436Y-64439389D01*
X123096484Y-64399000D01*
X123303516Y-64399000D01*
X123506564Y-64439389D01*
G37*
G36*
X115006564Y-59939389D02*
G01*
X115197833Y-60018615D01*
X115197835Y-60018616D01*
X115369973Y-60133635D01*
X115516365Y-60280027D01*
X115631385Y-60452167D01*
X115710611Y-60643436D01*
X115751000Y-60846484D01*
X115751000Y-61053516D01*
X115710611Y-61256564D01*
X115631385Y-61447833D01*
X115631384Y-61447835D01*
X115516365Y-61619973D01*
X115369973Y-61766365D01*
X115197835Y-61881384D01*
X115197834Y-61881385D01*
X115197833Y-61881385D01*
X115006564Y-61960611D01*
X114803516Y-62001000D01*
X114596484Y-62001000D01*
X114393436Y-61960611D01*
X114202167Y-61881385D01*
X114202166Y-61881385D01*
X114202165Y-61881384D01*
X114030027Y-61766365D01*
X113883635Y-61619973D01*
X113768616Y-61447835D01*
X113768615Y-61447833D01*
X113689389Y-61256564D01*
X113649000Y-61053516D01*
X113649000Y-60846484D01*
X113689389Y-60643436D01*
X113768615Y-60452167D01*
X113883635Y-60280027D01*
X114030027Y-60133635D01*
X114202165Y-60018616D01*
X114202167Y-60018615D01*
X114393436Y-59939389D01*
X114596484Y-59899000D01*
X114803516Y-59899000D01*
X115006564Y-59939389D01*
G37*
G36*
X130006564Y-59939389D02*
G01*
X130197833Y-60018615D01*
X130197835Y-60018616D01*
X130369973Y-60133635D01*
X130516365Y-60280027D01*
X130631385Y-60452167D01*
X130710611Y-60643436D01*
X130751000Y-60846484D01*
X130751000Y-61053516D01*
X130710611Y-61256564D01*
X130631385Y-61447833D01*
X130631384Y-61447835D01*
X130516365Y-61619973D01*
X130369973Y-61766365D01*
X130197835Y-61881384D01*
X130197834Y-61881385D01*
X130197833Y-61881385D01*
X130006564Y-61960611D01*
X129803516Y-62001000D01*
X129596484Y-62001000D01*
X129393436Y-61960611D01*
X129202167Y-61881385D01*
X129202166Y-61881385D01*
X129202165Y-61881384D01*
X129030027Y-61766365D01*
X128883635Y-61619973D01*
X128768616Y-61447835D01*
X128768615Y-61447833D01*
X128689389Y-61256564D01*
X128649000Y-61053516D01*
X128649000Y-60846484D01*
X128689389Y-60643436D01*
X128768615Y-60452167D01*
X128883635Y-60280027D01*
X129030027Y-60133635D01*
X129202165Y-60018616D01*
X129202167Y-60018615D01*
X129393436Y-59939389D01*
X129596484Y-59899000D01*
X129803516Y-59899000D01*
X130006564Y-59939389D01*
G37*
G36*
X123506564Y-59939389D02*
G01*
X123697833Y-60018615D01*
X123697835Y-60018616D01*
X123869973Y-60133635D01*
X124016365Y-60280027D01*
X124131385Y-60452167D01*
X124210611Y-60643436D01*
X124251000Y-60846484D01*
X124251000Y-61053516D01*
X124210611Y-61256564D01*
X124131385Y-61447833D01*
X124131384Y-61447835D01*
X124016365Y-61619973D01*
X123869973Y-61766365D01*
X123697835Y-61881384D01*
X123697834Y-61881385D01*
X123697833Y-61881385D01*
X123506564Y-61960611D01*
X123303516Y-62001000D01*
X123096484Y-62001000D01*
X122893436Y-61960611D01*
X122702167Y-61881385D01*
X122702166Y-61881385D01*
X122702165Y-61881384D01*
X122530027Y-61766365D01*
X122383635Y-61619973D01*
X122268616Y-61447835D01*
X122268615Y-61447833D01*
X122189389Y-61256564D01*
X122149000Y-61053516D01*
X122149000Y-60846484D01*
X122189389Y-60643436D01*
X122268615Y-60452167D01*
X122383635Y-60280027D01*
X122530027Y-60133635D01*
X122702165Y-60018616D01*
X122702167Y-60018615D01*
X122893436Y-59939389D01*
X123096484Y-59899000D01*
X123303516Y-59899000D01*
X123506564Y-59939389D01*
G37*
G36*
X108506564Y-59939389D02*
G01*
X108697833Y-60018615D01*
X108697835Y-60018616D01*
X108869973Y-60133635D01*
X109016365Y-60280027D01*
X109131385Y-60452167D01*
X109210611Y-60643436D01*
X109251000Y-60846484D01*
X109251000Y-61053516D01*
X109210611Y-61256564D01*
X109131385Y-61447833D01*
X109131384Y-61447835D01*
X109016365Y-61619973D01*
X108869973Y-61766365D01*
X108697835Y-61881384D01*
X108697834Y-61881385D01*
X108697833Y-61881385D01*
X108506564Y-61960611D01*
X108303516Y-62001000D01*
X108096484Y-62001000D01*
X107893436Y-61960611D01*
X107702167Y-61881385D01*
X107702166Y-61881385D01*
X107702165Y-61881384D01*
X107530027Y-61766365D01*
X107383635Y-61619973D01*
X107268616Y-61447835D01*
X107268615Y-61447833D01*
X107189389Y-61256564D01*
X107149000Y-61053516D01*
X107149000Y-60846484D01*
X107189389Y-60643436D01*
X107268615Y-60452167D01*
X107383635Y-60280027D01*
X107530027Y-60133635D01*
X107702165Y-60018616D01*
X107702167Y-60018615D01*
X107893436Y-59939389D01*
X108096484Y-59899000D01*
X108303516Y-59899000D01*
X108506564Y-59939389D01*
G37*
M02*
