G04 #@! TF.GenerationSoftware,KiCad,Pcbnew,(5.1.5)-3*
G04 #@! TF.CreationDate,2020-08-03T22:27:43-04:00*
G04 #@! TF.ProjectId,Kitchen Timer,4b697463-6865-46e2-9054-696d65722e6b,rev?*
G04 #@! TF.SameCoordinates,Original*
G04 #@! TF.FileFunction,Soldermask,Bot*
G04 #@! TF.FilePolarity,Negative*
%FSLAX46Y46*%
G04 Gerber Fmt 4.6, Leading zero omitted, Abs format (unit mm)*
G04 Created by KiCad (PCBNEW (5.1.5)-3) date 2020-08-03 22:27:43*
%MOMM*%
%LPD*%
G04 APERTURE LIST*
%ADD10C,0.100000*%
G04 APERTURE END LIST*
D10*
G36*
X104706564Y-109489389D02*
G01*
X104897833Y-109568615D01*
X104897835Y-109568616D01*
X105069973Y-109683635D01*
X105216365Y-109830027D01*
X105331385Y-110002167D01*
X105410611Y-110193436D01*
X105451000Y-110396484D01*
X105451000Y-110603516D01*
X105410611Y-110806564D01*
X105331385Y-110997833D01*
X105331384Y-110997835D01*
X105216365Y-111169973D01*
X105069973Y-111316365D01*
X104897835Y-111431384D01*
X104897834Y-111431385D01*
X104897833Y-111431385D01*
X104706564Y-111510611D01*
X104503516Y-111551000D01*
X104296484Y-111551000D01*
X104093436Y-111510611D01*
X103902167Y-111431385D01*
X103902166Y-111431385D01*
X103902165Y-111431384D01*
X103730027Y-111316365D01*
X103583635Y-111169973D01*
X103468616Y-110997835D01*
X103468615Y-110997833D01*
X103389389Y-110806564D01*
X103349000Y-110603516D01*
X103349000Y-110396484D01*
X103389389Y-110193436D01*
X103468615Y-110002167D01*
X103583635Y-109830027D01*
X103730027Y-109683635D01*
X103902165Y-109568616D01*
X103902167Y-109568615D01*
X104093436Y-109489389D01*
X104296484Y-109449000D01*
X104503516Y-109449000D01*
X104706564Y-109489389D01*
G37*
G36*
X98206564Y-109489389D02*
G01*
X98397833Y-109568615D01*
X98397835Y-109568616D01*
X98569973Y-109683635D01*
X98716365Y-109830027D01*
X98831385Y-110002167D01*
X98910611Y-110193436D01*
X98951000Y-110396484D01*
X98951000Y-110603516D01*
X98910611Y-110806564D01*
X98831385Y-110997833D01*
X98831384Y-110997835D01*
X98716365Y-111169973D01*
X98569973Y-111316365D01*
X98397835Y-111431384D01*
X98397834Y-111431385D01*
X98397833Y-111431385D01*
X98206564Y-111510611D01*
X98003516Y-111551000D01*
X97796484Y-111551000D01*
X97593436Y-111510611D01*
X97402167Y-111431385D01*
X97402166Y-111431385D01*
X97402165Y-111431384D01*
X97230027Y-111316365D01*
X97083635Y-111169973D01*
X96968616Y-110997835D01*
X96968615Y-110997833D01*
X96889389Y-110806564D01*
X96849000Y-110603516D01*
X96849000Y-110396484D01*
X96889389Y-110193436D01*
X96968615Y-110002167D01*
X97083635Y-109830027D01*
X97230027Y-109683635D01*
X97402165Y-109568616D01*
X97402167Y-109568615D01*
X97593436Y-109489389D01*
X97796484Y-109449000D01*
X98003516Y-109449000D01*
X98206564Y-109489389D01*
G37*
G36*
X104706564Y-104989389D02*
G01*
X104897833Y-105068615D01*
X104897835Y-105068616D01*
X105069973Y-105183635D01*
X105216365Y-105330027D01*
X105292143Y-105443436D01*
X105331385Y-105502167D01*
X105410611Y-105693436D01*
X105451000Y-105896484D01*
X105451000Y-106103516D01*
X105410611Y-106306564D01*
X105331385Y-106497833D01*
X105331384Y-106497835D01*
X105216365Y-106669973D01*
X105069973Y-106816365D01*
X104897835Y-106931384D01*
X104897834Y-106931385D01*
X104897833Y-106931385D01*
X104706564Y-107010611D01*
X104503516Y-107051000D01*
X104296484Y-107051000D01*
X104093436Y-107010611D01*
X103902167Y-106931385D01*
X103902166Y-106931385D01*
X103902165Y-106931384D01*
X103730027Y-106816365D01*
X103583635Y-106669973D01*
X103468616Y-106497835D01*
X103468615Y-106497833D01*
X103389389Y-106306564D01*
X103349000Y-106103516D01*
X103349000Y-105896484D01*
X103389389Y-105693436D01*
X103468615Y-105502167D01*
X103507858Y-105443436D01*
X103583635Y-105330027D01*
X103730027Y-105183635D01*
X103902165Y-105068616D01*
X103902167Y-105068615D01*
X104093436Y-104989389D01*
X104296484Y-104949000D01*
X104503516Y-104949000D01*
X104706564Y-104989389D01*
G37*
G36*
X98206564Y-104989389D02*
G01*
X98397833Y-105068615D01*
X98397835Y-105068616D01*
X98569973Y-105183635D01*
X98716365Y-105330027D01*
X98792143Y-105443436D01*
X98831385Y-105502167D01*
X98910611Y-105693436D01*
X98951000Y-105896484D01*
X98951000Y-106103516D01*
X98910611Y-106306564D01*
X98831385Y-106497833D01*
X98831384Y-106497835D01*
X98716365Y-106669973D01*
X98569973Y-106816365D01*
X98397835Y-106931384D01*
X98397834Y-106931385D01*
X98397833Y-106931385D01*
X98206564Y-107010611D01*
X98003516Y-107051000D01*
X97796484Y-107051000D01*
X97593436Y-107010611D01*
X97402167Y-106931385D01*
X97402166Y-106931385D01*
X97402165Y-106931384D01*
X97230027Y-106816365D01*
X97083635Y-106669973D01*
X96968616Y-106497835D01*
X96968615Y-106497833D01*
X96889389Y-106306564D01*
X96849000Y-106103516D01*
X96849000Y-105896484D01*
X96889389Y-105693436D01*
X96968615Y-105502167D01*
X97007858Y-105443436D01*
X97083635Y-105330027D01*
X97230027Y-105183635D01*
X97402165Y-105068616D01*
X97402167Y-105068615D01*
X97593436Y-104989389D01*
X97796484Y-104949000D01*
X98003516Y-104949000D01*
X98206564Y-104989389D01*
G37*
G36*
X132806564Y-104739389D02*
G01*
X132997833Y-104818615D01*
X132997835Y-104818616D01*
X133169973Y-104933635D01*
X133316365Y-105080027D01*
X133385594Y-105183635D01*
X133431385Y-105252167D01*
X133510611Y-105443436D01*
X133551000Y-105646484D01*
X133551000Y-105853516D01*
X133510611Y-106056564D01*
X133431385Y-106247833D01*
X133431384Y-106247835D01*
X133316365Y-106419973D01*
X133169973Y-106566365D01*
X132997835Y-106681384D01*
X132997834Y-106681385D01*
X132997833Y-106681385D01*
X132806564Y-106760611D01*
X132603516Y-106801000D01*
X132396484Y-106801000D01*
X132193436Y-106760611D01*
X132002167Y-106681385D01*
X132002166Y-106681385D01*
X132002165Y-106681384D01*
X131830027Y-106566365D01*
X131683635Y-106419973D01*
X131568616Y-106247835D01*
X131568615Y-106247833D01*
X131489389Y-106056564D01*
X131449000Y-105853516D01*
X131449000Y-105646484D01*
X131489389Y-105443436D01*
X131568615Y-105252167D01*
X131614407Y-105183635D01*
X131683635Y-105080027D01*
X131830027Y-104933635D01*
X132002165Y-104818616D01*
X132002167Y-104818615D01*
X132193436Y-104739389D01*
X132396484Y-104699000D01*
X132603516Y-104699000D01*
X132806564Y-104739389D01*
G37*
G36*
X125951000Y-106801000D02*
G01*
X123849000Y-106801000D01*
X123849000Y-104699000D01*
X125951000Y-104699000D01*
X125951000Y-106801000D01*
G37*
G36*
X92696778Y-96920547D02*
G01*
X92863224Y-96989491D01*
X93013022Y-97089583D01*
X93140417Y-97216978D01*
X93240509Y-97366776D01*
X93309453Y-97533222D01*
X93344600Y-97709918D01*
X93344600Y-97890082D01*
X93309453Y-98066778D01*
X93240509Y-98233224D01*
X93140417Y-98383022D01*
X93013022Y-98510417D01*
X92863224Y-98610509D01*
X92696778Y-98679453D01*
X92520082Y-98714600D01*
X92339918Y-98714600D01*
X92163222Y-98679453D01*
X91996776Y-98610509D01*
X91846978Y-98510417D01*
X91719583Y-98383022D01*
X91619491Y-98233224D01*
X91550547Y-98066778D01*
X91515400Y-97890082D01*
X91515400Y-97709918D01*
X91550547Y-97533222D01*
X91619491Y-97366776D01*
X91719583Y-97216978D01*
X91846978Y-97089583D01*
X91996776Y-96989491D01*
X92163222Y-96920547D01*
X92339918Y-96885400D01*
X92520082Y-96885400D01*
X92696778Y-96920547D01*
G37*
G36*
X90156778Y-96920547D02*
G01*
X90323224Y-96989491D01*
X90473022Y-97089583D01*
X90600417Y-97216978D01*
X90700509Y-97366776D01*
X90769453Y-97533222D01*
X90804600Y-97709918D01*
X90804600Y-97890082D01*
X90769453Y-98066778D01*
X90700509Y-98233224D01*
X90600417Y-98383022D01*
X90473022Y-98510417D01*
X90323224Y-98610509D01*
X90156778Y-98679453D01*
X89980082Y-98714600D01*
X89799918Y-98714600D01*
X89623222Y-98679453D01*
X89456776Y-98610509D01*
X89306978Y-98510417D01*
X89179583Y-98383022D01*
X89079491Y-98233224D01*
X89010547Y-98066778D01*
X88975400Y-97890082D01*
X88975400Y-97709918D01*
X89010547Y-97533222D01*
X89079491Y-97366776D01*
X89179583Y-97216978D01*
X89306978Y-97089583D01*
X89456776Y-96989491D01*
X89623222Y-96920547D01*
X89799918Y-96885400D01*
X89980082Y-96885400D01*
X90156778Y-96920547D01*
G37*
G36*
X92696778Y-94380547D02*
G01*
X92863224Y-94449491D01*
X93013022Y-94549583D01*
X93140417Y-94676978D01*
X93240509Y-94826776D01*
X93309453Y-94993222D01*
X93344600Y-95169918D01*
X93344600Y-95350082D01*
X93309453Y-95526778D01*
X93240509Y-95693224D01*
X93140417Y-95843022D01*
X93013022Y-95970417D01*
X92863224Y-96070509D01*
X92696778Y-96139453D01*
X92520082Y-96174600D01*
X92339918Y-96174600D01*
X92163222Y-96139453D01*
X91996776Y-96070509D01*
X91846978Y-95970417D01*
X91719583Y-95843022D01*
X91619491Y-95693224D01*
X91550547Y-95526778D01*
X91515400Y-95350082D01*
X91515400Y-95169918D01*
X91550547Y-94993222D01*
X91619491Y-94826776D01*
X91719583Y-94676978D01*
X91846978Y-94549583D01*
X91996776Y-94449491D01*
X92163222Y-94380547D01*
X92339918Y-94345400D01*
X92520082Y-94345400D01*
X92696778Y-94380547D01*
G37*
G36*
X90156778Y-94380547D02*
G01*
X90323224Y-94449491D01*
X90473022Y-94549583D01*
X90600417Y-94676978D01*
X90700509Y-94826776D01*
X90769453Y-94993222D01*
X90804600Y-95169918D01*
X90804600Y-95350082D01*
X90769453Y-95526778D01*
X90700509Y-95693224D01*
X90600417Y-95843022D01*
X90473022Y-95970417D01*
X90323224Y-96070509D01*
X90156778Y-96139453D01*
X89980082Y-96174600D01*
X89799918Y-96174600D01*
X89623222Y-96139453D01*
X89456776Y-96070509D01*
X89306978Y-95970417D01*
X89179583Y-95843022D01*
X89079491Y-95693224D01*
X89010547Y-95526778D01*
X88975400Y-95350082D01*
X88975400Y-95169918D01*
X89010547Y-94993222D01*
X89079491Y-94826776D01*
X89179583Y-94676978D01*
X89306978Y-94549583D01*
X89456776Y-94449491D01*
X89623222Y-94380547D01*
X89799918Y-94345400D01*
X89980082Y-94345400D01*
X90156778Y-94380547D01*
G37*
G36*
X90804600Y-93634600D02*
G01*
X88975400Y-93634600D01*
X88975400Y-91805400D01*
X90804600Y-91805400D01*
X90804600Y-93634600D01*
G37*
G36*
X92696778Y-91840547D02*
G01*
X92863224Y-91909491D01*
X93013022Y-92009583D01*
X93140417Y-92136978D01*
X93240509Y-92286776D01*
X93309453Y-92453222D01*
X93344600Y-92629918D01*
X93344600Y-92810082D01*
X93309453Y-92986778D01*
X93240509Y-93153224D01*
X93140417Y-93303022D01*
X93013022Y-93430417D01*
X92863224Y-93530509D01*
X92696778Y-93599453D01*
X92520082Y-93634600D01*
X92339918Y-93634600D01*
X92163222Y-93599453D01*
X91996776Y-93530509D01*
X91846978Y-93430417D01*
X91719583Y-93303022D01*
X91619491Y-93153224D01*
X91550547Y-92986778D01*
X91515400Y-92810082D01*
X91515400Y-92629918D01*
X91550547Y-92453222D01*
X91619491Y-92286776D01*
X91719583Y-92136978D01*
X91846978Y-92009583D01*
X91996776Y-91909491D01*
X92163222Y-91840547D01*
X92339918Y-91805400D01*
X92520082Y-91805400D01*
X92696778Y-91840547D01*
G37*
G36*
X154623642Y-90329781D02*
G01*
X154769414Y-90390162D01*
X154769416Y-90390163D01*
X154900608Y-90477822D01*
X155012178Y-90589392D01*
X155099837Y-90720584D01*
X155099838Y-90720586D01*
X155160219Y-90866358D01*
X155191000Y-91021107D01*
X155191000Y-91178893D01*
X155160219Y-91333642D01*
X155099838Y-91479414D01*
X155099837Y-91479416D01*
X155012178Y-91610608D01*
X154900608Y-91722178D01*
X154769416Y-91809837D01*
X154769415Y-91809838D01*
X154769414Y-91809838D01*
X154623642Y-91870219D01*
X154468893Y-91901000D01*
X154311107Y-91901000D01*
X154156358Y-91870219D01*
X154010586Y-91809838D01*
X154010585Y-91809838D01*
X154010584Y-91809837D01*
X153879392Y-91722178D01*
X153767822Y-91610608D01*
X153680163Y-91479416D01*
X153680162Y-91479414D01*
X153619781Y-91333642D01*
X153589000Y-91178893D01*
X153589000Y-91021107D01*
X153619781Y-90866358D01*
X153680162Y-90720586D01*
X153680163Y-90720584D01*
X153767822Y-90589392D01*
X153879392Y-90477822D01*
X154010584Y-90390163D01*
X154010586Y-90390162D01*
X154156358Y-90329781D01*
X154311107Y-90299000D01*
X154468893Y-90299000D01*
X154623642Y-90329781D01*
G37*
G36*
X139383642Y-90329781D02*
G01*
X139529414Y-90390162D01*
X139529416Y-90390163D01*
X139660608Y-90477822D01*
X139772178Y-90589392D01*
X139859837Y-90720584D01*
X139859838Y-90720586D01*
X139920219Y-90866358D01*
X139951000Y-91021107D01*
X139951000Y-91178893D01*
X139920219Y-91333642D01*
X139859838Y-91479414D01*
X139859837Y-91479416D01*
X139772178Y-91610608D01*
X139660608Y-91722178D01*
X139529416Y-91809837D01*
X139529415Y-91809838D01*
X139529414Y-91809838D01*
X139383642Y-91870219D01*
X139228893Y-91901000D01*
X139071107Y-91901000D01*
X138916358Y-91870219D01*
X138770586Y-91809838D01*
X138770585Y-91809838D01*
X138770584Y-91809837D01*
X138639392Y-91722178D01*
X138527822Y-91610608D01*
X138440163Y-91479416D01*
X138440162Y-91479414D01*
X138379781Y-91333642D01*
X138349000Y-91178893D01*
X138349000Y-91021107D01*
X138379781Y-90866358D01*
X138440162Y-90720586D01*
X138440163Y-90720584D01*
X138527822Y-90589392D01*
X138639392Y-90477822D01*
X138770584Y-90390163D01*
X138770586Y-90390162D01*
X138916358Y-90329781D01*
X139071107Y-90299000D01*
X139228893Y-90299000D01*
X139383642Y-90329781D01*
G37*
G36*
X154623642Y-87789781D02*
G01*
X154769414Y-87850162D01*
X154769416Y-87850163D01*
X154900608Y-87937822D01*
X155012178Y-88049392D01*
X155099837Y-88180584D01*
X155099838Y-88180586D01*
X155160219Y-88326358D01*
X155191000Y-88481107D01*
X155191000Y-88638893D01*
X155160219Y-88793642D01*
X155099838Y-88939414D01*
X155099837Y-88939416D01*
X155012178Y-89070608D01*
X154900608Y-89182178D01*
X154769416Y-89269837D01*
X154769415Y-89269838D01*
X154769414Y-89269838D01*
X154623642Y-89330219D01*
X154468893Y-89361000D01*
X154311107Y-89361000D01*
X154156358Y-89330219D01*
X154010586Y-89269838D01*
X154010585Y-89269838D01*
X154010584Y-89269837D01*
X153879392Y-89182178D01*
X153767822Y-89070608D01*
X153680163Y-88939416D01*
X153680162Y-88939414D01*
X153619781Y-88793642D01*
X153589000Y-88638893D01*
X153589000Y-88481107D01*
X153619781Y-88326358D01*
X153680162Y-88180586D01*
X153680163Y-88180584D01*
X153767822Y-88049392D01*
X153879392Y-87937822D01*
X154010584Y-87850163D01*
X154010586Y-87850162D01*
X154156358Y-87789781D01*
X154311107Y-87759000D01*
X154468893Y-87759000D01*
X154623642Y-87789781D01*
G37*
G36*
X139383642Y-87789781D02*
G01*
X139529414Y-87850162D01*
X139529416Y-87850163D01*
X139660608Y-87937822D01*
X139772178Y-88049392D01*
X139859837Y-88180584D01*
X139859838Y-88180586D01*
X139920219Y-88326358D01*
X139951000Y-88481107D01*
X139951000Y-88638893D01*
X139920219Y-88793642D01*
X139859838Y-88939414D01*
X139859837Y-88939416D01*
X139772178Y-89070608D01*
X139660608Y-89182178D01*
X139529416Y-89269837D01*
X139529415Y-89269838D01*
X139529414Y-89269838D01*
X139383642Y-89330219D01*
X139228893Y-89361000D01*
X139071107Y-89361000D01*
X138916358Y-89330219D01*
X138770586Y-89269838D01*
X138770585Y-89269838D01*
X138770584Y-89269837D01*
X138639392Y-89182178D01*
X138527822Y-89070608D01*
X138440163Y-88939416D01*
X138440162Y-88939414D01*
X138379781Y-88793642D01*
X138349000Y-88638893D01*
X138349000Y-88481107D01*
X138379781Y-88326358D01*
X138440162Y-88180586D01*
X138440163Y-88180584D01*
X138527822Y-88049392D01*
X138639392Y-87937822D01*
X138770584Y-87850163D01*
X138770586Y-87850162D01*
X138916358Y-87789781D01*
X139071107Y-87759000D01*
X139228893Y-87759000D01*
X139383642Y-87789781D01*
G37*
G36*
X154623642Y-85249781D02*
G01*
X154769414Y-85310162D01*
X154769416Y-85310163D01*
X154900608Y-85397822D01*
X155012178Y-85509392D01*
X155099837Y-85640584D01*
X155099838Y-85640586D01*
X155160219Y-85786358D01*
X155191000Y-85941107D01*
X155191000Y-86098893D01*
X155160219Y-86253642D01*
X155099838Y-86399414D01*
X155099837Y-86399416D01*
X155012178Y-86530608D01*
X154900608Y-86642178D01*
X154769416Y-86729837D01*
X154769415Y-86729838D01*
X154769414Y-86729838D01*
X154623642Y-86790219D01*
X154468893Y-86821000D01*
X154311107Y-86821000D01*
X154156358Y-86790219D01*
X154010586Y-86729838D01*
X154010585Y-86729838D01*
X154010584Y-86729837D01*
X153879392Y-86642178D01*
X153767822Y-86530608D01*
X153680163Y-86399416D01*
X153680162Y-86399414D01*
X153619781Y-86253642D01*
X153589000Y-86098893D01*
X153589000Y-85941107D01*
X153619781Y-85786358D01*
X153680162Y-85640586D01*
X153680163Y-85640584D01*
X153767822Y-85509392D01*
X153879392Y-85397822D01*
X154010584Y-85310163D01*
X154010586Y-85310162D01*
X154156358Y-85249781D01*
X154311107Y-85219000D01*
X154468893Y-85219000D01*
X154623642Y-85249781D01*
G37*
G36*
X139383642Y-85249781D02*
G01*
X139529414Y-85310162D01*
X139529416Y-85310163D01*
X139660608Y-85397822D01*
X139772178Y-85509392D01*
X139859837Y-85640584D01*
X139859838Y-85640586D01*
X139920219Y-85786358D01*
X139951000Y-85941107D01*
X139951000Y-86098893D01*
X139920219Y-86253642D01*
X139859838Y-86399414D01*
X139859837Y-86399416D01*
X139772178Y-86530608D01*
X139660608Y-86642178D01*
X139529416Y-86729837D01*
X139529415Y-86729838D01*
X139529414Y-86729838D01*
X139383642Y-86790219D01*
X139228893Y-86821000D01*
X139071107Y-86821000D01*
X138916358Y-86790219D01*
X138770586Y-86729838D01*
X138770585Y-86729838D01*
X138770584Y-86729837D01*
X138639392Y-86642178D01*
X138527822Y-86530608D01*
X138440163Y-86399416D01*
X138440162Y-86399414D01*
X138379781Y-86253642D01*
X138349000Y-86098893D01*
X138349000Y-85941107D01*
X138379781Y-85786358D01*
X138440162Y-85640586D01*
X138440163Y-85640584D01*
X138527822Y-85509392D01*
X138639392Y-85397822D01*
X138770584Y-85310163D01*
X138770586Y-85310162D01*
X138916358Y-85249781D01*
X139071107Y-85219000D01*
X139228893Y-85219000D01*
X139383642Y-85249781D01*
G37*
G36*
X139383642Y-82709781D02*
G01*
X139529414Y-82770162D01*
X139529416Y-82770163D01*
X139660608Y-82857822D01*
X139772178Y-82969392D01*
X139859837Y-83100584D01*
X139859838Y-83100586D01*
X139920219Y-83246358D01*
X139951000Y-83401107D01*
X139951000Y-83558893D01*
X139920219Y-83713642D01*
X139859838Y-83859414D01*
X139859837Y-83859416D01*
X139772178Y-83990608D01*
X139660608Y-84102178D01*
X139529416Y-84189837D01*
X139529415Y-84189838D01*
X139529414Y-84189838D01*
X139383642Y-84250219D01*
X139228893Y-84281000D01*
X139071107Y-84281000D01*
X138916358Y-84250219D01*
X138770586Y-84189838D01*
X138770585Y-84189838D01*
X138770584Y-84189837D01*
X138639392Y-84102178D01*
X138527822Y-83990608D01*
X138440163Y-83859416D01*
X138440162Y-83859414D01*
X138379781Y-83713642D01*
X138349000Y-83558893D01*
X138349000Y-83401107D01*
X138379781Y-83246358D01*
X138440162Y-83100586D01*
X138440163Y-83100584D01*
X138527822Y-82969392D01*
X138639392Y-82857822D01*
X138770584Y-82770163D01*
X138770586Y-82770162D01*
X138916358Y-82709781D01*
X139071107Y-82679000D01*
X139228893Y-82679000D01*
X139383642Y-82709781D01*
G37*
G36*
X154623642Y-82709781D02*
G01*
X154769414Y-82770162D01*
X154769416Y-82770163D01*
X154900608Y-82857822D01*
X155012178Y-82969392D01*
X155099837Y-83100584D01*
X155099838Y-83100586D01*
X155160219Y-83246358D01*
X155191000Y-83401107D01*
X155191000Y-83558893D01*
X155160219Y-83713642D01*
X155099838Y-83859414D01*
X155099837Y-83859416D01*
X155012178Y-83990608D01*
X154900608Y-84102178D01*
X154769416Y-84189837D01*
X154769415Y-84189838D01*
X154769414Y-84189838D01*
X154623642Y-84250219D01*
X154468893Y-84281000D01*
X154311107Y-84281000D01*
X154156358Y-84250219D01*
X154010586Y-84189838D01*
X154010585Y-84189838D01*
X154010584Y-84189837D01*
X153879392Y-84102178D01*
X153767822Y-83990608D01*
X153680163Y-83859416D01*
X153680162Y-83859414D01*
X153619781Y-83713642D01*
X153589000Y-83558893D01*
X153589000Y-83401107D01*
X153619781Y-83246358D01*
X153680162Y-83100586D01*
X153680163Y-83100584D01*
X153767822Y-82969392D01*
X153879392Y-82857822D01*
X154010584Y-82770163D01*
X154010586Y-82770162D01*
X154156358Y-82709781D01*
X154311107Y-82679000D01*
X154468893Y-82679000D01*
X154623642Y-82709781D01*
G37*
G36*
X139383642Y-80169781D02*
G01*
X139529414Y-80230162D01*
X139529416Y-80230163D01*
X139660608Y-80317822D01*
X139772178Y-80429392D01*
X139859837Y-80560584D01*
X139859838Y-80560586D01*
X139920219Y-80706358D01*
X139951000Y-80861107D01*
X139951000Y-81018893D01*
X139920219Y-81173642D01*
X139859838Y-81319414D01*
X139859837Y-81319416D01*
X139772178Y-81450608D01*
X139660608Y-81562178D01*
X139529416Y-81649837D01*
X139529415Y-81649838D01*
X139529414Y-81649838D01*
X139383642Y-81710219D01*
X139228893Y-81741000D01*
X139071107Y-81741000D01*
X138916358Y-81710219D01*
X138770586Y-81649838D01*
X138770585Y-81649838D01*
X138770584Y-81649837D01*
X138639392Y-81562178D01*
X138527822Y-81450608D01*
X138440163Y-81319416D01*
X138440162Y-81319414D01*
X138379781Y-81173642D01*
X138349000Y-81018893D01*
X138349000Y-80861107D01*
X138379781Y-80706358D01*
X138440162Y-80560586D01*
X138440163Y-80560584D01*
X138527822Y-80429392D01*
X138639392Y-80317822D01*
X138770584Y-80230163D01*
X138770586Y-80230162D01*
X138916358Y-80169781D01*
X139071107Y-80139000D01*
X139228893Y-80139000D01*
X139383642Y-80169781D01*
G37*
G36*
X154623642Y-80169781D02*
G01*
X154769414Y-80230162D01*
X154769416Y-80230163D01*
X154900608Y-80317822D01*
X155012178Y-80429392D01*
X155099837Y-80560584D01*
X155099838Y-80560586D01*
X155160219Y-80706358D01*
X155191000Y-80861107D01*
X155191000Y-81018893D01*
X155160219Y-81173642D01*
X155099838Y-81319414D01*
X155099837Y-81319416D01*
X155012178Y-81450608D01*
X154900608Y-81562178D01*
X154769416Y-81649837D01*
X154769415Y-81649838D01*
X154769414Y-81649838D01*
X154623642Y-81710219D01*
X154468893Y-81741000D01*
X154311107Y-81741000D01*
X154156358Y-81710219D01*
X154010586Y-81649838D01*
X154010585Y-81649838D01*
X154010584Y-81649837D01*
X153879392Y-81562178D01*
X153767822Y-81450608D01*
X153680163Y-81319416D01*
X153680162Y-81319414D01*
X153619781Y-81173642D01*
X153589000Y-81018893D01*
X153589000Y-80861107D01*
X153619781Y-80706358D01*
X153680162Y-80560586D01*
X153680163Y-80560584D01*
X153767822Y-80429392D01*
X153879392Y-80317822D01*
X154010584Y-80230163D01*
X154010586Y-80230162D01*
X154156358Y-80169781D01*
X154311107Y-80139000D01*
X154468893Y-80139000D01*
X154623642Y-80169781D01*
G37*
G36*
X139951000Y-79201000D02*
G01*
X138349000Y-79201000D01*
X138349000Y-77599000D01*
X139951000Y-77599000D01*
X139951000Y-79201000D01*
G37*
G36*
X154623642Y-77629781D02*
G01*
X154769414Y-77690162D01*
X154769416Y-77690163D01*
X154900608Y-77777822D01*
X155012178Y-77889392D01*
X155099837Y-78020584D01*
X155099838Y-78020586D01*
X155160219Y-78166358D01*
X155191000Y-78321107D01*
X155191000Y-78478893D01*
X155160219Y-78633642D01*
X155099838Y-78779414D01*
X155099837Y-78779416D01*
X155012178Y-78910608D01*
X154900608Y-79022178D01*
X154769416Y-79109837D01*
X154769415Y-79109838D01*
X154769414Y-79109838D01*
X154623642Y-79170219D01*
X154468893Y-79201000D01*
X154311107Y-79201000D01*
X154156358Y-79170219D01*
X154010586Y-79109838D01*
X154010585Y-79109838D01*
X154010584Y-79109837D01*
X153879392Y-79022178D01*
X153767822Y-78910608D01*
X153680163Y-78779416D01*
X153680162Y-78779414D01*
X153619781Y-78633642D01*
X153589000Y-78478893D01*
X153589000Y-78321107D01*
X153619781Y-78166358D01*
X153680162Y-78020586D01*
X153680163Y-78020584D01*
X153767822Y-77889392D01*
X153879392Y-77777822D01*
X154010584Y-77690163D01*
X154010586Y-77690162D01*
X154156358Y-77629781D01*
X154311107Y-77599000D01*
X154468893Y-77599000D01*
X154623642Y-77629781D01*
G37*
G36*
X89987916Y-73057334D02*
G01*
X90096492Y-73090271D01*
X90096495Y-73090272D01*
X90132601Y-73109571D01*
X90196557Y-73143756D01*
X90284264Y-73215736D01*
X90356244Y-73303443D01*
X90390429Y-73367399D01*
X90409728Y-73403505D01*
X90409729Y-73403508D01*
X90442666Y-73512084D01*
X90453787Y-73625000D01*
X90442666Y-73737916D01*
X90409729Y-73846492D01*
X90409728Y-73846495D01*
X90390429Y-73882601D01*
X90356244Y-73946557D01*
X90284264Y-74034264D01*
X90196557Y-74106244D01*
X90132601Y-74140429D01*
X90096495Y-74159728D01*
X90096492Y-74159729D01*
X89987916Y-74192666D01*
X89903298Y-74201000D01*
X88996702Y-74201000D01*
X88912084Y-74192666D01*
X88803508Y-74159729D01*
X88803505Y-74159728D01*
X88767399Y-74140429D01*
X88703443Y-74106244D01*
X88615736Y-74034264D01*
X88543756Y-73946557D01*
X88509571Y-73882601D01*
X88490272Y-73846495D01*
X88490271Y-73846492D01*
X88457334Y-73737916D01*
X88446213Y-73625000D01*
X88457334Y-73512084D01*
X88490271Y-73403508D01*
X88490272Y-73403505D01*
X88509571Y-73367399D01*
X88543756Y-73303443D01*
X88615736Y-73215736D01*
X88703443Y-73143756D01*
X88767399Y-73109571D01*
X88803505Y-73090272D01*
X88803508Y-73090271D01*
X88912084Y-73057334D01*
X88996702Y-73049000D01*
X89903298Y-73049000D01*
X89987916Y-73057334D01*
G37*
G36*
X89987916Y-65907334D02*
G01*
X90096492Y-65940271D01*
X90096495Y-65940272D01*
X90132601Y-65959571D01*
X90196557Y-65993756D01*
X90284264Y-66065736D01*
X90356244Y-66153443D01*
X90390429Y-66217399D01*
X90409728Y-66253505D01*
X90409729Y-66253508D01*
X90442666Y-66362084D01*
X90453787Y-66475000D01*
X90442666Y-66587916D01*
X90409729Y-66696492D01*
X90409728Y-66696495D01*
X90390429Y-66732601D01*
X90356244Y-66796557D01*
X90284264Y-66884264D01*
X90196557Y-66956244D01*
X90132601Y-66990429D01*
X90096495Y-67009728D01*
X90096492Y-67009729D01*
X89987916Y-67042666D01*
X89903298Y-67051000D01*
X88996702Y-67051000D01*
X88912084Y-67042666D01*
X88803508Y-67009729D01*
X88803505Y-67009728D01*
X88767399Y-66990429D01*
X88703443Y-66956244D01*
X88615736Y-66884264D01*
X88543756Y-66796557D01*
X88509571Y-66732601D01*
X88490272Y-66696495D01*
X88490271Y-66696492D01*
X88457334Y-66587916D01*
X88446213Y-66475000D01*
X88457334Y-66362084D01*
X88490271Y-66253508D01*
X88490272Y-66253505D01*
X88509571Y-66217399D01*
X88543756Y-66153443D01*
X88615736Y-66065736D01*
X88703443Y-65993756D01*
X88767399Y-65959571D01*
X88803505Y-65940272D01*
X88803508Y-65940271D01*
X88912084Y-65907334D01*
X88996702Y-65899000D01*
X89903298Y-65899000D01*
X89987916Y-65907334D01*
G37*
G36*
X123506564Y-64439389D02*
G01*
X123697833Y-64518615D01*
X123697835Y-64518616D01*
X123869973Y-64633635D01*
X124016365Y-64780027D01*
X124131385Y-64952167D01*
X124210611Y-65143436D01*
X124251000Y-65346484D01*
X124251000Y-65553516D01*
X124210611Y-65756564D01*
X124151612Y-65899000D01*
X124131384Y-65947835D01*
X124016365Y-66119973D01*
X123869973Y-66266365D01*
X123697835Y-66381384D01*
X123697834Y-66381385D01*
X123697833Y-66381385D01*
X123506564Y-66460611D01*
X123303516Y-66501000D01*
X123096484Y-66501000D01*
X122893436Y-66460611D01*
X122702167Y-66381385D01*
X122702166Y-66381385D01*
X122702165Y-66381384D01*
X122530027Y-66266365D01*
X122383635Y-66119973D01*
X122268616Y-65947835D01*
X122248388Y-65899000D01*
X122189389Y-65756564D01*
X122149000Y-65553516D01*
X122149000Y-65346484D01*
X122189389Y-65143436D01*
X122268615Y-64952167D01*
X122383635Y-64780027D01*
X122530027Y-64633635D01*
X122702165Y-64518616D01*
X122702167Y-64518615D01*
X122893436Y-64439389D01*
X123096484Y-64399000D01*
X123303516Y-64399000D01*
X123506564Y-64439389D01*
G37*
G36*
X115006564Y-64439389D02*
G01*
X115197833Y-64518615D01*
X115197835Y-64518616D01*
X115369973Y-64633635D01*
X115516365Y-64780027D01*
X115631385Y-64952167D01*
X115710611Y-65143436D01*
X115751000Y-65346484D01*
X115751000Y-65553516D01*
X115710611Y-65756564D01*
X115651612Y-65899000D01*
X115631384Y-65947835D01*
X115516365Y-66119973D01*
X115369973Y-66266365D01*
X115197835Y-66381384D01*
X115197834Y-66381385D01*
X115197833Y-66381385D01*
X115006564Y-66460611D01*
X114803516Y-66501000D01*
X114596484Y-66501000D01*
X114393436Y-66460611D01*
X114202167Y-66381385D01*
X114202166Y-66381385D01*
X114202165Y-66381384D01*
X114030027Y-66266365D01*
X113883635Y-66119973D01*
X113768616Y-65947835D01*
X113748388Y-65899000D01*
X113689389Y-65756564D01*
X113649000Y-65553516D01*
X113649000Y-65346484D01*
X113689389Y-65143436D01*
X113768615Y-64952167D01*
X113883635Y-64780027D01*
X114030027Y-64633635D01*
X114202165Y-64518616D01*
X114202167Y-64518615D01*
X114393436Y-64439389D01*
X114596484Y-64399000D01*
X114803516Y-64399000D01*
X115006564Y-64439389D01*
G37*
G36*
X130006564Y-64439389D02*
G01*
X130197833Y-64518615D01*
X130197835Y-64518616D01*
X130369973Y-64633635D01*
X130516365Y-64780027D01*
X130631385Y-64952167D01*
X130710611Y-65143436D01*
X130751000Y-65346484D01*
X130751000Y-65553516D01*
X130710611Y-65756564D01*
X130651612Y-65899000D01*
X130631384Y-65947835D01*
X130516365Y-66119973D01*
X130369973Y-66266365D01*
X130197835Y-66381384D01*
X130197834Y-66381385D01*
X130197833Y-66381385D01*
X130006564Y-66460611D01*
X129803516Y-66501000D01*
X129596484Y-66501000D01*
X129393436Y-66460611D01*
X129202167Y-66381385D01*
X129202166Y-66381385D01*
X129202165Y-66381384D01*
X129030027Y-66266365D01*
X128883635Y-66119973D01*
X128768616Y-65947835D01*
X128748388Y-65899000D01*
X128689389Y-65756564D01*
X128649000Y-65553516D01*
X128649000Y-65346484D01*
X128689389Y-65143436D01*
X128768615Y-64952167D01*
X128883635Y-64780027D01*
X129030027Y-64633635D01*
X129202165Y-64518616D01*
X129202167Y-64518615D01*
X129393436Y-64439389D01*
X129596484Y-64399000D01*
X129803516Y-64399000D01*
X130006564Y-64439389D01*
G37*
G36*
X108506564Y-64439389D02*
G01*
X108697833Y-64518615D01*
X108697835Y-64518616D01*
X108869973Y-64633635D01*
X109016365Y-64780027D01*
X109131385Y-64952167D01*
X109210611Y-65143436D01*
X109251000Y-65346484D01*
X109251000Y-65553516D01*
X109210611Y-65756564D01*
X109151612Y-65899000D01*
X109131384Y-65947835D01*
X109016365Y-66119973D01*
X108869973Y-66266365D01*
X108697835Y-66381384D01*
X108697834Y-66381385D01*
X108697833Y-66381385D01*
X108506564Y-66460611D01*
X108303516Y-66501000D01*
X108096484Y-66501000D01*
X107893436Y-66460611D01*
X107702167Y-66381385D01*
X107702166Y-66381385D01*
X107702165Y-66381384D01*
X107530027Y-66266365D01*
X107383635Y-66119973D01*
X107268616Y-65947835D01*
X107248388Y-65899000D01*
X107189389Y-65756564D01*
X107149000Y-65553516D01*
X107149000Y-65346484D01*
X107189389Y-65143436D01*
X107268615Y-64952167D01*
X107383635Y-64780027D01*
X107530027Y-64633635D01*
X107702165Y-64518616D01*
X107702167Y-64518615D01*
X107893436Y-64439389D01*
X108096484Y-64399000D01*
X108303516Y-64399000D01*
X108506564Y-64439389D01*
G37*
G36*
X115006564Y-59939389D02*
G01*
X115197833Y-60018615D01*
X115197835Y-60018616D01*
X115369973Y-60133635D01*
X115516365Y-60280027D01*
X115631385Y-60452167D01*
X115710611Y-60643436D01*
X115751000Y-60846484D01*
X115751000Y-61053516D01*
X115710611Y-61256564D01*
X115631385Y-61447833D01*
X115631384Y-61447835D01*
X115516365Y-61619973D01*
X115369973Y-61766365D01*
X115197835Y-61881384D01*
X115197834Y-61881385D01*
X115197833Y-61881385D01*
X115006564Y-61960611D01*
X114803516Y-62001000D01*
X114596484Y-62001000D01*
X114393436Y-61960611D01*
X114202167Y-61881385D01*
X114202166Y-61881385D01*
X114202165Y-61881384D01*
X114030027Y-61766365D01*
X113883635Y-61619973D01*
X113768616Y-61447835D01*
X113768615Y-61447833D01*
X113689389Y-61256564D01*
X113649000Y-61053516D01*
X113649000Y-60846484D01*
X113689389Y-60643436D01*
X113768615Y-60452167D01*
X113883635Y-60280027D01*
X114030027Y-60133635D01*
X114202165Y-60018616D01*
X114202167Y-60018615D01*
X114393436Y-59939389D01*
X114596484Y-59899000D01*
X114803516Y-59899000D01*
X115006564Y-59939389D01*
G37*
G36*
X130006564Y-59939389D02*
G01*
X130197833Y-60018615D01*
X130197835Y-60018616D01*
X130369973Y-60133635D01*
X130516365Y-60280027D01*
X130631385Y-60452167D01*
X130710611Y-60643436D01*
X130751000Y-60846484D01*
X130751000Y-61053516D01*
X130710611Y-61256564D01*
X130631385Y-61447833D01*
X130631384Y-61447835D01*
X130516365Y-61619973D01*
X130369973Y-61766365D01*
X130197835Y-61881384D01*
X130197834Y-61881385D01*
X130197833Y-61881385D01*
X130006564Y-61960611D01*
X129803516Y-62001000D01*
X129596484Y-62001000D01*
X129393436Y-61960611D01*
X129202167Y-61881385D01*
X129202166Y-61881385D01*
X129202165Y-61881384D01*
X129030027Y-61766365D01*
X128883635Y-61619973D01*
X128768616Y-61447835D01*
X128768615Y-61447833D01*
X128689389Y-61256564D01*
X128649000Y-61053516D01*
X128649000Y-60846484D01*
X128689389Y-60643436D01*
X128768615Y-60452167D01*
X128883635Y-60280027D01*
X129030027Y-60133635D01*
X129202165Y-60018616D01*
X129202167Y-60018615D01*
X129393436Y-59939389D01*
X129596484Y-59899000D01*
X129803516Y-59899000D01*
X130006564Y-59939389D01*
G37*
G36*
X123506564Y-59939389D02*
G01*
X123697833Y-60018615D01*
X123697835Y-60018616D01*
X123869973Y-60133635D01*
X124016365Y-60280027D01*
X124131385Y-60452167D01*
X124210611Y-60643436D01*
X124251000Y-60846484D01*
X124251000Y-61053516D01*
X124210611Y-61256564D01*
X124131385Y-61447833D01*
X124131384Y-61447835D01*
X124016365Y-61619973D01*
X123869973Y-61766365D01*
X123697835Y-61881384D01*
X123697834Y-61881385D01*
X123697833Y-61881385D01*
X123506564Y-61960611D01*
X123303516Y-62001000D01*
X123096484Y-62001000D01*
X122893436Y-61960611D01*
X122702167Y-61881385D01*
X122702166Y-61881385D01*
X122702165Y-61881384D01*
X122530027Y-61766365D01*
X122383635Y-61619973D01*
X122268616Y-61447835D01*
X122268615Y-61447833D01*
X122189389Y-61256564D01*
X122149000Y-61053516D01*
X122149000Y-60846484D01*
X122189389Y-60643436D01*
X122268615Y-60452167D01*
X122383635Y-60280027D01*
X122530027Y-60133635D01*
X122702165Y-60018616D01*
X122702167Y-60018615D01*
X122893436Y-59939389D01*
X123096484Y-59899000D01*
X123303516Y-59899000D01*
X123506564Y-59939389D01*
G37*
G36*
X108506564Y-59939389D02*
G01*
X108697833Y-60018615D01*
X108697835Y-60018616D01*
X108869973Y-60133635D01*
X109016365Y-60280027D01*
X109131385Y-60452167D01*
X109210611Y-60643436D01*
X109251000Y-60846484D01*
X109251000Y-61053516D01*
X109210611Y-61256564D01*
X109131385Y-61447833D01*
X109131384Y-61447835D01*
X109016365Y-61619973D01*
X108869973Y-61766365D01*
X108697835Y-61881384D01*
X108697834Y-61881385D01*
X108697833Y-61881385D01*
X108506564Y-61960611D01*
X108303516Y-62001000D01*
X108096484Y-62001000D01*
X107893436Y-61960611D01*
X107702167Y-61881385D01*
X107702166Y-61881385D01*
X107702165Y-61881384D01*
X107530027Y-61766365D01*
X107383635Y-61619973D01*
X107268616Y-61447835D01*
X107268615Y-61447833D01*
X107189389Y-61256564D01*
X107149000Y-61053516D01*
X107149000Y-60846484D01*
X107189389Y-60643436D01*
X107268615Y-60452167D01*
X107383635Y-60280027D01*
X107530027Y-60133635D01*
X107702165Y-60018616D01*
X107702167Y-60018615D01*
X107893436Y-59939389D01*
X108096484Y-59899000D01*
X108303516Y-59899000D01*
X108506564Y-59939389D01*
G37*
M02*
