M48
; DRILL file {KiCad (5.1.5)-3} date 2020-08-03 1:27:22 AM
; FORMAT={-:-/ absolute / inch / decimal}
; #@! TF.CreationDate,2020-08-03T01:27:22-04:00
; #@! TF.GenerationSoftware,Kicad,Pcbnew,(5.1.5)-3
; #@! TF.FileFunction,Plated,1,4,PTH
FMAT,2
INCH
T1C0.0157
T2C0.0236
T3C0.0394
%
G90
G05
T1
X5.6713Y-4.6083
X6.1043Y-4.4567
X6.1673Y-4.4488
X6.1791Y-4.6575
X6.1909Y-4.7795
X6.2382Y-4.7815
X6.3957Y-4.2992
X6.5472Y-4.3996
X6.5472Y-4.4469
X6.7835Y-4.3012
X6.8287Y-4.6969
X6.9429Y-4.3996
T2
X5.4626Y-4.4724
X5.6772Y-4.5
X5.9587Y-4.5295
X5.9587Y-4.5906
X6.0531Y-4.4409
X6.1654Y-4.6161
X6.1772Y-4.563
X6.2126Y-4.2933
X6.4035Y-4.3976
X6.4075Y-4.4508
X6.5591Y-4.3012
X6.6732Y-4.6949
X6.7972Y-4.3996
X6.8228Y-4.5984
X6.8642Y-4.2146
X6.9528Y-4.3012
T3
X5.748Y-4.0984
X5.848Y-4.0984
X5.948Y-4.0984
X6.048Y-4.0984
X5.4866Y-4.5512
X5.4866Y-4.6512
X5.4866Y-4.7512
X5.5866Y-4.5512
X5.5866Y-4.6512
X5.5866Y-4.7512
X5.9449Y-4.9705
X6.0449Y-4.9705
X6.1449Y-4.9705
X6.2449Y-4.9705
X6.3449Y-4.9705
X6.4449Y-4.9705
X6.5449Y-4.9705
X6.6449Y-4.9705
X6.7449Y-4.9705
X6.5571Y-4.1181
X6.6571Y-4.1181
X6.7571Y-4.1181
X6.8571Y-4.1181
X5.4941Y-4.2835
X5.4941Y-4.3835
T0
M30
