G04 #@! TF.GenerationSoftware,KiCad,Pcbnew,(5.1.5)-3*
G04 #@! TF.CreationDate,2020-08-03T01:27:48-04:00*
G04 #@! TF.ProjectId,Arduino Clone,41726475-696e-46f2-9043-6c6f6e652e6b,rev?*
G04 #@! TF.SameCoordinates,Original*
G04 #@! TF.FileFunction,Paste,Top*
G04 #@! TF.FilePolarity,Positive*
%FSLAX46Y46*%
G04 Gerber Fmt 4.6, Leading zero omitted, Abs format (unit mm)*
G04 Created by KiCad (PCBNEW (5.1.5)-3) date 2020-08-03 01:27:48*
%MOMM*%
%LPD*%
G04 APERTURE LIST*
%ADD10C,0.100000*%
%ADD11R,1.750000X0.550000*%
%ADD12R,1.700000X0.650000*%
%ADD13R,0.550000X1.500000*%
%ADD14R,1.500000X0.550000*%
%ADD15R,1.800000X1.000000*%
%ADD16R,2.400000X3.500000*%
G04 APERTURE END LIST*
D10*
G36*
X143374505Y-125951204D02*
G01*
X143398773Y-125954804D01*
X143422572Y-125960765D01*
X143445671Y-125969030D01*
X143467850Y-125979520D01*
X143488893Y-125992132D01*
X143508599Y-126006747D01*
X143526777Y-126023223D01*
X143543253Y-126041401D01*
X143557868Y-126061107D01*
X143570480Y-126082150D01*
X143580970Y-126104329D01*
X143589235Y-126127428D01*
X143595196Y-126151227D01*
X143598796Y-126175495D01*
X143600000Y-126199999D01*
X143600000Y-126850001D01*
X143598796Y-126874505D01*
X143595196Y-126898773D01*
X143589235Y-126922572D01*
X143580970Y-126945671D01*
X143570480Y-126967850D01*
X143557868Y-126988893D01*
X143543253Y-127008599D01*
X143526777Y-127026777D01*
X143508599Y-127043253D01*
X143488893Y-127057868D01*
X143467850Y-127070480D01*
X143445671Y-127080970D01*
X143422572Y-127089235D01*
X143398773Y-127095196D01*
X143374505Y-127098796D01*
X143350001Y-127100000D01*
X142449999Y-127100000D01*
X142425495Y-127098796D01*
X142401227Y-127095196D01*
X142377428Y-127089235D01*
X142354329Y-127080970D01*
X142332150Y-127070480D01*
X142311107Y-127057868D01*
X142291401Y-127043253D01*
X142273223Y-127026777D01*
X142256747Y-127008599D01*
X142242132Y-126988893D01*
X142229520Y-126967850D01*
X142219030Y-126945671D01*
X142210765Y-126922572D01*
X142204804Y-126898773D01*
X142201204Y-126874505D01*
X142200000Y-126850001D01*
X142200000Y-126199999D01*
X142201204Y-126175495D01*
X142204804Y-126151227D01*
X142210765Y-126127428D01*
X142219030Y-126104329D01*
X142229520Y-126082150D01*
X142242132Y-126061107D01*
X142256747Y-126041401D01*
X142273223Y-126023223D01*
X142291401Y-126006747D01*
X142311107Y-125992132D01*
X142332150Y-125979520D01*
X142354329Y-125969030D01*
X142377428Y-125960765D01*
X142401227Y-125954804D01*
X142425495Y-125951204D01*
X142449999Y-125950000D01*
X143350001Y-125950000D01*
X143374505Y-125951204D01*
G37*
G36*
X143374505Y-123901204D02*
G01*
X143398773Y-123904804D01*
X143422572Y-123910765D01*
X143445671Y-123919030D01*
X143467850Y-123929520D01*
X143488893Y-123942132D01*
X143508599Y-123956747D01*
X143526777Y-123973223D01*
X143543253Y-123991401D01*
X143557868Y-124011107D01*
X143570480Y-124032150D01*
X143580970Y-124054329D01*
X143589235Y-124077428D01*
X143595196Y-124101227D01*
X143598796Y-124125495D01*
X143600000Y-124149999D01*
X143600000Y-124800001D01*
X143598796Y-124824505D01*
X143595196Y-124848773D01*
X143589235Y-124872572D01*
X143580970Y-124895671D01*
X143570480Y-124917850D01*
X143557868Y-124938893D01*
X143543253Y-124958599D01*
X143526777Y-124976777D01*
X143508599Y-124993253D01*
X143488893Y-125007868D01*
X143467850Y-125020480D01*
X143445671Y-125030970D01*
X143422572Y-125039235D01*
X143398773Y-125045196D01*
X143374505Y-125048796D01*
X143350001Y-125050000D01*
X142449999Y-125050000D01*
X142425495Y-125048796D01*
X142401227Y-125045196D01*
X142377428Y-125039235D01*
X142354329Y-125030970D01*
X142332150Y-125020480D01*
X142311107Y-125007868D01*
X142291401Y-124993253D01*
X142273223Y-124976777D01*
X142256747Y-124958599D01*
X142242132Y-124938893D01*
X142229520Y-124917850D01*
X142219030Y-124895671D01*
X142210765Y-124872572D01*
X142204804Y-124848773D01*
X142201204Y-124824505D01*
X142200000Y-124800001D01*
X142200000Y-124149999D01*
X142201204Y-124125495D01*
X142204804Y-124101227D01*
X142210765Y-124077428D01*
X142219030Y-124054329D01*
X142229520Y-124032150D01*
X142242132Y-124011107D01*
X142256747Y-123991401D01*
X142273223Y-123973223D01*
X142291401Y-123956747D01*
X142311107Y-123942132D01*
X142332150Y-123929520D01*
X142354329Y-123919030D01*
X142377428Y-123910765D01*
X142401227Y-123904804D01*
X142425495Y-123901204D01*
X142449999Y-123900000D01*
X143350001Y-123900000D01*
X143374505Y-123901204D01*
G37*
G36*
X145824505Y-125951204D02*
G01*
X145848773Y-125954804D01*
X145872572Y-125960765D01*
X145895671Y-125969030D01*
X145917850Y-125979520D01*
X145938893Y-125992132D01*
X145958599Y-126006747D01*
X145976777Y-126023223D01*
X145993253Y-126041401D01*
X146007868Y-126061107D01*
X146020480Y-126082150D01*
X146030970Y-126104329D01*
X146039235Y-126127428D01*
X146045196Y-126151227D01*
X146048796Y-126175495D01*
X146050000Y-126199999D01*
X146050000Y-126850001D01*
X146048796Y-126874505D01*
X146045196Y-126898773D01*
X146039235Y-126922572D01*
X146030970Y-126945671D01*
X146020480Y-126967850D01*
X146007868Y-126988893D01*
X145993253Y-127008599D01*
X145976777Y-127026777D01*
X145958599Y-127043253D01*
X145938893Y-127057868D01*
X145917850Y-127070480D01*
X145895671Y-127080970D01*
X145872572Y-127089235D01*
X145848773Y-127095196D01*
X145824505Y-127098796D01*
X145800001Y-127100000D01*
X144899999Y-127100000D01*
X144875495Y-127098796D01*
X144851227Y-127095196D01*
X144827428Y-127089235D01*
X144804329Y-127080970D01*
X144782150Y-127070480D01*
X144761107Y-127057868D01*
X144741401Y-127043253D01*
X144723223Y-127026777D01*
X144706747Y-127008599D01*
X144692132Y-126988893D01*
X144679520Y-126967850D01*
X144669030Y-126945671D01*
X144660765Y-126922572D01*
X144654804Y-126898773D01*
X144651204Y-126874505D01*
X144650000Y-126850001D01*
X144650000Y-126199999D01*
X144651204Y-126175495D01*
X144654804Y-126151227D01*
X144660765Y-126127428D01*
X144669030Y-126104329D01*
X144679520Y-126082150D01*
X144692132Y-126061107D01*
X144706747Y-126041401D01*
X144723223Y-126023223D01*
X144741401Y-126006747D01*
X144761107Y-125992132D01*
X144782150Y-125979520D01*
X144804329Y-125969030D01*
X144827428Y-125960765D01*
X144851227Y-125954804D01*
X144875495Y-125951204D01*
X144899999Y-125950000D01*
X145800001Y-125950000D01*
X145824505Y-125951204D01*
G37*
G36*
X145824505Y-123901204D02*
G01*
X145848773Y-123904804D01*
X145872572Y-123910765D01*
X145895671Y-123919030D01*
X145917850Y-123929520D01*
X145938893Y-123942132D01*
X145958599Y-123956747D01*
X145976777Y-123973223D01*
X145993253Y-123991401D01*
X146007868Y-124011107D01*
X146020480Y-124032150D01*
X146030970Y-124054329D01*
X146039235Y-124077428D01*
X146045196Y-124101227D01*
X146048796Y-124125495D01*
X146050000Y-124149999D01*
X146050000Y-124800001D01*
X146048796Y-124824505D01*
X146045196Y-124848773D01*
X146039235Y-124872572D01*
X146030970Y-124895671D01*
X146020480Y-124917850D01*
X146007868Y-124938893D01*
X145993253Y-124958599D01*
X145976777Y-124976777D01*
X145958599Y-124993253D01*
X145938893Y-125007868D01*
X145917850Y-125020480D01*
X145895671Y-125030970D01*
X145872572Y-125039235D01*
X145848773Y-125045196D01*
X145824505Y-125048796D01*
X145800001Y-125050000D01*
X144899999Y-125050000D01*
X144875495Y-125048796D01*
X144851227Y-125045196D01*
X144827428Y-125039235D01*
X144804329Y-125030970D01*
X144782150Y-125020480D01*
X144761107Y-125007868D01*
X144741401Y-124993253D01*
X144723223Y-124976777D01*
X144706747Y-124958599D01*
X144692132Y-124938893D01*
X144679520Y-124917850D01*
X144669030Y-124895671D01*
X144660765Y-124872572D01*
X144654804Y-124848773D01*
X144651204Y-124824505D01*
X144650000Y-124800001D01*
X144650000Y-124149999D01*
X144651204Y-124125495D01*
X144654804Y-124101227D01*
X144660765Y-124077428D01*
X144669030Y-124054329D01*
X144679520Y-124032150D01*
X144692132Y-124011107D01*
X144706747Y-123991401D01*
X144723223Y-123973223D01*
X144741401Y-123956747D01*
X144761107Y-123942132D01*
X144782150Y-123929520D01*
X144804329Y-123919030D01*
X144827428Y-123910765D01*
X144851227Y-123904804D01*
X144875495Y-123901204D01*
X144899999Y-123900000D01*
X145800001Y-123900000D01*
X145824505Y-123901204D01*
G37*
G36*
X143474505Y-108451204D02*
G01*
X143498773Y-108454804D01*
X143522572Y-108460765D01*
X143545671Y-108469030D01*
X143567850Y-108479520D01*
X143588893Y-108492132D01*
X143608599Y-108506747D01*
X143626777Y-108523223D01*
X143643253Y-108541401D01*
X143657868Y-108561107D01*
X143670480Y-108582150D01*
X143680970Y-108604329D01*
X143689235Y-108627428D01*
X143695196Y-108651227D01*
X143698796Y-108675495D01*
X143700000Y-108699999D01*
X143700000Y-109350001D01*
X143698796Y-109374505D01*
X143695196Y-109398773D01*
X143689235Y-109422572D01*
X143680970Y-109445671D01*
X143670480Y-109467850D01*
X143657868Y-109488893D01*
X143643253Y-109508599D01*
X143626777Y-109526777D01*
X143608599Y-109543253D01*
X143588893Y-109557868D01*
X143567850Y-109570480D01*
X143545671Y-109580970D01*
X143522572Y-109589235D01*
X143498773Y-109595196D01*
X143474505Y-109598796D01*
X143450001Y-109600000D01*
X142549999Y-109600000D01*
X142525495Y-109598796D01*
X142501227Y-109595196D01*
X142477428Y-109589235D01*
X142454329Y-109580970D01*
X142432150Y-109570480D01*
X142411107Y-109557868D01*
X142391401Y-109543253D01*
X142373223Y-109526777D01*
X142356747Y-109508599D01*
X142342132Y-109488893D01*
X142329520Y-109467850D01*
X142319030Y-109445671D01*
X142310765Y-109422572D01*
X142304804Y-109398773D01*
X142301204Y-109374505D01*
X142300000Y-109350001D01*
X142300000Y-108699999D01*
X142301204Y-108675495D01*
X142304804Y-108651227D01*
X142310765Y-108627428D01*
X142319030Y-108604329D01*
X142329520Y-108582150D01*
X142342132Y-108561107D01*
X142356747Y-108541401D01*
X142373223Y-108523223D01*
X142391401Y-108506747D01*
X142411107Y-108492132D01*
X142432150Y-108479520D01*
X142454329Y-108469030D01*
X142477428Y-108460765D01*
X142501227Y-108454804D01*
X142525495Y-108451204D01*
X142549999Y-108450000D01*
X143450001Y-108450000D01*
X143474505Y-108451204D01*
G37*
G36*
X143474505Y-110501204D02*
G01*
X143498773Y-110504804D01*
X143522572Y-110510765D01*
X143545671Y-110519030D01*
X143567850Y-110529520D01*
X143588893Y-110542132D01*
X143608599Y-110556747D01*
X143626777Y-110573223D01*
X143643253Y-110591401D01*
X143657868Y-110611107D01*
X143670480Y-110632150D01*
X143680970Y-110654329D01*
X143689235Y-110677428D01*
X143695196Y-110701227D01*
X143698796Y-110725495D01*
X143700000Y-110749999D01*
X143700000Y-111400001D01*
X143698796Y-111424505D01*
X143695196Y-111448773D01*
X143689235Y-111472572D01*
X143680970Y-111495671D01*
X143670480Y-111517850D01*
X143657868Y-111538893D01*
X143643253Y-111558599D01*
X143626777Y-111576777D01*
X143608599Y-111593253D01*
X143588893Y-111607868D01*
X143567850Y-111620480D01*
X143545671Y-111630970D01*
X143522572Y-111639235D01*
X143498773Y-111645196D01*
X143474505Y-111648796D01*
X143450001Y-111650000D01*
X142549999Y-111650000D01*
X142525495Y-111648796D01*
X142501227Y-111645196D01*
X142477428Y-111639235D01*
X142454329Y-111630970D01*
X142432150Y-111620480D01*
X142411107Y-111607868D01*
X142391401Y-111593253D01*
X142373223Y-111576777D01*
X142356747Y-111558599D01*
X142342132Y-111538893D01*
X142329520Y-111517850D01*
X142319030Y-111495671D01*
X142310765Y-111472572D01*
X142304804Y-111448773D01*
X142301204Y-111424505D01*
X142300000Y-111400001D01*
X142300000Y-110749999D01*
X142301204Y-110725495D01*
X142304804Y-110701227D01*
X142310765Y-110677428D01*
X142319030Y-110654329D01*
X142329520Y-110632150D01*
X142342132Y-110611107D01*
X142356747Y-110591401D01*
X142373223Y-110573223D01*
X142391401Y-110556747D01*
X142411107Y-110542132D01*
X142432150Y-110529520D01*
X142454329Y-110519030D01*
X142477428Y-110510765D01*
X142501227Y-110504804D01*
X142525495Y-110501204D01*
X142549999Y-110500000D01*
X143450001Y-110500000D01*
X143474505Y-110501204D01*
G37*
G36*
X162724505Y-117601204D02*
G01*
X162748773Y-117604804D01*
X162772572Y-117610765D01*
X162795671Y-117619030D01*
X162817850Y-117629520D01*
X162838893Y-117642132D01*
X162858599Y-117656747D01*
X162876777Y-117673223D01*
X162893253Y-117691401D01*
X162907868Y-117711107D01*
X162920480Y-117732150D01*
X162930970Y-117754329D01*
X162939235Y-117777428D01*
X162945196Y-117801227D01*
X162948796Y-117825495D01*
X162950000Y-117849999D01*
X162950000Y-118750001D01*
X162948796Y-118774505D01*
X162945196Y-118798773D01*
X162939235Y-118822572D01*
X162930970Y-118845671D01*
X162920480Y-118867850D01*
X162907868Y-118888893D01*
X162893253Y-118908599D01*
X162876777Y-118926777D01*
X162858599Y-118943253D01*
X162838893Y-118957868D01*
X162817850Y-118970480D01*
X162795671Y-118980970D01*
X162772572Y-118989235D01*
X162748773Y-118995196D01*
X162724505Y-118998796D01*
X162700001Y-119000000D01*
X162049999Y-119000000D01*
X162025495Y-118998796D01*
X162001227Y-118995196D01*
X161977428Y-118989235D01*
X161954329Y-118980970D01*
X161932150Y-118970480D01*
X161911107Y-118957868D01*
X161891401Y-118943253D01*
X161873223Y-118926777D01*
X161856747Y-118908599D01*
X161842132Y-118888893D01*
X161829520Y-118867850D01*
X161819030Y-118845671D01*
X161810765Y-118822572D01*
X161804804Y-118798773D01*
X161801204Y-118774505D01*
X161800000Y-118750001D01*
X161800000Y-117849999D01*
X161801204Y-117825495D01*
X161804804Y-117801227D01*
X161810765Y-117777428D01*
X161819030Y-117754329D01*
X161829520Y-117732150D01*
X161842132Y-117711107D01*
X161856747Y-117691401D01*
X161873223Y-117673223D01*
X161891401Y-117656747D01*
X161911107Y-117642132D01*
X161932150Y-117629520D01*
X161954329Y-117619030D01*
X161977428Y-117610765D01*
X162001227Y-117604804D01*
X162025495Y-117601204D01*
X162049999Y-117600000D01*
X162700001Y-117600000D01*
X162724505Y-117601204D01*
G37*
G36*
X160674505Y-117601204D02*
G01*
X160698773Y-117604804D01*
X160722572Y-117610765D01*
X160745671Y-117619030D01*
X160767850Y-117629520D01*
X160788893Y-117642132D01*
X160808599Y-117656747D01*
X160826777Y-117673223D01*
X160843253Y-117691401D01*
X160857868Y-117711107D01*
X160870480Y-117732150D01*
X160880970Y-117754329D01*
X160889235Y-117777428D01*
X160895196Y-117801227D01*
X160898796Y-117825495D01*
X160900000Y-117849999D01*
X160900000Y-118750001D01*
X160898796Y-118774505D01*
X160895196Y-118798773D01*
X160889235Y-118822572D01*
X160880970Y-118845671D01*
X160870480Y-118867850D01*
X160857868Y-118888893D01*
X160843253Y-118908599D01*
X160826777Y-118926777D01*
X160808599Y-118943253D01*
X160788893Y-118957868D01*
X160767850Y-118970480D01*
X160745671Y-118980970D01*
X160722572Y-118989235D01*
X160698773Y-118995196D01*
X160674505Y-118998796D01*
X160650001Y-119000000D01*
X159999999Y-119000000D01*
X159975495Y-118998796D01*
X159951227Y-118995196D01*
X159927428Y-118989235D01*
X159904329Y-118980970D01*
X159882150Y-118970480D01*
X159861107Y-118957868D01*
X159841401Y-118943253D01*
X159823223Y-118926777D01*
X159806747Y-118908599D01*
X159792132Y-118888893D01*
X159779520Y-118867850D01*
X159769030Y-118845671D01*
X159760765Y-118822572D01*
X159754804Y-118798773D01*
X159751204Y-118774505D01*
X159750000Y-118750001D01*
X159750000Y-117849999D01*
X159751204Y-117825495D01*
X159754804Y-117801227D01*
X159760765Y-117777428D01*
X159769030Y-117754329D01*
X159779520Y-117732150D01*
X159792132Y-117711107D01*
X159806747Y-117691401D01*
X159823223Y-117673223D01*
X159841401Y-117656747D01*
X159861107Y-117642132D01*
X159882150Y-117629520D01*
X159904329Y-117619030D01*
X159927428Y-117610765D01*
X159951227Y-117604804D01*
X159975495Y-117601204D01*
X159999999Y-117600000D01*
X160650001Y-117600000D01*
X160674505Y-117601204D01*
G37*
G36*
X160674505Y-119801204D02*
G01*
X160698773Y-119804804D01*
X160722572Y-119810765D01*
X160745671Y-119819030D01*
X160767850Y-119829520D01*
X160788893Y-119842132D01*
X160808599Y-119856747D01*
X160826777Y-119873223D01*
X160843253Y-119891401D01*
X160857868Y-119911107D01*
X160870480Y-119932150D01*
X160880970Y-119954329D01*
X160889235Y-119977428D01*
X160895196Y-120001227D01*
X160898796Y-120025495D01*
X160900000Y-120049999D01*
X160900000Y-120950001D01*
X160898796Y-120974505D01*
X160895196Y-120998773D01*
X160889235Y-121022572D01*
X160880970Y-121045671D01*
X160870480Y-121067850D01*
X160857868Y-121088893D01*
X160843253Y-121108599D01*
X160826777Y-121126777D01*
X160808599Y-121143253D01*
X160788893Y-121157868D01*
X160767850Y-121170480D01*
X160745671Y-121180970D01*
X160722572Y-121189235D01*
X160698773Y-121195196D01*
X160674505Y-121198796D01*
X160650001Y-121200000D01*
X159999999Y-121200000D01*
X159975495Y-121198796D01*
X159951227Y-121195196D01*
X159927428Y-121189235D01*
X159904329Y-121180970D01*
X159882150Y-121170480D01*
X159861107Y-121157868D01*
X159841401Y-121143253D01*
X159823223Y-121126777D01*
X159806747Y-121108599D01*
X159792132Y-121088893D01*
X159779520Y-121067850D01*
X159769030Y-121045671D01*
X159760765Y-121022572D01*
X159754804Y-120998773D01*
X159751204Y-120974505D01*
X159750000Y-120950001D01*
X159750000Y-120049999D01*
X159751204Y-120025495D01*
X159754804Y-120001227D01*
X159760765Y-119977428D01*
X159769030Y-119954329D01*
X159779520Y-119932150D01*
X159792132Y-119911107D01*
X159806747Y-119891401D01*
X159823223Y-119873223D01*
X159841401Y-119856747D01*
X159861107Y-119842132D01*
X159882150Y-119829520D01*
X159904329Y-119819030D01*
X159927428Y-119810765D01*
X159951227Y-119804804D01*
X159975495Y-119801204D01*
X159999999Y-119800000D01*
X160650001Y-119800000D01*
X160674505Y-119801204D01*
G37*
G36*
X162724505Y-119801204D02*
G01*
X162748773Y-119804804D01*
X162772572Y-119810765D01*
X162795671Y-119819030D01*
X162817850Y-119829520D01*
X162838893Y-119842132D01*
X162858599Y-119856747D01*
X162876777Y-119873223D01*
X162893253Y-119891401D01*
X162907868Y-119911107D01*
X162920480Y-119932150D01*
X162930970Y-119954329D01*
X162939235Y-119977428D01*
X162945196Y-120001227D01*
X162948796Y-120025495D01*
X162950000Y-120049999D01*
X162950000Y-120950001D01*
X162948796Y-120974505D01*
X162945196Y-120998773D01*
X162939235Y-121022572D01*
X162930970Y-121045671D01*
X162920480Y-121067850D01*
X162907868Y-121088893D01*
X162893253Y-121108599D01*
X162876777Y-121126777D01*
X162858599Y-121143253D01*
X162838893Y-121157868D01*
X162817850Y-121170480D01*
X162795671Y-121180970D01*
X162772572Y-121189235D01*
X162748773Y-121195196D01*
X162724505Y-121198796D01*
X162700001Y-121200000D01*
X162049999Y-121200000D01*
X162025495Y-121198796D01*
X162001227Y-121195196D01*
X161977428Y-121189235D01*
X161954329Y-121180970D01*
X161932150Y-121170480D01*
X161911107Y-121157868D01*
X161891401Y-121143253D01*
X161873223Y-121126777D01*
X161856747Y-121108599D01*
X161842132Y-121088893D01*
X161829520Y-121067850D01*
X161819030Y-121045671D01*
X161810765Y-121022572D01*
X161804804Y-120998773D01*
X161801204Y-120974505D01*
X161800000Y-120950001D01*
X161800000Y-120049999D01*
X161801204Y-120025495D01*
X161804804Y-120001227D01*
X161810765Y-119977428D01*
X161819030Y-119954329D01*
X161829520Y-119932150D01*
X161842132Y-119911107D01*
X161856747Y-119891401D01*
X161873223Y-119873223D01*
X161891401Y-119856747D01*
X161911107Y-119842132D01*
X161932150Y-119829520D01*
X161954329Y-119819030D01*
X161977428Y-119810765D01*
X162001227Y-119804804D01*
X162025495Y-119801204D01*
X162049999Y-119800000D01*
X162700001Y-119800000D01*
X162724505Y-119801204D01*
G37*
G36*
X154774505Y-108251204D02*
G01*
X154798773Y-108254804D01*
X154822572Y-108260765D01*
X154845671Y-108269030D01*
X154867850Y-108279520D01*
X154888893Y-108292132D01*
X154908599Y-108306747D01*
X154926777Y-108323223D01*
X154943253Y-108341401D01*
X154957868Y-108361107D01*
X154970480Y-108382150D01*
X154980970Y-108404329D01*
X154989235Y-108427428D01*
X154995196Y-108451227D01*
X154998796Y-108475495D01*
X155000000Y-108499999D01*
X155000000Y-109400001D01*
X154998796Y-109424505D01*
X154995196Y-109448773D01*
X154989235Y-109472572D01*
X154980970Y-109495671D01*
X154970480Y-109517850D01*
X154957868Y-109538893D01*
X154943253Y-109558599D01*
X154926777Y-109576777D01*
X154908599Y-109593253D01*
X154888893Y-109607868D01*
X154867850Y-109620480D01*
X154845671Y-109630970D01*
X154822572Y-109639235D01*
X154798773Y-109645196D01*
X154774505Y-109648796D01*
X154750001Y-109650000D01*
X154099999Y-109650000D01*
X154075495Y-109648796D01*
X154051227Y-109645196D01*
X154027428Y-109639235D01*
X154004329Y-109630970D01*
X153982150Y-109620480D01*
X153961107Y-109607868D01*
X153941401Y-109593253D01*
X153923223Y-109576777D01*
X153906747Y-109558599D01*
X153892132Y-109538893D01*
X153879520Y-109517850D01*
X153869030Y-109495671D01*
X153860765Y-109472572D01*
X153854804Y-109448773D01*
X153851204Y-109424505D01*
X153850000Y-109400001D01*
X153850000Y-108499999D01*
X153851204Y-108475495D01*
X153854804Y-108451227D01*
X153860765Y-108427428D01*
X153869030Y-108404329D01*
X153879520Y-108382150D01*
X153892132Y-108361107D01*
X153906747Y-108341401D01*
X153923223Y-108323223D01*
X153941401Y-108306747D01*
X153961107Y-108292132D01*
X153982150Y-108279520D01*
X154004329Y-108269030D01*
X154027428Y-108260765D01*
X154051227Y-108254804D01*
X154075495Y-108251204D01*
X154099999Y-108250000D01*
X154750001Y-108250000D01*
X154774505Y-108251204D01*
G37*
G36*
X156824505Y-108251204D02*
G01*
X156848773Y-108254804D01*
X156872572Y-108260765D01*
X156895671Y-108269030D01*
X156917850Y-108279520D01*
X156938893Y-108292132D01*
X156958599Y-108306747D01*
X156976777Y-108323223D01*
X156993253Y-108341401D01*
X157007868Y-108361107D01*
X157020480Y-108382150D01*
X157030970Y-108404329D01*
X157039235Y-108427428D01*
X157045196Y-108451227D01*
X157048796Y-108475495D01*
X157050000Y-108499999D01*
X157050000Y-109400001D01*
X157048796Y-109424505D01*
X157045196Y-109448773D01*
X157039235Y-109472572D01*
X157030970Y-109495671D01*
X157020480Y-109517850D01*
X157007868Y-109538893D01*
X156993253Y-109558599D01*
X156976777Y-109576777D01*
X156958599Y-109593253D01*
X156938893Y-109607868D01*
X156917850Y-109620480D01*
X156895671Y-109630970D01*
X156872572Y-109639235D01*
X156848773Y-109645196D01*
X156824505Y-109648796D01*
X156800001Y-109650000D01*
X156149999Y-109650000D01*
X156125495Y-109648796D01*
X156101227Y-109645196D01*
X156077428Y-109639235D01*
X156054329Y-109630970D01*
X156032150Y-109620480D01*
X156011107Y-109607868D01*
X155991401Y-109593253D01*
X155973223Y-109576777D01*
X155956747Y-109558599D01*
X155942132Y-109538893D01*
X155929520Y-109517850D01*
X155919030Y-109495671D01*
X155910765Y-109472572D01*
X155904804Y-109448773D01*
X155901204Y-109424505D01*
X155900000Y-109400001D01*
X155900000Y-108499999D01*
X155901204Y-108475495D01*
X155904804Y-108451227D01*
X155910765Y-108427428D01*
X155919030Y-108404329D01*
X155929520Y-108382150D01*
X155942132Y-108361107D01*
X155956747Y-108341401D01*
X155973223Y-108323223D01*
X155991401Y-108306747D01*
X156011107Y-108292132D01*
X156032150Y-108279520D01*
X156054329Y-108269030D01*
X156077428Y-108260765D01*
X156101227Y-108254804D01*
X156125495Y-108251204D01*
X156149999Y-108250000D01*
X156800001Y-108250000D01*
X156824505Y-108251204D01*
G37*
D11*
X167700000Y-116745000D03*
X167700000Y-118015000D03*
X167700000Y-119285000D03*
X167700000Y-120555000D03*
X175100000Y-120555000D03*
X175100000Y-119285000D03*
X175100000Y-118015000D03*
X175100000Y-116745000D03*
D12*
X160850000Y-109195000D03*
X160850000Y-110465000D03*
X160850000Y-111735000D03*
X160850000Y-113005000D03*
X168150000Y-113005000D03*
X168150000Y-111735000D03*
X168150000Y-110465000D03*
X168150000Y-109195000D03*
X178050000Y-109195000D03*
X178050000Y-110465000D03*
X178050000Y-111735000D03*
X178050000Y-113005000D03*
X170750000Y-113005000D03*
X170750000Y-111735000D03*
X170750000Y-110465000D03*
X170750000Y-109195000D03*
D13*
X151350000Y-119650000D03*
D14*
X149950000Y-112650000D03*
X149950000Y-113450000D03*
X149950000Y-114250000D03*
X149950000Y-115050000D03*
X149950000Y-115850000D03*
X149950000Y-116650000D03*
X149950000Y-117450000D03*
X149950000Y-118250000D03*
D13*
X152150000Y-119650000D03*
X152950000Y-119650000D03*
X153750000Y-119650000D03*
X154550000Y-119650000D03*
X155350000Y-119650000D03*
X156150000Y-119650000D03*
X156950000Y-119650000D03*
D14*
X158350000Y-118250000D03*
X158350000Y-117450000D03*
X158350000Y-116650000D03*
X158350000Y-115850000D03*
X158350000Y-115050000D03*
X158350000Y-114250000D03*
X158350000Y-113450000D03*
X158350000Y-112650000D03*
D13*
X156950000Y-111250000D03*
X156150000Y-111250000D03*
X155350000Y-111250000D03*
X154550000Y-111250000D03*
X153750000Y-111250000D03*
X152950000Y-111250000D03*
X152150000Y-111250000D03*
X151350000Y-111250000D03*
D15*
X164550000Y-118500000D03*
X164550000Y-116000000D03*
D16*
X146450000Y-120600000D03*
X146450000Y-115400000D03*
M02*
