G04 #@! TF.GenerationSoftware,KiCad,Pcbnew,(5.1.5)-3*
G04 #@! TF.CreationDate,2020-08-03T01:27:49-04:00*
G04 #@! TF.ProjectId,Arduino Clone,41726475-696e-46f2-9043-6c6f6e652e6b,rev?*
G04 #@! TF.SameCoordinates,Original*
G04 #@! TF.FileFunction,Soldermask,Bot*
G04 #@! TF.FilePolarity,Negative*
%FSLAX46Y46*%
G04 Gerber Fmt 4.6, Leading zero omitted, Abs format (unit mm)*
G04 Created by KiCad (PCBNEW (5.1.5)-3) date 2020-08-03 01:27:49*
%MOMM*%
%LPD*%
G04 APERTURE LIST*
%ADD10C,0.100000*%
G04 APERTURE END LIST*
D10*
G36*
X171433512Y-125353927D02*
G01*
X171582812Y-125383624D01*
X171746784Y-125451544D01*
X171894354Y-125550147D01*
X172019853Y-125675646D01*
X172118456Y-125823216D01*
X172186376Y-125987188D01*
X172221000Y-126161259D01*
X172221000Y-126338741D01*
X172186376Y-126512812D01*
X172118456Y-126676784D01*
X172019853Y-126824354D01*
X171894354Y-126949853D01*
X171746784Y-127048456D01*
X171582812Y-127116376D01*
X171433512Y-127146073D01*
X171408742Y-127151000D01*
X171231258Y-127151000D01*
X171206488Y-127146073D01*
X171057188Y-127116376D01*
X170893216Y-127048456D01*
X170745646Y-126949853D01*
X170620147Y-126824354D01*
X170521544Y-126676784D01*
X170453624Y-126512812D01*
X170419000Y-126338741D01*
X170419000Y-126161259D01*
X170453624Y-125987188D01*
X170521544Y-125823216D01*
X170620147Y-125675646D01*
X170745646Y-125550147D01*
X170893216Y-125451544D01*
X171057188Y-125383624D01*
X171206488Y-125353927D01*
X171231258Y-125349000D01*
X171408742Y-125349000D01*
X171433512Y-125353927D01*
G37*
G36*
X166353512Y-125353927D02*
G01*
X166502812Y-125383624D01*
X166666784Y-125451544D01*
X166814354Y-125550147D01*
X166939853Y-125675646D01*
X167038456Y-125823216D01*
X167106376Y-125987188D01*
X167141000Y-126161259D01*
X167141000Y-126338741D01*
X167106376Y-126512812D01*
X167038456Y-126676784D01*
X166939853Y-126824354D01*
X166814354Y-126949853D01*
X166666784Y-127048456D01*
X166502812Y-127116376D01*
X166353512Y-127146073D01*
X166328742Y-127151000D01*
X166151258Y-127151000D01*
X166126488Y-127146073D01*
X165977188Y-127116376D01*
X165813216Y-127048456D01*
X165665646Y-126949853D01*
X165540147Y-126824354D01*
X165441544Y-126676784D01*
X165373624Y-126512812D01*
X165339000Y-126338741D01*
X165339000Y-126161259D01*
X165373624Y-125987188D01*
X165441544Y-125823216D01*
X165540147Y-125675646D01*
X165665646Y-125550147D01*
X165813216Y-125451544D01*
X165977188Y-125383624D01*
X166126488Y-125353927D01*
X166151258Y-125349000D01*
X166328742Y-125349000D01*
X166353512Y-125353927D01*
G37*
G36*
X163813512Y-125353927D02*
G01*
X163962812Y-125383624D01*
X164126784Y-125451544D01*
X164274354Y-125550147D01*
X164399853Y-125675646D01*
X164498456Y-125823216D01*
X164566376Y-125987188D01*
X164601000Y-126161259D01*
X164601000Y-126338741D01*
X164566376Y-126512812D01*
X164498456Y-126676784D01*
X164399853Y-126824354D01*
X164274354Y-126949853D01*
X164126784Y-127048456D01*
X163962812Y-127116376D01*
X163813512Y-127146073D01*
X163788742Y-127151000D01*
X163611258Y-127151000D01*
X163586488Y-127146073D01*
X163437188Y-127116376D01*
X163273216Y-127048456D01*
X163125646Y-126949853D01*
X163000147Y-126824354D01*
X162901544Y-126676784D01*
X162833624Y-126512812D01*
X162799000Y-126338741D01*
X162799000Y-126161259D01*
X162833624Y-125987188D01*
X162901544Y-125823216D01*
X163000147Y-125675646D01*
X163125646Y-125550147D01*
X163273216Y-125451544D01*
X163437188Y-125383624D01*
X163586488Y-125353927D01*
X163611258Y-125349000D01*
X163788742Y-125349000D01*
X163813512Y-125353927D01*
G37*
G36*
X161273512Y-125353927D02*
G01*
X161422812Y-125383624D01*
X161586784Y-125451544D01*
X161734354Y-125550147D01*
X161859853Y-125675646D01*
X161958456Y-125823216D01*
X162026376Y-125987188D01*
X162061000Y-126161259D01*
X162061000Y-126338741D01*
X162026376Y-126512812D01*
X161958456Y-126676784D01*
X161859853Y-126824354D01*
X161734354Y-126949853D01*
X161586784Y-127048456D01*
X161422812Y-127116376D01*
X161273512Y-127146073D01*
X161248742Y-127151000D01*
X161071258Y-127151000D01*
X161046488Y-127146073D01*
X160897188Y-127116376D01*
X160733216Y-127048456D01*
X160585646Y-126949853D01*
X160460147Y-126824354D01*
X160361544Y-126676784D01*
X160293624Y-126512812D01*
X160259000Y-126338741D01*
X160259000Y-126161259D01*
X160293624Y-125987188D01*
X160361544Y-125823216D01*
X160460147Y-125675646D01*
X160585646Y-125550147D01*
X160733216Y-125451544D01*
X160897188Y-125383624D01*
X161046488Y-125353927D01*
X161071258Y-125349000D01*
X161248742Y-125349000D01*
X161273512Y-125353927D01*
G37*
G36*
X158733512Y-125353927D02*
G01*
X158882812Y-125383624D01*
X159046784Y-125451544D01*
X159194354Y-125550147D01*
X159319853Y-125675646D01*
X159418456Y-125823216D01*
X159486376Y-125987188D01*
X159521000Y-126161259D01*
X159521000Y-126338741D01*
X159486376Y-126512812D01*
X159418456Y-126676784D01*
X159319853Y-126824354D01*
X159194354Y-126949853D01*
X159046784Y-127048456D01*
X158882812Y-127116376D01*
X158733512Y-127146073D01*
X158708742Y-127151000D01*
X158531258Y-127151000D01*
X158506488Y-127146073D01*
X158357188Y-127116376D01*
X158193216Y-127048456D01*
X158045646Y-126949853D01*
X157920147Y-126824354D01*
X157821544Y-126676784D01*
X157753624Y-126512812D01*
X157719000Y-126338741D01*
X157719000Y-126161259D01*
X157753624Y-125987188D01*
X157821544Y-125823216D01*
X157920147Y-125675646D01*
X158045646Y-125550147D01*
X158193216Y-125451544D01*
X158357188Y-125383624D01*
X158506488Y-125353927D01*
X158531258Y-125349000D01*
X158708742Y-125349000D01*
X158733512Y-125353927D01*
G37*
G36*
X156193512Y-125353927D02*
G01*
X156342812Y-125383624D01*
X156506784Y-125451544D01*
X156654354Y-125550147D01*
X156779853Y-125675646D01*
X156878456Y-125823216D01*
X156946376Y-125987188D01*
X156981000Y-126161259D01*
X156981000Y-126338741D01*
X156946376Y-126512812D01*
X156878456Y-126676784D01*
X156779853Y-126824354D01*
X156654354Y-126949853D01*
X156506784Y-127048456D01*
X156342812Y-127116376D01*
X156193512Y-127146073D01*
X156168742Y-127151000D01*
X155991258Y-127151000D01*
X155966488Y-127146073D01*
X155817188Y-127116376D01*
X155653216Y-127048456D01*
X155505646Y-126949853D01*
X155380147Y-126824354D01*
X155281544Y-126676784D01*
X155213624Y-126512812D01*
X155179000Y-126338741D01*
X155179000Y-126161259D01*
X155213624Y-125987188D01*
X155281544Y-125823216D01*
X155380147Y-125675646D01*
X155505646Y-125550147D01*
X155653216Y-125451544D01*
X155817188Y-125383624D01*
X155966488Y-125353927D01*
X155991258Y-125349000D01*
X156168742Y-125349000D01*
X156193512Y-125353927D01*
G37*
G36*
X153653512Y-125353927D02*
G01*
X153802812Y-125383624D01*
X153966784Y-125451544D01*
X154114354Y-125550147D01*
X154239853Y-125675646D01*
X154338456Y-125823216D01*
X154406376Y-125987188D01*
X154441000Y-126161259D01*
X154441000Y-126338741D01*
X154406376Y-126512812D01*
X154338456Y-126676784D01*
X154239853Y-126824354D01*
X154114354Y-126949853D01*
X153966784Y-127048456D01*
X153802812Y-127116376D01*
X153653512Y-127146073D01*
X153628742Y-127151000D01*
X153451258Y-127151000D01*
X153426488Y-127146073D01*
X153277188Y-127116376D01*
X153113216Y-127048456D01*
X152965646Y-126949853D01*
X152840147Y-126824354D01*
X152741544Y-126676784D01*
X152673624Y-126512812D01*
X152639000Y-126338741D01*
X152639000Y-126161259D01*
X152673624Y-125987188D01*
X152741544Y-125823216D01*
X152840147Y-125675646D01*
X152965646Y-125550147D01*
X153113216Y-125451544D01*
X153277188Y-125383624D01*
X153426488Y-125353927D01*
X153451258Y-125349000D01*
X153628742Y-125349000D01*
X153653512Y-125353927D01*
G37*
G36*
X151901000Y-127151000D02*
G01*
X150099000Y-127151000D01*
X150099000Y-125349000D01*
X151901000Y-125349000D01*
X151901000Y-127151000D01*
G37*
G36*
X168893512Y-125353927D02*
G01*
X169042812Y-125383624D01*
X169206784Y-125451544D01*
X169354354Y-125550147D01*
X169479853Y-125675646D01*
X169578456Y-125823216D01*
X169646376Y-125987188D01*
X169681000Y-126161259D01*
X169681000Y-126338741D01*
X169646376Y-126512812D01*
X169578456Y-126676784D01*
X169479853Y-126824354D01*
X169354354Y-126949853D01*
X169206784Y-127048456D01*
X169042812Y-127116376D01*
X168893512Y-127146073D01*
X168868742Y-127151000D01*
X168691258Y-127151000D01*
X168666488Y-127146073D01*
X168517188Y-127116376D01*
X168353216Y-127048456D01*
X168205646Y-126949853D01*
X168080147Y-126824354D01*
X167981544Y-126676784D01*
X167913624Y-126512812D01*
X167879000Y-126338741D01*
X167879000Y-126161259D01*
X167913624Y-125987188D01*
X167981544Y-125823216D01*
X168080147Y-125675646D01*
X168205646Y-125550147D01*
X168353216Y-125451544D01*
X168517188Y-125383624D01*
X168666488Y-125353927D01*
X168691258Y-125349000D01*
X168868742Y-125349000D01*
X168893512Y-125353927D01*
G37*
G36*
X139473512Y-119783927D02*
G01*
X139622812Y-119813624D01*
X139786784Y-119881544D01*
X139934354Y-119980147D01*
X140059853Y-120105646D01*
X140158456Y-120253216D01*
X140226376Y-120417188D01*
X140261000Y-120591259D01*
X140261000Y-120768741D01*
X140226376Y-120942812D01*
X140158456Y-121106784D01*
X140059853Y-121254354D01*
X139934354Y-121379853D01*
X139786784Y-121478456D01*
X139622812Y-121546376D01*
X139473512Y-121576073D01*
X139448742Y-121581000D01*
X139271258Y-121581000D01*
X139246488Y-121576073D01*
X139097188Y-121546376D01*
X138933216Y-121478456D01*
X138785646Y-121379853D01*
X138660147Y-121254354D01*
X138561544Y-121106784D01*
X138493624Y-120942812D01*
X138459000Y-120768741D01*
X138459000Y-120591259D01*
X138493624Y-120417188D01*
X138561544Y-120253216D01*
X138660147Y-120105646D01*
X138785646Y-119980147D01*
X138933216Y-119881544D01*
X139097188Y-119813624D01*
X139246488Y-119783927D01*
X139271258Y-119779000D01*
X139448742Y-119779000D01*
X139473512Y-119783927D01*
G37*
G36*
X142013512Y-119783927D02*
G01*
X142162812Y-119813624D01*
X142326784Y-119881544D01*
X142474354Y-119980147D01*
X142599853Y-120105646D01*
X142698456Y-120253216D01*
X142766376Y-120417188D01*
X142801000Y-120591259D01*
X142801000Y-120768741D01*
X142766376Y-120942812D01*
X142698456Y-121106784D01*
X142599853Y-121254354D01*
X142474354Y-121379853D01*
X142326784Y-121478456D01*
X142162812Y-121546376D01*
X142013512Y-121576073D01*
X141988742Y-121581000D01*
X141811258Y-121581000D01*
X141786488Y-121576073D01*
X141637188Y-121546376D01*
X141473216Y-121478456D01*
X141325646Y-121379853D01*
X141200147Y-121254354D01*
X141101544Y-121106784D01*
X141033624Y-120942812D01*
X140999000Y-120768741D01*
X140999000Y-120591259D01*
X141033624Y-120417188D01*
X141101544Y-120253216D01*
X141200147Y-120105646D01*
X141325646Y-119980147D01*
X141473216Y-119881544D01*
X141637188Y-119813624D01*
X141786488Y-119783927D01*
X141811258Y-119779000D01*
X141988742Y-119779000D01*
X142013512Y-119783927D01*
G37*
G36*
X139473512Y-117243927D02*
G01*
X139622812Y-117273624D01*
X139786784Y-117341544D01*
X139934354Y-117440147D01*
X140059853Y-117565646D01*
X140158456Y-117713216D01*
X140226376Y-117877188D01*
X140261000Y-118051259D01*
X140261000Y-118228741D01*
X140226376Y-118402812D01*
X140158456Y-118566784D01*
X140059853Y-118714354D01*
X139934354Y-118839853D01*
X139786784Y-118938456D01*
X139622812Y-119006376D01*
X139473512Y-119036073D01*
X139448742Y-119041000D01*
X139271258Y-119041000D01*
X139246488Y-119036073D01*
X139097188Y-119006376D01*
X138933216Y-118938456D01*
X138785646Y-118839853D01*
X138660147Y-118714354D01*
X138561544Y-118566784D01*
X138493624Y-118402812D01*
X138459000Y-118228741D01*
X138459000Y-118051259D01*
X138493624Y-117877188D01*
X138561544Y-117713216D01*
X138660147Y-117565646D01*
X138785646Y-117440147D01*
X138933216Y-117341544D01*
X139097188Y-117273624D01*
X139246488Y-117243927D01*
X139271258Y-117239000D01*
X139448742Y-117239000D01*
X139473512Y-117243927D01*
G37*
G36*
X142013512Y-117243927D02*
G01*
X142162812Y-117273624D01*
X142326784Y-117341544D01*
X142474354Y-117440147D01*
X142599853Y-117565646D01*
X142698456Y-117713216D01*
X142766376Y-117877188D01*
X142801000Y-118051259D01*
X142801000Y-118228741D01*
X142766376Y-118402812D01*
X142698456Y-118566784D01*
X142599853Y-118714354D01*
X142474354Y-118839853D01*
X142326784Y-118938456D01*
X142162812Y-119006376D01*
X142013512Y-119036073D01*
X141988742Y-119041000D01*
X141811258Y-119041000D01*
X141786488Y-119036073D01*
X141637188Y-119006376D01*
X141473216Y-118938456D01*
X141325646Y-118839853D01*
X141200147Y-118714354D01*
X141101544Y-118566784D01*
X141033624Y-118402812D01*
X140999000Y-118228741D01*
X140999000Y-118051259D01*
X141033624Y-117877188D01*
X141101544Y-117713216D01*
X141200147Y-117565646D01*
X141325646Y-117440147D01*
X141473216Y-117341544D01*
X141637188Y-117273624D01*
X141786488Y-117243927D01*
X141811258Y-117239000D01*
X141988742Y-117239000D01*
X142013512Y-117243927D01*
G37*
G36*
X142801000Y-116501000D02*
G01*
X140999000Y-116501000D01*
X140999000Y-114699000D01*
X142801000Y-114699000D01*
X142801000Y-116501000D01*
G37*
G36*
X139473512Y-114703927D02*
G01*
X139622812Y-114733624D01*
X139786784Y-114801544D01*
X139934354Y-114900147D01*
X140059853Y-115025646D01*
X140158456Y-115173216D01*
X140226376Y-115337188D01*
X140261000Y-115511259D01*
X140261000Y-115688741D01*
X140226376Y-115862812D01*
X140158456Y-116026784D01*
X140059853Y-116174354D01*
X139934354Y-116299853D01*
X139786784Y-116398456D01*
X139622812Y-116466376D01*
X139473512Y-116496073D01*
X139448742Y-116501000D01*
X139271258Y-116501000D01*
X139246488Y-116496073D01*
X139097188Y-116466376D01*
X138933216Y-116398456D01*
X138785646Y-116299853D01*
X138660147Y-116174354D01*
X138561544Y-116026784D01*
X138493624Y-115862812D01*
X138459000Y-115688741D01*
X138459000Y-115511259D01*
X138493624Y-115337188D01*
X138561544Y-115173216D01*
X138660147Y-115025646D01*
X138785646Y-114900147D01*
X138933216Y-114801544D01*
X139097188Y-114733624D01*
X139246488Y-114703927D01*
X139271258Y-114699000D01*
X139448742Y-114699000D01*
X139473512Y-114703927D01*
G37*
G36*
X139663512Y-110443927D02*
G01*
X139812812Y-110473624D01*
X139976784Y-110541544D01*
X140124354Y-110640147D01*
X140249853Y-110765646D01*
X140348456Y-110913216D01*
X140416376Y-111077188D01*
X140451000Y-111251259D01*
X140451000Y-111428741D01*
X140416376Y-111602812D01*
X140348456Y-111766784D01*
X140249853Y-111914354D01*
X140124354Y-112039853D01*
X139976784Y-112138456D01*
X139812812Y-112206376D01*
X139663512Y-112236073D01*
X139638742Y-112241000D01*
X139461258Y-112241000D01*
X139436488Y-112236073D01*
X139287188Y-112206376D01*
X139123216Y-112138456D01*
X138975646Y-112039853D01*
X138850147Y-111914354D01*
X138751544Y-111766784D01*
X138683624Y-111602812D01*
X138649000Y-111428741D01*
X138649000Y-111251259D01*
X138683624Y-111077188D01*
X138751544Y-110913216D01*
X138850147Y-110765646D01*
X138975646Y-110640147D01*
X139123216Y-110541544D01*
X139287188Y-110473624D01*
X139436488Y-110443927D01*
X139461258Y-110439000D01*
X139638742Y-110439000D01*
X139663512Y-110443927D01*
G37*
G36*
X140451000Y-109701000D02*
G01*
X138649000Y-109701000D01*
X138649000Y-107899000D01*
X140451000Y-107899000D01*
X140451000Y-109701000D01*
G37*
G36*
X171743512Y-103703927D02*
G01*
X171892812Y-103733624D01*
X172056784Y-103801544D01*
X172204354Y-103900147D01*
X172329853Y-104025646D01*
X172428456Y-104173216D01*
X172496376Y-104337188D01*
X172531000Y-104511259D01*
X172531000Y-104688741D01*
X172496376Y-104862812D01*
X172428456Y-105026784D01*
X172329853Y-105174354D01*
X172204354Y-105299853D01*
X172056784Y-105398456D01*
X171892812Y-105466376D01*
X171743512Y-105496073D01*
X171718742Y-105501000D01*
X171541258Y-105501000D01*
X171516488Y-105496073D01*
X171367188Y-105466376D01*
X171203216Y-105398456D01*
X171055646Y-105299853D01*
X170930147Y-105174354D01*
X170831544Y-105026784D01*
X170763624Y-104862812D01*
X170729000Y-104688741D01*
X170729000Y-104511259D01*
X170763624Y-104337188D01*
X170831544Y-104173216D01*
X170930147Y-104025646D01*
X171055646Y-103900147D01*
X171203216Y-103801544D01*
X171367188Y-103733624D01*
X171516488Y-103703927D01*
X171541258Y-103699000D01*
X171718742Y-103699000D01*
X171743512Y-103703927D01*
G37*
G36*
X174283512Y-103703927D02*
G01*
X174432812Y-103733624D01*
X174596784Y-103801544D01*
X174744354Y-103900147D01*
X174869853Y-104025646D01*
X174968456Y-104173216D01*
X175036376Y-104337188D01*
X175071000Y-104511259D01*
X175071000Y-104688741D01*
X175036376Y-104862812D01*
X174968456Y-105026784D01*
X174869853Y-105174354D01*
X174744354Y-105299853D01*
X174596784Y-105398456D01*
X174432812Y-105466376D01*
X174283512Y-105496073D01*
X174258742Y-105501000D01*
X174081258Y-105501000D01*
X174056488Y-105496073D01*
X173907188Y-105466376D01*
X173743216Y-105398456D01*
X173595646Y-105299853D01*
X173470147Y-105174354D01*
X173371544Y-105026784D01*
X173303624Y-104862812D01*
X173269000Y-104688741D01*
X173269000Y-104511259D01*
X173303624Y-104337188D01*
X173371544Y-104173216D01*
X173470147Y-104025646D01*
X173595646Y-103900147D01*
X173743216Y-103801544D01*
X173907188Y-103733624D01*
X174056488Y-103703927D01*
X174081258Y-103699000D01*
X174258742Y-103699000D01*
X174283512Y-103703927D01*
G37*
G36*
X169203512Y-103703927D02*
G01*
X169352812Y-103733624D01*
X169516784Y-103801544D01*
X169664354Y-103900147D01*
X169789853Y-104025646D01*
X169888456Y-104173216D01*
X169956376Y-104337188D01*
X169991000Y-104511259D01*
X169991000Y-104688741D01*
X169956376Y-104862812D01*
X169888456Y-105026784D01*
X169789853Y-105174354D01*
X169664354Y-105299853D01*
X169516784Y-105398456D01*
X169352812Y-105466376D01*
X169203512Y-105496073D01*
X169178742Y-105501000D01*
X169001258Y-105501000D01*
X168976488Y-105496073D01*
X168827188Y-105466376D01*
X168663216Y-105398456D01*
X168515646Y-105299853D01*
X168390147Y-105174354D01*
X168291544Y-105026784D01*
X168223624Y-104862812D01*
X168189000Y-104688741D01*
X168189000Y-104511259D01*
X168223624Y-104337188D01*
X168291544Y-104173216D01*
X168390147Y-104025646D01*
X168515646Y-103900147D01*
X168663216Y-103801544D01*
X168827188Y-103733624D01*
X168976488Y-103703927D01*
X169001258Y-103699000D01*
X169178742Y-103699000D01*
X169203512Y-103703927D01*
G37*
G36*
X167451000Y-105501000D02*
G01*
X165649000Y-105501000D01*
X165649000Y-103699000D01*
X167451000Y-103699000D01*
X167451000Y-105501000D01*
G37*
G36*
X151193512Y-103203927D02*
G01*
X151342812Y-103233624D01*
X151506784Y-103301544D01*
X151654354Y-103400147D01*
X151779853Y-103525646D01*
X151878456Y-103673216D01*
X151946376Y-103837188D01*
X151981000Y-104011259D01*
X151981000Y-104188741D01*
X151946376Y-104362812D01*
X151878456Y-104526784D01*
X151779853Y-104674354D01*
X151654354Y-104799853D01*
X151506784Y-104898456D01*
X151342812Y-104966376D01*
X151193512Y-104996073D01*
X151168742Y-105001000D01*
X150991258Y-105001000D01*
X150966488Y-104996073D01*
X150817188Y-104966376D01*
X150653216Y-104898456D01*
X150505646Y-104799853D01*
X150380147Y-104674354D01*
X150281544Y-104526784D01*
X150213624Y-104362812D01*
X150179000Y-104188741D01*
X150179000Y-104011259D01*
X150213624Y-103837188D01*
X150281544Y-103673216D01*
X150380147Y-103525646D01*
X150505646Y-103400147D01*
X150653216Y-103301544D01*
X150817188Y-103233624D01*
X150966488Y-103203927D01*
X150991258Y-103199000D01*
X151168742Y-103199000D01*
X151193512Y-103203927D01*
G37*
G36*
X153733512Y-103203927D02*
G01*
X153882812Y-103233624D01*
X154046784Y-103301544D01*
X154194354Y-103400147D01*
X154319853Y-103525646D01*
X154418456Y-103673216D01*
X154486376Y-103837188D01*
X154521000Y-104011259D01*
X154521000Y-104188741D01*
X154486376Y-104362812D01*
X154418456Y-104526784D01*
X154319853Y-104674354D01*
X154194354Y-104799853D01*
X154046784Y-104898456D01*
X153882812Y-104966376D01*
X153733512Y-104996073D01*
X153708742Y-105001000D01*
X153531258Y-105001000D01*
X153506488Y-104996073D01*
X153357188Y-104966376D01*
X153193216Y-104898456D01*
X153045646Y-104799853D01*
X152920147Y-104674354D01*
X152821544Y-104526784D01*
X152753624Y-104362812D01*
X152719000Y-104188741D01*
X152719000Y-104011259D01*
X152753624Y-103837188D01*
X152821544Y-103673216D01*
X152920147Y-103525646D01*
X153045646Y-103400147D01*
X153193216Y-103301544D01*
X153357188Y-103233624D01*
X153506488Y-103203927D01*
X153531258Y-103199000D01*
X153708742Y-103199000D01*
X153733512Y-103203927D01*
G37*
G36*
X148653512Y-103203927D02*
G01*
X148802812Y-103233624D01*
X148966784Y-103301544D01*
X149114354Y-103400147D01*
X149239853Y-103525646D01*
X149338456Y-103673216D01*
X149406376Y-103837188D01*
X149441000Y-104011259D01*
X149441000Y-104188741D01*
X149406376Y-104362812D01*
X149338456Y-104526784D01*
X149239853Y-104674354D01*
X149114354Y-104799853D01*
X148966784Y-104898456D01*
X148802812Y-104966376D01*
X148653512Y-104996073D01*
X148628742Y-105001000D01*
X148451258Y-105001000D01*
X148426488Y-104996073D01*
X148277188Y-104966376D01*
X148113216Y-104898456D01*
X147965646Y-104799853D01*
X147840147Y-104674354D01*
X147741544Y-104526784D01*
X147673624Y-104362812D01*
X147639000Y-104188741D01*
X147639000Y-104011259D01*
X147673624Y-103837188D01*
X147741544Y-103673216D01*
X147840147Y-103525646D01*
X147965646Y-103400147D01*
X148113216Y-103301544D01*
X148277188Y-103233624D01*
X148426488Y-103203927D01*
X148451258Y-103199000D01*
X148628742Y-103199000D01*
X148653512Y-103203927D01*
G37*
G36*
X146901000Y-105001000D02*
G01*
X145099000Y-105001000D01*
X145099000Y-103199000D01*
X146901000Y-103199000D01*
X146901000Y-105001000D01*
G37*
M02*
