G04 #@! TF.GenerationSoftware,KiCad,Pcbnew,(5.1.5)-3*
G04 #@! TF.CreationDate,2020-08-03T01:27:48-04:00*
G04 #@! TF.ProjectId,Arduino Clone,41726475-696e-46f2-9043-6c6f6e652e6b,rev?*
G04 #@! TF.SameCoordinates,Original*
G04 #@! TF.FileFunction,Copper,L3,Inr*
G04 #@! TF.FilePolarity,Positive*
%FSLAX46Y46*%
G04 Gerber Fmt 4.6, Leading zero omitted, Abs format (unit mm)*
G04 Created by KiCad (PCBNEW (5.1.5)-3) date 2020-08-03 01:27:48*
%MOMM*%
%LPD*%
G04 APERTURE LIST*
%ADD10O,1.700000X1.700000*%
%ADD11R,1.700000X1.700000*%
%ADD12C,1.000000*%
%ADD13C,0.800000*%
%ADD14C,0.254000*%
G04 APERTURE END LIST*
D10*
X174170000Y-104600000D03*
X171630000Y-104600000D03*
X169090000Y-104600000D03*
D11*
X166550000Y-104600000D03*
X139550000Y-108800000D03*
D10*
X139550000Y-111340000D03*
D11*
X141900000Y-115600000D03*
D10*
X139360000Y-115600000D03*
X141900000Y-118140000D03*
X139360000Y-118140000D03*
X141900000Y-120680000D03*
X139360000Y-120680000D03*
D11*
X146000000Y-104100000D03*
D10*
X148540000Y-104100000D03*
X151080000Y-104100000D03*
X153620000Y-104100000D03*
D11*
X151000000Y-126250000D03*
D10*
X153540000Y-126250000D03*
X156080000Y-126250000D03*
X158620000Y-126250000D03*
X161160000Y-126250000D03*
X163700000Y-126250000D03*
X166240000Y-126250000D03*
X168780000Y-126250000D03*
X171320000Y-126250000D03*
D12*
X169500000Y-119250000D03*
X173300000Y-116800000D03*
X176600000Y-109250000D03*
X172650000Y-111750000D03*
X166600000Y-109250000D03*
X162650000Y-111700000D03*
X162750000Y-113050000D03*
X156900000Y-115900000D03*
X151350000Y-115050000D03*
X157800000Y-109050000D03*
X156600000Y-117250000D03*
X151350000Y-116600000D03*
D13*
X156950000Y-118300000D03*
X166300000Y-112950000D03*
X166300000Y-111750000D03*
X176350000Y-111750000D03*
X155050000Y-113200000D03*
X156650000Y-113000000D03*
X162450000Y-109200000D03*
X172300000Y-109250000D03*
D12*
X144200000Y-114300000D03*
X138750000Y-113600000D03*
D13*
X158450000Y-121450000D03*
X157250000Y-121400000D03*
X144050000Y-117050000D03*
D12*
X174350000Y-107050000D03*
D13*
X173450000Y-119300000D03*
D12*
X153750000Y-112800000D03*
D14*
G36*
X144795506Y-102719463D02*
G01*
X144698815Y-102798815D01*
X144619463Y-102895506D01*
X144560498Y-103005820D01*
X144524188Y-103125518D01*
X144511928Y-103250000D01*
X144511928Y-104950000D01*
X144524188Y-105074482D01*
X144560498Y-105194180D01*
X144619463Y-105304494D01*
X144698815Y-105401185D01*
X144795506Y-105480537D01*
X144905820Y-105539502D01*
X145025518Y-105575812D01*
X145150000Y-105588072D01*
X146850000Y-105588072D01*
X146974482Y-105575812D01*
X147094180Y-105539502D01*
X147204494Y-105480537D01*
X147301185Y-105401185D01*
X147380537Y-105304494D01*
X147439502Y-105194180D01*
X147463966Y-105113534D01*
X147539731Y-105197588D01*
X147773080Y-105371641D01*
X148035901Y-105496825D01*
X148183110Y-105541476D01*
X148413000Y-105420155D01*
X148413000Y-104227000D01*
X148393000Y-104227000D01*
X148393000Y-103973000D01*
X148413000Y-103973000D01*
X148413000Y-103953000D01*
X148667000Y-103953000D01*
X148667000Y-103973000D01*
X148687000Y-103973000D01*
X148687000Y-104227000D01*
X148667000Y-104227000D01*
X148667000Y-105420155D01*
X148896890Y-105541476D01*
X149044099Y-105496825D01*
X149306920Y-105371641D01*
X149540269Y-105197588D01*
X149735178Y-104981355D01*
X149804805Y-104864466D01*
X149926525Y-105046632D01*
X150133368Y-105253475D01*
X150376589Y-105415990D01*
X150646842Y-105527932D01*
X150933740Y-105585000D01*
X151226260Y-105585000D01*
X151513158Y-105527932D01*
X151783411Y-105415990D01*
X152026632Y-105253475D01*
X152233475Y-105046632D01*
X152350000Y-104872240D01*
X152466525Y-105046632D01*
X152673368Y-105253475D01*
X152916589Y-105415990D01*
X153186842Y-105527932D01*
X153473740Y-105585000D01*
X153766260Y-105585000D01*
X154053158Y-105527932D01*
X154323411Y-105415990D01*
X154566632Y-105253475D01*
X154773475Y-105046632D01*
X154935990Y-104803411D01*
X155047932Y-104533158D01*
X155105000Y-104246260D01*
X155105000Y-103953740D01*
X155064474Y-103750000D01*
X165061928Y-103750000D01*
X165061928Y-105450000D01*
X165074188Y-105574482D01*
X165110498Y-105694180D01*
X165169463Y-105804494D01*
X165248815Y-105901185D01*
X165345506Y-105980537D01*
X165455820Y-106039502D01*
X165575518Y-106075812D01*
X165700000Y-106088072D01*
X167400000Y-106088072D01*
X167524482Y-106075812D01*
X167644180Y-106039502D01*
X167754494Y-105980537D01*
X167851185Y-105901185D01*
X167930537Y-105804494D01*
X167989502Y-105694180D01*
X168013966Y-105613534D01*
X168089731Y-105697588D01*
X168323080Y-105871641D01*
X168585901Y-105996825D01*
X168733110Y-106041476D01*
X168963000Y-105920155D01*
X168963000Y-104727000D01*
X168943000Y-104727000D01*
X168943000Y-104473000D01*
X168963000Y-104473000D01*
X168963000Y-103279845D01*
X169217000Y-103279845D01*
X169217000Y-104473000D01*
X169237000Y-104473000D01*
X169237000Y-104727000D01*
X169217000Y-104727000D01*
X169217000Y-105920155D01*
X169446890Y-106041476D01*
X169594099Y-105996825D01*
X169856920Y-105871641D01*
X170090269Y-105697588D01*
X170285178Y-105481355D01*
X170354805Y-105364466D01*
X170476525Y-105546632D01*
X170683368Y-105753475D01*
X170926589Y-105915990D01*
X171196842Y-106027932D01*
X171483740Y-106085000D01*
X171776260Y-106085000D01*
X172063158Y-106027932D01*
X172333411Y-105915990D01*
X172576632Y-105753475D01*
X172783475Y-105546632D01*
X172900000Y-105372240D01*
X173016525Y-105546632D01*
X173223368Y-105753475D01*
X173466589Y-105915990D01*
X173736842Y-106027932D01*
X173814365Y-106043352D01*
X173812376Y-106044176D01*
X173626480Y-106168388D01*
X173468388Y-106326480D01*
X173344176Y-106512376D01*
X173258617Y-106718933D01*
X173215000Y-106938212D01*
X173215000Y-107161788D01*
X173258617Y-107381067D01*
X173344176Y-107587624D01*
X173468388Y-107773520D01*
X173626480Y-107931612D01*
X173812376Y-108055824D01*
X174018933Y-108141383D01*
X174238212Y-108185000D01*
X174461788Y-108185000D01*
X174681067Y-108141383D01*
X174887624Y-108055824D01*
X175073520Y-107931612D01*
X175231612Y-107773520D01*
X175355824Y-107587624D01*
X175441383Y-107381067D01*
X175485000Y-107161788D01*
X175485000Y-106938212D01*
X175441383Y-106718933D01*
X175355824Y-106512376D01*
X175231612Y-106326480D01*
X175073520Y-106168388D01*
X174887624Y-106044176D01*
X174725783Y-105977139D01*
X174873411Y-105915990D01*
X175116632Y-105753475D01*
X175323475Y-105546632D01*
X175485990Y-105303411D01*
X175597932Y-105033158D01*
X175655000Y-104746260D01*
X175655000Y-104453740D01*
X175597932Y-104166842D01*
X175485990Y-103896589D01*
X175323475Y-103653368D01*
X175116632Y-103446525D01*
X174873411Y-103284010D01*
X174603158Y-103172068D01*
X174316260Y-103115000D01*
X174023740Y-103115000D01*
X173736842Y-103172068D01*
X173466589Y-103284010D01*
X173223368Y-103446525D01*
X173016525Y-103653368D01*
X172900000Y-103827760D01*
X172783475Y-103653368D01*
X172576632Y-103446525D01*
X172333411Y-103284010D01*
X172063158Y-103172068D01*
X171776260Y-103115000D01*
X171483740Y-103115000D01*
X171196842Y-103172068D01*
X170926589Y-103284010D01*
X170683368Y-103446525D01*
X170476525Y-103653368D01*
X170354805Y-103835534D01*
X170285178Y-103718645D01*
X170090269Y-103502412D01*
X169856920Y-103328359D01*
X169594099Y-103203175D01*
X169446890Y-103158524D01*
X169217000Y-103279845D01*
X168963000Y-103279845D01*
X168733110Y-103158524D01*
X168585901Y-103203175D01*
X168323080Y-103328359D01*
X168089731Y-103502412D01*
X168013966Y-103586466D01*
X167989502Y-103505820D01*
X167930537Y-103395506D01*
X167851185Y-103298815D01*
X167754494Y-103219463D01*
X167644180Y-103160498D01*
X167524482Y-103124188D01*
X167400000Y-103111928D01*
X165700000Y-103111928D01*
X165575518Y-103124188D01*
X165455820Y-103160498D01*
X165345506Y-103219463D01*
X165248815Y-103298815D01*
X165169463Y-103395506D01*
X165110498Y-103505820D01*
X165074188Y-103625518D01*
X165061928Y-103750000D01*
X155064474Y-103750000D01*
X155047932Y-103666842D01*
X154935990Y-103396589D01*
X154773475Y-103153368D01*
X154566632Y-102946525D01*
X154323411Y-102784010D01*
X154131456Y-102704500D01*
X176389933Y-102704500D01*
X176214716Y-102879717D01*
X176009256Y-103187210D01*
X175867732Y-103528878D01*
X175795584Y-103891591D01*
X175795584Y-104261409D01*
X175867732Y-104624122D01*
X176009256Y-104965790D01*
X176214716Y-105273283D01*
X176476217Y-105534784D01*
X176783710Y-105740244D01*
X177125378Y-105881768D01*
X177488091Y-105953916D01*
X177857909Y-105953916D01*
X178220622Y-105881768D01*
X178562290Y-105740244D01*
X178869783Y-105534784D01*
X179045001Y-105359566D01*
X179045000Y-125272433D01*
X178869783Y-125097216D01*
X178562290Y-124891756D01*
X178220622Y-124750232D01*
X177857909Y-124678084D01*
X177488091Y-124678084D01*
X177125378Y-124750232D01*
X176783710Y-124891756D01*
X176476217Y-125097216D01*
X176214716Y-125358717D01*
X176009256Y-125666210D01*
X175867732Y-126007878D01*
X175795584Y-126370591D01*
X175795584Y-126740409D01*
X175867732Y-127103122D01*
X176009256Y-127444790D01*
X176214716Y-127752283D01*
X176389933Y-127927500D01*
X139903567Y-127927500D01*
X140078784Y-127752283D01*
X140284244Y-127444790D01*
X140425768Y-127103122D01*
X140497916Y-126740409D01*
X140497916Y-126370591D01*
X140425768Y-126007878D01*
X140284244Y-125666210D01*
X140106369Y-125400000D01*
X149511928Y-125400000D01*
X149511928Y-127100000D01*
X149524188Y-127224482D01*
X149560498Y-127344180D01*
X149619463Y-127454494D01*
X149698815Y-127551185D01*
X149795506Y-127630537D01*
X149905820Y-127689502D01*
X150025518Y-127725812D01*
X150150000Y-127738072D01*
X151850000Y-127738072D01*
X151974482Y-127725812D01*
X152094180Y-127689502D01*
X152204494Y-127630537D01*
X152301185Y-127551185D01*
X152380537Y-127454494D01*
X152439502Y-127344180D01*
X152461513Y-127271620D01*
X152593368Y-127403475D01*
X152836589Y-127565990D01*
X153106842Y-127677932D01*
X153393740Y-127735000D01*
X153686260Y-127735000D01*
X153973158Y-127677932D01*
X154243411Y-127565990D01*
X154486632Y-127403475D01*
X154693475Y-127196632D01*
X154810000Y-127022240D01*
X154926525Y-127196632D01*
X155133368Y-127403475D01*
X155376589Y-127565990D01*
X155646842Y-127677932D01*
X155933740Y-127735000D01*
X156226260Y-127735000D01*
X156513158Y-127677932D01*
X156783411Y-127565990D01*
X157026632Y-127403475D01*
X157233475Y-127196632D01*
X157350000Y-127022240D01*
X157466525Y-127196632D01*
X157673368Y-127403475D01*
X157916589Y-127565990D01*
X158186842Y-127677932D01*
X158473740Y-127735000D01*
X158766260Y-127735000D01*
X159053158Y-127677932D01*
X159323411Y-127565990D01*
X159566632Y-127403475D01*
X159773475Y-127196632D01*
X159890000Y-127022240D01*
X160006525Y-127196632D01*
X160213368Y-127403475D01*
X160456589Y-127565990D01*
X160726842Y-127677932D01*
X161013740Y-127735000D01*
X161306260Y-127735000D01*
X161593158Y-127677932D01*
X161863411Y-127565990D01*
X162106632Y-127403475D01*
X162313475Y-127196632D01*
X162430000Y-127022240D01*
X162546525Y-127196632D01*
X162753368Y-127403475D01*
X162996589Y-127565990D01*
X163266842Y-127677932D01*
X163553740Y-127735000D01*
X163846260Y-127735000D01*
X164133158Y-127677932D01*
X164403411Y-127565990D01*
X164646632Y-127403475D01*
X164853475Y-127196632D01*
X164970000Y-127022240D01*
X165086525Y-127196632D01*
X165293368Y-127403475D01*
X165536589Y-127565990D01*
X165806842Y-127677932D01*
X166093740Y-127735000D01*
X166386260Y-127735000D01*
X166673158Y-127677932D01*
X166943411Y-127565990D01*
X167186632Y-127403475D01*
X167393475Y-127196632D01*
X167510000Y-127022240D01*
X167626525Y-127196632D01*
X167833368Y-127403475D01*
X168076589Y-127565990D01*
X168346842Y-127677932D01*
X168633740Y-127735000D01*
X168926260Y-127735000D01*
X169213158Y-127677932D01*
X169483411Y-127565990D01*
X169726632Y-127403475D01*
X169933475Y-127196632D01*
X170055195Y-127014466D01*
X170124822Y-127131355D01*
X170319731Y-127347588D01*
X170553080Y-127521641D01*
X170815901Y-127646825D01*
X170963110Y-127691476D01*
X171193000Y-127570155D01*
X171193000Y-126377000D01*
X171447000Y-126377000D01*
X171447000Y-127570155D01*
X171676890Y-127691476D01*
X171824099Y-127646825D01*
X172086920Y-127521641D01*
X172320269Y-127347588D01*
X172515178Y-127131355D01*
X172664157Y-126881252D01*
X172761481Y-126606891D01*
X172640814Y-126377000D01*
X171447000Y-126377000D01*
X171193000Y-126377000D01*
X171173000Y-126377000D01*
X171173000Y-126123000D01*
X171193000Y-126123000D01*
X171193000Y-124929845D01*
X171447000Y-124929845D01*
X171447000Y-126123000D01*
X172640814Y-126123000D01*
X172761481Y-125893109D01*
X172664157Y-125618748D01*
X172515178Y-125368645D01*
X172320269Y-125152412D01*
X172086920Y-124978359D01*
X171824099Y-124853175D01*
X171676890Y-124808524D01*
X171447000Y-124929845D01*
X171193000Y-124929845D01*
X170963110Y-124808524D01*
X170815901Y-124853175D01*
X170553080Y-124978359D01*
X170319731Y-125152412D01*
X170124822Y-125368645D01*
X170055195Y-125485534D01*
X169933475Y-125303368D01*
X169726632Y-125096525D01*
X169483411Y-124934010D01*
X169213158Y-124822068D01*
X168926260Y-124765000D01*
X168633740Y-124765000D01*
X168346842Y-124822068D01*
X168076589Y-124934010D01*
X167833368Y-125096525D01*
X167626525Y-125303368D01*
X167510000Y-125477760D01*
X167393475Y-125303368D01*
X167186632Y-125096525D01*
X166943411Y-124934010D01*
X166673158Y-124822068D01*
X166386260Y-124765000D01*
X166093740Y-124765000D01*
X165806842Y-124822068D01*
X165536589Y-124934010D01*
X165293368Y-125096525D01*
X165086525Y-125303368D01*
X164970000Y-125477760D01*
X164853475Y-125303368D01*
X164646632Y-125096525D01*
X164403411Y-124934010D01*
X164133158Y-124822068D01*
X163846260Y-124765000D01*
X163553740Y-124765000D01*
X163266842Y-124822068D01*
X162996589Y-124934010D01*
X162753368Y-125096525D01*
X162546525Y-125303368D01*
X162430000Y-125477760D01*
X162313475Y-125303368D01*
X162106632Y-125096525D01*
X161863411Y-124934010D01*
X161593158Y-124822068D01*
X161306260Y-124765000D01*
X161013740Y-124765000D01*
X160726842Y-124822068D01*
X160456589Y-124934010D01*
X160213368Y-125096525D01*
X160006525Y-125303368D01*
X159890000Y-125477760D01*
X159773475Y-125303368D01*
X159566632Y-125096525D01*
X159323411Y-124934010D01*
X159053158Y-124822068D01*
X158766260Y-124765000D01*
X158473740Y-124765000D01*
X158186842Y-124822068D01*
X157916589Y-124934010D01*
X157673368Y-125096525D01*
X157466525Y-125303368D01*
X157350000Y-125477760D01*
X157233475Y-125303368D01*
X157026632Y-125096525D01*
X156783411Y-124934010D01*
X156513158Y-124822068D01*
X156226260Y-124765000D01*
X155933740Y-124765000D01*
X155646842Y-124822068D01*
X155376589Y-124934010D01*
X155133368Y-125096525D01*
X154926525Y-125303368D01*
X154810000Y-125477760D01*
X154693475Y-125303368D01*
X154486632Y-125096525D01*
X154243411Y-124934010D01*
X153973158Y-124822068D01*
X153686260Y-124765000D01*
X153393740Y-124765000D01*
X153106842Y-124822068D01*
X152836589Y-124934010D01*
X152593368Y-125096525D01*
X152461513Y-125228380D01*
X152439502Y-125155820D01*
X152380537Y-125045506D01*
X152301185Y-124948815D01*
X152204494Y-124869463D01*
X152094180Y-124810498D01*
X151974482Y-124774188D01*
X151850000Y-124761928D01*
X150150000Y-124761928D01*
X150025518Y-124774188D01*
X149905820Y-124810498D01*
X149795506Y-124869463D01*
X149698815Y-124948815D01*
X149619463Y-125045506D01*
X149560498Y-125155820D01*
X149524188Y-125275518D01*
X149511928Y-125400000D01*
X140106369Y-125400000D01*
X140078784Y-125358717D01*
X139817283Y-125097216D01*
X139509790Y-124891756D01*
X139168122Y-124750232D01*
X138805409Y-124678084D01*
X138435591Y-124678084D01*
X138072878Y-124750232D01*
X137731210Y-124891756D01*
X137423717Y-125097216D01*
X137248500Y-125272433D01*
X137248500Y-113488212D01*
X137615000Y-113488212D01*
X137615000Y-113711788D01*
X137658617Y-113931067D01*
X137744176Y-114137624D01*
X137868388Y-114323520D01*
X138026480Y-114481612D01*
X138212376Y-114605824D01*
X138247130Y-114620220D01*
X138088359Y-114833080D01*
X137963175Y-115095901D01*
X137918524Y-115243110D01*
X138039845Y-115473000D01*
X139233000Y-115473000D01*
X139233000Y-115453000D01*
X139487000Y-115453000D01*
X139487000Y-115473000D01*
X139507000Y-115473000D01*
X139507000Y-115727000D01*
X139487000Y-115727000D01*
X139487000Y-115747000D01*
X139233000Y-115747000D01*
X139233000Y-115727000D01*
X138039845Y-115727000D01*
X137918524Y-115956890D01*
X137963175Y-116104099D01*
X138088359Y-116366920D01*
X138262412Y-116600269D01*
X138478645Y-116795178D01*
X138595534Y-116864805D01*
X138413368Y-116986525D01*
X138206525Y-117193368D01*
X138044010Y-117436589D01*
X137932068Y-117706842D01*
X137875000Y-117993740D01*
X137875000Y-118286260D01*
X137932068Y-118573158D01*
X138044010Y-118843411D01*
X138206525Y-119086632D01*
X138413368Y-119293475D01*
X138587760Y-119410000D01*
X138413368Y-119526525D01*
X138206525Y-119733368D01*
X138044010Y-119976589D01*
X137932068Y-120246842D01*
X137875000Y-120533740D01*
X137875000Y-120826260D01*
X137932068Y-121113158D01*
X138044010Y-121383411D01*
X138206525Y-121626632D01*
X138413368Y-121833475D01*
X138656589Y-121995990D01*
X138926842Y-122107932D01*
X139213740Y-122165000D01*
X139506260Y-122165000D01*
X139793158Y-122107932D01*
X140063411Y-121995990D01*
X140306632Y-121833475D01*
X140513475Y-121626632D01*
X140630000Y-121452240D01*
X140746525Y-121626632D01*
X140953368Y-121833475D01*
X141196589Y-121995990D01*
X141466842Y-122107932D01*
X141753740Y-122165000D01*
X142046260Y-122165000D01*
X142333158Y-122107932D01*
X142603411Y-121995990D01*
X142846632Y-121833475D01*
X143053475Y-121626632D01*
X143215990Y-121383411D01*
X143251342Y-121298061D01*
X156215000Y-121298061D01*
X156215000Y-121501939D01*
X156254774Y-121701898D01*
X156332795Y-121890256D01*
X156446063Y-122059774D01*
X156590226Y-122203937D01*
X156759744Y-122317205D01*
X156948102Y-122395226D01*
X157148061Y-122435000D01*
X157351939Y-122435000D01*
X157551898Y-122395226D01*
X157740256Y-122317205D01*
X157812585Y-122268877D01*
X157959744Y-122367205D01*
X158148102Y-122445226D01*
X158348061Y-122485000D01*
X158551939Y-122485000D01*
X158751898Y-122445226D01*
X158940256Y-122367205D01*
X159109774Y-122253937D01*
X159253937Y-122109774D01*
X159367205Y-121940256D01*
X159445226Y-121751898D01*
X159485000Y-121551939D01*
X159485000Y-121348061D01*
X159445226Y-121148102D01*
X159367205Y-120959744D01*
X159253937Y-120790226D01*
X159109774Y-120646063D01*
X158940256Y-120532795D01*
X158751898Y-120454774D01*
X158551939Y-120415000D01*
X158348061Y-120415000D01*
X158148102Y-120454774D01*
X157959744Y-120532795D01*
X157887415Y-120581123D01*
X157740256Y-120482795D01*
X157551898Y-120404774D01*
X157351939Y-120365000D01*
X157148061Y-120365000D01*
X156948102Y-120404774D01*
X156759744Y-120482795D01*
X156590226Y-120596063D01*
X156446063Y-120740226D01*
X156332795Y-120909744D01*
X156254774Y-121098102D01*
X156215000Y-121298061D01*
X143251342Y-121298061D01*
X143327932Y-121113158D01*
X143385000Y-120826260D01*
X143385000Y-120533740D01*
X143327932Y-120246842D01*
X143215990Y-119976589D01*
X143053475Y-119733368D01*
X142846632Y-119526525D01*
X142672240Y-119410000D01*
X142846632Y-119293475D01*
X143053475Y-119086632D01*
X143215990Y-118843411D01*
X143327932Y-118573158D01*
X143385000Y-118286260D01*
X143385000Y-118198061D01*
X155915000Y-118198061D01*
X155915000Y-118401939D01*
X155954774Y-118601898D01*
X156032795Y-118790256D01*
X156146063Y-118959774D01*
X156290226Y-119103937D01*
X156459744Y-119217205D01*
X156648102Y-119295226D01*
X156848061Y-119335000D01*
X157051939Y-119335000D01*
X157251898Y-119295226D01*
X157440256Y-119217205D01*
X157468907Y-119198061D01*
X172415000Y-119198061D01*
X172415000Y-119401939D01*
X172454774Y-119601898D01*
X172532795Y-119790256D01*
X172646063Y-119959774D01*
X172790226Y-120103937D01*
X172959744Y-120217205D01*
X173148102Y-120295226D01*
X173348061Y-120335000D01*
X173551939Y-120335000D01*
X173751898Y-120295226D01*
X173940256Y-120217205D01*
X174109774Y-120103937D01*
X174253937Y-119959774D01*
X174367205Y-119790256D01*
X174445226Y-119601898D01*
X174485000Y-119401939D01*
X174485000Y-119198061D01*
X174445226Y-118998102D01*
X174367205Y-118809744D01*
X174253937Y-118640226D01*
X174109774Y-118496063D01*
X173940256Y-118382795D01*
X173751898Y-118304774D01*
X173551939Y-118265000D01*
X173348061Y-118265000D01*
X173148102Y-118304774D01*
X172959744Y-118382795D01*
X172790226Y-118496063D01*
X172646063Y-118640226D01*
X172532795Y-118809744D01*
X172454774Y-118998102D01*
X172415000Y-119198061D01*
X157468907Y-119198061D01*
X157609774Y-119103937D01*
X157753937Y-118959774D01*
X157867205Y-118790256D01*
X157945226Y-118601898D01*
X157985000Y-118401939D01*
X157985000Y-118198061D01*
X157945226Y-117998102D01*
X157867205Y-117809744D01*
X157753937Y-117640226D01*
X157609774Y-117496063D01*
X157440256Y-117382795D01*
X157251898Y-117304774D01*
X157051939Y-117265000D01*
X156848061Y-117265000D01*
X156648102Y-117304774D01*
X156459744Y-117382795D01*
X156290226Y-117496063D01*
X156146063Y-117640226D01*
X156032795Y-117809744D01*
X155954774Y-117998102D01*
X155915000Y-118198061D01*
X143385000Y-118198061D01*
X143385000Y-117993740D01*
X143348989Y-117812700D01*
X143390226Y-117853937D01*
X143559744Y-117967205D01*
X143748102Y-118045226D01*
X143948061Y-118085000D01*
X144151939Y-118085000D01*
X144351898Y-118045226D01*
X144540256Y-117967205D01*
X144709774Y-117853937D01*
X144853937Y-117709774D01*
X144967205Y-117540256D01*
X145045226Y-117351898D01*
X145085000Y-117151939D01*
X145085000Y-116948061D01*
X145045226Y-116748102D01*
X144967205Y-116559744D01*
X144853937Y-116390226D01*
X144709774Y-116246063D01*
X144540256Y-116132795D01*
X144351898Y-116054774D01*
X144151939Y-116015000D01*
X143948061Y-116015000D01*
X143748102Y-116054774D01*
X143559744Y-116132795D01*
X143390226Y-116246063D01*
X143388072Y-116248217D01*
X143388072Y-115093204D01*
X143476480Y-115181612D01*
X143662376Y-115305824D01*
X143868933Y-115391383D01*
X144088212Y-115435000D01*
X144311788Y-115435000D01*
X144531067Y-115391383D01*
X144737624Y-115305824D01*
X144923520Y-115181612D01*
X145081612Y-115023520D01*
X145205824Y-114837624D01*
X145291383Y-114631067D01*
X145335000Y-114411788D01*
X145335000Y-114188212D01*
X145291383Y-113968933D01*
X145205824Y-113762376D01*
X145081612Y-113576480D01*
X144923520Y-113418388D01*
X144737624Y-113294176D01*
X144531067Y-113208617D01*
X144311788Y-113165000D01*
X144088212Y-113165000D01*
X143868933Y-113208617D01*
X143662376Y-113294176D01*
X143476480Y-113418388D01*
X143318388Y-113576480D01*
X143194176Y-113762376D01*
X143108617Y-113968933D01*
X143065000Y-114188212D01*
X143065000Y-114198353D01*
X142994180Y-114160498D01*
X142874482Y-114124188D01*
X142750000Y-114111928D01*
X141050000Y-114111928D01*
X140925518Y-114124188D01*
X140805820Y-114160498D01*
X140695506Y-114219463D01*
X140598815Y-114298815D01*
X140519463Y-114395506D01*
X140460498Y-114505820D01*
X140437502Y-114581626D01*
X140241355Y-114404822D01*
X139991252Y-114255843D01*
X139737078Y-114165680D01*
X139755824Y-114137624D01*
X139841383Y-113931067D01*
X139885000Y-113711788D01*
X139885000Y-113488212D01*
X139841383Y-113268933D01*
X139755824Y-113062376D01*
X139631612Y-112876480D01*
X139580132Y-112825000D01*
X139696260Y-112825000D01*
X139983158Y-112767932D01*
X140175619Y-112688212D01*
X152615000Y-112688212D01*
X152615000Y-112911788D01*
X152658617Y-113131067D01*
X152744176Y-113337624D01*
X152868388Y-113523520D01*
X153026480Y-113681612D01*
X153212376Y-113805824D01*
X153418933Y-113891383D01*
X153638212Y-113935000D01*
X153861788Y-113935000D01*
X154081067Y-113891383D01*
X154226838Y-113831002D01*
X154246063Y-113859774D01*
X154390226Y-114003937D01*
X154559744Y-114117205D01*
X154748102Y-114195226D01*
X154948061Y-114235000D01*
X155151939Y-114235000D01*
X155351898Y-114195226D01*
X155540256Y-114117205D01*
X155709774Y-114003937D01*
X155853937Y-113859774D01*
X155930892Y-113744603D01*
X155990226Y-113803937D01*
X156159744Y-113917205D01*
X156348102Y-113995226D01*
X156548061Y-114035000D01*
X156751939Y-114035000D01*
X156951898Y-113995226D01*
X157140256Y-113917205D01*
X157309774Y-113803937D01*
X157453937Y-113659774D01*
X157567205Y-113490256D01*
X157645226Y-113301898D01*
X157685000Y-113101939D01*
X157685000Y-112938212D01*
X161615000Y-112938212D01*
X161615000Y-113161788D01*
X161658617Y-113381067D01*
X161744176Y-113587624D01*
X161868388Y-113773520D01*
X162026480Y-113931612D01*
X162212376Y-114055824D01*
X162418933Y-114141383D01*
X162638212Y-114185000D01*
X162861788Y-114185000D01*
X163081067Y-114141383D01*
X163287624Y-114055824D01*
X163473520Y-113931612D01*
X163631612Y-113773520D01*
X163755824Y-113587624D01*
X163841383Y-113381067D01*
X163885000Y-113161788D01*
X163885000Y-112938212D01*
X163841383Y-112718933D01*
X163755824Y-112512376D01*
X163631612Y-112326480D01*
X163473520Y-112168388D01*
X163287624Y-112044176D01*
X163081067Y-111958617D01*
X162861788Y-111915000D01*
X162638212Y-111915000D01*
X162418933Y-111958617D01*
X162212376Y-112044176D01*
X162026480Y-112168388D01*
X161868388Y-112326480D01*
X161744176Y-112512376D01*
X161658617Y-112718933D01*
X161615000Y-112938212D01*
X157685000Y-112938212D01*
X157685000Y-112898061D01*
X157645226Y-112698102D01*
X157567205Y-112509744D01*
X157453937Y-112340226D01*
X157309774Y-112196063D01*
X157140256Y-112082795D01*
X156951898Y-112004774D01*
X156751939Y-111965000D01*
X156548061Y-111965000D01*
X156348102Y-112004774D01*
X156159744Y-112082795D01*
X155990226Y-112196063D01*
X155846063Y-112340226D01*
X155769108Y-112455397D01*
X155709774Y-112396063D01*
X155540256Y-112282795D01*
X155351898Y-112204774D01*
X155151939Y-112165000D01*
X154948061Y-112165000D01*
X154748102Y-112204774D01*
X154724005Y-112214755D01*
X154631612Y-112076480D01*
X154473520Y-111918388D01*
X154287624Y-111794176D01*
X154081067Y-111708617D01*
X153861788Y-111665000D01*
X153638212Y-111665000D01*
X153418933Y-111708617D01*
X153212376Y-111794176D01*
X153026480Y-111918388D01*
X152868388Y-112076480D01*
X152744176Y-112262376D01*
X152658617Y-112468933D01*
X152615000Y-112688212D01*
X140175619Y-112688212D01*
X140253411Y-112655990D01*
X140496632Y-112493475D01*
X140703475Y-112286632D01*
X140865990Y-112043411D01*
X140977932Y-111773158D01*
X141002815Y-111648061D01*
X165265000Y-111648061D01*
X165265000Y-111851939D01*
X165304774Y-112051898D01*
X165382795Y-112240256D01*
X165456123Y-112350000D01*
X165382795Y-112459744D01*
X165304774Y-112648102D01*
X165265000Y-112848061D01*
X165265000Y-113051939D01*
X165304774Y-113251898D01*
X165382795Y-113440256D01*
X165496063Y-113609774D01*
X165640226Y-113753937D01*
X165809744Y-113867205D01*
X165998102Y-113945226D01*
X166198061Y-113985000D01*
X166401939Y-113985000D01*
X166601898Y-113945226D01*
X166790256Y-113867205D01*
X166959774Y-113753937D01*
X167103937Y-113609774D01*
X167217205Y-113440256D01*
X167295226Y-113251898D01*
X167335000Y-113051939D01*
X167335000Y-112848061D01*
X167295226Y-112648102D01*
X167217205Y-112459744D01*
X167143877Y-112350000D01*
X167217205Y-112240256D01*
X167295226Y-112051898D01*
X167335000Y-111851939D01*
X167335000Y-111648061D01*
X175315000Y-111648061D01*
X175315000Y-111851939D01*
X175354774Y-112051898D01*
X175432795Y-112240256D01*
X175546063Y-112409774D01*
X175690226Y-112553937D01*
X175859744Y-112667205D01*
X176048102Y-112745226D01*
X176248061Y-112785000D01*
X176451939Y-112785000D01*
X176651898Y-112745226D01*
X176840256Y-112667205D01*
X177009774Y-112553937D01*
X177153937Y-112409774D01*
X177267205Y-112240256D01*
X177345226Y-112051898D01*
X177385000Y-111851939D01*
X177385000Y-111648061D01*
X177345226Y-111448102D01*
X177267205Y-111259744D01*
X177153937Y-111090226D01*
X177009774Y-110946063D01*
X176840256Y-110832795D01*
X176651898Y-110754774D01*
X176451939Y-110715000D01*
X176248061Y-110715000D01*
X176048102Y-110754774D01*
X175859744Y-110832795D01*
X175690226Y-110946063D01*
X175546063Y-111090226D01*
X175432795Y-111259744D01*
X175354774Y-111448102D01*
X175315000Y-111648061D01*
X167335000Y-111648061D01*
X167295226Y-111448102D01*
X167217205Y-111259744D01*
X167103937Y-111090226D01*
X166959774Y-110946063D01*
X166790256Y-110832795D01*
X166601898Y-110754774D01*
X166401939Y-110715000D01*
X166198061Y-110715000D01*
X165998102Y-110754774D01*
X165809744Y-110832795D01*
X165640226Y-110946063D01*
X165496063Y-111090226D01*
X165382795Y-111259744D01*
X165304774Y-111448102D01*
X165265000Y-111648061D01*
X141002815Y-111648061D01*
X141035000Y-111486260D01*
X141035000Y-111193740D01*
X140977932Y-110906842D01*
X140865990Y-110636589D01*
X140703475Y-110393368D01*
X140571620Y-110261513D01*
X140644180Y-110239502D01*
X140754494Y-110180537D01*
X140851185Y-110101185D01*
X140930537Y-110004494D01*
X140989502Y-109894180D01*
X141025812Y-109774482D01*
X141038072Y-109650000D01*
X141035068Y-109098061D01*
X161415000Y-109098061D01*
X161415000Y-109301939D01*
X161454774Y-109501898D01*
X161532795Y-109690256D01*
X161646063Y-109859774D01*
X161790226Y-110003937D01*
X161959744Y-110117205D01*
X162148102Y-110195226D01*
X162348061Y-110235000D01*
X162551939Y-110235000D01*
X162751898Y-110195226D01*
X162940256Y-110117205D01*
X163109774Y-110003937D01*
X163253937Y-109859774D01*
X163367205Y-109690256D01*
X163445226Y-109501898D01*
X163485000Y-109301939D01*
X163485000Y-109148061D01*
X171265000Y-109148061D01*
X171265000Y-109351939D01*
X171304774Y-109551898D01*
X171382795Y-109740256D01*
X171496063Y-109909774D01*
X171640226Y-110053937D01*
X171809744Y-110167205D01*
X171998102Y-110245226D01*
X172198061Y-110285000D01*
X172401939Y-110285000D01*
X172601898Y-110245226D01*
X172790256Y-110167205D01*
X172959774Y-110053937D01*
X173103937Y-109909774D01*
X173217205Y-109740256D01*
X173295226Y-109551898D01*
X173335000Y-109351939D01*
X173335000Y-109148061D01*
X173295226Y-108948102D01*
X173217205Y-108759744D01*
X173103937Y-108590226D01*
X172959774Y-108446063D01*
X172790256Y-108332795D01*
X172601898Y-108254774D01*
X172401939Y-108215000D01*
X172198061Y-108215000D01*
X171998102Y-108254774D01*
X171809744Y-108332795D01*
X171640226Y-108446063D01*
X171496063Y-108590226D01*
X171382795Y-108759744D01*
X171304774Y-108948102D01*
X171265000Y-109148061D01*
X163485000Y-109148061D01*
X163485000Y-109098061D01*
X163445226Y-108898102D01*
X163367205Y-108709744D01*
X163253937Y-108540226D01*
X163109774Y-108396063D01*
X162940256Y-108282795D01*
X162751898Y-108204774D01*
X162551939Y-108165000D01*
X162348061Y-108165000D01*
X162148102Y-108204774D01*
X161959744Y-108282795D01*
X161790226Y-108396063D01*
X161646063Y-108540226D01*
X161532795Y-108709744D01*
X161454774Y-108898102D01*
X161415000Y-109098061D01*
X141035068Y-109098061D01*
X141035000Y-109085750D01*
X140876250Y-108927000D01*
X139677000Y-108927000D01*
X139677000Y-108947000D01*
X139423000Y-108947000D01*
X139423000Y-108927000D01*
X138223750Y-108927000D01*
X138065000Y-109085750D01*
X138061928Y-109650000D01*
X138074188Y-109774482D01*
X138110498Y-109894180D01*
X138169463Y-110004494D01*
X138248815Y-110101185D01*
X138345506Y-110180537D01*
X138455820Y-110239502D01*
X138528380Y-110261513D01*
X138396525Y-110393368D01*
X138234010Y-110636589D01*
X138122068Y-110906842D01*
X138065000Y-111193740D01*
X138065000Y-111486260D01*
X138122068Y-111773158D01*
X138234010Y-112043411D01*
X138396525Y-112286632D01*
X138585398Y-112475505D01*
X138418933Y-112508617D01*
X138212376Y-112594176D01*
X138026480Y-112718388D01*
X137868388Y-112876480D01*
X137744176Y-113062376D01*
X137658617Y-113268933D01*
X137615000Y-113488212D01*
X137248500Y-113488212D01*
X137248500Y-107950000D01*
X138061928Y-107950000D01*
X138065000Y-108514250D01*
X138223750Y-108673000D01*
X139423000Y-108673000D01*
X139423000Y-107473750D01*
X139677000Y-107473750D01*
X139677000Y-108673000D01*
X140876250Y-108673000D01*
X141035000Y-108514250D01*
X141038072Y-107950000D01*
X141025812Y-107825518D01*
X140989502Y-107705820D01*
X140930537Y-107595506D01*
X140851185Y-107498815D01*
X140754494Y-107419463D01*
X140644180Y-107360498D01*
X140524482Y-107324188D01*
X140400000Y-107311928D01*
X139835750Y-107315000D01*
X139677000Y-107473750D01*
X139423000Y-107473750D01*
X139264250Y-107315000D01*
X138700000Y-107311928D01*
X138575518Y-107324188D01*
X138455820Y-107360498D01*
X138345506Y-107419463D01*
X138248815Y-107498815D01*
X138169463Y-107595506D01*
X138110498Y-107705820D01*
X138074188Y-107825518D01*
X138061928Y-107950000D01*
X137248500Y-107950000D01*
X137248500Y-105359567D01*
X137423717Y-105534784D01*
X137731210Y-105740244D01*
X138072878Y-105881768D01*
X138435591Y-105953916D01*
X138805409Y-105953916D01*
X139168122Y-105881768D01*
X139509790Y-105740244D01*
X139817283Y-105534784D01*
X140078784Y-105273283D01*
X140284244Y-104965790D01*
X140425768Y-104624122D01*
X140497916Y-104261409D01*
X140497916Y-103891591D01*
X140425768Y-103528878D01*
X140284244Y-103187210D01*
X140078784Y-102879717D01*
X139903567Y-102704500D01*
X144823499Y-102704500D01*
X144795506Y-102719463D01*
G37*
X144795506Y-102719463D02*
X144698815Y-102798815D01*
X144619463Y-102895506D01*
X144560498Y-103005820D01*
X144524188Y-103125518D01*
X144511928Y-103250000D01*
X144511928Y-104950000D01*
X144524188Y-105074482D01*
X144560498Y-105194180D01*
X144619463Y-105304494D01*
X144698815Y-105401185D01*
X144795506Y-105480537D01*
X144905820Y-105539502D01*
X145025518Y-105575812D01*
X145150000Y-105588072D01*
X146850000Y-105588072D01*
X146974482Y-105575812D01*
X147094180Y-105539502D01*
X147204494Y-105480537D01*
X147301185Y-105401185D01*
X147380537Y-105304494D01*
X147439502Y-105194180D01*
X147463966Y-105113534D01*
X147539731Y-105197588D01*
X147773080Y-105371641D01*
X148035901Y-105496825D01*
X148183110Y-105541476D01*
X148413000Y-105420155D01*
X148413000Y-104227000D01*
X148393000Y-104227000D01*
X148393000Y-103973000D01*
X148413000Y-103973000D01*
X148413000Y-103953000D01*
X148667000Y-103953000D01*
X148667000Y-103973000D01*
X148687000Y-103973000D01*
X148687000Y-104227000D01*
X148667000Y-104227000D01*
X148667000Y-105420155D01*
X148896890Y-105541476D01*
X149044099Y-105496825D01*
X149306920Y-105371641D01*
X149540269Y-105197588D01*
X149735178Y-104981355D01*
X149804805Y-104864466D01*
X149926525Y-105046632D01*
X150133368Y-105253475D01*
X150376589Y-105415990D01*
X150646842Y-105527932D01*
X150933740Y-105585000D01*
X151226260Y-105585000D01*
X151513158Y-105527932D01*
X151783411Y-105415990D01*
X152026632Y-105253475D01*
X152233475Y-105046632D01*
X152350000Y-104872240D01*
X152466525Y-105046632D01*
X152673368Y-105253475D01*
X152916589Y-105415990D01*
X153186842Y-105527932D01*
X153473740Y-105585000D01*
X153766260Y-105585000D01*
X154053158Y-105527932D01*
X154323411Y-105415990D01*
X154566632Y-105253475D01*
X154773475Y-105046632D01*
X154935990Y-104803411D01*
X155047932Y-104533158D01*
X155105000Y-104246260D01*
X155105000Y-103953740D01*
X155064474Y-103750000D01*
X165061928Y-103750000D01*
X165061928Y-105450000D01*
X165074188Y-105574482D01*
X165110498Y-105694180D01*
X165169463Y-105804494D01*
X165248815Y-105901185D01*
X165345506Y-105980537D01*
X165455820Y-106039502D01*
X165575518Y-106075812D01*
X165700000Y-106088072D01*
X167400000Y-106088072D01*
X167524482Y-106075812D01*
X167644180Y-106039502D01*
X167754494Y-105980537D01*
X167851185Y-105901185D01*
X167930537Y-105804494D01*
X167989502Y-105694180D01*
X168013966Y-105613534D01*
X168089731Y-105697588D01*
X168323080Y-105871641D01*
X168585901Y-105996825D01*
X168733110Y-106041476D01*
X168963000Y-105920155D01*
X168963000Y-104727000D01*
X168943000Y-104727000D01*
X168943000Y-104473000D01*
X168963000Y-104473000D01*
X168963000Y-103279845D01*
X169217000Y-103279845D01*
X169217000Y-104473000D01*
X169237000Y-104473000D01*
X169237000Y-104727000D01*
X169217000Y-104727000D01*
X169217000Y-105920155D01*
X169446890Y-106041476D01*
X169594099Y-105996825D01*
X169856920Y-105871641D01*
X170090269Y-105697588D01*
X170285178Y-105481355D01*
X170354805Y-105364466D01*
X170476525Y-105546632D01*
X170683368Y-105753475D01*
X170926589Y-105915990D01*
X171196842Y-106027932D01*
X171483740Y-106085000D01*
X171776260Y-106085000D01*
X172063158Y-106027932D01*
X172333411Y-105915990D01*
X172576632Y-105753475D01*
X172783475Y-105546632D01*
X172900000Y-105372240D01*
X173016525Y-105546632D01*
X173223368Y-105753475D01*
X173466589Y-105915990D01*
X173736842Y-106027932D01*
X173814365Y-106043352D01*
X173812376Y-106044176D01*
X173626480Y-106168388D01*
X173468388Y-106326480D01*
X173344176Y-106512376D01*
X173258617Y-106718933D01*
X173215000Y-106938212D01*
X173215000Y-107161788D01*
X173258617Y-107381067D01*
X173344176Y-107587624D01*
X173468388Y-107773520D01*
X173626480Y-107931612D01*
X173812376Y-108055824D01*
X174018933Y-108141383D01*
X174238212Y-108185000D01*
X174461788Y-108185000D01*
X174681067Y-108141383D01*
X174887624Y-108055824D01*
X175073520Y-107931612D01*
X175231612Y-107773520D01*
X175355824Y-107587624D01*
X175441383Y-107381067D01*
X175485000Y-107161788D01*
X175485000Y-106938212D01*
X175441383Y-106718933D01*
X175355824Y-106512376D01*
X175231612Y-106326480D01*
X175073520Y-106168388D01*
X174887624Y-106044176D01*
X174725783Y-105977139D01*
X174873411Y-105915990D01*
X175116632Y-105753475D01*
X175323475Y-105546632D01*
X175485990Y-105303411D01*
X175597932Y-105033158D01*
X175655000Y-104746260D01*
X175655000Y-104453740D01*
X175597932Y-104166842D01*
X175485990Y-103896589D01*
X175323475Y-103653368D01*
X175116632Y-103446525D01*
X174873411Y-103284010D01*
X174603158Y-103172068D01*
X174316260Y-103115000D01*
X174023740Y-103115000D01*
X173736842Y-103172068D01*
X173466589Y-103284010D01*
X173223368Y-103446525D01*
X173016525Y-103653368D01*
X172900000Y-103827760D01*
X172783475Y-103653368D01*
X172576632Y-103446525D01*
X172333411Y-103284010D01*
X172063158Y-103172068D01*
X171776260Y-103115000D01*
X171483740Y-103115000D01*
X171196842Y-103172068D01*
X170926589Y-103284010D01*
X170683368Y-103446525D01*
X170476525Y-103653368D01*
X170354805Y-103835534D01*
X170285178Y-103718645D01*
X170090269Y-103502412D01*
X169856920Y-103328359D01*
X169594099Y-103203175D01*
X169446890Y-103158524D01*
X169217000Y-103279845D01*
X168963000Y-103279845D01*
X168733110Y-103158524D01*
X168585901Y-103203175D01*
X168323080Y-103328359D01*
X168089731Y-103502412D01*
X168013966Y-103586466D01*
X167989502Y-103505820D01*
X167930537Y-103395506D01*
X167851185Y-103298815D01*
X167754494Y-103219463D01*
X167644180Y-103160498D01*
X167524482Y-103124188D01*
X167400000Y-103111928D01*
X165700000Y-103111928D01*
X165575518Y-103124188D01*
X165455820Y-103160498D01*
X165345506Y-103219463D01*
X165248815Y-103298815D01*
X165169463Y-103395506D01*
X165110498Y-103505820D01*
X165074188Y-103625518D01*
X165061928Y-103750000D01*
X155064474Y-103750000D01*
X155047932Y-103666842D01*
X154935990Y-103396589D01*
X154773475Y-103153368D01*
X154566632Y-102946525D01*
X154323411Y-102784010D01*
X154131456Y-102704500D01*
X176389933Y-102704500D01*
X176214716Y-102879717D01*
X176009256Y-103187210D01*
X175867732Y-103528878D01*
X175795584Y-103891591D01*
X175795584Y-104261409D01*
X175867732Y-104624122D01*
X176009256Y-104965790D01*
X176214716Y-105273283D01*
X176476217Y-105534784D01*
X176783710Y-105740244D01*
X177125378Y-105881768D01*
X177488091Y-105953916D01*
X177857909Y-105953916D01*
X178220622Y-105881768D01*
X178562290Y-105740244D01*
X178869783Y-105534784D01*
X179045001Y-105359566D01*
X179045000Y-125272433D01*
X178869783Y-125097216D01*
X178562290Y-124891756D01*
X178220622Y-124750232D01*
X177857909Y-124678084D01*
X177488091Y-124678084D01*
X177125378Y-124750232D01*
X176783710Y-124891756D01*
X176476217Y-125097216D01*
X176214716Y-125358717D01*
X176009256Y-125666210D01*
X175867732Y-126007878D01*
X175795584Y-126370591D01*
X175795584Y-126740409D01*
X175867732Y-127103122D01*
X176009256Y-127444790D01*
X176214716Y-127752283D01*
X176389933Y-127927500D01*
X139903567Y-127927500D01*
X140078784Y-127752283D01*
X140284244Y-127444790D01*
X140425768Y-127103122D01*
X140497916Y-126740409D01*
X140497916Y-126370591D01*
X140425768Y-126007878D01*
X140284244Y-125666210D01*
X140106369Y-125400000D01*
X149511928Y-125400000D01*
X149511928Y-127100000D01*
X149524188Y-127224482D01*
X149560498Y-127344180D01*
X149619463Y-127454494D01*
X149698815Y-127551185D01*
X149795506Y-127630537D01*
X149905820Y-127689502D01*
X150025518Y-127725812D01*
X150150000Y-127738072D01*
X151850000Y-127738072D01*
X151974482Y-127725812D01*
X152094180Y-127689502D01*
X152204494Y-127630537D01*
X152301185Y-127551185D01*
X152380537Y-127454494D01*
X152439502Y-127344180D01*
X152461513Y-127271620D01*
X152593368Y-127403475D01*
X152836589Y-127565990D01*
X153106842Y-127677932D01*
X153393740Y-127735000D01*
X153686260Y-127735000D01*
X153973158Y-127677932D01*
X154243411Y-127565990D01*
X154486632Y-127403475D01*
X154693475Y-127196632D01*
X154810000Y-127022240D01*
X154926525Y-127196632D01*
X155133368Y-127403475D01*
X155376589Y-127565990D01*
X155646842Y-127677932D01*
X155933740Y-127735000D01*
X156226260Y-127735000D01*
X156513158Y-127677932D01*
X156783411Y-127565990D01*
X157026632Y-127403475D01*
X157233475Y-127196632D01*
X157350000Y-127022240D01*
X157466525Y-127196632D01*
X157673368Y-127403475D01*
X157916589Y-127565990D01*
X158186842Y-127677932D01*
X158473740Y-127735000D01*
X158766260Y-127735000D01*
X159053158Y-127677932D01*
X159323411Y-127565990D01*
X159566632Y-127403475D01*
X159773475Y-127196632D01*
X159890000Y-127022240D01*
X160006525Y-127196632D01*
X160213368Y-127403475D01*
X160456589Y-127565990D01*
X160726842Y-127677932D01*
X161013740Y-127735000D01*
X161306260Y-127735000D01*
X161593158Y-127677932D01*
X161863411Y-127565990D01*
X162106632Y-127403475D01*
X162313475Y-127196632D01*
X162430000Y-127022240D01*
X162546525Y-127196632D01*
X162753368Y-127403475D01*
X162996589Y-127565990D01*
X163266842Y-127677932D01*
X163553740Y-127735000D01*
X163846260Y-127735000D01*
X164133158Y-127677932D01*
X164403411Y-127565990D01*
X164646632Y-127403475D01*
X164853475Y-127196632D01*
X164970000Y-127022240D01*
X165086525Y-127196632D01*
X165293368Y-127403475D01*
X165536589Y-127565990D01*
X165806842Y-127677932D01*
X166093740Y-127735000D01*
X166386260Y-127735000D01*
X166673158Y-127677932D01*
X166943411Y-127565990D01*
X167186632Y-127403475D01*
X167393475Y-127196632D01*
X167510000Y-127022240D01*
X167626525Y-127196632D01*
X167833368Y-127403475D01*
X168076589Y-127565990D01*
X168346842Y-127677932D01*
X168633740Y-127735000D01*
X168926260Y-127735000D01*
X169213158Y-127677932D01*
X169483411Y-127565990D01*
X169726632Y-127403475D01*
X169933475Y-127196632D01*
X170055195Y-127014466D01*
X170124822Y-127131355D01*
X170319731Y-127347588D01*
X170553080Y-127521641D01*
X170815901Y-127646825D01*
X170963110Y-127691476D01*
X171193000Y-127570155D01*
X171193000Y-126377000D01*
X171447000Y-126377000D01*
X171447000Y-127570155D01*
X171676890Y-127691476D01*
X171824099Y-127646825D01*
X172086920Y-127521641D01*
X172320269Y-127347588D01*
X172515178Y-127131355D01*
X172664157Y-126881252D01*
X172761481Y-126606891D01*
X172640814Y-126377000D01*
X171447000Y-126377000D01*
X171193000Y-126377000D01*
X171173000Y-126377000D01*
X171173000Y-126123000D01*
X171193000Y-126123000D01*
X171193000Y-124929845D01*
X171447000Y-124929845D01*
X171447000Y-126123000D01*
X172640814Y-126123000D01*
X172761481Y-125893109D01*
X172664157Y-125618748D01*
X172515178Y-125368645D01*
X172320269Y-125152412D01*
X172086920Y-124978359D01*
X171824099Y-124853175D01*
X171676890Y-124808524D01*
X171447000Y-124929845D01*
X171193000Y-124929845D01*
X170963110Y-124808524D01*
X170815901Y-124853175D01*
X170553080Y-124978359D01*
X170319731Y-125152412D01*
X170124822Y-125368645D01*
X170055195Y-125485534D01*
X169933475Y-125303368D01*
X169726632Y-125096525D01*
X169483411Y-124934010D01*
X169213158Y-124822068D01*
X168926260Y-124765000D01*
X168633740Y-124765000D01*
X168346842Y-124822068D01*
X168076589Y-124934010D01*
X167833368Y-125096525D01*
X167626525Y-125303368D01*
X167510000Y-125477760D01*
X167393475Y-125303368D01*
X167186632Y-125096525D01*
X166943411Y-124934010D01*
X166673158Y-124822068D01*
X166386260Y-124765000D01*
X166093740Y-124765000D01*
X165806842Y-124822068D01*
X165536589Y-124934010D01*
X165293368Y-125096525D01*
X165086525Y-125303368D01*
X164970000Y-125477760D01*
X164853475Y-125303368D01*
X164646632Y-125096525D01*
X164403411Y-124934010D01*
X164133158Y-124822068D01*
X163846260Y-124765000D01*
X163553740Y-124765000D01*
X163266842Y-124822068D01*
X162996589Y-124934010D01*
X162753368Y-125096525D01*
X162546525Y-125303368D01*
X162430000Y-125477760D01*
X162313475Y-125303368D01*
X162106632Y-125096525D01*
X161863411Y-124934010D01*
X161593158Y-124822068D01*
X161306260Y-124765000D01*
X161013740Y-124765000D01*
X160726842Y-124822068D01*
X160456589Y-124934010D01*
X160213368Y-125096525D01*
X160006525Y-125303368D01*
X159890000Y-125477760D01*
X159773475Y-125303368D01*
X159566632Y-125096525D01*
X159323411Y-124934010D01*
X159053158Y-124822068D01*
X158766260Y-124765000D01*
X158473740Y-124765000D01*
X158186842Y-124822068D01*
X157916589Y-124934010D01*
X157673368Y-125096525D01*
X157466525Y-125303368D01*
X157350000Y-125477760D01*
X157233475Y-125303368D01*
X157026632Y-125096525D01*
X156783411Y-124934010D01*
X156513158Y-124822068D01*
X156226260Y-124765000D01*
X155933740Y-124765000D01*
X155646842Y-124822068D01*
X155376589Y-124934010D01*
X155133368Y-125096525D01*
X154926525Y-125303368D01*
X154810000Y-125477760D01*
X154693475Y-125303368D01*
X154486632Y-125096525D01*
X154243411Y-124934010D01*
X153973158Y-124822068D01*
X153686260Y-124765000D01*
X153393740Y-124765000D01*
X153106842Y-124822068D01*
X152836589Y-124934010D01*
X152593368Y-125096525D01*
X152461513Y-125228380D01*
X152439502Y-125155820D01*
X152380537Y-125045506D01*
X152301185Y-124948815D01*
X152204494Y-124869463D01*
X152094180Y-124810498D01*
X151974482Y-124774188D01*
X151850000Y-124761928D01*
X150150000Y-124761928D01*
X150025518Y-124774188D01*
X149905820Y-124810498D01*
X149795506Y-124869463D01*
X149698815Y-124948815D01*
X149619463Y-125045506D01*
X149560498Y-125155820D01*
X149524188Y-125275518D01*
X149511928Y-125400000D01*
X140106369Y-125400000D01*
X140078784Y-125358717D01*
X139817283Y-125097216D01*
X139509790Y-124891756D01*
X139168122Y-124750232D01*
X138805409Y-124678084D01*
X138435591Y-124678084D01*
X138072878Y-124750232D01*
X137731210Y-124891756D01*
X137423717Y-125097216D01*
X137248500Y-125272433D01*
X137248500Y-113488212D01*
X137615000Y-113488212D01*
X137615000Y-113711788D01*
X137658617Y-113931067D01*
X137744176Y-114137624D01*
X137868388Y-114323520D01*
X138026480Y-114481612D01*
X138212376Y-114605824D01*
X138247130Y-114620220D01*
X138088359Y-114833080D01*
X137963175Y-115095901D01*
X137918524Y-115243110D01*
X138039845Y-115473000D01*
X139233000Y-115473000D01*
X139233000Y-115453000D01*
X139487000Y-115453000D01*
X139487000Y-115473000D01*
X139507000Y-115473000D01*
X139507000Y-115727000D01*
X139487000Y-115727000D01*
X139487000Y-115747000D01*
X139233000Y-115747000D01*
X139233000Y-115727000D01*
X138039845Y-115727000D01*
X137918524Y-115956890D01*
X137963175Y-116104099D01*
X138088359Y-116366920D01*
X138262412Y-116600269D01*
X138478645Y-116795178D01*
X138595534Y-116864805D01*
X138413368Y-116986525D01*
X138206525Y-117193368D01*
X138044010Y-117436589D01*
X137932068Y-117706842D01*
X137875000Y-117993740D01*
X137875000Y-118286260D01*
X137932068Y-118573158D01*
X138044010Y-118843411D01*
X138206525Y-119086632D01*
X138413368Y-119293475D01*
X138587760Y-119410000D01*
X138413368Y-119526525D01*
X138206525Y-119733368D01*
X138044010Y-119976589D01*
X137932068Y-120246842D01*
X137875000Y-120533740D01*
X137875000Y-120826260D01*
X137932068Y-121113158D01*
X138044010Y-121383411D01*
X138206525Y-121626632D01*
X138413368Y-121833475D01*
X138656589Y-121995990D01*
X138926842Y-122107932D01*
X139213740Y-122165000D01*
X139506260Y-122165000D01*
X139793158Y-122107932D01*
X140063411Y-121995990D01*
X140306632Y-121833475D01*
X140513475Y-121626632D01*
X140630000Y-121452240D01*
X140746525Y-121626632D01*
X140953368Y-121833475D01*
X141196589Y-121995990D01*
X141466842Y-122107932D01*
X141753740Y-122165000D01*
X142046260Y-122165000D01*
X142333158Y-122107932D01*
X142603411Y-121995990D01*
X142846632Y-121833475D01*
X143053475Y-121626632D01*
X143215990Y-121383411D01*
X143251342Y-121298061D01*
X156215000Y-121298061D01*
X156215000Y-121501939D01*
X156254774Y-121701898D01*
X156332795Y-121890256D01*
X156446063Y-122059774D01*
X156590226Y-122203937D01*
X156759744Y-122317205D01*
X156948102Y-122395226D01*
X157148061Y-122435000D01*
X157351939Y-122435000D01*
X157551898Y-122395226D01*
X157740256Y-122317205D01*
X157812585Y-122268877D01*
X157959744Y-122367205D01*
X158148102Y-122445226D01*
X158348061Y-122485000D01*
X158551939Y-122485000D01*
X158751898Y-122445226D01*
X158940256Y-122367205D01*
X159109774Y-122253937D01*
X159253937Y-122109774D01*
X159367205Y-121940256D01*
X159445226Y-121751898D01*
X159485000Y-121551939D01*
X159485000Y-121348061D01*
X159445226Y-121148102D01*
X159367205Y-120959744D01*
X159253937Y-120790226D01*
X159109774Y-120646063D01*
X158940256Y-120532795D01*
X158751898Y-120454774D01*
X158551939Y-120415000D01*
X158348061Y-120415000D01*
X158148102Y-120454774D01*
X157959744Y-120532795D01*
X157887415Y-120581123D01*
X157740256Y-120482795D01*
X157551898Y-120404774D01*
X157351939Y-120365000D01*
X157148061Y-120365000D01*
X156948102Y-120404774D01*
X156759744Y-120482795D01*
X156590226Y-120596063D01*
X156446063Y-120740226D01*
X156332795Y-120909744D01*
X156254774Y-121098102D01*
X156215000Y-121298061D01*
X143251342Y-121298061D01*
X143327932Y-121113158D01*
X143385000Y-120826260D01*
X143385000Y-120533740D01*
X143327932Y-120246842D01*
X143215990Y-119976589D01*
X143053475Y-119733368D01*
X142846632Y-119526525D01*
X142672240Y-119410000D01*
X142846632Y-119293475D01*
X143053475Y-119086632D01*
X143215990Y-118843411D01*
X143327932Y-118573158D01*
X143385000Y-118286260D01*
X143385000Y-118198061D01*
X155915000Y-118198061D01*
X155915000Y-118401939D01*
X155954774Y-118601898D01*
X156032795Y-118790256D01*
X156146063Y-118959774D01*
X156290226Y-119103937D01*
X156459744Y-119217205D01*
X156648102Y-119295226D01*
X156848061Y-119335000D01*
X157051939Y-119335000D01*
X157251898Y-119295226D01*
X157440256Y-119217205D01*
X157468907Y-119198061D01*
X172415000Y-119198061D01*
X172415000Y-119401939D01*
X172454774Y-119601898D01*
X172532795Y-119790256D01*
X172646063Y-119959774D01*
X172790226Y-120103937D01*
X172959744Y-120217205D01*
X173148102Y-120295226D01*
X173348061Y-120335000D01*
X173551939Y-120335000D01*
X173751898Y-120295226D01*
X173940256Y-120217205D01*
X174109774Y-120103937D01*
X174253937Y-119959774D01*
X174367205Y-119790256D01*
X174445226Y-119601898D01*
X174485000Y-119401939D01*
X174485000Y-119198061D01*
X174445226Y-118998102D01*
X174367205Y-118809744D01*
X174253937Y-118640226D01*
X174109774Y-118496063D01*
X173940256Y-118382795D01*
X173751898Y-118304774D01*
X173551939Y-118265000D01*
X173348061Y-118265000D01*
X173148102Y-118304774D01*
X172959744Y-118382795D01*
X172790226Y-118496063D01*
X172646063Y-118640226D01*
X172532795Y-118809744D01*
X172454774Y-118998102D01*
X172415000Y-119198061D01*
X157468907Y-119198061D01*
X157609774Y-119103937D01*
X157753937Y-118959774D01*
X157867205Y-118790256D01*
X157945226Y-118601898D01*
X157985000Y-118401939D01*
X157985000Y-118198061D01*
X157945226Y-117998102D01*
X157867205Y-117809744D01*
X157753937Y-117640226D01*
X157609774Y-117496063D01*
X157440256Y-117382795D01*
X157251898Y-117304774D01*
X157051939Y-117265000D01*
X156848061Y-117265000D01*
X156648102Y-117304774D01*
X156459744Y-117382795D01*
X156290226Y-117496063D01*
X156146063Y-117640226D01*
X156032795Y-117809744D01*
X155954774Y-117998102D01*
X155915000Y-118198061D01*
X143385000Y-118198061D01*
X143385000Y-117993740D01*
X143348989Y-117812700D01*
X143390226Y-117853937D01*
X143559744Y-117967205D01*
X143748102Y-118045226D01*
X143948061Y-118085000D01*
X144151939Y-118085000D01*
X144351898Y-118045226D01*
X144540256Y-117967205D01*
X144709774Y-117853937D01*
X144853937Y-117709774D01*
X144967205Y-117540256D01*
X145045226Y-117351898D01*
X145085000Y-117151939D01*
X145085000Y-116948061D01*
X145045226Y-116748102D01*
X144967205Y-116559744D01*
X144853937Y-116390226D01*
X144709774Y-116246063D01*
X144540256Y-116132795D01*
X144351898Y-116054774D01*
X144151939Y-116015000D01*
X143948061Y-116015000D01*
X143748102Y-116054774D01*
X143559744Y-116132795D01*
X143390226Y-116246063D01*
X143388072Y-116248217D01*
X143388072Y-115093204D01*
X143476480Y-115181612D01*
X143662376Y-115305824D01*
X143868933Y-115391383D01*
X144088212Y-115435000D01*
X144311788Y-115435000D01*
X144531067Y-115391383D01*
X144737624Y-115305824D01*
X144923520Y-115181612D01*
X145081612Y-115023520D01*
X145205824Y-114837624D01*
X145291383Y-114631067D01*
X145335000Y-114411788D01*
X145335000Y-114188212D01*
X145291383Y-113968933D01*
X145205824Y-113762376D01*
X145081612Y-113576480D01*
X144923520Y-113418388D01*
X144737624Y-113294176D01*
X144531067Y-113208617D01*
X144311788Y-113165000D01*
X144088212Y-113165000D01*
X143868933Y-113208617D01*
X143662376Y-113294176D01*
X143476480Y-113418388D01*
X143318388Y-113576480D01*
X143194176Y-113762376D01*
X143108617Y-113968933D01*
X143065000Y-114188212D01*
X143065000Y-114198353D01*
X142994180Y-114160498D01*
X142874482Y-114124188D01*
X142750000Y-114111928D01*
X141050000Y-114111928D01*
X140925518Y-114124188D01*
X140805820Y-114160498D01*
X140695506Y-114219463D01*
X140598815Y-114298815D01*
X140519463Y-114395506D01*
X140460498Y-114505820D01*
X140437502Y-114581626D01*
X140241355Y-114404822D01*
X139991252Y-114255843D01*
X139737078Y-114165680D01*
X139755824Y-114137624D01*
X139841383Y-113931067D01*
X139885000Y-113711788D01*
X139885000Y-113488212D01*
X139841383Y-113268933D01*
X139755824Y-113062376D01*
X139631612Y-112876480D01*
X139580132Y-112825000D01*
X139696260Y-112825000D01*
X139983158Y-112767932D01*
X140175619Y-112688212D01*
X152615000Y-112688212D01*
X152615000Y-112911788D01*
X152658617Y-113131067D01*
X152744176Y-113337624D01*
X152868388Y-113523520D01*
X153026480Y-113681612D01*
X153212376Y-113805824D01*
X153418933Y-113891383D01*
X153638212Y-113935000D01*
X153861788Y-113935000D01*
X154081067Y-113891383D01*
X154226838Y-113831002D01*
X154246063Y-113859774D01*
X154390226Y-114003937D01*
X154559744Y-114117205D01*
X154748102Y-114195226D01*
X154948061Y-114235000D01*
X155151939Y-114235000D01*
X155351898Y-114195226D01*
X155540256Y-114117205D01*
X155709774Y-114003937D01*
X155853937Y-113859774D01*
X155930892Y-113744603D01*
X155990226Y-113803937D01*
X156159744Y-113917205D01*
X156348102Y-113995226D01*
X156548061Y-114035000D01*
X156751939Y-114035000D01*
X156951898Y-113995226D01*
X157140256Y-113917205D01*
X157309774Y-113803937D01*
X157453937Y-113659774D01*
X157567205Y-113490256D01*
X157645226Y-113301898D01*
X157685000Y-113101939D01*
X157685000Y-112938212D01*
X161615000Y-112938212D01*
X161615000Y-113161788D01*
X161658617Y-113381067D01*
X161744176Y-113587624D01*
X161868388Y-113773520D01*
X162026480Y-113931612D01*
X162212376Y-114055824D01*
X162418933Y-114141383D01*
X162638212Y-114185000D01*
X162861788Y-114185000D01*
X163081067Y-114141383D01*
X163287624Y-114055824D01*
X163473520Y-113931612D01*
X163631612Y-113773520D01*
X163755824Y-113587624D01*
X163841383Y-113381067D01*
X163885000Y-113161788D01*
X163885000Y-112938212D01*
X163841383Y-112718933D01*
X163755824Y-112512376D01*
X163631612Y-112326480D01*
X163473520Y-112168388D01*
X163287624Y-112044176D01*
X163081067Y-111958617D01*
X162861788Y-111915000D01*
X162638212Y-111915000D01*
X162418933Y-111958617D01*
X162212376Y-112044176D01*
X162026480Y-112168388D01*
X161868388Y-112326480D01*
X161744176Y-112512376D01*
X161658617Y-112718933D01*
X161615000Y-112938212D01*
X157685000Y-112938212D01*
X157685000Y-112898061D01*
X157645226Y-112698102D01*
X157567205Y-112509744D01*
X157453937Y-112340226D01*
X157309774Y-112196063D01*
X157140256Y-112082795D01*
X156951898Y-112004774D01*
X156751939Y-111965000D01*
X156548061Y-111965000D01*
X156348102Y-112004774D01*
X156159744Y-112082795D01*
X155990226Y-112196063D01*
X155846063Y-112340226D01*
X155769108Y-112455397D01*
X155709774Y-112396063D01*
X155540256Y-112282795D01*
X155351898Y-112204774D01*
X155151939Y-112165000D01*
X154948061Y-112165000D01*
X154748102Y-112204774D01*
X154724005Y-112214755D01*
X154631612Y-112076480D01*
X154473520Y-111918388D01*
X154287624Y-111794176D01*
X154081067Y-111708617D01*
X153861788Y-111665000D01*
X153638212Y-111665000D01*
X153418933Y-111708617D01*
X153212376Y-111794176D01*
X153026480Y-111918388D01*
X152868388Y-112076480D01*
X152744176Y-112262376D01*
X152658617Y-112468933D01*
X152615000Y-112688212D01*
X140175619Y-112688212D01*
X140253411Y-112655990D01*
X140496632Y-112493475D01*
X140703475Y-112286632D01*
X140865990Y-112043411D01*
X140977932Y-111773158D01*
X141002815Y-111648061D01*
X165265000Y-111648061D01*
X165265000Y-111851939D01*
X165304774Y-112051898D01*
X165382795Y-112240256D01*
X165456123Y-112350000D01*
X165382795Y-112459744D01*
X165304774Y-112648102D01*
X165265000Y-112848061D01*
X165265000Y-113051939D01*
X165304774Y-113251898D01*
X165382795Y-113440256D01*
X165496063Y-113609774D01*
X165640226Y-113753937D01*
X165809744Y-113867205D01*
X165998102Y-113945226D01*
X166198061Y-113985000D01*
X166401939Y-113985000D01*
X166601898Y-113945226D01*
X166790256Y-113867205D01*
X166959774Y-113753937D01*
X167103937Y-113609774D01*
X167217205Y-113440256D01*
X167295226Y-113251898D01*
X167335000Y-113051939D01*
X167335000Y-112848061D01*
X167295226Y-112648102D01*
X167217205Y-112459744D01*
X167143877Y-112350000D01*
X167217205Y-112240256D01*
X167295226Y-112051898D01*
X167335000Y-111851939D01*
X167335000Y-111648061D01*
X175315000Y-111648061D01*
X175315000Y-111851939D01*
X175354774Y-112051898D01*
X175432795Y-112240256D01*
X175546063Y-112409774D01*
X175690226Y-112553937D01*
X175859744Y-112667205D01*
X176048102Y-112745226D01*
X176248061Y-112785000D01*
X176451939Y-112785000D01*
X176651898Y-112745226D01*
X176840256Y-112667205D01*
X177009774Y-112553937D01*
X177153937Y-112409774D01*
X177267205Y-112240256D01*
X177345226Y-112051898D01*
X177385000Y-111851939D01*
X177385000Y-111648061D01*
X177345226Y-111448102D01*
X177267205Y-111259744D01*
X177153937Y-111090226D01*
X177009774Y-110946063D01*
X176840256Y-110832795D01*
X176651898Y-110754774D01*
X176451939Y-110715000D01*
X176248061Y-110715000D01*
X176048102Y-110754774D01*
X175859744Y-110832795D01*
X175690226Y-110946063D01*
X175546063Y-111090226D01*
X175432795Y-111259744D01*
X175354774Y-111448102D01*
X175315000Y-111648061D01*
X167335000Y-111648061D01*
X167295226Y-111448102D01*
X167217205Y-111259744D01*
X167103937Y-111090226D01*
X166959774Y-110946063D01*
X166790256Y-110832795D01*
X166601898Y-110754774D01*
X166401939Y-110715000D01*
X166198061Y-110715000D01*
X165998102Y-110754774D01*
X165809744Y-110832795D01*
X165640226Y-110946063D01*
X165496063Y-111090226D01*
X165382795Y-111259744D01*
X165304774Y-111448102D01*
X165265000Y-111648061D01*
X141002815Y-111648061D01*
X141035000Y-111486260D01*
X141035000Y-111193740D01*
X140977932Y-110906842D01*
X140865990Y-110636589D01*
X140703475Y-110393368D01*
X140571620Y-110261513D01*
X140644180Y-110239502D01*
X140754494Y-110180537D01*
X140851185Y-110101185D01*
X140930537Y-110004494D01*
X140989502Y-109894180D01*
X141025812Y-109774482D01*
X141038072Y-109650000D01*
X141035068Y-109098061D01*
X161415000Y-109098061D01*
X161415000Y-109301939D01*
X161454774Y-109501898D01*
X161532795Y-109690256D01*
X161646063Y-109859774D01*
X161790226Y-110003937D01*
X161959744Y-110117205D01*
X162148102Y-110195226D01*
X162348061Y-110235000D01*
X162551939Y-110235000D01*
X162751898Y-110195226D01*
X162940256Y-110117205D01*
X163109774Y-110003937D01*
X163253937Y-109859774D01*
X163367205Y-109690256D01*
X163445226Y-109501898D01*
X163485000Y-109301939D01*
X163485000Y-109148061D01*
X171265000Y-109148061D01*
X171265000Y-109351939D01*
X171304774Y-109551898D01*
X171382795Y-109740256D01*
X171496063Y-109909774D01*
X171640226Y-110053937D01*
X171809744Y-110167205D01*
X171998102Y-110245226D01*
X172198061Y-110285000D01*
X172401939Y-110285000D01*
X172601898Y-110245226D01*
X172790256Y-110167205D01*
X172959774Y-110053937D01*
X173103937Y-109909774D01*
X173217205Y-109740256D01*
X173295226Y-109551898D01*
X173335000Y-109351939D01*
X173335000Y-109148061D01*
X173295226Y-108948102D01*
X173217205Y-108759744D01*
X173103937Y-108590226D01*
X172959774Y-108446063D01*
X172790256Y-108332795D01*
X172601898Y-108254774D01*
X172401939Y-108215000D01*
X172198061Y-108215000D01*
X171998102Y-108254774D01*
X171809744Y-108332795D01*
X171640226Y-108446063D01*
X171496063Y-108590226D01*
X171382795Y-108759744D01*
X171304774Y-108948102D01*
X171265000Y-109148061D01*
X163485000Y-109148061D01*
X163485000Y-109098061D01*
X163445226Y-108898102D01*
X163367205Y-108709744D01*
X163253937Y-108540226D01*
X163109774Y-108396063D01*
X162940256Y-108282795D01*
X162751898Y-108204774D01*
X162551939Y-108165000D01*
X162348061Y-108165000D01*
X162148102Y-108204774D01*
X161959744Y-108282795D01*
X161790226Y-108396063D01*
X161646063Y-108540226D01*
X161532795Y-108709744D01*
X161454774Y-108898102D01*
X161415000Y-109098061D01*
X141035068Y-109098061D01*
X141035000Y-109085750D01*
X140876250Y-108927000D01*
X139677000Y-108927000D01*
X139677000Y-108947000D01*
X139423000Y-108947000D01*
X139423000Y-108927000D01*
X138223750Y-108927000D01*
X138065000Y-109085750D01*
X138061928Y-109650000D01*
X138074188Y-109774482D01*
X138110498Y-109894180D01*
X138169463Y-110004494D01*
X138248815Y-110101185D01*
X138345506Y-110180537D01*
X138455820Y-110239502D01*
X138528380Y-110261513D01*
X138396525Y-110393368D01*
X138234010Y-110636589D01*
X138122068Y-110906842D01*
X138065000Y-111193740D01*
X138065000Y-111486260D01*
X138122068Y-111773158D01*
X138234010Y-112043411D01*
X138396525Y-112286632D01*
X138585398Y-112475505D01*
X138418933Y-112508617D01*
X138212376Y-112594176D01*
X138026480Y-112718388D01*
X137868388Y-112876480D01*
X137744176Y-113062376D01*
X137658617Y-113268933D01*
X137615000Y-113488212D01*
X137248500Y-113488212D01*
X137248500Y-107950000D01*
X138061928Y-107950000D01*
X138065000Y-108514250D01*
X138223750Y-108673000D01*
X139423000Y-108673000D01*
X139423000Y-107473750D01*
X139677000Y-107473750D01*
X139677000Y-108673000D01*
X140876250Y-108673000D01*
X141035000Y-108514250D01*
X141038072Y-107950000D01*
X141025812Y-107825518D01*
X140989502Y-107705820D01*
X140930537Y-107595506D01*
X140851185Y-107498815D01*
X140754494Y-107419463D01*
X140644180Y-107360498D01*
X140524482Y-107324188D01*
X140400000Y-107311928D01*
X139835750Y-107315000D01*
X139677000Y-107473750D01*
X139423000Y-107473750D01*
X139264250Y-107315000D01*
X138700000Y-107311928D01*
X138575518Y-107324188D01*
X138455820Y-107360498D01*
X138345506Y-107419463D01*
X138248815Y-107498815D01*
X138169463Y-107595506D01*
X138110498Y-107705820D01*
X138074188Y-107825518D01*
X138061928Y-107950000D01*
X137248500Y-107950000D01*
X137248500Y-105359567D01*
X137423717Y-105534784D01*
X137731210Y-105740244D01*
X138072878Y-105881768D01*
X138435591Y-105953916D01*
X138805409Y-105953916D01*
X139168122Y-105881768D01*
X139509790Y-105740244D01*
X139817283Y-105534784D01*
X140078784Y-105273283D01*
X140284244Y-104965790D01*
X140425768Y-104624122D01*
X140497916Y-104261409D01*
X140497916Y-103891591D01*
X140425768Y-103528878D01*
X140284244Y-103187210D01*
X140078784Y-102879717D01*
X139903567Y-102704500D01*
X144823499Y-102704500D01*
X144795506Y-102719463D01*
M02*
