G04 #@! TF.GenerationSoftware,KiCad,Pcbnew,(5.1.5)-3*
G04 #@! TF.CreationDate,2020-08-03T01:27:48-04:00*
G04 #@! TF.ProjectId,Arduino Clone,41726475-696e-46f2-9043-6c6f6e652e6b,rev?*
G04 #@! TF.SameCoordinates,Original*
G04 #@! TF.FileFunction,Copper,L1,Top*
G04 #@! TF.FilePolarity,Positive*
%FSLAX46Y46*%
G04 Gerber Fmt 4.6, Leading zero omitted, Abs format (unit mm)*
G04 Created by KiCad (PCBNEW (5.1.5)-3) date 2020-08-03 01:27:48*
%MOMM*%
%LPD*%
G04 APERTURE LIST*
%ADD10O,1.700000X1.700000*%
%ADD11R,1.700000X1.700000*%
%ADD12C,0.100000*%
%ADD13R,1.750000X0.550000*%
%ADD14R,1.700000X0.650000*%
%ADD15R,0.550000X1.500000*%
%ADD16R,1.500000X0.550000*%
%ADD17R,1.800000X1.000000*%
%ADD18R,2.400000X3.500000*%
%ADD19C,1.000000*%
%ADD20C,0.800000*%
%ADD21C,1.000000*%
%ADD22C,0.300000*%
%ADD23C,0.500000*%
%ADD24C,0.250000*%
%ADD25C,0.254000*%
G04 APERTURE END LIST*
D10*
X174170000Y-104600000D03*
X171630000Y-104600000D03*
X169090000Y-104600000D03*
D11*
X166550000Y-104600000D03*
X139550000Y-108800000D03*
D10*
X139550000Y-111340000D03*
G04 #@! TA.AperFunction,SMDPad,CuDef*
D12*
G36*
X143374505Y-125951204D02*
G01*
X143398773Y-125954804D01*
X143422572Y-125960765D01*
X143445671Y-125969030D01*
X143467850Y-125979520D01*
X143488893Y-125992132D01*
X143508599Y-126006747D01*
X143526777Y-126023223D01*
X143543253Y-126041401D01*
X143557868Y-126061107D01*
X143570480Y-126082150D01*
X143580970Y-126104329D01*
X143589235Y-126127428D01*
X143595196Y-126151227D01*
X143598796Y-126175495D01*
X143600000Y-126199999D01*
X143600000Y-126850001D01*
X143598796Y-126874505D01*
X143595196Y-126898773D01*
X143589235Y-126922572D01*
X143580970Y-126945671D01*
X143570480Y-126967850D01*
X143557868Y-126988893D01*
X143543253Y-127008599D01*
X143526777Y-127026777D01*
X143508599Y-127043253D01*
X143488893Y-127057868D01*
X143467850Y-127070480D01*
X143445671Y-127080970D01*
X143422572Y-127089235D01*
X143398773Y-127095196D01*
X143374505Y-127098796D01*
X143350001Y-127100000D01*
X142449999Y-127100000D01*
X142425495Y-127098796D01*
X142401227Y-127095196D01*
X142377428Y-127089235D01*
X142354329Y-127080970D01*
X142332150Y-127070480D01*
X142311107Y-127057868D01*
X142291401Y-127043253D01*
X142273223Y-127026777D01*
X142256747Y-127008599D01*
X142242132Y-126988893D01*
X142229520Y-126967850D01*
X142219030Y-126945671D01*
X142210765Y-126922572D01*
X142204804Y-126898773D01*
X142201204Y-126874505D01*
X142200000Y-126850001D01*
X142200000Y-126199999D01*
X142201204Y-126175495D01*
X142204804Y-126151227D01*
X142210765Y-126127428D01*
X142219030Y-126104329D01*
X142229520Y-126082150D01*
X142242132Y-126061107D01*
X142256747Y-126041401D01*
X142273223Y-126023223D01*
X142291401Y-126006747D01*
X142311107Y-125992132D01*
X142332150Y-125979520D01*
X142354329Y-125969030D01*
X142377428Y-125960765D01*
X142401227Y-125954804D01*
X142425495Y-125951204D01*
X142449999Y-125950000D01*
X143350001Y-125950000D01*
X143374505Y-125951204D01*
G37*
G04 #@! TD.AperFunction*
G04 #@! TA.AperFunction,SMDPad,CuDef*
G36*
X143374505Y-123901204D02*
G01*
X143398773Y-123904804D01*
X143422572Y-123910765D01*
X143445671Y-123919030D01*
X143467850Y-123929520D01*
X143488893Y-123942132D01*
X143508599Y-123956747D01*
X143526777Y-123973223D01*
X143543253Y-123991401D01*
X143557868Y-124011107D01*
X143570480Y-124032150D01*
X143580970Y-124054329D01*
X143589235Y-124077428D01*
X143595196Y-124101227D01*
X143598796Y-124125495D01*
X143600000Y-124149999D01*
X143600000Y-124800001D01*
X143598796Y-124824505D01*
X143595196Y-124848773D01*
X143589235Y-124872572D01*
X143580970Y-124895671D01*
X143570480Y-124917850D01*
X143557868Y-124938893D01*
X143543253Y-124958599D01*
X143526777Y-124976777D01*
X143508599Y-124993253D01*
X143488893Y-125007868D01*
X143467850Y-125020480D01*
X143445671Y-125030970D01*
X143422572Y-125039235D01*
X143398773Y-125045196D01*
X143374505Y-125048796D01*
X143350001Y-125050000D01*
X142449999Y-125050000D01*
X142425495Y-125048796D01*
X142401227Y-125045196D01*
X142377428Y-125039235D01*
X142354329Y-125030970D01*
X142332150Y-125020480D01*
X142311107Y-125007868D01*
X142291401Y-124993253D01*
X142273223Y-124976777D01*
X142256747Y-124958599D01*
X142242132Y-124938893D01*
X142229520Y-124917850D01*
X142219030Y-124895671D01*
X142210765Y-124872572D01*
X142204804Y-124848773D01*
X142201204Y-124824505D01*
X142200000Y-124800001D01*
X142200000Y-124149999D01*
X142201204Y-124125495D01*
X142204804Y-124101227D01*
X142210765Y-124077428D01*
X142219030Y-124054329D01*
X142229520Y-124032150D01*
X142242132Y-124011107D01*
X142256747Y-123991401D01*
X142273223Y-123973223D01*
X142291401Y-123956747D01*
X142311107Y-123942132D01*
X142332150Y-123929520D01*
X142354329Y-123919030D01*
X142377428Y-123910765D01*
X142401227Y-123904804D01*
X142425495Y-123901204D01*
X142449999Y-123900000D01*
X143350001Y-123900000D01*
X143374505Y-123901204D01*
G37*
G04 #@! TD.AperFunction*
G04 #@! TA.AperFunction,SMDPad,CuDef*
G36*
X145824505Y-125951204D02*
G01*
X145848773Y-125954804D01*
X145872572Y-125960765D01*
X145895671Y-125969030D01*
X145917850Y-125979520D01*
X145938893Y-125992132D01*
X145958599Y-126006747D01*
X145976777Y-126023223D01*
X145993253Y-126041401D01*
X146007868Y-126061107D01*
X146020480Y-126082150D01*
X146030970Y-126104329D01*
X146039235Y-126127428D01*
X146045196Y-126151227D01*
X146048796Y-126175495D01*
X146050000Y-126199999D01*
X146050000Y-126850001D01*
X146048796Y-126874505D01*
X146045196Y-126898773D01*
X146039235Y-126922572D01*
X146030970Y-126945671D01*
X146020480Y-126967850D01*
X146007868Y-126988893D01*
X145993253Y-127008599D01*
X145976777Y-127026777D01*
X145958599Y-127043253D01*
X145938893Y-127057868D01*
X145917850Y-127070480D01*
X145895671Y-127080970D01*
X145872572Y-127089235D01*
X145848773Y-127095196D01*
X145824505Y-127098796D01*
X145800001Y-127100000D01*
X144899999Y-127100000D01*
X144875495Y-127098796D01*
X144851227Y-127095196D01*
X144827428Y-127089235D01*
X144804329Y-127080970D01*
X144782150Y-127070480D01*
X144761107Y-127057868D01*
X144741401Y-127043253D01*
X144723223Y-127026777D01*
X144706747Y-127008599D01*
X144692132Y-126988893D01*
X144679520Y-126967850D01*
X144669030Y-126945671D01*
X144660765Y-126922572D01*
X144654804Y-126898773D01*
X144651204Y-126874505D01*
X144650000Y-126850001D01*
X144650000Y-126199999D01*
X144651204Y-126175495D01*
X144654804Y-126151227D01*
X144660765Y-126127428D01*
X144669030Y-126104329D01*
X144679520Y-126082150D01*
X144692132Y-126061107D01*
X144706747Y-126041401D01*
X144723223Y-126023223D01*
X144741401Y-126006747D01*
X144761107Y-125992132D01*
X144782150Y-125979520D01*
X144804329Y-125969030D01*
X144827428Y-125960765D01*
X144851227Y-125954804D01*
X144875495Y-125951204D01*
X144899999Y-125950000D01*
X145800001Y-125950000D01*
X145824505Y-125951204D01*
G37*
G04 #@! TD.AperFunction*
G04 #@! TA.AperFunction,SMDPad,CuDef*
G36*
X145824505Y-123901204D02*
G01*
X145848773Y-123904804D01*
X145872572Y-123910765D01*
X145895671Y-123919030D01*
X145917850Y-123929520D01*
X145938893Y-123942132D01*
X145958599Y-123956747D01*
X145976777Y-123973223D01*
X145993253Y-123991401D01*
X146007868Y-124011107D01*
X146020480Y-124032150D01*
X146030970Y-124054329D01*
X146039235Y-124077428D01*
X146045196Y-124101227D01*
X146048796Y-124125495D01*
X146050000Y-124149999D01*
X146050000Y-124800001D01*
X146048796Y-124824505D01*
X146045196Y-124848773D01*
X146039235Y-124872572D01*
X146030970Y-124895671D01*
X146020480Y-124917850D01*
X146007868Y-124938893D01*
X145993253Y-124958599D01*
X145976777Y-124976777D01*
X145958599Y-124993253D01*
X145938893Y-125007868D01*
X145917850Y-125020480D01*
X145895671Y-125030970D01*
X145872572Y-125039235D01*
X145848773Y-125045196D01*
X145824505Y-125048796D01*
X145800001Y-125050000D01*
X144899999Y-125050000D01*
X144875495Y-125048796D01*
X144851227Y-125045196D01*
X144827428Y-125039235D01*
X144804329Y-125030970D01*
X144782150Y-125020480D01*
X144761107Y-125007868D01*
X144741401Y-124993253D01*
X144723223Y-124976777D01*
X144706747Y-124958599D01*
X144692132Y-124938893D01*
X144679520Y-124917850D01*
X144669030Y-124895671D01*
X144660765Y-124872572D01*
X144654804Y-124848773D01*
X144651204Y-124824505D01*
X144650000Y-124800001D01*
X144650000Y-124149999D01*
X144651204Y-124125495D01*
X144654804Y-124101227D01*
X144660765Y-124077428D01*
X144669030Y-124054329D01*
X144679520Y-124032150D01*
X144692132Y-124011107D01*
X144706747Y-123991401D01*
X144723223Y-123973223D01*
X144741401Y-123956747D01*
X144761107Y-123942132D01*
X144782150Y-123929520D01*
X144804329Y-123919030D01*
X144827428Y-123910765D01*
X144851227Y-123904804D01*
X144875495Y-123901204D01*
X144899999Y-123900000D01*
X145800001Y-123900000D01*
X145824505Y-123901204D01*
G37*
G04 #@! TD.AperFunction*
G04 #@! TA.AperFunction,SMDPad,CuDef*
G36*
X143474505Y-108451204D02*
G01*
X143498773Y-108454804D01*
X143522572Y-108460765D01*
X143545671Y-108469030D01*
X143567850Y-108479520D01*
X143588893Y-108492132D01*
X143608599Y-108506747D01*
X143626777Y-108523223D01*
X143643253Y-108541401D01*
X143657868Y-108561107D01*
X143670480Y-108582150D01*
X143680970Y-108604329D01*
X143689235Y-108627428D01*
X143695196Y-108651227D01*
X143698796Y-108675495D01*
X143700000Y-108699999D01*
X143700000Y-109350001D01*
X143698796Y-109374505D01*
X143695196Y-109398773D01*
X143689235Y-109422572D01*
X143680970Y-109445671D01*
X143670480Y-109467850D01*
X143657868Y-109488893D01*
X143643253Y-109508599D01*
X143626777Y-109526777D01*
X143608599Y-109543253D01*
X143588893Y-109557868D01*
X143567850Y-109570480D01*
X143545671Y-109580970D01*
X143522572Y-109589235D01*
X143498773Y-109595196D01*
X143474505Y-109598796D01*
X143450001Y-109600000D01*
X142549999Y-109600000D01*
X142525495Y-109598796D01*
X142501227Y-109595196D01*
X142477428Y-109589235D01*
X142454329Y-109580970D01*
X142432150Y-109570480D01*
X142411107Y-109557868D01*
X142391401Y-109543253D01*
X142373223Y-109526777D01*
X142356747Y-109508599D01*
X142342132Y-109488893D01*
X142329520Y-109467850D01*
X142319030Y-109445671D01*
X142310765Y-109422572D01*
X142304804Y-109398773D01*
X142301204Y-109374505D01*
X142300000Y-109350001D01*
X142300000Y-108699999D01*
X142301204Y-108675495D01*
X142304804Y-108651227D01*
X142310765Y-108627428D01*
X142319030Y-108604329D01*
X142329520Y-108582150D01*
X142342132Y-108561107D01*
X142356747Y-108541401D01*
X142373223Y-108523223D01*
X142391401Y-108506747D01*
X142411107Y-108492132D01*
X142432150Y-108479520D01*
X142454329Y-108469030D01*
X142477428Y-108460765D01*
X142501227Y-108454804D01*
X142525495Y-108451204D01*
X142549999Y-108450000D01*
X143450001Y-108450000D01*
X143474505Y-108451204D01*
G37*
G04 #@! TD.AperFunction*
G04 #@! TA.AperFunction,SMDPad,CuDef*
G36*
X143474505Y-110501204D02*
G01*
X143498773Y-110504804D01*
X143522572Y-110510765D01*
X143545671Y-110519030D01*
X143567850Y-110529520D01*
X143588893Y-110542132D01*
X143608599Y-110556747D01*
X143626777Y-110573223D01*
X143643253Y-110591401D01*
X143657868Y-110611107D01*
X143670480Y-110632150D01*
X143680970Y-110654329D01*
X143689235Y-110677428D01*
X143695196Y-110701227D01*
X143698796Y-110725495D01*
X143700000Y-110749999D01*
X143700000Y-111400001D01*
X143698796Y-111424505D01*
X143695196Y-111448773D01*
X143689235Y-111472572D01*
X143680970Y-111495671D01*
X143670480Y-111517850D01*
X143657868Y-111538893D01*
X143643253Y-111558599D01*
X143626777Y-111576777D01*
X143608599Y-111593253D01*
X143588893Y-111607868D01*
X143567850Y-111620480D01*
X143545671Y-111630970D01*
X143522572Y-111639235D01*
X143498773Y-111645196D01*
X143474505Y-111648796D01*
X143450001Y-111650000D01*
X142549999Y-111650000D01*
X142525495Y-111648796D01*
X142501227Y-111645196D01*
X142477428Y-111639235D01*
X142454329Y-111630970D01*
X142432150Y-111620480D01*
X142411107Y-111607868D01*
X142391401Y-111593253D01*
X142373223Y-111576777D01*
X142356747Y-111558599D01*
X142342132Y-111538893D01*
X142329520Y-111517850D01*
X142319030Y-111495671D01*
X142310765Y-111472572D01*
X142304804Y-111448773D01*
X142301204Y-111424505D01*
X142300000Y-111400001D01*
X142300000Y-110749999D01*
X142301204Y-110725495D01*
X142304804Y-110701227D01*
X142310765Y-110677428D01*
X142319030Y-110654329D01*
X142329520Y-110632150D01*
X142342132Y-110611107D01*
X142356747Y-110591401D01*
X142373223Y-110573223D01*
X142391401Y-110556747D01*
X142411107Y-110542132D01*
X142432150Y-110529520D01*
X142454329Y-110519030D01*
X142477428Y-110510765D01*
X142501227Y-110504804D01*
X142525495Y-110501204D01*
X142549999Y-110500000D01*
X143450001Y-110500000D01*
X143474505Y-110501204D01*
G37*
G04 #@! TD.AperFunction*
G04 #@! TA.AperFunction,SMDPad,CuDef*
G36*
X162724505Y-117601204D02*
G01*
X162748773Y-117604804D01*
X162772572Y-117610765D01*
X162795671Y-117619030D01*
X162817850Y-117629520D01*
X162838893Y-117642132D01*
X162858599Y-117656747D01*
X162876777Y-117673223D01*
X162893253Y-117691401D01*
X162907868Y-117711107D01*
X162920480Y-117732150D01*
X162930970Y-117754329D01*
X162939235Y-117777428D01*
X162945196Y-117801227D01*
X162948796Y-117825495D01*
X162950000Y-117849999D01*
X162950000Y-118750001D01*
X162948796Y-118774505D01*
X162945196Y-118798773D01*
X162939235Y-118822572D01*
X162930970Y-118845671D01*
X162920480Y-118867850D01*
X162907868Y-118888893D01*
X162893253Y-118908599D01*
X162876777Y-118926777D01*
X162858599Y-118943253D01*
X162838893Y-118957868D01*
X162817850Y-118970480D01*
X162795671Y-118980970D01*
X162772572Y-118989235D01*
X162748773Y-118995196D01*
X162724505Y-118998796D01*
X162700001Y-119000000D01*
X162049999Y-119000000D01*
X162025495Y-118998796D01*
X162001227Y-118995196D01*
X161977428Y-118989235D01*
X161954329Y-118980970D01*
X161932150Y-118970480D01*
X161911107Y-118957868D01*
X161891401Y-118943253D01*
X161873223Y-118926777D01*
X161856747Y-118908599D01*
X161842132Y-118888893D01*
X161829520Y-118867850D01*
X161819030Y-118845671D01*
X161810765Y-118822572D01*
X161804804Y-118798773D01*
X161801204Y-118774505D01*
X161800000Y-118750001D01*
X161800000Y-117849999D01*
X161801204Y-117825495D01*
X161804804Y-117801227D01*
X161810765Y-117777428D01*
X161819030Y-117754329D01*
X161829520Y-117732150D01*
X161842132Y-117711107D01*
X161856747Y-117691401D01*
X161873223Y-117673223D01*
X161891401Y-117656747D01*
X161911107Y-117642132D01*
X161932150Y-117629520D01*
X161954329Y-117619030D01*
X161977428Y-117610765D01*
X162001227Y-117604804D01*
X162025495Y-117601204D01*
X162049999Y-117600000D01*
X162700001Y-117600000D01*
X162724505Y-117601204D01*
G37*
G04 #@! TD.AperFunction*
G04 #@! TA.AperFunction,SMDPad,CuDef*
G36*
X160674505Y-117601204D02*
G01*
X160698773Y-117604804D01*
X160722572Y-117610765D01*
X160745671Y-117619030D01*
X160767850Y-117629520D01*
X160788893Y-117642132D01*
X160808599Y-117656747D01*
X160826777Y-117673223D01*
X160843253Y-117691401D01*
X160857868Y-117711107D01*
X160870480Y-117732150D01*
X160880970Y-117754329D01*
X160889235Y-117777428D01*
X160895196Y-117801227D01*
X160898796Y-117825495D01*
X160900000Y-117849999D01*
X160900000Y-118750001D01*
X160898796Y-118774505D01*
X160895196Y-118798773D01*
X160889235Y-118822572D01*
X160880970Y-118845671D01*
X160870480Y-118867850D01*
X160857868Y-118888893D01*
X160843253Y-118908599D01*
X160826777Y-118926777D01*
X160808599Y-118943253D01*
X160788893Y-118957868D01*
X160767850Y-118970480D01*
X160745671Y-118980970D01*
X160722572Y-118989235D01*
X160698773Y-118995196D01*
X160674505Y-118998796D01*
X160650001Y-119000000D01*
X159999999Y-119000000D01*
X159975495Y-118998796D01*
X159951227Y-118995196D01*
X159927428Y-118989235D01*
X159904329Y-118980970D01*
X159882150Y-118970480D01*
X159861107Y-118957868D01*
X159841401Y-118943253D01*
X159823223Y-118926777D01*
X159806747Y-118908599D01*
X159792132Y-118888893D01*
X159779520Y-118867850D01*
X159769030Y-118845671D01*
X159760765Y-118822572D01*
X159754804Y-118798773D01*
X159751204Y-118774505D01*
X159750000Y-118750001D01*
X159750000Y-117849999D01*
X159751204Y-117825495D01*
X159754804Y-117801227D01*
X159760765Y-117777428D01*
X159769030Y-117754329D01*
X159779520Y-117732150D01*
X159792132Y-117711107D01*
X159806747Y-117691401D01*
X159823223Y-117673223D01*
X159841401Y-117656747D01*
X159861107Y-117642132D01*
X159882150Y-117629520D01*
X159904329Y-117619030D01*
X159927428Y-117610765D01*
X159951227Y-117604804D01*
X159975495Y-117601204D01*
X159999999Y-117600000D01*
X160650001Y-117600000D01*
X160674505Y-117601204D01*
G37*
G04 #@! TD.AperFunction*
D11*
X141900000Y-115600000D03*
D10*
X139360000Y-115600000D03*
X141900000Y-118140000D03*
X139360000Y-118140000D03*
X141900000Y-120680000D03*
X139360000Y-120680000D03*
G04 #@! TA.AperFunction,SMDPad,CuDef*
D12*
G36*
X160674505Y-119801204D02*
G01*
X160698773Y-119804804D01*
X160722572Y-119810765D01*
X160745671Y-119819030D01*
X160767850Y-119829520D01*
X160788893Y-119842132D01*
X160808599Y-119856747D01*
X160826777Y-119873223D01*
X160843253Y-119891401D01*
X160857868Y-119911107D01*
X160870480Y-119932150D01*
X160880970Y-119954329D01*
X160889235Y-119977428D01*
X160895196Y-120001227D01*
X160898796Y-120025495D01*
X160900000Y-120049999D01*
X160900000Y-120950001D01*
X160898796Y-120974505D01*
X160895196Y-120998773D01*
X160889235Y-121022572D01*
X160880970Y-121045671D01*
X160870480Y-121067850D01*
X160857868Y-121088893D01*
X160843253Y-121108599D01*
X160826777Y-121126777D01*
X160808599Y-121143253D01*
X160788893Y-121157868D01*
X160767850Y-121170480D01*
X160745671Y-121180970D01*
X160722572Y-121189235D01*
X160698773Y-121195196D01*
X160674505Y-121198796D01*
X160650001Y-121200000D01*
X159999999Y-121200000D01*
X159975495Y-121198796D01*
X159951227Y-121195196D01*
X159927428Y-121189235D01*
X159904329Y-121180970D01*
X159882150Y-121170480D01*
X159861107Y-121157868D01*
X159841401Y-121143253D01*
X159823223Y-121126777D01*
X159806747Y-121108599D01*
X159792132Y-121088893D01*
X159779520Y-121067850D01*
X159769030Y-121045671D01*
X159760765Y-121022572D01*
X159754804Y-120998773D01*
X159751204Y-120974505D01*
X159750000Y-120950001D01*
X159750000Y-120049999D01*
X159751204Y-120025495D01*
X159754804Y-120001227D01*
X159760765Y-119977428D01*
X159769030Y-119954329D01*
X159779520Y-119932150D01*
X159792132Y-119911107D01*
X159806747Y-119891401D01*
X159823223Y-119873223D01*
X159841401Y-119856747D01*
X159861107Y-119842132D01*
X159882150Y-119829520D01*
X159904329Y-119819030D01*
X159927428Y-119810765D01*
X159951227Y-119804804D01*
X159975495Y-119801204D01*
X159999999Y-119800000D01*
X160650001Y-119800000D01*
X160674505Y-119801204D01*
G37*
G04 #@! TD.AperFunction*
G04 #@! TA.AperFunction,SMDPad,CuDef*
G36*
X162724505Y-119801204D02*
G01*
X162748773Y-119804804D01*
X162772572Y-119810765D01*
X162795671Y-119819030D01*
X162817850Y-119829520D01*
X162838893Y-119842132D01*
X162858599Y-119856747D01*
X162876777Y-119873223D01*
X162893253Y-119891401D01*
X162907868Y-119911107D01*
X162920480Y-119932150D01*
X162930970Y-119954329D01*
X162939235Y-119977428D01*
X162945196Y-120001227D01*
X162948796Y-120025495D01*
X162950000Y-120049999D01*
X162950000Y-120950001D01*
X162948796Y-120974505D01*
X162945196Y-120998773D01*
X162939235Y-121022572D01*
X162930970Y-121045671D01*
X162920480Y-121067850D01*
X162907868Y-121088893D01*
X162893253Y-121108599D01*
X162876777Y-121126777D01*
X162858599Y-121143253D01*
X162838893Y-121157868D01*
X162817850Y-121170480D01*
X162795671Y-121180970D01*
X162772572Y-121189235D01*
X162748773Y-121195196D01*
X162724505Y-121198796D01*
X162700001Y-121200000D01*
X162049999Y-121200000D01*
X162025495Y-121198796D01*
X162001227Y-121195196D01*
X161977428Y-121189235D01*
X161954329Y-121180970D01*
X161932150Y-121170480D01*
X161911107Y-121157868D01*
X161891401Y-121143253D01*
X161873223Y-121126777D01*
X161856747Y-121108599D01*
X161842132Y-121088893D01*
X161829520Y-121067850D01*
X161819030Y-121045671D01*
X161810765Y-121022572D01*
X161804804Y-120998773D01*
X161801204Y-120974505D01*
X161800000Y-120950001D01*
X161800000Y-120049999D01*
X161801204Y-120025495D01*
X161804804Y-120001227D01*
X161810765Y-119977428D01*
X161819030Y-119954329D01*
X161829520Y-119932150D01*
X161842132Y-119911107D01*
X161856747Y-119891401D01*
X161873223Y-119873223D01*
X161891401Y-119856747D01*
X161911107Y-119842132D01*
X161932150Y-119829520D01*
X161954329Y-119819030D01*
X161977428Y-119810765D01*
X162001227Y-119804804D01*
X162025495Y-119801204D01*
X162049999Y-119800000D01*
X162700001Y-119800000D01*
X162724505Y-119801204D01*
G37*
G04 #@! TD.AperFunction*
G04 #@! TA.AperFunction,SMDPad,CuDef*
G36*
X154774505Y-108251204D02*
G01*
X154798773Y-108254804D01*
X154822572Y-108260765D01*
X154845671Y-108269030D01*
X154867850Y-108279520D01*
X154888893Y-108292132D01*
X154908599Y-108306747D01*
X154926777Y-108323223D01*
X154943253Y-108341401D01*
X154957868Y-108361107D01*
X154970480Y-108382150D01*
X154980970Y-108404329D01*
X154989235Y-108427428D01*
X154995196Y-108451227D01*
X154998796Y-108475495D01*
X155000000Y-108499999D01*
X155000000Y-109400001D01*
X154998796Y-109424505D01*
X154995196Y-109448773D01*
X154989235Y-109472572D01*
X154980970Y-109495671D01*
X154970480Y-109517850D01*
X154957868Y-109538893D01*
X154943253Y-109558599D01*
X154926777Y-109576777D01*
X154908599Y-109593253D01*
X154888893Y-109607868D01*
X154867850Y-109620480D01*
X154845671Y-109630970D01*
X154822572Y-109639235D01*
X154798773Y-109645196D01*
X154774505Y-109648796D01*
X154750001Y-109650000D01*
X154099999Y-109650000D01*
X154075495Y-109648796D01*
X154051227Y-109645196D01*
X154027428Y-109639235D01*
X154004329Y-109630970D01*
X153982150Y-109620480D01*
X153961107Y-109607868D01*
X153941401Y-109593253D01*
X153923223Y-109576777D01*
X153906747Y-109558599D01*
X153892132Y-109538893D01*
X153879520Y-109517850D01*
X153869030Y-109495671D01*
X153860765Y-109472572D01*
X153854804Y-109448773D01*
X153851204Y-109424505D01*
X153850000Y-109400001D01*
X153850000Y-108499999D01*
X153851204Y-108475495D01*
X153854804Y-108451227D01*
X153860765Y-108427428D01*
X153869030Y-108404329D01*
X153879520Y-108382150D01*
X153892132Y-108361107D01*
X153906747Y-108341401D01*
X153923223Y-108323223D01*
X153941401Y-108306747D01*
X153961107Y-108292132D01*
X153982150Y-108279520D01*
X154004329Y-108269030D01*
X154027428Y-108260765D01*
X154051227Y-108254804D01*
X154075495Y-108251204D01*
X154099999Y-108250000D01*
X154750001Y-108250000D01*
X154774505Y-108251204D01*
G37*
G04 #@! TD.AperFunction*
G04 #@! TA.AperFunction,SMDPad,CuDef*
G36*
X156824505Y-108251204D02*
G01*
X156848773Y-108254804D01*
X156872572Y-108260765D01*
X156895671Y-108269030D01*
X156917850Y-108279520D01*
X156938893Y-108292132D01*
X156958599Y-108306747D01*
X156976777Y-108323223D01*
X156993253Y-108341401D01*
X157007868Y-108361107D01*
X157020480Y-108382150D01*
X157030970Y-108404329D01*
X157039235Y-108427428D01*
X157045196Y-108451227D01*
X157048796Y-108475495D01*
X157050000Y-108499999D01*
X157050000Y-109400001D01*
X157048796Y-109424505D01*
X157045196Y-109448773D01*
X157039235Y-109472572D01*
X157030970Y-109495671D01*
X157020480Y-109517850D01*
X157007868Y-109538893D01*
X156993253Y-109558599D01*
X156976777Y-109576777D01*
X156958599Y-109593253D01*
X156938893Y-109607868D01*
X156917850Y-109620480D01*
X156895671Y-109630970D01*
X156872572Y-109639235D01*
X156848773Y-109645196D01*
X156824505Y-109648796D01*
X156800001Y-109650000D01*
X156149999Y-109650000D01*
X156125495Y-109648796D01*
X156101227Y-109645196D01*
X156077428Y-109639235D01*
X156054329Y-109630970D01*
X156032150Y-109620480D01*
X156011107Y-109607868D01*
X155991401Y-109593253D01*
X155973223Y-109576777D01*
X155956747Y-109558599D01*
X155942132Y-109538893D01*
X155929520Y-109517850D01*
X155919030Y-109495671D01*
X155910765Y-109472572D01*
X155904804Y-109448773D01*
X155901204Y-109424505D01*
X155900000Y-109400001D01*
X155900000Y-108499999D01*
X155901204Y-108475495D01*
X155904804Y-108451227D01*
X155910765Y-108427428D01*
X155919030Y-108404329D01*
X155929520Y-108382150D01*
X155942132Y-108361107D01*
X155956747Y-108341401D01*
X155973223Y-108323223D01*
X155991401Y-108306747D01*
X156011107Y-108292132D01*
X156032150Y-108279520D01*
X156054329Y-108269030D01*
X156077428Y-108260765D01*
X156101227Y-108254804D01*
X156125495Y-108251204D01*
X156149999Y-108250000D01*
X156800001Y-108250000D01*
X156824505Y-108251204D01*
G37*
G04 #@! TD.AperFunction*
D13*
X167700000Y-116745000D03*
X167700000Y-118015000D03*
X167700000Y-119285000D03*
X167700000Y-120555000D03*
X175100000Y-120555000D03*
X175100000Y-119285000D03*
X175100000Y-118015000D03*
X175100000Y-116745000D03*
D14*
X160850000Y-109195000D03*
X160850000Y-110465000D03*
X160850000Y-111735000D03*
X160850000Y-113005000D03*
X168150000Y-113005000D03*
X168150000Y-111735000D03*
X168150000Y-110465000D03*
X168150000Y-109195000D03*
X178050000Y-109195000D03*
X178050000Y-110465000D03*
X178050000Y-111735000D03*
X178050000Y-113005000D03*
X170750000Y-113005000D03*
X170750000Y-111735000D03*
X170750000Y-110465000D03*
X170750000Y-109195000D03*
D15*
X151350000Y-119650000D03*
D16*
X149950000Y-112650000D03*
X149950000Y-113450000D03*
X149950000Y-114250000D03*
X149950000Y-115050000D03*
X149950000Y-115850000D03*
X149950000Y-116650000D03*
X149950000Y-117450000D03*
X149950000Y-118250000D03*
D15*
X152150000Y-119650000D03*
X152950000Y-119650000D03*
X153750000Y-119650000D03*
X154550000Y-119650000D03*
X155350000Y-119650000D03*
X156150000Y-119650000D03*
X156950000Y-119650000D03*
D16*
X158350000Y-118250000D03*
X158350000Y-117450000D03*
X158350000Y-116650000D03*
X158350000Y-115850000D03*
X158350000Y-115050000D03*
X158350000Y-114250000D03*
X158350000Y-113450000D03*
X158350000Y-112650000D03*
D15*
X156950000Y-111250000D03*
X156150000Y-111250000D03*
X155350000Y-111250000D03*
X154550000Y-111250000D03*
X153750000Y-111250000D03*
X152950000Y-111250000D03*
X152150000Y-111250000D03*
X151350000Y-111250000D03*
D17*
X164550000Y-118500000D03*
X164550000Y-116000000D03*
D18*
X146450000Y-120600000D03*
X146450000Y-115400000D03*
D11*
X146000000Y-104100000D03*
D10*
X148540000Y-104100000D03*
X151080000Y-104100000D03*
X153620000Y-104100000D03*
D11*
X151000000Y-126250000D03*
D10*
X153540000Y-126250000D03*
X156080000Y-126250000D03*
X158620000Y-126250000D03*
X161160000Y-126250000D03*
X163700000Y-126250000D03*
X166240000Y-126250000D03*
X168780000Y-126250000D03*
X171320000Y-126250000D03*
D19*
X169500000Y-119250000D03*
X173300000Y-116800000D03*
X176600000Y-109250000D03*
X172650000Y-111750000D03*
X166600000Y-109250000D03*
X162650000Y-111700000D03*
X162750000Y-113050000D03*
X156900000Y-115900000D03*
X151350000Y-115050000D03*
X157800000Y-109050000D03*
X156600000Y-117250000D03*
X151350000Y-116600000D03*
D20*
X156950000Y-118300000D03*
X166300000Y-112950000D03*
X166300000Y-111750000D03*
X176350000Y-111750000D03*
X155050000Y-113200000D03*
X156650000Y-113000000D03*
X162450000Y-109200000D03*
X172300000Y-109250000D03*
D19*
X144200000Y-114300000D03*
X138750000Y-113600000D03*
D20*
X158450000Y-121450000D03*
X157250000Y-121400000D03*
X144050000Y-117050000D03*
D19*
X174350000Y-107050000D03*
D20*
X173450000Y-119300000D03*
D19*
X153750000Y-112800000D03*
D21*
X142775000Y-108800000D02*
X143000000Y-109025000D01*
X139550000Y-108800000D02*
X142775000Y-108800000D01*
D22*
X143700000Y-111075000D02*
X143000000Y-111075000D01*
X145725000Y-111075000D02*
X143700000Y-111075000D01*
X148900000Y-114250000D02*
X145725000Y-111075000D01*
X149950000Y-114250000D02*
X148900000Y-114250000D01*
D21*
X167735000Y-119250000D02*
X167700000Y-119285000D01*
X169500000Y-119250000D02*
X167735000Y-119250000D01*
X175045000Y-116800000D02*
X175100000Y-116745000D01*
X173300000Y-116800000D02*
X175045000Y-116800000D01*
D23*
X151350000Y-115050000D02*
X149950000Y-115050000D01*
X150000000Y-116600000D02*
X149950000Y-116650000D01*
X151350000Y-116600000D02*
X150000000Y-116600000D01*
X158300000Y-115900000D02*
X158350000Y-115850000D01*
X156900000Y-115900000D02*
X158300000Y-115900000D01*
D21*
X156575000Y-109050000D02*
X156475000Y-108950000D01*
X157800000Y-109050000D02*
X156575000Y-109050000D01*
X161035000Y-111700000D02*
X161000000Y-111735000D01*
X162650000Y-111700000D02*
X161035000Y-111700000D01*
X168245000Y-109250000D02*
X168300000Y-109195000D01*
X166600000Y-109250000D02*
X168245000Y-109250000D01*
X170965000Y-111750000D02*
X170950000Y-111735000D01*
X172650000Y-111750000D02*
X170965000Y-111750000D01*
X178195000Y-109250000D02*
X178250000Y-109195000D01*
X176600000Y-109250000D02*
X178195000Y-109250000D01*
D23*
X156800000Y-117450000D02*
X158350000Y-117450000D01*
X156600000Y-117250000D02*
X156800000Y-117450000D01*
D21*
X161045000Y-113050000D02*
X161000000Y-113005000D01*
X162750000Y-113050000D02*
X161045000Y-113050000D01*
D23*
X159550001Y-114304999D02*
X160850000Y-113005000D01*
X160850000Y-113005000D02*
X161000000Y-113005000D01*
X158955000Y-115050000D02*
X159029999Y-114975001D01*
X159550001Y-114885001D02*
X159550001Y-114304999D01*
X158350000Y-115050000D02*
X158955000Y-115050000D01*
X159029999Y-114975001D02*
X159460001Y-114975001D01*
X159460001Y-114975001D02*
X159550001Y-114885001D01*
D22*
X139360000Y-121882081D02*
X139360000Y-120680000D01*
X139360000Y-123685000D02*
X139360000Y-121882081D01*
X142200000Y-126525000D02*
X139360000Y-123685000D01*
X142900000Y-126525000D02*
X142200000Y-126525000D01*
X148849999Y-115605001D02*
X148849999Y-114300001D01*
X148849999Y-114300001D02*
X148900000Y-114250000D01*
X149094998Y-115850000D02*
X148849999Y-115605001D01*
X149950000Y-115850000D02*
X149094998Y-115850000D01*
X144950000Y-115400000D02*
X146450000Y-115400000D01*
X144849990Y-115500010D02*
X144950000Y-115400000D01*
X142900000Y-123900000D02*
X144849990Y-121950010D01*
X144849990Y-121950010D02*
X144849990Y-115500010D01*
X142900000Y-124475000D02*
X142900000Y-123900000D01*
X148900000Y-117450000D02*
X149950000Y-117450000D01*
X147950000Y-117450000D02*
X148900000Y-117450000D01*
X146450000Y-115950000D02*
X147950000Y-117450000D01*
X146450000Y-115400000D02*
X146450000Y-115950000D01*
X145350000Y-121700000D02*
X146450000Y-120600000D01*
X145350000Y-124475000D02*
X145350000Y-121700000D01*
X146750000Y-118250000D02*
X148900000Y-118250000D01*
X148900000Y-118250000D02*
X149950000Y-118250000D01*
X146450000Y-118550000D02*
X146750000Y-118250000D01*
X146450000Y-120600000D02*
X146450000Y-118550000D01*
X162375000Y-120500000D02*
X162375000Y-118300000D01*
X173465000Y-119285000D02*
X173450000Y-119300000D01*
X175100000Y-119285000D02*
X173465000Y-119285000D01*
X160275000Y-118250000D02*
X160325000Y-118300000D01*
X158350000Y-118250000D02*
X160275000Y-118250000D01*
X173050001Y-118900001D02*
X173450000Y-119300000D01*
X162775001Y-115149999D02*
X169299999Y-115149999D01*
X160325000Y-117600000D02*
X162775001Y-115149999D01*
X169299999Y-115149999D02*
X173050001Y-118900001D01*
X160325000Y-118300000D02*
X160325000Y-117600000D01*
X142960000Y-118140000D02*
X144050000Y-117050000D01*
X141900000Y-118140000D02*
X142960000Y-118140000D01*
X174350000Y-104780000D02*
X174350000Y-107050000D01*
X174170000Y-104600000D02*
X174350000Y-104780000D01*
X156950000Y-118300000D02*
X158300000Y-118300000D01*
X158300000Y-118300000D02*
X158350000Y-118250000D01*
X152950000Y-110200000D02*
X152950000Y-111250000D01*
X152950000Y-105972081D02*
X152950000Y-110200000D01*
X153620000Y-105302081D02*
X152950000Y-105972081D01*
X153620000Y-104100000D02*
X153620000Y-105302081D01*
X152150000Y-105170000D02*
X151080000Y-104100000D01*
X152150000Y-111250000D02*
X152150000Y-105170000D01*
X151350000Y-110200000D02*
X151350000Y-111250000D01*
X137750000Y-106050000D02*
X147200000Y-106050000D01*
X147200000Y-106050000D02*
X151350000Y-110200000D01*
X137028580Y-106771420D02*
X137750000Y-106050000D01*
X151000000Y-126250000D02*
X151000000Y-127400000D01*
X150187510Y-128212490D02*
X137104670Y-128212490D01*
X151000000Y-127400000D02*
X150187510Y-128212490D01*
X137028580Y-128136400D02*
X137028580Y-106771420D01*
X137104670Y-128212490D02*
X137028580Y-128136400D01*
X142023159Y-127712480D02*
X137700000Y-123389321D01*
X147207518Y-127712480D02*
X142023159Y-127712480D01*
X144475000Y-106600000D02*
X149950000Y-112075000D01*
X149869999Y-125049999D02*
X147207518Y-127712480D01*
X153540000Y-126250000D02*
X152339999Y-125049999D01*
X152339999Y-125049999D02*
X149869999Y-125049999D01*
X137700000Y-123389321D02*
X137700000Y-107300000D01*
X149950000Y-112075000D02*
X149950000Y-112650000D01*
X137700000Y-107300000D02*
X138400000Y-106600000D01*
X138400000Y-106600000D02*
X144475000Y-106600000D01*
X143244997Y-107599999D02*
X149094998Y-113450000D01*
X142450000Y-125600000D02*
X142250010Y-125400010D01*
X138349999Y-107669999D02*
X138419999Y-107599999D01*
X146950011Y-124549989D02*
X145900000Y-125600000D01*
X142250010Y-125400010D02*
X142201464Y-125400010D01*
X140560001Y-123710001D02*
X140560001Y-114126003D01*
X145900000Y-125600000D02*
X142450000Y-125600000D01*
X149094998Y-113450000D02*
X149950000Y-113450000D01*
X154379989Y-124549989D02*
X146950011Y-124549989D01*
X156080000Y-126250000D02*
X154379989Y-124549989D01*
X140560001Y-114126003D02*
X138349999Y-111916001D01*
X138419999Y-107599999D02*
X143244997Y-107599999D01*
X138349999Y-111916001D02*
X138349999Y-107669999D01*
X142201464Y-125400010D02*
X141849990Y-125048536D01*
X141849990Y-125048536D02*
X141849990Y-124999990D01*
X141849990Y-124999990D02*
X140560001Y-123710001D01*
X158620000Y-126250000D02*
X155520020Y-123150020D01*
X155520020Y-123150020D02*
X153800020Y-123150020D01*
X153800020Y-123150020D02*
X151350000Y-120700000D01*
X151350000Y-120700000D02*
X151350000Y-119650000D01*
X157100000Y-119800000D02*
X156950000Y-119650000D01*
X156950000Y-119950000D02*
X158450000Y-121450000D01*
X156950000Y-119650000D02*
X156950000Y-119950000D01*
X143500000Y-113600000D02*
X144200000Y-114300000D01*
X142750000Y-113600000D02*
X143500000Y-113600000D01*
X141900000Y-115600000D02*
X141900000Y-114450000D01*
X141900000Y-114450000D02*
X142750000Y-113600000D01*
D24*
X138250001Y-114099999D02*
X138750000Y-113600000D01*
X138184999Y-114165001D02*
X138250001Y-114099999D01*
X138184999Y-116964999D02*
X138184999Y-114165001D01*
X139360000Y-118140000D02*
X138184999Y-116964999D01*
D22*
X156684315Y-121400000D02*
X157250000Y-121400000D01*
X156150000Y-119650000D02*
X156150000Y-120865685D01*
X156150000Y-120865685D02*
X156684315Y-121400000D01*
X153750000Y-109625000D02*
X153750000Y-111250000D01*
X154425000Y-108950000D02*
X153750000Y-109625000D01*
X153750000Y-111250000D02*
X153750000Y-112800000D01*
X176275000Y-120555000D02*
X178250000Y-118580000D01*
X175100000Y-120555000D02*
X176275000Y-120555000D01*
X178250000Y-118580000D02*
X178250000Y-113850000D01*
X168300000Y-113005000D02*
X168150000Y-113155000D01*
X168520000Y-113850000D02*
X178250000Y-113850000D01*
X168150000Y-113480000D02*
X168520000Y-113850000D01*
X168150000Y-113155000D02*
X168150000Y-113480000D01*
X178050000Y-113005000D02*
X178250000Y-113005000D01*
X178250000Y-113850000D02*
X178250000Y-113205000D01*
X178250000Y-113205000D02*
X178050000Y-113005000D01*
X179200000Y-113005000D02*
X178050000Y-113005000D01*
X179254008Y-112950992D02*
X179200000Y-113005000D01*
X179254008Y-103414491D02*
X179254008Y-112950992D01*
X178332433Y-102492916D02*
X179254008Y-103414491D01*
X172535003Y-102492916D02*
X178332433Y-102492916D01*
X171630000Y-103397919D02*
X172535003Y-102492916D01*
X171630000Y-104600000D02*
X171630000Y-103397919D01*
X156084315Y-113000000D02*
X156650000Y-113000000D01*
X155350000Y-112265685D02*
X156084315Y-113000000D01*
X155350000Y-111250000D02*
X155350000Y-112265685D01*
X166355000Y-113005000D02*
X166300000Y-112950000D01*
X168150000Y-113005000D02*
X166355000Y-113005000D01*
X167700000Y-116170000D02*
X167700000Y-116745000D01*
X167530000Y-116000000D02*
X167700000Y-116170000D01*
X164550000Y-116000000D02*
X167530000Y-116000000D01*
X167215000Y-118500000D02*
X167700000Y-118015000D01*
X164550000Y-118500000D02*
X167215000Y-118500000D01*
X159700000Y-109195000D02*
X160850000Y-109195000D01*
X159649999Y-109245001D02*
X159700000Y-109195000D01*
X159205002Y-113450000D02*
X159649999Y-113005003D01*
X159649999Y-113005003D02*
X159649999Y-109245001D01*
X158350000Y-113450000D02*
X159205002Y-113450000D01*
X162445000Y-109195000D02*
X162450000Y-109200000D01*
X160850000Y-109195000D02*
X162445000Y-109195000D01*
X172245000Y-109195000D02*
X172300000Y-109250000D01*
X170750000Y-109195000D02*
X172245000Y-109195000D01*
X169350001Y-108589999D02*
X169104994Y-108344992D01*
X169350001Y-109600003D02*
X169350001Y-108589999D01*
X170214998Y-110465000D02*
X169350001Y-109600003D01*
X170750000Y-110465000D02*
X170214998Y-110465000D01*
X163250000Y-110465000D02*
X160850000Y-110465000D01*
X158350000Y-112650000D02*
X158350000Y-109837880D01*
X159987880Y-108200000D02*
X162700000Y-108200000D01*
X162700000Y-108200000D02*
X163250000Y-108750000D01*
X158350000Y-109837880D02*
X159987880Y-108200000D01*
X163250000Y-108750000D02*
X163250000Y-110465000D01*
X163600010Y-108399990D02*
X163250000Y-108750000D01*
X166950010Y-108399990D02*
X163600010Y-108399990D01*
X167005008Y-108344992D02*
X166950010Y-108399990D01*
X169104994Y-108344992D02*
X167005008Y-108344992D01*
X154550000Y-112300000D02*
X155050000Y-112800000D01*
X155050000Y-112800000D02*
X155050000Y-113200000D01*
X154550000Y-111250000D02*
X154550000Y-112300000D01*
X166315000Y-111735000D02*
X166300000Y-111750000D01*
X168150000Y-111735000D02*
X166315000Y-111735000D01*
X176365000Y-111735000D02*
X176350000Y-111750000D01*
X178050000Y-111735000D02*
X176365000Y-111735000D01*
X160396002Y-126250000D02*
X158996002Y-124850001D01*
X152150000Y-120700000D02*
X152150000Y-119650000D01*
X158996002Y-124850001D02*
X157927118Y-124850000D01*
X154100011Y-122650011D02*
X152150000Y-120700000D01*
X157927118Y-124850000D02*
X155727129Y-122650011D01*
X155727129Y-122650011D02*
X154100011Y-122650011D01*
X161160000Y-126250000D02*
X160396002Y-126250000D01*
X155934240Y-122150000D02*
X154400000Y-122150000D01*
X159903121Y-125049999D02*
X159203112Y-124349990D01*
X152950000Y-120700000D02*
X152950000Y-119650000D01*
X154400000Y-122150000D02*
X152950000Y-120700000D01*
X163700000Y-126250000D02*
X162499999Y-125049999D01*
X158134230Y-124349990D02*
X155934240Y-122150000D01*
X159203112Y-124349990D02*
X158134230Y-124349990D01*
X162499999Y-125049999D02*
X159903121Y-125049999D01*
X166240000Y-126250000D02*
X164539989Y-124549989D01*
X160110231Y-124549989D02*
X159410222Y-123849980D01*
X164539989Y-124549989D02*
X160110231Y-124549989D01*
X154699990Y-121649990D02*
X153750000Y-120700000D01*
X156141350Y-121649990D02*
X154699990Y-121649990D01*
X158341340Y-123849980D02*
X156141350Y-121649990D01*
X153750000Y-120700000D02*
X153750000Y-119650000D01*
X159410222Y-123849980D02*
X158341340Y-123849980D01*
D25*
G36*
X179045000Y-125272433D02*
G01*
X178869783Y-125097216D01*
X178562290Y-124891756D01*
X178220622Y-124750232D01*
X177857909Y-124678084D01*
X177488091Y-124678084D01*
X177125378Y-124750232D01*
X176783710Y-124891756D01*
X176476217Y-125097216D01*
X176214716Y-125358717D01*
X176009256Y-125666210D01*
X175867732Y-126007878D01*
X175795584Y-126370591D01*
X175795584Y-126740409D01*
X175867732Y-127103122D01*
X176009256Y-127444790D01*
X176214716Y-127752283D01*
X176389933Y-127927500D01*
X151582602Y-127927500D01*
X151612948Y-127890523D01*
X151655862Y-127838233D01*
X151709399Y-127738072D01*
X151850000Y-127738072D01*
X151974482Y-127725812D01*
X152094180Y-127689502D01*
X152204494Y-127630537D01*
X152301185Y-127551185D01*
X152380537Y-127454494D01*
X152439502Y-127344180D01*
X152461513Y-127271620D01*
X152593368Y-127403475D01*
X152836589Y-127565990D01*
X153106842Y-127677932D01*
X153393740Y-127735000D01*
X153686260Y-127735000D01*
X153973158Y-127677932D01*
X154243411Y-127565990D01*
X154486632Y-127403475D01*
X154693475Y-127196632D01*
X154810000Y-127022240D01*
X154926525Y-127196632D01*
X155133368Y-127403475D01*
X155376589Y-127565990D01*
X155646842Y-127677932D01*
X155933740Y-127735000D01*
X156226260Y-127735000D01*
X156513158Y-127677932D01*
X156783411Y-127565990D01*
X157026632Y-127403475D01*
X157233475Y-127196632D01*
X157350000Y-127022240D01*
X157466525Y-127196632D01*
X157673368Y-127403475D01*
X157916589Y-127565990D01*
X158186842Y-127677932D01*
X158473740Y-127735000D01*
X158766260Y-127735000D01*
X159053158Y-127677932D01*
X159323411Y-127565990D01*
X159566632Y-127403475D01*
X159773475Y-127196632D01*
X159890000Y-127022240D01*
X160006525Y-127196632D01*
X160213368Y-127403475D01*
X160456589Y-127565990D01*
X160726842Y-127677932D01*
X161013740Y-127735000D01*
X161306260Y-127735000D01*
X161593158Y-127677932D01*
X161863411Y-127565990D01*
X162106632Y-127403475D01*
X162313475Y-127196632D01*
X162430000Y-127022240D01*
X162546525Y-127196632D01*
X162753368Y-127403475D01*
X162996589Y-127565990D01*
X163266842Y-127677932D01*
X163553740Y-127735000D01*
X163846260Y-127735000D01*
X164133158Y-127677932D01*
X164403411Y-127565990D01*
X164646632Y-127403475D01*
X164853475Y-127196632D01*
X164970000Y-127022240D01*
X165086525Y-127196632D01*
X165293368Y-127403475D01*
X165536589Y-127565990D01*
X165806842Y-127677932D01*
X166093740Y-127735000D01*
X166386260Y-127735000D01*
X166673158Y-127677932D01*
X166943411Y-127565990D01*
X167186632Y-127403475D01*
X167393475Y-127196632D01*
X167515195Y-127014466D01*
X167584822Y-127131355D01*
X167779731Y-127347588D01*
X168013080Y-127521641D01*
X168275901Y-127646825D01*
X168423110Y-127691476D01*
X168653000Y-127570155D01*
X168653000Y-126377000D01*
X168633000Y-126377000D01*
X168633000Y-126123000D01*
X168653000Y-126123000D01*
X168653000Y-124929845D01*
X168907000Y-124929845D01*
X168907000Y-126123000D01*
X168927000Y-126123000D01*
X168927000Y-126377000D01*
X168907000Y-126377000D01*
X168907000Y-127570155D01*
X169136890Y-127691476D01*
X169284099Y-127646825D01*
X169546920Y-127521641D01*
X169780269Y-127347588D01*
X169975178Y-127131355D01*
X170044805Y-127014466D01*
X170166525Y-127196632D01*
X170373368Y-127403475D01*
X170616589Y-127565990D01*
X170886842Y-127677932D01*
X171173740Y-127735000D01*
X171466260Y-127735000D01*
X171753158Y-127677932D01*
X172023411Y-127565990D01*
X172266632Y-127403475D01*
X172473475Y-127196632D01*
X172635990Y-126953411D01*
X172747932Y-126683158D01*
X172805000Y-126396260D01*
X172805000Y-126103740D01*
X172747932Y-125816842D01*
X172635990Y-125546589D01*
X172473475Y-125303368D01*
X172266632Y-125096525D01*
X172023411Y-124934010D01*
X171753158Y-124822068D01*
X171466260Y-124765000D01*
X171173740Y-124765000D01*
X170886842Y-124822068D01*
X170616589Y-124934010D01*
X170373368Y-125096525D01*
X170166525Y-125303368D01*
X170044805Y-125485534D01*
X169975178Y-125368645D01*
X169780269Y-125152412D01*
X169546920Y-124978359D01*
X169284099Y-124853175D01*
X169136890Y-124808524D01*
X168907000Y-124929845D01*
X168653000Y-124929845D01*
X168423110Y-124808524D01*
X168275901Y-124853175D01*
X168013080Y-124978359D01*
X167779731Y-125152412D01*
X167584822Y-125368645D01*
X167515195Y-125485534D01*
X167393475Y-125303368D01*
X167186632Y-125096525D01*
X166943411Y-124934010D01*
X166673158Y-124822068D01*
X166386260Y-124765000D01*
X166093740Y-124765000D01*
X165903082Y-124802925D01*
X165122336Y-124022179D01*
X165097753Y-123992225D01*
X164978222Y-123894127D01*
X164841849Y-123821235D01*
X164693876Y-123776348D01*
X164578550Y-123764989D01*
X164578542Y-123764989D01*
X164539989Y-123761192D01*
X164501436Y-123764989D01*
X160435389Y-123764989D01*
X159992567Y-123322168D01*
X159967986Y-123292216D01*
X159848455Y-123194118D01*
X159712082Y-123121226D01*
X159564109Y-123076339D01*
X159448783Y-123064980D01*
X159448775Y-123064980D01*
X159410222Y-123061183D01*
X159371669Y-123064980D01*
X158666497Y-123064980D01*
X157975070Y-122373553D01*
X158148102Y-122445226D01*
X158348061Y-122485000D01*
X158551939Y-122485000D01*
X158751898Y-122445226D01*
X158940256Y-122367205D01*
X159109774Y-122253937D01*
X159253937Y-122109774D01*
X159367205Y-121940256D01*
X159443457Y-121756168D01*
X159505820Y-121789502D01*
X159625518Y-121825812D01*
X159750000Y-121838072D01*
X160039250Y-121835000D01*
X160198000Y-121676250D01*
X160198000Y-120627000D01*
X159273750Y-120627000D01*
X159182231Y-120718520D01*
X159109774Y-120646063D01*
X158940256Y-120532795D01*
X158751898Y-120454774D01*
X158551939Y-120415000D01*
X158525158Y-120415000D01*
X157886464Y-119776306D01*
X157873641Y-119646114D01*
X157863072Y-119611273D01*
X157863072Y-119163072D01*
X159100000Y-119163072D01*
X159212731Y-119151969D01*
X159261595Y-119243387D01*
X159328276Y-119324637D01*
X159298815Y-119348815D01*
X159219463Y-119445506D01*
X159160498Y-119555820D01*
X159124188Y-119675518D01*
X159111928Y-119800000D01*
X159115000Y-120214250D01*
X159273750Y-120373000D01*
X160198000Y-120373000D01*
X160198000Y-120353000D01*
X160452000Y-120353000D01*
X160452000Y-120373000D01*
X160472000Y-120373000D01*
X160472000Y-120627000D01*
X160452000Y-120627000D01*
X160452000Y-121676250D01*
X160610750Y-121835000D01*
X160900000Y-121838072D01*
X161024482Y-121825812D01*
X161144180Y-121789502D01*
X161254494Y-121730537D01*
X161351185Y-121651185D01*
X161416658Y-121571406D01*
X161422038Y-121577962D01*
X161556613Y-121688405D01*
X161710149Y-121770472D01*
X161876745Y-121821008D01*
X162049999Y-121838072D01*
X162700001Y-121838072D01*
X162873255Y-121821008D01*
X163039851Y-121770472D01*
X163193387Y-121688405D01*
X163327962Y-121577962D01*
X163438405Y-121443387D01*
X163520472Y-121289851D01*
X163571008Y-121123255D01*
X163588072Y-120950001D01*
X163588072Y-120840750D01*
X166190000Y-120840750D01*
X166199756Y-120957301D01*
X166236605Y-121076834D01*
X166296066Y-121186881D01*
X166375853Y-121283214D01*
X166472901Y-121362130D01*
X166583480Y-121420596D01*
X166703340Y-121456366D01*
X166827876Y-121468066D01*
X167414250Y-121465000D01*
X167573000Y-121306250D01*
X167573000Y-120682000D01*
X167827000Y-120682000D01*
X167827000Y-121306250D01*
X167985750Y-121465000D01*
X168572124Y-121468066D01*
X168696660Y-121456366D01*
X168816520Y-121420596D01*
X168927099Y-121362130D01*
X169024147Y-121283214D01*
X169103934Y-121186881D01*
X169163395Y-121076834D01*
X169200244Y-120957301D01*
X169210000Y-120840750D01*
X169051250Y-120682000D01*
X167827000Y-120682000D01*
X167573000Y-120682000D01*
X166348750Y-120682000D01*
X166190000Y-120840750D01*
X163588072Y-120840750D01*
X163588072Y-120049999D01*
X163571008Y-119876745D01*
X163520472Y-119710149D01*
X163465692Y-119607664D01*
X163525518Y-119625812D01*
X163650000Y-119638072D01*
X165450000Y-119638072D01*
X165574482Y-119625812D01*
X165694180Y-119589502D01*
X165804494Y-119530537D01*
X165901185Y-119451185D01*
X165980537Y-119354494D01*
X166017683Y-119285000D01*
X166186928Y-119285000D01*
X166186928Y-119560000D01*
X166199188Y-119684482D01*
X166235498Y-119804180D01*
X166294463Y-119914494D01*
X166298816Y-119919798D01*
X166296066Y-119923119D01*
X166236605Y-120033166D01*
X166199756Y-120152699D01*
X166190000Y-120269250D01*
X166348750Y-120428000D01*
X167573000Y-120428000D01*
X167573000Y-120412983D01*
X167700000Y-120425491D01*
X167827000Y-120412983D01*
X167827000Y-120428000D01*
X169051250Y-120428000D01*
X169094250Y-120385000D01*
X169611788Y-120385000D01*
X169666747Y-120374068D01*
X169722499Y-120368577D01*
X169776106Y-120352315D01*
X169831067Y-120341383D01*
X169882842Y-120319937D01*
X169936447Y-120303676D01*
X169985851Y-120277269D01*
X170037624Y-120255824D01*
X170084214Y-120224693D01*
X170133623Y-120198284D01*
X170176932Y-120162741D01*
X170223520Y-120131612D01*
X170263141Y-120091991D01*
X170306449Y-120056449D01*
X170341991Y-120013141D01*
X170381612Y-119973520D01*
X170412741Y-119926932D01*
X170448284Y-119883623D01*
X170474693Y-119834214D01*
X170505824Y-119787624D01*
X170527269Y-119735851D01*
X170553676Y-119686447D01*
X170569937Y-119632842D01*
X170591383Y-119581067D01*
X170602315Y-119526106D01*
X170618577Y-119472499D01*
X170624068Y-119416747D01*
X170635000Y-119361788D01*
X170635000Y-119305752D01*
X170640491Y-119250000D01*
X170635000Y-119194248D01*
X170635000Y-119138212D01*
X170624068Y-119083253D01*
X170618577Y-119027501D01*
X170602315Y-118973894D01*
X170591383Y-118918933D01*
X170569937Y-118867158D01*
X170553676Y-118813553D01*
X170527269Y-118764149D01*
X170505824Y-118712376D01*
X170474693Y-118665786D01*
X170448284Y-118616377D01*
X170412741Y-118573068D01*
X170381612Y-118526480D01*
X170341991Y-118486859D01*
X170306449Y-118443551D01*
X170263141Y-118408009D01*
X170223520Y-118368388D01*
X170176932Y-118337259D01*
X170133623Y-118301716D01*
X170084214Y-118275307D01*
X170037624Y-118244176D01*
X169985851Y-118222731D01*
X169936447Y-118196324D01*
X169882842Y-118180063D01*
X169831067Y-118158617D01*
X169776106Y-118147685D01*
X169722499Y-118131423D01*
X169666747Y-118125932D01*
X169611788Y-118115000D01*
X169213072Y-118115000D01*
X169213072Y-117740000D01*
X169200812Y-117615518D01*
X169164502Y-117495820D01*
X169105537Y-117385506D01*
X169101018Y-117380000D01*
X169105537Y-117374494D01*
X169164502Y-117264180D01*
X169200812Y-117144482D01*
X169213072Y-117020000D01*
X169213072Y-116470000D01*
X169200812Y-116345518D01*
X169164502Y-116225820D01*
X169105537Y-116115506D01*
X169026185Y-116018815D01*
X168929494Y-115939463D01*
X168921143Y-115934999D01*
X168974842Y-115934999D01*
X172415000Y-119375157D01*
X172415000Y-119401939D01*
X172454774Y-119601898D01*
X172532795Y-119790256D01*
X172646063Y-119959774D01*
X172790226Y-120103937D01*
X172959744Y-120217205D01*
X173148102Y-120295226D01*
X173348061Y-120335000D01*
X173551939Y-120335000D01*
X173586928Y-120328040D01*
X173586928Y-120830000D01*
X173599188Y-120954482D01*
X173635498Y-121074180D01*
X173694463Y-121184494D01*
X173773815Y-121281185D01*
X173870506Y-121360537D01*
X173980820Y-121419502D01*
X174100518Y-121455812D01*
X174225000Y-121468072D01*
X175975000Y-121468072D01*
X176099482Y-121455812D01*
X176219180Y-121419502D01*
X176329494Y-121360537D01*
X176360104Y-121335416D01*
X176428887Y-121328641D01*
X176576860Y-121283754D01*
X176713233Y-121210862D01*
X176832764Y-121112764D01*
X176857347Y-121082810D01*
X178777811Y-119162346D01*
X178807764Y-119137764D01*
X178905862Y-119018233D01*
X178978754Y-118881860D01*
X178985021Y-118861202D01*
X179023642Y-118733887D01*
X179033958Y-118629138D01*
X179035000Y-118618561D01*
X179035000Y-118618556D01*
X179038797Y-118580000D01*
X179035000Y-118541444D01*
X179035000Y-113952621D01*
X179045001Y-113949588D01*
X179045000Y-125272433D01*
G37*
X179045000Y-125272433D02*
X178869783Y-125097216D01*
X178562290Y-124891756D01*
X178220622Y-124750232D01*
X177857909Y-124678084D01*
X177488091Y-124678084D01*
X177125378Y-124750232D01*
X176783710Y-124891756D01*
X176476217Y-125097216D01*
X176214716Y-125358717D01*
X176009256Y-125666210D01*
X175867732Y-126007878D01*
X175795584Y-126370591D01*
X175795584Y-126740409D01*
X175867732Y-127103122D01*
X176009256Y-127444790D01*
X176214716Y-127752283D01*
X176389933Y-127927500D01*
X151582602Y-127927500D01*
X151612948Y-127890523D01*
X151655862Y-127838233D01*
X151709399Y-127738072D01*
X151850000Y-127738072D01*
X151974482Y-127725812D01*
X152094180Y-127689502D01*
X152204494Y-127630537D01*
X152301185Y-127551185D01*
X152380537Y-127454494D01*
X152439502Y-127344180D01*
X152461513Y-127271620D01*
X152593368Y-127403475D01*
X152836589Y-127565990D01*
X153106842Y-127677932D01*
X153393740Y-127735000D01*
X153686260Y-127735000D01*
X153973158Y-127677932D01*
X154243411Y-127565990D01*
X154486632Y-127403475D01*
X154693475Y-127196632D01*
X154810000Y-127022240D01*
X154926525Y-127196632D01*
X155133368Y-127403475D01*
X155376589Y-127565990D01*
X155646842Y-127677932D01*
X155933740Y-127735000D01*
X156226260Y-127735000D01*
X156513158Y-127677932D01*
X156783411Y-127565990D01*
X157026632Y-127403475D01*
X157233475Y-127196632D01*
X157350000Y-127022240D01*
X157466525Y-127196632D01*
X157673368Y-127403475D01*
X157916589Y-127565990D01*
X158186842Y-127677932D01*
X158473740Y-127735000D01*
X158766260Y-127735000D01*
X159053158Y-127677932D01*
X159323411Y-127565990D01*
X159566632Y-127403475D01*
X159773475Y-127196632D01*
X159890000Y-127022240D01*
X160006525Y-127196632D01*
X160213368Y-127403475D01*
X160456589Y-127565990D01*
X160726842Y-127677932D01*
X161013740Y-127735000D01*
X161306260Y-127735000D01*
X161593158Y-127677932D01*
X161863411Y-127565990D01*
X162106632Y-127403475D01*
X162313475Y-127196632D01*
X162430000Y-127022240D01*
X162546525Y-127196632D01*
X162753368Y-127403475D01*
X162996589Y-127565990D01*
X163266842Y-127677932D01*
X163553740Y-127735000D01*
X163846260Y-127735000D01*
X164133158Y-127677932D01*
X164403411Y-127565990D01*
X164646632Y-127403475D01*
X164853475Y-127196632D01*
X164970000Y-127022240D01*
X165086525Y-127196632D01*
X165293368Y-127403475D01*
X165536589Y-127565990D01*
X165806842Y-127677932D01*
X166093740Y-127735000D01*
X166386260Y-127735000D01*
X166673158Y-127677932D01*
X166943411Y-127565990D01*
X167186632Y-127403475D01*
X167393475Y-127196632D01*
X167515195Y-127014466D01*
X167584822Y-127131355D01*
X167779731Y-127347588D01*
X168013080Y-127521641D01*
X168275901Y-127646825D01*
X168423110Y-127691476D01*
X168653000Y-127570155D01*
X168653000Y-126377000D01*
X168633000Y-126377000D01*
X168633000Y-126123000D01*
X168653000Y-126123000D01*
X168653000Y-124929845D01*
X168907000Y-124929845D01*
X168907000Y-126123000D01*
X168927000Y-126123000D01*
X168927000Y-126377000D01*
X168907000Y-126377000D01*
X168907000Y-127570155D01*
X169136890Y-127691476D01*
X169284099Y-127646825D01*
X169546920Y-127521641D01*
X169780269Y-127347588D01*
X169975178Y-127131355D01*
X170044805Y-127014466D01*
X170166525Y-127196632D01*
X170373368Y-127403475D01*
X170616589Y-127565990D01*
X170886842Y-127677932D01*
X171173740Y-127735000D01*
X171466260Y-127735000D01*
X171753158Y-127677932D01*
X172023411Y-127565990D01*
X172266632Y-127403475D01*
X172473475Y-127196632D01*
X172635990Y-126953411D01*
X172747932Y-126683158D01*
X172805000Y-126396260D01*
X172805000Y-126103740D01*
X172747932Y-125816842D01*
X172635990Y-125546589D01*
X172473475Y-125303368D01*
X172266632Y-125096525D01*
X172023411Y-124934010D01*
X171753158Y-124822068D01*
X171466260Y-124765000D01*
X171173740Y-124765000D01*
X170886842Y-124822068D01*
X170616589Y-124934010D01*
X170373368Y-125096525D01*
X170166525Y-125303368D01*
X170044805Y-125485534D01*
X169975178Y-125368645D01*
X169780269Y-125152412D01*
X169546920Y-124978359D01*
X169284099Y-124853175D01*
X169136890Y-124808524D01*
X168907000Y-124929845D01*
X168653000Y-124929845D01*
X168423110Y-124808524D01*
X168275901Y-124853175D01*
X168013080Y-124978359D01*
X167779731Y-125152412D01*
X167584822Y-125368645D01*
X167515195Y-125485534D01*
X167393475Y-125303368D01*
X167186632Y-125096525D01*
X166943411Y-124934010D01*
X166673158Y-124822068D01*
X166386260Y-124765000D01*
X166093740Y-124765000D01*
X165903082Y-124802925D01*
X165122336Y-124022179D01*
X165097753Y-123992225D01*
X164978222Y-123894127D01*
X164841849Y-123821235D01*
X164693876Y-123776348D01*
X164578550Y-123764989D01*
X164578542Y-123764989D01*
X164539989Y-123761192D01*
X164501436Y-123764989D01*
X160435389Y-123764989D01*
X159992567Y-123322168D01*
X159967986Y-123292216D01*
X159848455Y-123194118D01*
X159712082Y-123121226D01*
X159564109Y-123076339D01*
X159448783Y-123064980D01*
X159448775Y-123064980D01*
X159410222Y-123061183D01*
X159371669Y-123064980D01*
X158666497Y-123064980D01*
X157975070Y-122373553D01*
X158148102Y-122445226D01*
X158348061Y-122485000D01*
X158551939Y-122485000D01*
X158751898Y-122445226D01*
X158940256Y-122367205D01*
X159109774Y-122253937D01*
X159253937Y-122109774D01*
X159367205Y-121940256D01*
X159443457Y-121756168D01*
X159505820Y-121789502D01*
X159625518Y-121825812D01*
X159750000Y-121838072D01*
X160039250Y-121835000D01*
X160198000Y-121676250D01*
X160198000Y-120627000D01*
X159273750Y-120627000D01*
X159182231Y-120718520D01*
X159109774Y-120646063D01*
X158940256Y-120532795D01*
X158751898Y-120454774D01*
X158551939Y-120415000D01*
X158525158Y-120415000D01*
X157886464Y-119776306D01*
X157873641Y-119646114D01*
X157863072Y-119611273D01*
X157863072Y-119163072D01*
X159100000Y-119163072D01*
X159212731Y-119151969D01*
X159261595Y-119243387D01*
X159328276Y-119324637D01*
X159298815Y-119348815D01*
X159219463Y-119445506D01*
X159160498Y-119555820D01*
X159124188Y-119675518D01*
X159111928Y-119800000D01*
X159115000Y-120214250D01*
X159273750Y-120373000D01*
X160198000Y-120373000D01*
X160198000Y-120353000D01*
X160452000Y-120353000D01*
X160452000Y-120373000D01*
X160472000Y-120373000D01*
X160472000Y-120627000D01*
X160452000Y-120627000D01*
X160452000Y-121676250D01*
X160610750Y-121835000D01*
X160900000Y-121838072D01*
X161024482Y-121825812D01*
X161144180Y-121789502D01*
X161254494Y-121730537D01*
X161351185Y-121651185D01*
X161416658Y-121571406D01*
X161422038Y-121577962D01*
X161556613Y-121688405D01*
X161710149Y-121770472D01*
X161876745Y-121821008D01*
X162049999Y-121838072D01*
X162700001Y-121838072D01*
X162873255Y-121821008D01*
X163039851Y-121770472D01*
X163193387Y-121688405D01*
X163327962Y-121577962D01*
X163438405Y-121443387D01*
X163520472Y-121289851D01*
X163571008Y-121123255D01*
X163588072Y-120950001D01*
X163588072Y-120840750D01*
X166190000Y-120840750D01*
X166199756Y-120957301D01*
X166236605Y-121076834D01*
X166296066Y-121186881D01*
X166375853Y-121283214D01*
X166472901Y-121362130D01*
X166583480Y-121420596D01*
X166703340Y-121456366D01*
X166827876Y-121468066D01*
X167414250Y-121465000D01*
X167573000Y-121306250D01*
X167573000Y-120682000D01*
X167827000Y-120682000D01*
X167827000Y-121306250D01*
X167985750Y-121465000D01*
X168572124Y-121468066D01*
X168696660Y-121456366D01*
X168816520Y-121420596D01*
X168927099Y-121362130D01*
X169024147Y-121283214D01*
X169103934Y-121186881D01*
X169163395Y-121076834D01*
X169200244Y-120957301D01*
X169210000Y-120840750D01*
X169051250Y-120682000D01*
X167827000Y-120682000D01*
X167573000Y-120682000D01*
X166348750Y-120682000D01*
X166190000Y-120840750D01*
X163588072Y-120840750D01*
X163588072Y-120049999D01*
X163571008Y-119876745D01*
X163520472Y-119710149D01*
X163465692Y-119607664D01*
X163525518Y-119625812D01*
X163650000Y-119638072D01*
X165450000Y-119638072D01*
X165574482Y-119625812D01*
X165694180Y-119589502D01*
X165804494Y-119530537D01*
X165901185Y-119451185D01*
X165980537Y-119354494D01*
X166017683Y-119285000D01*
X166186928Y-119285000D01*
X166186928Y-119560000D01*
X166199188Y-119684482D01*
X166235498Y-119804180D01*
X166294463Y-119914494D01*
X166298816Y-119919798D01*
X166296066Y-119923119D01*
X166236605Y-120033166D01*
X166199756Y-120152699D01*
X166190000Y-120269250D01*
X166348750Y-120428000D01*
X167573000Y-120428000D01*
X167573000Y-120412983D01*
X167700000Y-120425491D01*
X167827000Y-120412983D01*
X167827000Y-120428000D01*
X169051250Y-120428000D01*
X169094250Y-120385000D01*
X169611788Y-120385000D01*
X169666747Y-120374068D01*
X169722499Y-120368577D01*
X169776106Y-120352315D01*
X169831067Y-120341383D01*
X169882842Y-120319937D01*
X169936447Y-120303676D01*
X169985851Y-120277269D01*
X170037624Y-120255824D01*
X170084214Y-120224693D01*
X170133623Y-120198284D01*
X170176932Y-120162741D01*
X170223520Y-120131612D01*
X170263141Y-120091991D01*
X170306449Y-120056449D01*
X170341991Y-120013141D01*
X170381612Y-119973520D01*
X170412741Y-119926932D01*
X170448284Y-119883623D01*
X170474693Y-119834214D01*
X170505824Y-119787624D01*
X170527269Y-119735851D01*
X170553676Y-119686447D01*
X170569937Y-119632842D01*
X170591383Y-119581067D01*
X170602315Y-119526106D01*
X170618577Y-119472499D01*
X170624068Y-119416747D01*
X170635000Y-119361788D01*
X170635000Y-119305752D01*
X170640491Y-119250000D01*
X170635000Y-119194248D01*
X170635000Y-119138212D01*
X170624068Y-119083253D01*
X170618577Y-119027501D01*
X170602315Y-118973894D01*
X170591383Y-118918933D01*
X170569937Y-118867158D01*
X170553676Y-118813553D01*
X170527269Y-118764149D01*
X170505824Y-118712376D01*
X170474693Y-118665786D01*
X170448284Y-118616377D01*
X170412741Y-118573068D01*
X170381612Y-118526480D01*
X170341991Y-118486859D01*
X170306449Y-118443551D01*
X170263141Y-118408009D01*
X170223520Y-118368388D01*
X170176932Y-118337259D01*
X170133623Y-118301716D01*
X170084214Y-118275307D01*
X170037624Y-118244176D01*
X169985851Y-118222731D01*
X169936447Y-118196324D01*
X169882842Y-118180063D01*
X169831067Y-118158617D01*
X169776106Y-118147685D01*
X169722499Y-118131423D01*
X169666747Y-118125932D01*
X169611788Y-118115000D01*
X169213072Y-118115000D01*
X169213072Y-117740000D01*
X169200812Y-117615518D01*
X169164502Y-117495820D01*
X169105537Y-117385506D01*
X169101018Y-117380000D01*
X169105537Y-117374494D01*
X169164502Y-117264180D01*
X169200812Y-117144482D01*
X169213072Y-117020000D01*
X169213072Y-116470000D01*
X169200812Y-116345518D01*
X169164502Y-116225820D01*
X169105537Y-116115506D01*
X169026185Y-116018815D01*
X168929494Y-115939463D01*
X168921143Y-115934999D01*
X168974842Y-115934999D01*
X172415000Y-119375157D01*
X172415000Y-119401939D01*
X172454774Y-119601898D01*
X172532795Y-119790256D01*
X172646063Y-119959774D01*
X172790226Y-120103937D01*
X172959744Y-120217205D01*
X173148102Y-120295226D01*
X173348061Y-120335000D01*
X173551939Y-120335000D01*
X173586928Y-120328040D01*
X173586928Y-120830000D01*
X173599188Y-120954482D01*
X173635498Y-121074180D01*
X173694463Y-121184494D01*
X173773815Y-121281185D01*
X173870506Y-121360537D01*
X173980820Y-121419502D01*
X174100518Y-121455812D01*
X174225000Y-121468072D01*
X175975000Y-121468072D01*
X176099482Y-121455812D01*
X176219180Y-121419502D01*
X176329494Y-121360537D01*
X176360104Y-121335416D01*
X176428887Y-121328641D01*
X176576860Y-121283754D01*
X176713233Y-121210862D01*
X176832764Y-121112764D01*
X176857347Y-121082810D01*
X178777811Y-119162346D01*
X178807764Y-119137764D01*
X178905862Y-119018233D01*
X178978754Y-118881860D01*
X178985021Y-118861202D01*
X179023642Y-118733887D01*
X179033958Y-118629138D01*
X179035000Y-118618561D01*
X179035000Y-118618556D01*
X179038797Y-118580000D01*
X179035000Y-118541444D01*
X179035000Y-113952621D01*
X179045001Y-113949588D01*
X179045000Y-125272433D01*
G36*
X146882361Y-126927480D02*
G01*
X146686240Y-126927480D01*
X146685000Y-126810750D01*
X146526250Y-126652000D01*
X145477000Y-126652000D01*
X145477000Y-126672000D01*
X145223000Y-126672000D01*
X145223000Y-126652000D01*
X144173750Y-126652000D01*
X144125000Y-126700750D01*
X144076250Y-126652000D01*
X143027000Y-126652000D01*
X143027000Y-126672000D01*
X142773000Y-126672000D01*
X142773000Y-126652000D01*
X142753000Y-126652000D01*
X142753000Y-126398000D01*
X142773000Y-126398000D01*
X142773000Y-126385000D01*
X143027000Y-126385000D01*
X143027000Y-126398000D01*
X144076250Y-126398000D01*
X144089250Y-126385000D01*
X144160750Y-126385000D01*
X144173750Y-126398000D01*
X145223000Y-126398000D01*
X145223000Y-126385000D01*
X145477000Y-126385000D01*
X145477000Y-126398000D01*
X146526250Y-126398000D01*
X146685000Y-126239250D01*
X146688072Y-125950000D01*
X146685569Y-125924588D01*
X147275168Y-125334989D01*
X148474852Y-125334989D01*
X146882361Y-126927480D01*
G37*
X146882361Y-126927480D02*
X146686240Y-126927480D01*
X146685000Y-126810750D01*
X146526250Y-126652000D01*
X145477000Y-126652000D01*
X145477000Y-126672000D01*
X145223000Y-126672000D01*
X145223000Y-126652000D01*
X144173750Y-126652000D01*
X144125000Y-126700750D01*
X144076250Y-126652000D01*
X143027000Y-126652000D01*
X143027000Y-126672000D01*
X142773000Y-126672000D01*
X142773000Y-126652000D01*
X142753000Y-126652000D01*
X142753000Y-126398000D01*
X142773000Y-126398000D01*
X142773000Y-126385000D01*
X143027000Y-126385000D01*
X143027000Y-126398000D01*
X144076250Y-126398000D01*
X144089250Y-126385000D01*
X144160750Y-126385000D01*
X144173750Y-126398000D01*
X145223000Y-126398000D01*
X145223000Y-126385000D01*
X145477000Y-126385000D01*
X145477000Y-126398000D01*
X146526250Y-126398000D01*
X146685000Y-126239250D01*
X146688072Y-125950000D01*
X146685569Y-125924588D01*
X147275168Y-125334989D01*
X148474852Y-125334989D01*
X146882361Y-126927480D01*
G36*
X139487000Y-120553000D02*
G01*
X139507000Y-120553000D01*
X139507000Y-120807000D01*
X139487000Y-120807000D01*
X139487000Y-122000814D01*
X139716891Y-122121481D01*
X139775001Y-122100868D01*
X139775001Y-123671448D01*
X139771204Y-123710001D01*
X139775001Y-123748554D01*
X139775001Y-123748561D01*
X139786360Y-123863887D01*
X139831247Y-124011860D01*
X139904139Y-124148233D01*
X140002237Y-124267765D01*
X140032191Y-124292348D01*
X141156830Y-125416988D01*
X141194128Y-125486768D01*
X141292226Y-125606300D01*
X141322180Y-125630883D01*
X141569044Y-125877747D01*
X141561928Y-125950000D01*
X141563979Y-126143143D01*
X138485000Y-123064164D01*
X138485000Y-121878963D01*
X138728748Y-122024157D01*
X139003109Y-122121481D01*
X139233000Y-122000814D01*
X139233000Y-120807000D01*
X139213000Y-120807000D01*
X139213000Y-120553000D01*
X139233000Y-120553000D01*
X139233000Y-120533000D01*
X139487000Y-120533000D01*
X139487000Y-120553000D01*
G37*
X139487000Y-120553000D02*
X139507000Y-120553000D01*
X139507000Y-120807000D01*
X139487000Y-120807000D01*
X139487000Y-122000814D01*
X139716891Y-122121481D01*
X139775001Y-122100868D01*
X139775001Y-123671448D01*
X139771204Y-123710001D01*
X139775001Y-123748554D01*
X139775001Y-123748561D01*
X139786360Y-123863887D01*
X139831247Y-124011860D01*
X139904139Y-124148233D01*
X140002237Y-124267765D01*
X140032191Y-124292348D01*
X141156830Y-125416988D01*
X141194128Y-125486768D01*
X141292226Y-125606300D01*
X141322180Y-125630883D01*
X141569044Y-125877747D01*
X141561928Y-125950000D01*
X141563979Y-126143143D01*
X138485000Y-123064164D01*
X138485000Y-121878963D01*
X138728748Y-122024157D01*
X139003109Y-122121481D01*
X139233000Y-122000814D01*
X139233000Y-120807000D01*
X139213000Y-120807000D01*
X139213000Y-120553000D01*
X139233000Y-120553000D01*
X139233000Y-120533000D01*
X139487000Y-120533000D01*
X139487000Y-120553000D01*
G36*
X165465000Y-109194248D02*
G01*
X165459509Y-109250000D01*
X165465000Y-109305752D01*
X165465000Y-109361788D01*
X165475932Y-109416747D01*
X165481423Y-109472499D01*
X165497685Y-109526106D01*
X165508617Y-109581067D01*
X165530063Y-109632842D01*
X165546324Y-109686447D01*
X165572731Y-109735851D01*
X165594176Y-109787624D01*
X165625307Y-109834214D01*
X165651716Y-109883623D01*
X165687259Y-109926932D01*
X165718388Y-109973520D01*
X165758009Y-110013141D01*
X165793551Y-110056449D01*
X165836859Y-110091991D01*
X165876480Y-110131612D01*
X165923068Y-110162741D01*
X165966377Y-110198284D01*
X166015786Y-110224693D01*
X166062376Y-110255824D01*
X166114149Y-110277269D01*
X166163553Y-110303676D01*
X166217158Y-110319937D01*
X166268933Y-110341383D01*
X166323894Y-110352315D01*
X166377501Y-110368577D01*
X166433253Y-110374068D01*
X166488212Y-110385000D01*
X168189249Y-110385000D01*
X168245000Y-110390491D01*
X168297000Y-110385369D01*
X168297000Y-110592000D01*
X168277000Y-110592000D01*
X168277000Y-110612000D01*
X168023000Y-110612000D01*
X168023000Y-110592000D01*
X166823750Y-110592000D01*
X166665000Y-110750750D01*
X166662713Y-110779965D01*
X166601898Y-110754774D01*
X166401939Y-110715000D01*
X166198061Y-110715000D01*
X165998102Y-110754774D01*
X165809744Y-110832795D01*
X165640226Y-110946063D01*
X165496063Y-111090226D01*
X165382795Y-111259744D01*
X165304774Y-111448102D01*
X165265000Y-111648061D01*
X165265000Y-111851939D01*
X165304774Y-112051898D01*
X165382795Y-112240256D01*
X165456123Y-112350000D01*
X165382795Y-112459744D01*
X165304774Y-112648102D01*
X165265000Y-112848061D01*
X165265000Y-113051939D01*
X165304774Y-113251898D01*
X165382795Y-113440256D01*
X165496063Y-113609774D01*
X165640226Y-113753937D01*
X165809744Y-113867205D01*
X165998102Y-113945226D01*
X166198061Y-113985000D01*
X166401939Y-113985000D01*
X166601898Y-113945226D01*
X166790256Y-113867205D01*
X166880311Y-113807033D01*
X166945506Y-113860537D01*
X167055820Y-113919502D01*
X167175518Y-113955812D01*
X167300000Y-113968072D01*
X167535040Y-113968072D01*
X167592236Y-114037764D01*
X167622189Y-114062346D01*
X167924842Y-114364999D01*
X162813557Y-114364999D01*
X162775001Y-114361202D01*
X162736445Y-114364999D01*
X162736440Y-114364999D01*
X162696027Y-114368979D01*
X162621114Y-114376357D01*
X162484369Y-114417839D01*
X162473141Y-114421245D01*
X162336768Y-114494137D01*
X162217237Y-114592235D01*
X162192654Y-114622189D01*
X159836846Y-116977997D01*
X159826745Y-116978992D01*
X159729860Y-117008382D01*
X159738072Y-116925000D01*
X159738072Y-116375000D01*
X159725812Y-116250518D01*
X159725655Y-116250000D01*
X159725812Y-116249482D01*
X159738072Y-116125000D01*
X159738072Y-115575000D01*
X159725812Y-115450518D01*
X159725454Y-115449337D01*
X159735000Y-115335750D01*
X159642917Y-115243667D01*
X159630537Y-115220506D01*
X159551185Y-115123815D01*
X159461241Y-115050000D01*
X159551185Y-114976185D01*
X159630537Y-114879494D01*
X159642917Y-114856333D01*
X159735000Y-114764250D01*
X159725454Y-114650663D01*
X159725812Y-114649482D01*
X159738072Y-114525000D01*
X159738072Y-114028030D01*
X159762766Y-114007764D01*
X159787349Y-113977810D01*
X159824748Y-113940411D01*
X159875518Y-113955812D01*
X160000000Y-113968072D01*
X160564250Y-113965000D01*
X160723000Y-113806250D01*
X160723000Y-113132000D01*
X160977000Y-113132000D01*
X160977000Y-113806250D01*
X161135750Y-113965000D01*
X161700000Y-113968072D01*
X161824482Y-113955812D01*
X161944180Y-113919502D01*
X162054494Y-113860537D01*
X162151185Y-113781185D01*
X162230537Y-113684494D01*
X162289502Y-113574180D01*
X162325812Y-113454482D01*
X162338072Y-113330000D01*
X162335000Y-113290750D01*
X162176250Y-113132000D01*
X160977000Y-113132000D01*
X160723000Y-113132000D01*
X160703000Y-113132000D01*
X160703000Y-112878000D01*
X160723000Y-112878000D01*
X160723000Y-112858000D01*
X160822409Y-112858000D01*
X160977000Y-112873226D01*
X160977000Y-112878000D01*
X162176250Y-112878000D01*
X162219250Y-112835000D01*
X162761788Y-112835000D01*
X162816747Y-112824068D01*
X162872499Y-112818577D01*
X162926106Y-112802315D01*
X162981067Y-112791383D01*
X163032842Y-112769937D01*
X163086447Y-112753676D01*
X163135851Y-112727269D01*
X163187624Y-112705824D01*
X163234214Y-112674693D01*
X163283623Y-112648284D01*
X163326932Y-112612741D01*
X163373520Y-112581612D01*
X163413141Y-112541991D01*
X163456449Y-112506449D01*
X163491991Y-112463141D01*
X163531612Y-112423520D01*
X163562741Y-112376932D01*
X163598284Y-112333623D01*
X163624693Y-112284214D01*
X163655824Y-112237624D01*
X163677269Y-112185851D01*
X163703676Y-112136447D01*
X163719937Y-112082842D01*
X163741383Y-112031067D01*
X163752315Y-111976106D01*
X163768577Y-111922499D01*
X163774068Y-111866747D01*
X163785000Y-111811788D01*
X163785000Y-111755752D01*
X163790491Y-111700000D01*
X163785000Y-111644248D01*
X163785000Y-111588212D01*
X163774068Y-111533253D01*
X163768577Y-111477501D01*
X163752315Y-111423894D01*
X163741383Y-111368933D01*
X163719937Y-111317158D01*
X163703676Y-111263553D01*
X163677269Y-111214149D01*
X163655824Y-111162376D01*
X163643914Y-111144551D01*
X163688233Y-111120862D01*
X163807764Y-111022764D01*
X163905862Y-110903233D01*
X163978754Y-110766860D01*
X164023641Y-110618887D01*
X164035000Y-110503561D01*
X164038798Y-110465000D01*
X164035000Y-110426439D01*
X164035000Y-109184990D01*
X165465000Y-109184990D01*
X165465000Y-109194248D01*
G37*
X165465000Y-109194248D02*
X165459509Y-109250000D01*
X165465000Y-109305752D01*
X165465000Y-109361788D01*
X165475932Y-109416747D01*
X165481423Y-109472499D01*
X165497685Y-109526106D01*
X165508617Y-109581067D01*
X165530063Y-109632842D01*
X165546324Y-109686447D01*
X165572731Y-109735851D01*
X165594176Y-109787624D01*
X165625307Y-109834214D01*
X165651716Y-109883623D01*
X165687259Y-109926932D01*
X165718388Y-109973520D01*
X165758009Y-110013141D01*
X165793551Y-110056449D01*
X165836859Y-110091991D01*
X165876480Y-110131612D01*
X165923068Y-110162741D01*
X165966377Y-110198284D01*
X166015786Y-110224693D01*
X166062376Y-110255824D01*
X166114149Y-110277269D01*
X166163553Y-110303676D01*
X166217158Y-110319937D01*
X166268933Y-110341383D01*
X166323894Y-110352315D01*
X166377501Y-110368577D01*
X166433253Y-110374068D01*
X166488212Y-110385000D01*
X168189249Y-110385000D01*
X168245000Y-110390491D01*
X168297000Y-110385369D01*
X168297000Y-110592000D01*
X168277000Y-110592000D01*
X168277000Y-110612000D01*
X168023000Y-110612000D01*
X168023000Y-110592000D01*
X166823750Y-110592000D01*
X166665000Y-110750750D01*
X166662713Y-110779965D01*
X166601898Y-110754774D01*
X166401939Y-110715000D01*
X166198061Y-110715000D01*
X165998102Y-110754774D01*
X165809744Y-110832795D01*
X165640226Y-110946063D01*
X165496063Y-111090226D01*
X165382795Y-111259744D01*
X165304774Y-111448102D01*
X165265000Y-111648061D01*
X165265000Y-111851939D01*
X165304774Y-112051898D01*
X165382795Y-112240256D01*
X165456123Y-112350000D01*
X165382795Y-112459744D01*
X165304774Y-112648102D01*
X165265000Y-112848061D01*
X165265000Y-113051939D01*
X165304774Y-113251898D01*
X165382795Y-113440256D01*
X165496063Y-113609774D01*
X165640226Y-113753937D01*
X165809744Y-113867205D01*
X165998102Y-113945226D01*
X166198061Y-113985000D01*
X166401939Y-113985000D01*
X166601898Y-113945226D01*
X166790256Y-113867205D01*
X166880311Y-113807033D01*
X166945506Y-113860537D01*
X167055820Y-113919502D01*
X167175518Y-113955812D01*
X167300000Y-113968072D01*
X167535040Y-113968072D01*
X167592236Y-114037764D01*
X167622189Y-114062346D01*
X167924842Y-114364999D01*
X162813557Y-114364999D01*
X162775001Y-114361202D01*
X162736445Y-114364999D01*
X162736440Y-114364999D01*
X162696027Y-114368979D01*
X162621114Y-114376357D01*
X162484369Y-114417839D01*
X162473141Y-114421245D01*
X162336768Y-114494137D01*
X162217237Y-114592235D01*
X162192654Y-114622189D01*
X159836846Y-116977997D01*
X159826745Y-116978992D01*
X159729860Y-117008382D01*
X159738072Y-116925000D01*
X159738072Y-116375000D01*
X159725812Y-116250518D01*
X159725655Y-116250000D01*
X159725812Y-116249482D01*
X159738072Y-116125000D01*
X159738072Y-115575000D01*
X159725812Y-115450518D01*
X159725454Y-115449337D01*
X159735000Y-115335750D01*
X159642917Y-115243667D01*
X159630537Y-115220506D01*
X159551185Y-115123815D01*
X159461241Y-115050000D01*
X159551185Y-114976185D01*
X159630537Y-114879494D01*
X159642917Y-114856333D01*
X159735000Y-114764250D01*
X159725454Y-114650663D01*
X159725812Y-114649482D01*
X159738072Y-114525000D01*
X159738072Y-114028030D01*
X159762766Y-114007764D01*
X159787349Y-113977810D01*
X159824748Y-113940411D01*
X159875518Y-113955812D01*
X160000000Y-113968072D01*
X160564250Y-113965000D01*
X160723000Y-113806250D01*
X160723000Y-113132000D01*
X160977000Y-113132000D01*
X160977000Y-113806250D01*
X161135750Y-113965000D01*
X161700000Y-113968072D01*
X161824482Y-113955812D01*
X161944180Y-113919502D01*
X162054494Y-113860537D01*
X162151185Y-113781185D01*
X162230537Y-113684494D01*
X162289502Y-113574180D01*
X162325812Y-113454482D01*
X162338072Y-113330000D01*
X162335000Y-113290750D01*
X162176250Y-113132000D01*
X160977000Y-113132000D01*
X160723000Y-113132000D01*
X160703000Y-113132000D01*
X160703000Y-112878000D01*
X160723000Y-112878000D01*
X160723000Y-112858000D01*
X160822409Y-112858000D01*
X160977000Y-112873226D01*
X160977000Y-112878000D01*
X162176250Y-112878000D01*
X162219250Y-112835000D01*
X162761788Y-112835000D01*
X162816747Y-112824068D01*
X162872499Y-112818577D01*
X162926106Y-112802315D01*
X162981067Y-112791383D01*
X163032842Y-112769937D01*
X163086447Y-112753676D01*
X163135851Y-112727269D01*
X163187624Y-112705824D01*
X163234214Y-112674693D01*
X163283623Y-112648284D01*
X163326932Y-112612741D01*
X163373520Y-112581612D01*
X163413141Y-112541991D01*
X163456449Y-112506449D01*
X163491991Y-112463141D01*
X163531612Y-112423520D01*
X163562741Y-112376932D01*
X163598284Y-112333623D01*
X163624693Y-112284214D01*
X163655824Y-112237624D01*
X163677269Y-112185851D01*
X163703676Y-112136447D01*
X163719937Y-112082842D01*
X163741383Y-112031067D01*
X163752315Y-111976106D01*
X163768577Y-111922499D01*
X163774068Y-111866747D01*
X163785000Y-111811788D01*
X163785000Y-111755752D01*
X163790491Y-111700000D01*
X163785000Y-111644248D01*
X163785000Y-111588212D01*
X163774068Y-111533253D01*
X163768577Y-111477501D01*
X163752315Y-111423894D01*
X163741383Y-111368933D01*
X163719937Y-111317158D01*
X163703676Y-111263553D01*
X163677269Y-111214149D01*
X163655824Y-111162376D01*
X163643914Y-111144551D01*
X163688233Y-111120862D01*
X163807764Y-111022764D01*
X163905862Y-110903233D01*
X163978754Y-110766860D01*
X164023641Y-110618887D01*
X164035000Y-110503561D01*
X164038798Y-110465000D01*
X164035000Y-110426439D01*
X164035000Y-109184990D01*
X165465000Y-109184990D01*
X165465000Y-109194248D01*
G36*
X148512651Y-113977810D02*
G01*
X148537234Y-114007764D01*
X148656765Y-114105862D01*
X148717935Y-114138558D01*
X148748815Y-114176185D01*
X148838759Y-114250000D01*
X148748815Y-114323815D01*
X148669463Y-114420506D01*
X148657083Y-114443667D01*
X148565000Y-114535750D01*
X148574546Y-114649337D01*
X148574188Y-114650518D01*
X148561928Y-114775000D01*
X148561928Y-115325000D01*
X148574188Y-115449482D01*
X148574546Y-115450663D01*
X148565000Y-115564250D01*
X148657083Y-115656333D01*
X148669463Y-115679494D01*
X148748815Y-115776185D01*
X148838759Y-115850000D01*
X148748815Y-115923815D01*
X148669463Y-116020506D01*
X148657083Y-116043667D01*
X148565000Y-116135750D01*
X148574546Y-116249337D01*
X148574188Y-116250518D01*
X148561928Y-116375000D01*
X148561928Y-116665000D01*
X148288072Y-116665000D01*
X148288072Y-113753231D01*
X148512651Y-113977810D01*
G37*
X148512651Y-113977810D02*
X148537234Y-114007764D01*
X148656765Y-114105862D01*
X148717935Y-114138558D01*
X148748815Y-114176185D01*
X148838759Y-114250000D01*
X148748815Y-114323815D01*
X148669463Y-114420506D01*
X148657083Y-114443667D01*
X148565000Y-114535750D01*
X148574546Y-114649337D01*
X148574188Y-114650518D01*
X148561928Y-114775000D01*
X148561928Y-115325000D01*
X148574188Y-115449482D01*
X148574546Y-115450663D01*
X148565000Y-115564250D01*
X148657083Y-115656333D01*
X148669463Y-115679494D01*
X148748815Y-115776185D01*
X148838759Y-115850000D01*
X148748815Y-115923815D01*
X148669463Y-116020506D01*
X148657083Y-116043667D01*
X148565000Y-116135750D01*
X148574546Y-116249337D01*
X148574188Y-116250518D01*
X148561928Y-116375000D01*
X148561928Y-116665000D01*
X148288072Y-116665000D01*
X148288072Y-113753231D01*
X148512651Y-113977810D01*
G36*
X147546769Y-113011928D02*
G01*
X145250000Y-113011928D01*
X145125518Y-113024188D01*
X145005820Y-113060498D01*
X144895506Y-113119463D01*
X144798815Y-113198815D01*
X144724885Y-113288899D01*
X144531067Y-113208617D01*
X144311788Y-113165000D01*
X144175157Y-113165000D01*
X144082347Y-113072189D01*
X144057764Y-113042236D01*
X143938233Y-112944138D01*
X143801860Y-112871246D01*
X143653887Y-112826359D01*
X143538561Y-112815000D01*
X143538553Y-112815000D01*
X143500000Y-112811203D01*
X143461447Y-112815000D01*
X142788556Y-112815000D01*
X142750000Y-112811203D01*
X142711444Y-112815000D01*
X142711439Y-112815000D01*
X142671026Y-112818980D01*
X142596113Y-112826358D01*
X142448140Y-112871246D01*
X142311767Y-112944138D01*
X142192236Y-113042236D01*
X142167653Y-113072190D01*
X141372185Y-113867658D01*
X141342237Y-113892236D01*
X141318270Y-113921439D01*
X141288755Y-113824143D01*
X141267833Y-113785000D01*
X141215863Y-113687770D01*
X141117765Y-113568239D01*
X141087811Y-113543656D01*
X140210744Y-112666589D01*
X140431355Y-112535178D01*
X140647588Y-112340269D01*
X140821641Y-112106920D01*
X140946825Y-111844099D01*
X140991476Y-111696890D01*
X140966731Y-111650000D01*
X141661928Y-111650000D01*
X141674188Y-111774482D01*
X141710498Y-111894180D01*
X141769463Y-112004494D01*
X141848815Y-112101185D01*
X141945506Y-112180537D01*
X142055820Y-112239502D01*
X142175518Y-112275812D01*
X142300000Y-112288072D01*
X142714250Y-112285000D01*
X142873000Y-112126250D01*
X142873000Y-111202000D01*
X143127000Y-111202000D01*
X143127000Y-112126250D01*
X143285750Y-112285000D01*
X143700000Y-112288072D01*
X143824482Y-112275812D01*
X143944180Y-112239502D01*
X144054494Y-112180537D01*
X144151185Y-112101185D01*
X144230537Y-112004494D01*
X144289502Y-111894180D01*
X144325812Y-111774482D01*
X144338072Y-111650000D01*
X144335000Y-111360750D01*
X144176250Y-111202000D01*
X143127000Y-111202000D01*
X142873000Y-111202000D01*
X141823750Y-111202000D01*
X141665000Y-111360750D01*
X141661928Y-111650000D01*
X140966731Y-111650000D01*
X140870155Y-111467000D01*
X139677000Y-111467000D01*
X139677000Y-111487000D01*
X139423000Y-111487000D01*
X139423000Y-111467000D01*
X139403000Y-111467000D01*
X139403000Y-111213000D01*
X139423000Y-111213000D01*
X139423000Y-111193000D01*
X139677000Y-111193000D01*
X139677000Y-111213000D01*
X140870155Y-111213000D01*
X140991476Y-110983110D01*
X140946825Y-110835901D01*
X140821641Y-110573080D01*
X140647588Y-110339731D01*
X140563534Y-110263966D01*
X140644180Y-110239502D01*
X140754494Y-110180537D01*
X140851185Y-110101185D01*
X140930537Y-110004494D01*
X140967683Y-109935000D01*
X141886780Y-109935000D01*
X141922038Y-109977962D01*
X141928594Y-109983342D01*
X141848815Y-110048815D01*
X141769463Y-110145506D01*
X141710498Y-110255820D01*
X141674188Y-110375518D01*
X141661928Y-110500000D01*
X141665000Y-110789250D01*
X141823750Y-110948000D01*
X142873000Y-110948000D01*
X142873000Y-110928000D01*
X143127000Y-110928000D01*
X143127000Y-110948000D01*
X144176250Y-110948000D01*
X144335000Y-110789250D01*
X144338072Y-110500000D01*
X144325812Y-110375518D01*
X144289502Y-110255820D01*
X144230537Y-110145506D01*
X144151185Y-110048815D01*
X144071406Y-109983342D01*
X144077962Y-109977962D01*
X144188405Y-109843387D01*
X144254526Y-109719685D01*
X147546769Y-113011928D01*
G37*
X147546769Y-113011928D02*
X145250000Y-113011928D01*
X145125518Y-113024188D01*
X145005820Y-113060498D01*
X144895506Y-113119463D01*
X144798815Y-113198815D01*
X144724885Y-113288899D01*
X144531067Y-113208617D01*
X144311788Y-113165000D01*
X144175157Y-113165000D01*
X144082347Y-113072189D01*
X144057764Y-113042236D01*
X143938233Y-112944138D01*
X143801860Y-112871246D01*
X143653887Y-112826359D01*
X143538561Y-112815000D01*
X143538553Y-112815000D01*
X143500000Y-112811203D01*
X143461447Y-112815000D01*
X142788556Y-112815000D01*
X142750000Y-112811203D01*
X142711444Y-112815000D01*
X142711439Y-112815000D01*
X142671026Y-112818980D01*
X142596113Y-112826358D01*
X142448140Y-112871246D01*
X142311767Y-112944138D01*
X142192236Y-113042236D01*
X142167653Y-113072190D01*
X141372185Y-113867658D01*
X141342237Y-113892236D01*
X141318270Y-113921439D01*
X141288755Y-113824143D01*
X141267833Y-113785000D01*
X141215863Y-113687770D01*
X141117765Y-113568239D01*
X141087811Y-113543656D01*
X140210744Y-112666589D01*
X140431355Y-112535178D01*
X140647588Y-112340269D01*
X140821641Y-112106920D01*
X140946825Y-111844099D01*
X140991476Y-111696890D01*
X140966731Y-111650000D01*
X141661928Y-111650000D01*
X141674188Y-111774482D01*
X141710498Y-111894180D01*
X141769463Y-112004494D01*
X141848815Y-112101185D01*
X141945506Y-112180537D01*
X142055820Y-112239502D01*
X142175518Y-112275812D01*
X142300000Y-112288072D01*
X142714250Y-112285000D01*
X142873000Y-112126250D01*
X142873000Y-111202000D01*
X143127000Y-111202000D01*
X143127000Y-112126250D01*
X143285750Y-112285000D01*
X143700000Y-112288072D01*
X143824482Y-112275812D01*
X143944180Y-112239502D01*
X144054494Y-112180537D01*
X144151185Y-112101185D01*
X144230537Y-112004494D01*
X144289502Y-111894180D01*
X144325812Y-111774482D01*
X144338072Y-111650000D01*
X144335000Y-111360750D01*
X144176250Y-111202000D01*
X143127000Y-111202000D01*
X142873000Y-111202000D01*
X141823750Y-111202000D01*
X141665000Y-111360750D01*
X141661928Y-111650000D01*
X140966731Y-111650000D01*
X140870155Y-111467000D01*
X139677000Y-111467000D01*
X139677000Y-111487000D01*
X139423000Y-111487000D01*
X139423000Y-111467000D01*
X139403000Y-111467000D01*
X139403000Y-111213000D01*
X139423000Y-111213000D01*
X139423000Y-111193000D01*
X139677000Y-111193000D01*
X139677000Y-111213000D01*
X140870155Y-111213000D01*
X140991476Y-110983110D01*
X140946825Y-110835901D01*
X140821641Y-110573080D01*
X140647588Y-110339731D01*
X140563534Y-110263966D01*
X140644180Y-110239502D01*
X140754494Y-110180537D01*
X140851185Y-110101185D01*
X140930537Y-110004494D01*
X140967683Y-109935000D01*
X141886780Y-109935000D01*
X141922038Y-109977962D01*
X141928594Y-109983342D01*
X141848815Y-110048815D01*
X141769463Y-110145506D01*
X141710498Y-110255820D01*
X141674188Y-110375518D01*
X141661928Y-110500000D01*
X141665000Y-110789250D01*
X141823750Y-110948000D01*
X142873000Y-110948000D01*
X142873000Y-110928000D01*
X143127000Y-110928000D01*
X143127000Y-110948000D01*
X144176250Y-110948000D01*
X144335000Y-110789250D01*
X144338072Y-110500000D01*
X144325812Y-110375518D01*
X144289502Y-110255820D01*
X144230537Y-110145506D01*
X144151185Y-110048815D01*
X144071406Y-109983342D01*
X144077962Y-109977962D01*
X144188405Y-109843387D01*
X144254526Y-109719685D01*
X147546769Y-113011928D01*
G36*
X171102185Y-102815577D02*
G01*
X171072237Y-102840155D01*
X171047659Y-102870103D01*
X171047655Y-102870107D01*
X171021596Y-102901860D01*
X170974139Y-102959686D01*
X170949480Y-103005820D01*
X170901246Y-103096060D01*
X170856359Y-103244033D01*
X170847197Y-103337058D01*
X170683368Y-103446525D01*
X170476525Y-103653368D01*
X170360000Y-103827760D01*
X170243475Y-103653368D01*
X170036632Y-103446525D01*
X169793411Y-103284010D01*
X169523158Y-103172068D01*
X169236260Y-103115000D01*
X168943740Y-103115000D01*
X168656842Y-103172068D01*
X168386589Y-103284010D01*
X168143368Y-103446525D01*
X168011513Y-103578380D01*
X167989502Y-103505820D01*
X167930537Y-103395506D01*
X167851185Y-103298815D01*
X167754494Y-103219463D01*
X167644180Y-103160498D01*
X167524482Y-103124188D01*
X167400000Y-103111928D01*
X166835750Y-103115000D01*
X166677000Y-103273750D01*
X166677000Y-104473000D01*
X166697000Y-104473000D01*
X166697000Y-104727000D01*
X166677000Y-104727000D01*
X166677000Y-105926250D01*
X166835750Y-106085000D01*
X167400000Y-106088072D01*
X167524482Y-106075812D01*
X167644180Y-106039502D01*
X167754494Y-105980537D01*
X167851185Y-105901185D01*
X167930537Y-105804494D01*
X167989502Y-105694180D01*
X168011513Y-105621620D01*
X168143368Y-105753475D01*
X168386589Y-105915990D01*
X168656842Y-106027932D01*
X168943740Y-106085000D01*
X169236260Y-106085000D01*
X169523158Y-106027932D01*
X169793411Y-105915990D01*
X170036632Y-105753475D01*
X170243475Y-105546632D01*
X170360000Y-105372240D01*
X170476525Y-105546632D01*
X170683368Y-105753475D01*
X170926589Y-105915990D01*
X171196842Y-106027932D01*
X171483740Y-106085000D01*
X171776260Y-106085000D01*
X172063158Y-106027932D01*
X172333411Y-105915990D01*
X172576632Y-105753475D01*
X172783475Y-105546632D01*
X172900000Y-105372240D01*
X173016525Y-105546632D01*
X173223368Y-105753475D01*
X173466589Y-105915990D01*
X173565001Y-105956753D01*
X173565001Y-106229867D01*
X173468388Y-106326480D01*
X173344176Y-106512376D01*
X173258617Y-106718933D01*
X173215000Y-106938212D01*
X173215000Y-107161788D01*
X173258617Y-107381067D01*
X173344176Y-107587624D01*
X173468388Y-107773520D01*
X173626480Y-107931612D01*
X173812376Y-108055824D01*
X174018933Y-108141383D01*
X174238212Y-108185000D01*
X174461788Y-108185000D01*
X174681067Y-108141383D01*
X174887624Y-108055824D01*
X175073520Y-107931612D01*
X175231612Y-107773520D01*
X175355824Y-107587624D01*
X175441383Y-107381067D01*
X175485000Y-107161788D01*
X175485000Y-106938212D01*
X175441383Y-106718933D01*
X175355824Y-106512376D01*
X175231612Y-106326480D01*
X175135000Y-106229868D01*
X175135000Y-105735107D01*
X175323475Y-105546632D01*
X175485990Y-105303411D01*
X175597932Y-105033158D01*
X175655000Y-104746260D01*
X175655000Y-104453740D01*
X175597932Y-104166842D01*
X175485990Y-103896589D01*
X175323475Y-103653368D01*
X175116632Y-103446525D01*
X174873411Y-103284010D01*
X174858699Y-103277916D01*
X175971684Y-103277916D01*
X175867732Y-103528878D01*
X175795584Y-103891591D01*
X175795584Y-104261409D01*
X175867732Y-104624122D01*
X176009256Y-104965790D01*
X176214716Y-105273283D01*
X176476217Y-105534784D01*
X176783710Y-105740244D01*
X177125378Y-105881768D01*
X177488091Y-105953916D01*
X177857909Y-105953916D01*
X178220622Y-105881768D01*
X178469008Y-105778883D01*
X178469008Y-108076079D01*
X178250000Y-108054509D01*
X178027502Y-108076423D01*
X177900332Y-108115000D01*
X176488212Y-108115000D01*
X176433253Y-108125932D01*
X176377501Y-108131423D01*
X176323894Y-108147685D01*
X176268933Y-108158617D01*
X176217158Y-108180063D01*
X176163553Y-108196324D01*
X176114149Y-108222731D01*
X176062376Y-108244176D01*
X176015786Y-108275307D01*
X175966377Y-108301716D01*
X175923068Y-108337259D01*
X175876480Y-108368388D01*
X175836859Y-108408009D01*
X175793551Y-108443551D01*
X175758011Y-108486857D01*
X175718388Y-108526480D01*
X175687259Y-108573068D01*
X175651716Y-108616377D01*
X175625307Y-108665786D01*
X175594176Y-108712376D01*
X175572731Y-108764149D01*
X175546324Y-108813553D01*
X175530063Y-108867158D01*
X175508617Y-108918933D01*
X175497685Y-108973894D01*
X175481423Y-109027501D01*
X175475932Y-109083253D01*
X175465000Y-109138212D01*
X175465000Y-109194248D01*
X175459509Y-109250000D01*
X175465000Y-109305752D01*
X175465000Y-109361788D01*
X175475932Y-109416747D01*
X175481423Y-109472499D01*
X175497685Y-109526106D01*
X175508617Y-109581067D01*
X175530063Y-109632842D01*
X175546324Y-109686447D01*
X175572731Y-109735851D01*
X175594176Y-109787624D01*
X175625307Y-109834214D01*
X175651716Y-109883623D01*
X175687259Y-109926932D01*
X175718388Y-109973520D01*
X175758009Y-110013141D01*
X175793551Y-110056449D01*
X175836859Y-110091991D01*
X175876480Y-110131612D01*
X175923068Y-110162741D01*
X175966377Y-110198284D01*
X176015786Y-110224693D01*
X176062376Y-110255824D01*
X176114149Y-110277269D01*
X176163553Y-110303676D01*
X176217158Y-110319937D01*
X176268933Y-110341383D01*
X176323894Y-110352315D01*
X176377501Y-110368577D01*
X176433253Y-110374068D01*
X176488212Y-110385000D01*
X178139249Y-110385000D01*
X178195000Y-110390491D01*
X178197000Y-110390294D01*
X178197000Y-110592000D01*
X178177000Y-110592000D01*
X178177000Y-110612000D01*
X177923000Y-110612000D01*
X177923000Y-110592000D01*
X176723750Y-110592000D01*
X176576061Y-110739689D01*
X176451939Y-110715000D01*
X176248061Y-110715000D01*
X176048102Y-110754774D01*
X175859744Y-110832795D01*
X175690226Y-110946063D01*
X175546063Y-111090226D01*
X175432795Y-111259744D01*
X175354774Y-111448102D01*
X175315000Y-111648061D01*
X175315000Y-111851939D01*
X175354774Y-112051898D01*
X175432795Y-112240256D01*
X175546063Y-112409774D01*
X175690226Y-112553937D01*
X175859744Y-112667205D01*
X176048102Y-112745226D01*
X176248061Y-112785000D01*
X176451939Y-112785000D01*
X176561928Y-112763122D01*
X176561928Y-113065000D01*
X170603000Y-113065000D01*
X170603000Y-112878000D01*
X170623000Y-112878000D01*
X170623000Y-112858000D01*
X170707634Y-112858000D01*
X170742501Y-112868577D01*
X170909248Y-112885000D01*
X170909255Y-112885000D01*
X170964999Y-112890490D01*
X171020743Y-112885000D01*
X172761788Y-112885000D01*
X172816747Y-112874068D01*
X172872499Y-112868577D01*
X172926106Y-112852315D01*
X172981067Y-112841383D01*
X173032842Y-112819937D01*
X173086447Y-112803676D01*
X173135851Y-112777269D01*
X173187624Y-112755824D01*
X173234214Y-112724693D01*
X173283623Y-112698284D01*
X173326932Y-112662741D01*
X173373520Y-112631612D01*
X173413141Y-112591991D01*
X173456449Y-112556449D01*
X173491991Y-112513141D01*
X173531612Y-112473520D01*
X173562741Y-112426932D01*
X173598284Y-112383623D01*
X173624693Y-112334214D01*
X173655824Y-112287624D01*
X173677269Y-112235851D01*
X173703676Y-112186447D01*
X173719937Y-112132842D01*
X173741383Y-112081067D01*
X173752315Y-112026106D01*
X173768577Y-111972499D01*
X173774068Y-111916747D01*
X173785000Y-111861788D01*
X173785000Y-111805752D01*
X173790491Y-111750000D01*
X173785000Y-111694248D01*
X173785000Y-111638212D01*
X173774068Y-111583253D01*
X173768577Y-111527501D01*
X173752315Y-111473894D01*
X173741383Y-111418933D01*
X173719937Y-111367158D01*
X173703676Y-111313553D01*
X173677269Y-111264149D01*
X173655824Y-111212376D01*
X173624693Y-111165786D01*
X173598284Y-111116377D01*
X173562741Y-111073068D01*
X173531612Y-111026480D01*
X173491989Y-110986857D01*
X173456449Y-110943551D01*
X173413141Y-110908009D01*
X173373520Y-110868388D01*
X173326932Y-110837259D01*
X173283623Y-110801716D01*
X173234214Y-110775307D01*
X173187624Y-110744176D01*
X173135851Y-110722731D01*
X173086447Y-110696324D01*
X173032842Y-110680063D01*
X172981067Y-110658617D01*
X172926106Y-110647685D01*
X172872499Y-110631423D01*
X172816747Y-110625932D01*
X172761788Y-110615000D01*
X172238072Y-110615000D01*
X172238072Y-110285000D01*
X172401939Y-110285000D01*
X172601898Y-110245226D01*
X172790256Y-110167205D01*
X172959774Y-110053937D01*
X173103937Y-109909774D01*
X173217205Y-109740256D01*
X173295226Y-109551898D01*
X173335000Y-109351939D01*
X173335000Y-109148061D01*
X173295226Y-108948102D01*
X173217205Y-108759744D01*
X173103937Y-108590226D01*
X172959774Y-108446063D01*
X172790256Y-108332795D01*
X172601898Y-108254774D01*
X172401939Y-108215000D01*
X172198061Y-108215000D01*
X171998102Y-108254774D01*
X171884268Y-108301926D01*
X171844180Y-108280498D01*
X171724482Y-108244188D01*
X171600000Y-108231928D01*
X170048710Y-108231928D01*
X170005863Y-108151766D01*
X169907765Y-108032235D01*
X169877811Y-108007652D01*
X169687341Y-107817182D01*
X169662758Y-107787228D01*
X169543227Y-107689130D01*
X169406854Y-107616238D01*
X169258881Y-107571351D01*
X169143555Y-107559992D01*
X169143547Y-107559992D01*
X169104994Y-107556195D01*
X169066441Y-107559992D01*
X167043564Y-107559992D01*
X167005008Y-107556195D01*
X166966453Y-107559992D01*
X166966447Y-107559992D01*
X166922057Y-107564364D01*
X166851122Y-107571350D01*
X166771492Y-107595506D01*
X166707262Y-107614990D01*
X163638566Y-107614990D01*
X163600010Y-107611193D01*
X163561454Y-107614990D01*
X163561449Y-107614990D01*
X163521036Y-107618970D01*
X163446123Y-107626348D01*
X163318707Y-107665000D01*
X163298150Y-107671236D01*
X163287230Y-107677073D01*
X163282346Y-107672189D01*
X163257764Y-107642236D01*
X163138233Y-107544138D01*
X163001860Y-107471246D01*
X162853887Y-107426359D01*
X162738561Y-107415000D01*
X162738553Y-107415000D01*
X162700000Y-107411203D01*
X162661447Y-107415000D01*
X160026432Y-107415000D01*
X159987879Y-107411203D01*
X159949326Y-107415000D01*
X159949319Y-107415000D01*
X159848370Y-107424943D01*
X159833992Y-107426359D01*
X159743248Y-107453886D01*
X159686020Y-107471246D01*
X159549647Y-107544138D01*
X159496660Y-107587624D01*
X159460067Y-107617655D01*
X159460064Y-107617658D01*
X159430116Y-107642236D01*
X159405538Y-107672184D01*
X158709502Y-108368220D01*
X158681612Y-108326480D01*
X158641989Y-108286857D01*
X158606449Y-108243551D01*
X158563141Y-108208009D01*
X158523520Y-108168388D01*
X158476932Y-108137259D01*
X158433623Y-108101716D01*
X158384214Y-108075307D01*
X158337624Y-108044176D01*
X158285851Y-108022731D01*
X158236447Y-107996324D01*
X158182842Y-107980063D01*
X158131067Y-107958617D01*
X158076106Y-107947685D01*
X158022499Y-107931423D01*
X157966747Y-107925932D01*
X157911788Y-107915000D01*
X157463220Y-107915000D01*
X157427962Y-107872038D01*
X157293387Y-107761595D01*
X157139851Y-107679528D01*
X156973255Y-107628992D01*
X156800001Y-107611928D01*
X156149999Y-107611928D01*
X155976745Y-107628992D01*
X155810149Y-107679528D01*
X155656613Y-107761595D01*
X155522038Y-107872038D01*
X155450000Y-107959816D01*
X155377962Y-107872038D01*
X155243387Y-107761595D01*
X155089851Y-107679528D01*
X154923255Y-107628992D01*
X154750001Y-107611928D01*
X154099999Y-107611928D01*
X153926745Y-107628992D01*
X153760149Y-107679528D01*
X153735000Y-107692970D01*
X153735000Y-106297238D01*
X154147815Y-105884424D01*
X154177764Y-105859845D01*
X154205655Y-105825861D01*
X154226450Y-105800522D01*
X154275862Y-105740314D01*
X154348754Y-105603941D01*
X154364012Y-105553641D01*
X154393641Y-105455969D01*
X154394228Y-105450000D01*
X165061928Y-105450000D01*
X165074188Y-105574482D01*
X165110498Y-105694180D01*
X165169463Y-105804494D01*
X165248815Y-105901185D01*
X165345506Y-105980537D01*
X165455820Y-106039502D01*
X165575518Y-106075812D01*
X165700000Y-106088072D01*
X166264250Y-106085000D01*
X166423000Y-105926250D01*
X166423000Y-104727000D01*
X165223750Y-104727000D01*
X165065000Y-104885750D01*
X165061928Y-105450000D01*
X154394228Y-105450000D01*
X154396568Y-105426250D01*
X154402804Y-105362942D01*
X154566632Y-105253475D01*
X154773475Y-105046632D01*
X154935990Y-104803411D01*
X155047932Y-104533158D01*
X155105000Y-104246260D01*
X155105000Y-103953740D01*
X155064474Y-103750000D01*
X165061928Y-103750000D01*
X165065000Y-104314250D01*
X165223750Y-104473000D01*
X166423000Y-104473000D01*
X166423000Y-103273750D01*
X166264250Y-103115000D01*
X165700000Y-103111928D01*
X165575518Y-103124188D01*
X165455820Y-103160498D01*
X165345506Y-103219463D01*
X165248815Y-103298815D01*
X165169463Y-103395506D01*
X165110498Y-103505820D01*
X165074188Y-103625518D01*
X165061928Y-103750000D01*
X155064474Y-103750000D01*
X155047932Y-103666842D01*
X154935990Y-103396589D01*
X154773475Y-103153368D01*
X154566632Y-102946525D01*
X154323411Y-102784010D01*
X154131456Y-102704500D01*
X171213262Y-102704500D01*
X171102185Y-102815577D01*
G37*
X171102185Y-102815577D02*
X171072237Y-102840155D01*
X171047659Y-102870103D01*
X171047655Y-102870107D01*
X171021596Y-102901860D01*
X170974139Y-102959686D01*
X170949480Y-103005820D01*
X170901246Y-103096060D01*
X170856359Y-103244033D01*
X170847197Y-103337058D01*
X170683368Y-103446525D01*
X170476525Y-103653368D01*
X170360000Y-103827760D01*
X170243475Y-103653368D01*
X170036632Y-103446525D01*
X169793411Y-103284010D01*
X169523158Y-103172068D01*
X169236260Y-103115000D01*
X168943740Y-103115000D01*
X168656842Y-103172068D01*
X168386589Y-103284010D01*
X168143368Y-103446525D01*
X168011513Y-103578380D01*
X167989502Y-103505820D01*
X167930537Y-103395506D01*
X167851185Y-103298815D01*
X167754494Y-103219463D01*
X167644180Y-103160498D01*
X167524482Y-103124188D01*
X167400000Y-103111928D01*
X166835750Y-103115000D01*
X166677000Y-103273750D01*
X166677000Y-104473000D01*
X166697000Y-104473000D01*
X166697000Y-104727000D01*
X166677000Y-104727000D01*
X166677000Y-105926250D01*
X166835750Y-106085000D01*
X167400000Y-106088072D01*
X167524482Y-106075812D01*
X167644180Y-106039502D01*
X167754494Y-105980537D01*
X167851185Y-105901185D01*
X167930537Y-105804494D01*
X167989502Y-105694180D01*
X168011513Y-105621620D01*
X168143368Y-105753475D01*
X168386589Y-105915990D01*
X168656842Y-106027932D01*
X168943740Y-106085000D01*
X169236260Y-106085000D01*
X169523158Y-106027932D01*
X169793411Y-105915990D01*
X170036632Y-105753475D01*
X170243475Y-105546632D01*
X170360000Y-105372240D01*
X170476525Y-105546632D01*
X170683368Y-105753475D01*
X170926589Y-105915990D01*
X171196842Y-106027932D01*
X171483740Y-106085000D01*
X171776260Y-106085000D01*
X172063158Y-106027932D01*
X172333411Y-105915990D01*
X172576632Y-105753475D01*
X172783475Y-105546632D01*
X172900000Y-105372240D01*
X173016525Y-105546632D01*
X173223368Y-105753475D01*
X173466589Y-105915990D01*
X173565001Y-105956753D01*
X173565001Y-106229867D01*
X173468388Y-106326480D01*
X173344176Y-106512376D01*
X173258617Y-106718933D01*
X173215000Y-106938212D01*
X173215000Y-107161788D01*
X173258617Y-107381067D01*
X173344176Y-107587624D01*
X173468388Y-107773520D01*
X173626480Y-107931612D01*
X173812376Y-108055824D01*
X174018933Y-108141383D01*
X174238212Y-108185000D01*
X174461788Y-108185000D01*
X174681067Y-108141383D01*
X174887624Y-108055824D01*
X175073520Y-107931612D01*
X175231612Y-107773520D01*
X175355824Y-107587624D01*
X175441383Y-107381067D01*
X175485000Y-107161788D01*
X175485000Y-106938212D01*
X175441383Y-106718933D01*
X175355824Y-106512376D01*
X175231612Y-106326480D01*
X175135000Y-106229868D01*
X175135000Y-105735107D01*
X175323475Y-105546632D01*
X175485990Y-105303411D01*
X175597932Y-105033158D01*
X175655000Y-104746260D01*
X175655000Y-104453740D01*
X175597932Y-104166842D01*
X175485990Y-103896589D01*
X175323475Y-103653368D01*
X175116632Y-103446525D01*
X174873411Y-103284010D01*
X174858699Y-103277916D01*
X175971684Y-103277916D01*
X175867732Y-103528878D01*
X175795584Y-103891591D01*
X175795584Y-104261409D01*
X175867732Y-104624122D01*
X176009256Y-104965790D01*
X176214716Y-105273283D01*
X176476217Y-105534784D01*
X176783710Y-105740244D01*
X177125378Y-105881768D01*
X177488091Y-105953916D01*
X177857909Y-105953916D01*
X178220622Y-105881768D01*
X178469008Y-105778883D01*
X178469008Y-108076079D01*
X178250000Y-108054509D01*
X178027502Y-108076423D01*
X177900332Y-108115000D01*
X176488212Y-108115000D01*
X176433253Y-108125932D01*
X176377501Y-108131423D01*
X176323894Y-108147685D01*
X176268933Y-108158617D01*
X176217158Y-108180063D01*
X176163553Y-108196324D01*
X176114149Y-108222731D01*
X176062376Y-108244176D01*
X176015786Y-108275307D01*
X175966377Y-108301716D01*
X175923068Y-108337259D01*
X175876480Y-108368388D01*
X175836859Y-108408009D01*
X175793551Y-108443551D01*
X175758011Y-108486857D01*
X175718388Y-108526480D01*
X175687259Y-108573068D01*
X175651716Y-108616377D01*
X175625307Y-108665786D01*
X175594176Y-108712376D01*
X175572731Y-108764149D01*
X175546324Y-108813553D01*
X175530063Y-108867158D01*
X175508617Y-108918933D01*
X175497685Y-108973894D01*
X175481423Y-109027501D01*
X175475932Y-109083253D01*
X175465000Y-109138212D01*
X175465000Y-109194248D01*
X175459509Y-109250000D01*
X175465000Y-109305752D01*
X175465000Y-109361788D01*
X175475932Y-109416747D01*
X175481423Y-109472499D01*
X175497685Y-109526106D01*
X175508617Y-109581067D01*
X175530063Y-109632842D01*
X175546324Y-109686447D01*
X175572731Y-109735851D01*
X175594176Y-109787624D01*
X175625307Y-109834214D01*
X175651716Y-109883623D01*
X175687259Y-109926932D01*
X175718388Y-109973520D01*
X175758009Y-110013141D01*
X175793551Y-110056449D01*
X175836859Y-110091991D01*
X175876480Y-110131612D01*
X175923068Y-110162741D01*
X175966377Y-110198284D01*
X176015786Y-110224693D01*
X176062376Y-110255824D01*
X176114149Y-110277269D01*
X176163553Y-110303676D01*
X176217158Y-110319937D01*
X176268933Y-110341383D01*
X176323894Y-110352315D01*
X176377501Y-110368577D01*
X176433253Y-110374068D01*
X176488212Y-110385000D01*
X178139249Y-110385000D01*
X178195000Y-110390491D01*
X178197000Y-110390294D01*
X178197000Y-110592000D01*
X178177000Y-110592000D01*
X178177000Y-110612000D01*
X177923000Y-110612000D01*
X177923000Y-110592000D01*
X176723750Y-110592000D01*
X176576061Y-110739689D01*
X176451939Y-110715000D01*
X176248061Y-110715000D01*
X176048102Y-110754774D01*
X175859744Y-110832795D01*
X175690226Y-110946063D01*
X175546063Y-111090226D01*
X175432795Y-111259744D01*
X175354774Y-111448102D01*
X175315000Y-111648061D01*
X175315000Y-111851939D01*
X175354774Y-112051898D01*
X175432795Y-112240256D01*
X175546063Y-112409774D01*
X175690226Y-112553937D01*
X175859744Y-112667205D01*
X176048102Y-112745226D01*
X176248061Y-112785000D01*
X176451939Y-112785000D01*
X176561928Y-112763122D01*
X176561928Y-113065000D01*
X170603000Y-113065000D01*
X170603000Y-112878000D01*
X170623000Y-112878000D01*
X170623000Y-112858000D01*
X170707634Y-112858000D01*
X170742501Y-112868577D01*
X170909248Y-112885000D01*
X170909255Y-112885000D01*
X170964999Y-112890490D01*
X171020743Y-112885000D01*
X172761788Y-112885000D01*
X172816747Y-112874068D01*
X172872499Y-112868577D01*
X172926106Y-112852315D01*
X172981067Y-112841383D01*
X173032842Y-112819937D01*
X173086447Y-112803676D01*
X173135851Y-112777269D01*
X173187624Y-112755824D01*
X173234214Y-112724693D01*
X173283623Y-112698284D01*
X173326932Y-112662741D01*
X173373520Y-112631612D01*
X173413141Y-112591991D01*
X173456449Y-112556449D01*
X173491991Y-112513141D01*
X173531612Y-112473520D01*
X173562741Y-112426932D01*
X173598284Y-112383623D01*
X173624693Y-112334214D01*
X173655824Y-112287624D01*
X173677269Y-112235851D01*
X173703676Y-112186447D01*
X173719937Y-112132842D01*
X173741383Y-112081067D01*
X173752315Y-112026106D01*
X173768577Y-111972499D01*
X173774068Y-111916747D01*
X173785000Y-111861788D01*
X173785000Y-111805752D01*
X173790491Y-111750000D01*
X173785000Y-111694248D01*
X173785000Y-111638212D01*
X173774068Y-111583253D01*
X173768577Y-111527501D01*
X173752315Y-111473894D01*
X173741383Y-111418933D01*
X173719937Y-111367158D01*
X173703676Y-111313553D01*
X173677269Y-111264149D01*
X173655824Y-111212376D01*
X173624693Y-111165786D01*
X173598284Y-111116377D01*
X173562741Y-111073068D01*
X173531612Y-111026480D01*
X173491989Y-110986857D01*
X173456449Y-110943551D01*
X173413141Y-110908009D01*
X173373520Y-110868388D01*
X173326932Y-110837259D01*
X173283623Y-110801716D01*
X173234214Y-110775307D01*
X173187624Y-110744176D01*
X173135851Y-110722731D01*
X173086447Y-110696324D01*
X173032842Y-110680063D01*
X172981067Y-110658617D01*
X172926106Y-110647685D01*
X172872499Y-110631423D01*
X172816747Y-110625932D01*
X172761788Y-110615000D01*
X172238072Y-110615000D01*
X172238072Y-110285000D01*
X172401939Y-110285000D01*
X172601898Y-110245226D01*
X172790256Y-110167205D01*
X172959774Y-110053937D01*
X173103937Y-109909774D01*
X173217205Y-109740256D01*
X173295226Y-109551898D01*
X173335000Y-109351939D01*
X173335000Y-109148061D01*
X173295226Y-108948102D01*
X173217205Y-108759744D01*
X173103937Y-108590226D01*
X172959774Y-108446063D01*
X172790256Y-108332795D01*
X172601898Y-108254774D01*
X172401939Y-108215000D01*
X172198061Y-108215000D01*
X171998102Y-108254774D01*
X171884268Y-108301926D01*
X171844180Y-108280498D01*
X171724482Y-108244188D01*
X171600000Y-108231928D01*
X170048710Y-108231928D01*
X170005863Y-108151766D01*
X169907765Y-108032235D01*
X169877811Y-108007652D01*
X169687341Y-107817182D01*
X169662758Y-107787228D01*
X169543227Y-107689130D01*
X169406854Y-107616238D01*
X169258881Y-107571351D01*
X169143555Y-107559992D01*
X169143547Y-107559992D01*
X169104994Y-107556195D01*
X169066441Y-107559992D01*
X167043564Y-107559992D01*
X167005008Y-107556195D01*
X166966453Y-107559992D01*
X166966447Y-107559992D01*
X166922057Y-107564364D01*
X166851122Y-107571350D01*
X166771492Y-107595506D01*
X166707262Y-107614990D01*
X163638566Y-107614990D01*
X163600010Y-107611193D01*
X163561454Y-107614990D01*
X163561449Y-107614990D01*
X163521036Y-107618970D01*
X163446123Y-107626348D01*
X163318707Y-107665000D01*
X163298150Y-107671236D01*
X163287230Y-107677073D01*
X163282346Y-107672189D01*
X163257764Y-107642236D01*
X163138233Y-107544138D01*
X163001860Y-107471246D01*
X162853887Y-107426359D01*
X162738561Y-107415000D01*
X162738553Y-107415000D01*
X162700000Y-107411203D01*
X162661447Y-107415000D01*
X160026432Y-107415000D01*
X159987879Y-107411203D01*
X159949326Y-107415000D01*
X159949319Y-107415000D01*
X159848370Y-107424943D01*
X159833992Y-107426359D01*
X159743248Y-107453886D01*
X159686020Y-107471246D01*
X159549647Y-107544138D01*
X159496660Y-107587624D01*
X159460067Y-107617655D01*
X159460064Y-107617658D01*
X159430116Y-107642236D01*
X159405538Y-107672184D01*
X158709502Y-108368220D01*
X158681612Y-108326480D01*
X158641989Y-108286857D01*
X158606449Y-108243551D01*
X158563141Y-108208009D01*
X158523520Y-108168388D01*
X158476932Y-108137259D01*
X158433623Y-108101716D01*
X158384214Y-108075307D01*
X158337624Y-108044176D01*
X158285851Y-108022731D01*
X158236447Y-107996324D01*
X158182842Y-107980063D01*
X158131067Y-107958617D01*
X158076106Y-107947685D01*
X158022499Y-107931423D01*
X157966747Y-107925932D01*
X157911788Y-107915000D01*
X157463220Y-107915000D01*
X157427962Y-107872038D01*
X157293387Y-107761595D01*
X157139851Y-107679528D01*
X156973255Y-107628992D01*
X156800001Y-107611928D01*
X156149999Y-107611928D01*
X155976745Y-107628992D01*
X155810149Y-107679528D01*
X155656613Y-107761595D01*
X155522038Y-107872038D01*
X155450000Y-107959816D01*
X155377962Y-107872038D01*
X155243387Y-107761595D01*
X155089851Y-107679528D01*
X154923255Y-107628992D01*
X154750001Y-107611928D01*
X154099999Y-107611928D01*
X153926745Y-107628992D01*
X153760149Y-107679528D01*
X153735000Y-107692970D01*
X153735000Y-106297238D01*
X154147815Y-105884424D01*
X154177764Y-105859845D01*
X154205655Y-105825861D01*
X154226450Y-105800522D01*
X154275862Y-105740314D01*
X154348754Y-105603941D01*
X154364012Y-105553641D01*
X154393641Y-105455969D01*
X154394228Y-105450000D01*
X165061928Y-105450000D01*
X165074188Y-105574482D01*
X165110498Y-105694180D01*
X165169463Y-105804494D01*
X165248815Y-105901185D01*
X165345506Y-105980537D01*
X165455820Y-106039502D01*
X165575518Y-106075812D01*
X165700000Y-106088072D01*
X166264250Y-106085000D01*
X166423000Y-105926250D01*
X166423000Y-104727000D01*
X165223750Y-104727000D01*
X165065000Y-104885750D01*
X165061928Y-105450000D01*
X154394228Y-105450000D01*
X154396568Y-105426250D01*
X154402804Y-105362942D01*
X154566632Y-105253475D01*
X154773475Y-105046632D01*
X154935990Y-104803411D01*
X155047932Y-104533158D01*
X155105000Y-104246260D01*
X155105000Y-103953740D01*
X155064474Y-103750000D01*
X165061928Y-103750000D01*
X165065000Y-104314250D01*
X165223750Y-104473000D01*
X166423000Y-104473000D01*
X166423000Y-103273750D01*
X166264250Y-103115000D01*
X165700000Y-103111928D01*
X165575518Y-103124188D01*
X165455820Y-103160498D01*
X165345506Y-103219463D01*
X165248815Y-103298815D01*
X165169463Y-103395506D01*
X165110498Y-103505820D01*
X165074188Y-103625518D01*
X165061928Y-103750000D01*
X155064474Y-103750000D01*
X155047932Y-103666842D01*
X154935990Y-103396589D01*
X154773475Y-103153368D01*
X154566632Y-102946525D01*
X154323411Y-102784010D01*
X154131456Y-102704500D01*
X171213262Y-102704500D01*
X171102185Y-102815577D01*
G36*
X144795506Y-102719463D02*
G01*
X144698815Y-102798815D01*
X144619463Y-102895506D01*
X144560498Y-103005820D01*
X144524188Y-103125518D01*
X144511928Y-103250000D01*
X144515000Y-103814250D01*
X144673750Y-103973000D01*
X145873000Y-103973000D01*
X145873000Y-103953000D01*
X146127000Y-103953000D01*
X146127000Y-103973000D01*
X146147000Y-103973000D01*
X146147000Y-104227000D01*
X146127000Y-104227000D01*
X146127000Y-104247000D01*
X145873000Y-104247000D01*
X145873000Y-104227000D01*
X144673750Y-104227000D01*
X144515000Y-104385750D01*
X144511928Y-104950000D01*
X144524188Y-105074482D01*
X144560498Y-105194180D01*
X144598353Y-105265000D01*
X140084319Y-105265000D01*
X140284244Y-104965790D01*
X140425768Y-104624122D01*
X140497916Y-104261409D01*
X140497916Y-103891591D01*
X140425768Y-103528878D01*
X140284244Y-103187210D01*
X140078784Y-102879717D01*
X139903567Y-102704500D01*
X144823499Y-102704500D01*
X144795506Y-102719463D01*
G37*
X144795506Y-102719463D02*
X144698815Y-102798815D01*
X144619463Y-102895506D01*
X144560498Y-103005820D01*
X144524188Y-103125518D01*
X144511928Y-103250000D01*
X144515000Y-103814250D01*
X144673750Y-103973000D01*
X145873000Y-103973000D01*
X145873000Y-103953000D01*
X146127000Y-103953000D01*
X146127000Y-103973000D01*
X146147000Y-103973000D01*
X146147000Y-104227000D01*
X146127000Y-104227000D01*
X146127000Y-104247000D01*
X145873000Y-104247000D01*
X145873000Y-104227000D01*
X144673750Y-104227000D01*
X144515000Y-104385750D01*
X144511928Y-104950000D01*
X144524188Y-105074482D01*
X144560498Y-105194180D01*
X144598353Y-105265000D01*
X140084319Y-105265000D01*
X140284244Y-104965790D01*
X140425768Y-104624122D01*
X140497916Y-104261409D01*
X140497916Y-103891591D01*
X140425768Y-103528878D01*
X140284244Y-103187210D01*
X140078784Y-102879717D01*
X139903567Y-102704500D01*
X144823499Y-102704500D01*
X144795506Y-102719463D01*
M02*
