G04 #@! TF.GenerationSoftware,KiCad,Pcbnew,(5.1.5)-3*
G04 #@! TF.CreationDate,2020-08-03T01:27:49-04:00*
G04 #@! TF.ProjectId,Arduino Clone,41726475-696e-46f2-9043-6c6f6e652e6b,rev?*
G04 #@! TF.SameCoordinates,Original*
G04 #@! TF.FileFunction,Legend,Top*
G04 #@! TF.FilePolarity,Positive*
%FSLAX46Y46*%
G04 Gerber Fmt 4.6, Leading zero omitted, Abs format (unit mm)*
G04 Created by KiCad (PCBNEW (5.1.5)-3) date 2020-08-03 01:27:49*
%MOMM*%
%LPD*%
G04 APERTURE LIST*
%ADD10C,0.120000*%
%ADD11C,0.150000*%
%ADD12C,0.100000*%
G04 APERTURE END LIST*
D10*
X165220000Y-104600000D02*
X165220000Y-103270000D01*
X165220000Y-103270000D02*
X166550000Y-103270000D01*
X167820000Y-103270000D02*
X175500000Y-103270000D01*
X175500000Y-105930000D02*
X175500000Y-103270000D01*
X167820000Y-105930000D02*
X175500000Y-105930000D01*
X167820000Y-105930000D02*
X167820000Y-103270000D01*
X138220000Y-112670000D02*
X140880000Y-112670000D01*
X138220000Y-110070000D02*
X138220000Y-112670000D01*
X140880000Y-110070000D02*
X140880000Y-112670000D01*
X138220000Y-110070000D02*
X140880000Y-110070000D01*
X138220000Y-108800000D02*
X138220000Y-107470000D01*
X138220000Y-107470000D02*
X139550000Y-107470000D01*
X142190000Y-125761252D02*
X142190000Y-125238748D01*
X143610000Y-125761252D02*
X143610000Y-125238748D01*
X144640000Y-125238748D02*
X144640000Y-125761252D01*
X146060000Y-125238748D02*
X146060000Y-125761252D01*
X143710000Y-109788748D02*
X143710000Y-110311252D01*
X142290000Y-109788748D02*
X142290000Y-110311252D01*
X160350000Y-119260000D02*
X163210000Y-119260000D01*
X163210000Y-119260000D02*
X163210000Y-117340000D01*
X163210000Y-117340000D02*
X160350000Y-117340000D01*
X138030000Y-114270000D02*
X140630000Y-114270000D01*
X138030000Y-114270000D02*
X138030000Y-122010000D01*
X138030000Y-122010000D02*
X143230000Y-122010000D01*
X143230000Y-116870000D02*
X143230000Y-122010000D01*
X140630000Y-116870000D02*
X143230000Y-116870000D01*
X140630000Y-114270000D02*
X140630000Y-116870000D01*
X143230000Y-114270000D02*
X143230000Y-115600000D01*
X141900000Y-114270000D02*
X143230000Y-114270000D01*
X161611252Y-119790000D02*
X161088748Y-119790000D01*
X161611252Y-121210000D02*
X161088748Y-121210000D01*
X155188748Y-108240000D02*
X155711252Y-108240000D01*
X155188748Y-109660000D02*
X155711252Y-109660000D01*
D11*
X168650000Y-115445000D02*
X168650000Y-116100000D01*
X174150000Y-115445000D02*
X174150000Y-116195000D01*
X174150000Y-121855000D02*
X174150000Y-121105000D01*
X168650000Y-121855000D02*
X168650000Y-121105000D01*
X168650000Y-115445000D02*
X174150000Y-115445000D01*
X168650000Y-121855000D02*
X174150000Y-121855000D01*
X168650000Y-116100000D02*
X166900000Y-116100000D01*
X161750000Y-108345000D02*
X161750000Y-108550000D01*
X167250000Y-108345000D02*
X167250000Y-108645000D01*
X167250000Y-113855000D02*
X167250000Y-113555000D01*
X161750000Y-113855000D02*
X161750000Y-113555000D01*
X161750000Y-108345000D02*
X167250000Y-108345000D01*
X161750000Y-113855000D02*
X167250000Y-113855000D01*
X161750000Y-108550000D02*
X160000000Y-108550000D01*
X171650000Y-108550000D02*
X169900000Y-108550000D01*
X171650000Y-113855000D02*
X177150000Y-113855000D01*
X171650000Y-108345000D02*
X177150000Y-108345000D01*
X171650000Y-113855000D02*
X171650000Y-113555000D01*
X177150000Y-113855000D02*
X177150000Y-113555000D01*
X177150000Y-108345000D02*
X177150000Y-108645000D01*
X171650000Y-108345000D02*
X171650000Y-108550000D01*
D12*
X151000000Y-111850000D02*
X150900000Y-111850000D01*
X150900000Y-111850000D02*
X150550000Y-112200000D01*
X150550000Y-112200000D02*
X150550000Y-112300000D01*
X150550000Y-112300000D02*
X149250000Y-112300000D01*
X157750000Y-111850000D02*
X157300000Y-111850000D01*
X157750000Y-111850000D02*
X157750000Y-112300000D01*
X157750000Y-119050000D02*
X157750000Y-118600000D01*
X157750000Y-119050000D02*
X157300000Y-119050000D01*
X150550000Y-119050000D02*
X151000000Y-119050000D01*
X150550000Y-119050000D02*
X150550000Y-118600000D01*
D10*
X163600000Y-117800000D02*
X163600000Y-116700000D01*
X165500000Y-117800000D02*
X165500000Y-116700000D01*
X163650000Y-119200000D02*
X165450000Y-119200000D01*
X144650000Y-115300000D02*
X144650000Y-122550000D01*
X144650000Y-122550000D02*
X148250000Y-122550000D01*
X148250000Y-122550000D02*
X148250000Y-115300000D01*
X147270000Y-105430000D02*
X147270000Y-102770000D01*
X147270000Y-105430000D02*
X154950000Y-105430000D01*
X154950000Y-105430000D02*
X154950000Y-102770000D01*
X147270000Y-102770000D02*
X154950000Y-102770000D01*
X144670000Y-102770000D02*
X146000000Y-102770000D01*
X144670000Y-104100000D02*
X144670000Y-102770000D01*
X152270000Y-127580000D02*
X152270000Y-124920000D01*
X152270000Y-127580000D02*
X172650000Y-127580000D01*
X172650000Y-127580000D02*
X172650000Y-124920000D01*
X152270000Y-124920000D02*
X172650000Y-124920000D01*
X149670000Y-124920000D02*
X151000000Y-124920000D01*
X149670000Y-126250000D02*
X149670000Y-124920000D01*
M02*
