G04 #@! TF.GenerationSoftware,KiCad,Pcbnew,(5.1.5)-3*
G04 #@! TF.CreationDate,2020-08-02T02:59:21-04:00*
G04 #@! TF.ProjectId,STM32F4,53544d33-3246-4342-9e6b-696361645f70,rev?*
G04 #@! TF.SameCoordinates,Original*
G04 #@! TF.FileFunction,Soldermask,Top*
G04 #@! TF.FilePolarity,Negative*
%FSLAX46Y46*%
G04 Gerber Fmt 4.6, Leading zero omitted, Abs format (unit mm)*
G04 Created by KiCad (PCBNEW (5.1.5)-3) date 2020-08-02 02:59:21*
%MOMM*%
%LPD*%
G04 APERTURE LIST*
%ADD10C,0.100000*%
G04 APERTURE END LIST*
D10*
G36*
X102021156Y-97272794D02*
G01*
X102742140Y-97416206D01*
X103533972Y-97744193D01*
X104246601Y-98220357D01*
X104852643Y-98826399D01*
X105328807Y-99539028D01*
X105656794Y-100330860D01*
X105824000Y-101171464D01*
X105824000Y-102028536D01*
X105656794Y-102869140D01*
X105328807Y-103660972D01*
X104852643Y-104373601D01*
X104246601Y-104979643D01*
X103533972Y-105455807D01*
X102742140Y-105783794D01*
X102021156Y-105927206D01*
X101901537Y-105951000D01*
X101044463Y-105951000D01*
X100924844Y-105927206D01*
X100203860Y-105783794D01*
X99412028Y-105455807D01*
X98699399Y-104979643D01*
X98093357Y-104373601D01*
X97617193Y-103660972D01*
X97289206Y-102869140D01*
X97122000Y-102028536D01*
X97122000Y-101171464D01*
X97289206Y-100330860D01*
X97617193Y-99539028D01*
X98093357Y-98826399D01*
X98699399Y-98220357D01*
X99412028Y-97744193D01*
X100203860Y-97416206D01*
X100924844Y-97272794D01*
X101044463Y-97249000D01*
X101901537Y-97249000D01*
X102021156Y-97272794D01*
G37*
G36*
X63349656Y-97272794D02*
G01*
X64070640Y-97416206D01*
X64862472Y-97744193D01*
X65575101Y-98220357D01*
X66181143Y-98826399D01*
X66657307Y-99539028D01*
X66985294Y-100330860D01*
X67152500Y-101171464D01*
X67152500Y-102028536D01*
X66985294Y-102869140D01*
X66657307Y-103660972D01*
X66181143Y-104373601D01*
X65575101Y-104979643D01*
X64862472Y-105455807D01*
X64070640Y-105783794D01*
X63349656Y-105927206D01*
X63230037Y-105951000D01*
X62372963Y-105951000D01*
X62253344Y-105927206D01*
X61532360Y-105783794D01*
X60740528Y-105455807D01*
X60027899Y-104979643D01*
X59421857Y-104373601D01*
X58945693Y-103660972D01*
X58617706Y-102869140D01*
X58450500Y-102028536D01*
X58450500Y-101171464D01*
X58617706Y-100330860D01*
X58945693Y-99539028D01*
X59421857Y-98826399D01*
X60027899Y-98220357D01*
X60740528Y-97744193D01*
X61532360Y-97416206D01*
X62253344Y-97272794D01*
X62372963Y-97249000D01*
X63230037Y-97249000D01*
X63349656Y-97272794D01*
G37*
G36*
X89267512Y-104069427D02*
G01*
X89416812Y-104099124D01*
X89580784Y-104167044D01*
X89728354Y-104265647D01*
X89853853Y-104391146D01*
X89952456Y-104538716D01*
X90020376Y-104702688D01*
X90055000Y-104876759D01*
X90055000Y-105054241D01*
X90020376Y-105228312D01*
X89952456Y-105392284D01*
X89853853Y-105539854D01*
X89728354Y-105665353D01*
X89580784Y-105763956D01*
X89416812Y-105831876D01*
X89267512Y-105861573D01*
X89242742Y-105866500D01*
X89065258Y-105866500D01*
X89040488Y-105861573D01*
X88891188Y-105831876D01*
X88727216Y-105763956D01*
X88579646Y-105665353D01*
X88454147Y-105539854D01*
X88355544Y-105392284D01*
X88287624Y-105228312D01*
X88253000Y-105054241D01*
X88253000Y-104876759D01*
X88287624Y-104702688D01*
X88355544Y-104538716D01*
X88454147Y-104391146D01*
X88579646Y-104265647D01*
X88727216Y-104167044D01*
X88891188Y-104099124D01*
X89040488Y-104069427D01*
X89065258Y-104064500D01*
X89242742Y-104064500D01*
X89267512Y-104069427D01*
G37*
G36*
X86727512Y-104069427D02*
G01*
X86876812Y-104099124D01*
X87040784Y-104167044D01*
X87188354Y-104265647D01*
X87313853Y-104391146D01*
X87412456Y-104538716D01*
X87480376Y-104702688D01*
X87515000Y-104876759D01*
X87515000Y-105054241D01*
X87480376Y-105228312D01*
X87412456Y-105392284D01*
X87313853Y-105539854D01*
X87188354Y-105665353D01*
X87040784Y-105763956D01*
X86876812Y-105831876D01*
X86727512Y-105861573D01*
X86702742Y-105866500D01*
X86525258Y-105866500D01*
X86500488Y-105861573D01*
X86351188Y-105831876D01*
X86187216Y-105763956D01*
X86039646Y-105665353D01*
X85914147Y-105539854D01*
X85815544Y-105392284D01*
X85747624Y-105228312D01*
X85713000Y-105054241D01*
X85713000Y-104876759D01*
X85747624Y-104702688D01*
X85815544Y-104538716D01*
X85914147Y-104391146D01*
X86039646Y-104265647D01*
X86187216Y-104167044D01*
X86351188Y-104099124D01*
X86500488Y-104069427D01*
X86525258Y-104064500D01*
X86702742Y-104064500D01*
X86727512Y-104069427D01*
G37*
G36*
X82435000Y-105866500D02*
G01*
X80633000Y-105866500D01*
X80633000Y-104064500D01*
X82435000Y-104064500D01*
X82435000Y-105866500D01*
G37*
G36*
X71957500Y-105866500D02*
G01*
X70155500Y-105866500D01*
X70155500Y-104064500D01*
X71957500Y-104064500D01*
X71957500Y-105866500D01*
G37*
G36*
X84187512Y-104069427D02*
G01*
X84336812Y-104099124D01*
X84500784Y-104167044D01*
X84648354Y-104265647D01*
X84773853Y-104391146D01*
X84872456Y-104538716D01*
X84940376Y-104702688D01*
X84975000Y-104876759D01*
X84975000Y-105054241D01*
X84940376Y-105228312D01*
X84872456Y-105392284D01*
X84773853Y-105539854D01*
X84648354Y-105665353D01*
X84500784Y-105763956D01*
X84336812Y-105831876D01*
X84187512Y-105861573D01*
X84162742Y-105866500D01*
X83985258Y-105866500D01*
X83960488Y-105861573D01*
X83811188Y-105831876D01*
X83647216Y-105763956D01*
X83499646Y-105665353D01*
X83374147Y-105539854D01*
X83275544Y-105392284D01*
X83207624Y-105228312D01*
X83173000Y-105054241D01*
X83173000Y-104876759D01*
X83207624Y-104702688D01*
X83275544Y-104538716D01*
X83374147Y-104391146D01*
X83499646Y-104265647D01*
X83647216Y-104167044D01*
X83811188Y-104099124D01*
X83960488Y-104069427D01*
X83985258Y-104064500D01*
X84162742Y-104064500D01*
X84187512Y-104069427D01*
G37*
G36*
X73710012Y-104069427D02*
G01*
X73859312Y-104099124D01*
X74023284Y-104167044D01*
X74170854Y-104265647D01*
X74296353Y-104391146D01*
X74394956Y-104538716D01*
X74462876Y-104702688D01*
X74497500Y-104876759D01*
X74497500Y-105054241D01*
X74462876Y-105228312D01*
X74394956Y-105392284D01*
X74296353Y-105539854D01*
X74170854Y-105665353D01*
X74023284Y-105763956D01*
X73859312Y-105831876D01*
X73710012Y-105861573D01*
X73685242Y-105866500D01*
X73507758Y-105866500D01*
X73482988Y-105861573D01*
X73333688Y-105831876D01*
X73169716Y-105763956D01*
X73022146Y-105665353D01*
X72896647Y-105539854D01*
X72798044Y-105392284D01*
X72730124Y-105228312D01*
X72695500Y-105054241D01*
X72695500Y-104876759D01*
X72730124Y-104702688D01*
X72798044Y-104538716D01*
X72896647Y-104391146D01*
X73022146Y-104265647D01*
X73169716Y-104167044D01*
X73333688Y-104099124D01*
X73482988Y-104069427D01*
X73507758Y-104064500D01*
X73685242Y-104064500D01*
X73710012Y-104069427D01*
G37*
G36*
X77482968Y-102829065D02*
G01*
X77521638Y-102840796D01*
X77557277Y-102859846D01*
X77588517Y-102885483D01*
X77614154Y-102916723D01*
X77633204Y-102952362D01*
X77644935Y-102991032D01*
X77649500Y-103037388D01*
X77649500Y-103688612D01*
X77644935Y-103734968D01*
X77633204Y-103773638D01*
X77614154Y-103809277D01*
X77588517Y-103840517D01*
X77557277Y-103866154D01*
X77521638Y-103885204D01*
X77482968Y-103896935D01*
X77436612Y-103901500D01*
X76360388Y-103901500D01*
X76314032Y-103896935D01*
X76275362Y-103885204D01*
X76239723Y-103866154D01*
X76208483Y-103840517D01*
X76182846Y-103809277D01*
X76163796Y-103773638D01*
X76152065Y-103734968D01*
X76147500Y-103688612D01*
X76147500Y-103037388D01*
X76152065Y-102991032D01*
X76163796Y-102952362D01*
X76182846Y-102916723D01*
X76208483Y-102885483D01*
X76239723Y-102859846D01*
X76275362Y-102840796D01*
X76314032Y-102829065D01*
X76360388Y-102824500D01*
X77436612Y-102824500D01*
X77482968Y-102829065D01*
G37*
G36*
X77482968Y-100954065D02*
G01*
X77521638Y-100965796D01*
X77557277Y-100984846D01*
X77588517Y-101010483D01*
X77614154Y-101041723D01*
X77633204Y-101077362D01*
X77644935Y-101116032D01*
X77649500Y-101162388D01*
X77649500Y-101813612D01*
X77644935Y-101859968D01*
X77633204Y-101898638D01*
X77614154Y-101934277D01*
X77588517Y-101965517D01*
X77557277Y-101991154D01*
X77521638Y-102010204D01*
X77482968Y-102021935D01*
X77436612Y-102026500D01*
X76360388Y-102026500D01*
X76314032Y-102021935D01*
X76275362Y-102010204D01*
X76239723Y-101991154D01*
X76208483Y-101965517D01*
X76182846Y-101934277D01*
X76163796Y-101898638D01*
X76152065Y-101859968D01*
X76147500Y-101813612D01*
X76147500Y-101162388D01*
X76152065Y-101116032D01*
X76163796Y-101077362D01*
X76182846Y-101041723D01*
X76208483Y-101010483D01*
X76239723Y-100984846D01*
X76275362Y-100965796D01*
X76314032Y-100954065D01*
X76360388Y-100949500D01*
X77436612Y-100949500D01*
X77482968Y-100954065D01*
G37*
G36*
X79754591Y-100569585D02*
G01*
X79788569Y-100579893D01*
X79819890Y-100596634D01*
X79847339Y-100619161D01*
X79869866Y-100646610D01*
X79886607Y-100677931D01*
X79896915Y-100711909D01*
X79901000Y-100753390D01*
X79901000Y-101354610D01*
X79896915Y-101396091D01*
X79886607Y-101430069D01*
X79869866Y-101461390D01*
X79847339Y-101488839D01*
X79819890Y-101511366D01*
X79788569Y-101528107D01*
X79754591Y-101538415D01*
X79713110Y-101542500D01*
X79036890Y-101542500D01*
X78995409Y-101538415D01*
X78961431Y-101528107D01*
X78930110Y-101511366D01*
X78902661Y-101488839D01*
X78880134Y-101461390D01*
X78863393Y-101430069D01*
X78853085Y-101396091D01*
X78849000Y-101354610D01*
X78849000Y-100753390D01*
X78853085Y-100711909D01*
X78863393Y-100677931D01*
X78880134Y-100646610D01*
X78902661Y-100619161D01*
X78930110Y-100596634D01*
X78961431Y-100579893D01*
X78995409Y-100569585D01*
X79036890Y-100565500D01*
X79713110Y-100565500D01*
X79754591Y-100569585D01*
G37*
G36*
X71429000Y-101465000D02*
G01*
X70689000Y-101465000D01*
X70689000Y-100025000D01*
X71429000Y-100025000D01*
X71429000Y-101465000D01*
G37*
G36*
X73329000Y-101465000D02*
G01*
X72589000Y-101465000D01*
X72589000Y-100025000D01*
X73329000Y-100025000D01*
X73329000Y-101465000D01*
G37*
G36*
X79754591Y-98994585D02*
G01*
X79788569Y-99004893D01*
X79819890Y-99021634D01*
X79847339Y-99044161D01*
X79869866Y-99071610D01*
X79886607Y-99102931D01*
X79896915Y-99136909D01*
X79901000Y-99178390D01*
X79901000Y-99779610D01*
X79896915Y-99821091D01*
X79886607Y-99855069D01*
X79869866Y-99886390D01*
X79847339Y-99913839D01*
X79819890Y-99936366D01*
X79788569Y-99953107D01*
X79754591Y-99963415D01*
X79713110Y-99967500D01*
X79036890Y-99967500D01*
X78995409Y-99963415D01*
X78961431Y-99953107D01*
X78930110Y-99936366D01*
X78902661Y-99913839D01*
X78880134Y-99886390D01*
X78863393Y-99855069D01*
X78853085Y-99821091D01*
X78849000Y-99779610D01*
X78849000Y-99178390D01*
X78853085Y-99136909D01*
X78863393Y-99102931D01*
X78880134Y-99071610D01*
X78902661Y-99044161D01*
X78930110Y-99021634D01*
X78961431Y-99004893D01*
X78995409Y-98994585D01*
X79036890Y-98990500D01*
X79713110Y-98990500D01*
X79754591Y-98994585D01*
G37*
G36*
X77283500Y-99526500D02*
G01*
X76581500Y-99526500D01*
X76581500Y-98974500D01*
X77283500Y-98974500D01*
X77283500Y-99526500D01*
G37*
G36*
X75183500Y-99526500D02*
G01*
X74481500Y-99526500D01*
X74481500Y-98974500D01*
X75183500Y-98974500D01*
X75183500Y-99526500D01*
G37*
G36*
X72379000Y-99365000D02*
G01*
X71639000Y-99365000D01*
X71639000Y-97925000D01*
X72379000Y-97925000D01*
X72379000Y-99365000D01*
G37*
G36*
X79742591Y-96506085D02*
G01*
X79776569Y-96516393D01*
X79807890Y-96533134D01*
X79835339Y-96555661D01*
X79857866Y-96583110D01*
X79874607Y-96614431D01*
X79884915Y-96648409D01*
X79889000Y-96689890D01*
X79889000Y-97366110D01*
X79884915Y-97407591D01*
X79874607Y-97441569D01*
X79857866Y-97472890D01*
X79835339Y-97500339D01*
X79807890Y-97522866D01*
X79776569Y-97539607D01*
X79742591Y-97549915D01*
X79701110Y-97554000D01*
X79099890Y-97554000D01*
X79058409Y-97549915D01*
X79024431Y-97539607D01*
X78993110Y-97522866D01*
X78965661Y-97500339D01*
X78943134Y-97472890D01*
X78926393Y-97441569D01*
X78916085Y-97407591D01*
X78912000Y-97366110D01*
X78912000Y-96689890D01*
X78916085Y-96648409D01*
X78926393Y-96614431D01*
X78943134Y-96583110D01*
X78965661Y-96555661D01*
X78993110Y-96533134D01*
X79024431Y-96516393D01*
X79058409Y-96506085D01*
X79099890Y-96502000D01*
X79701110Y-96502000D01*
X79742591Y-96506085D01*
G37*
G36*
X78167591Y-96506085D02*
G01*
X78201569Y-96516393D01*
X78232890Y-96533134D01*
X78260339Y-96555661D01*
X78282866Y-96583110D01*
X78299607Y-96614431D01*
X78309915Y-96648409D01*
X78314000Y-96689890D01*
X78314000Y-97366110D01*
X78309915Y-97407591D01*
X78299607Y-97441569D01*
X78282866Y-97472890D01*
X78260339Y-97500339D01*
X78232890Y-97522866D01*
X78201569Y-97539607D01*
X78167591Y-97549915D01*
X78126110Y-97554000D01*
X77524890Y-97554000D01*
X77483409Y-97549915D01*
X77449431Y-97539607D01*
X77418110Y-97522866D01*
X77390661Y-97500339D01*
X77368134Y-97472890D01*
X77351393Y-97441569D01*
X77341085Y-97407591D01*
X77337000Y-97366110D01*
X77337000Y-96689890D01*
X77341085Y-96648409D01*
X77351393Y-96614431D01*
X77368134Y-96583110D01*
X77390661Y-96555661D01*
X77418110Y-96533134D01*
X77449431Y-96516393D01*
X77483409Y-96506085D01*
X77524890Y-96502000D01*
X78126110Y-96502000D01*
X78167591Y-96506085D01*
G37*
G36*
X72630591Y-96061585D02*
G01*
X72664569Y-96071893D01*
X72695890Y-96088634D01*
X72723339Y-96111161D01*
X72745866Y-96138610D01*
X72762607Y-96169931D01*
X72772915Y-96203909D01*
X72777000Y-96245390D01*
X72777000Y-96921610D01*
X72772915Y-96963091D01*
X72762607Y-96997069D01*
X72745866Y-97028390D01*
X72723339Y-97055839D01*
X72695890Y-97078366D01*
X72664569Y-97095107D01*
X72630591Y-97105415D01*
X72589110Y-97109500D01*
X71987890Y-97109500D01*
X71946409Y-97105415D01*
X71912431Y-97095107D01*
X71881110Y-97078366D01*
X71853661Y-97055839D01*
X71831134Y-97028390D01*
X71814393Y-96997069D01*
X71804085Y-96963091D01*
X71800000Y-96921610D01*
X71800000Y-96245390D01*
X71804085Y-96203909D01*
X71814393Y-96169931D01*
X71831134Y-96138610D01*
X71853661Y-96111161D01*
X71881110Y-96088634D01*
X71912431Y-96071893D01*
X71946409Y-96061585D01*
X71987890Y-96057500D01*
X72589110Y-96057500D01*
X72630591Y-96061585D01*
G37*
G36*
X71055591Y-96061585D02*
G01*
X71089569Y-96071893D01*
X71120890Y-96088634D01*
X71148339Y-96111161D01*
X71170866Y-96138610D01*
X71187607Y-96169931D01*
X71197915Y-96203909D01*
X71202000Y-96245390D01*
X71202000Y-96921610D01*
X71197915Y-96963091D01*
X71187607Y-96997069D01*
X71170866Y-97028390D01*
X71148339Y-97055839D01*
X71120890Y-97078366D01*
X71089569Y-97095107D01*
X71055591Y-97105415D01*
X71014110Y-97109500D01*
X70412890Y-97109500D01*
X70371409Y-97105415D01*
X70337431Y-97095107D01*
X70306110Y-97078366D01*
X70278661Y-97055839D01*
X70256134Y-97028390D01*
X70239393Y-96997069D01*
X70229085Y-96963091D01*
X70225000Y-96921610D01*
X70225000Y-96245390D01*
X70229085Y-96203909D01*
X70239393Y-96169931D01*
X70256134Y-96138610D01*
X70278661Y-96111161D01*
X70306110Y-96088634D01*
X70337431Y-96071893D01*
X70371409Y-96061585D01*
X70412890Y-96057500D01*
X71014110Y-96057500D01*
X71055591Y-96061585D01*
G37*
G36*
X72873968Y-93614565D02*
G01*
X72912638Y-93626296D01*
X72948277Y-93645346D01*
X72979517Y-93670983D01*
X73005154Y-93702223D01*
X73024204Y-93737862D01*
X73035935Y-93776532D01*
X73040500Y-93822888D01*
X73040500Y-94899112D01*
X73035935Y-94945468D01*
X73024204Y-94984138D01*
X73005154Y-95019777D01*
X72979517Y-95051017D01*
X72948277Y-95076654D01*
X72912638Y-95095704D01*
X72873968Y-95107435D01*
X72827612Y-95112000D01*
X72176388Y-95112000D01*
X72130032Y-95107435D01*
X72091362Y-95095704D01*
X72055723Y-95076654D01*
X72024483Y-95051017D01*
X71998846Y-95019777D01*
X71979796Y-94984138D01*
X71968065Y-94945468D01*
X71963500Y-94899112D01*
X71963500Y-93822888D01*
X71968065Y-93776532D01*
X71979796Y-93737862D01*
X71998846Y-93702223D01*
X72024483Y-93670983D01*
X72055723Y-93645346D01*
X72091362Y-93626296D01*
X72130032Y-93614565D01*
X72176388Y-93610000D01*
X72827612Y-93610000D01*
X72873968Y-93614565D01*
G37*
G36*
X70998968Y-93614565D02*
G01*
X71037638Y-93626296D01*
X71073277Y-93645346D01*
X71104517Y-93670983D01*
X71130154Y-93702223D01*
X71149204Y-93737862D01*
X71160935Y-93776532D01*
X71165500Y-93822888D01*
X71165500Y-94899112D01*
X71160935Y-94945468D01*
X71149204Y-94984138D01*
X71130154Y-95019777D01*
X71104517Y-95051017D01*
X71073277Y-95076654D01*
X71037638Y-95095704D01*
X70998968Y-95107435D01*
X70952612Y-95112000D01*
X70301388Y-95112000D01*
X70255032Y-95107435D01*
X70216362Y-95095704D01*
X70180723Y-95076654D01*
X70149483Y-95051017D01*
X70123846Y-95019777D01*
X70104796Y-94984138D01*
X70093065Y-94945468D01*
X70088500Y-94899112D01*
X70088500Y-93822888D01*
X70093065Y-93776532D01*
X70104796Y-93737862D01*
X70123846Y-93702223D01*
X70149483Y-93670983D01*
X70180723Y-93645346D01*
X70216362Y-93626296D01*
X70255032Y-93614565D01*
X70301388Y-93610000D01*
X70952612Y-93610000D01*
X70998968Y-93614565D01*
G37*
G36*
X60718000Y-94944500D02*
G01*
X58916000Y-94944500D01*
X58916000Y-93142500D01*
X60718000Y-93142500D01*
X60718000Y-94944500D01*
G37*
G36*
X104279000Y-94944500D02*
G01*
X102477000Y-94944500D01*
X102477000Y-93142500D01*
X104279000Y-93142500D01*
X104279000Y-94944500D01*
G37*
G36*
X70935468Y-91138065D02*
G01*
X70974138Y-91149796D01*
X71009777Y-91168846D01*
X71041017Y-91194483D01*
X71066654Y-91225723D01*
X71085704Y-91261362D01*
X71097435Y-91300032D01*
X71102000Y-91346388D01*
X71102000Y-92422612D01*
X71097435Y-92468968D01*
X71085704Y-92507638D01*
X71066654Y-92543277D01*
X71041017Y-92574517D01*
X71009777Y-92600154D01*
X70974138Y-92619204D01*
X70935468Y-92630935D01*
X70889112Y-92635500D01*
X70237888Y-92635500D01*
X70191532Y-92630935D01*
X70152862Y-92619204D01*
X70117223Y-92600154D01*
X70085983Y-92574517D01*
X70060346Y-92543277D01*
X70041296Y-92507638D01*
X70029565Y-92468968D01*
X70025000Y-92422612D01*
X70025000Y-91346388D01*
X70029565Y-91300032D01*
X70041296Y-91261362D01*
X70060346Y-91225723D01*
X70085983Y-91194483D01*
X70117223Y-91168846D01*
X70152862Y-91149796D01*
X70191532Y-91138065D01*
X70237888Y-91133500D01*
X70889112Y-91133500D01*
X70935468Y-91138065D01*
G37*
G36*
X72810468Y-91138065D02*
G01*
X72849138Y-91149796D01*
X72884777Y-91168846D01*
X72916017Y-91194483D01*
X72941654Y-91225723D01*
X72960704Y-91261362D01*
X72972435Y-91300032D01*
X72977000Y-91346388D01*
X72977000Y-92422612D01*
X72972435Y-92468968D01*
X72960704Y-92507638D01*
X72941654Y-92543277D01*
X72916017Y-92574517D01*
X72884777Y-92600154D01*
X72849138Y-92619204D01*
X72810468Y-92630935D01*
X72764112Y-92635500D01*
X72112888Y-92635500D01*
X72066532Y-92630935D01*
X72027862Y-92619204D01*
X71992223Y-92600154D01*
X71960983Y-92574517D01*
X71935346Y-92543277D01*
X71916296Y-92507638D01*
X71904565Y-92468968D01*
X71900000Y-92422612D01*
X71900000Y-91346388D01*
X71904565Y-91300032D01*
X71916296Y-91261362D01*
X71935346Y-91225723D01*
X71960983Y-91194483D01*
X71992223Y-91168846D01*
X72027862Y-91149796D01*
X72066532Y-91138065D01*
X72112888Y-91133500D01*
X72764112Y-91133500D01*
X72810468Y-91138065D01*
G37*
G36*
X59930512Y-90607427D02*
G01*
X60079812Y-90637124D01*
X60243784Y-90705044D01*
X60391354Y-90803647D01*
X60516853Y-90929146D01*
X60615456Y-91076716D01*
X60683376Y-91240688D01*
X60718000Y-91414759D01*
X60718000Y-91592241D01*
X60683376Y-91766312D01*
X60615456Y-91930284D01*
X60516853Y-92077854D01*
X60391354Y-92203353D01*
X60243784Y-92301956D01*
X60079812Y-92369876D01*
X59930512Y-92399573D01*
X59905742Y-92404500D01*
X59728258Y-92404500D01*
X59703488Y-92399573D01*
X59554188Y-92369876D01*
X59390216Y-92301956D01*
X59242646Y-92203353D01*
X59117147Y-92077854D01*
X59018544Y-91930284D01*
X58950624Y-91766312D01*
X58916000Y-91592241D01*
X58916000Y-91414759D01*
X58950624Y-91240688D01*
X59018544Y-91076716D01*
X59117147Y-90929146D01*
X59242646Y-90803647D01*
X59390216Y-90705044D01*
X59554188Y-90637124D01*
X59703488Y-90607427D01*
X59728258Y-90602500D01*
X59905742Y-90602500D01*
X59930512Y-90607427D01*
G37*
G36*
X103491512Y-90607427D02*
G01*
X103640812Y-90637124D01*
X103804784Y-90705044D01*
X103952354Y-90803647D01*
X104077853Y-90929146D01*
X104176456Y-91076716D01*
X104244376Y-91240688D01*
X104279000Y-91414759D01*
X104279000Y-91592241D01*
X104244376Y-91766312D01*
X104176456Y-91930284D01*
X104077853Y-92077854D01*
X103952354Y-92203353D01*
X103804784Y-92301956D01*
X103640812Y-92369876D01*
X103491512Y-92399573D01*
X103466742Y-92404500D01*
X103289258Y-92404500D01*
X103264488Y-92399573D01*
X103115188Y-92369876D01*
X102951216Y-92301956D01*
X102803646Y-92203353D01*
X102678147Y-92077854D01*
X102579544Y-91930284D01*
X102511624Y-91766312D01*
X102477000Y-91592241D01*
X102477000Y-91414759D01*
X102511624Y-91240688D01*
X102579544Y-91076716D01*
X102678147Y-90929146D01*
X102803646Y-90803647D01*
X102951216Y-90705044D01*
X103115188Y-90637124D01*
X103264488Y-90607427D01*
X103289258Y-90602500D01*
X103466742Y-90602500D01*
X103491512Y-90607427D01*
G37*
G36*
X88779591Y-91403085D02*
G01*
X88813569Y-91413393D01*
X88844890Y-91430134D01*
X88872339Y-91452661D01*
X88894866Y-91480110D01*
X88911607Y-91511431D01*
X88921915Y-91545409D01*
X88926000Y-91586890D01*
X88926000Y-92188110D01*
X88921915Y-92229591D01*
X88911607Y-92263569D01*
X88894866Y-92294890D01*
X88872339Y-92322339D01*
X88844890Y-92344866D01*
X88813569Y-92361607D01*
X88779591Y-92371915D01*
X88738110Y-92376000D01*
X88061890Y-92376000D01*
X88020409Y-92371915D01*
X87986431Y-92361607D01*
X87955110Y-92344866D01*
X87927661Y-92322339D01*
X87905134Y-92294890D01*
X87888393Y-92263569D01*
X87878085Y-92229591D01*
X87874000Y-92188110D01*
X87874000Y-91586890D01*
X87878085Y-91545409D01*
X87888393Y-91511431D01*
X87905134Y-91480110D01*
X87927661Y-91452661D01*
X87955110Y-91430134D01*
X87986431Y-91413393D01*
X88020409Y-91403085D01*
X88061890Y-91399000D01*
X88738110Y-91399000D01*
X88779591Y-91403085D01*
G37*
G36*
X78234468Y-90553565D02*
G01*
X78273138Y-90565296D01*
X78308777Y-90584346D01*
X78340017Y-90609983D01*
X78365654Y-90641223D01*
X78384704Y-90676862D01*
X78396435Y-90715532D01*
X78401000Y-90761888D01*
X78401000Y-91838112D01*
X78396435Y-91884468D01*
X78384704Y-91923138D01*
X78365654Y-91958777D01*
X78340017Y-91990017D01*
X78308777Y-92015654D01*
X78273138Y-92034704D01*
X78234468Y-92046435D01*
X78188112Y-92051000D01*
X77536888Y-92051000D01*
X77490532Y-92046435D01*
X77451862Y-92034704D01*
X77416223Y-92015654D01*
X77384983Y-91990017D01*
X77359346Y-91958777D01*
X77340296Y-91923138D01*
X77328565Y-91884468D01*
X77324000Y-91838112D01*
X77324000Y-90761888D01*
X77328565Y-90715532D01*
X77340296Y-90676862D01*
X77359346Y-90641223D01*
X77384983Y-90609983D01*
X77416223Y-90584346D01*
X77451862Y-90565296D01*
X77490532Y-90553565D01*
X77536888Y-90549000D01*
X78188112Y-90549000D01*
X78234468Y-90553565D01*
G37*
G36*
X80109468Y-90553565D02*
G01*
X80148138Y-90565296D01*
X80183777Y-90584346D01*
X80215017Y-90609983D01*
X80240654Y-90641223D01*
X80259704Y-90676862D01*
X80271435Y-90715532D01*
X80276000Y-90761888D01*
X80276000Y-91838112D01*
X80271435Y-91884468D01*
X80259704Y-91923138D01*
X80240654Y-91958777D01*
X80215017Y-91990017D01*
X80183777Y-92015654D01*
X80148138Y-92034704D01*
X80109468Y-92046435D01*
X80063112Y-92051000D01*
X79411888Y-92051000D01*
X79365532Y-92046435D01*
X79326862Y-92034704D01*
X79291223Y-92015654D01*
X79259983Y-91990017D01*
X79234346Y-91958777D01*
X79215296Y-91923138D01*
X79203565Y-91884468D01*
X79199000Y-91838112D01*
X79199000Y-90761888D01*
X79203565Y-90715532D01*
X79215296Y-90676862D01*
X79234346Y-90641223D01*
X79259983Y-90609983D01*
X79291223Y-90584346D01*
X79326862Y-90565296D01*
X79365532Y-90553565D01*
X79411888Y-90549000D01*
X80063112Y-90549000D01*
X80109468Y-90553565D01*
G37*
G36*
X88779591Y-89828085D02*
G01*
X88813569Y-89838393D01*
X88844890Y-89855134D01*
X88872339Y-89877661D01*
X88894866Y-89905110D01*
X88911607Y-89936431D01*
X88921915Y-89970409D01*
X88926000Y-90011890D01*
X88926000Y-90613110D01*
X88921915Y-90654591D01*
X88911607Y-90688569D01*
X88894866Y-90719890D01*
X88872339Y-90747339D01*
X88844890Y-90769866D01*
X88813569Y-90786607D01*
X88779591Y-90796915D01*
X88738110Y-90801000D01*
X88061890Y-90801000D01*
X88020409Y-90796915D01*
X87986431Y-90786607D01*
X87955110Y-90769866D01*
X87927661Y-90747339D01*
X87905134Y-90719890D01*
X87888393Y-90688569D01*
X87878085Y-90654591D01*
X87874000Y-90613110D01*
X87874000Y-90011890D01*
X87878085Y-89970409D01*
X87888393Y-89936431D01*
X87905134Y-89905110D01*
X87927661Y-89877661D01*
X87955110Y-89855134D01*
X87986431Y-89838393D01*
X88020409Y-89828085D01*
X88061890Y-89824000D01*
X88738110Y-89824000D01*
X88779591Y-89828085D01*
G37*
G36*
X84861938Y-89954116D02*
G01*
X84882557Y-89960371D01*
X84901553Y-89970524D01*
X84918208Y-89984192D01*
X84931876Y-90000847D01*
X84942029Y-90019843D01*
X84948284Y-90040462D01*
X84951000Y-90068040D01*
X84951000Y-90576760D01*
X84948284Y-90604338D01*
X84942029Y-90624957D01*
X84931876Y-90643953D01*
X84918208Y-90660608D01*
X84901553Y-90674276D01*
X84882557Y-90684429D01*
X84861938Y-90690684D01*
X84834360Y-90693400D01*
X84375640Y-90693400D01*
X84348062Y-90690684D01*
X84327443Y-90684429D01*
X84308447Y-90674276D01*
X84291792Y-90660608D01*
X84278124Y-90643953D01*
X84267971Y-90624957D01*
X84261716Y-90604338D01*
X84259000Y-90576760D01*
X84259000Y-90068040D01*
X84261716Y-90040462D01*
X84267971Y-90019843D01*
X84278124Y-90000847D01*
X84291792Y-89984192D01*
X84308447Y-89970524D01*
X84327443Y-89960371D01*
X84348062Y-89954116D01*
X84375640Y-89951400D01*
X84834360Y-89951400D01*
X84861938Y-89954116D01*
G37*
G36*
X85831938Y-89954116D02*
G01*
X85852557Y-89960371D01*
X85871553Y-89970524D01*
X85888208Y-89984192D01*
X85901876Y-90000847D01*
X85912029Y-90019843D01*
X85918284Y-90040462D01*
X85921000Y-90068040D01*
X85921000Y-90576760D01*
X85918284Y-90604338D01*
X85912029Y-90624957D01*
X85901876Y-90643953D01*
X85888208Y-90660608D01*
X85871553Y-90674276D01*
X85852557Y-90684429D01*
X85831938Y-90690684D01*
X85804360Y-90693400D01*
X85345640Y-90693400D01*
X85318062Y-90690684D01*
X85297443Y-90684429D01*
X85278447Y-90674276D01*
X85261792Y-90660608D01*
X85248124Y-90643953D01*
X85237971Y-90624957D01*
X85231716Y-90604338D01*
X85229000Y-90576760D01*
X85229000Y-90068040D01*
X85231716Y-90040462D01*
X85237971Y-90019843D01*
X85248124Y-90000847D01*
X85261792Y-89984192D01*
X85278447Y-89970524D01*
X85297443Y-89960371D01*
X85318062Y-89954116D01*
X85345640Y-89951400D01*
X85804360Y-89951400D01*
X85831938Y-89954116D01*
G37*
G36*
X64749938Y-89484216D02*
G01*
X64770557Y-89490471D01*
X64789553Y-89500624D01*
X64806208Y-89514292D01*
X64819876Y-89530947D01*
X64830029Y-89549943D01*
X64836284Y-89570562D01*
X64839000Y-89598140D01*
X64839000Y-90106860D01*
X64836284Y-90134438D01*
X64830029Y-90155057D01*
X64819876Y-90174053D01*
X64806208Y-90190708D01*
X64789553Y-90204376D01*
X64770557Y-90214529D01*
X64749938Y-90220784D01*
X64722360Y-90223500D01*
X64263640Y-90223500D01*
X64236062Y-90220784D01*
X64215443Y-90214529D01*
X64196447Y-90204376D01*
X64179792Y-90190708D01*
X64166124Y-90174053D01*
X64155971Y-90155057D01*
X64149716Y-90134438D01*
X64147000Y-90106860D01*
X64147000Y-89598140D01*
X64149716Y-89570562D01*
X64155971Y-89549943D01*
X64166124Y-89530947D01*
X64179792Y-89514292D01*
X64196447Y-89500624D01*
X64215443Y-89490471D01*
X64236062Y-89484216D01*
X64263640Y-89481500D01*
X64722360Y-89481500D01*
X64749938Y-89484216D01*
G37*
G36*
X63779938Y-89484216D02*
G01*
X63800557Y-89490471D01*
X63819553Y-89500624D01*
X63836208Y-89514292D01*
X63849876Y-89530947D01*
X63860029Y-89549943D01*
X63866284Y-89570562D01*
X63869000Y-89598140D01*
X63869000Y-90106860D01*
X63866284Y-90134438D01*
X63860029Y-90155057D01*
X63849876Y-90174053D01*
X63836208Y-90190708D01*
X63819553Y-90204376D01*
X63800557Y-90214529D01*
X63779938Y-90220784D01*
X63752360Y-90223500D01*
X63293640Y-90223500D01*
X63266062Y-90220784D01*
X63245443Y-90214529D01*
X63226447Y-90204376D01*
X63209792Y-90190708D01*
X63196124Y-90174053D01*
X63185971Y-90155057D01*
X63179716Y-90134438D01*
X63177000Y-90106860D01*
X63177000Y-89598140D01*
X63179716Y-89570562D01*
X63185971Y-89549943D01*
X63196124Y-89530947D01*
X63209792Y-89514292D01*
X63226447Y-89500624D01*
X63245443Y-89490471D01*
X63266062Y-89484216D01*
X63293640Y-89481500D01*
X63752360Y-89481500D01*
X63779938Y-89484216D01*
G37*
G36*
X67578938Y-89039716D02*
G01*
X67599557Y-89045971D01*
X67618553Y-89056124D01*
X67635208Y-89069792D01*
X67648876Y-89086447D01*
X67659029Y-89105443D01*
X67665284Y-89126062D01*
X67668000Y-89153640D01*
X67668000Y-89662360D01*
X67665284Y-89689938D01*
X67659029Y-89710557D01*
X67648876Y-89729553D01*
X67635208Y-89746208D01*
X67618553Y-89759876D01*
X67599557Y-89770029D01*
X67578938Y-89776284D01*
X67551360Y-89779000D01*
X67092640Y-89779000D01*
X67065062Y-89776284D01*
X67044443Y-89770029D01*
X67025447Y-89759876D01*
X67008792Y-89746208D01*
X66995124Y-89729553D01*
X66984971Y-89710557D01*
X66978716Y-89689938D01*
X66976000Y-89662360D01*
X66976000Y-89153640D01*
X66978716Y-89126062D01*
X66984971Y-89105443D01*
X66995124Y-89086447D01*
X67008792Y-89069792D01*
X67025447Y-89056124D01*
X67044443Y-89045971D01*
X67065062Y-89039716D01*
X67092640Y-89037000D01*
X67551360Y-89037000D01*
X67578938Y-89039716D01*
G37*
G36*
X66608938Y-89039716D02*
G01*
X66629557Y-89045971D01*
X66648553Y-89056124D01*
X66665208Y-89069792D01*
X66678876Y-89086447D01*
X66689029Y-89105443D01*
X66695284Y-89126062D01*
X66698000Y-89153640D01*
X66698000Y-89662360D01*
X66695284Y-89689938D01*
X66689029Y-89710557D01*
X66678876Y-89729553D01*
X66665208Y-89746208D01*
X66648553Y-89759876D01*
X66629557Y-89770029D01*
X66608938Y-89776284D01*
X66581360Y-89779000D01*
X66122640Y-89779000D01*
X66095062Y-89776284D01*
X66074443Y-89770029D01*
X66055447Y-89759876D01*
X66038792Y-89746208D01*
X66025124Y-89729553D01*
X66014971Y-89710557D01*
X66008716Y-89689938D01*
X66006000Y-89662360D01*
X66006000Y-89153640D01*
X66008716Y-89126062D01*
X66014971Y-89105443D01*
X66025124Y-89086447D01*
X66038792Y-89069792D01*
X66055447Y-89056124D01*
X66074443Y-89045971D01*
X66095062Y-89039716D01*
X66122640Y-89037000D01*
X66581360Y-89037000D01*
X66608938Y-89039716D01*
G37*
G36*
X79287795Y-87743223D02*
G01*
X79294809Y-87745351D01*
X79308577Y-87752710D01*
X79331216Y-87762087D01*
X79355249Y-87766867D01*
X79379753Y-87766867D01*
X79403786Y-87762086D01*
X79426423Y-87752710D01*
X79440191Y-87745351D01*
X79447205Y-87743223D01*
X79460640Y-87741900D01*
X79774360Y-87741900D01*
X79787795Y-87743223D01*
X79794809Y-87745351D01*
X79808577Y-87752710D01*
X79831216Y-87762087D01*
X79855249Y-87766867D01*
X79879753Y-87766867D01*
X79903786Y-87762086D01*
X79926423Y-87752710D01*
X79940191Y-87745351D01*
X79947205Y-87743223D01*
X79960640Y-87741900D01*
X80274360Y-87741900D01*
X80287795Y-87743223D01*
X80294809Y-87745351D01*
X80308577Y-87752710D01*
X80331216Y-87762087D01*
X80355249Y-87766867D01*
X80379753Y-87766867D01*
X80403786Y-87762086D01*
X80426423Y-87752710D01*
X80440191Y-87745351D01*
X80447205Y-87743223D01*
X80460640Y-87741900D01*
X80774360Y-87741900D01*
X80787795Y-87743223D01*
X80794809Y-87745351D01*
X80808577Y-87752710D01*
X80831216Y-87762087D01*
X80855249Y-87766867D01*
X80879753Y-87766867D01*
X80903786Y-87762086D01*
X80926423Y-87752710D01*
X80940191Y-87745351D01*
X80947205Y-87743223D01*
X80960640Y-87741900D01*
X81274360Y-87741900D01*
X81287795Y-87743223D01*
X81294809Y-87745351D01*
X81308577Y-87752710D01*
X81331216Y-87762087D01*
X81355249Y-87766867D01*
X81379753Y-87766867D01*
X81403786Y-87762086D01*
X81426423Y-87752710D01*
X81440191Y-87745351D01*
X81447205Y-87743223D01*
X81460640Y-87741900D01*
X81774360Y-87741900D01*
X81787795Y-87743223D01*
X81794809Y-87745351D01*
X81808577Y-87752710D01*
X81831216Y-87762087D01*
X81855249Y-87766867D01*
X81879753Y-87766867D01*
X81903786Y-87762086D01*
X81926423Y-87752710D01*
X81940191Y-87745351D01*
X81947205Y-87743223D01*
X81960640Y-87741900D01*
X82274360Y-87741900D01*
X82287795Y-87743223D01*
X82294809Y-87745351D01*
X82308577Y-87752710D01*
X82331216Y-87762087D01*
X82355249Y-87766867D01*
X82379753Y-87766867D01*
X82403786Y-87762086D01*
X82426423Y-87752710D01*
X82440191Y-87745351D01*
X82447205Y-87743223D01*
X82460640Y-87741900D01*
X82774360Y-87741900D01*
X82787795Y-87743223D01*
X82794809Y-87745351D01*
X82808577Y-87752710D01*
X82831216Y-87762087D01*
X82855249Y-87766867D01*
X82879753Y-87766867D01*
X82903786Y-87762086D01*
X82926423Y-87752710D01*
X82940191Y-87745351D01*
X82947205Y-87743223D01*
X82960640Y-87741900D01*
X83274360Y-87741900D01*
X83287795Y-87743223D01*
X83294809Y-87745351D01*
X83308577Y-87752710D01*
X83331216Y-87762087D01*
X83355249Y-87766867D01*
X83379753Y-87766867D01*
X83403786Y-87762086D01*
X83426423Y-87752710D01*
X83440191Y-87745351D01*
X83447205Y-87743223D01*
X83460640Y-87741900D01*
X83774360Y-87741900D01*
X83787795Y-87743223D01*
X83794809Y-87745351D01*
X83808577Y-87752710D01*
X83831216Y-87762087D01*
X83855249Y-87766867D01*
X83879753Y-87766867D01*
X83903786Y-87762086D01*
X83926423Y-87752710D01*
X83940191Y-87745351D01*
X83947205Y-87743223D01*
X83960640Y-87741900D01*
X84274360Y-87741900D01*
X84287795Y-87743223D01*
X84294809Y-87745351D01*
X84308577Y-87752710D01*
X84331216Y-87762087D01*
X84355249Y-87766867D01*
X84379753Y-87766867D01*
X84403786Y-87762086D01*
X84426423Y-87752710D01*
X84440191Y-87745351D01*
X84447205Y-87743223D01*
X84460640Y-87741900D01*
X84774360Y-87741900D01*
X84787795Y-87743223D01*
X84794809Y-87745351D01*
X84808577Y-87752710D01*
X84831216Y-87762087D01*
X84855249Y-87766867D01*
X84879753Y-87766867D01*
X84903786Y-87762086D01*
X84926423Y-87752710D01*
X84940191Y-87745351D01*
X84947205Y-87743223D01*
X84960640Y-87741900D01*
X85274360Y-87741900D01*
X85287795Y-87743223D01*
X85294809Y-87745351D01*
X85308577Y-87752710D01*
X85331216Y-87762087D01*
X85355249Y-87766867D01*
X85379753Y-87766867D01*
X85403786Y-87762086D01*
X85426423Y-87752710D01*
X85440191Y-87745351D01*
X85447205Y-87743223D01*
X85460640Y-87741900D01*
X85774360Y-87741900D01*
X85787795Y-87743223D01*
X85794809Y-87745351D01*
X85808577Y-87752710D01*
X85831216Y-87762087D01*
X85855249Y-87766867D01*
X85879753Y-87766867D01*
X85903786Y-87762086D01*
X85926423Y-87752710D01*
X85940191Y-87745351D01*
X85947205Y-87743223D01*
X85960640Y-87741900D01*
X86274360Y-87741900D01*
X86287795Y-87743223D01*
X86294809Y-87745351D01*
X86308577Y-87752710D01*
X86331216Y-87762087D01*
X86355249Y-87766867D01*
X86379753Y-87766867D01*
X86403786Y-87762086D01*
X86426423Y-87752710D01*
X86440191Y-87745351D01*
X86447205Y-87743223D01*
X86460640Y-87741900D01*
X86774360Y-87741900D01*
X86787795Y-87743223D01*
X86794810Y-87745351D01*
X86801276Y-87748808D01*
X86806942Y-87753458D01*
X86811592Y-87759124D01*
X86815049Y-87765590D01*
X86817177Y-87772605D01*
X86818500Y-87786040D01*
X86818500Y-89349760D01*
X86817177Y-89363195D01*
X86815049Y-89370210D01*
X86811592Y-89376676D01*
X86806942Y-89382342D01*
X86801276Y-89386992D01*
X86794810Y-89390449D01*
X86787795Y-89392577D01*
X86774360Y-89393900D01*
X86460640Y-89393900D01*
X86447205Y-89392577D01*
X86440191Y-89390449D01*
X86426423Y-89383090D01*
X86403784Y-89373713D01*
X86379751Y-89368933D01*
X86355247Y-89368933D01*
X86331214Y-89373714D01*
X86308577Y-89383090D01*
X86294809Y-89390449D01*
X86287795Y-89392577D01*
X86274360Y-89393900D01*
X85960640Y-89393900D01*
X85947205Y-89392577D01*
X85940191Y-89390449D01*
X85926423Y-89383090D01*
X85903784Y-89373713D01*
X85879751Y-89368933D01*
X85855247Y-89368933D01*
X85831214Y-89373714D01*
X85808577Y-89383090D01*
X85794809Y-89390449D01*
X85787795Y-89392577D01*
X85774360Y-89393900D01*
X85460640Y-89393900D01*
X85447205Y-89392577D01*
X85440191Y-89390449D01*
X85426423Y-89383090D01*
X85403784Y-89373713D01*
X85379751Y-89368933D01*
X85355247Y-89368933D01*
X85331214Y-89373714D01*
X85308577Y-89383090D01*
X85294809Y-89390449D01*
X85287795Y-89392577D01*
X85274360Y-89393900D01*
X84960640Y-89393900D01*
X84947205Y-89392577D01*
X84940191Y-89390449D01*
X84926423Y-89383090D01*
X84903784Y-89373713D01*
X84879751Y-89368933D01*
X84855247Y-89368933D01*
X84831214Y-89373714D01*
X84808577Y-89383090D01*
X84794809Y-89390449D01*
X84787795Y-89392577D01*
X84774360Y-89393900D01*
X84460640Y-89393900D01*
X84447205Y-89392577D01*
X84440191Y-89390449D01*
X84426423Y-89383090D01*
X84403784Y-89373713D01*
X84379751Y-89368933D01*
X84355247Y-89368933D01*
X84331214Y-89373714D01*
X84308577Y-89383090D01*
X84294809Y-89390449D01*
X84287795Y-89392577D01*
X84274360Y-89393900D01*
X83960640Y-89393900D01*
X83947205Y-89392577D01*
X83940191Y-89390449D01*
X83926423Y-89383090D01*
X83903784Y-89373713D01*
X83879751Y-89368933D01*
X83855247Y-89368933D01*
X83831214Y-89373714D01*
X83808577Y-89383090D01*
X83794809Y-89390449D01*
X83787795Y-89392577D01*
X83774360Y-89393900D01*
X83460640Y-89393900D01*
X83447205Y-89392577D01*
X83440191Y-89390449D01*
X83426423Y-89383090D01*
X83403784Y-89373713D01*
X83379751Y-89368933D01*
X83355247Y-89368933D01*
X83331214Y-89373714D01*
X83308577Y-89383090D01*
X83294809Y-89390449D01*
X83287795Y-89392577D01*
X83274360Y-89393900D01*
X82960640Y-89393900D01*
X82947205Y-89392577D01*
X82940191Y-89390449D01*
X82926423Y-89383090D01*
X82903784Y-89373713D01*
X82879751Y-89368933D01*
X82855247Y-89368933D01*
X82831214Y-89373714D01*
X82808577Y-89383090D01*
X82794809Y-89390449D01*
X82787795Y-89392577D01*
X82774360Y-89393900D01*
X82460640Y-89393900D01*
X82447205Y-89392577D01*
X82440191Y-89390449D01*
X82426423Y-89383090D01*
X82403784Y-89373713D01*
X82379751Y-89368933D01*
X82355247Y-89368933D01*
X82331214Y-89373714D01*
X82308577Y-89383090D01*
X82294809Y-89390449D01*
X82287795Y-89392577D01*
X82274360Y-89393900D01*
X81960640Y-89393900D01*
X81947205Y-89392577D01*
X81940191Y-89390449D01*
X81926423Y-89383090D01*
X81903784Y-89373713D01*
X81879751Y-89368933D01*
X81855247Y-89368933D01*
X81831214Y-89373714D01*
X81808577Y-89383090D01*
X81794809Y-89390449D01*
X81787795Y-89392577D01*
X81774360Y-89393900D01*
X81460640Y-89393900D01*
X81447205Y-89392577D01*
X81440191Y-89390449D01*
X81426423Y-89383090D01*
X81403784Y-89373713D01*
X81379751Y-89368933D01*
X81355247Y-89368933D01*
X81331214Y-89373714D01*
X81308577Y-89383090D01*
X81294809Y-89390449D01*
X81287795Y-89392577D01*
X81274360Y-89393900D01*
X80960640Y-89393900D01*
X80947205Y-89392577D01*
X80940191Y-89390449D01*
X80926423Y-89383090D01*
X80903784Y-89373713D01*
X80879751Y-89368933D01*
X80855247Y-89368933D01*
X80831214Y-89373714D01*
X80808577Y-89383090D01*
X80794809Y-89390449D01*
X80787795Y-89392577D01*
X80774360Y-89393900D01*
X80460640Y-89393900D01*
X80447205Y-89392577D01*
X80440191Y-89390449D01*
X80426423Y-89383090D01*
X80403784Y-89373713D01*
X80379751Y-89368933D01*
X80355247Y-89368933D01*
X80331214Y-89373714D01*
X80308577Y-89383090D01*
X80294809Y-89390449D01*
X80287795Y-89392577D01*
X80274360Y-89393900D01*
X79960640Y-89393900D01*
X79947205Y-89392577D01*
X79940191Y-89390449D01*
X79926423Y-89383090D01*
X79903784Y-89373713D01*
X79879751Y-89368933D01*
X79855247Y-89368933D01*
X79831214Y-89373714D01*
X79808577Y-89383090D01*
X79794809Y-89390449D01*
X79787795Y-89392577D01*
X79774360Y-89393900D01*
X79460640Y-89393900D01*
X79447205Y-89392577D01*
X79440191Y-89390449D01*
X79426423Y-89383090D01*
X79403784Y-89373713D01*
X79379751Y-89368933D01*
X79355247Y-89368933D01*
X79331214Y-89373714D01*
X79308577Y-89383090D01*
X79294809Y-89390449D01*
X79287795Y-89392577D01*
X79274360Y-89393900D01*
X78960640Y-89393900D01*
X78947205Y-89392577D01*
X78940190Y-89390449D01*
X78933724Y-89386992D01*
X78928058Y-89382342D01*
X78923408Y-89376676D01*
X78919951Y-89370210D01*
X78917823Y-89363195D01*
X78916500Y-89349760D01*
X78916500Y-87786040D01*
X78917823Y-87772605D01*
X78919951Y-87765590D01*
X78923408Y-87759124D01*
X78928058Y-87753458D01*
X78933724Y-87748808D01*
X78940190Y-87745351D01*
X78947205Y-87743223D01*
X78960640Y-87741900D01*
X79274360Y-87741900D01*
X79287795Y-87743223D01*
G37*
G36*
X64749938Y-88341216D02*
G01*
X64770557Y-88347471D01*
X64789553Y-88357624D01*
X64806208Y-88371292D01*
X64819876Y-88387947D01*
X64830029Y-88406943D01*
X64836284Y-88427562D01*
X64839000Y-88455140D01*
X64839000Y-88963860D01*
X64836284Y-88991438D01*
X64830029Y-89012057D01*
X64819876Y-89031053D01*
X64806208Y-89047708D01*
X64789553Y-89061376D01*
X64770557Y-89071529D01*
X64749938Y-89077784D01*
X64722360Y-89080500D01*
X64263640Y-89080500D01*
X64236062Y-89077784D01*
X64215443Y-89071529D01*
X64196447Y-89061376D01*
X64179792Y-89047708D01*
X64166124Y-89031053D01*
X64155971Y-89012057D01*
X64149716Y-88991438D01*
X64147000Y-88963860D01*
X64147000Y-88455140D01*
X64149716Y-88427562D01*
X64155971Y-88406943D01*
X64166124Y-88387947D01*
X64179792Y-88371292D01*
X64196447Y-88357624D01*
X64215443Y-88347471D01*
X64236062Y-88341216D01*
X64263640Y-88338500D01*
X64722360Y-88338500D01*
X64749938Y-88341216D01*
G37*
G36*
X63779938Y-88341216D02*
G01*
X63800557Y-88347471D01*
X63819553Y-88357624D01*
X63836208Y-88371292D01*
X63849876Y-88387947D01*
X63860029Y-88406943D01*
X63866284Y-88427562D01*
X63869000Y-88455140D01*
X63869000Y-88963860D01*
X63866284Y-88991438D01*
X63860029Y-89012057D01*
X63849876Y-89031053D01*
X63836208Y-89047708D01*
X63819553Y-89061376D01*
X63800557Y-89071529D01*
X63779938Y-89077784D01*
X63752360Y-89080500D01*
X63293640Y-89080500D01*
X63266062Y-89077784D01*
X63245443Y-89071529D01*
X63226447Y-89061376D01*
X63209792Y-89047708D01*
X63196124Y-89031053D01*
X63185971Y-89012057D01*
X63179716Y-88991438D01*
X63177000Y-88963860D01*
X63177000Y-88455140D01*
X63179716Y-88427562D01*
X63185971Y-88406943D01*
X63196124Y-88387947D01*
X63209792Y-88371292D01*
X63226447Y-88357624D01*
X63245443Y-88347471D01*
X63266062Y-88341216D01*
X63293640Y-88338500D01*
X63752360Y-88338500D01*
X63779938Y-88341216D01*
G37*
G36*
X92329591Y-87878085D02*
G01*
X92363569Y-87888393D01*
X92394890Y-87905134D01*
X92422339Y-87927661D01*
X92444866Y-87955110D01*
X92461607Y-87986431D01*
X92471915Y-88020409D01*
X92476000Y-88061890D01*
X92476000Y-88738110D01*
X92471915Y-88779591D01*
X92461607Y-88813569D01*
X92444866Y-88844890D01*
X92422339Y-88872339D01*
X92394890Y-88894866D01*
X92363569Y-88911607D01*
X92329591Y-88921915D01*
X92288110Y-88926000D01*
X91686890Y-88926000D01*
X91645409Y-88921915D01*
X91611431Y-88911607D01*
X91580110Y-88894866D01*
X91552661Y-88872339D01*
X91530134Y-88844890D01*
X91513393Y-88813569D01*
X91503085Y-88779591D01*
X91499000Y-88738110D01*
X91499000Y-88061890D01*
X91503085Y-88020409D01*
X91513393Y-87986431D01*
X91530134Y-87955110D01*
X91552661Y-87927661D01*
X91580110Y-87905134D01*
X91611431Y-87888393D01*
X91645409Y-87878085D01*
X91686890Y-87874000D01*
X92288110Y-87874000D01*
X92329591Y-87878085D01*
G37*
G36*
X90754591Y-87878085D02*
G01*
X90788569Y-87888393D01*
X90819890Y-87905134D01*
X90847339Y-87927661D01*
X90869866Y-87955110D01*
X90886607Y-87986431D01*
X90896915Y-88020409D01*
X90901000Y-88061890D01*
X90901000Y-88738110D01*
X90896915Y-88779591D01*
X90886607Y-88813569D01*
X90869866Y-88844890D01*
X90847339Y-88872339D01*
X90819890Y-88894866D01*
X90788569Y-88911607D01*
X90754591Y-88921915D01*
X90713110Y-88926000D01*
X90111890Y-88926000D01*
X90070409Y-88921915D01*
X90036431Y-88911607D01*
X90005110Y-88894866D01*
X89977661Y-88872339D01*
X89955134Y-88844890D01*
X89938393Y-88813569D01*
X89928085Y-88779591D01*
X89924000Y-88738110D01*
X89924000Y-88061890D01*
X89928085Y-88020409D01*
X89938393Y-87986431D01*
X89955134Y-87955110D01*
X89977661Y-87927661D01*
X90005110Y-87905134D01*
X90036431Y-87888393D01*
X90070409Y-87878085D01*
X90111890Y-87874000D01*
X90713110Y-87874000D01*
X90754591Y-87878085D01*
G37*
G36*
X66608938Y-87896716D02*
G01*
X66629557Y-87902971D01*
X66648553Y-87913124D01*
X66665208Y-87926792D01*
X66678876Y-87943447D01*
X66689029Y-87962443D01*
X66695284Y-87983062D01*
X66698000Y-88010640D01*
X66698000Y-88519360D01*
X66695284Y-88546938D01*
X66689029Y-88567557D01*
X66678876Y-88586553D01*
X66665208Y-88603208D01*
X66648553Y-88616876D01*
X66629557Y-88627029D01*
X66608938Y-88633284D01*
X66581360Y-88636000D01*
X66122640Y-88636000D01*
X66095062Y-88633284D01*
X66074443Y-88627029D01*
X66055447Y-88616876D01*
X66038792Y-88603208D01*
X66025124Y-88586553D01*
X66014971Y-88567557D01*
X66008716Y-88546938D01*
X66006000Y-88519360D01*
X66006000Y-88010640D01*
X66008716Y-87983062D01*
X66014971Y-87962443D01*
X66025124Y-87943447D01*
X66038792Y-87926792D01*
X66055447Y-87913124D01*
X66074443Y-87902971D01*
X66095062Y-87896716D01*
X66122640Y-87894000D01*
X66581360Y-87894000D01*
X66608938Y-87896716D01*
G37*
G36*
X67578938Y-87896716D02*
G01*
X67599557Y-87902971D01*
X67618553Y-87913124D01*
X67635208Y-87926792D01*
X67648876Y-87943447D01*
X67659029Y-87962443D01*
X67665284Y-87983062D01*
X67668000Y-88010640D01*
X67668000Y-88519360D01*
X67665284Y-88546938D01*
X67659029Y-88567557D01*
X67648876Y-88586553D01*
X67635208Y-88603208D01*
X67618553Y-88616876D01*
X67599557Y-88627029D01*
X67578938Y-88633284D01*
X67551360Y-88636000D01*
X67092640Y-88636000D01*
X67065062Y-88633284D01*
X67044443Y-88627029D01*
X67025447Y-88616876D01*
X67008792Y-88603208D01*
X66995124Y-88586553D01*
X66984971Y-88567557D01*
X66978716Y-88546938D01*
X66976000Y-88519360D01*
X66976000Y-88010640D01*
X66978716Y-87983062D01*
X66984971Y-87962443D01*
X66995124Y-87943447D01*
X67008792Y-87926792D01*
X67025447Y-87913124D01*
X67044443Y-87902971D01*
X67065062Y-87896716D01*
X67092640Y-87894000D01*
X67551360Y-87894000D01*
X67578938Y-87896716D01*
G37*
G36*
X63779938Y-87198216D02*
G01*
X63800557Y-87204471D01*
X63819553Y-87214624D01*
X63836208Y-87228292D01*
X63849876Y-87244947D01*
X63860029Y-87263943D01*
X63866284Y-87284562D01*
X63869000Y-87312140D01*
X63869000Y-87820860D01*
X63866284Y-87848438D01*
X63860029Y-87869057D01*
X63849876Y-87888053D01*
X63836208Y-87904708D01*
X63819553Y-87918376D01*
X63800557Y-87928529D01*
X63779938Y-87934784D01*
X63752360Y-87937500D01*
X63293640Y-87937500D01*
X63266062Y-87934784D01*
X63245443Y-87928529D01*
X63226447Y-87918376D01*
X63209792Y-87904708D01*
X63196124Y-87888053D01*
X63185971Y-87869057D01*
X63179716Y-87848438D01*
X63177000Y-87820860D01*
X63177000Y-87312140D01*
X63179716Y-87284562D01*
X63185971Y-87263943D01*
X63196124Y-87244947D01*
X63209792Y-87228292D01*
X63226447Y-87214624D01*
X63245443Y-87204471D01*
X63266062Y-87198216D01*
X63293640Y-87195500D01*
X63752360Y-87195500D01*
X63779938Y-87198216D01*
G37*
G36*
X64749938Y-87198216D02*
G01*
X64770557Y-87204471D01*
X64789553Y-87214624D01*
X64806208Y-87228292D01*
X64819876Y-87244947D01*
X64830029Y-87263943D01*
X64836284Y-87284562D01*
X64839000Y-87312140D01*
X64839000Y-87820860D01*
X64836284Y-87848438D01*
X64830029Y-87869057D01*
X64819876Y-87888053D01*
X64806208Y-87904708D01*
X64789553Y-87918376D01*
X64770557Y-87928529D01*
X64749938Y-87934784D01*
X64722360Y-87937500D01*
X64263640Y-87937500D01*
X64236062Y-87934784D01*
X64215443Y-87928529D01*
X64196447Y-87918376D01*
X64179792Y-87904708D01*
X64166124Y-87888053D01*
X64155971Y-87869057D01*
X64149716Y-87848438D01*
X64147000Y-87820860D01*
X64147000Y-87312140D01*
X64149716Y-87284562D01*
X64155971Y-87263943D01*
X64166124Y-87244947D01*
X64179792Y-87228292D01*
X64196447Y-87214624D01*
X64215443Y-87204471D01*
X64236062Y-87198216D01*
X64263640Y-87195500D01*
X64722360Y-87195500D01*
X64749938Y-87198216D01*
G37*
G36*
X66608938Y-86753716D02*
G01*
X66629557Y-86759971D01*
X66648553Y-86770124D01*
X66665208Y-86783792D01*
X66678876Y-86800447D01*
X66689029Y-86819443D01*
X66695284Y-86840062D01*
X66698000Y-86867640D01*
X66698000Y-87376360D01*
X66695284Y-87403938D01*
X66689029Y-87424557D01*
X66678876Y-87443553D01*
X66665208Y-87460208D01*
X66648553Y-87473876D01*
X66629557Y-87484029D01*
X66608938Y-87490284D01*
X66581360Y-87493000D01*
X66122640Y-87493000D01*
X66095062Y-87490284D01*
X66074443Y-87484029D01*
X66055447Y-87473876D01*
X66038792Y-87460208D01*
X66025124Y-87443553D01*
X66014971Y-87424557D01*
X66008716Y-87403938D01*
X66006000Y-87376360D01*
X66006000Y-86867640D01*
X66008716Y-86840062D01*
X66014971Y-86819443D01*
X66025124Y-86800447D01*
X66038792Y-86783792D01*
X66055447Y-86770124D01*
X66074443Y-86759971D01*
X66095062Y-86753716D01*
X66122640Y-86751000D01*
X66581360Y-86751000D01*
X66608938Y-86753716D01*
G37*
G36*
X67578938Y-86753716D02*
G01*
X67599557Y-86759971D01*
X67618553Y-86770124D01*
X67635208Y-86783792D01*
X67648876Y-86800447D01*
X67659029Y-86819443D01*
X67665284Y-86840062D01*
X67668000Y-86867640D01*
X67668000Y-87376360D01*
X67665284Y-87403938D01*
X67659029Y-87424557D01*
X67648876Y-87443553D01*
X67635208Y-87460208D01*
X67618553Y-87473876D01*
X67599557Y-87484029D01*
X67578938Y-87490284D01*
X67551360Y-87493000D01*
X67092640Y-87493000D01*
X67065062Y-87490284D01*
X67044443Y-87484029D01*
X67025447Y-87473876D01*
X67008792Y-87460208D01*
X66995124Y-87443553D01*
X66984971Y-87424557D01*
X66978716Y-87403938D01*
X66976000Y-87376360D01*
X66976000Y-86867640D01*
X66978716Y-86840062D01*
X66984971Y-86819443D01*
X66995124Y-86800447D01*
X67008792Y-86783792D01*
X67025447Y-86770124D01*
X67044443Y-86759971D01*
X67065062Y-86753716D01*
X67092640Y-86751000D01*
X67551360Y-86751000D01*
X67578938Y-86753716D01*
G37*
G36*
X90754591Y-86117485D02*
G01*
X90788569Y-86127793D01*
X90819890Y-86144534D01*
X90847339Y-86167061D01*
X90869866Y-86194510D01*
X90886607Y-86225831D01*
X90896915Y-86259809D01*
X90901000Y-86301290D01*
X90901000Y-86977510D01*
X90896915Y-87018991D01*
X90886607Y-87052969D01*
X90869866Y-87084290D01*
X90847339Y-87111739D01*
X90819890Y-87134266D01*
X90788569Y-87151007D01*
X90754591Y-87161315D01*
X90713110Y-87165400D01*
X90111890Y-87165400D01*
X90070409Y-87161315D01*
X90036431Y-87151007D01*
X90005110Y-87134266D01*
X89977661Y-87111739D01*
X89955134Y-87084290D01*
X89938393Y-87052969D01*
X89928085Y-87018991D01*
X89924000Y-86977510D01*
X89924000Y-86301290D01*
X89928085Y-86259809D01*
X89938393Y-86225831D01*
X89955134Y-86194510D01*
X89977661Y-86167061D01*
X90005110Y-86144534D01*
X90036431Y-86127793D01*
X90070409Y-86117485D01*
X90111890Y-86113400D01*
X90713110Y-86113400D01*
X90754591Y-86117485D01*
G37*
G36*
X92329591Y-86117485D02*
G01*
X92363569Y-86127793D01*
X92394890Y-86144534D01*
X92422339Y-86167061D01*
X92444866Y-86194510D01*
X92461607Y-86225831D01*
X92471915Y-86259809D01*
X92476000Y-86301290D01*
X92476000Y-86977510D01*
X92471915Y-87018991D01*
X92461607Y-87052969D01*
X92444866Y-87084290D01*
X92422339Y-87111739D01*
X92394890Y-87134266D01*
X92363569Y-87151007D01*
X92329591Y-87161315D01*
X92288110Y-87165400D01*
X91686890Y-87165400D01*
X91645409Y-87161315D01*
X91611431Y-87151007D01*
X91580110Y-87134266D01*
X91552661Y-87111739D01*
X91530134Y-87084290D01*
X91513393Y-87052969D01*
X91503085Y-87018991D01*
X91499000Y-86977510D01*
X91499000Y-86301290D01*
X91503085Y-86259809D01*
X91513393Y-86225831D01*
X91530134Y-86194510D01*
X91552661Y-86167061D01*
X91580110Y-86144534D01*
X91611431Y-86127793D01*
X91645409Y-86117485D01*
X91686890Y-86113400D01*
X92288110Y-86113400D01*
X92329591Y-86117485D01*
G37*
G36*
X89337795Y-78943223D02*
G01*
X89344810Y-78945351D01*
X89351276Y-78948808D01*
X89356942Y-78953458D01*
X89361592Y-78959124D01*
X89365049Y-78965590D01*
X89367177Y-78972605D01*
X89368500Y-78986040D01*
X89368500Y-79299760D01*
X89367177Y-79313195D01*
X89365049Y-79320209D01*
X89357690Y-79333977D01*
X89348313Y-79356616D01*
X89343533Y-79380649D01*
X89343533Y-79405153D01*
X89348314Y-79429186D01*
X89357690Y-79451823D01*
X89365049Y-79465591D01*
X89367177Y-79472605D01*
X89368500Y-79486040D01*
X89368500Y-79799760D01*
X89367177Y-79813195D01*
X89365049Y-79820209D01*
X89357690Y-79833977D01*
X89348313Y-79856616D01*
X89343533Y-79880649D01*
X89343533Y-79905153D01*
X89348314Y-79929186D01*
X89357690Y-79951823D01*
X89365049Y-79965591D01*
X89367177Y-79972605D01*
X89368500Y-79986040D01*
X89368500Y-80299760D01*
X89367177Y-80313195D01*
X89365049Y-80320209D01*
X89357690Y-80333977D01*
X89348313Y-80356616D01*
X89343533Y-80380649D01*
X89343533Y-80405153D01*
X89348314Y-80429186D01*
X89357690Y-80451823D01*
X89365049Y-80465591D01*
X89367177Y-80472605D01*
X89368500Y-80486040D01*
X89368500Y-80799760D01*
X89367177Y-80813195D01*
X89365049Y-80820209D01*
X89357690Y-80833977D01*
X89348313Y-80856616D01*
X89343533Y-80880649D01*
X89343533Y-80905153D01*
X89348314Y-80929186D01*
X89357690Y-80951823D01*
X89365049Y-80965591D01*
X89367177Y-80972605D01*
X89368500Y-80986040D01*
X89368500Y-81299760D01*
X89367177Y-81313195D01*
X89365049Y-81320209D01*
X89357690Y-81333977D01*
X89348313Y-81356616D01*
X89343533Y-81380649D01*
X89343533Y-81405153D01*
X89348314Y-81429186D01*
X89357690Y-81451823D01*
X89365049Y-81465591D01*
X89367177Y-81472605D01*
X89368500Y-81486040D01*
X89368500Y-81799760D01*
X89367177Y-81813195D01*
X89365049Y-81820209D01*
X89357690Y-81833977D01*
X89348313Y-81856616D01*
X89343533Y-81880649D01*
X89343533Y-81905153D01*
X89348314Y-81929186D01*
X89357690Y-81951823D01*
X89365049Y-81965591D01*
X89367177Y-81972605D01*
X89368500Y-81986040D01*
X89368500Y-82299760D01*
X89367177Y-82313195D01*
X89365049Y-82320209D01*
X89357690Y-82333977D01*
X89348313Y-82356616D01*
X89343533Y-82380649D01*
X89343533Y-82405153D01*
X89348314Y-82429186D01*
X89357690Y-82451823D01*
X89365049Y-82465591D01*
X89367177Y-82472605D01*
X89368500Y-82486040D01*
X89368500Y-82799760D01*
X89367177Y-82813195D01*
X89365049Y-82820209D01*
X89357690Y-82833977D01*
X89348313Y-82856616D01*
X89343533Y-82880649D01*
X89343533Y-82905153D01*
X89348314Y-82929186D01*
X89357690Y-82951823D01*
X89365049Y-82965591D01*
X89367177Y-82972605D01*
X89368500Y-82986040D01*
X89368500Y-83299760D01*
X89367177Y-83313195D01*
X89365049Y-83320209D01*
X89357690Y-83333977D01*
X89348313Y-83356616D01*
X89343533Y-83380649D01*
X89343533Y-83405153D01*
X89348314Y-83429186D01*
X89357690Y-83451823D01*
X89365049Y-83465591D01*
X89367177Y-83472605D01*
X89368500Y-83486040D01*
X89368500Y-83799760D01*
X89367177Y-83813195D01*
X89365049Y-83820209D01*
X89357690Y-83833977D01*
X89348313Y-83856616D01*
X89343533Y-83880649D01*
X89343533Y-83905153D01*
X89348314Y-83929186D01*
X89357690Y-83951823D01*
X89365049Y-83965591D01*
X89367177Y-83972605D01*
X89368500Y-83986040D01*
X89368500Y-84299760D01*
X89367177Y-84313195D01*
X89365049Y-84320209D01*
X89357690Y-84333977D01*
X89348313Y-84356616D01*
X89343533Y-84380649D01*
X89343533Y-84405153D01*
X89348314Y-84429186D01*
X89357690Y-84451823D01*
X89365049Y-84465591D01*
X89367177Y-84472605D01*
X89368500Y-84486040D01*
X89368500Y-84799760D01*
X89367177Y-84813195D01*
X89365049Y-84820209D01*
X89357690Y-84833977D01*
X89348313Y-84856616D01*
X89343533Y-84880649D01*
X89343533Y-84905153D01*
X89348314Y-84929186D01*
X89357690Y-84951823D01*
X89365049Y-84965591D01*
X89367177Y-84972605D01*
X89368500Y-84986040D01*
X89368500Y-85299760D01*
X89367177Y-85313195D01*
X89365049Y-85320209D01*
X89357690Y-85333977D01*
X89348313Y-85356616D01*
X89343533Y-85380649D01*
X89343533Y-85405153D01*
X89348314Y-85429186D01*
X89357690Y-85451823D01*
X89365049Y-85465591D01*
X89367177Y-85472605D01*
X89368500Y-85486040D01*
X89368500Y-85799760D01*
X89367177Y-85813195D01*
X89365049Y-85820209D01*
X89357690Y-85833977D01*
X89348313Y-85856616D01*
X89343533Y-85880649D01*
X89343533Y-85905153D01*
X89348314Y-85929186D01*
X89357690Y-85951823D01*
X89365049Y-85965591D01*
X89367177Y-85972605D01*
X89368500Y-85986040D01*
X89368500Y-86299760D01*
X89367177Y-86313195D01*
X89365049Y-86320209D01*
X89357690Y-86333977D01*
X89348313Y-86356616D01*
X89343533Y-86380649D01*
X89343533Y-86405153D01*
X89348314Y-86429186D01*
X89357690Y-86451823D01*
X89365049Y-86465591D01*
X89367177Y-86472605D01*
X89368500Y-86486040D01*
X89368500Y-86799760D01*
X89367177Y-86813195D01*
X89365049Y-86820210D01*
X89361592Y-86826676D01*
X89356942Y-86832342D01*
X89351276Y-86836992D01*
X89344810Y-86840449D01*
X89337795Y-86842577D01*
X89324360Y-86843900D01*
X87760640Y-86843900D01*
X87747205Y-86842577D01*
X87740190Y-86840449D01*
X87733724Y-86836992D01*
X87728058Y-86832342D01*
X87723408Y-86826676D01*
X87719951Y-86820210D01*
X87717823Y-86813195D01*
X87716500Y-86799760D01*
X87716500Y-86486040D01*
X87717823Y-86472605D01*
X87719951Y-86465591D01*
X87727310Y-86451823D01*
X87736687Y-86429184D01*
X87741467Y-86405151D01*
X87741467Y-86380647D01*
X87736686Y-86356614D01*
X87727310Y-86333977D01*
X87719951Y-86320209D01*
X87717823Y-86313195D01*
X87716500Y-86299760D01*
X87716500Y-85986040D01*
X87717823Y-85972605D01*
X87719951Y-85965591D01*
X87727310Y-85951823D01*
X87736687Y-85929184D01*
X87741467Y-85905151D01*
X87741467Y-85880647D01*
X87736686Y-85856614D01*
X87727310Y-85833977D01*
X87719951Y-85820209D01*
X87717823Y-85813195D01*
X87716500Y-85799760D01*
X87716500Y-85486040D01*
X87717823Y-85472605D01*
X87719951Y-85465591D01*
X87727310Y-85451823D01*
X87736687Y-85429184D01*
X87741467Y-85405151D01*
X87741467Y-85380647D01*
X87736686Y-85356614D01*
X87727310Y-85333977D01*
X87719951Y-85320209D01*
X87717823Y-85313195D01*
X87716500Y-85299760D01*
X87716500Y-84986040D01*
X87717823Y-84972605D01*
X87719951Y-84965591D01*
X87727310Y-84951823D01*
X87736687Y-84929184D01*
X87741467Y-84905151D01*
X87741467Y-84880647D01*
X87736686Y-84856614D01*
X87727310Y-84833977D01*
X87719951Y-84820209D01*
X87717823Y-84813195D01*
X87716500Y-84799760D01*
X87716500Y-84486040D01*
X87717823Y-84472605D01*
X87719951Y-84465591D01*
X87727310Y-84451823D01*
X87736687Y-84429184D01*
X87741467Y-84405151D01*
X87741467Y-84380647D01*
X87736686Y-84356614D01*
X87727310Y-84333977D01*
X87719951Y-84320209D01*
X87717823Y-84313195D01*
X87716500Y-84299760D01*
X87716500Y-83986040D01*
X87717823Y-83972605D01*
X87719951Y-83965591D01*
X87727310Y-83951823D01*
X87736687Y-83929184D01*
X87741467Y-83905151D01*
X87741467Y-83880647D01*
X87736686Y-83856614D01*
X87727310Y-83833977D01*
X87719951Y-83820209D01*
X87717823Y-83813195D01*
X87716500Y-83799760D01*
X87716500Y-83486040D01*
X87717823Y-83472605D01*
X87719951Y-83465591D01*
X87727310Y-83451823D01*
X87736687Y-83429184D01*
X87741467Y-83405151D01*
X87741467Y-83380647D01*
X87736686Y-83356614D01*
X87727310Y-83333977D01*
X87719951Y-83320209D01*
X87717823Y-83313195D01*
X87716500Y-83299760D01*
X87716500Y-82986040D01*
X87717823Y-82972605D01*
X87719951Y-82965591D01*
X87727310Y-82951823D01*
X87736687Y-82929184D01*
X87741467Y-82905151D01*
X87741467Y-82880647D01*
X87736686Y-82856614D01*
X87727310Y-82833977D01*
X87719951Y-82820209D01*
X87717823Y-82813195D01*
X87716500Y-82799760D01*
X87716500Y-82486040D01*
X87717823Y-82472605D01*
X87719951Y-82465591D01*
X87727310Y-82451823D01*
X87736687Y-82429184D01*
X87741467Y-82405151D01*
X87741467Y-82380647D01*
X87736686Y-82356614D01*
X87727310Y-82333977D01*
X87719951Y-82320209D01*
X87717823Y-82313195D01*
X87716500Y-82299760D01*
X87716500Y-81986040D01*
X87717823Y-81972605D01*
X87719951Y-81965591D01*
X87727310Y-81951823D01*
X87736687Y-81929184D01*
X87741467Y-81905151D01*
X87741467Y-81880647D01*
X87736686Y-81856614D01*
X87727310Y-81833977D01*
X87719951Y-81820209D01*
X87717823Y-81813195D01*
X87716500Y-81799760D01*
X87716500Y-81486040D01*
X87717823Y-81472605D01*
X87719951Y-81465591D01*
X87727310Y-81451823D01*
X87736687Y-81429184D01*
X87741467Y-81405151D01*
X87741467Y-81380647D01*
X87736686Y-81356614D01*
X87727310Y-81333977D01*
X87719951Y-81320209D01*
X87717823Y-81313195D01*
X87716500Y-81299760D01*
X87716500Y-80986040D01*
X87717823Y-80972605D01*
X87719951Y-80965591D01*
X87727310Y-80951823D01*
X87736687Y-80929184D01*
X87741467Y-80905151D01*
X87741467Y-80880647D01*
X87736686Y-80856614D01*
X87727310Y-80833977D01*
X87719951Y-80820209D01*
X87717823Y-80813195D01*
X87716500Y-80799760D01*
X87716500Y-80486040D01*
X87717823Y-80472605D01*
X87719951Y-80465591D01*
X87727310Y-80451823D01*
X87736687Y-80429184D01*
X87741467Y-80405151D01*
X87741467Y-80380647D01*
X87736686Y-80356614D01*
X87727310Y-80333977D01*
X87719951Y-80320209D01*
X87717823Y-80313195D01*
X87716500Y-80299760D01*
X87716500Y-79986040D01*
X87717823Y-79972605D01*
X87719951Y-79965591D01*
X87727310Y-79951823D01*
X87736687Y-79929184D01*
X87741467Y-79905151D01*
X87741467Y-79880647D01*
X87736686Y-79856614D01*
X87727310Y-79833977D01*
X87719951Y-79820209D01*
X87717823Y-79813195D01*
X87716500Y-79799760D01*
X87716500Y-79486040D01*
X87717823Y-79472605D01*
X87719951Y-79465591D01*
X87727310Y-79451823D01*
X87736687Y-79429184D01*
X87741467Y-79405151D01*
X87741467Y-79380647D01*
X87736686Y-79356614D01*
X87727310Y-79333977D01*
X87719951Y-79320209D01*
X87717823Y-79313195D01*
X87716500Y-79299760D01*
X87716500Y-78986040D01*
X87717823Y-78972605D01*
X87719951Y-78965590D01*
X87723408Y-78959124D01*
X87728058Y-78953458D01*
X87733724Y-78948808D01*
X87740190Y-78945351D01*
X87747205Y-78943223D01*
X87760640Y-78941900D01*
X89324360Y-78941900D01*
X89337795Y-78943223D01*
G37*
G36*
X77987795Y-78943223D02*
G01*
X77994810Y-78945351D01*
X78001276Y-78948808D01*
X78006942Y-78953458D01*
X78011592Y-78959124D01*
X78015049Y-78965590D01*
X78017177Y-78972605D01*
X78018500Y-78986040D01*
X78018500Y-79299760D01*
X78017177Y-79313195D01*
X78015049Y-79320209D01*
X78007690Y-79333977D01*
X77998313Y-79356616D01*
X77993533Y-79380649D01*
X77993533Y-79405153D01*
X77998314Y-79429186D01*
X78007690Y-79451823D01*
X78015049Y-79465591D01*
X78017177Y-79472605D01*
X78018500Y-79486040D01*
X78018500Y-79799760D01*
X78017177Y-79813195D01*
X78015049Y-79820209D01*
X78007690Y-79833977D01*
X77998313Y-79856616D01*
X77993533Y-79880649D01*
X77993533Y-79905153D01*
X77998314Y-79929186D01*
X78007690Y-79951823D01*
X78015049Y-79965591D01*
X78017177Y-79972605D01*
X78018500Y-79986040D01*
X78018500Y-80299760D01*
X78017177Y-80313195D01*
X78015049Y-80320209D01*
X78007690Y-80333977D01*
X77998313Y-80356616D01*
X77993533Y-80380649D01*
X77993533Y-80405153D01*
X77998314Y-80429186D01*
X78007690Y-80451823D01*
X78015049Y-80465591D01*
X78017177Y-80472605D01*
X78018500Y-80486040D01*
X78018500Y-80799760D01*
X78017177Y-80813195D01*
X78015049Y-80820209D01*
X78007690Y-80833977D01*
X77998313Y-80856616D01*
X77993533Y-80880649D01*
X77993533Y-80905153D01*
X77998314Y-80929186D01*
X78007690Y-80951823D01*
X78015049Y-80965591D01*
X78017177Y-80972605D01*
X78018500Y-80986040D01*
X78018500Y-81299760D01*
X78017177Y-81313195D01*
X78015049Y-81320209D01*
X78007690Y-81333977D01*
X77998313Y-81356616D01*
X77993533Y-81380649D01*
X77993533Y-81405153D01*
X77998314Y-81429186D01*
X78007690Y-81451823D01*
X78015049Y-81465591D01*
X78017177Y-81472605D01*
X78018500Y-81486040D01*
X78018500Y-81799760D01*
X78017177Y-81813195D01*
X78015049Y-81820209D01*
X78007690Y-81833977D01*
X77998313Y-81856616D01*
X77993533Y-81880649D01*
X77993533Y-81905153D01*
X77998314Y-81929186D01*
X78007690Y-81951823D01*
X78015049Y-81965591D01*
X78017177Y-81972605D01*
X78018500Y-81986040D01*
X78018500Y-82299760D01*
X78017177Y-82313195D01*
X78015049Y-82320209D01*
X78007690Y-82333977D01*
X77998313Y-82356616D01*
X77993533Y-82380649D01*
X77993533Y-82405153D01*
X77998314Y-82429186D01*
X78007690Y-82451823D01*
X78015049Y-82465591D01*
X78017177Y-82472605D01*
X78018500Y-82486040D01*
X78018500Y-82799760D01*
X78017177Y-82813195D01*
X78015049Y-82820209D01*
X78007690Y-82833977D01*
X77998313Y-82856616D01*
X77993533Y-82880649D01*
X77993533Y-82905153D01*
X77998314Y-82929186D01*
X78007690Y-82951823D01*
X78015049Y-82965591D01*
X78017177Y-82972605D01*
X78018500Y-82986040D01*
X78018500Y-83299760D01*
X78017177Y-83313195D01*
X78015049Y-83320209D01*
X78007690Y-83333977D01*
X77998313Y-83356616D01*
X77993533Y-83380649D01*
X77993533Y-83405153D01*
X77998314Y-83429186D01*
X78007690Y-83451823D01*
X78015049Y-83465591D01*
X78017177Y-83472605D01*
X78018500Y-83486040D01*
X78018500Y-83799760D01*
X78017177Y-83813195D01*
X78015049Y-83820209D01*
X78007690Y-83833977D01*
X77998313Y-83856616D01*
X77993533Y-83880649D01*
X77993533Y-83905153D01*
X77998314Y-83929186D01*
X78007690Y-83951823D01*
X78015049Y-83965591D01*
X78017177Y-83972605D01*
X78018500Y-83986040D01*
X78018500Y-84299760D01*
X78017177Y-84313195D01*
X78015049Y-84320209D01*
X78007690Y-84333977D01*
X77998313Y-84356616D01*
X77993533Y-84380649D01*
X77993533Y-84405153D01*
X77998314Y-84429186D01*
X78007690Y-84451823D01*
X78015049Y-84465591D01*
X78017177Y-84472605D01*
X78018500Y-84486040D01*
X78018500Y-84799760D01*
X78017177Y-84813195D01*
X78015049Y-84820209D01*
X78007690Y-84833977D01*
X77998313Y-84856616D01*
X77993533Y-84880649D01*
X77993533Y-84905153D01*
X77998314Y-84929186D01*
X78007690Y-84951823D01*
X78015049Y-84965591D01*
X78017177Y-84972605D01*
X78018500Y-84986040D01*
X78018500Y-85299760D01*
X78017177Y-85313195D01*
X78015049Y-85320209D01*
X78007690Y-85333977D01*
X77998313Y-85356616D01*
X77993533Y-85380649D01*
X77993533Y-85405153D01*
X77998314Y-85429186D01*
X78007690Y-85451823D01*
X78015049Y-85465591D01*
X78017177Y-85472605D01*
X78018500Y-85486040D01*
X78018500Y-85799760D01*
X78017177Y-85813195D01*
X78015049Y-85820209D01*
X78007690Y-85833977D01*
X77998313Y-85856616D01*
X77993533Y-85880649D01*
X77993533Y-85905153D01*
X77998314Y-85929186D01*
X78007690Y-85951823D01*
X78015049Y-85965591D01*
X78017177Y-85972605D01*
X78018500Y-85986040D01*
X78018500Y-86299760D01*
X78017177Y-86313195D01*
X78015049Y-86320209D01*
X78007690Y-86333977D01*
X77998313Y-86356616D01*
X77993533Y-86380649D01*
X77993533Y-86405153D01*
X77998314Y-86429186D01*
X78007690Y-86451823D01*
X78015049Y-86465591D01*
X78017177Y-86472605D01*
X78018500Y-86486040D01*
X78018500Y-86799760D01*
X78017177Y-86813195D01*
X78015049Y-86820210D01*
X78011592Y-86826676D01*
X78006942Y-86832342D01*
X78001276Y-86836992D01*
X77994810Y-86840449D01*
X77987795Y-86842577D01*
X77974360Y-86843900D01*
X76410640Y-86843900D01*
X76397205Y-86842577D01*
X76390190Y-86840449D01*
X76383724Y-86836992D01*
X76378058Y-86832342D01*
X76373408Y-86826676D01*
X76369951Y-86820210D01*
X76367823Y-86813195D01*
X76366500Y-86799760D01*
X76366500Y-86486040D01*
X76367823Y-86472605D01*
X76369951Y-86465591D01*
X76377310Y-86451823D01*
X76386687Y-86429184D01*
X76391467Y-86405151D01*
X76391467Y-86380647D01*
X76386686Y-86356614D01*
X76377310Y-86333977D01*
X76369951Y-86320209D01*
X76367823Y-86313195D01*
X76366500Y-86299760D01*
X76366500Y-85986040D01*
X76367823Y-85972605D01*
X76369951Y-85965591D01*
X76377310Y-85951823D01*
X76386687Y-85929184D01*
X76391467Y-85905151D01*
X76391467Y-85880647D01*
X76386686Y-85856614D01*
X76377310Y-85833977D01*
X76369951Y-85820209D01*
X76367823Y-85813195D01*
X76366500Y-85799760D01*
X76366500Y-85486040D01*
X76367823Y-85472605D01*
X76369951Y-85465591D01*
X76377310Y-85451823D01*
X76386687Y-85429184D01*
X76391467Y-85405151D01*
X76391467Y-85380647D01*
X76386686Y-85356614D01*
X76377310Y-85333977D01*
X76369951Y-85320209D01*
X76367823Y-85313195D01*
X76366500Y-85299760D01*
X76366500Y-84986040D01*
X76367823Y-84972605D01*
X76369951Y-84965591D01*
X76377310Y-84951823D01*
X76386687Y-84929184D01*
X76391467Y-84905151D01*
X76391467Y-84880647D01*
X76386686Y-84856614D01*
X76377310Y-84833977D01*
X76369951Y-84820209D01*
X76367823Y-84813195D01*
X76366500Y-84799760D01*
X76366500Y-84486040D01*
X76367823Y-84472605D01*
X76369951Y-84465591D01*
X76377310Y-84451823D01*
X76386687Y-84429184D01*
X76391467Y-84405151D01*
X76391467Y-84380647D01*
X76386686Y-84356614D01*
X76377310Y-84333977D01*
X76369951Y-84320209D01*
X76367823Y-84313195D01*
X76366500Y-84299760D01*
X76366500Y-83986040D01*
X76367823Y-83972605D01*
X76369951Y-83965591D01*
X76377310Y-83951823D01*
X76386687Y-83929184D01*
X76391467Y-83905151D01*
X76391467Y-83880647D01*
X76386686Y-83856614D01*
X76377310Y-83833977D01*
X76369951Y-83820209D01*
X76367823Y-83813195D01*
X76366500Y-83799760D01*
X76366500Y-83486040D01*
X76367823Y-83472605D01*
X76369951Y-83465591D01*
X76377310Y-83451823D01*
X76386687Y-83429184D01*
X76391467Y-83405151D01*
X76391467Y-83380647D01*
X76386686Y-83356614D01*
X76377310Y-83333977D01*
X76369951Y-83320209D01*
X76367823Y-83313195D01*
X76366500Y-83299760D01*
X76366500Y-82986040D01*
X76367823Y-82972605D01*
X76369951Y-82965591D01*
X76377310Y-82951823D01*
X76386687Y-82929184D01*
X76391467Y-82905151D01*
X76391467Y-82880647D01*
X76386686Y-82856614D01*
X76377310Y-82833977D01*
X76369951Y-82820209D01*
X76367823Y-82813195D01*
X76366500Y-82799760D01*
X76366500Y-82486040D01*
X76367823Y-82472605D01*
X76369951Y-82465591D01*
X76377310Y-82451823D01*
X76386687Y-82429184D01*
X76391467Y-82405151D01*
X76391467Y-82380647D01*
X76386686Y-82356614D01*
X76377310Y-82333977D01*
X76369951Y-82320209D01*
X76367823Y-82313195D01*
X76366500Y-82299760D01*
X76366500Y-81986040D01*
X76367823Y-81972605D01*
X76369951Y-81965591D01*
X76377310Y-81951823D01*
X76386687Y-81929184D01*
X76391467Y-81905151D01*
X76391467Y-81880647D01*
X76386686Y-81856614D01*
X76377310Y-81833977D01*
X76369951Y-81820209D01*
X76367823Y-81813195D01*
X76366500Y-81799760D01*
X76366500Y-81486040D01*
X76367823Y-81472605D01*
X76369951Y-81465591D01*
X76377310Y-81451823D01*
X76386687Y-81429184D01*
X76391467Y-81405151D01*
X76391467Y-81380647D01*
X76386686Y-81356614D01*
X76377310Y-81333977D01*
X76369951Y-81320209D01*
X76367823Y-81313195D01*
X76366500Y-81299760D01*
X76366500Y-80986040D01*
X76367823Y-80972605D01*
X76369951Y-80965591D01*
X76377310Y-80951823D01*
X76386687Y-80929184D01*
X76391467Y-80905151D01*
X76391467Y-80880647D01*
X76386686Y-80856614D01*
X76377310Y-80833977D01*
X76369951Y-80820209D01*
X76367823Y-80813195D01*
X76366500Y-80799760D01*
X76366500Y-80486040D01*
X76367823Y-80472605D01*
X76369951Y-80465591D01*
X76377310Y-80451823D01*
X76386687Y-80429184D01*
X76391467Y-80405151D01*
X76391467Y-80380647D01*
X76386686Y-80356614D01*
X76377310Y-80333977D01*
X76369951Y-80320209D01*
X76367823Y-80313195D01*
X76366500Y-80299760D01*
X76366500Y-79986040D01*
X76367823Y-79972605D01*
X76369951Y-79965591D01*
X76377310Y-79951823D01*
X76386687Y-79929184D01*
X76391467Y-79905151D01*
X76391467Y-79880647D01*
X76386686Y-79856614D01*
X76377310Y-79833977D01*
X76369951Y-79820209D01*
X76367823Y-79813195D01*
X76366500Y-79799760D01*
X76366500Y-79486040D01*
X76367823Y-79472605D01*
X76369951Y-79465591D01*
X76377310Y-79451823D01*
X76386687Y-79429184D01*
X76391467Y-79405151D01*
X76391467Y-79380647D01*
X76386686Y-79356614D01*
X76377310Y-79333977D01*
X76369951Y-79320209D01*
X76367823Y-79313195D01*
X76366500Y-79299760D01*
X76366500Y-78986040D01*
X76367823Y-78972605D01*
X76369951Y-78965590D01*
X76373408Y-78959124D01*
X76378058Y-78953458D01*
X76383724Y-78948808D01*
X76390190Y-78945351D01*
X76397205Y-78943223D01*
X76410640Y-78941900D01*
X77974360Y-78941900D01*
X77987795Y-78943223D01*
G37*
G36*
X63779938Y-86055216D02*
G01*
X63800557Y-86061471D01*
X63819553Y-86071624D01*
X63836208Y-86085292D01*
X63849876Y-86101947D01*
X63860029Y-86120943D01*
X63866284Y-86141562D01*
X63869000Y-86169140D01*
X63869000Y-86677860D01*
X63866284Y-86705438D01*
X63860029Y-86726057D01*
X63849876Y-86745053D01*
X63836208Y-86761708D01*
X63819553Y-86775376D01*
X63800557Y-86785529D01*
X63779938Y-86791784D01*
X63752360Y-86794500D01*
X63293640Y-86794500D01*
X63266062Y-86791784D01*
X63245443Y-86785529D01*
X63226447Y-86775376D01*
X63209792Y-86761708D01*
X63196124Y-86745053D01*
X63185971Y-86726057D01*
X63179716Y-86705438D01*
X63177000Y-86677860D01*
X63177000Y-86169140D01*
X63179716Y-86141562D01*
X63185971Y-86120943D01*
X63196124Y-86101947D01*
X63209792Y-86085292D01*
X63226447Y-86071624D01*
X63245443Y-86061471D01*
X63266062Y-86055216D01*
X63293640Y-86052500D01*
X63752360Y-86052500D01*
X63779938Y-86055216D01*
G37*
G36*
X64749938Y-86055216D02*
G01*
X64770557Y-86061471D01*
X64789553Y-86071624D01*
X64806208Y-86085292D01*
X64819876Y-86101947D01*
X64830029Y-86120943D01*
X64836284Y-86141562D01*
X64839000Y-86169140D01*
X64839000Y-86677860D01*
X64836284Y-86705438D01*
X64830029Y-86726057D01*
X64819876Y-86745053D01*
X64806208Y-86761708D01*
X64789553Y-86775376D01*
X64770557Y-86785529D01*
X64749938Y-86791784D01*
X64722360Y-86794500D01*
X64263640Y-86794500D01*
X64236062Y-86791784D01*
X64215443Y-86785529D01*
X64196447Y-86775376D01*
X64179792Y-86761708D01*
X64166124Y-86745053D01*
X64155971Y-86726057D01*
X64149716Y-86705438D01*
X64147000Y-86677860D01*
X64147000Y-86169140D01*
X64149716Y-86141562D01*
X64155971Y-86120943D01*
X64166124Y-86101947D01*
X64179792Y-86085292D01*
X64196447Y-86071624D01*
X64215443Y-86061471D01*
X64236062Y-86055216D01*
X64263640Y-86052500D01*
X64722360Y-86052500D01*
X64749938Y-86055216D01*
G37*
G36*
X73439938Y-85731716D02*
G01*
X73460557Y-85737971D01*
X73479553Y-85748124D01*
X73496208Y-85761792D01*
X73509876Y-85778447D01*
X73520029Y-85797443D01*
X73526284Y-85818062D01*
X73529000Y-85845640D01*
X73529000Y-86354360D01*
X73526284Y-86381938D01*
X73520029Y-86402557D01*
X73509876Y-86421553D01*
X73496208Y-86438208D01*
X73479553Y-86451876D01*
X73460557Y-86462029D01*
X73439938Y-86468284D01*
X73412360Y-86471000D01*
X72953640Y-86471000D01*
X72926062Y-86468284D01*
X72905443Y-86462029D01*
X72886447Y-86451876D01*
X72869792Y-86438208D01*
X72856124Y-86421553D01*
X72845971Y-86402557D01*
X72839716Y-86381938D01*
X72837000Y-86354360D01*
X72837000Y-85845640D01*
X72839716Y-85818062D01*
X72845971Y-85797443D01*
X72856124Y-85778447D01*
X72869792Y-85761792D01*
X72886447Y-85748124D01*
X72905443Y-85737971D01*
X72926062Y-85731716D01*
X72953640Y-85729000D01*
X73412360Y-85729000D01*
X73439938Y-85731716D01*
G37*
G36*
X72469938Y-85731716D02*
G01*
X72490557Y-85737971D01*
X72509553Y-85748124D01*
X72526208Y-85761792D01*
X72539876Y-85778447D01*
X72550029Y-85797443D01*
X72556284Y-85818062D01*
X72559000Y-85845640D01*
X72559000Y-86354360D01*
X72556284Y-86381938D01*
X72550029Y-86402557D01*
X72539876Y-86421553D01*
X72526208Y-86438208D01*
X72509553Y-86451876D01*
X72490557Y-86462029D01*
X72469938Y-86468284D01*
X72442360Y-86471000D01*
X71983640Y-86471000D01*
X71956062Y-86468284D01*
X71935443Y-86462029D01*
X71916447Y-86451876D01*
X71899792Y-86438208D01*
X71886124Y-86421553D01*
X71875971Y-86402557D01*
X71869716Y-86381938D01*
X71867000Y-86354360D01*
X71867000Y-85845640D01*
X71869716Y-85818062D01*
X71875971Y-85797443D01*
X71886124Y-85778447D01*
X71899792Y-85761792D01*
X71916447Y-85748124D01*
X71935443Y-85737971D01*
X71956062Y-85731716D01*
X71983640Y-85729000D01*
X72442360Y-85729000D01*
X72469938Y-85731716D01*
G37*
G36*
X66608938Y-85610716D02*
G01*
X66629557Y-85616971D01*
X66648553Y-85627124D01*
X66665208Y-85640792D01*
X66678876Y-85657447D01*
X66689029Y-85676443D01*
X66695284Y-85697062D01*
X66698000Y-85724640D01*
X66698000Y-86233360D01*
X66695284Y-86260938D01*
X66689029Y-86281557D01*
X66678876Y-86300553D01*
X66665208Y-86317208D01*
X66648553Y-86330876D01*
X66629557Y-86341029D01*
X66608938Y-86347284D01*
X66581360Y-86350000D01*
X66122640Y-86350000D01*
X66095062Y-86347284D01*
X66074443Y-86341029D01*
X66055447Y-86330876D01*
X66038792Y-86317208D01*
X66025124Y-86300553D01*
X66014971Y-86281557D01*
X66008716Y-86260938D01*
X66006000Y-86233360D01*
X66006000Y-85724640D01*
X66008716Y-85697062D01*
X66014971Y-85676443D01*
X66025124Y-85657447D01*
X66038792Y-85640792D01*
X66055447Y-85627124D01*
X66074443Y-85616971D01*
X66095062Y-85610716D01*
X66122640Y-85608000D01*
X66581360Y-85608000D01*
X66608938Y-85610716D01*
G37*
G36*
X67578938Y-85610716D02*
G01*
X67599557Y-85616971D01*
X67618553Y-85627124D01*
X67635208Y-85640792D01*
X67648876Y-85657447D01*
X67659029Y-85676443D01*
X67665284Y-85697062D01*
X67668000Y-85724640D01*
X67668000Y-86233360D01*
X67665284Y-86260938D01*
X67659029Y-86281557D01*
X67648876Y-86300553D01*
X67635208Y-86317208D01*
X67618553Y-86330876D01*
X67599557Y-86341029D01*
X67578938Y-86347284D01*
X67551360Y-86350000D01*
X67092640Y-86350000D01*
X67065062Y-86347284D01*
X67044443Y-86341029D01*
X67025447Y-86330876D01*
X67008792Y-86317208D01*
X66995124Y-86300553D01*
X66984971Y-86281557D01*
X66978716Y-86260938D01*
X66976000Y-86233360D01*
X66976000Y-85724640D01*
X66978716Y-85697062D01*
X66984971Y-85676443D01*
X66995124Y-85657447D01*
X67008792Y-85640792D01*
X67025447Y-85627124D01*
X67044443Y-85616971D01*
X67065062Y-85610716D01*
X67092640Y-85608000D01*
X67551360Y-85608000D01*
X67578938Y-85610716D01*
G37*
G36*
X104887400Y-85539400D02*
G01*
X101635400Y-85539400D01*
X101635400Y-84437400D01*
X104887400Y-84437400D01*
X104887400Y-85539400D01*
G37*
G36*
X99837400Y-85539400D02*
G01*
X96585400Y-85539400D01*
X96585400Y-84437400D01*
X99837400Y-84437400D01*
X99837400Y-85539400D01*
G37*
G36*
X65137591Y-84441085D02*
G01*
X65171569Y-84451393D01*
X65202890Y-84468134D01*
X65230339Y-84490661D01*
X65252866Y-84518110D01*
X65269607Y-84549431D01*
X65279915Y-84583409D01*
X65284000Y-84624890D01*
X65284000Y-85301110D01*
X65279915Y-85342591D01*
X65269607Y-85376569D01*
X65252866Y-85407890D01*
X65230339Y-85435339D01*
X65202890Y-85457866D01*
X65171569Y-85474607D01*
X65137591Y-85484915D01*
X65096110Y-85489000D01*
X64494890Y-85489000D01*
X64453409Y-85484915D01*
X64419431Y-85474607D01*
X64388110Y-85457866D01*
X64360661Y-85435339D01*
X64338134Y-85407890D01*
X64321393Y-85376569D01*
X64311085Y-85342591D01*
X64307000Y-85301110D01*
X64307000Y-84624890D01*
X64311085Y-84583409D01*
X64321393Y-84549431D01*
X64338134Y-84518110D01*
X64360661Y-84490661D01*
X64388110Y-84468134D01*
X64419431Y-84451393D01*
X64453409Y-84441085D01*
X64494890Y-84437000D01*
X65096110Y-84437000D01*
X65137591Y-84441085D01*
G37*
G36*
X63562591Y-84441085D02*
G01*
X63596569Y-84451393D01*
X63627890Y-84468134D01*
X63655339Y-84490661D01*
X63677866Y-84518110D01*
X63694607Y-84549431D01*
X63704915Y-84583409D01*
X63709000Y-84624890D01*
X63709000Y-85301110D01*
X63704915Y-85342591D01*
X63694607Y-85376569D01*
X63677866Y-85407890D01*
X63655339Y-85435339D01*
X63627890Y-85457866D01*
X63596569Y-85474607D01*
X63562591Y-85484915D01*
X63521110Y-85489000D01*
X62919890Y-85489000D01*
X62878409Y-85484915D01*
X62844431Y-85474607D01*
X62813110Y-85457866D01*
X62785661Y-85435339D01*
X62763134Y-85407890D01*
X62746393Y-85376569D01*
X62736085Y-85342591D01*
X62732000Y-85301110D01*
X62732000Y-84624890D01*
X62736085Y-84583409D01*
X62746393Y-84549431D01*
X62763134Y-84518110D01*
X62785661Y-84490661D01*
X62813110Y-84468134D01*
X62844431Y-84451393D01*
X62878409Y-84441085D01*
X62919890Y-84437000D01*
X63521110Y-84437000D01*
X63562591Y-84441085D01*
G37*
G36*
X74262500Y-85315400D02*
G01*
X72960500Y-85315400D01*
X72960500Y-83813400D01*
X74262500Y-83813400D01*
X74262500Y-85315400D01*
G37*
G36*
X72562500Y-85315400D02*
G01*
X71260500Y-85315400D01*
X71260500Y-83813400D01*
X72562500Y-83813400D01*
X72562500Y-85315400D01*
G37*
G36*
X66608938Y-84467716D02*
G01*
X66629557Y-84473971D01*
X66648553Y-84484124D01*
X66665208Y-84497792D01*
X66678876Y-84514447D01*
X66689029Y-84533443D01*
X66695284Y-84554062D01*
X66698000Y-84581640D01*
X66698000Y-85090360D01*
X66695284Y-85117938D01*
X66689029Y-85138557D01*
X66678876Y-85157553D01*
X66665208Y-85174208D01*
X66648553Y-85187876D01*
X66629557Y-85198029D01*
X66608938Y-85204284D01*
X66581360Y-85207000D01*
X66122640Y-85207000D01*
X66095062Y-85204284D01*
X66074443Y-85198029D01*
X66055447Y-85187876D01*
X66038792Y-85174208D01*
X66025124Y-85157553D01*
X66014971Y-85138557D01*
X66008716Y-85117938D01*
X66006000Y-85090360D01*
X66006000Y-84581640D01*
X66008716Y-84554062D01*
X66014971Y-84533443D01*
X66025124Y-84514447D01*
X66038792Y-84497792D01*
X66055447Y-84484124D01*
X66074443Y-84473971D01*
X66095062Y-84467716D01*
X66122640Y-84465000D01*
X66581360Y-84465000D01*
X66608938Y-84467716D01*
G37*
G36*
X67578938Y-84467716D02*
G01*
X67599557Y-84473971D01*
X67618553Y-84484124D01*
X67635208Y-84497792D01*
X67648876Y-84514447D01*
X67659029Y-84533443D01*
X67665284Y-84554062D01*
X67668000Y-84581640D01*
X67668000Y-85090360D01*
X67665284Y-85117938D01*
X67659029Y-85138557D01*
X67648876Y-85157553D01*
X67635208Y-85174208D01*
X67618553Y-85187876D01*
X67599557Y-85198029D01*
X67578938Y-85204284D01*
X67551360Y-85207000D01*
X67092640Y-85207000D01*
X67065062Y-85204284D01*
X67044443Y-85198029D01*
X67025447Y-85187876D01*
X67008792Y-85174208D01*
X66995124Y-85157553D01*
X66984971Y-85138557D01*
X66978716Y-85117938D01*
X66976000Y-85090360D01*
X66976000Y-84581640D01*
X66978716Y-84554062D01*
X66984971Y-84533443D01*
X66995124Y-84514447D01*
X67008792Y-84497792D01*
X67025447Y-84484124D01*
X67044443Y-84473971D01*
X67065062Y-84467716D01*
X67092640Y-84465000D01*
X67551360Y-84465000D01*
X67578938Y-84467716D01*
G37*
G36*
X75710438Y-83352116D02*
G01*
X75731057Y-83358371D01*
X75750053Y-83368524D01*
X75766708Y-83382192D01*
X75780376Y-83398847D01*
X75790529Y-83417843D01*
X75796784Y-83438462D01*
X75799500Y-83466040D01*
X75799500Y-83924760D01*
X75796784Y-83952338D01*
X75790529Y-83972957D01*
X75780376Y-83991953D01*
X75766708Y-84008608D01*
X75750053Y-84022276D01*
X75731057Y-84032429D01*
X75710438Y-84038684D01*
X75682860Y-84041400D01*
X75174140Y-84041400D01*
X75146562Y-84038684D01*
X75125943Y-84032429D01*
X75106947Y-84022276D01*
X75090292Y-84008608D01*
X75076624Y-83991953D01*
X75066471Y-83972957D01*
X75060216Y-83952338D01*
X75057500Y-83924760D01*
X75057500Y-83466040D01*
X75060216Y-83438462D01*
X75066471Y-83417843D01*
X75076624Y-83398847D01*
X75090292Y-83382192D01*
X75106947Y-83368524D01*
X75125943Y-83358371D01*
X75146562Y-83352116D01*
X75174140Y-83349400D01*
X75682860Y-83349400D01*
X75710438Y-83352116D01*
G37*
G36*
X65825000Y-83741500D02*
G01*
X64223000Y-83741500D01*
X64223000Y-81639500D01*
X65825000Y-81639500D01*
X65825000Y-83741500D01*
G37*
G36*
X68125000Y-83741500D02*
G01*
X66523000Y-83741500D01*
X66523000Y-81639500D01*
X68125000Y-81639500D01*
X68125000Y-83741500D01*
G37*
G36*
X63525000Y-83741500D02*
G01*
X61923000Y-83741500D01*
X61923000Y-81639500D01*
X63525000Y-81639500D01*
X63525000Y-83741500D01*
G37*
G36*
X72562500Y-83115400D02*
G01*
X71260500Y-83115400D01*
X71260500Y-81613400D01*
X72562500Y-81613400D01*
X72562500Y-83115400D01*
G37*
G36*
X74262500Y-83115400D02*
G01*
X72960500Y-83115400D01*
X72960500Y-81613400D01*
X74262500Y-81613400D01*
X74262500Y-83115400D01*
G37*
G36*
X75710438Y-82382116D02*
G01*
X75731057Y-82388371D01*
X75750053Y-82398524D01*
X75766708Y-82412192D01*
X75780376Y-82428847D01*
X75790529Y-82447843D01*
X75796784Y-82468462D01*
X75799500Y-82496040D01*
X75799500Y-82954760D01*
X75796784Y-82982338D01*
X75790529Y-83002957D01*
X75780376Y-83021953D01*
X75766708Y-83038608D01*
X75750053Y-83052276D01*
X75731057Y-83062429D01*
X75710438Y-83068684D01*
X75682860Y-83071400D01*
X75174140Y-83071400D01*
X75146562Y-83068684D01*
X75125943Y-83062429D01*
X75106947Y-83052276D01*
X75090292Y-83038608D01*
X75076624Y-83021953D01*
X75066471Y-83002957D01*
X75060216Y-82982338D01*
X75057500Y-82954760D01*
X75057500Y-82496040D01*
X75060216Y-82468462D01*
X75066471Y-82447843D01*
X75076624Y-82428847D01*
X75090292Y-82412192D01*
X75106947Y-82398524D01*
X75125943Y-82388371D01*
X75146562Y-82382116D01*
X75174140Y-82379400D01*
X75682860Y-82379400D01*
X75710438Y-82382116D01*
G37*
G36*
X104887400Y-82999400D02*
G01*
X101635400Y-82999400D01*
X101635400Y-81897400D01*
X104887400Y-81897400D01*
X104887400Y-82999400D01*
G37*
G36*
X99837400Y-82999400D02*
G01*
X96585400Y-82999400D01*
X96585400Y-81897400D01*
X99837400Y-81897400D01*
X99837400Y-82999400D01*
G37*
G36*
X73541938Y-80431716D02*
G01*
X73562557Y-80437971D01*
X73581553Y-80448124D01*
X73598208Y-80461792D01*
X73611876Y-80478447D01*
X73622029Y-80497443D01*
X73628284Y-80518062D01*
X73631000Y-80545640D01*
X73631000Y-81054360D01*
X73628284Y-81081938D01*
X73622029Y-81102557D01*
X73611876Y-81121553D01*
X73598208Y-81138208D01*
X73581553Y-81151876D01*
X73562557Y-81162029D01*
X73541938Y-81168284D01*
X73514360Y-81171000D01*
X73055640Y-81171000D01*
X73028062Y-81168284D01*
X73007443Y-81162029D01*
X72988447Y-81151876D01*
X72971792Y-81138208D01*
X72958124Y-81121553D01*
X72947971Y-81102557D01*
X72941716Y-81081938D01*
X72939000Y-81054360D01*
X72939000Y-80545640D01*
X72941716Y-80518062D01*
X72947971Y-80497443D01*
X72958124Y-80478447D01*
X72971792Y-80461792D01*
X72988447Y-80448124D01*
X73007443Y-80437971D01*
X73028062Y-80431716D01*
X73055640Y-80429000D01*
X73514360Y-80429000D01*
X73541938Y-80431716D01*
G37*
G36*
X72571938Y-80431716D02*
G01*
X72592557Y-80437971D01*
X72611553Y-80448124D01*
X72628208Y-80461792D01*
X72641876Y-80478447D01*
X72652029Y-80497443D01*
X72658284Y-80518062D01*
X72661000Y-80545640D01*
X72661000Y-81054360D01*
X72658284Y-81081938D01*
X72652029Y-81102557D01*
X72641876Y-81121553D01*
X72628208Y-81138208D01*
X72611553Y-81151876D01*
X72592557Y-81162029D01*
X72571938Y-81168284D01*
X72544360Y-81171000D01*
X72085640Y-81171000D01*
X72058062Y-81168284D01*
X72037443Y-81162029D01*
X72018447Y-81151876D01*
X72001792Y-81138208D01*
X71988124Y-81121553D01*
X71977971Y-81102557D01*
X71971716Y-81081938D01*
X71969000Y-81054360D01*
X71969000Y-80545640D01*
X71971716Y-80518062D01*
X71977971Y-80497443D01*
X71988124Y-80478447D01*
X72001792Y-80461792D01*
X72018447Y-80448124D01*
X72037443Y-80437971D01*
X72058062Y-80431716D01*
X72085640Y-80429000D01*
X72544360Y-80429000D01*
X72571938Y-80431716D01*
G37*
G36*
X104887400Y-80459400D02*
G01*
X101635400Y-80459400D01*
X101635400Y-79357400D01*
X104887400Y-79357400D01*
X104887400Y-80459400D01*
G37*
G36*
X99837400Y-80459400D02*
G01*
X96585400Y-80459400D01*
X96585400Y-79357400D01*
X99837400Y-79357400D01*
X99837400Y-80459400D01*
G37*
G36*
X90854591Y-78978085D02*
G01*
X90888569Y-78988393D01*
X90919890Y-79005134D01*
X90947339Y-79027661D01*
X90969866Y-79055110D01*
X90986607Y-79086431D01*
X90996915Y-79120409D01*
X91001000Y-79161890D01*
X91001000Y-79838110D01*
X90996915Y-79879591D01*
X90986607Y-79913569D01*
X90969866Y-79944890D01*
X90947339Y-79972339D01*
X90919890Y-79994866D01*
X90888569Y-80011607D01*
X90854591Y-80021915D01*
X90813110Y-80026000D01*
X90211890Y-80026000D01*
X90170409Y-80021915D01*
X90136431Y-80011607D01*
X90105110Y-79994866D01*
X90077661Y-79972339D01*
X90055134Y-79944890D01*
X90038393Y-79913569D01*
X90028085Y-79879591D01*
X90024000Y-79838110D01*
X90024000Y-79161890D01*
X90028085Y-79120409D01*
X90038393Y-79086431D01*
X90055134Y-79055110D01*
X90077661Y-79027661D01*
X90105110Y-79005134D01*
X90136431Y-78988393D01*
X90170409Y-78978085D01*
X90211890Y-78974000D01*
X90813110Y-78974000D01*
X90854591Y-78978085D01*
G37*
G36*
X92429591Y-78978085D02*
G01*
X92463569Y-78988393D01*
X92494890Y-79005134D01*
X92522339Y-79027661D01*
X92544866Y-79055110D01*
X92561607Y-79086431D01*
X92571915Y-79120409D01*
X92576000Y-79161890D01*
X92576000Y-79838110D01*
X92571915Y-79879591D01*
X92561607Y-79913569D01*
X92544866Y-79944890D01*
X92522339Y-79972339D01*
X92494890Y-79994866D01*
X92463569Y-80011607D01*
X92429591Y-80021915D01*
X92388110Y-80026000D01*
X91786890Y-80026000D01*
X91745409Y-80021915D01*
X91711431Y-80011607D01*
X91680110Y-79994866D01*
X91652661Y-79972339D01*
X91630134Y-79944890D01*
X91613393Y-79913569D01*
X91603085Y-79879591D01*
X91599000Y-79838110D01*
X91599000Y-79161890D01*
X91603085Y-79120409D01*
X91613393Y-79086431D01*
X91630134Y-79055110D01*
X91652661Y-79027661D01*
X91680110Y-79005134D01*
X91711431Y-78988393D01*
X91745409Y-78978085D01*
X91786890Y-78974000D01*
X92388110Y-78974000D01*
X92429591Y-78978085D01*
G37*
G36*
X76974968Y-77136965D02*
G01*
X77013638Y-77148696D01*
X77049277Y-77167746D01*
X77080517Y-77193383D01*
X77106154Y-77224623D01*
X77125204Y-77260262D01*
X77136935Y-77298932D01*
X77141500Y-77345288D01*
X77141500Y-77996512D01*
X77136935Y-78042868D01*
X77125204Y-78081538D01*
X77106154Y-78117177D01*
X77080517Y-78148417D01*
X77049277Y-78174054D01*
X77013638Y-78193104D01*
X76974968Y-78204835D01*
X76928612Y-78209400D01*
X75852388Y-78209400D01*
X75806032Y-78204835D01*
X75767362Y-78193104D01*
X75731723Y-78174054D01*
X75700483Y-78148417D01*
X75674846Y-78117177D01*
X75655796Y-78081538D01*
X75644065Y-78042868D01*
X75639500Y-77996512D01*
X75639500Y-77345288D01*
X75644065Y-77298932D01*
X75655796Y-77260262D01*
X75674846Y-77224623D01*
X75700483Y-77193383D01*
X75731723Y-77167746D01*
X75767362Y-77148696D01*
X75806032Y-77136965D01*
X75852388Y-77132400D01*
X76928612Y-77132400D01*
X76974968Y-77136965D01*
G37*
G36*
X79287795Y-76393223D02*
G01*
X79294809Y-76395351D01*
X79308577Y-76402710D01*
X79331216Y-76412087D01*
X79355249Y-76416867D01*
X79379753Y-76416867D01*
X79403786Y-76412086D01*
X79426423Y-76402710D01*
X79440191Y-76395351D01*
X79447205Y-76393223D01*
X79460640Y-76391900D01*
X79774360Y-76391900D01*
X79787795Y-76393223D01*
X79794809Y-76395351D01*
X79808577Y-76402710D01*
X79831216Y-76412087D01*
X79855249Y-76416867D01*
X79879753Y-76416867D01*
X79903786Y-76412086D01*
X79926423Y-76402710D01*
X79940191Y-76395351D01*
X79947205Y-76393223D01*
X79960640Y-76391900D01*
X80274360Y-76391900D01*
X80287795Y-76393223D01*
X80294809Y-76395351D01*
X80308577Y-76402710D01*
X80331216Y-76412087D01*
X80355249Y-76416867D01*
X80379753Y-76416867D01*
X80403786Y-76412086D01*
X80426423Y-76402710D01*
X80440191Y-76395351D01*
X80447205Y-76393223D01*
X80460640Y-76391900D01*
X80774360Y-76391900D01*
X80787795Y-76393223D01*
X80794809Y-76395351D01*
X80808577Y-76402710D01*
X80831216Y-76412087D01*
X80855249Y-76416867D01*
X80879753Y-76416867D01*
X80903786Y-76412086D01*
X80926423Y-76402710D01*
X80940191Y-76395351D01*
X80947205Y-76393223D01*
X80960640Y-76391900D01*
X81274360Y-76391900D01*
X81287795Y-76393223D01*
X81294809Y-76395351D01*
X81308577Y-76402710D01*
X81331216Y-76412087D01*
X81355249Y-76416867D01*
X81379753Y-76416867D01*
X81403786Y-76412086D01*
X81426423Y-76402710D01*
X81440191Y-76395351D01*
X81447205Y-76393223D01*
X81460640Y-76391900D01*
X81774360Y-76391900D01*
X81787795Y-76393223D01*
X81794809Y-76395351D01*
X81808577Y-76402710D01*
X81831216Y-76412087D01*
X81855249Y-76416867D01*
X81879753Y-76416867D01*
X81903786Y-76412086D01*
X81926423Y-76402710D01*
X81940191Y-76395351D01*
X81947205Y-76393223D01*
X81960640Y-76391900D01*
X82274360Y-76391900D01*
X82287795Y-76393223D01*
X82294809Y-76395351D01*
X82308577Y-76402710D01*
X82331216Y-76412087D01*
X82355249Y-76416867D01*
X82379753Y-76416867D01*
X82403786Y-76412086D01*
X82426423Y-76402710D01*
X82440191Y-76395351D01*
X82447205Y-76393223D01*
X82460640Y-76391900D01*
X82774360Y-76391900D01*
X82787795Y-76393223D01*
X82794809Y-76395351D01*
X82808577Y-76402710D01*
X82831216Y-76412087D01*
X82855249Y-76416867D01*
X82879753Y-76416867D01*
X82903786Y-76412086D01*
X82926423Y-76402710D01*
X82940191Y-76395351D01*
X82947205Y-76393223D01*
X82960640Y-76391900D01*
X83274360Y-76391900D01*
X83287795Y-76393223D01*
X83294809Y-76395351D01*
X83308577Y-76402710D01*
X83331216Y-76412087D01*
X83355249Y-76416867D01*
X83379753Y-76416867D01*
X83403786Y-76412086D01*
X83426423Y-76402710D01*
X83440191Y-76395351D01*
X83447205Y-76393223D01*
X83460640Y-76391900D01*
X83774360Y-76391900D01*
X83787795Y-76393223D01*
X83794809Y-76395351D01*
X83808577Y-76402710D01*
X83831216Y-76412087D01*
X83855249Y-76416867D01*
X83879753Y-76416867D01*
X83903786Y-76412086D01*
X83926423Y-76402710D01*
X83940191Y-76395351D01*
X83947205Y-76393223D01*
X83960640Y-76391900D01*
X84274360Y-76391900D01*
X84287795Y-76393223D01*
X84294809Y-76395351D01*
X84308577Y-76402710D01*
X84331216Y-76412087D01*
X84355249Y-76416867D01*
X84379753Y-76416867D01*
X84403786Y-76412086D01*
X84426423Y-76402710D01*
X84440191Y-76395351D01*
X84447205Y-76393223D01*
X84460640Y-76391900D01*
X84774360Y-76391900D01*
X84787795Y-76393223D01*
X84794809Y-76395351D01*
X84808577Y-76402710D01*
X84831216Y-76412087D01*
X84855249Y-76416867D01*
X84879753Y-76416867D01*
X84903786Y-76412086D01*
X84926423Y-76402710D01*
X84940191Y-76395351D01*
X84947205Y-76393223D01*
X84960640Y-76391900D01*
X85274360Y-76391900D01*
X85287795Y-76393223D01*
X85294809Y-76395351D01*
X85308577Y-76402710D01*
X85331216Y-76412087D01*
X85355249Y-76416867D01*
X85379753Y-76416867D01*
X85403786Y-76412086D01*
X85426423Y-76402710D01*
X85440191Y-76395351D01*
X85447205Y-76393223D01*
X85460640Y-76391900D01*
X85774360Y-76391900D01*
X85787795Y-76393223D01*
X85794809Y-76395351D01*
X85808577Y-76402710D01*
X85831216Y-76412087D01*
X85855249Y-76416867D01*
X85879753Y-76416867D01*
X85903786Y-76412086D01*
X85926423Y-76402710D01*
X85940191Y-76395351D01*
X85947205Y-76393223D01*
X85960640Y-76391900D01*
X86274360Y-76391900D01*
X86287795Y-76393223D01*
X86294809Y-76395351D01*
X86308577Y-76402710D01*
X86331216Y-76412087D01*
X86355249Y-76416867D01*
X86379753Y-76416867D01*
X86403786Y-76412086D01*
X86426423Y-76402710D01*
X86440191Y-76395351D01*
X86447205Y-76393223D01*
X86460640Y-76391900D01*
X86774360Y-76391900D01*
X86787795Y-76393223D01*
X86794810Y-76395351D01*
X86801276Y-76398808D01*
X86806942Y-76403458D01*
X86811592Y-76409124D01*
X86815049Y-76415590D01*
X86817177Y-76422605D01*
X86818500Y-76436040D01*
X86818500Y-77999760D01*
X86817177Y-78013195D01*
X86815049Y-78020210D01*
X86811592Y-78026676D01*
X86806942Y-78032342D01*
X86801276Y-78036992D01*
X86794810Y-78040449D01*
X86787795Y-78042577D01*
X86774360Y-78043900D01*
X86460640Y-78043900D01*
X86447205Y-78042577D01*
X86440191Y-78040449D01*
X86426423Y-78033090D01*
X86403784Y-78023713D01*
X86379751Y-78018933D01*
X86355247Y-78018933D01*
X86331214Y-78023714D01*
X86308577Y-78033090D01*
X86294809Y-78040449D01*
X86287795Y-78042577D01*
X86274360Y-78043900D01*
X85960640Y-78043900D01*
X85947205Y-78042577D01*
X85940191Y-78040449D01*
X85926423Y-78033090D01*
X85903784Y-78023713D01*
X85879751Y-78018933D01*
X85855247Y-78018933D01*
X85831214Y-78023714D01*
X85808577Y-78033090D01*
X85794809Y-78040449D01*
X85787795Y-78042577D01*
X85774360Y-78043900D01*
X85460640Y-78043900D01*
X85447205Y-78042577D01*
X85440191Y-78040449D01*
X85426423Y-78033090D01*
X85403784Y-78023713D01*
X85379751Y-78018933D01*
X85355247Y-78018933D01*
X85331214Y-78023714D01*
X85308577Y-78033090D01*
X85294809Y-78040449D01*
X85287795Y-78042577D01*
X85274360Y-78043900D01*
X84960640Y-78043900D01*
X84947205Y-78042577D01*
X84940191Y-78040449D01*
X84926423Y-78033090D01*
X84903784Y-78023713D01*
X84879751Y-78018933D01*
X84855247Y-78018933D01*
X84831214Y-78023714D01*
X84808577Y-78033090D01*
X84794809Y-78040449D01*
X84787795Y-78042577D01*
X84774360Y-78043900D01*
X84460640Y-78043900D01*
X84447205Y-78042577D01*
X84440191Y-78040449D01*
X84426423Y-78033090D01*
X84403784Y-78023713D01*
X84379751Y-78018933D01*
X84355247Y-78018933D01*
X84331214Y-78023714D01*
X84308577Y-78033090D01*
X84294809Y-78040449D01*
X84287795Y-78042577D01*
X84274360Y-78043900D01*
X83960640Y-78043900D01*
X83947205Y-78042577D01*
X83940191Y-78040449D01*
X83926423Y-78033090D01*
X83903784Y-78023713D01*
X83879751Y-78018933D01*
X83855247Y-78018933D01*
X83831214Y-78023714D01*
X83808577Y-78033090D01*
X83794809Y-78040449D01*
X83787795Y-78042577D01*
X83774360Y-78043900D01*
X83460640Y-78043900D01*
X83447205Y-78042577D01*
X83440191Y-78040449D01*
X83426423Y-78033090D01*
X83403784Y-78023713D01*
X83379751Y-78018933D01*
X83355247Y-78018933D01*
X83331214Y-78023714D01*
X83308577Y-78033090D01*
X83294809Y-78040449D01*
X83287795Y-78042577D01*
X83274360Y-78043900D01*
X82960640Y-78043900D01*
X82947205Y-78042577D01*
X82940191Y-78040449D01*
X82926423Y-78033090D01*
X82903784Y-78023713D01*
X82879751Y-78018933D01*
X82855247Y-78018933D01*
X82831214Y-78023714D01*
X82808577Y-78033090D01*
X82794809Y-78040449D01*
X82787795Y-78042577D01*
X82774360Y-78043900D01*
X82460640Y-78043900D01*
X82447205Y-78042577D01*
X82440191Y-78040449D01*
X82426423Y-78033090D01*
X82403784Y-78023713D01*
X82379751Y-78018933D01*
X82355247Y-78018933D01*
X82331214Y-78023714D01*
X82308577Y-78033090D01*
X82294809Y-78040449D01*
X82287795Y-78042577D01*
X82274360Y-78043900D01*
X81960640Y-78043900D01*
X81947205Y-78042577D01*
X81940191Y-78040449D01*
X81926423Y-78033090D01*
X81903784Y-78023713D01*
X81879751Y-78018933D01*
X81855247Y-78018933D01*
X81831214Y-78023714D01*
X81808577Y-78033090D01*
X81794809Y-78040449D01*
X81787795Y-78042577D01*
X81774360Y-78043900D01*
X81460640Y-78043900D01*
X81447205Y-78042577D01*
X81440191Y-78040449D01*
X81426423Y-78033090D01*
X81403784Y-78023713D01*
X81379751Y-78018933D01*
X81355247Y-78018933D01*
X81331214Y-78023714D01*
X81308577Y-78033090D01*
X81294809Y-78040449D01*
X81287795Y-78042577D01*
X81274360Y-78043900D01*
X80960640Y-78043900D01*
X80947205Y-78042577D01*
X80940191Y-78040449D01*
X80926423Y-78033090D01*
X80903784Y-78023713D01*
X80879751Y-78018933D01*
X80855247Y-78018933D01*
X80831214Y-78023714D01*
X80808577Y-78033090D01*
X80794809Y-78040449D01*
X80787795Y-78042577D01*
X80774360Y-78043900D01*
X80460640Y-78043900D01*
X80447205Y-78042577D01*
X80440191Y-78040449D01*
X80426423Y-78033090D01*
X80403784Y-78023713D01*
X80379751Y-78018933D01*
X80355247Y-78018933D01*
X80331214Y-78023714D01*
X80308577Y-78033090D01*
X80294809Y-78040449D01*
X80287795Y-78042577D01*
X80274360Y-78043900D01*
X79960640Y-78043900D01*
X79947205Y-78042577D01*
X79940191Y-78040449D01*
X79926423Y-78033090D01*
X79903784Y-78023713D01*
X79879751Y-78018933D01*
X79855247Y-78018933D01*
X79831214Y-78023714D01*
X79808577Y-78033090D01*
X79794809Y-78040449D01*
X79787795Y-78042577D01*
X79774360Y-78043900D01*
X79460640Y-78043900D01*
X79447205Y-78042577D01*
X79440191Y-78040449D01*
X79426423Y-78033090D01*
X79403784Y-78023713D01*
X79379751Y-78018933D01*
X79355247Y-78018933D01*
X79331214Y-78023714D01*
X79308577Y-78033090D01*
X79294809Y-78040449D01*
X79287795Y-78042577D01*
X79274360Y-78043900D01*
X78960640Y-78043900D01*
X78947205Y-78042577D01*
X78940190Y-78040449D01*
X78933724Y-78036992D01*
X78928058Y-78032342D01*
X78923408Y-78026676D01*
X78919951Y-78020210D01*
X78917823Y-78013195D01*
X78916500Y-77999760D01*
X78916500Y-76436040D01*
X78917823Y-76422605D01*
X78919951Y-76415590D01*
X78923408Y-76409124D01*
X78928058Y-76403458D01*
X78933724Y-76398808D01*
X78940190Y-76395351D01*
X78947205Y-76393223D01*
X78960640Y-76391900D01*
X79274360Y-76391900D01*
X79287795Y-76393223D01*
G37*
G36*
X104887400Y-77919400D02*
G01*
X101635400Y-77919400D01*
X101635400Y-76817400D01*
X104887400Y-76817400D01*
X104887400Y-77919400D01*
G37*
G36*
X99837400Y-77919400D02*
G01*
X96585400Y-77919400D01*
X96585400Y-76817400D01*
X99837400Y-76817400D01*
X99837400Y-77919400D01*
G37*
G36*
X66975000Y-77441500D02*
G01*
X63073000Y-77441500D01*
X63073000Y-75339500D01*
X66975000Y-75339500D01*
X66975000Y-77441500D01*
G37*
G36*
X76974968Y-75261965D02*
G01*
X77013638Y-75273696D01*
X77049277Y-75292746D01*
X77080517Y-75318383D01*
X77106154Y-75349623D01*
X77125204Y-75385262D01*
X77136935Y-75423932D01*
X77141500Y-75470288D01*
X77141500Y-76121512D01*
X77136935Y-76167868D01*
X77125204Y-76206538D01*
X77106154Y-76242177D01*
X77080517Y-76273417D01*
X77049277Y-76299054D01*
X77013638Y-76318104D01*
X76974968Y-76329835D01*
X76928612Y-76334400D01*
X75852388Y-76334400D01*
X75806032Y-76329835D01*
X75767362Y-76318104D01*
X75731723Y-76299054D01*
X75700483Y-76273417D01*
X75674846Y-76242177D01*
X75655796Y-76206538D01*
X75644065Y-76167868D01*
X75639500Y-76121512D01*
X75639500Y-75470288D01*
X75644065Y-75423932D01*
X75655796Y-75385262D01*
X75674846Y-75349623D01*
X75700483Y-75318383D01*
X75731723Y-75292746D01*
X75767362Y-75273696D01*
X75806032Y-75261965D01*
X75852388Y-75257400D01*
X76928612Y-75257400D01*
X76974968Y-75261965D01*
G37*
G36*
X79971938Y-75095116D02*
G01*
X79992557Y-75101371D01*
X80011553Y-75111524D01*
X80028208Y-75125192D01*
X80041876Y-75141847D01*
X80052029Y-75160843D01*
X80058284Y-75181462D01*
X80061000Y-75209040D01*
X80061000Y-75717760D01*
X80058284Y-75745338D01*
X80052029Y-75765957D01*
X80041876Y-75784953D01*
X80028208Y-75801608D01*
X80011553Y-75815276D01*
X79992557Y-75825429D01*
X79971938Y-75831684D01*
X79944360Y-75834400D01*
X79485640Y-75834400D01*
X79458062Y-75831684D01*
X79437443Y-75825429D01*
X79418447Y-75815276D01*
X79401792Y-75801608D01*
X79388124Y-75784953D01*
X79377971Y-75765957D01*
X79371716Y-75745338D01*
X79369000Y-75717760D01*
X79369000Y-75209040D01*
X79371716Y-75181462D01*
X79377971Y-75160843D01*
X79388124Y-75141847D01*
X79401792Y-75125192D01*
X79418447Y-75111524D01*
X79437443Y-75101371D01*
X79458062Y-75095116D01*
X79485640Y-75092400D01*
X79944360Y-75092400D01*
X79971938Y-75095116D01*
G37*
G36*
X80941938Y-75095116D02*
G01*
X80962557Y-75101371D01*
X80981553Y-75111524D01*
X80998208Y-75125192D01*
X81011876Y-75141847D01*
X81022029Y-75160843D01*
X81028284Y-75181462D01*
X81031000Y-75209040D01*
X81031000Y-75717760D01*
X81028284Y-75745338D01*
X81022029Y-75765957D01*
X81011876Y-75784953D01*
X80998208Y-75801608D01*
X80981553Y-75815276D01*
X80962557Y-75825429D01*
X80941938Y-75831684D01*
X80914360Y-75834400D01*
X80455640Y-75834400D01*
X80428062Y-75831684D01*
X80407443Y-75825429D01*
X80388447Y-75815276D01*
X80371792Y-75801608D01*
X80358124Y-75784953D01*
X80347971Y-75765957D01*
X80341716Y-75745338D01*
X80339000Y-75717760D01*
X80339000Y-75209040D01*
X80341716Y-75181462D01*
X80347971Y-75160843D01*
X80358124Y-75141847D01*
X80371792Y-75125192D01*
X80388447Y-75111524D01*
X80407443Y-75101371D01*
X80428062Y-75095116D01*
X80455640Y-75092400D01*
X80914360Y-75092400D01*
X80941938Y-75095116D01*
G37*
G36*
X99837400Y-75379400D02*
G01*
X96585400Y-75379400D01*
X96585400Y-74277400D01*
X99837400Y-74277400D01*
X99837400Y-75379400D01*
G37*
G36*
X104887400Y-75379400D02*
G01*
X101635400Y-75379400D01*
X101635400Y-74277400D01*
X104887400Y-74277400D01*
X104887400Y-75379400D01*
G37*
G36*
X83741938Y-74531716D02*
G01*
X83762557Y-74537971D01*
X83781553Y-74548124D01*
X83798208Y-74561792D01*
X83811876Y-74578447D01*
X83822029Y-74597443D01*
X83828284Y-74618062D01*
X83831000Y-74645640D01*
X83831000Y-75154360D01*
X83828284Y-75181938D01*
X83822029Y-75202557D01*
X83811876Y-75221553D01*
X83798208Y-75238208D01*
X83781553Y-75251876D01*
X83762557Y-75262029D01*
X83741938Y-75268284D01*
X83714360Y-75271000D01*
X83255640Y-75271000D01*
X83228062Y-75268284D01*
X83207443Y-75262029D01*
X83188447Y-75251876D01*
X83171792Y-75238208D01*
X83158124Y-75221553D01*
X83147971Y-75202557D01*
X83141716Y-75181938D01*
X83139000Y-75154360D01*
X83139000Y-74645640D01*
X83141716Y-74618062D01*
X83147971Y-74597443D01*
X83158124Y-74578447D01*
X83171792Y-74561792D01*
X83188447Y-74548124D01*
X83207443Y-74537971D01*
X83228062Y-74531716D01*
X83255640Y-74529000D01*
X83714360Y-74529000D01*
X83741938Y-74531716D01*
G37*
G36*
X82771938Y-74531716D02*
G01*
X82792557Y-74537971D01*
X82811553Y-74548124D01*
X82828208Y-74561792D01*
X82841876Y-74578447D01*
X82852029Y-74597443D01*
X82858284Y-74618062D01*
X82861000Y-74645640D01*
X82861000Y-75154360D01*
X82858284Y-75181938D01*
X82852029Y-75202557D01*
X82841876Y-75221553D01*
X82828208Y-75238208D01*
X82811553Y-75251876D01*
X82792557Y-75262029D01*
X82771938Y-75268284D01*
X82744360Y-75271000D01*
X82285640Y-75271000D01*
X82258062Y-75268284D01*
X82237443Y-75262029D01*
X82218447Y-75251876D01*
X82201792Y-75238208D01*
X82188124Y-75221553D01*
X82177971Y-75202557D01*
X82171716Y-75181938D01*
X82169000Y-75154360D01*
X82169000Y-74645640D01*
X82171716Y-74618062D01*
X82177971Y-74597443D01*
X82188124Y-74578447D01*
X82201792Y-74561792D01*
X82218447Y-74548124D01*
X82237443Y-74537971D01*
X82258062Y-74531716D01*
X82285640Y-74529000D01*
X82744360Y-74529000D01*
X82771938Y-74531716D01*
G37*
G36*
X79971938Y-73931716D02*
G01*
X79992557Y-73937971D01*
X80011553Y-73948124D01*
X80028208Y-73961792D01*
X80041876Y-73978447D01*
X80052029Y-73997443D01*
X80058284Y-74018062D01*
X80061000Y-74045640D01*
X80061000Y-74554360D01*
X80058284Y-74581938D01*
X80052029Y-74602557D01*
X80041876Y-74621553D01*
X80028208Y-74638208D01*
X80011553Y-74651876D01*
X79992557Y-74662029D01*
X79971938Y-74668284D01*
X79944360Y-74671000D01*
X79485640Y-74671000D01*
X79458062Y-74668284D01*
X79437443Y-74662029D01*
X79418447Y-74651876D01*
X79401792Y-74638208D01*
X79388124Y-74621553D01*
X79377971Y-74602557D01*
X79371716Y-74581938D01*
X79369000Y-74554360D01*
X79369000Y-74045640D01*
X79371716Y-74018062D01*
X79377971Y-73997443D01*
X79388124Y-73978447D01*
X79401792Y-73961792D01*
X79418447Y-73948124D01*
X79437443Y-73937971D01*
X79458062Y-73931716D01*
X79485640Y-73929000D01*
X79944360Y-73929000D01*
X79971938Y-73931716D01*
G37*
G36*
X80941938Y-73931716D02*
G01*
X80962557Y-73937971D01*
X80981553Y-73948124D01*
X80998208Y-73961792D01*
X81011876Y-73978447D01*
X81022029Y-73997443D01*
X81028284Y-74018062D01*
X81031000Y-74045640D01*
X81031000Y-74554360D01*
X81028284Y-74581938D01*
X81022029Y-74602557D01*
X81011876Y-74621553D01*
X80998208Y-74638208D01*
X80981553Y-74651876D01*
X80962557Y-74662029D01*
X80941938Y-74668284D01*
X80914360Y-74671000D01*
X80455640Y-74671000D01*
X80428062Y-74668284D01*
X80407443Y-74662029D01*
X80388447Y-74651876D01*
X80371792Y-74638208D01*
X80358124Y-74621553D01*
X80347971Y-74602557D01*
X80341716Y-74581938D01*
X80339000Y-74554360D01*
X80339000Y-74045640D01*
X80341716Y-74018062D01*
X80347971Y-73997443D01*
X80358124Y-73978447D01*
X80371792Y-73961792D01*
X80388447Y-73948124D01*
X80407443Y-73937971D01*
X80428062Y-73931716D01*
X80455640Y-73929000D01*
X80914360Y-73929000D01*
X80941938Y-73931716D01*
G37*
G36*
X76121438Y-73795116D02*
G01*
X76142057Y-73801371D01*
X76161053Y-73811524D01*
X76177708Y-73825192D01*
X76191376Y-73841847D01*
X76201529Y-73860843D01*
X76207784Y-73881462D01*
X76210500Y-73909040D01*
X76210500Y-74417760D01*
X76207784Y-74445338D01*
X76201529Y-74465957D01*
X76191376Y-74484953D01*
X76177708Y-74501608D01*
X76161053Y-74515276D01*
X76142057Y-74525429D01*
X76121438Y-74531684D01*
X76093860Y-74534400D01*
X75635140Y-74534400D01*
X75607562Y-74531684D01*
X75586943Y-74525429D01*
X75567947Y-74515276D01*
X75551292Y-74501608D01*
X75537624Y-74484953D01*
X75527471Y-74465957D01*
X75521216Y-74445338D01*
X75518500Y-74417760D01*
X75518500Y-73909040D01*
X75521216Y-73881462D01*
X75527471Y-73860843D01*
X75537624Y-73841847D01*
X75551292Y-73825192D01*
X75567947Y-73811524D01*
X75586943Y-73801371D01*
X75607562Y-73795116D01*
X75635140Y-73792400D01*
X76093860Y-73792400D01*
X76121438Y-73795116D01*
G37*
G36*
X77091438Y-73795116D02*
G01*
X77112057Y-73801371D01*
X77131053Y-73811524D01*
X77147708Y-73825192D01*
X77161376Y-73841847D01*
X77171529Y-73860843D01*
X77177784Y-73881462D01*
X77180500Y-73909040D01*
X77180500Y-74417760D01*
X77177784Y-74445338D01*
X77171529Y-74465957D01*
X77161376Y-74484953D01*
X77147708Y-74501608D01*
X77131053Y-74515276D01*
X77112057Y-74525429D01*
X77091438Y-74531684D01*
X77063860Y-74534400D01*
X76605140Y-74534400D01*
X76577562Y-74531684D01*
X76556943Y-74525429D01*
X76537947Y-74515276D01*
X76521292Y-74501608D01*
X76507624Y-74484953D01*
X76497471Y-74465957D01*
X76491216Y-74445338D01*
X76488500Y-74417760D01*
X76488500Y-73909040D01*
X76491216Y-73881462D01*
X76497471Y-73860843D01*
X76507624Y-73841847D01*
X76521292Y-73825192D01*
X76537947Y-73811524D01*
X76556943Y-73801371D01*
X76577562Y-73795116D01*
X76605140Y-73792400D01*
X77063860Y-73792400D01*
X77091438Y-73795116D01*
G37*
G36*
X77091438Y-72588616D02*
G01*
X77112057Y-72594871D01*
X77131053Y-72605024D01*
X77147708Y-72618692D01*
X77161376Y-72635347D01*
X77171529Y-72654343D01*
X77177784Y-72674962D01*
X77180500Y-72702540D01*
X77180500Y-73211260D01*
X77177784Y-73238838D01*
X77171529Y-73259457D01*
X77161376Y-73278453D01*
X77147708Y-73295108D01*
X77131053Y-73308776D01*
X77112057Y-73318929D01*
X77091438Y-73325184D01*
X77063860Y-73327900D01*
X76605140Y-73327900D01*
X76577562Y-73325184D01*
X76556943Y-73318929D01*
X76537947Y-73308776D01*
X76521292Y-73295108D01*
X76507624Y-73278453D01*
X76497471Y-73259457D01*
X76491216Y-73238838D01*
X76488500Y-73211260D01*
X76488500Y-72702540D01*
X76491216Y-72674962D01*
X76497471Y-72654343D01*
X76507624Y-72635347D01*
X76521292Y-72618692D01*
X76537947Y-72605024D01*
X76556943Y-72594871D01*
X76577562Y-72588616D01*
X76605140Y-72585900D01*
X77063860Y-72585900D01*
X77091438Y-72588616D01*
G37*
G36*
X76121438Y-72588616D02*
G01*
X76142057Y-72594871D01*
X76161053Y-72605024D01*
X76177708Y-72618692D01*
X76191376Y-72635347D01*
X76201529Y-72654343D01*
X76207784Y-72674962D01*
X76210500Y-72702540D01*
X76210500Y-73211260D01*
X76207784Y-73238838D01*
X76201529Y-73259457D01*
X76191376Y-73278453D01*
X76177708Y-73295108D01*
X76161053Y-73308776D01*
X76142057Y-73318929D01*
X76121438Y-73325184D01*
X76093860Y-73327900D01*
X75635140Y-73327900D01*
X75607562Y-73325184D01*
X75586943Y-73318929D01*
X75567947Y-73308776D01*
X75551292Y-73295108D01*
X75537624Y-73278453D01*
X75527471Y-73259457D01*
X75521216Y-73238838D01*
X75518500Y-73211260D01*
X75518500Y-72702540D01*
X75521216Y-72674962D01*
X75527471Y-72654343D01*
X75537624Y-72635347D01*
X75551292Y-72618692D01*
X75567947Y-72605024D01*
X75586943Y-72594871D01*
X75607562Y-72588616D01*
X75635140Y-72585900D01*
X76093860Y-72585900D01*
X76121438Y-72588616D01*
G37*
G36*
X102097356Y-62169994D02*
G01*
X102818340Y-62313406D01*
X103610172Y-62641393D01*
X104322801Y-63117557D01*
X104928843Y-63723599D01*
X105405007Y-64436228D01*
X105732994Y-65228060D01*
X105900200Y-66068664D01*
X105900200Y-66925736D01*
X105732994Y-67766340D01*
X105405007Y-68558172D01*
X104928843Y-69270801D01*
X104322801Y-69876843D01*
X103610172Y-70353007D01*
X102818340Y-70680994D01*
X102097356Y-70824406D01*
X101977737Y-70848200D01*
X101120663Y-70848200D01*
X101001044Y-70824406D01*
X100280060Y-70680994D01*
X99488228Y-70353007D01*
X98775599Y-69876843D01*
X98169557Y-69270801D01*
X97693393Y-68558172D01*
X97365406Y-67766340D01*
X97198200Y-66925736D01*
X97198200Y-66068664D01*
X97365406Y-65228060D01*
X97693393Y-64436228D01*
X98169557Y-63723599D01*
X98775599Y-63117557D01*
X99488228Y-62641393D01*
X100280060Y-62313406D01*
X101001044Y-62169994D01*
X101120663Y-62146200D01*
X101977737Y-62146200D01*
X102097356Y-62169994D01*
G37*
G36*
X63235356Y-62169994D02*
G01*
X63956340Y-62313406D01*
X64748172Y-62641393D01*
X65460801Y-63117557D01*
X66066843Y-63723599D01*
X66543007Y-64436228D01*
X66870994Y-65228060D01*
X67038200Y-66068664D01*
X67038200Y-66925736D01*
X66870994Y-67766340D01*
X66543007Y-68558172D01*
X66066843Y-69270801D01*
X65460801Y-69876843D01*
X64748172Y-70353007D01*
X63956340Y-70680994D01*
X63235356Y-70824406D01*
X63115737Y-70848200D01*
X62258663Y-70848200D01*
X62139044Y-70824406D01*
X61418060Y-70680994D01*
X60626228Y-70353007D01*
X59913599Y-69876843D01*
X59307557Y-69270801D01*
X58831393Y-68558172D01*
X58503406Y-67766340D01*
X58336200Y-66925736D01*
X58336200Y-66068664D01*
X58503406Y-65228060D01*
X58831393Y-64436228D01*
X59307557Y-63723599D01*
X59913599Y-63117557D01*
X60626228Y-62641393D01*
X61418060Y-62313406D01*
X62139044Y-62169994D01*
X62258663Y-62146200D01*
X63115737Y-62146200D01*
X63235356Y-62169994D01*
G37*
G36*
X81673512Y-62403927D02*
G01*
X81822812Y-62433624D01*
X81986784Y-62501544D01*
X82134354Y-62600147D01*
X82259853Y-62725646D01*
X82358456Y-62873216D01*
X82426376Y-63037188D01*
X82461000Y-63211259D01*
X82461000Y-63388741D01*
X82426376Y-63562812D01*
X82358456Y-63726784D01*
X82259853Y-63874354D01*
X82134354Y-63999853D01*
X81986784Y-64098456D01*
X81822812Y-64166376D01*
X81673512Y-64196073D01*
X81648742Y-64201000D01*
X81471258Y-64201000D01*
X81446488Y-64196073D01*
X81297188Y-64166376D01*
X81133216Y-64098456D01*
X80985646Y-63999853D01*
X80860147Y-63874354D01*
X80761544Y-63726784D01*
X80693624Y-63562812D01*
X80659000Y-63388741D01*
X80659000Y-63211259D01*
X80693624Y-63037188D01*
X80761544Y-62873216D01*
X80860147Y-62725646D01*
X80985646Y-62600147D01*
X81133216Y-62501544D01*
X81297188Y-62433624D01*
X81446488Y-62403927D01*
X81471258Y-62399000D01*
X81648742Y-62399000D01*
X81673512Y-62403927D01*
G37*
G36*
X85001000Y-64201000D02*
G01*
X83199000Y-64201000D01*
X83199000Y-62399000D01*
X85001000Y-62399000D01*
X85001000Y-64201000D01*
G37*
M02*
