M48
; DRILL file {KiCad (5.1.5)-3} date 2020-08-02 2:58:55 AM
; FORMAT={-:-/ absolute / inch / decimal}
; #@! TF.CreationDate,2020-08-02T02:58:55-04:00
; #@! TF.GenerationSoftware,Kicad,Pcbnew,(5.1.5)-3
; #@! TF.FileFunction,Plated,1,4,PTH
FMAT,2
INCH
T1C0.0157
T2C0.0236
T3C0.0315
T4C0.0394
T5C0.1693
%
G90
G05
T1
X2.4646Y-3.4016
X2.4646Y-3.4488
X2.4646Y-3.4921
X2.4646Y-3.5394
X2.685Y-3.3386
X2.685Y-3.3858
X2.685Y-3.4291
X2.685Y-3.4724
X2.685Y-3.5197
X2.7953Y-3.3898
X2.9094Y-3.6181
X2.937Y-3.1811
X3.0276Y-4.122
X3.0669Y-3.5276
X3.0709Y-2.874
X3.0709Y-2.9173
X3.0709Y-3.874
X3.0709Y-3.9134
X3.0866Y-3.0866
X3.1063Y-2.9724
X3.1181Y-3.3307
X3.122Y-3.0945
X3.126Y-4.0315
X3.1378Y-2.8858
X3.1535Y-3.4252
X3.2874Y-2.9094
X3.4094Y-3.4252
X3.4252Y-3.1142
X3.5039Y-3.4803
X3.5354Y-3.6181
X3.5866Y-3.0827
X3.9016Y-2.9961
X3.9567Y-3.1457
T2
X3.868Y-4.0
X3.9052Y-3.9102
X3.9052Y-4.0898
X3.995Y-3.873
X3.995Y-4.127
X4.0848Y-3.9102
X4.0848Y-4.0898
X4.122Y-4.0
X3.871Y-2.618
X3.9082Y-2.5282
X3.9082Y-2.7078
X3.998Y-2.491
X3.998Y-2.745
X4.0878Y-2.5282
X4.0878Y-2.7078
X4.125Y-2.618
X2.341Y-2.618
X2.3782Y-2.5282
X2.3782Y-2.7078
X2.468Y-2.491
X2.468Y-2.745
X2.5578Y-2.5282
X2.5578Y-2.7078
X2.595Y-2.618
X2.3455Y-4.0
X2.3827Y-3.9102
X2.3827Y-4.0898
X2.4725Y-3.873
X2.4725Y-4.127
X2.5623Y-3.9102
X2.5623Y-4.0898
X2.5995Y-4.0
T3
X2.3799Y-2.9803
X2.3799Y-3.0541
X2.3799Y-3.128
X2.3799Y-3.2018
X2.3799Y-3.2756
X2.4449Y-3.0079
X2.4843Y-3.0906
X2.4843Y-3.1654
X2.6339Y-3.0906
X2.6339Y-3.1654
X2.6732Y-3.0118
X3.1535Y-3.2323
X3.9685Y-3.3425
T4
X4.07Y-3.6025
X4.07Y-3.7025
X2.7975Y-4.1325
X2.8975Y-4.1325
X3.211Y-2.4921
X3.311Y-2.4921
X2.355Y-3.6025
X2.355Y-3.7025
X3.21Y-4.1325
X3.31Y-4.1325
X3.41Y-4.1325
X3.51Y-4.1325
T5
X2.4725Y-4.0
X3.995Y-4.0
X3.998Y-2.618
X2.468Y-2.618
T0
M30
