G04 #@! TF.GenerationSoftware,KiCad,Pcbnew,(5.1.5)-3*
G04 #@! TF.CreationDate,2020-08-02T02:59:21-04:00*
G04 #@! TF.ProjectId,STM32F4,53544d33-3246-4342-9e6b-696361645f70,rev?*
G04 #@! TF.SameCoordinates,Original*
G04 #@! TF.FileFunction,Legend,Bot*
G04 #@! TF.FilePolarity,Positive*
%FSLAX46Y46*%
G04 Gerber Fmt 4.6, Leading zero omitted, Abs format (unit mm)*
G04 Created by KiCad (PCBNEW (5.1.5)-3) date 2020-08-02 02:59:21*
%MOMM*%
%LPD*%
G04 APERTURE LIST*
%ADD10C,0.250000*%
G04 APERTURE END LIST*
D10*
X64871428Y-93452380D02*
X64252380Y-93452380D01*
X64585714Y-93833333D01*
X64442857Y-93833333D01*
X64347618Y-93880952D01*
X64299999Y-93928571D01*
X64252380Y-94023809D01*
X64252380Y-94261904D01*
X64299999Y-94357142D01*
X64347618Y-94404761D01*
X64442857Y-94452380D01*
X64728571Y-94452380D01*
X64823809Y-94404761D01*
X64871428Y-94357142D01*
X63823809Y-94357142D02*
X63776190Y-94404761D01*
X63823809Y-94452380D01*
X63871428Y-94404761D01*
X63823809Y-94357142D01*
X63823809Y-94452380D01*
X63442857Y-93452380D02*
X62823809Y-93452380D01*
X63157142Y-93833333D01*
X63014285Y-93833333D01*
X62919047Y-93880952D01*
X62871428Y-93928571D01*
X62823809Y-94023809D01*
X62823809Y-94261904D01*
X62871428Y-94357142D01*
X62919047Y-94404761D01*
X63014285Y-94452380D01*
X63299999Y-94452380D01*
X63395238Y-94404761D01*
X63442857Y-94357142D01*
X62538095Y-93452380D02*
X62204761Y-94452380D01*
X61871428Y-93452380D01*
X64061904Y-90850000D02*
X64157142Y-90802380D01*
X64300000Y-90802380D01*
X64442857Y-90850000D01*
X64538095Y-90945238D01*
X64585714Y-91040476D01*
X64633333Y-91230952D01*
X64633333Y-91373809D01*
X64585714Y-91564285D01*
X64538095Y-91659523D01*
X64442857Y-91754761D01*
X64300000Y-91802380D01*
X64204761Y-91802380D01*
X64061904Y-91754761D01*
X64014285Y-91707142D01*
X64014285Y-91373809D01*
X64204761Y-91373809D01*
X63585714Y-91802380D02*
X63585714Y-90802380D01*
X63014285Y-91802380D01*
X63014285Y-90802380D01*
X62538095Y-91802380D02*
X62538095Y-90802380D01*
X62300000Y-90802380D01*
X62157142Y-90850000D01*
X62061904Y-90945238D01*
X62014285Y-91040476D01*
X61966666Y-91230952D01*
X61966666Y-91373809D01*
X62014285Y-91564285D01*
X62061904Y-91659523D01*
X62157142Y-91754761D01*
X62300000Y-91802380D01*
X62538095Y-91802380D01*
X71297619Y-102964285D02*
X70297619Y-102630951D01*
X71297619Y-102297618D01*
X70345238Y-101535713D02*
X70297619Y-101630951D01*
X70297619Y-101821428D01*
X70345238Y-101916666D01*
X70392857Y-101964285D01*
X70488095Y-102011904D01*
X70773809Y-102011904D01*
X70869047Y-101964285D01*
X70916666Y-101916666D01*
X70964285Y-101821428D01*
X70964285Y-101630951D01*
X70916666Y-101535713D01*
X70345238Y-100678570D02*
X70297619Y-100773809D01*
X70297619Y-100964285D01*
X70345238Y-101059523D01*
X70392857Y-101107142D01*
X70488095Y-101154761D01*
X70773809Y-101154761D01*
X70869047Y-101107142D01*
X70916666Y-101059523D01*
X70964285Y-100964285D01*
X70964285Y-100773809D01*
X70916666Y-100678570D01*
X74150000Y-102297618D02*
X74197619Y-102392856D01*
X74197619Y-102535714D01*
X74150000Y-102678571D01*
X74054761Y-102773809D01*
X73959523Y-102821428D01*
X73769047Y-102869047D01*
X73626190Y-102869047D01*
X73435714Y-102821428D01*
X73340476Y-102773809D01*
X73245238Y-102678571D01*
X73197619Y-102535714D01*
X73197619Y-102440475D01*
X73245238Y-102297618D01*
X73292857Y-102249999D01*
X73626190Y-102249999D01*
X73626190Y-102440475D01*
X73197619Y-101821428D02*
X74197619Y-101821428D01*
X73197619Y-101249999D01*
X74197619Y-101249999D01*
X73197619Y-100773809D02*
X74197619Y-100773809D01*
X74197619Y-100535714D01*
X74150000Y-100392856D01*
X74054761Y-100297618D01*
X73959523Y-100249999D01*
X73769047Y-100202380D01*
X73626190Y-100202380D01*
X73435714Y-100249999D01*
X73340476Y-100297618D01*
X73245238Y-100392856D01*
X73197619Y-100535714D01*
X73197619Y-100773809D01*
X81092857Y-102249999D02*
X81045238Y-102297618D01*
X80997619Y-102440475D01*
X80997619Y-102535713D01*
X81045238Y-102678571D01*
X81140476Y-102773809D01*
X81235714Y-102821428D01*
X81426190Y-102869047D01*
X81569047Y-102869047D01*
X81759523Y-102821428D01*
X81854761Y-102773809D01*
X81950000Y-102678571D01*
X81997619Y-102535713D01*
X81997619Y-102440475D01*
X81950000Y-102297618D01*
X81902380Y-102249999D01*
X81045238Y-101869047D02*
X80997619Y-101726190D01*
X80997619Y-101488094D01*
X81045238Y-101392856D01*
X81092857Y-101345237D01*
X81188095Y-101297618D01*
X81283333Y-101297618D01*
X81378571Y-101345237D01*
X81426190Y-101392856D01*
X81473809Y-101488094D01*
X81521428Y-101678571D01*
X81569047Y-101773809D01*
X81616666Y-101821428D01*
X81711904Y-101869047D01*
X81807142Y-101869047D01*
X81902380Y-101821428D01*
X81950000Y-101773809D01*
X81997619Y-101678571D01*
X81997619Y-101440475D01*
X81950000Y-101297618D01*
X83595238Y-102869047D02*
X83547619Y-102726190D01*
X83547619Y-102488094D01*
X83595238Y-102392856D01*
X83642857Y-102345237D01*
X83738095Y-102297618D01*
X83833333Y-102297618D01*
X83928571Y-102345237D01*
X83976190Y-102392856D01*
X84023809Y-102488094D01*
X84071428Y-102678571D01*
X84119047Y-102773809D01*
X84166666Y-102821428D01*
X84261904Y-102869047D01*
X84357142Y-102869047D01*
X84452380Y-102821428D01*
X84500000Y-102773809D01*
X84547619Y-102678571D01*
X84547619Y-102440475D01*
X84500000Y-102297618D01*
X83642857Y-101297618D02*
X83595238Y-101345237D01*
X83547619Y-101488094D01*
X83547619Y-101583333D01*
X83595238Y-101726190D01*
X83690476Y-101821428D01*
X83785714Y-101869047D01*
X83976190Y-101916666D01*
X84119047Y-101916666D01*
X84309523Y-101869047D01*
X84404761Y-101821428D01*
X84500000Y-101726190D01*
X84547619Y-101583333D01*
X84547619Y-101488094D01*
X84500000Y-101345237D01*
X84452380Y-101297618D01*
X83547619Y-100869047D02*
X84547619Y-100869047D01*
X83547619Y-100297618D02*
X84119047Y-100726190D01*
X84547619Y-100297618D02*
X83976190Y-100869047D01*
X86097619Y-102821428D02*
X87097619Y-102821428D01*
X86383333Y-102488095D01*
X87097619Y-102154761D01*
X86097619Y-102154761D01*
X86097619Y-101678571D02*
X87097619Y-101678571D01*
X86145238Y-101250000D02*
X86097619Y-101107142D01*
X86097619Y-100869047D01*
X86145238Y-100773809D01*
X86192857Y-100726190D01*
X86288095Y-100678571D01*
X86383333Y-100678571D01*
X86478571Y-100726190D01*
X86526190Y-100773809D01*
X86573809Y-100869047D01*
X86621428Y-101059523D01*
X86669047Y-101154761D01*
X86716666Y-101202380D01*
X86811904Y-101250000D01*
X86907142Y-101250000D01*
X87002380Y-101202380D01*
X87050000Y-101154761D01*
X87097619Y-101059523D01*
X87097619Y-100821428D01*
X87050000Y-100678571D01*
X87097619Y-100059523D02*
X87097619Y-99869047D01*
X87050000Y-99773809D01*
X86954761Y-99678571D01*
X86764285Y-99630952D01*
X86430952Y-99630952D01*
X86240476Y-99678571D01*
X86145238Y-99773809D01*
X86097619Y-99869047D01*
X86097619Y-100059523D01*
X86145238Y-100154761D01*
X86240476Y-100250000D01*
X86430952Y-100297619D01*
X86764285Y-100297619D01*
X86954761Y-100250000D01*
X87050000Y-100154761D01*
X87097619Y-100059523D01*
X88847619Y-102821428D02*
X89847619Y-102821428D01*
X89133333Y-102488095D01*
X89847619Y-102154761D01*
X88847619Y-102154761D01*
X89847619Y-101488095D02*
X89847619Y-101297619D01*
X89800000Y-101202380D01*
X89704761Y-101107142D01*
X89514285Y-101059523D01*
X89180952Y-101059523D01*
X88990476Y-101107142D01*
X88895238Y-101202380D01*
X88847619Y-101297619D01*
X88847619Y-101488095D01*
X88895238Y-101583333D01*
X88990476Y-101678571D01*
X89180952Y-101726190D01*
X89514285Y-101726190D01*
X89704761Y-101678571D01*
X89800000Y-101583333D01*
X89847619Y-101488095D01*
X88895238Y-100678571D02*
X88847619Y-100535714D01*
X88847619Y-100297619D01*
X88895238Y-100202380D01*
X88942857Y-100154761D01*
X89038095Y-100107142D01*
X89133333Y-100107142D01*
X89228571Y-100154761D01*
X89276190Y-100202380D01*
X89323809Y-100297619D01*
X89371428Y-100488095D01*
X89419047Y-100583333D01*
X89466666Y-100630952D01*
X89561904Y-100678571D01*
X89657142Y-100678571D01*
X89752380Y-100630952D01*
X89800000Y-100583333D01*
X89847619Y-100488095D01*
X89847619Y-100250000D01*
X89800000Y-100107142D01*
X88847619Y-99678571D02*
X89847619Y-99678571D01*
X101040476Y-93652380D02*
X100469047Y-93652380D01*
X100754761Y-94652380D02*
X100754761Y-93652380D01*
X100230952Y-94652380D02*
X99707142Y-93985714D01*
X100230952Y-93985714D02*
X99707142Y-94652380D01*
X100326191Y-92002380D02*
X100659524Y-91526190D01*
X100897619Y-92002380D02*
X100897619Y-91002380D01*
X100516667Y-91002380D01*
X100421429Y-91050000D01*
X100373810Y-91097619D01*
X100326191Y-91192857D01*
X100326191Y-91335714D01*
X100373810Y-91430952D01*
X100421429Y-91478571D01*
X100516667Y-91526190D01*
X100897619Y-91526190D01*
X99992857Y-92002380D02*
X99469048Y-91335714D01*
X99992857Y-91335714D02*
X99469048Y-92002380D01*
X83795238Y-67766667D02*
X83747619Y-67623810D01*
X83747619Y-67385714D01*
X83795238Y-67290476D01*
X83842857Y-67242857D01*
X83938095Y-67195238D01*
X84033333Y-67195238D01*
X84128571Y-67242857D01*
X84176190Y-67290476D01*
X84223809Y-67385714D01*
X84271428Y-67576191D01*
X84319047Y-67671429D01*
X84366666Y-67719048D01*
X84461904Y-67766667D01*
X84557142Y-67766667D01*
X84652380Y-67719048D01*
X84700000Y-67671429D01*
X84747619Y-67576191D01*
X84747619Y-67338095D01*
X84700000Y-67195238D01*
X83842857Y-66195238D02*
X83795238Y-66242857D01*
X83747619Y-66385714D01*
X83747619Y-66480952D01*
X83795238Y-66623810D01*
X83890476Y-66719048D01*
X83985714Y-66766667D01*
X84176190Y-66814286D01*
X84319047Y-66814286D01*
X84509523Y-66766667D01*
X84604761Y-66719048D01*
X84700000Y-66623810D01*
X84747619Y-66480952D01*
X84747619Y-66385714D01*
X84700000Y-66242857D01*
X84652380Y-66195238D01*
X83747619Y-65290476D02*
X83747619Y-65766667D01*
X84747619Y-65766667D01*
X81145238Y-67814285D02*
X81097619Y-67671428D01*
X81097619Y-67433333D01*
X81145238Y-67338095D01*
X81192857Y-67290476D01*
X81288095Y-67242857D01*
X81383333Y-67242857D01*
X81478571Y-67290476D01*
X81526190Y-67338095D01*
X81573809Y-67433333D01*
X81621428Y-67623809D01*
X81669047Y-67719047D01*
X81716666Y-67766666D01*
X81811904Y-67814285D01*
X81907142Y-67814285D01*
X82002380Y-67766666D01*
X82050000Y-67719047D01*
X82097619Y-67623809D01*
X82097619Y-67385714D01*
X82050000Y-67242857D01*
X81097619Y-66814285D02*
X82097619Y-66814285D01*
X82097619Y-66576190D01*
X82050000Y-66433333D01*
X81954761Y-66338095D01*
X81859523Y-66290476D01*
X81669047Y-66242857D01*
X81526190Y-66242857D01*
X81335714Y-66290476D01*
X81240476Y-66338095D01*
X81145238Y-66433333D01*
X81097619Y-66576190D01*
X81097619Y-66814285D01*
X81383333Y-65861904D02*
X81383333Y-65385714D01*
X81097619Y-65957142D02*
X82097619Y-65623809D01*
X81097619Y-65290476D01*
M02*
