G04 #@! TF.GenerationSoftware,KiCad,Pcbnew,(5.1.5)-3*
G04 #@! TF.CreationDate,2020-08-02T02:59:21-04:00*
G04 #@! TF.ProjectId,STM32F4,53544d33-3246-4342-9e6b-696361645f70,rev?*
G04 #@! TF.SameCoordinates,Original*
G04 #@! TF.FileFunction,Copper,L4,Bot*
G04 #@! TF.FilePolarity,Positive*
%FSLAX46Y46*%
G04 Gerber Fmt 4.6, Leading zero omitted, Abs format (unit mm)*
G04 Created by KiCad (PCBNEW (5.1.5)-3) date 2020-08-02 02:59:21*
%MOMM*%
%LPD*%
G04 APERTURE LIST*
%ADD10C,8.600000*%
%ADD11C,0.900000*%
%ADD12R,1.700000X1.700000*%
%ADD13O,1.700000X1.700000*%
%ADD14C,0.800000*%
%ADD15C,1.000000*%
%ADD16C,0.500000*%
%ADD17C,0.254000*%
G04 APERTURE END LIST*
D10*
X62687200Y-66497200D03*
D11*
X65912200Y-66497200D03*
X64967619Y-68777619D03*
X62687200Y-69722200D03*
X60406781Y-68777619D03*
X59462200Y-66497200D03*
X60406781Y-64216781D03*
X62687200Y-63272200D03*
X64967619Y-64216781D03*
D10*
X101549200Y-66497200D03*
D11*
X104774200Y-66497200D03*
X103829619Y-68777619D03*
X101549200Y-69722200D03*
X99268781Y-68777619D03*
X98324200Y-66497200D03*
X99268781Y-64216781D03*
X101549200Y-63272200D03*
X103829619Y-64216781D03*
D10*
X62801500Y-101600000D03*
D11*
X66026500Y-101600000D03*
X65081919Y-103880419D03*
X62801500Y-104825000D03*
X60521081Y-103880419D03*
X59576500Y-101600000D03*
X60521081Y-99319581D03*
X62801500Y-98375000D03*
X65081919Y-99319581D03*
X103753419Y-99319581D03*
X101473000Y-98375000D03*
X99192581Y-99319581D03*
X98248000Y-101600000D03*
X99192581Y-103880419D03*
X101473000Y-104825000D03*
X103753419Y-103880419D03*
X104698000Y-101600000D03*
D10*
X101473000Y-101600000D03*
D12*
X81534000Y-104965500D03*
D13*
X84074000Y-104965500D03*
X86614000Y-104965500D03*
X89154000Y-104965500D03*
D12*
X71056500Y-104965500D03*
D13*
X73596500Y-104965500D03*
X59817000Y-91503500D03*
D12*
X59817000Y-94043500D03*
X103378000Y-94043500D03*
D13*
X103378000Y-91503500D03*
X81560000Y-63300000D03*
D12*
X84100000Y-63300000D03*
D14*
X74600000Y-80800000D03*
X71000000Y-86100000D03*
D15*
X60450000Y-81325000D03*
X60450000Y-83200000D03*
X60450000Y-77575000D03*
X60450000Y-79450000D03*
X60450000Y-75700000D03*
X66900000Y-78500000D03*
X66900000Y-80400000D03*
X63100000Y-80400000D03*
X63100000Y-78500000D03*
X62100000Y-76400000D03*
X67900000Y-76500000D03*
X100800000Y-84900000D03*
D14*
X78000000Y-73000000D03*
X78000000Y-74100000D03*
X68200000Y-86000000D03*
X78900000Y-75500000D03*
X89000000Y-88400000D03*
X89800000Y-91900000D03*
X77900000Y-89600000D03*
X79200000Y-84600000D03*
X79400000Y-102400000D03*
X76900000Y-104700000D03*
X73900000Y-91900000D03*
X68200000Y-84800000D03*
X68200000Y-87100000D03*
X68200000Y-88200000D03*
X68200000Y-89400000D03*
X62600000Y-89900000D03*
X62600000Y-88700000D03*
X62600000Y-87600000D03*
X62600000Y-86400000D03*
X91100000Y-78300000D03*
X100500000Y-79900000D03*
X87000000Y-79100000D03*
X99100000Y-76100000D03*
X86600000Y-87000000D03*
X80100000Y-87000000D03*
X78400000Y-78400000D03*
X78000000Y-99400000D03*
X78000000Y-98400000D03*
X83500000Y-73900000D03*
X79700000Y-73300000D03*
X79300000Y-78600000D03*
D15*
X80100000Y-82100000D03*
D16*
X100800000Y-84400000D02*
X100800000Y-84900000D01*
X80100000Y-82100000D02*
X98500000Y-82100000D01*
X98500000Y-82100000D02*
X100800000Y-84400000D01*
D17*
G36*
X100125466Y-61771677D02*
G01*
X99714262Y-61890307D01*
X98850760Y-62336806D01*
X98738146Y-62412051D01*
X98245987Y-63014382D01*
X101549200Y-66317595D01*
X101563343Y-66303453D01*
X101742948Y-66483058D01*
X101728805Y-66497200D01*
X105032018Y-69800413D01*
X105634349Y-69308254D01*
X106104263Y-68457267D01*
X106399129Y-67530957D01*
X106507614Y-66564919D01*
X106476799Y-66201195D01*
X106505407Y-66361798D01*
X106527999Y-66904974D01*
X106528001Y-101508535D01*
X106454301Y-102377117D01*
X106242360Y-103193693D01*
X105895861Y-103962891D01*
X105424716Y-104662708D01*
X104842394Y-105273139D01*
X104165550Y-105776724D01*
X103413528Y-106159072D01*
X103380720Y-106169259D01*
X104171440Y-105760394D01*
X104284054Y-105685149D01*
X104776213Y-105082818D01*
X101473000Y-101779605D01*
X98169787Y-105082818D01*
X98661946Y-105685149D01*
X99512933Y-106155063D01*
X100439243Y-106449929D01*
X101134450Y-106528000D01*
X63092776Y-106528000D01*
X63702421Y-106476351D01*
X64636438Y-106206893D01*
X65499940Y-105760394D01*
X65612554Y-105685149D01*
X66104713Y-105082818D01*
X62801500Y-101779605D01*
X62787358Y-101793748D01*
X62607753Y-101614143D01*
X62621895Y-101600000D01*
X62981105Y-101600000D01*
X66284318Y-104903213D01*
X66886649Y-104411054D01*
X67049853Y-104115500D01*
X69568428Y-104115500D01*
X69568428Y-105815500D01*
X69580688Y-105939982D01*
X69616998Y-106059680D01*
X69675963Y-106169994D01*
X69755315Y-106266685D01*
X69852006Y-106346037D01*
X69962320Y-106405002D01*
X70082018Y-106441312D01*
X70206500Y-106453572D01*
X71906500Y-106453572D01*
X72030982Y-106441312D01*
X72150680Y-106405002D01*
X72260994Y-106346037D01*
X72357685Y-106266685D01*
X72437037Y-106169994D01*
X72496002Y-106059680D01*
X72520466Y-105979034D01*
X72596231Y-106063088D01*
X72829580Y-106237141D01*
X73092401Y-106362325D01*
X73239610Y-106406976D01*
X73469500Y-106285655D01*
X73469500Y-105092500D01*
X73723500Y-105092500D01*
X73723500Y-106285655D01*
X73953390Y-106406976D01*
X74100599Y-106362325D01*
X74363420Y-106237141D01*
X74596769Y-106063088D01*
X74791678Y-105846855D01*
X74940657Y-105596752D01*
X75037981Y-105322391D01*
X74917314Y-105092500D01*
X73723500Y-105092500D01*
X73469500Y-105092500D01*
X73449500Y-105092500D01*
X73449500Y-104838500D01*
X73469500Y-104838500D01*
X73469500Y-103645345D01*
X73723500Y-103645345D01*
X73723500Y-104838500D01*
X74917314Y-104838500D01*
X75037981Y-104608609D01*
X74940657Y-104334248D01*
X74810356Y-104115500D01*
X80045928Y-104115500D01*
X80045928Y-105815500D01*
X80058188Y-105939982D01*
X80094498Y-106059680D01*
X80153463Y-106169994D01*
X80232815Y-106266685D01*
X80329506Y-106346037D01*
X80439820Y-106405002D01*
X80559518Y-106441312D01*
X80684000Y-106453572D01*
X82384000Y-106453572D01*
X82508482Y-106441312D01*
X82628180Y-106405002D01*
X82738494Y-106346037D01*
X82835185Y-106266685D01*
X82914537Y-106169994D01*
X82973502Y-106059680D01*
X82995513Y-105987120D01*
X83127368Y-106118975D01*
X83370589Y-106281490D01*
X83640842Y-106393432D01*
X83927740Y-106450500D01*
X84220260Y-106450500D01*
X84507158Y-106393432D01*
X84777411Y-106281490D01*
X85020632Y-106118975D01*
X85227475Y-105912132D01*
X85344000Y-105737740D01*
X85460525Y-105912132D01*
X85667368Y-106118975D01*
X85910589Y-106281490D01*
X86180842Y-106393432D01*
X86467740Y-106450500D01*
X86760260Y-106450500D01*
X87047158Y-106393432D01*
X87317411Y-106281490D01*
X87560632Y-106118975D01*
X87767475Y-105912132D01*
X87884000Y-105737740D01*
X88000525Y-105912132D01*
X88207368Y-106118975D01*
X88450589Y-106281490D01*
X88720842Y-106393432D01*
X89007740Y-106450500D01*
X89300260Y-106450500D01*
X89587158Y-106393432D01*
X89857411Y-106281490D01*
X90100632Y-106118975D01*
X90307475Y-105912132D01*
X90469990Y-105668911D01*
X90581932Y-105398658D01*
X90639000Y-105111760D01*
X90639000Y-104819240D01*
X90581932Y-104532342D01*
X90469990Y-104262089D01*
X90307475Y-104018868D01*
X90100632Y-103812025D01*
X89857411Y-103649510D01*
X89587158Y-103537568D01*
X89300260Y-103480500D01*
X89007740Y-103480500D01*
X88720842Y-103537568D01*
X88450589Y-103649510D01*
X88207368Y-103812025D01*
X88000525Y-104018868D01*
X87884000Y-104193260D01*
X87767475Y-104018868D01*
X87560632Y-103812025D01*
X87317411Y-103649510D01*
X87047158Y-103537568D01*
X86760260Y-103480500D01*
X86467740Y-103480500D01*
X86180842Y-103537568D01*
X85910589Y-103649510D01*
X85667368Y-103812025D01*
X85460525Y-104018868D01*
X85344000Y-104193260D01*
X85227475Y-104018868D01*
X85020632Y-103812025D01*
X84777411Y-103649510D01*
X84507158Y-103537568D01*
X84220260Y-103480500D01*
X83927740Y-103480500D01*
X83640842Y-103537568D01*
X83370589Y-103649510D01*
X83127368Y-103812025D01*
X82995513Y-103943880D01*
X82973502Y-103871320D01*
X82914537Y-103761006D01*
X82835185Y-103664315D01*
X82738494Y-103584963D01*
X82628180Y-103525998D01*
X82508482Y-103489688D01*
X82384000Y-103477428D01*
X80684000Y-103477428D01*
X80559518Y-103489688D01*
X80439820Y-103525998D01*
X80329506Y-103584963D01*
X80232815Y-103664315D01*
X80153463Y-103761006D01*
X80094498Y-103871320D01*
X80058188Y-103991018D01*
X80045928Y-104115500D01*
X74810356Y-104115500D01*
X74791678Y-104084145D01*
X74596769Y-103867912D01*
X74363420Y-103693859D01*
X74100599Y-103568675D01*
X73953390Y-103524024D01*
X73723500Y-103645345D01*
X73469500Y-103645345D01*
X73239610Y-103524024D01*
X73092401Y-103568675D01*
X72829580Y-103693859D01*
X72596231Y-103867912D01*
X72520466Y-103951966D01*
X72496002Y-103871320D01*
X72437037Y-103761006D01*
X72357685Y-103664315D01*
X72260994Y-103584963D01*
X72150680Y-103525998D01*
X72030982Y-103489688D01*
X71906500Y-103477428D01*
X70206500Y-103477428D01*
X70082018Y-103489688D01*
X69962320Y-103525998D01*
X69852006Y-103584963D01*
X69755315Y-103664315D01*
X69675963Y-103761006D01*
X69616998Y-103871320D01*
X69580688Y-103991018D01*
X69568428Y-104115500D01*
X67049853Y-104115500D01*
X67356563Y-103560067D01*
X67651429Y-102633757D01*
X67759914Y-101667719D01*
X67748440Y-101532281D01*
X96514586Y-101532281D01*
X96596649Y-102500921D01*
X96866107Y-103434938D01*
X97312606Y-104298440D01*
X97387851Y-104411054D01*
X97990182Y-104903213D01*
X101293395Y-101600000D01*
X101652605Y-101600000D01*
X104955818Y-104903213D01*
X105558149Y-104411054D01*
X106028063Y-103560067D01*
X106322929Y-102633757D01*
X106431414Y-101667719D01*
X106349351Y-100699079D01*
X106079893Y-99765062D01*
X105633394Y-98901560D01*
X105558149Y-98788946D01*
X104955818Y-98296787D01*
X101652605Y-101600000D01*
X101293395Y-101600000D01*
X97990182Y-98296787D01*
X97387851Y-98788946D01*
X96917937Y-99639933D01*
X96623071Y-100566243D01*
X96514586Y-101532281D01*
X67748440Y-101532281D01*
X67677851Y-100699079D01*
X67408393Y-99765062D01*
X66961894Y-98901560D01*
X66886649Y-98788946D01*
X66285878Y-98298061D01*
X76965000Y-98298061D01*
X76965000Y-98501939D01*
X77004774Y-98701898D01*
X77082795Y-98890256D01*
X77089306Y-98900000D01*
X77082795Y-98909744D01*
X77004774Y-99098102D01*
X76965000Y-99298061D01*
X76965000Y-99501939D01*
X77004774Y-99701898D01*
X77082795Y-99890256D01*
X77196063Y-100059774D01*
X77340226Y-100203937D01*
X77509744Y-100317205D01*
X77698102Y-100395226D01*
X77898061Y-100435000D01*
X78101939Y-100435000D01*
X78301898Y-100395226D01*
X78490256Y-100317205D01*
X78659774Y-100203937D01*
X78803937Y-100059774D01*
X78917205Y-99890256D01*
X78995226Y-99701898D01*
X79035000Y-99501939D01*
X79035000Y-99298061D01*
X78995226Y-99098102D01*
X78917205Y-98909744D01*
X78910694Y-98900000D01*
X78917205Y-98890256D01*
X78995226Y-98701898D01*
X79035000Y-98501939D01*
X79035000Y-98298061D01*
X78999022Y-98117182D01*
X98169787Y-98117182D01*
X101473000Y-101420395D01*
X104776213Y-98117182D01*
X104284054Y-97514851D01*
X103433067Y-97044937D01*
X102506757Y-96750071D01*
X101540719Y-96641586D01*
X100572079Y-96723649D01*
X99638062Y-96993107D01*
X98774560Y-97439606D01*
X98661946Y-97514851D01*
X98169787Y-98117182D01*
X78999022Y-98117182D01*
X78995226Y-98098102D01*
X78917205Y-97909744D01*
X78803937Y-97740226D01*
X78659774Y-97596063D01*
X78490256Y-97482795D01*
X78301898Y-97404774D01*
X78101939Y-97365000D01*
X77898061Y-97365000D01*
X77698102Y-97404774D01*
X77509744Y-97482795D01*
X77340226Y-97596063D01*
X77196063Y-97740226D01*
X77082795Y-97909744D01*
X77004774Y-98098102D01*
X76965000Y-98298061D01*
X66285878Y-98298061D01*
X66284318Y-98296787D01*
X62981105Y-101600000D01*
X62621895Y-101600000D01*
X59318682Y-98296787D01*
X58716351Y-98788946D01*
X58246437Y-99639933D01*
X57951571Y-100566243D01*
X57843086Y-101532281D01*
X57925149Y-102500921D01*
X58194607Y-103434938D01*
X58641106Y-104298440D01*
X58716351Y-104411054D01*
X59318680Y-104903212D01*
X59207140Y-105014752D01*
X59048921Y-104863819D01*
X58551745Y-104195589D01*
X58174265Y-103453142D01*
X57927275Y-102657705D01*
X57815178Y-101811951D01*
X57810000Y-101592215D01*
X57809996Y-98117182D01*
X59498287Y-98117182D01*
X62801500Y-101420395D01*
X66104713Y-98117182D01*
X65612554Y-97514851D01*
X64761567Y-97044937D01*
X63835257Y-96750071D01*
X62869219Y-96641586D01*
X61900579Y-96723649D01*
X60966562Y-96993107D01*
X60103060Y-97439606D01*
X59990446Y-97514851D01*
X59498287Y-98117182D01*
X57809996Y-98117182D01*
X57809988Y-93193500D01*
X58328928Y-93193500D01*
X58328928Y-94893500D01*
X58341188Y-95017982D01*
X58377498Y-95137680D01*
X58436463Y-95247994D01*
X58515815Y-95344685D01*
X58612506Y-95424037D01*
X58722820Y-95483002D01*
X58842518Y-95519312D01*
X58967000Y-95531572D01*
X60667000Y-95531572D01*
X60791482Y-95519312D01*
X60911180Y-95483002D01*
X61021494Y-95424037D01*
X61118185Y-95344685D01*
X61197537Y-95247994D01*
X61256502Y-95137680D01*
X61292812Y-95017982D01*
X61305072Y-94893500D01*
X61305072Y-93193500D01*
X101889928Y-93193500D01*
X101889928Y-94893500D01*
X101902188Y-95017982D01*
X101938498Y-95137680D01*
X101997463Y-95247994D01*
X102076815Y-95344685D01*
X102173506Y-95424037D01*
X102283820Y-95483002D01*
X102403518Y-95519312D01*
X102528000Y-95531572D01*
X104228000Y-95531572D01*
X104352482Y-95519312D01*
X104472180Y-95483002D01*
X104582494Y-95424037D01*
X104679185Y-95344685D01*
X104758537Y-95247994D01*
X104817502Y-95137680D01*
X104853812Y-95017982D01*
X104866072Y-94893500D01*
X104866072Y-93193500D01*
X104853812Y-93069018D01*
X104817502Y-92949320D01*
X104758537Y-92839006D01*
X104679185Y-92742315D01*
X104582494Y-92662963D01*
X104472180Y-92603998D01*
X104399620Y-92581987D01*
X104531475Y-92450132D01*
X104693990Y-92206911D01*
X104805932Y-91936658D01*
X104863000Y-91649760D01*
X104863000Y-91357240D01*
X104805932Y-91070342D01*
X104693990Y-90800089D01*
X104531475Y-90556868D01*
X104324632Y-90350025D01*
X104081411Y-90187510D01*
X103811158Y-90075568D01*
X103524260Y-90018500D01*
X103231740Y-90018500D01*
X102944842Y-90075568D01*
X102674589Y-90187510D01*
X102431368Y-90350025D01*
X102224525Y-90556868D01*
X102062010Y-90800089D01*
X101950068Y-91070342D01*
X101893000Y-91357240D01*
X101893000Y-91649760D01*
X101950068Y-91936658D01*
X102062010Y-92206911D01*
X102224525Y-92450132D01*
X102356380Y-92581987D01*
X102283820Y-92603998D01*
X102173506Y-92662963D01*
X102076815Y-92742315D01*
X101997463Y-92839006D01*
X101938498Y-92949320D01*
X101902188Y-93069018D01*
X101889928Y-93193500D01*
X61305072Y-93193500D01*
X61292812Y-93069018D01*
X61256502Y-92949320D01*
X61197537Y-92839006D01*
X61118185Y-92742315D01*
X61021494Y-92662963D01*
X60911180Y-92603998D01*
X60830534Y-92579534D01*
X60914588Y-92503769D01*
X61088641Y-92270420D01*
X61213825Y-92007599D01*
X61258476Y-91860390D01*
X61137155Y-91630500D01*
X59944000Y-91630500D01*
X59944000Y-91650500D01*
X59690000Y-91650500D01*
X59690000Y-91630500D01*
X58496845Y-91630500D01*
X58375524Y-91860390D01*
X58420175Y-92007599D01*
X58545359Y-92270420D01*
X58719412Y-92503769D01*
X58803466Y-92579534D01*
X58722820Y-92603998D01*
X58612506Y-92662963D01*
X58515815Y-92742315D01*
X58436463Y-92839006D01*
X58377498Y-92949320D01*
X58341188Y-93069018D01*
X58328928Y-93193500D01*
X57809988Y-93193500D01*
X57809986Y-91146610D01*
X58375524Y-91146610D01*
X58496845Y-91376500D01*
X59690000Y-91376500D01*
X59690000Y-90182686D01*
X59944000Y-90182686D01*
X59944000Y-91376500D01*
X61137155Y-91376500D01*
X61258476Y-91146610D01*
X61213825Y-90999401D01*
X61088641Y-90736580D01*
X60914588Y-90503231D01*
X60698355Y-90308322D01*
X60448252Y-90159343D01*
X60173891Y-90062019D01*
X59944000Y-90182686D01*
X59690000Y-90182686D01*
X59460109Y-90062019D01*
X59185748Y-90159343D01*
X58935645Y-90308322D01*
X58719412Y-90503231D01*
X58545359Y-90736580D01*
X58420175Y-90999401D01*
X58375524Y-91146610D01*
X57809986Y-91146610D01*
X57809968Y-78388212D01*
X61965000Y-78388212D01*
X61965000Y-78611788D01*
X62008617Y-78831067D01*
X62094176Y-79037624D01*
X62218388Y-79223520D01*
X62376480Y-79381612D01*
X62478830Y-79450000D01*
X62376480Y-79518388D01*
X62218388Y-79676480D01*
X62094176Y-79862376D01*
X62008617Y-80068933D01*
X61965000Y-80288212D01*
X61965000Y-80511788D01*
X62008617Y-80731067D01*
X62094176Y-80937624D01*
X62218388Y-81123520D01*
X62376480Y-81281612D01*
X62562376Y-81405824D01*
X62768933Y-81491383D01*
X62988212Y-81535000D01*
X63211788Y-81535000D01*
X63431067Y-81491383D01*
X63637624Y-81405824D01*
X63823520Y-81281612D01*
X63981612Y-81123520D01*
X64105824Y-80937624D01*
X64191383Y-80731067D01*
X64235000Y-80511788D01*
X64235000Y-80288212D01*
X64191383Y-80068933D01*
X64105824Y-79862376D01*
X63981612Y-79676480D01*
X63823520Y-79518388D01*
X63721170Y-79450000D01*
X63823520Y-79381612D01*
X63981612Y-79223520D01*
X64105824Y-79037624D01*
X64191383Y-78831067D01*
X64235000Y-78611788D01*
X64235000Y-78388212D01*
X65765000Y-78388212D01*
X65765000Y-78611788D01*
X65808617Y-78831067D01*
X65894176Y-79037624D01*
X66018388Y-79223520D01*
X66176480Y-79381612D01*
X66278830Y-79450000D01*
X66176480Y-79518388D01*
X66018388Y-79676480D01*
X65894176Y-79862376D01*
X65808617Y-80068933D01*
X65765000Y-80288212D01*
X65765000Y-80511788D01*
X65808617Y-80731067D01*
X65894176Y-80937624D01*
X66018388Y-81123520D01*
X66176480Y-81281612D01*
X66362376Y-81405824D01*
X66568933Y-81491383D01*
X66788212Y-81535000D01*
X67011788Y-81535000D01*
X67231067Y-81491383D01*
X67437624Y-81405824D01*
X67623520Y-81281612D01*
X67781612Y-81123520D01*
X67905824Y-80937624D01*
X67991383Y-80731067D01*
X68035000Y-80511788D01*
X68035000Y-80288212D01*
X67991383Y-80068933D01*
X67962830Y-80000000D01*
X69873000Y-80000000D01*
X69873000Y-87000000D01*
X69875440Y-87024776D01*
X69882667Y-87048601D01*
X69894403Y-87070557D01*
X69910197Y-87089803D01*
X69929443Y-87105597D01*
X69951399Y-87117333D01*
X69975224Y-87124560D01*
X70000000Y-87127000D01*
X76000000Y-87127000D01*
X76024776Y-87124560D01*
X76048601Y-87117333D01*
X76070557Y-87105597D01*
X76089803Y-87089803D01*
X76105597Y-87070557D01*
X76117333Y-87048601D01*
X76124560Y-87024776D01*
X76127000Y-87000000D01*
X76127000Y-86898061D01*
X79065000Y-86898061D01*
X79065000Y-87101939D01*
X79104774Y-87301898D01*
X79182795Y-87490256D01*
X79296063Y-87659774D01*
X79440226Y-87803937D01*
X79609744Y-87917205D01*
X79798102Y-87995226D01*
X79998061Y-88035000D01*
X80201939Y-88035000D01*
X80401898Y-87995226D01*
X80590256Y-87917205D01*
X80759774Y-87803937D01*
X80903937Y-87659774D01*
X81017205Y-87490256D01*
X81095226Y-87301898D01*
X81135000Y-87101939D01*
X81135000Y-86898061D01*
X85565000Y-86898061D01*
X85565000Y-87101939D01*
X85604774Y-87301898D01*
X85682795Y-87490256D01*
X85796063Y-87659774D01*
X85940226Y-87803937D01*
X86109744Y-87917205D01*
X86298102Y-87995226D01*
X86498061Y-88035000D01*
X86701939Y-88035000D01*
X86901898Y-87995226D01*
X87090256Y-87917205D01*
X87259774Y-87803937D01*
X87403937Y-87659774D01*
X87517205Y-87490256D01*
X87595226Y-87301898D01*
X87635000Y-87101939D01*
X87635000Y-86898061D01*
X87595226Y-86698102D01*
X87517205Y-86509744D01*
X87403937Y-86340226D01*
X87259774Y-86196063D01*
X87090256Y-86082795D01*
X86901898Y-86004774D01*
X86701939Y-85965000D01*
X86498061Y-85965000D01*
X86298102Y-86004774D01*
X86109744Y-86082795D01*
X85940226Y-86196063D01*
X85796063Y-86340226D01*
X85682795Y-86509744D01*
X85604774Y-86698102D01*
X85565000Y-86898061D01*
X81135000Y-86898061D01*
X81095226Y-86698102D01*
X81017205Y-86509744D01*
X80903937Y-86340226D01*
X80759774Y-86196063D01*
X80590256Y-86082795D01*
X80401898Y-86004774D01*
X80201939Y-85965000D01*
X79998061Y-85965000D01*
X79798102Y-86004774D01*
X79609744Y-86082795D01*
X79440226Y-86196063D01*
X79296063Y-86340226D01*
X79182795Y-86509744D01*
X79104774Y-86698102D01*
X79065000Y-86898061D01*
X76127000Y-86898061D01*
X76127000Y-84427000D01*
X76200000Y-84427000D01*
X76224776Y-84424560D01*
X76248601Y-84417333D01*
X76270557Y-84405597D01*
X76289803Y-84389803D01*
X76305597Y-84370557D01*
X76317333Y-84348601D01*
X76324560Y-84324776D01*
X76326999Y-84299603D01*
X76319898Y-82027318D01*
X78200934Y-82032000D01*
X78225716Y-82029621D01*
X78249559Y-82022453D01*
X78271544Y-82010772D01*
X78290829Y-81995026D01*
X78296449Y-81988212D01*
X78965000Y-81988212D01*
X78965000Y-82211788D01*
X79008617Y-82431067D01*
X79094176Y-82637624D01*
X79218388Y-82823520D01*
X79376480Y-82981612D01*
X79562376Y-83105824D01*
X79768933Y-83191383D01*
X79988212Y-83235000D01*
X80211788Y-83235000D01*
X80431067Y-83191383D01*
X80637624Y-83105824D01*
X80818450Y-82985000D01*
X98133422Y-82985000D01*
X99711176Y-84562755D01*
X99708617Y-84568933D01*
X99665000Y-84788212D01*
X99665000Y-85011788D01*
X99708617Y-85231067D01*
X99794176Y-85437624D01*
X99918388Y-85623520D01*
X100076480Y-85781612D01*
X100262376Y-85905824D01*
X100468933Y-85991383D01*
X100688212Y-86035000D01*
X100911788Y-86035000D01*
X101131067Y-85991383D01*
X101337624Y-85905824D01*
X101523520Y-85781612D01*
X101681612Y-85623520D01*
X101805824Y-85437624D01*
X101891383Y-85231067D01*
X101935000Y-85011788D01*
X101935000Y-84788212D01*
X101891383Y-84568933D01*
X101805824Y-84362376D01*
X101681612Y-84176480D01*
X101646309Y-84141177D01*
X101621589Y-84059687D01*
X101539411Y-83905941D01*
X101428817Y-83771183D01*
X101395050Y-83743471D01*
X99156534Y-81504956D01*
X99128817Y-81471183D01*
X98994059Y-81360589D01*
X98840313Y-81278411D01*
X98673490Y-81227805D01*
X98543477Y-81215000D01*
X98543469Y-81215000D01*
X98500000Y-81210719D01*
X98456531Y-81215000D01*
X80818450Y-81215000D01*
X80637624Y-81094176D01*
X80431067Y-81008617D01*
X80211788Y-80965000D01*
X79988212Y-80965000D01*
X79768933Y-81008617D01*
X79562376Y-81094176D01*
X79376480Y-81218388D01*
X79218388Y-81376480D01*
X79094176Y-81562376D01*
X79008617Y-81768933D01*
X78965000Y-81988212D01*
X78296449Y-81988212D01*
X78306671Y-81975820D01*
X78318461Y-81953893D01*
X78325748Y-81930086D01*
X78328250Y-81904686D01*
X78325750Y-80894686D01*
X78323248Y-80869915D01*
X78315962Y-80846109D01*
X78304172Y-80824181D01*
X78288330Y-80804975D01*
X78269046Y-80789229D01*
X78247060Y-80777547D01*
X78223218Y-80770379D01*
X78199037Y-80768000D01*
X76118432Y-80763290D01*
X76126992Y-80001427D01*
X76124830Y-79976625D01*
X76117871Y-79952721D01*
X76106383Y-79930633D01*
X76090806Y-79911212D01*
X76071739Y-79895203D01*
X76049916Y-79883221D01*
X76026174Y-79875727D01*
X76000000Y-79873000D01*
X70000000Y-79873000D01*
X69975224Y-79875440D01*
X69951399Y-79882667D01*
X69929443Y-79894403D01*
X69910197Y-79910197D01*
X69894403Y-79929443D01*
X69882667Y-79951399D01*
X69875440Y-79975224D01*
X69873000Y-80000000D01*
X67962830Y-80000000D01*
X67905824Y-79862376D01*
X67781612Y-79676480D01*
X67623520Y-79518388D01*
X67521170Y-79450000D01*
X67623520Y-79381612D01*
X67781612Y-79223520D01*
X67905824Y-79037624D01*
X67991383Y-78831067D01*
X68035000Y-78611788D01*
X68035000Y-78388212D01*
X68017068Y-78298061D01*
X77365000Y-78298061D01*
X77365000Y-78501939D01*
X77404774Y-78701898D01*
X77482795Y-78890256D01*
X77596063Y-79059774D01*
X77740226Y-79203937D01*
X77909744Y-79317205D01*
X78098102Y-79395226D01*
X78298061Y-79435000D01*
X78501939Y-79435000D01*
X78644327Y-79406677D01*
X78809744Y-79517205D01*
X78998102Y-79595226D01*
X79198061Y-79635000D01*
X79401939Y-79635000D01*
X79601898Y-79595226D01*
X79790256Y-79517205D01*
X79959774Y-79403937D01*
X80103937Y-79259774D01*
X80217205Y-79090256D01*
X80255393Y-78998061D01*
X85965000Y-78998061D01*
X85965000Y-79201939D01*
X86004774Y-79401898D01*
X86082795Y-79590256D01*
X86196063Y-79759774D01*
X86340226Y-79903937D01*
X86509744Y-80017205D01*
X86698102Y-80095226D01*
X86898061Y-80135000D01*
X87101939Y-80135000D01*
X87301898Y-80095226D01*
X87490256Y-80017205D01*
X87659774Y-79903937D01*
X87803937Y-79759774D01*
X87917205Y-79590256D01*
X87995226Y-79401898D01*
X88035000Y-79201939D01*
X88035000Y-78998061D01*
X87995226Y-78798102D01*
X87917205Y-78609744D01*
X87803937Y-78440226D01*
X87659774Y-78296063D01*
X87490256Y-78182795D01*
X87301898Y-78104774D01*
X87101939Y-78065000D01*
X86898061Y-78065000D01*
X86698102Y-78104774D01*
X86509744Y-78182795D01*
X86340226Y-78296063D01*
X86196063Y-78440226D01*
X86082795Y-78609744D01*
X86004774Y-78798102D01*
X85965000Y-78998061D01*
X80255393Y-78998061D01*
X80295226Y-78901898D01*
X80335000Y-78701939D01*
X80335000Y-78498061D01*
X80295226Y-78298102D01*
X80217205Y-78109744D01*
X80103937Y-77940226D01*
X79959774Y-77796063D01*
X79790256Y-77682795D01*
X79601898Y-77604774D01*
X79401939Y-77565000D01*
X79198061Y-77565000D01*
X79055673Y-77593323D01*
X78890256Y-77482795D01*
X78701898Y-77404774D01*
X78501939Y-77365000D01*
X78298061Y-77365000D01*
X78098102Y-77404774D01*
X77909744Y-77482795D01*
X77740226Y-77596063D01*
X77596063Y-77740226D01*
X77482795Y-77909744D01*
X77404774Y-78098102D01*
X77365000Y-78298061D01*
X68017068Y-78298061D01*
X67991383Y-78168933D01*
X67905824Y-77962376D01*
X67781612Y-77776480D01*
X67623520Y-77618388D01*
X67589111Y-77595397D01*
X67788212Y-77635000D01*
X68011788Y-77635000D01*
X68231067Y-77591383D01*
X68437624Y-77505824D01*
X68623520Y-77381612D01*
X68781612Y-77223520D01*
X68905824Y-77037624D01*
X68991383Y-76831067D01*
X69035000Y-76611788D01*
X69035000Y-76388212D01*
X68991383Y-76168933D01*
X68920606Y-75998061D01*
X98065000Y-75998061D01*
X98065000Y-76201939D01*
X98104774Y-76401898D01*
X98182795Y-76590256D01*
X98296063Y-76759774D01*
X98440226Y-76903937D01*
X98609744Y-77017205D01*
X98798102Y-77095226D01*
X98998061Y-77135000D01*
X99201939Y-77135000D01*
X99401898Y-77095226D01*
X99590256Y-77017205D01*
X99759774Y-76903937D01*
X99903937Y-76759774D01*
X100017205Y-76590256D01*
X100095226Y-76401898D01*
X100135000Y-76201939D01*
X100135000Y-75998061D01*
X100095226Y-75798102D01*
X100017205Y-75609744D01*
X99903937Y-75440226D01*
X99759774Y-75296063D01*
X99590256Y-75182795D01*
X99401898Y-75104774D01*
X99201939Y-75065000D01*
X98998061Y-75065000D01*
X98798102Y-75104774D01*
X98609744Y-75182795D01*
X98440226Y-75296063D01*
X98296063Y-75440226D01*
X98182795Y-75609744D01*
X98104774Y-75798102D01*
X98065000Y-75998061D01*
X68920606Y-75998061D01*
X68905824Y-75962376D01*
X68781612Y-75776480D01*
X68623520Y-75618388D01*
X68437624Y-75494176D01*
X68231067Y-75408617D01*
X68011788Y-75365000D01*
X67788212Y-75365000D01*
X67568933Y-75408617D01*
X67362376Y-75494176D01*
X67176480Y-75618388D01*
X67018388Y-75776480D01*
X66894176Y-75962376D01*
X66808617Y-76168933D01*
X66765000Y-76388212D01*
X66765000Y-76611788D01*
X66808617Y-76831067D01*
X66894176Y-77037624D01*
X67018388Y-77223520D01*
X67176480Y-77381612D01*
X67210889Y-77404603D01*
X67011788Y-77365000D01*
X66788212Y-77365000D01*
X66568933Y-77408617D01*
X66362376Y-77494176D01*
X66176480Y-77618388D01*
X66018388Y-77776480D01*
X65894176Y-77962376D01*
X65808617Y-78168933D01*
X65765000Y-78388212D01*
X64235000Y-78388212D01*
X64191383Y-78168933D01*
X64105824Y-77962376D01*
X63981612Y-77776480D01*
X63823520Y-77618388D01*
X63637624Y-77494176D01*
X63431067Y-77408617D01*
X63211788Y-77365000D01*
X62988212Y-77365000D01*
X62768933Y-77408617D01*
X62562376Y-77494176D01*
X62376480Y-77618388D01*
X62218388Y-77776480D01*
X62094176Y-77962376D01*
X62008617Y-78168933D01*
X61965000Y-78388212D01*
X57809968Y-78388212D01*
X57809965Y-76288212D01*
X60965000Y-76288212D01*
X60965000Y-76511788D01*
X61008617Y-76731067D01*
X61094176Y-76937624D01*
X61218388Y-77123520D01*
X61376480Y-77281612D01*
X61562376Y-77405824D01*
X61768933Y-77491383D01*
X61988212Y-77535000D01*
X62211788Y-77535000D01*
X62431067Y-77491383D01*
X62637624Y-77405824D01*
X62823520Y-77281612D01*
X62981612Y-77123520D01*
X63105824Y-76937624D01*
X63191383Y-76731067D01*
X63235000Y-76511788D01*
X63235000Y-76288212D01*
X63191383Y-76068933D01*
X63105824Y-75862376D01*
X62981612Y-75676480D01*
X62823520Y-75518388D01*
X62637624Y-75394176D01*
X62431067Y-75308617D01*
X62211788Y-75265000D01*
X61988212Y-75265000D01*
X61768933Y-75308617D01*
X61562376Y-75394176D01*
X61376480Y-75518388D01*
X61218388Y-75676480D01*
X61094176Y-75862376D01*
X61008617Y-76068933D01*
X60965000Y-76288212D01*
X57809965Y-76288212D01*
X57809961Y-73198061D01*
X78665000Y-73198061D01*
X78665000Y-73401939D01*
X78704774Y-73601898D01*
X78782795Y-73790256D01*
X78896063Y-73959774D01*
X79040226Y-74103937D01*
X79209744Y-74217205D01*
X79398102Y-74295226D01*
X79598061Y-74335000D01*
X79801939Y-74335000D01*
X80001898Y-74295226D01*
X80190256Y-74217205D01*
X80359774Y-74103937D01*
X80503937Y-73959774D01*
X80611989Y-73798061D01*
X82465000Y-73798061D01*
X82465000Y-74001939D01*
X82504774Y-74201898D01*
X82582795Y-74390256D01*
X82696063Y-74559774D01*
X82840226Y-74703937D01*
X83009744Y-74817205D01*
X83198102Y-74895226D01*
X83398061Y-74935000D01*
X83601939Y-74935000D01*
X83801898Y-74895226D01*
X83990256Y-74817205D01*
X84159774Y-74703937D01*
X84303937Y-74559774D01*
X84417205Y-74390256D01*
X84495226Y-74201898D01*
X84535000Y-74001939D01*
X84535000Y-73798061D01*
X84495226Y-73598102D01*
X84417205Y-73409744D01*
X84303937Y-73240226D01*
X84159774Y-73096063D01*
X83990256Y-72982795D01*
X83801898Y-72904774D01*
X83601939Y-72865000D01*
X83398061Y-72865000D01*
X83198102Y-72904774D01*
X83009744Y-72982795D01*
X82840226Y-73096063D01*
X82696063Y-73240226D01*
X82582795Y-73409744D01*
X82504774Y-73598102D01*
X82465000Y-73798061D01*
X80611989Y-73798061D01*
X80617205Y-73790256D01*
X80695226Y-73601898D01*
X80735000Y-73401939D01*
X80735000Y-73198061D01*
X80695226Y-72998102D01*
X80617205Y-72809744D01*
X80503937Y-72640226D01*
X80359774Y-72496063D01*
X80190256Y-72382795D01*
X80001898Y-72304774D01*
X79801939Y-72265000D01*
X79598061Y-72265000D01*
X79398102Y-72304774D01*
X79209744Y-72382795D01*
X79040226Y-72496063D01*
X78896063Y-72640226D01*
X78782795Y-72809744D01*
X78704774Y-72998102D01*
X78665000Y-73198061D01*
X57809961Y-73198061D01*
X57809955Y-69980018D01*
X59383987Y-69980018D01*
X59876146Y-70582349D01*
X60727133Y-71052263D01*
X61653443Y-71347129D01*
X62619481Y-71455614D01*
X63588121Y-71373551D01*
X64522138Y-71104093D01*
X65385640Y-70657594D01*
X65498254Y-70582349D01*
X65990413Y-69980018D01*
X98245987Y-69980018D01*
X98738146Y-70582349D01*
X99589133Y-71052263D01*
X100515443Y-71347129D01*
X101481481Y-71455614D01*
X102450121Y-71373551D01*
X103384138Y-71104093D01*
X104247640Y-70657594D01*
X104360254Y-70582349D01*
X104852413Y-69980018D01*
X101549200Y-66676805D01*
X98245987Y-69980018D01*
X65990413Y-69980018D01*
X62687200Y-66676805D01*
X59383987Y-69980018D01*
X57809955Y-69980018D01*
X57809951Y-67387520D01*
X57810849Y-67398121D01*
X58080307Y-68332138D01*
X58526806Y-69195640D01*
X58602051Y-69308254D01*
X59204382Y-69800413D01*
X62507595Y-66497200D01*
X62866805Y-66497200D01*
X66170018Y-69800413D01*
X66772349Y-69308254D01*
X67242263Y-68457267D01*
X67537129Y-67530957D01*
X67645614Y-66564919D01*
X67634140Y-66429481D01*
X96590786Y-66429481D01*
X96672849Y-67398121D01*
X96942307Y-68332138D01*
X97388806Y-69195640D01*
X97464051Y-69308254D01*
X98066382Y-69800413D01*
X101369595Y-66497200D01*
X98066382Y-63193987D01*
X97464051Y-63686146D01*
X96994137Y-64537133D01*
X96699271Y-65463443D01*
X96590786Y-66429481D01*
X67634140Y-66429481D01*
X67563551Y-65596279D01*
X67294093Y-64662262D01*
X66847594Y-63798760D01*
X66772349Y-63686146D01*
X66170018Y-63193987D01*
X62866805Y-66497200D01*
X62507595Y-66497200D01*
X62493453Y-66483058D01*
X62673058Y-66303453D01*
X62687200Y-66317595D01*
X65851055Y-63153740D01*
X80075000Y-63153740D01*
X80075000Y-63446260D01*
X80132068Y-63733158D01*
X80244010Y-64003411D01*
X80406525Y-64246632D01*
X80613368Y-64453475D01*
X80856589Y-64615990D01*
X81126842Y-64727932D01*
X81413740Y-64785000D01*
X81706260Y-64785000D01*
X81993158Y-64727932D01*
X82263411Y-64615990D01*
X82506632Y-64453475D01*
X82638487Y-64321620D01*
X82660498Y-64394180D01*
X82719463Y-64504494D01*
X82798815Y-64601185D01*
X82895506Y-64680537D01*
X83005820Y-64739502D01*
X83125518Y-64775812D01*
X83250000Y-64788072D01*
X84950000Y-64788072D01*
X85074482Y-64775812D01*
X85194180Y-64739502D01*
X85304494Y-64680537D01*
X85401185Y-64601185D01*
X85480537Y-64504494D01*
X85539502Y-64394180D01*
X85575812Y-64274482D01*
X85588072Y-64150000D01*
X85588072Y-62450000D01*
X85575812Y-62325518D01*
X85539502Y-62205820D01*
X85480537Y-62095506D01*
X85401185Y-61998815D01*
X85304494Y-61919463D01*
X85194180Y-61860498D01*
X85074482Y-61824188D01*
X84950000Y-61811928D01*
X83250000Y-61811928D01*
X83125518Y-61824188D01*
X83005820Y-61860498D01*
X82895506Y-61919463D01*
X82798815Y-61998815D01*
X82719463Y-62095506D01*
X82660498Y-62205820D01*
X82638487Y-62278380D01*
X82506632Y-62146525D01*
X82263411Y-61984010D01*
X81993158Y-61872068D01*
X81706260Y-61815000D01*
X81413740Y-61815000D01*
X81126842Y-61872068D01*
X80856589Y-61984010D01*
X80613368Y-62146525D01*
X80406525Y-62353368D01*
X80244010Y-62596589D01*
X80132068Y-62866842D01*
X80075000Y-63153740D01*
X65851055Y-63153740D01*
X65990413Y-63014382D01*
X65498254Y-62412051D01*
X64647267Y-61942137D01*
X64051013Y-61752336D01*
X100125466Y-61771677D01*
G37*
X100125466Y-61771677D02*
X99714262Y-61890307D01*
X98850760Y-62336806D01*
X98738146Y-62412051D01*
X98245987Y-63014382D01*
X101549200Y-66317595D01*
X101563343Y-66303453D01*
X101742948Y-66483058D01*
X101728805Y-66497200D01*
X105032018Y-69800413D01*
X105634349Y-69308254D01*
X106104263Y-68457267D01*
X106399129Y-67530957D01*
X106507614Y-66564919D01*
X106476799Y-66201195D01*
X106505407Y-66361798D01*
X106527999Y-66904974D01*
X106528001Y-101508535D01*
X106454301Y-102377117D01*
X106242360Y-103193693D01*
X105895861Y-103962891D01*
X105424716Y-104662708D01*
X104842394Y-105273139D01*
X104165550Y-105776724D01*
X103413528Y-106159072D01*
X103380720Y-106169259D01*
X104171440Y-105760394D01*
X104284054Y-105685149D01*
X104776213Y-105082818D01*
X101473000Y-101779605D01*
X98169787Y-105082818D01*
X98661946Y-105685149D01*
X99512933Y-106155063D01*
X100439243Y-106449929D01*
X101134450Y-106528000D01*
X63092776Y-106528000D01*
X63702421Y-106476351D01*
X64636438Y-106206893D01*
X65499940Y-105760394D01*
X65612554Y-105685149D01*
X66104713Y-105082818D01*
X62801500Y-101779605D01*
X62787358Y-101793748D01*
X62607753Y-101614143D01*
X62621895Y-101600000D01*
X62981105Y-101600000D01*
X66284318Y-104903213D01*
X66886649Y-104411054D01*
X67049853Y-104115500D01*
X69568428Y-104115500D01*
X69568428Y-105815500D01*
X69580688Y-105939982D01*
X69616998Y-106059680D01*
X69675963Y-106169994D01*
X69755315Y-106266685D01*
X69852006Y-106346037D01*
X69962320Y-106405002D01*
X70082018Y-106441312D01*
X70206500Y-106453572D01*
X71906500Y-106453572D01*
X72030982Y-106441312D01*
X72150680Y-106405002D01*
X72260994Y-106346037D01*
X72357685Y-106266685D01*
X72437037Y-106169994D01*
X72496002Y-106059680D01*
X72520466Y-105979034D01*
X72596231Y-106063088D01*
X72829580Y-106237141D01*
X73092401Y-106362325D01*
X73239610Y-106406976D01*
X73469500Y-106285655D01*
X73469500Y-105092500D01*
X73723500Y-105092500D01*
X73723500Y-106285655D01*
X73953390Y-106406976D01*
X74100599Y-106362325D01*
X74363420Y-106237141D01*
X74596769Y-106063088D01*
X74791678Y-105846855D01*
X74940657Y-105596752D01*
X75037981Y-105322391D01*
X74917314Y-105092500D01*
X73723500Y-105092500D01*
X73469500Y-105092500D01*
X73449500Y-105092500D01*
X73449500Y-104838500D01*
X73469500Y-104838500D01*
X73469500Y-103645345D01*
X73723500Y-103645345D01*
X73723500Y-104838500D01*
X74917314Y-104838500D01*
X75037981Y-104608609D01*
X74940657Y-104334248D01*
X74810356Y-104115500D01*
X80045928Y-104115500D01*
X80045928Y-105815500D01*
X80058188Y-105939982D01*
X80094498Y-106059680D01*
X80153463Y-106169994D01*
X80232815Y-106266685D01*
X80329506Y-106346037D01*
X80439820Y-106405002D01*
X80559518Y-106441312D01*
X80684000Y-106453572D01*
X82384000Y-106453572D01*
X82508482Y-106441312D01*
X82628180Y-106405002D01*
X82738494Y-106346037D01*
X82835185Y-106266685D01*
X82914537Y-106169994D01*
X82973502Y-106059680D01*
X82995513Y-105987120D01*
X83127368Y-106118975D01*
X83370589Y-106281490D01*
X83640842Y-106393432D01*
X83927740Y-106450500D01*
X84220260Y-106450500D01*
X84507158Y-106393432D01*
X84777411Y-106281490D01*
X85020632Y-106118975D01*
X85227475Y-105912132D01*
X85344000Y-105737740D01*
X85460525Y-105912132D01*
X85667368Y-106118975D01*
X85910589Y-106281490D01*
X86180842Y-106393432D01*
X86467740Y-106450500D01*
X86760260Y-106450500D01*
X87047158Y-106393432D01*
X87317411Y-106281490D01*
X87560632Y-106118975D01*
X87767475Y-105912132D01*
X87884000Y-105737740D01*
X88000525Y-105912132D01*
X88207368Y-106118975D01*
X88450589Y-106281490D01*
X88720842Y-106393432D01*
X89007740Y-106450500D01*
X89300260Y-106450500D01*
X89587158Y-106393432D01*
X89857411Y-106281490D01*
X90100632Y-106118975D01*
X90307475Y-105912132D01*
X90469990Y-105668911D01*
X90581932Y-105398658D01*
X90639000Y-105111760D01*
X90639000Y-104819240D01*
X90581932Y-104532342D01*
X90469990Y-104262089D01*
X90307475Y-104018868D01*
X90100632Y-103812025D01*
X89857411Y-103649510D01*
X89587158Y-103537568D01*
X89300260Y-103480500D01*
X89007740Y-103480500D01*
X88720842Y-103537568D01*
X88450589Y-103649510D01*
X88207368Y-103812025D01*
X88000525Y-104018868D01*
X87884000Y-104193260D01*
X87767475Y-104018868D01*
X87560632Y-103812025D01*
X87317411Y-103649510D01*
X87047158Y-103537568D01*
X86760260Y-103480500D01*
X86467740Y-103480500D01*
X86180842Y-103537568D01*
X85910589Y-103649510D01*
X85667368Y-103812025D01*
X85460525Y-104018868D01*
X85344000Y-104193260D01*
X85227475Y-104018868D01*
X85020632Y-103812025D01*
X84777411Y-103649510D01*
X84507158Y-103537568D01*
X84220260Y-103480500D01*
X83927740Y-103480500D01*
X83640842Y-103537568D01*
X83370589Y-103649510D01*
X83127368Y-103812025D01*
X82995513Y-103943880D01*
X82973502Y-103871320D01*
X82914537Y-103761006D01*
X82835185Y-103664315D01*
X82738494Y-103584963D01*
X82628180Y-103525998D01*
X82508482Y-103489688D01*
X82384000Y-103477428D01*
X80684000Y-103477428D01*
X80559518Y-103489688D01*
X80439820Y-103525998D01*
X80329506Y-103584963D01*
X80232815Y-103664315D01*
X80153463Y-103761006D01*
X80094498Y-103871320D01*
X80058188Y-103991018D01*
X80045928Y-104115500D01*
X74810356Y-104115500D01*
X74791678Y-104084145D01*
X74596769Y-103867912D01*
X74363420Y-103693859D01*
X74100599Y-103568675D01*
X73953390Y-103524024D01*
X73723500Y-103645345D01*
X73469500Y-103645345D01*
X73239610Y-103524024D01*
X73092401Y-103568675D01*
X72829580Y-103693859D01*
X72596231Y-103867912D01*
X72520466Y-103951966D01*
X72496002Y-103871320D01*
X72437037Y-103761006D01*
X72357685Y-103664315D01*
X72260994Y-103584963D01*
X72150680Y-103525998D01*
X72030982Y-103489688D01*
X71906500Y-103477428D01*
X70206500Y-103477428D01*
X70082018Y-103489688D01*
X69962320Y-103525998D01*
X69852006Y-103584963D01*
X69755315Y-103664315D01*
X69675963Y-103761006D01*
X69616998Y-103871320D01*
X69580688Y-103991018D01*
X69568428Y-104115500D01*
X67049853Y-104115500D01*
X67356563Y-103560067D01*
X67651429Y-102633757D01*
X67759914Y-101667719D01*
X67748440Y-101532281D01*
X96514586Y-101532281D01*
X96596649Y-102500921D01*
X96866107Y-103434938D01*
X97312606Y-104298440D01*
X97387851Y-104411054D01*
X97990182Y-104903213D01*
X101293395Y-101600000D01*
X101652605Y-101600000D01*
X104955818Y-104903213D01*
X105558149Y-104411054D01*
X106028063Y-103560067D01*
X106322929Y-102633757D01*
X106431414Y-101667719D01*
X106349351Y-100699079D01*
X106079893Y-99765062D01*
X105633394Y-98901560D01*
X105558149Y-98788946D01*
X104955818Y-98296787D01*
X101652605Y-101600000D01*
X101293395Y-101600000D01*
X97990182Y-98296787D01*
X97387851Y-98788946D01*
X96917937Y-99639933D01*
X96623071Y-100566243D01*
X96514586Y-101532281D01*
X67748440Y-101532281D01*
X67677851Y-100699079D01*
X67408393Y-99765062D01*
X66961894Y-98901560D01*
X66886649Y-98788946D01*
X66285878Y-98298061D01*
X76965000Y-98298061D01*
X76965000Y-98501939D01*
X77004774Y-98701898D01*
X77082795Y-98890256D01*
X77089306Y-98900000D01*
X77082795Y-98909744D01*
X77004774Y-99098102D01*
X76965000Y-99298061D01*
X76965000Y-99501939D01*
X77004774Y-99701898D01*
X77082795Y-99890256D01*
X77196063Y-100059774D01*
X77340226Y-100203937D01*
X77509744Y-100317205D01*
X77698102Y-100395226D01*
X77898061Y-100435000D01*
X78101939Y-100435000D01*
X78301898Y-100395226D01*
X78490256Y-100317205D01*
X78659774Y-100203937D01*
X78803937Y-100059774D01*
X78917205Y-99890256D01*
X78995226Y-99701898D01*
X79035000Y-99501939D01*
X79035000Y-99298061D01*
X78995226Y-99098102D01*
X78917205Y-98909744D01*
X78910694Y-98900000D01*
X78917205Y-98890256D01*
X78995226Y-98701898D01*
X79035000Y-98501939D01*
X79035000Y-98298061D01*
X78999022Y-98117182D01*
X98169787Y-98117182D01*
X101473000Y-101420395D01*
X104776213Y-98117182D01*
X104284054Y-97514851D01*
X103433067Y-97044937D01*
X102506757Y-96750071D01*
X101540719Y-96641586D01*
X100572079Y-96723649D01*
X99638062Y-96993107D01*
X98774560Y-97439606D01*
X98661946Y-97514851D01*
X98169787Y-98117182D01*
X78999022Y-98117182D01*
X78995226Y-98098102D01*
X78917205Y-97909744D01*
X78803937Y-97740226D01*
X78659774Y-97596063D01*
X78490256Y-97482795D01*
X78301898Y-97404774D01*
X78101939Y-97365000D01*
X77898061Y-97365000D01*
X77698102Y-97404774D01*
X77509744Y-97482795D01*
X77340226Y-97596063D01*
X77196063Y-97740226D01*
X77082795Y-97909744D01*
X77004774Y-98098102D01*
X76965000Y-98298061D01*
X66285878Y-98298061D01*
X66284318Y-98296787D01*
X62981105Y-101600000D01*
X62621895Y-101600000D01*
X59318682Y-98296787D01*
X58716351Y-98788946D01*
X58246437Y-99639933D01*
X57951571Y-100566243D01*
X57843086Y-101532281D01*
X57925149Y-102500921D01*
X58194607Y-103434938D01*
X58641106Y-104298440D01*
X58716351Y-104411054D01*
X59318680Y-104903212D01*
X59207140Y-105014752D01*
X59048921Y-104863819D01*
X58551745Y-104195589D01*
X58174265Y-103453142D01*
X57927275Y-102657705D01*
X57815178Y-101811951D01*
X57810000Y-101592215D01*
X57809996Y-98117182D01*
X59498287Y-98117182D01*
X62801500Y-101420395D01*
X66104713Y-98117182D01*
X65612554Y-97514851D01*
X64761567Y-97044937D01*
X63835257Y-96750071D01*
X62869219Y-96641586D01*
X61900579Y-96723649D01*
X60966562Y-96993107D01*
X60103060Y-97439606D01*
X59990446Y-97514851D01*
X59498287Y-98117182D01*
X57809996Y-98117182D01*
X57809988Y-93193500D01*
X58328928Y-93193500D01*
X58328928Y-94893500D01*
X58341188Y-95017982D01*
X58377498Y-95137680D01*
X58436463Y-95247994D01*
X58515815Y-95344685D01*
X58612506Y-95424037D01*
X58722820Y-95483002D01*
X58842518Y-95519312D01*
X58967000Y-95531572D01*
X60667000Y-95531572D01*
X60791482Y-95519312D01*
X60911180Y-95483002D01*
X61021494Y-95424037D01*
X61118185Y-95344685D01*
X61197537Y-95247994D01*
X61256502Y-95137680D01*
X61292812Y-95017982D01*
X61305072Y-94893500D01*
X61305072Y-93193500D01*
X101889928Y-93193500D01*
X101889928Y-94893500D01*
X101902188Y-95017982D01*
X101938498Y-95137680D01*
X101997463Y-95247994D01*
X102076815Y-95344685D01*
X102173506Y-95424037D01*
X102283820Y-95483002D01*
X102403518Y-95519312D01*
X102528000Y-95531572D01*
X104228000Y-95531572D01*
X104352482Y-95519312D01*
X104472180Y-95483002D01*
X104582494Y-95424037D01*
X104679185Y-95344685D01*
X104758537Y-95247994D01*
X104817502Y-95137680D01*
X104853812Y-95017982D01*
X104866072Y-94893500D01*
X104866072Y-93193500D01*
X104853812Y-93069018D01*
X104817502Y-92949320D01*
X104758537Y-92839006D01*
X104679185Y-92742315D01*
X104582494Y-92662963D01*
X104472180Y-92603998D01*
X104399620Y-92581987D01*
X104531475Y-92450132D01*
X104693990Y-92206911D01*
X104805932Y-91936658D01*
X104863000Y-91649760D01*
X104863000Y-91357240D01*
X104805932Y-91070342D01*
X104693990Y-90800089D01*
X104531475Y-90556868D01*
X104324632Y-90350025D01*
X104081411Y-90187510D01*
X103811158Y-90075568D01*
X103524260Y-90018500D01*
X103231740Y-90018500D01*
X102944842Y-90075568D01*
X102674589Y-90187510D01*
X102431368Y-90350025D01*
X102224525Y-90556868D01*
X102062010Y-90800089D01*
X101950068Y-91070342D01*
X101893000Y-91357240D01*
X101893000Y-91649760D01*
X101950068Y-91936658D01*
X102062010Y-92206911D01*
X102224525Y-92450132D01*
X102356380Y-92581987D01*
X102283820Y-92603998D01*
X102173506Y-92662963D01*
X102076815Y-92742315D01*
X101997463Y-92839006D01*
X101938498Y-92949320D01*
X101902188Y-93069018D01*
X101889928Y-93193500D01*
X61305072Y-93193500D01*
X61292812Y-93069018D01*
X61256502Y-92949320D01*
X61197537Y-92839006D01*
X61118185Y-92742315D01*
X61021494Y-92662963D01*
X60911180Y-92603998D01*
X60830534Y-92579534D01*
X60914588Y-92503769D01*
X61088641Y-92270420D01*
X61213825Y-92007599D01*
X61258476Y-91860390D01*
X61137155Y-91630500D01*
X59944000Y-91630500D01*
X59944000Y-91650500D01*
X59690000Y-91650500D01*
X59690000Y-91630500D01*
X58496845Y-91630500D01*
X58375524Y-91860390D01*
X58420175Y-92007599D01*
X58545359Y-92270420D01*
X58719412Y-92503769D01*
X58803466Y-92579534D01*
X58722820Y-92603998D01*
X58612506Y-92662963D01*
X58515815Y-92742315D01*
X58436463Y-92839006D01*
X58377498Y-92949320D01*
X58341188Y-93069018D01*
X58328928Y-93193500D01*
X57809988Y-93193500D01*
X57809986Y-91146610D01*
X58375524Y-91146610D01*
X58496845Y-91376500D01*
X59690000Y-91376500D01*
X59690000Y-90182686D01*
X59944000Y-90182686D01*
X59944000Y-91376500D01*
X61137155Y-91376500D01*
X61258476Y-91146610D01*
X61213825Y-90999401D01*
X61088641Y-90736580D01*
X60914588Y-90503231D01*
X60698355Y-90308322D01*
X60448252Y-90159343D01*
X60173891Y-90062019D01*
X59944000Y-90182686D01*
X59690000Y-90182686D01*
X59460109Y-90062019D01*
X59185748Y-90159343D01*
X58935645Y-90308322D01*
X58719412Y-90503231D01*
X58545359Y-90736580D01*
X58420175Y-90999401D01*
X58375524Y-91146610D01*
X57809986Y-91146610D01*
X57809968Y-78388212D01*
X61965000Y-78388212D01*
X61965000Y-78611788D01*
X62008617Y-78831067D01*
X62094176Y-79037624D01*
X62218388Y-79223520D01*
X62376480Y-79381612D01*
X62478830Y-79450000D01*
X62376480Y-79518388D01*
X62218388Y-79676480D01*
X62094176Y-79862376D01*
X62008617Y-80068933D01*
X61965000Y-80288212D01*
X61965000Y-80511788D01*
X62008617Y-80731067D01*
X62094176Y-80937624D01*
X62218388Y-81123520D01*
X62376480Y-81281612D01*
X62562376Y-81405824D01*
X62768933Y-81491383D01*
X62988212Y-81535000D01*
X63211788Y-81535000D01*
X63431067Y-81491383D01*
X63637624Y-81405824D01*
X63823520Y-81281612D01*
X63981612Y-81123520D01*
X64105824Y-80937624D01*
X64191383Y-80731067D01*
X64235000Y-80511788D01*
X64235000Y-80288212D01*
X64191383Y-80068933D01*
X64105824Y-79862376D01*
X63981612Y-79676480D01*
X63823520Y-79518388D01*
X63721170Y-79450000D01*
X63823520Y-79381612D01*
X63981612Y-79223520D01*
X64105824Y-79037624D01*
X64191383Y-78831067D01*
X64235000Y-78611788D01*
X64235000Y-78388212D01*
X65765000Y-78388212D01*
X65765000Y-78611788D01*
X65808617Y-78831067D01*
X65894176Y-79037624D01*
X66018388Y-79223520D01*
X66176480Y-79381612D01*
X66278830Y-79450000D01*
X66176480Y-79518388D01*
X66018388Y-79676480D01*
X65894176Y-79862376D01*
X65808617Y-80068933D01*
X65765000Y-80288212D01*
X65765000Y-80511788D01*
X65808617Y-80731067D01*
X65894176Y-80937624D01*
X66018388Y-81123520D01*
X66176480Y-81281612D01*
X66362376Y-81405824D01*
X66568933Y-81491383D01*
X66788212Y-81535000D01*
X67011788Y-81535000D01*
X67231067Y-81491383D01*
X67437624Y-81405824D01*
X67623520Y-81281612D01*
X67781612Y-81123520D01*
X67905824Y-80937624D01*
X67991383Y-80731067D01*
X68035000Y-80511788D01*
X68035000Y-80288212D01*
X67991383Y-80068933D01*
X67962830Y-80000000D01*
X69873000Y-80000000D01*
X69873000Y-87000000D01*
X69875440Y-87024776D01*
X69882667Y-87048601D01*
X69894403Y-87070557D01*
X69910197Y-87089803D01*
X69929443Y-87105597D01*
X69951399Y-87117333D01*
X69975224Y-87124560D01*
X70000000Y-87127000D01*
X76000000Y-87127000D01*
X76024776Y-87124560D01*
X76048601Y-87117333D01*
X76070557Y-87105597D01*
X76089803Y-87089803D01*
X76105597Y-87070557D01*
X76117333Y-87048601D01*
X76124560Y-87024776D01*
X76127000Y-87000000D01*
X76127000Y-86898061D01*
X79065000Y-86898061D01*
X79065000Y-87101939D01*
X79104774Y-87301898D01*
X79182795Y-87490256D01*
X79296063Y-87659774D01*
X79440226Y-87803937D01*
X79609744Y-87917205D01*
X79798102Y-87995226D01*
X79998061Y-88035000D01*
X80201939Y-88035000D01*
X80401898Y-87995226D01*
X80590256Y-87917205D01*
X80759774Y-87803937D01*
X80903937Y-87659774D01*
X81017205Y-87490256D01*
X81095226Y-87301898D01*
X81135000Y-87101939D01*
X81135000Y-86898061D01*
X85565000Y-86898061D01*
X85565000Y-87101939D01*
X85604774Y-87301898D01*
X85682795Y-87490256D01*
X85796063Y-87659774D01*
X85940226Y-87803937D01*
X86109744Y-87917205D01*
X86298102Y-87995226D01*
X86498061Y-88035000D01*
X86701939Y-88035000D01*
X86901898Y-87995226D01*
X87090256Y-87917205D01*
X87259774Y-87803937D01*
X87403937Y-87659774D01*
X87517205Y-87490256D01*
X87595226Y-87301898D01*
X87635000Y-87101939D01*
X87635000Y-86898061D01*
X87595226Y-86698102D01*
X87517205Y-86509744D01*
X87403937Y-86340226D01*
X87259774Y-86196063D01*
X87090256Y-86082795D01*
X86901898Y-86004774D01*
X86701939Y-85965000D01*
X86498061Y-85965000D01*
X86298102Y-86004774D01*
X86109744Y-86082795D01*
X85940226Y-86196063D01*
X85796063Y-86340226D01*
X85682795Y-86509744D01*
X85604774Y-86698102D01*
X85565000Y-86898061D01*
X81135000Y-86898061D01*
X81095226Y-86698102D01*
X81017205Y-86509744D01*
X80903937Y-86340226D01*
X80759774Y-86196063D01*
X80590256Y-86082795D01*
X80401898Y-86004774D01*
X80201939Y-85965000D01*
X79998061Y-85965000D01*
X79798102Y-86004774D01*
X79609744Y-86082795D01*
X79440226Y-86196063D01*
X79296063Y-86340226D01*
X79182795Y-86509744D01*
X79104774Y-86698102D01*
X79065000Y-86898061D01*
X76127000Y-86898061D01*
X76127000Y-84427000D01*
X76200000Y-84427000D01*
X76224776Y-84424560D01*
X76248601Y-84417333D01*
X76270557Y-84405597D01*
X76289803Y-84389803D01*
X76305597Y-84370557D01*
X76317333Y-84348601D01*
X76324560Y-84324776D01*
X76326999Y-84299603D01*
X76319898Y-82027318D01*
X78200934Y-82032000D01*
X78225716Y-82029621D01*
X78249559Y-82022453D01*
X78271544Y-82010772D01*
X78290829Y-81995026D01*
X78296449Y-81988212D01*
X78965000Y-81988212D01*
X78965000Y-82211788D01*
X79008617Y-82431067D01*
X79094176Y-82637624D01*
X79218388Y-82823520D01*
X79376480Y-82981612D01*
X79562376Y-83105824D01*
X79768933Y-83191383D01*
X79988212Y-83235000D01*
X80211788Y-83235000D01*
X80431067Y-83191383D01*
X80637624Y-83105824D01*
X80818450Y-82985000D01*
X98133422Y-82985000D01*
X99711176Y-84562755D01*
X99708617Y-84568933D01*
X99665000Y-84788212D01*
X99665000Y-85011788D01*
X99708617Y-85231067D01*
X99794176Y-85437624D01*
X99918388Y-85623520D01*
X100076480Y-85781612D01*
X100262376Y-85905824D01*
X100468933Y-85991383D01*
X100688212Y-86035000D01*
X100911788Y-86035000D01*
X101131067Y-85991383D01*
X101337624Y-85905824D01*
X101523520Y-85781612D01*
X101681612Y-85623520D01*
X101805824Y-85437624D01*
X101891383Y-85231067D01*
X101935000Y-85011788D01*
X101935000Y-84788212D01*
X101891383Y-84568933D01*
X101805824Y-84362376D01*
X101681612Y-84176480D01*
X101646309Y-84141177D01*
X101621589Y-84059687D01*
X101539411Y-83905941D01*
X101428817Y-83771183D01*
X101395050Y-83743471D01*
X99156534Y-81504956D01*
X99128817Y-81471183D01*
X98994059Y-81360589D01*
X98840313Y-81278411D01*
X98673490Y-81227805D01*
X98543477Y-81215000D01*
X98543469Y-81215000D01*
X98500000Y-81210719D01*
X98456531Y-81215000D01*
X80818450Y-81215000D01*
X80637624Y-81094176D01*
X80431067Y-81008617D01*
X80211788Y-80965000D01*
X79988212Y-80965000D01*
X79768933Y-81008617D01*
X79562376Y-81094176D01*
X79376480Y-81218388D01*
X79218388Y-81376480D01*
X79094176Y-81562376D01*
X79008617Y-81768933D01*
X78965000Y-81988212D01*
X78296449Y-81988212D01*
X78306671Y-81975820D01*
X78318461Y-81953893D01*
X78325748Y-81930086D01*
X78328250Y-81904686D01*
X78325750Y-80894686D01*
X78323248Y-80869915D01*
X78315962Y-80846109D01*
X78304172Y-80824181D01*
X78288330Y-80804975D01*
X78269046Y-80789229D01*
X78247060Y-80777547D01*
X78223218Y-80770379D01*
X78199037Y-80768000D01*
X76118432Y-80763290D01*
X76126992Y-80001427D01*
X76124830Y-79976625D01*
X76117871Y-79952721D01*
X76106383Y-79930633D01*
X76090806Y-79911212D01*
X76071739Y-79895203D01*
X76049916Y-79883221D01*
X76026174Y-79875727D01*
X76000000Y-79873000D01*
X70000000Y-79873000D01*
X69975224Y-79875440D01*
X69951399Y-79882667D01*
X69929443Y-79894403D01*
X69910197Y-79910197D01*
X69894403Y-79929443D01*
X69882667Y-79951399D01*
X69875440Y-79975224D01*
X69873000Y-80000000D01*
X67962830Y-80000000D01*
X67905824Y-79862376D01*
X67781612Y-79676480D01*
X67623520Y-79518388D01*
X67521170Y-79450000D01*
X67623520Y-79381612D01*
X67781612Y-79223520D01*
X67905824Y-79037624D01*
X67991383Y-78831067D01*
X68035000Y-78611788D01*
X68035000Y-78388212D01*
X68017068Y-78298061D01*
X77365000Y-78298061D01*
X77365000Y-78501939D01*
X77404774Y-78701898D01*
X77482795Y-78890256D01*
X77596063Y-79059774D01*
X77740226Y-79203937D01*
X77909744Y-79317205D01*
X78098102Y-79395226D01*
X78298061Y-79435000D01*
X78501939Y-79435000D01*
X78644327Y-79406677D01*
X78809744Y-79517205D01*
X78998102Y-79595226D01*
X79198061Y-79635000D01*
X79401939Y-79635000D01*
X79601898Y-79595226D01*
X79790256Y-79517205D01*
X79959774Y-79403937D01*
X80103937Y-79259774D01*
X80217205Y-79090256D01*
X80255393Y-78998061D01*
X85965000Y-78998061D01*
X85965000Y-79201939D01*
X86004774Y-79401898D01*
X86082795Y-79590256D01*
X86196063Y-79759774D01*
X86340226Y-79903937D01*
X86509744Y-80017205D01*
X86698102Y-80095226D01*
X86898061Y-80135000D01*
X87101939Y-80135000D01*
X87301898Y-80095226D01*
X87490256Y-80017205D01*
X87659774Y-79903937D01*
X87803937Y-79759774D01*
X87917205Y-79590256D01*
X87995226Y-79401898D01*
X88035000Y-79201939D01*
X88035000Y-78998061D01*
X87995226Y-78798102D01*
X87917205Y-78609744D01*
X87803937Y-78440226D01*
X87659774Y-78296063D01*
X87490256Y-78182795D01*
X87301898Y-78104774D01*
X87101939Y-78065000D01*
X86898061Y-78065000D01*
X86698102Y-78104774D01*
X86509744Y-78182795D01*
X86340226Y-78296063D01*
X86196063Y-78440226D01*
X86082795Y-78609744D01*
X86004774Y-78798102D01*
X85965000Y-78998061D01*
X80255393Y-78998061D01*
X80295226Y-78901898D01*
X80335000Y-78701939D01*
X80335000Y-78498061D01*
X80295226Y-78298102D01*
X80217205Y-78109744D01*
X80103937Y-77940226D01*
X79959774Y-77796063D01*
X79790256Y-77682795D01*
X79601898Y-77604774D01*
X79401939Y-77565000D01*
X79198061Y-77565000D01*
X79055673Y-77593323D01*
X78890256Y-77482795D01*
X78701898Y-77404774D01*
X78501939Y-77365000D01*
X78298061Y-77365000D01*
X78098102Y-77404774D01*
X77909744Y-77482795D01*
X77740226Y-77596063D01*
X77596063Y-77740226D01*
X77482795Y-77909744D01*
X77404774Y-78098102D01*
X77365000Y-78298061D01*
X68017068Y-78298061D01*
X67991383Y-78168933D01*
X67905824Y-77962376D01*
X67781612Y-77776480D01*
X67623520Y-77618388D01*
X67589111Y-77595397D01*
X67788212Y-77635000D01*
X68011788Y-77635000D01*
X68231067Y-77591383D01*
X68437624Y-77505824D01*
X68623520Y-77381612D01*
X68781612Y-77223520D01*
X68905824Y-77037624D01*
X68991383Y-76831067D01*
X69035000Y-76611788D01*
X69035000Y-76388212D01*
X68991383Y-76168933D01*
X68920606Y-75998061D01*
X98065000Y-75998061D01*
X98065000Y-76201939D01*
X98104774Y-76401898D01*
X98182795Y-76590256D01*
X98296063Y-76759774D01*
X98440226Y-76903937D01*
X98609744Y-77017205D01*
X98798102Y-77095226D01*
X98998061Y-77135000D01*
X99201939Y-77135000D01*
X99401898Y-77095226D01*
X99590256Y-77017205D01*
X99759774Y-76903937D01*
X99903937Y-76759774D01*
X100017205Y-76590256D01*
X100095226Y-76401898D01*
X100135000Y-76201939D01*
X100135000Y-75998061D01*
X100095226Y-75798102D01*
X100017205Y-75609744D01*
X99903937Y-75440226D01*
X99759774Y-75296063D01*
X99590256Y-75182795D01*
X99401898Y-75104774D01*
X99201939Y-75065000D01*
X98998061Y-75065000D01*
X98798102Y-75104774D01*
X98609744Y-75182795D01*
X98440226Y-75296063D01*
X98296063Y-75440226D01*
X98182795Y-75609744D01*
X98104774Y-75798102D01*
X98065000Y-75998061D01*
X68920606Y-75998061D01*
X68905824Y-75962376D01*
X68781612Y-75776480D01*
X68623520Y-75618388D01*
X68437624Y-75494176D01*
X68231067Y-75408617D01*
X68011788Y-75365000D01*
X67788212Y-75365000D01*
X67568933Y-75408617D01*
X67362376Y-75494176D01*
X67176480Y-75618388D01*
X67018388Y-75776480D01*
X66894176Y-75962376D01*
X66808617Y-76168933D01*
X66765000Y-76388212D01*
X66765000Y-76611788D01*
X66808617Y-76831067D01*
X66894176Y-77037624D01*
X67018388Y-77223520D01*
X67176480Y-77381612D01*
X67210889Y-77404603D01*
X67011788Y-77365000D01*
X66788212Y-77365000D01*
X66568933Y-77408617D01*
X66362376Y-77494176D01*
X66176480Y-77618388D01*
X66018388Y-77776480D01*
X65894176Y-77962376D01*
X65808617Y-78168933D01*
X65765000Y-78388212D01*
X64235000Y-78388212D01*
X64191383Y-78168933D01*
X64105824Y-77962376D01*
X63981612Y-77776480D01*
X63823520Y-77618388D01*
X63637624Y-77494176D01*
X63431067Y-77408617D01*
X63211788Y-77365000D01*
X62988212Y-77365000D01*
X62768933Y-77408617D01*
X62562376Y-77494176D01*
X62376480Y-77618388D01*
X62218388Y-77776480D01*
X62094176Y-77962376D01*
X62008617Y-78168933D01*
X61965000Y-78388212D01*
X57809968Y-78388212D01*
X57809965Y-76288212D01*
X60965000Y-76288212D01*
X60965000Y-76511788D01*
X61008617Y-76731067D01*
X61094176Y-76937624D01*
X61218388Y-77123520D01*
X61376480Y-77281612D01*
X61562376Y-77405824D01*
X61768933Y-77491383D01*
X61988212Y-77535000D01*
X62211788Y-77535000D01*
X62431067Y-77491383D01*
X62637624Y-77405824D01*
X62823520Y-77281612D01*
X62981612Y-77123520D01*
X63105824Y-76937624D01*
X63191383Y-76731067D01*
X63235000Y-76511788D01*
X63235000Y-76288212D01*
X63191383Y-76068933D01*
X63105824Y-75862376D01*
X62981612Y-75676480D01*
X62823520Y-75518388D01*
X62637624Y-75394176D01*
X62431067Y-75308617D01*
X62211788Y-75265000D01*
X61988212Y-75265000D01*
X61768933Y-75308617D01*
X61562376Y-75394176D01*
X61376480Y-75518388D01*
X61218388Y-75676480D01*
X61094176Y-75862376D01*
X61008617Y-76068933D01*
X60965000Y-76288212D01*
X57809965Y-76288212D01*
X57809961Y-73198061D01*
X78665000Y-73198061D01*
X78665000Y-73401939D01*
X78704774Y-73601898D01*
X78782795Y-73790256D01*
X78896063Y-73959774D01*
X79040226Y-74103937D01*
X79209744Y-74217205D01*
X79398102Y-74295226D01*
X79598061Y-74335000D01*
X79801939Y-74335000D01*
X80001898Y-74295226D01*
X80190256Y-74217205D01*
X80359774Y-74103937D01*
X80503937Y-73959774D01*
X80611989Y-73798061D01*
X82465000Y-73798061D01*
X82465000Y-74001939D01*
X82504774Y-74201898D01*
X82582795Y-74390256D01*
X82696063Y-74559774D01*
X82840226Y-74703937D01*
X83009744Y-74817205D01*
X83198102Y-74895226D01*
X83398061Y-74935000D01*
X83601939Y-74935000D01*
X83801898Y-74895226D01*
X83990256Y-74817205D01*
X84159774Y-74703937D01*
X84303937Y-74559774D01*
X84417205Y-74390256D01*
X84495226Y-74201898D01*
X84535000Y-74001939D01*
X84535000Y-73798061D01*
X84495226Y-73598102D01*
X84417205Y-73409744D01*
X84303937Y-73240226D01*
X84159774Y-73096063D01*
X83990256Y-72982795D01*
X83801898Y-72904774D01*
X83601939Y-72865000D01*
X83398061Y-72865000D01*
X83198102Y-72904774D01*
X83009744Y-72982795D01*
X82840226Y-73096063D01*
X82696063Y-73240226D01*
X82582795Y-73409744D01*
X82504774Y-73598102D01*
X82465000Y-73798061D01*
X80611989Y-73798061D01*
X80617205Y-73790256D01*
X80695226Y-73601898D01*
X80735000Y-73401939D01*
X80735000Y-73198061D01*
X80695226Y-72998102D01*
X80617205Y-72809744D01*
X80503937Y-72640226D01*
X80359774Y-72496063D01*
X80190256Y-72382795D01*
X80001898Y-72304774D01*
X79801939Y-72265000D01*
X79598061Y-72265000D01*
X79398102Y-72304774D01*
X79209744Y-72382795D01*
X79040226Y-72496063D01*
X78896063Y-72640226D01*
X78782795Y-72809744D01*
X78704774Y-72998102D01*
X78665000Y-73198061D01*
X57809961Y-73198061D01*
X57809955Y-69980018D01*
X59383987Y-69980018D01*
X59876146Y-70582349D01*
X60727133Y-71052263D01*
X61653443Y-71347129D01*
X62619481Y-71455614D01*
X63588121Y-71373551D01*
X64522138Y-71104093D01*
X65385640Y-70657594D01*
X65498254Y-70582349D01*
X65990413Y-69980018D01*
X98245987Y-69980018D01*
X98738146Y-70582349D01*
X99589133Y-71052263D01*
X100515443Y-71347129D01*
X101481481Y-71455614D01*
X102450121Y-71373551D01*
X103384138Y-71104093D01*
X104247640Y-70657594D01*
X104360254Y-70582349D01*
X104852413Y-69980018D01*
X101549200Y-66676805D01*
X98245987Y-69980018D01*
X65990413Y-69980018D01*
X62687200Y-66676805D01*
X59383987Y-69980018D01*
X57809955Y-69980018D01*
X57809951Y-67387520D01*
X57810849Y-67398121D01*
X58080307Y-68332138D01*
X58526806Y-69195640D01*
X58602051Y-69308254D01*
X59204382Y-69800413D01*
X62507595Y-66497200D01*
X62866805Y-66497200D01*
X66170018Y-69800413D01*
X66772349Y-69308254D01*
X67242263Y-68457267D01*
X67537129Y-67530957D01*
X67645614Y-66564919D01*
X67634140Y-66429481D01*
X96590786Y-66429481D01*
X96672849Y-67398121D01*
X96942307Y-68332138D01*
X97388806Y-69195640D01*
X97464051Y-69308254D01*
X98066382Y-69800413D01*
X101369595Y-66497200D01*
X98066382Y-63193987D01*
X97464051Y-63686146D01*
X96994137Y-64537133D01*
X96699271Y-65463443D01*
X96590786Y-66429481D01*
X67634140Y-66429481D01*
X67563551Y-65596279D01*
X67294093Y-64662262D01*
X66847594Y-63798760D01*
X66772349Y-63686146D01*
X66170018Y-63193987D01*
X62866805Y-66497200D01*
X62507595Y-66497200D01*
X62493453Y-66483058D01*
X62673058Y-66303453D01*
X62687200Y-66317595D01*
X65851055Y-63153740D01*
X80075000Y-63153740D01*
X80075000Y-63446260D01*
X80132068Y-63733158D01*
X80244010Y-64003411D01*
X80406525Y-64246632D01*
X80613368Y-64453475D01*
X80856589Y-64615990D01*
X81126842Y-64727932D01*
X81413740Y-64785000D01*
X81706260Y-64785000D01*
X81993158Y-64727932D01*
X82263411Y-64615990D01*
X82506632Y-64453475D01*
X82638487Y-64321620D01*
X82660498Y-64394180D01*
X82719463Y-64504494D01*
X82798815Y-64601185D01*
X82895506Y-64680537D01*
X83005820Y-64739502D01*
X83125518Y-64775812D01*
X83250000Y-64788072D01*
X84950000Y-64788072D01*
X85074482Y-64775812D01*
X85194180Y-64739502D01*
X85304494Y-64680537D01*
X85401185Y-64601185D01*
X85480537Y-64504494D01*
X85539502Y-64394180D01*
X85575812Y-64274482D01*
X85588072Y-64150000D01*
X85588072Y-62450000D01*
X85575812Y-62325518D01*
X85539502Y-62205820D01*
X85480537Y-62095506D01*
X85401185Y-61998815D01*
X85304494Y-61919463D01*
X85194180Y-61860498D01*
X85074482Y-61824188D01*
X84950000Y-61811928D01*
X83250000Y-61811928D01*
X83125518Y-61824188D01*
X83005820Y-61860498D01*
X82895506Y-61919463D01*
X82798815Y-61998815D01*
X82719463Y-62095506D01*
X82660498Y-62205820D01*
X82638487Y-62278380D01*
X82506632Y-62146525D01*
X82263411Y-61984010D01*
X81993158Y-61872068D01*
X81706260Y-61815000D01*
X81413740Y-61815000D01*
X81126842Y-61872068D01*
X80856589Y-61984010D01*
X80613368Y-62146525D01*
X80406525Y-62353368D01*
X80244010Y-62596589D01*
X80132068Y-62866842D01*
X80075000Y-63153740D01*
X65851055Y-63153740D01*
X65990413Y-63014382D01*
X65498254Y-62412051D01*
X64647267Y-61942137D01*
X64051013Y-61752336D01*
X100125466Y-61771677D01*
M02*
