G04 #@! TF.GenerationSoftware,KiCad,Pcbnew,(5.1.5)-3*
G04 #@! TF.CreationDate,2020-08-02T02:59:21-04:00*
G04 #@! TF.ProjectId,STM32F4,53544d33-3246-4342-9e6b-696361645f70,rev?*
G04 #@! TF.SameCoordinates,Original*
G04 #@! TF.FileFunction,Copper,L3,Inr*
G04 #@! TF.FilePolarity,Positive*
%FSLAX46Y46*%
G04 Gerber Fmt 4.6, Leading zero omitted, Abs format (unit mm)*
G04 Created by KiCad (PCBNEW (5.1.5)-3) date 2020-08-02 02:59:21*
%MOMM*%
%LPD*%
G04 APERTURE LIST*
%ADD10C,8.600000*%
%ADD11C,0.900000*%
%ADD12R,1.700000X1.700000*%
%ADD13O,1.700000X1.700000*%
%ADD14C,0.800000*%
%ADD15C,1.000000*%
%ADD16C,0.254000*%
G04 APERTURE END LIST*
D10*
X62687200Y-66497200D03*
D11*
X65912200Y-66497200D03*
X64967619Y-68777619D03*
X62687200Y-69722200D03*
X60406781Y-68777619D03*
X59462200Y-66497200D03*
X60406781Y-64216781D03*
X62687200Y-63272200D03*
X64967619Y-64216781D03*
D10*
X101549200Y-66497200D03*
D11*
X104774200Y-66497200D03*
X103829619Y-68777619D03*
X101549200Y-69722200D03*
X99268781Y-68777619D03*
X98324200Y-66497200D03*
X99268781Y-64216781D03*
X101549200Y-63272200D03*
X103829619Y-64216781D03*
D10*
X62801500Y-101600000D03*
D11*
X66026500Y-101600000D03*
X65081919Y-103880419D03*
X62801500Y-104825000D03*
X60521081Y-103880419D03*
X59576500Y-101600000D03*
X60521081Y-99319581D03*
X62801500Y-98375000D03*
X65081919Y-99319581D03*
X103753419Y-99319581D03*
X101473000Y-98375000D03*
X99192581Y-99319581D03*
X98248000Y-101600000D03*
X99192581Y-103880419D03*
X101473000Y-104825000D03*
X103753419Y-103880419D03*
X104698000Y-101600000D03*
D10*
X101473000Y-101600000D03*
D12*
X81534000Y-104965500D03*
D13*
X84074000Y-104965500D03*
X86614000Y-104965500D03*
X89154000Y-104965500D03*
D12*
X71056500Y-104965500D03*
D13*
X73596500Y-104965500D03*
X59817000Y-91503500D03*
D12*
X59817000Y-94043500D03*
X103378000Y-94043500D03*
D13*
X103378000Y-91503500D03*
X81560000Y-63300000D03*
D12*
X84100000Y-63300000D03*
D14*
X74600000Y-80800000D03*
X71000000Y-86100000D03*
D15*
X60450000Y-81325000D03*
X60450000Y-83200000D03*
X60450000Y-77575000D03*
X60450000Y-79450000D03*
X60450000Y-75700000D03*
X66900000Y-78500000D03*
X66900000Y-80400000D03*
X63100000Y-80400000D03*
X63100000Y-78500000D03*
X62100000Y-76400000D03*
X67900000Y-76500000D03*
X100800000Y-84900000D03*
D14*
X78000000Y-73000000D03*
X78000000Y-74100000D03*
X68200000Y-86000000D03*
X78900000Y-75500000D03*
X89000000Y-88400000D03*
X89800000Y-91900000D03*
X77900000Y-89600000D03*
X79200000Y-84600000D03*
X79400000Y-102400000D03*
X76900000Y-104700000D03*
X73900000Y-91900000D03*
X68200000Y-84800000D03*
X68200000Y-87100000D03*
X68200000Y-88200000D03*
X68200000Y-89400000D03*
X62600000Y-89900000D03*
X62600000Y-88700000D03*
X62600000Y-87600000D03*
X62600000Y-86400000D03*
X91100000Y-78300000D03*
X100500000Y-79900000D03*
X87000000Y-79100000D03*
X99100000Y-76100000D03*
X86600000Y-87000000D03*
X80100000Y-87000000D03*
X78400000Y-78400000D03*
X78000000Y-99400000D03*
X78000000Y-98400000D03*
X83500000Y-73900000D03*
X79700000Y-73300000D03*
X79300000Y-78600000D03*
D15*
X80100000Y-82100000D03*
D16*
G36*
X100061929Y-61771643D02*
G01*
X99211601Y-62123860D01*
X98403321Y-62663935D01*
X97715935Y-63351321D01*
X97175860Y-64159601D01*
X96803850Y-65057714D01*
X96614200Y-66011145D01*
X96614200Y-66983255D01*
X96803850Y-67936686D01*
X97175860Y-68834799D01*
X97715935Y-69643079D01*
X98403321Y-70330465D01*
X99211601Y-70870540D01*
X100109714Y-71242550D01*
X101063145Y-71432200D01*
X102035255Y-71432200D01*
X102988686Y-71242550D01*
X103886799Y-70870540D01*
X104695079Y-70330465D01*
X105382465Y-69643079D01*
X105922540Y-68834799D01*
X106294550Y-67936686D01*
X106484200Y-66983255D01*
X106484200Y-66242742D01*
X106505407Y-66361798D01*
X106527999Y-66904974D01*
X106528001Y-101508535D01*
X106454301Y-102377117D01*
X106242360Y-103193693D01*
X105895861Y-103962891D01*
X105424716Y-104662708D01*
X104842394Y-105273139D01*
X104165550Y-105776724D01*
X103911690Y-105905793D01*
X104618879Y-105433265D01*
X105306265Y-104745879D01*
X105846340Y-103937599D01*
X106218350Y-103039486D01*
X106408000Y-102086055D01*
X106408000Y-101113945D01*
X106218350Y-100160514D01*
X105846340Y-99262401D01*
X105306265Y-98454121D01*
X104618879Y-97766735D01*
X103810599Y-97226660D01*
X102912486Y-96854650D01*
X101959055Y-96665000D01*
X100986945Y-96665000D01*
X100033514Y-96854650D01*
X99135401Y-97226660D01*
X98327121Y-97766735D01*
X97639735Y-98454121D01*
X97099660Y-99262401D01*
X96727650Y-100160514D01*
X96538000Y-101113945D01*
X96538000Y-102086055D01*
X96727650Y-103039486D01*
X97099660Y-103937599D01*
X97639735Y-104745879D01*
X98327121Y-105433265D01*
X99135401Y-105973340D01*
X100033514Y-106345350D01*
X100951754Y-106528000D01*
X63322746Y-106528000D01*
X64240986Y-106345350D01*
X65139099Y-105973340D01*
X65947379Y-105433265D01*
X66634765Y-104745879D01*
X67055970Y-104115500D01*
X69568428Y-104115500D01*
X69568428Y-105815500D01*
X69580688Y-105939982D01*
X69616998Y-106059680D01*
X69675963Y-106169994D01*
X69755315Y-106266685D01*
X69852006Y-106346037D01*
X69962320Y-106405002D01*
X70082018Y-106441312D01*
X70206500Y-106453572D01*
X71906500Y-106453572D01*
X72030982Y-106441312D01*
X72150680Y-106405002D01*
X72260994Y-106346037D01*
X72357685Y-106266685D01*
X72437037Y-106169994D01*
X72496002Y-106059680D01*
X72518013Y-105987120D01*
X72649868Y-106118975D01*
X72893089Y-106281490D01*
X73163342Y-106393432D01*
X73450240Y-106450500D01*
X73742760Y-106450500D01*
X74029658Y-106393432D01*
X74299911Y-106281490D01*
X74543132Y-106118975D01*
X74749975Y-105912132D01*
X74912490Y-105668911D01*
X75024432Y-105398658D01*
X75081500Y-105111760D01*
X75081500Y-104819240D01*
X75037505Y-104598061D01*
X75865000Y-104598061D01*
X75865000Y-104801939D01*
X75904774Y-105001898D01*
X75982795Y-105190256D01*
X76096063Y-105359774D01*
X76240226Y-105503937D01*
X76409744Y-105617205D01*
X76598102Y-105695226D01*
X76798061Y-105735000D01*
X77001939Y-105735000D01*
X77201898Y-105695226D01*
X77390256Y-105617205D01*
X77559774Y-105503937D01*
X77703937Y-105359774D01*
X77817205Y-105190256D01*
X77895226Y-105001898D01*
X77935000Y-104801939D01*
X77935000Y-104598061D01*
X77895226Y-104398102D01*
X77817205Y-104209744D01*
X77754234Y-104115500D01*
X80045928Y-104115500D01*
X80045928Y-105815500D01*
X80058188Y-105939982D01*
X80094498Y-106059680D01*
X80153463Y-106169994D01*
X80232815Y-106266685D01*
X80329506Y-106346037D01*
X80439820Y-106405002D01*
X80559518Y-106441312D01*
X80684000Y-106453572D01*
X82384000Y-106453572D01*
X82508482Y-106441312D01*
X82628180Y-106405002D01*
X82738494Y-106346037D01*
X82835185Y-106266685D01*
X82914537Y-106169994D01*
X82973502Y-106059680D01*
X82995513Y-105987120D01*
X83127368Y-106118975D01*
X83370589Y-106281490D01*
X83640842Y-106393432D01*
X83927740Y-106450500D01*
X84220260Y-106450500D01*
X84507158Y-106393432D01*
X84777411Y-106281490D01*
X85020632Y-106118975D01*
X85227475Y-105912132D01*
X85344000Y-105737740D01*
X85460525Y-105912132D01*
X85667368Y-106118975D01*
X85910589Y-106281490D01*
X86180842Y-106393432D01*
X86467740Y-106450500D01*
X86760260Y-106450500D01*
X87047158Y-106393432D01*
X87317411Y-106281490D01*
X87560632Y-106118975D01*
X87767475Y-105912132D01*
X87884000Y-105737740D01*
X88000525Y-105912132D01*
X88207368Y-106118975D01*
X88450589Y-106281490D01*
X88720842Y-106393432D01*
X89007740Y-106450500D01*
X89300260Y-106450500D01*
X89587158Y-106393432D01*
X89857411Y-106281490D01*
X90100632Y-106118975D01*
X90307475Y-105912132D01*
X90469990Y-105668911D01*
X90581932Y-105398658D01*
X90639000Y-105111760D01*
X90639000Y-104819240D01*
X90581932Y-104532342D01*
X90469990Y-104262089D01*
X90307475Y-104018868D01*
X90100632Y-103812025D01*
X89857411Y-103649510D01*
X89587158Y-103537568D01*
X89300260Y-103480500D01*
X89007740Y-103480500D01*
X88720842Y-103537568D01*
X88450589Y-103649510D01*
X88207368Y-103812025D01*
X88000525Y-104018868D01*
X87884000Y-104193260D01*
X87767475Y-104018868D01*
X87560632Y-103812025D01*
X87317411Y-103649510D01*
X87047158Y-103537568D01*
X86760260Y-103480500D01*
X86467740Y-103480500D01*
X86180842Y-103537568D01*
X85910589Y-103649510D01*
X85667368Y-103812025D01*
X85460525Y-104018868D01*
X85344000Y-104193260D01*
X85227475Y-104018868D01*
X85020632Y-103812025D01*
X84777411Y-103649510D01*
X84507158Y-103537568D01*
X84220260Y-103480500D01*
X83927740Y-103480500D01*
X83640842Y-103537568D01*
X83370589Y-103649510D01*
X83127368Y-103812025D01*
X82995513Y-103943880D01*
X82973502Y-103871320D01*
X82914537Y-103761006D01*
X82835185Y-103664315D01*
X82738494Y-103584963D01*
X82628180Y-103525998D01*
X82508482Y-103489688D01*
X82384000Y-103477428D01*
X80684000Y-103477428D01*
X80559518Y-103489688D01*
X80439820Y-103525998D01*
X80329506Y-103584963D01*
X80232815Y-103664315D01*
X80153463Y-103761006D01*
X80094498Y-103871320D01*
X80058188Y-103991018D01*
X80045928Y-104115500D01*
X77754234Y-104115500D01*
X77703937Y-104040226D01*
X77559774Y-103896063D01*
X77390256Y-103782795D01*
X77201898Y-103704774D01*
X77001939Y-103665000D01*
X76798061Y-103665000D01*
X76598102Y-103704774D01*
X76409744Y-103782795D01*
X76240226Y-103896063D01*
X76096063Y-104040226D01*
X75982795Y-104209744D01*
X75904774Y-104398102D01*
X75865000Y-104598061D01*
X75037505Y-104598061D01*
X75024432Y-104532342D01*
X74912490Y-104262089D01*
X74749975Y-104018868D01*
X74543132Y-103812025D01*
X74299911Y-103649510D01*
X74029658Y-103537568D01*
X73742760Y-103480500D01*
X73450240Y-103480500D01*
X73163342Y-103537568D01*
X72893089Y-103649510D01*
X72649868Y-103812025D01*
X72518013Y-103943880D01*
X72496002Y-103871320D01*
X72437037Y-103761006D01*
X72357685Y-103664315D01*
X72260994Y-103584963D01*
X72150680Y-103525998D01*
X72030982Y-103489688D01*
X71906500Y-103477428D01*
X70206500Y-103477428D01*
X70082018Y-103489688D01*
X69962320Y-103525998D01*
X69852006Y-103584963D01*
X69755315Y-103664315D01*
X69675963Y-103761006D01*
X69616998Y-103871320D01*
X69580688Y-103991018D01*
X69568428Y-104115500D01*
X67055970Y-104115500D01*
X67174840Y-103937599D01*
X67546850Y-103039486D01*
X67694329Y-102298061D01*
X78365000Y-102298061D01*
X78365000Y-102501939D01*
X78404774Y-102701898D01*
X78482795Y-102890256D01*
X78596063Y-103059774D01*
X78740226Y-103203937D01*
X78909744Y-103317205D01*
X79098102Y-103395226D01*
X79298061Y-103435000D01*
X79501939Y-103435000D01*
X79701898Y-103395226D01*
X79890256Y-103317205D01*
X80059774Y-103203937D01*
X80203937Y-103059774D01*
X80317205Y-102890256D01*
X80395226Y-102701898D01*
X80435000Y-102501939D01*
X80435000Y-102298061D01*
X80395226Y-102098102D01*
X80317205Y-101909744D01*
X80203937Y-101740226D01*
X80059774Y-101596063D01*
X79890256Y-101482795D01*
X79701898Y-101404774D01*
X79501939Y-101365000D01*
X79298061Y-101365000D01*
X79098102Y-101404774D01*
X78909744Y-101482795D01*
X78740226Y-101596063D01*
X78596063Y-101740226D01*
X78482795Y-101909744D01*
X78404774Y-102098102D01*
X78365000Y-102298061D01*
X67694329Y-102298061D01*
X67736500Y-102086055D01*
X67736500Y-101113945D01*
X67546850Y-100160514D01*
X67174840Y-99262401D01*
X66634765Y-98454121D01*
X65947379Y-97766735D01*
X65139099Y-97226660D01*
X64240986Y-96854650D01*
X63287555Y-96665000D01*
X62315445Y-96665000D01*
X61362014Y-96854650D01*
X60463901Y-97226660D01*
X59655621Y-97766735D01*
X58968235Y-98454121D01*
X58428160Y-99262401D01*
X58056150Y-100160514D01*
X57866500Y-101113945D01*
X57866500Y-102086055D01*
X58056150Y-103039486D01*
X58428160Y-103937599D01*
X58968235Y-104745879D01*
X59655621Y-105433265D01*
X60396048Y-105928002D01*
X60342496Y-105903878D01*
X59651580Y-105438728D01*
X59048921Y-104863819D01*
X58551745Y-104195589D01*
X58174265Y-103453142D01*
X57927275Y-102657705D01*
X57815178Y-101811951D01*
X57810000Y-101592215D01*
X57809991Y-94893500D01*
X58328928Y-94893500D01*
X58341188Y-95017982D01*
X58377498Y-95137680D01*
X58436463Y-95247994D01*
X58515815Y-95344685D01*
X58612506Y-95424037D01*
X58722820Y-95483002D01*
X58842518Y-95519312D01*
X58967000Y-95531572D01*
X59531250Y-95528500D01*
X59690000Y-95369750D01*
X59690000Y-94170500D01*
X59944000Y-94170500D01*
X59944000Y-95369750D01*
X60102750Y-95528500D01*
X60667000Y-95531572D01*
X60791482Y-95519312D01*
X60911180Y-95483002D01*
X61021494Y-95424037D01*
X61118185Y-95344685D01*
X61197537Y-95247994D01*
X61256502Y-95137680D01*
X61292812Y-95017982D01*
X61305072Y-94893500D01*
X61302000Y-94329250D01*
X61143250Y-94170500D01*
X59944000Y-94170500D01*
X59690000Y-94170500D01*
X58490750Y-94170500D01*
X58332000Y-94329250D01*
X58328928Y-94893500D01*
X57809991Y-94893500D01*
X57809989Y-93193500D01*
X58328928Y-93193500D01*
X58332000Y-93757750D01*
X58490750Y-93916500D01*
X59690000Y-93916500D01*
X59690000Y-93896500D01*
X59944000Y-93896500D01*
X59944000Y-93916500D01*
X61143250Y-93916500D01*
X61302000Y-93757750D01*
X61305072Y-93193500D01*
X101889928Y-93193500D01*
X101889928Y-94893500D01*
X101902188Y-95017982D01*
X101938498Y-95137680D01*
X101997463Y-95247994D01*
X102076815Y-95344685D01*
X102173506Y-95424037D01*
X102283820Y-95483002D01*
X102403518Y-95519312D01*
X102528000Y-95531572D01*
X104228000Y-95531572D01*
X104352482Y-95519312D01*
X104472180Y-95483002D01*
X104582494Y-95424037D01*
X104679185Y-95344685D01*
X104758537Y-95247994D01*
X104817502Y-95137680D01*
X104853812Y-95017982D01*
X104866072Y-94893500D01*
X104866072Y-93193500D01*
X104853812Y-93069018D01*
X104817502Y-92949320D01*
X104758537Y-92839006D01*
X104679185Y-92742315D01*
X104582494Y-92662963D01*
X104472180Y-92603998D01*
X104399620Y-92581987D01*
X104531475Y-92450132D01*
X104693990Y-92206911D01*
X104805932Y-91936658D01*
X104863000Y-91649760D01*
X104863000Y-91357240D01*
X104805932Y-91070342D01*
X104693990Y-90800089D01*
X104531475Y-90556868D01*
X104324632Y-90350025D01*
X104081411Y-90187510D01*
X103811158Y-90075568D01*
X103524260Y-90018500D01*
X103231740Y-90018500D01*
X102944842Y-90075568D01*
X102674589Y-90187510D01*
X102431368Y-90350025D01*
X102224525Y-90556868D01*
X102062010Y-90800089D01*
X101950068Y-91070342D01*
X101893000Y-91357240D01*
X101893000Y-91649760D01*
X101950068Y-91936658D01*
X102062010Y-92206911D01*
X102224525Y-92450132D01*
X102356380Y-92581987D01*
X102283820Y-92603998D01*
X102173506Y-92662963D01*
X102076815Y-92742315D01*
X101997463Y-92839006D01*
X101938498Y-92949320D01*
X101902188Y-93069018D01*
X101889928Y-93193500D01*
X61305072Y-93193500D01*
X61292812Y-93069018D01*
X61256502Y-92949320D01*
X61197537Y-92839006D01*
X61118185Y-92742315D01*
X61021494Y-92662963D01*
X60911180Y-92603998D01*
X60838620Y-92581987D01*
X60970475Y-92450132D01*
X61132990Y-92206911D01*
X61244932Y-91936658D01*
X61272500Y-91798061D01*
X72865000Y-91798061D01*
X72865000Y-92001939D01*
X72904774Y-92201898D01*
X72982795Y-92390256D01*
X73096063Y-92559774D01*
X73240226Y-92703937D01*
X73409744Y-92817205D01*
X73598102Y-92895226D01*
X73798061Y-92935000D01*
X74001939Y-92935000D01*
X74201898Y-92895226D01*
X74390256Y-92817205D01*
X74559774Y-92703937D01*
X74703937Y-92559774D01*
X74817205Y-92390256D01*
X74895226Y-92201898D01*
X74935000Y-92001939D01*
X74935000Y-91798061D01*
X88765000Y-91798061D01*
X88765000Y-92001939D01*
X88804774Y-92201898D01*
X88882795Y-92390256D01*
X88996063Y-92559774D01*
X89140226Y-92703937D01*
X89309744Y-92817205D01*
X89498102Y-92895226D01*
X89698061Y-92935000D01*
X89901939Y-92935000D01*
X90101898Y-92895226D01*
X90290256Y-92817205D01*
X90459774Y-92703937D01*
X90603937Y-92559774D01*
X90717205Y-92390256D01*
X90795226Y-92201898D01*
X90835000Y-92001939D01*
X90835000Y-91798061D01*
X90795226Y-91598102D01*
X90717205Y-91409744D01*
X90603937Y-91240226D01*
X90459774Y-91096063D01*
X90290256Y-90982795D01*
X90101898Y-90904774D01*
X89901939Y-90865000D01*
X89698061Y-90865000D01*
X89498102Y-90904774D01*
X89309744Y-90982795D01*
X89140226Y-91096063D01*
X88996063Y-91240226D01*
X88882795Y-91409744D01*
X88804774Y-91598102D01*
X88765000Y-91798061D01*
X74935000Y-91798061D01*
X74895226Y-91598102D01*
X74817205Y-91409744D01*
X74703937Y-91240226D01*
X74559774Y-91096063D01*
X74390256Y-90982795D01*
X74201898Y-90904774D01*
X74001939Y-90865000D01*
X73798061Y-90865000D01*
X73598102Y-90904774D01*
X73409744Y-90982795D01*
X73240226Y-91096063D01*
X73096063Y-91240226D01*
X72982795Y-91409744D01*
X72904774Y-91598102D01*
X72865000Y-91798061D01*
X61272500Y-91798061D01*
X61302000Y-91649760D01*
X61302000Y-91357240D01*
X61244932Y-91070342D01*
X61132990Y-90800089D01*
X60970475Y-90556868D01*
X60763632Y-90350025D01*
X60520411Y-90187510D01*
X60250158Y-90075568D01*
X59963260Y-90018500D01*
X59670740Y-90018500D01*
X59383842Y-90075568D01*
X59113589Y-90187510D01*
X58870368Y-90350025D01*
X58663525Y-90556868D01*
X58501010Y-90800089D01*
X58389068Y-91070342D01*
X58332000Y-91357240D01*
X58332000Y-91649760D01*
X58389068Y-91936658D01*
X58501010Y-92206911D01*
X58663525Y-92450132D01*
X58795380Y-92581987D01*
X58722820Y-92603998D01*
X58612506Y-92662963D01*
X58515815Y-92742315D01*
X58436463Y-92839006D01*
X58377498Y-92949320D01*
X58341188Y-93069018D01*
X58328928Y-93193500D01*
X57809989Y-93193500D01*
X57809980Y-86298061D01*
X61565000Y-86298061D01*
X61565000Y-86501939D01*
X61604774Y-86701898D01*
X61682795Y-86890256D01*
X61756123Y-87000000D01*
X61682795Y-87109744D01*
X61604774Y-87298102D01*
X61565000Y-87498061D01*
X61565000Y-87701939D01*
X61604774Y-87901898D01*
X61682795Y-88090256D01*
X61722715Y-88150000D01*
X61682795Y-88209744D01*
X61604774Y-88398102D01*
X61565000Y-88598061D01*
X61565000Y-88801939D01*
X61604774Y-89001898D01*
X61682795Y-89190256D01*
X61756123Y-89300000D01*
X61682795Y-89409744D01*
X61604774Y-89598102D01*
X61565000Y-89798061D01*
X61565000Y-90001939D01*
X61604774Y-90201898D01*
X61682795Y-90390256D01*
X61796063Y-90559774D01*
X61940226Y-90703937D01*
X62109744Y-90817205D01*
X62298102Y-90895226D01*
X62498061Y-90935000D01*
X62701939Y-90935000D01*
X62901898Y-90895226D01*
X63090256Y-90817205D01*
X63259774Y-90703937D01*
X63403937Y-90559774D01*
X63517205Y-90390256D01*
X63595226Y-90201898D01*
X63635000Y-90001939D01*
X63635000Y-89798061D01*
X63595226Y-89598102D01*
X63517205Y-89409744D01*
X63443877Y-89300000D01*
X63517205Y-89190256D01*
X63595226Y-89001898D01*
X63635000Y-88801939D01*
X63635000Y-88598061D01*
X63595226Y-88398102D01*
X63517205Y-88209744D01*
X63477285Y-88150000D01*
X63517205Y-88090256D01*
X63595226Y-87901898D01*
X63635000Y-87701939D01*
X63635000Y-87498061D01*
X63595226Y-87298102D01*
X63517205Y-87109744D01*
X63443877Y-87000000D01*
X63517205Y-86890256D01*
X63595226Y-86701898D01*
X63635000Y-86501939D01*
X63635000Y-86298061D01*
X63595226Y-86098102D01*
X63517205Y-85909744D01*
X63403937Y-85740226D01*
X63259774Y-85596063D01*
X63090256Y-85482795D01*
X62901898Y-85404774D01*
X62701939Y-85365000D01*
X62498061Y-85365000D01*
X62298102Y-85404774D01*
X62109744Y-85482795D01*
X61940226Y-85596063D01*
X61796063Y-85740226D01*
X61682795Y-85909744D01*
X61604774Y-86098102D01*
X61565000Y-86298061D01*
X57809980Y-86298061D01*
X57809978Y-84698061D01*
X67165000Y-84698061D01*
X67165000Y-84901939D01*
X67204774Y-85101898D01*
X67282795Y-85290256D01*
X67356123Y-85400000D01*
X67282795Y-85509744D01*
X67204774Y-85698102D01*
X67165000Y-85898061D01*
X67165000Y-86101939D01*
X67204774Y-86301898D01*
X67282795Y-86490256D01*
X67322715Y-86550000D01*
X67282795Y-86609744D01*
X67204774Y-86798102D01*
X67165000Y-86998061D01*
X67165000Y-87201939D01*
X67204774Y-87401898D01*
X67282795Y-87590256D01*
X67322715Y-87650000D01*
X67282795Y-87709744D01*
X67204774Y-87898102D01*
X67165000Y-88098061D01*
X67165000Y-88301939D01*
X67204774Y-88501898D01*
X67282795Y-88690256D01*
X67356123Y-88800000D01*
X67282795Y-88909744D01*
X67204774Y-89098102D01*
X67165000Y-89298061D01*
X67165000Y-89501939D01*
X67204774Y-89701898D01*
X67282795Y-89890256D01*
X67396063Y-90059774D01*
X67540226Y-90203937D01*
X67709744Y-90317205D01*
X67898102Y-90395226D01*
X68098061Y-90435000D01*
X68301939Y-90435000D01*
X68501898Y-90395226D01*
X68690256Y-90317205D01*
X68859774Y-90203937D01*
X69003937Y-90059774D01*
X69117205Y-89890256D01*
X69195226Y-89701898D01*
X69235000Y-89501939D01*
X69235000Y-89498061D01*
X76865000Y-89498061D01*
X76865000Y-89701939D01*
X76904774Y-89901898D01*
X76982795Y-90090256D01*
X77096063Y-90259774D01*
X77240226Y-90403937D01*
X77409744Y-90517205D01*
X77598102Y-90595226D01*
X77798061Y-90635000D01*
X78001939Y-90635000D01*
X78201898Y-90595226D01*
X78390256Y-90517205D01*
X78559774Y-90403937D01*
X78703937Y-90259774D01*
X78817205Y-90090256D01*
X78895226Y-89901898D01*
X78935000Y-89701939D01*
X78935000Y-89498061D01*
X78895226Y-89298102D01*
X78817205Y-89109744D01*
X78703937Y-88940226D01*
X78559774Y-88796063D01*
X78390256Y-88682795D01*
X78201898Y-88604774D01*
X78001939Y-88565000D01*
X77798061Y-88565000D01*
X77598102Y-88604774D01*
X77409744Y-88682795D01*
X77240226Y-88796063D01*
X77096063Y-88940226D01*
X76982795Y-89109744D01*
X76904774Y-89298102D01*
X76865000Y-89498061D01*
X69235000Y-89498061D01*
X69235000Y-89298061D01*
X69195226Y-89098102D01*
X69117205Y-88909744D01*
X69043877Y-88800000D01*
X69117205Y-88690256D01*
X69195226Y-88501898D01*
X69235000Y-88301939D01*
X69235000Y-88298061D01*
X87965000Y-88298061D01*
X87965000Y-88501939D01*
X88004774Y-88701898D01*
X88082795Y-88890256D01*
X88196063Y-89059774D01*
X88340226Y-89203937D01*
X88509744Y-89317205D01*
X88698102Y-89395226D01*
X88898061Y-89435000D01*
X89101939Y-89435000D01*
X89301898Y-89395226D01*
X89490256Y-89317205D01*
X89659774Y-89203937D01*
X89803937Y-89059774D01*
X89917205Y-88890256D01*
X89995226Y-88701898D01*
X90035000Y-88501939D01*
X90035000Y-88298061D01*
X89995226Y-88098102D01*
X89917205Y-87909744D01*
X89803937Y-87740226D01*
X89659774Y-87596063D01*
X89490256Y-87482795D01*
X89301898Y-87404774D01*
X89101939Y-87365000D01*
X88898061Y-87365000D01*
X88698102Y-87404774D01*
X88509744Y-87482795D01*
X88340226Y-87596063D01*
X88196063Y-87740226D01*
X88082795Y-87909744D01*
X88004774Y-88098102D01*
X87965000Y-88298061D01*
X69235000Y-88298061D01*
X69235000Y-88098061D01*
X69195226Y-87898102D01*
X69117205Y-87709744D01*
X69077285Y-87650000D01*
X69117205Y-87590256D01*
X69195226Y-87401898D01*
X69235000Y-87201939D01*
X69235000Y-86998061D01*
X69195226Y-86798102D01*
X69117205Y-86609744D01*
X69077285Y-86550000D01*
X69117205Y-86490256D01*
X69195226Y-86301898D01*
X69235000Y-86101939D01*
X69235000Y-85898061D01*
X69195226Y-85698102D01*
X69117205Y-85509744D01*
X69043877Y-85400000D01*
X69117205Y-85290256D01*
X69195226Y-85101898D01*
X69235000Y-84901939D01*
X69235000Y-84698061D01*
X69195226Y-84498102D01*
X69117205Y-84309744D01*
X69003937Y-84140226D01*
X68859774Y-83996063D01*
X68690256Y-83882795D01*
X68501898Y-83804774D01*
X68301939Y-83765000D01*
X68098061Y-83765000D01*
X67898102Y-83804774D01*
X67709744Y-83882795D01*
X67540226Y-83996063D01*
X67396063Y-84140226D01*
X67282795Y-84309744D01*
X67204774Y-84498102D01*
X67165000Y-84698061D01*
X57809978Y-84698061D01*
X57809964Y-75588212D01*
X59315000Y-75588212D01*
X59315000Y-75811788D01*
X59358617Y-76031067D01*
X59444176Y-76237624D01*
X59568388Y-76423520D01*
X59726480Y-76581612D01*
X59810122Y-76637500D01*
X59726480Y-76693388D01*
X59568388Y-76851480D01*
X59444176Y-77037376D01*
X59358617Y-77243933D01*
X59315000Y-77463212D01*
X59315000Y-77686788D01*
X59358617Y-77906067D01*
X59444176Y-78112624D01*
X59568388Y-78298520D01*
X59726480Y-78456612D01*
X59810122Y-78512500D01*
X59726480Y-78568388D01*
X59568388Y-78726480D01*
X59444176Y-78912376D01*
X59358617Y-79118933D01*
X59315000Y-79338212D01*
X59315000Y-79561788D01*
X59358617Y-79781067D01*
X59444176Y-79987624D01*
X59568388Y-80173520D01*
X59726480Y-80331612D01*
X59810122Y-80387500D01*
X59726480Y-80443388D01*
X59568388Y-80601480D01*
X59444176Y-80787376D01*
X59358617Y-80993933D01*
X59315000Y-81213212D01*
X59315000Y-81436788D01*
X59358617Y-81656067D01*
X59444176Y-81862624D01*
X59568388Y-82048520D01*
X59726480Y-82206612D01*
X59810122Y-82262500D01*
X59726480Y-82318388D01*
X59568388Y-82476480D01*
X59444176Y-82662376D01*
X59358617Y-82868933D01*
X59315000Y-83088212D01*
X59315000Y-83311788D01*
X59358617Y-83531067D01*
X59444176Y-83737624D01*
X59568388Y-83923520D01*
X59726480Y-84081612D01*
X59912376Y-84205824D01*
X60118933Y-84291383D01*
X60338212Y-84335000D01*
X60561788Y-84335000D01*
X60781067Y-84291383D01*
X60987624Y-84205824D01*
X61173520Y-84081612D01*
X61331612Y-83923520D01*
X61455824Y-83737624D01*
X61541383Y-83531067D01*
X61585000Y-83311788D01*
X61585000Y-83088212D01*
X61541383Y-82868933D01*
X61455824Y-82662376D01*
X61331612Y-82476480D01*
X61173520Y-82318388D01*
X61089878Y-82262500D01*
X61173520Y-82206612D01*
X61331612Y-82048520D01*
X61455824Y-81862624D01*
X61541383Y-81656067D01*
X61585000Y-81436788D01*
X61585000Y-81213212D01*
X61541383Y-80993933D01*
X61455824Y-80787376D01*
X61331612Y-80601480D01*
X61173520Y-80443388D01*
X61089878Y-80387500D01*
X61173520Y-80331612D01*
X61331612Y-80173520D01*
X61447554Y-80000000D01*
X69873000Y-80000000D01*
X69873000Y-87000000D01*
X69875440Y-87024776D01*
X69882667Y-87048601D01*
X69894403Y-87070557D01*
X69910197Y-87089803D01*
X69929443Y-87105597D01*
X69951399Y-87117333D01*
X69975224Y-87124560D01*
X70000000Y-87127000D01*
X70857842Y-87127000D01*
X70898061Y-87135000D01*
X71101939Y-87135000D01*
X71142158Y-87127000D01*
X76000000Y-87127000D01*
X76024776Y-87124560D01*
X76048601Y-87117333D01*
X76070557Y-87105597D01*
X76089803Y-87089803D01*
X76105597Y-87070557D01*
X76117333Y-87048601D01*
X76124560Y-87024776D01*
X76127000Y-87000000D01*
X76127000Y-84498061D01*
X78165000Y-84498061D01*
X78165000Y-84701939D01*
X78204774Y-84901898D01*
X78282795Y-85090256D01*
X78396063Y-85259774D01*
X78540226Y-85403937D01*
X78709744Y-85517205D01*
X78898102Y-85595226D01*
X79098061Y-85635000D01*
X79301939Y-85635000D01*
X79501898Y-85595226D01*
X79690256Y-85517205D01*
X79859774Y-85403937D01*
X80003937Y-85259774D01*
X80117205Y-85090256D01*
X80195226Y-84901898D01*
X80217839Y-84788212D01*
X99665000Y-84788212D01*
X99665000Y-85011788D01*
X99708617Y-85231067D01*
X99794176Y-85437624D01*
X99918388Y-85623520D01*
X100076480Y-85781612D01*
X100262376Y-85905824D01*
X100468933Y-85991383D01*
X100688212Y-86035000D01*
X100911788Y-86035000D01*
X101131067Y-85991383D01*
X101337624Y-85905824D01*
X101523520Y-85781612D01*
X101681612Y-85623520D01*
X101805824Y-85437624D01*
X101891383Y-85231067D01*
X101935000Y-85011788D01*
X101935000Y-84788212D01*
X101891383Y-84568933D01*
X101805824Y-84362376D01*
X101681612Y-84176480D01*
X101523520Y-84018388D01*
X101337624Y-83894176D01*
X101131067Y-83808617D01*
X100911788Y-83765000D01*
X100688212Y-83765000D01*
X100468933Y-83808617D01*
X100262376Y-83894176D01*
X100076480Y-84018388D01*
X99918388Y-84176480D01*
X99794176Y-84362376D01*
X99708617Y-84568933D01*
X99665000Y-84788212D01*
X80217839Y-84788212D01*
X80235000Y-84701939D01*
X80235000Y-84498061D01*
X80195226Y-84298102D01*
X80117205Y-84109744D01*
X80003937Y-83940226D01*
X79859774Y-83796063D01*
X79690256Y-83682795D01*
X79501898Y-83604774D01*
X79301939Y-83565000D01*
X79098061Y-83565000D01*
X78898102Y-83604774D01*
X78709744Y-83682795D01*
X78540226Y-83796063D01*
X78396063Y-83940226D01*
X78282795Y-84109744D01*
X78204774Y-84298102D01*
X78165000Y-84498061D01*
X76127000Y-84498061D01*
X76127000Y-84427000D01*
X76200000Y-84427000D01*
X76224776Y-84424560D01*
X76248601Y-84417333D01*
X76270557Y-84405597D01*
X76289803Y-84389803D01*
X76305597Y-84370557D01*
X76317333Y-84348601D01*
X76324560Y-84324776D01*
X76326999Y-84299603D01*
X76319898Y-82027318D01*
X78200934Y-82032000D01*
X78225716Y-82029621D01*
X78249559Y-82022453D01*
X78271544Y-82010772D01*
X78290829Y-81995026D01*
X78296449Y-81988212D01*
X78965000Y-81988212D01*
X78965000Y-82211788D01*
X79008617Y-82431067D01*
X79094176Y-82637624D01*
X79218388Y-82823520D01*
X79376480Y-82981612D01*
X79562376Y-83105824D01*
X79768933Y-83191383D01*
X79988212Y-83235000D01*
X80211788Y-83235000D01*
X80431067Y-83191383D01*
X80637624Y-83105824D01*
X80823520Y-82981612D01*
X80981612Y-82823520D01*
X81105824Y-82637624D01*
X81191383Y-82431067D01*
X81235000Y-82211788D01*
X81235000Y-81988212D01*
X81191383Y-81768933D01*
X81105824Y-81562376D01*
X80981612Y-81376480D01*
X80823520Y-81218388D01*
X80637624Y-81094176D01*
X80431067Y-81008617D01*
X80211788Y-80965000D01*
X79988212Y-80965000D01*
X79768933Y-81008617D01*
X79562376Y-81094176D01*
X79376480Y-81218388D01*
X79218388Y-81376480D01*
X79094176Y-81562376D01*
X79008617Y-81768933D01*
X78965000Y-81988212D01*
X78296449Y-81988212D01*
X78306671Y-81975820D01*
X78318461Y-81953893D01*
X78325748Y-81930086D01*
X78328250Y-81904686D01*
X78325750Y-80894686D01*
X78323248Y-80869915D01*
X78315962Y-80846109D01*
X78304172Y-80824181D01*
X78288330Y-80804975D01*
X78269046Y-80789229D01*
X78247060Y-80777547D01*
X78223218Y-80770379D01*
X78199037Y-80768000D01*
X76118432Y-80763290D01*
X76126992Y-80001427D01*
X76124830Y-79976625D01*
X76117871Y-79952721D01*
X76106383Y-79930633D01*
X76090806Y-79911212D01*
X76071739Y-79895203D01*
X76049916Y-79883221D01*
X76026174Y-79875727D01*
X76000000Y-79873000D01*
X75066609Y-79873000D01*
X74901898Y-79804774D01*
X74868150Y-79798061D01*
X99465000Y-79798061D01*
X99465000Y-80001939D01*
X99504774Y-80201898D01*
X99582795Y-80390256D01*
X99696063Y-80559774D01*
X99840226Y-80703937D01*
X100009744Y-80817205D01*
X100198102Y-80895226D01*
X100398061Y-80935000D01*
X100601939Y-80935000D01*
X100801898Y-80895226D01*
X100990256Y-80817205D01*
X101159774Y-80703937D01*
X101303937Y-80559774D01*
X101417205Y-80390256D01*
X101495226Y-80201898D01*
X101535000Y-80001939D01*
X101535000Y-79798061D01*
X101495226Y-79598102D01*
X101417205Y-79409744D01*
X101303937Y-79240226D01*
X101159774Y-79096063D01*
X100990256Y-78982795D01*
X100801898Y-78904774D01*
X100601939Y-78865000D01*
X100398061Y-78865000D01*
X100198102Y-78904774D01*
X100009744Y-78982795D01*
X99840226Y-79096063D01*
X99696063Y-79240226D01*
X99582795Y-79409744D01*
X99504774Y-79598102D01*
X99465000Y-79798061D01*
X74868150Y-79798061D01*
X74701939Y-79765000D01*
X74498061Y-79765000D01*
X74298102Y-79804774D01*
X74133391Y-79873000D01*
X70000000Y-79873000D01*
X69975224Y-79875440D01*
X69951399Y-79882667D01*
X69929443Y-79894403D01*
X69910197Y-79910197D01*
X69894403Y-79929443D01*
X69882667Y-79951399D01*
X69875440Y-79975224D01*
X69873000Y-80000000D01*
X61447554Y-80000000D01*
X61455824Y-79987624D01*
X61541383Y-79781067D01*
X61585000Y-79561788D01*
X61585000Y-79338212D01*
X61541383Y-79118933D01*
X61455824Y-78912376D01*
X61331612Y-78726480D01*
X61173520Y-78568388D01*
X61089878Y-78512500D01*
X61173520Y-78456612D01*
X61331612Y-78298520D01*
X61398736Y-78198061D01*
X90065000Y-78198061D01*
X90065000Y-78401939D01*
X90104774Y-78601898D01*
X90182795Y-78790256D01*
X90296063Y-78959774D01*
X90440226Y-79103937D01*
X90609744Y-79217205D01*
X90798102Y-79295226D01*
X90998061Y-79335000D01*
X91201939Y-79335000D01*
X91401898Y-79295226D01*
X91590256Y-79217205D01*
X91759774Y-79103937D01*
X91903937Y-78959774D01*
X92017205Y-78790256D01*
X92095226Y-78601898D01*
X92135000Y-78401939D01*
X92135000Y-78198061D01*
X92095226Y-77998102D01*
X92017205Y-77809744D01*
X91903937Y-77640226D01*
X91759774Y-77496063D01*
X91590256Y-77382795D01*
X91401898Y-77304774D01*
X91201939Y-77265000D01*
X90998061Y-77265000D01*
X90798102Y-77304774D01*
X90609744Y-77382795D01*
X90440226Y-77496063D01*
X90296063Y-77640226D01*
X90182795Y-77809744D01*
X90104774Y-77998102D01*
X90065000Y-78198061D01*
X61398736Y-78198061D01*
X61455824Y-78112624D01*
X61541383Y-77906067D01*
X61585000Y-77686788D01*
X61585000Y-77463212D01*
X61541383Y-77243933D01*
X61455824Y-77037376D01*
X61331612Y-76851480D01*
X61173520Y-76693388D01*
X61089878Y-76637500D01*
X61173520Y-76581612D01*
X61331612Y-76423520D01*
X61455824Y-76237624D01*
X61541383Y-76031067D01*
X61585000Y-75811788D01*
X61585000Y-75588212D01*
X61541383Y-75368933D01*
X61455824Y-75162376D01*
X61331612Y-74976480D01*
X61173520Y-74818388D01*
X60987624Y-74694176D01*
X60781067Y-74608617D01*
X60561788Y-74565000D01*
X60338212Y-74565000D01*
X60118933Y-74608617D01*
X59912376Y-74694176D01*
X59726480Y-74818388D01*
X59568388Y-74976480D01*
X59444176Y-75162376D01*
X59358617Y-75368933D01*
X59315000Y-75588212D01*
X57809964Y-75588212D01*
X57809960Y-72898061D01*
X76965000Y-72898061D01*
X76965000Y-73101939D01*
X77004774Y-73301898D01*
X77082795Y-73490256D01*
X77122715Y-73550000D01*
X77082795Y-73609744D01*
X77004774Y-73798102D01*
X76965000Y-73998061D01*
X76965000Y-74201939D01*
X77004774Y-74401898D01*
X77082795Y-74590256D01*
X77196063Y-74759774D01*
X77340226Y-74903937D01*
X77509744Y-75017205D01*
X77698102Y-75095226D01*
X77898061Y-75135000D01*
X77930912Y-75135000D01*
X77904774Y-75198102D01*
X77865000Y-75398061D01*
X77865000Y-75601939D01*
X77904774Y-75801898D01*
X77982795Y-75990256D01*
X78096063Y-76159774D01*
X78240226Y-76303937D01*
X78409744Y-76417205D01*
X78598102Y-76495226D01*
X78798061Y-76535000D01*
X79001939Y-76535000D01*
X79201898Y-76495226D01*
X79390256Y-76417205D01*
X79559774Y-76303937D01*
X79703937Y-76159774D01*
X79817205Y-75990256D01*
X79895226Y-75801898D01*
X79935000Y-75601939D01*
X79935000Y-75398061D01*
X79895226Y-75198102D01*
X79817205Y-75009744D01*
X79703937Y-74840226D01*
X79559774Y-74696063D01*
X79390256Y-74582795D01*
X79201898Y-74504774D01*
X79001939Y-74465000D01*
X78969088Y-74465000D01*
X78995226Y-74401898D01*
X79035000Y-74201939D01*
X79035000Y-73998061D01*
X78995226Y-73798102D01*
X78917205Y-73609744D01*
X78877285Y-73550000D01*
X78917205Y-73490256D01*
X78995226Y-73301898D01*
X79035000Y-73101939D01*
X79035000Y-72898061D01*
X78995226Y-72698102D01*
X78917205Y-72509744D01*
X78803937Y-72340226D01*
X78659774Y-72196063D01*
X78490256Y-72082795D01*
X78301898Y-72004774D01*
X78101939Y-71965000D01*
X77898061Y-71965000D01*
X77698102Y-72004774D01*
X77509744Y-72082795D01*
X77340226Y-72196063D01*
X77196063Y-72340226D01*
X77082795Y-72509744D01*
X77004774Y-72698102D01*
X76965000Y-72898061D01*
X57809960Y-72898061D01*
X57809951Y-67273586D01*
X57941850Y-67936686D01*
X58313860Y-68834799D01*
X58853935Y-69643079D01*
X59541321Y-70330465D01*
X60349601Y-70870540D01*
X61247714Y-71242550D01*
X62201145Y-71432200D01*
X63173255Y-71432200D01*
X64126686Y-71242550D01*
X65024799Y-70870540D01*
X65833079Y-70330465D01*
X66520465Y-69643079D01*
X67060540Y-68834799D01*
X67432550Y-67936686D01*
X67622200Y-66983255D01*
X67622200Y-66011145D01*
X67432550Y-65057714D01*
X67060540Y-64159601D01*
X66520465Y-63351321D01*
X66322884Y-63153740D01*
X80075000Y-63153740D01*
X80075000Y-63446260D01*
X80132068Y-63733158D01*
X80244010Y-64003411D01*
X80406525Y-64246632D01*
X80613368Y-64453475D01*
X80856589Y-64615990D01*
X81126842Y-64727932D01*
X81413740Y-64785000D01*
X81706260Y-64785000D01*
X81993158Y-64727932D01*
X82263411Y-64615990D01*
X82506632Y-64453475D01*
X82638487Y-64321620D01*
X82660498Y-64394180D01*
X82719463Y-64504494D01*
X82798815Y-64601185D01*
X82895506Y-64680537D01*
X83005820Y-64739502D01*
X83125518Y-64775812D01*
X83250000Y-64788072D01*
X84950000Y-64788072D01*
X85074482Y-64775812D01*
X85194180Y-64739502D01*
X85304494Y-64680537D01*
X85401185Y-64601185D01*
X85480537Y-64504494D01*
X85539502Y-64394180D01*
X85575812Y-64274482D01*
X85588072Y-64150000D01*
X85588072Y-62450000D01*
X85575812Y-62325518D01*
X85539502Y-62205820D01*
X85480537Y-62095506D01*
X85401185Y-61998815D01*
X85304494Y-61919463D01*
X85194180Y-61860498D01*
X85074482Y-61824188D01*
X84950000Y-61811928D01*
X83250000Y-61811928D01*
X83125518Y-61824188D01*
X83005820Y-61860498D01*
X82895506Y-61919463D01*
X82798815Y-61998815D01*
X82719463Y-62095506D01*
X82660498Y-62205820D01*
X82638487Y-62278380D01*
X82506632Y-62146525D01*
X82263411Y-61984010D01*
X81993158Y-61872068D01*
X81706260Y-61815000D01*
X81413740Y-61815000D01*
X81126842Y-61872068D01*
X80856589Y-61984010D01*
X80613368Y-62146525D01*
X80406525Y-62353368D01*
X80244010Y-62596589D01*
X80132068Y-62866842D01*
X80075000Y-63153740D01*
X66322884Y-63153740D01*
X65833079Y-62663935D01*
X65024799Y-62123860D01*
X64127958Y-61752377D01*
X100061929Y-61771643D01*
G37*
X100061929Y-61771643D02*
X99211601Y-62123860D01*
X98403321Y-62663935D01*
X97715935Y-63351321D01*
X97175860Y-64159601D01*
X96803850Y-65057714D01*
X96614200Y-66011145D01*
X96614200Y-66983255D01*
X96803850Y-67936686D01*
X97175860Y-68834799D01*
X97715935Y-69643079D01*
X98403321Y-70330465D01*
X99211601Y-70870540D01*
X100109714Y-71242550D01*
X101063145Y-71432200D01*
X102035255Y-71432200D01*
X102988686Y-71242550D01*
X103886799Y-70870540D01*
X104695079Y-70330465D01*
X105382465Y-69643079D01*
X105922540Y-68834799D01*
X106294550Y-67936686D01*
X106484200Y-66983255D01*
X106484200Y-66242742D01*
X106505407Y-66361798D01*
X106527999Y-66904974D01*
X106528001Y-101508535D01*
X106454301Y-102377117D01*
X106242360Y-103193693D01*
X105895861Y-103962891D01*
X105424716Y-104662708D01*
X104842394Y-105273139D01*
X104165550Y-105776724D01*
X103911690Y-105905793D01*
X104618879Y-105433265D01*
X105306265Y-104745879D01*
X105846340Y-103937599D01*
X106218350Y-103039486D01*
X106408000Y-102086055D01*
X106408000Y-101113945D01*
X106218350Y-100160514D01*
X105846340Y-99262401D01*
X105306265Y-98454121D01*
X104618879Y-97766735D01*
X103810599Y-97226660D01*
X102912486Y-96854650D01*
X101959055Y-96665000D01*
X100986945Y-96665000D01*
X100033514Y-96854650D01*
X99135401Y-97226660D01*
X98327121Y-97766735D01*
X97639735Y-98454121D01*
X97099660Y-99262401D01*
X96727650Y-100160514D01*
X96538000Y-101113945D01*
X96538000Y-102086055D01*
X96727650Y-103039486D01*
X97099660Y-103937599D01*
X97639735Y-104745879D01*
X98327121Y-105433265D01*
X99135401Y-105973340D01*
X100033514Y-106345350D01*
X100951754Y-106528000D01*
X63322746Y-106528000D01*
X64240986Y-106345350D01*
X65139099Y-105973340D01*
X65947379Y-105433265D01*
X66634765Y-104745879D01*
X67055970Y-104115500D01*
X69568428Y-104115500D01*
X69568428Y-105815500D01*
X69580688Y-105939982D01*
X69616998Y-106059680D01*
X69675963Y-106169994D01*
X69755315Y-106266685D01*
X69852006Y-106346037D01*
X69962320Y-106405002D01*
X70082018Y-106441312D01*
X70206500Y-106453572D01*
X71906500Y-106453572D01*
X72030982Y-106441312D01*
X72150680Y-106405002D01*
X72260994Y-106346037D01*
X72357685Y-106266685D01*
X72437037Y-106169994D01*
X72496002Y-106059680D01*
X72518013Y-105987120D01*
X72649868Y-106118975D01*
X72893089Y-106281490D01*
X73163342Y-106393432D01*
X73450240Y-106450500D01*
X73742760Y-106450500D01*
X74029658Y-106393432D01*
X74299911Y-106281490D01*
X74543132Y-106118975D01*
X74749975Y-105912132D01*
X74912490Y-105668911D01*
X75024432Y-105398658D01*
X75081500Y-105111760D01*
X75081500Y-104819240D01*
X75037505Y-104598061D01*
X75865000Y-104598061D01*
X75865000Y-104801939D01*
X75904774Y-105001898D01*
X75982795Y-105190256D01*
X76096063Y-105359774D01*
X76240226Y-105503937D01*
X76409744Y-105617205D01*
X76598102Y-105695226D01*
X76798061Y-105735000D01*
X77001939Y-105735000D01*
X77201898Y-105695226D01*
X77390256Y-105617205D01*
X77559774Y-105503937D01*
X77703937Y-105359774D01*
X77817205Y-105190256D01*
X77895226Y-105001898D01*
X77935000Y-104801939D01*
X77935000Y-104598061D01*
X77895226Y-104398102D01*
X77817205Y-104209744D01*
X77754234Y-104115500D01*
X80045928Y-104115500D01*
X80045928Y-105815500D01*
X80058188Y-105939982D01*
X80094498Y-106059680D01*
X80153463Y-106169994D01*
X80232815Y-106266685D01*
X80329506Y-106346037D01*
X80439820Y-106405002D01*
X80559518Y-106441312D01*
X80684000Y-106453572D01*
X82384000Y-106453572D01*
X82508482Y-106441312D01*
X82628180Y-106405002D01*
X82738494Y-106346037D01*
X82835185Y-106266685D01*
X82914537Y-106169994D01*
X82973502Y-106059680D01*
X82995513Y-105987120D01*
X83127368Y-106118975D01*
X83370589Y-106281490D01*
X83640842Y-106393432D01*
X83927740Y-106450500D01*
X84220260Y-106450500D01*
X84507158Y-106393432D01*
X84777411Y-106281490D01*
X85020632Y-106118975D01*
X85227475Y-105912132D01*
X85344000Y-105737740D01*
X85460525Y-105912132D01*
X85667368Y-106118975D01*
X85910589Y-106281490D01*
X86180842Y-106393432D01*
X86467740Y-106450500D01*
X86760260Y-106450500D01*
X87047158Y-106393432D01*
X87317411Y-106281490D01*
X87560632Y-106118975D01*
X87767475Y-105912132D01*
X87884000Y-105737740D01*
X88000525Y-105912132D01*
X88207368Y-106118975D01*
X88450589Y-106281490D01*
X88720842Y-106393432D01*
X89007740Y-106450500D01*
X89300260Y-106450500D01*
X89587158Y-106393432D01*
X89857411Y-106281490D01*
X90100632Y-106118975D01*
X90307475Y-105912132D01*
X90469990Y-105668911D01*
X90581932Y-105398658D01*
X90639000Y-105111760D01*
X90639000Y-104819240D01*
X90581932Y-104532342D01*
X90469990Y-104262089D01*
X90307475Y-104018868D01*
X90100632Y-103812025D01*
X89857411Y-103649510D01*
X89587158Y-103537568D01*
X89300260Y-103480500D01*
X89007740Y-103480500D01*
X88720842Y-103537568D01*
X88450589Y-103649510D01*
X88207368Y-103812025D01*
X88000525Y-104018868D01*
X87884000Y-104193260D01*
X87767475Y-104018868D01*
X87560632Y-103812025D01*
X87317411Y-103649510D01*
X87047158Y-103537568D01*
X86760260Y-103480500D01*
X86467740Y-103480500D01*
X86180842Y-103537568D01*
X85910589Y-103649510D01*
X85667368Y-103812025D01*
X85460525Y-104018868D01*
X85344000Y-104193260D01*
X85227475Y-104018868D01*
X85020632Y-103812025D01*
X84777411Y-103649510D01*
X84507158Y-103537568D01*
X84220260Y-103480500D01*
X83927740Y-103480500D01*
X83640842Y-103537568D01*
X83370589Y-103649510D01*
X83127368Y-103812025D01*
X82995513Y-103943880D01*
X82973502Y-103871320D01*
X82914537Y-103761006D01*
X82835185Y-103664315D01*
X82738494Y-103584963D01*
X82628180Y-103525998D01*
X82508482Y-103489688D01*
X82384000Y-103477428D01*
X80684000Y-103477428D01*
X80559518Y-103489688D01*
X80439820Y-103525998D01*
X80329506Y-103584963D01*
X80232815Y-103664315D01*
X80153463Y-103761006D01*
X80094498Y-103871320D01*
X80058188Y-103991018D01*
X80045928Y-104115500D01*
X77754234Y-104115500D01*
X77703937Y-104040226D01*
X77559774Y-103896063D01*
X77390256Y-103782795D01*
X77201898Y-103704774D01*
X77001939Y-103665000D01*
X76798061Y-103665000D01*
X76598102Y-103704774D01*
X76409744Y-103782795D01*
X76240226Y-103896063D01*
X76096063Y-104040226D01*
X75982795Y-104209744D01*
X75904774Y-104398102D01*
X75865000Y-104598061D01*
X75037505Y-104598061D01*
X75024432Y-104532342D01*
X74912490Y-104262089D01*
X74749975Y-104018868D01*
X74543132Y-103812025D01*
X74299911Y-103649510D01*
X74029658Y-103537568D01*
X73742760Y-103480500D01*
X73450240Y-103480500D01*
X73163342Y-103537568D01*
X72893089Y-103649510D01*
X72649868Y-103812025D01*
X72518013Y-103943880D01*
X72496002Y-103871320D01*
X72437037Y-103761006D01*
X72357685Y-103664315D01*
X72260994Y-103584963D01*
X72150680Y-103525998D01*
X72030982Y-103489688D01*
X71906500Y-103477428D01*
X70206500Y-103477428D01*
X70082018Y-103489688D01*
X69962320Y-103525998D01*
X69852006Y-103584963D01*
X69755315Y-103664315D01*
X69675963Y-103761006D01*
X69616998Y-103871320D01*
X69580688Y-103991018D01*
X69568428Y-104115500D01*
X67055970Y-104115500D01*
X67174840Y-103937599D01*
X67546850Y-103039486D01*
X67694329Y-102298061D01*
X78365000Y-102298061D01*
X78365000Y-102501939D01*
X78404774Y-102701898D01*
X78482795Y-102890256D01*
X78596063Y-103059774D01*
X78740226Y-103203937D01*
X78909744Y-103317205D01*
X79098102Y-103395226D01*
X79298061Y-103435000D01*
X79501939Y-103435000D01*
X79701898Y-103395226D01*
X79890256Y-103317205D01*
X80059774Y-103203937D01*
X80203937Y-103059774D01*
X80317205Y-102890256D01*
X80395226Y-102701898D01*
X80435000Y-102501939D01*
X80435000Y-102298061D01*
X80395226Y-102098102D01*
X80317205Y-101909744D01*
X80203937Y-101740226D01*
X80059774Y-101596063D01*
X79890256Y-101482795D01*
X79701898Y-101404774D01*
X79501939Y-101365000D01*
X79298061Y-101365000D01*
X79098102Y-101404774D01*
X78909744Y-101482795D01*
X78740226Y-101596063D01*
X78596063Y-101740226D01*
X78482795Y-101909744D01*
X78404774Y-102098102D01*
X78365000Y-102298061D01*
X67694329Y-102298061D01*
X67736500Y-102086055D01*
X67736500Y-101113945D01*
X67546850Y-100160514D01*
X67174840Y-99262401D01*
X66634765Y-98454121D01*
X65947379Y-97766735D01*
X65139099Y-97226660D01*
X64240986Y-96854650D01*
X63287555Y-96665000D01*
X62315445Y-96665000D01*
X61362014Y-96854650D01*
X60463901Y-97226660D01*
X59655621Y-97766735D01*
X58968235Y-98454121D01*
X58428160Y-99262401D01*
X58056150Y-100160514D01*
X57866500Y-101113945D01*
X57866500Y-102086055D01*
X58056150Y-103039486D01*
X58428160Y-103937599D01*
X58968235Y-104745879D01*
X59655621Y-105433265D01*
X60396048Y-105928002D01*
X60342496Y-105903878D01*
X59651580Y-105438728D01*
X59048921Y-104863819D01*
X58551745Y-104195589D01*
X58174265Y-103453142D01*
X57927275Y-102657705D01*
X57815178Y-101811951D01*
X57810000Y-101592215D01*
X57809991Y-94893500D01*
X58328928Y-94893500D01*
X58341188Y-95017982D01*
X58377498Y-95137680D01*
X58436463Y-95247994D01*
X58515815Y-95344685D01*
X58612506Y-95424037D01*
X58722820Y-95483002D01*
X58842518Y-95519312D01*
X58967000Y-95531572D01*
X59531250Y-95528500D01*
X59690000Y-95369750D01*
X59690000Y-94170500D01*
X59944000Y-94170500D01*
X59944000Y-95369750D01*
X60102750Y-95528500D01*
X60667000Y-95531572D01*
X60791482Y-95519312D01*
X60911180Y-95483002D01*
X61021494Y-95424037D01*
X61118185Y-95344685D01*
X61197537Y-95247994D01*
X61256502Y-95137680D01*
X61292812Y-95017982D01*
X61305072Y-94893500D01*
X61302000Y-94329250D01*
X61143250Y-94170500D01*
X59944000Y-94170500D01*
X59690000Y-94170500D01*
X58490750Y-94170500D01*
X58332000Y-94329250D01*
X58328928Y-94893500D01*
X57809991Y-94893500D01*
X57809989Y-93193500D01*
X58328928Y-93193500D01*
X58332000Y-93757750D01*
X58490750Y-93916500D01*
X59690000Y-93916500D01*
X59690000Y-93896500D01*
X59944000Y-93896500D01*
X59944000Y-93916500D01*
X61143250Y-93916500D01*
X61302000Y-93757750D01*
X61305072Y-93193500D01*
X101889928Y-93193500D01*
X101889928Y-94893500D01*
X101902188Y-95017982D01*
X101938498Y-95137680D01*
X101997463Y-95247994D01*
X102076815Y-95344685D01*
X102173506Y-95424037D01*
X102283820Y-95483002D01*
X102403518Y-95519312D01*
X102528000Y-95531572D01*
X104228000Y-95531572D01*
X104352482Y-95519312D01*
X104472180Y-95483002D01*
X104582494Y-95424037D01*
X104679185Y-95344685D01*
X104758537Y-95247994D01*
X104817502Y-95137680D01*
X104853812Y-95017982D01*
X104866072Y-94893500D01*
X104866072Y-93193500D01*
X104853812Y-93069018D01*
X104817502Y-92949320D01*
X104758537Y-92839006D01*
X104679185Y-92742315D01*
X104582494Y-92662963D01*
X104472180Y-92603998D01*
X104399620Y-92581987D01*
X104531475Y-92450132D01*
X104693990Y-92206911D01*
X104805932Y-91936658D01*
X104863000Y-91649760D01*
X104863000Y-91357240D01*
X104805932Y-91070342D01*
X104693990Y-90800089D01*
X104531475Y-90556868D01*
X104324632Y-90350025D01*
X104081411Y-90187510D01*
X103811158Y-90075568D01*
X103524260Y-90018500D01*
X103231740Y-90018500D01*
X102944842Y-90075568D01*
X102674589Y-90187510D01*
X102431368Y-90350025D01*
X102224525Y-90556868D01*
X102062010Y-90800089D01*
X101950068Y-91070342D01*
X101893000Y-91357240D01*
X101893000Y-91649760D01*
X101950068Y-91936658D01*
X102062010Y-92206911D01*
X102224525Y-92450132D01*
X102356380Y-92581987D01*
X102283820Y-92603998D01*
X102173506Y-92662963D01*
X102076815Y-92742315D01*
X101997463Y-92839006D01*
X101938498Y-92949320D01*
X101902188Y-93069018D01*
X101889928Y-93193500D01*
X61305072Y-93193500D01*
X61292812Y-93069018D01*
X61256502Y-92949320D01*
X61197537Y-92839006D01*
X61118185Y-92742315D01*
X61021494Y-92662963D01*
X60911180Y-92603998D01*
X60838620Y-92581987D01*
X60970475Y-92450132D01*
X61132990Y-92206911D01*
X61244932Y-91936658D01*
X61272500Y-91798061D01*
X72865000Y-91798061D01*
X72865000Y-92001939D01*
X72904774Y-92201898D01*
X72982795Y-92390256D01*
X73096063Y-92559774D01*
X73240226Y-92703937D01*
X73409744Y-92817205D01*
X73598102Y-92895226D01*
X73798061Y-92935000D01*
X74001939Y-92935000D01*
X74201898Y-92895226D01*
X74390256Y-92817205D01*
X74559774Y-92703937D01*
X74703937Y-92559774D01*
X74817205Y-92390256D01*
X74895226Y-92201898D01*
X74935000Y-92001939D01*
X74935000Y-91798061D01*
X88765000Y-91798061D01*
X88765000Y-92001939D01*
X88804774Y-92201898D01*
X88882795Y-92390256D01*
X88996063Y-92559774D01*
X89140226Y-92703937D01*
X89309744Y-92817205D01*
X89498102Y-92895226D01*
X89698061Y-92935000D01*
X89901939Y-92935000D01*
X90101898Y-92895226D01*
X90290256Y-92817205D01*
X90459774Y-92703937D01*
X90603937Y-92559774D01*
X90717205Y-92390256D01*
X90795226Y-92201898D01*
X90835000Y-92001939D01*
X90835000Y-91798061D01*
X90795226Y-91598102D01*
X90717205Y-91409744D01*
X90603937Y-91240226D01*
X90459774Y-91096063D01*
X90290256Y-90982795D01*
X90101898Y-90904774D01*
X89901939Y-90865000D01*
X89698061Y-90865000D01*
X89498102Y-90904774D01*
X89309744Y-90982795D01*
X89140226Y-91096063D01*
X88996063Y-91240226D01*
X88882795Y-91409744D01*
X88804774Y-91598102D01*
X88765000Y-91798061D01*
X74935000Y-91798061D01*
X74895226Y-91598102D01*
X74817205Y-91409744D01*
X74703937Y-91240226D01*
X74559774Y-91096063D01*
X74390256Y-90982795D01*
X74201898Y-90904774D01*
X74001939Y-90865000D01*
X73798061Y-90865000D01*
X73598102Y-90904774D01*
X73409744Y-90982795D01*
X73240226Y-91096063D01*
X73096063Y-91240226D01*
X72982795Y-91409744D01*
X72904774Y-91598102D01*
X72865000Y-91798061D01*
X61272500Y-91798061D01*
X61302000Y-91649760D01*
X61302000Y-91357240D01*
X61244932Y-91070342D01*
X61132990Y-90800089D01*
X60970475Y-90556868D01*
X60763632Y-90350025D01*
X60520411Y-90187510D01*
X60250158Y-90075568D01*
X59963260Y-90018500D01*
X59670740Y-90018500D01*
X59383842Y-90075568D01*
X59113589Y-90187510D01*
X58870368Y-90350025D01*
X58663525Y-90556868D01*
X58501010Y-90800089D01*
X58389068Y-91070342D01*
X58332000Y-91357240D01*
X58332000Y-91649760D01*
X58389068Y-91936658D01*
X58501010Y-92206911D01*
X58663525Y-92450132D01*
X58795380Y-92581987D01*
X58722820Y-92603998D01*
X58612506Y-92662963D01*
X58515815Y-92742315D01*
X58436463Y-92839006D01*
X58377498Y-92949320D01*
X58341188Y-93069018D01*
X58328928Y-93193500D01*
X57809989Y-93193500D01*
X57809980Y-86298061D01*
X61565000Y-86298061D01*
X61565000Y-86501939D01*
X61604774Y-86701898D01*
X61682795Y-86890256D01*
X61756123Y-87000000D01*
X61682795Y-87109744D01*
X61604774Y-87298102D01*
X61565000Y-87498061D01*
X61565000Y-87701939D01*
X61604774Y-87901898D01*
X61682795Y-88090256D01*
X61722715Y-88150000D01*
X61682795Y-88209744D01*
X61604774Y-88398102D01*
X61565000Y-88598061D01*
X61565000Y-88801939D01*
X61604774Y-89001898D01*
X61682795Y-89190256D01*
X61756123Y-89300000D01*
X61682795Y-89409744D01*
X61604774Y-89598102D01*
X61565000Y-89798061D01*
X61565000Y-90001939D01*
X61604774Y-90201898D01*
X61682795Y-90390256D01*
X61796063Y-90559774D01*
X61940226Y-90703937D01*
X62109744Y-90817205D01*
X62298102Y-90895226D01*
X62498061Y-90935000D01*
X62701939Y-90935000D01*
X62901898Y-90895226D01*
X63090256Y-90817205D01*
X63259774Y-90703937D01*
X63403937Y-90559774D01*
X63517205Y-90390256D01*
X63595226Y-90201898D01*
X63635000Y-90001939D01*
X63635000Y-89798061D01*
X63595226Y-89598102D01*
X63517205Y-89409744D01*
X63443877Y-89300000D01*
X63517205Y-89190256D01*
X63595226Y-89001898D01*
X63635000Y-88801939D01*
X63635000Y-88598061D01*
X63595226Y-88398102D01*
X63517205Y-88209744D01*
X63477285Y-88150000D01*
X63517205Y-88090256D01*
X63595226Y-87901898D01*
X63635000Y-87701939D01*
X63635000Y-87498061D01*
X63595226Y-87298102D01*
X63517205Y-87109744D01*
X63443877Y-87000000D01*
X63517205Y-86890256D01*
X63595226Y-86701898D01*
X63635000Y-86501939D01*
X63635000Y-86298061D01*
X63595226Y-86098102D01*
X63517205Y-85909744D01*
X63403937Y-85740226D01*
X63259774Y-85596063D01*
X63090256Y-85482795D01*
X62901898Y-85404774D01*
X62701939Y-85365000D01*
X62498061Y-85365000D01*
X62298102Y-85404774D01*
X62109744Y-85482795D01*
X61940226Y-85596063D01*
X61796063Y-85740226D01*
X61682795Y-85909744D01*
X61604774Y-86098102D01*
X61565000Y-86298061D01*
X57809980Y-86298061D01*
X57809978Y-84698061D01*
X67165000Y-84698061D01*
X67165000Y-84901939D01*
X67204774Y-85101898D01*
X67282795Y-85290256D01*
X67356123Y-85400000D01*
X67282795Y-85509744D01*
X67204774Y-85698102D01*
X67165000Y-85898061D01*
X67165000Y-86101939D01*
X67204774Y-86301898D01*
X67282795Y-86490256D01*
X67322715Y-86550000D01*
X67282795Y-86609744D01*
X67204774Y-86798102D01*
X67165000Y-86998061D01*
X67165000Y-87201939D01*
X67204774Y-87401898D01*
X67282795Y-87590256D01*
X67322715Y-87650000D01*
X67282795Y-87709744D01*
X67204774Y-87898102D01*
X67165000Y-88098061D01*
X67165000Y-88301939D01*
X67204774Y-88501898D01*
X67282795Y-88690256D01*
X67356123Y-88800000D01*
X67282795Y-88909744D01*
X67204774Y-89098102D01*
X67165000Y-89298061D01*
X67165000Y-89501939D01*
X67204774Y-89701898D01*
X67282795Y-89890256D01*
X67396063Y-90059774D01*
X67540226Y-90203937D01*
X67709744Y-90317205D01*
X67898102Y-90395226D01*
X68098061Y-90435000D01*
X68301939Y-90435000D01*
X68501898Y-90395226D01*
X68690256Y-90317205D01*
X68859774Y-90203937D01*
X69003937Y-90059774D01*
X69117205Y-89890256D01*
X69195226Y-89701898D01*
X69235000Y-89501939D01*
X69235000Y-89498061D01*
X76865000Y-89498061D01*
X76865000Y-89701939D01*
X76904774Y-89901898D01*
X76982795Y-90090256D01*
X77096063Y-90259774D01*
X77240226Y-90403937D01*
X77409744Y-90517205D01*
X77598102Y-90595226D01*
X77798061Y-90635000D01*
X78001939Y-90635000D01*
X78201898Y-90595226D01*
X78390256Y-90517205D01*
X78559774Y-90403937D01*
X78703937Y-90259774D01*
X78817205Y-90090256D01*
X78895226Y-89901898D01*
X78935000Y-89701939D01*
X78935000Y-89498061D01*
X78895226Y-89298102D01*
X78817205Y-89109744D01*
X78703937Y-88940226D01*
X78559774Y-88796063D01*
X78390256Y-88682795D01*
X78201898Y-88604774D01*
X78001939Y-88565000D01*
X77798061Y-88565000D01*
X77598102Y-88604774D01*
X77409744Y-88682795D01*
X77240226Y-88796063D01*
X77096063Y-88940226D01*
X76982795Y-89109744D01*
X76904774Y-89298102D01*
X76865000Y-89498061D01*
X69235000Y-89498061D01*
X69235000Y-89298061D01*
X69195226Y-89098102D01*
X69117205Y-88909744D01*
X69043877Y-88800000D01*
X69117205Y-88690256D01*
X69195226Y-88501898D01*
X69235000Y-88301939D01*
X69235000Y-88298061D01*
X87965000Y-88298061D01*
X87965000Y-88501939D01*
X88004774Y-88701898D01*
X88082795Y-88890256D01*
X88196063Y-89059774D01*
X88340226Y-89203937D01*
X88509744Y-89317205D01*
X88698102Y-89395226D01*
X88898061Y-89435000D01*
X89101939Y-89435000D01*
X89301898Y-89395226D01*
X89490256Y-89317205D01*
X89659774Y-89203937D01*
X89803937Y-89059774D01*
X89917205Y-88890256D01*
X89995226Y-88701898D01*
X90035000Y-88501939D01*
X90035000Y-88298061D01*
X89995226Y-88098102D01*
X89917205Y-87909744D01*
X89803937Y-87740226D01*
X89659774Y-87596063D01*
X89490256Y-87482795D01*
X89301898Y-87404774D01*
X89101939Y-87365000D01*
X88898061Y-87365000D01*
X88698102Y-87404774D01*
X88509744Y-87482795D01*
X88340226Y-87596063D01*
X88196063Y-87740226D01*
X88082795Y-87909744D01*
X88004774Y-88098102D01*
X87965000Y-88298061D01*
X69235000Y-88298061D01*
X69235000Y-88098061D01*
X69195226Y-87898102D01*
X69117205Y-87709744D01*
X69077285Y-87650000D01*
X69117205Y-87590256D01*
X69195226Y-87401898D01*
X69235000Y-87201939D01*
X69235000Y-86998061D01*
X69195226Y-86798102D01*
X69117205Y-86609744D01*
X69077285Y-86550000D01*
X69117205Y-86490256D01*
X69195226Y-86301898D01*
X69235000Y-86101939D01*
X69235000Y-85898061D01*
X69195226Y-85698102D01*
X69117205Y-85509744D01*
X69043877Y-85400000D01*
X69117205Y-85290256D01*
X69195226Y-85101898D01*
X69235000Y-84901939D01*
X69235000Y-84698061D01*
X69195226Y-84498102D01*
X69117205Y-84309744D01*
X69003937Y-84140226D01*
X68859774Y-83996063D01*
X68690256Y-83882795D01*
X68501898Y-83804774D01*
X68301939Y-83765000D01*
X68098061Y-83765000D01*
X67898102Y-83804774D01*
X67709744Y-83882795D01*
X67540226Y-83996063D01*
X67396063Y-84140226D01*
X67282795Y-84309744D01*
X67204774Y-84498102D01*
X67165000Y-84698061D01*
X57809978Y-84698061D01*
X57809964Y-75588212D01*
X59315000Y-75588212D01*
X59315000Y-75811788D01*
X59358617Y-76031067D01*
X59444176Y-76237624D01*
X59568388Y-76423520D01*
X59726480Y-76581612D01*
X59810122Y-76637500D01*
X59726480Y-76693388D01*
X59568388Y-76851480D01*
X59444176Y-77037376D01*
X59358617Y-77243933D01*
X59315000Y-77463212D01*
X59315000Y-77686788D01*
X59358617Y-77906067D01*
X59444176Y-78112624D01*
X59568388Y-78298520D01*
X59726480Y-78456612D01*
X59810122Y-78512500D01*
X59726480Y-78568388D01*
X59568388Y-78726480D01*
X59444176Y-78912376D01*
X59358617Y-79118933D01*
X59315000Y-79338212D01*
X59315000Y-79561788D01*
X59358617Y-79781067D01*
X59444176Y-79987624D01*
X59568388Y-80173520D01*
X59726480Y-80331612D01*
X59810122Y-80387500D01*
X59726480Y-80443388D01*
X59568388Y-80601480D01*
X59444176Y-80787376D01*
X59358617Y-80993933D01*
X59315000Y-81213212D01*
X59315000Y-81436788D01*
X59358617Y-81656067D01*
X59444176Y-81862624D01*
X59568388Y-82048520D01*
X59726480Y-82206612D01*
X59810122Y-82262500D01*
X59726480Y-82318388D01*
X59568388Y-82476480D01*
X59444176Y-82662376D01*
X59358617Y-82868933D01*
X59315000Y-83088212D01*
X59315000Y-83311788D01*
X59358617Y-83531067D01*
X59444176Y-83737624D01*
X59568388Y-83923520D01*
X59726480Y-84081612D01*
X59912376Y-84205824D01*
X60118933Y-84291383D01*
X60338212Y-84335000D01*
X60561788Y-84335000D01*
X60781067Y-84291383D01*
X60987624Y-84205824D01*
X61173520Y-84081612D01*
X61331612Y-83923520D01*
X61455824Y-83737624D01*
X61541383Y-83531067D01*
X61585000Y-83311788D01*
X61585000Y-83088212D01*
X61541383Y-82868933D01*
X61455824Y-82662376D01*
X61331612Y-82476480D01*
X61173520Y-82318388D01*
X61089878Y-82262500D01*
X61173520Y-82206612D01*
X61331612Y-82048520D01*
X61455824Y-81862624D01*
X61541383Y-81656067D01*
X61585000Y-81436788D01*
X61585000Y-81213212D01*
X61541383Y-80993933D01*
X61455824Y-80787376D01*
X61331612Y-80601480D01*
X61173520Y-80443388D01*
X61089878Y-80387500D01*
X61173520Y-80331612D01*
X61331612Y-80173520D01*
X61447554Y-80000000D01*
X69873000Y-80000000D01*
X69873000Y-87000000D01*
X69875440Y-87024776D01*
X69882667Y-87048601D01*
X69894403Y-87070557D01*
X69910197Y-87089803D01*
X69929443Y-87105597D01*
X69951399Y-87117333D01*
X69975224Y-87124560D01*
X70000000Y-87127000D01*
X70857842Y-87127000D01*
X70898061Y-87135000D01*
X71101939Y-87135000D01*
X71142158Y-87127000D01*
X76000000Y-87127000D01*
X76024776Y-87124560D01*
X76048601Y-87117333D01*
X76070557Y-87105597D01*
X76089803Y-87089803D01*
X76105597Y-87070557D01*
X76117333Y-87048601D01*
X76124560Y-87024776D01*
X76127000Y-87000000D01*
X76127000Y-84498061D01*
X78165000Y-84498061D01*
X78165000Y-84701939D01*
X78204774Y-84901898D01*
X78282795Y-85090256D01*
X78396063Y-85259774D01*
X78540226Y-85403937D01*
X78709744Y-85517205D01*
X78898102Y-85595226D01*
X79098061Y-85635000D01*
X79301939Y-85635000D01*
X79501898Y-85595226D01*
X79690256Y-85517205D01*
X79859774Y-85403937D01*
X80003937Y-85259774D01*
X80117205Y-85090256D01*
X80195226Y-84901898D01*
X80217839Y-84788212D01*
X99665000Y-84788212D01*
X99665000Y-85011788D01*
X99708617Y-85231067D01*
X99794176Y-85437624D01*
X99918388Y-85623520D01*
X100076480Y-85781612D01*
X100262376Y-85905824D01*
X100468933Y-85991383D01*
X100688212Y-86035000D01*
X100911788Y-86035000D01*
X101131067Y-85991383D01*
X101337624Y-85905824D01*
X101523520Y-85781612D01*
X101681612Y-85623520D01*
X101805824Y-85437624D01*
X101891383Y-85231067D01*
X101935000Y-85011788D01*
X101935000Y-84788212D01*
X101891383Y-84568933D01*
X101805824Y-84362376D01*
X101681612Y-84176480D01*
X101523520Y-84018388D01*
X101337624Y-83894176D01*
X101131067Y-83808617D01*
X100911788Y-83765000D01*
X100688212Y-83765000D01*
X100468933Y-83808617D01*
X100262376Y-83894176D01*
X100076480Y-84018388D01*
X99918388Y-84176480D01*
X99794176Y-84362376D01*
X99708617Y-84568933D01*
X99665000Y-84788212D01*
X80217839Y-84788212D01*
X80235000Y-84701939D01*
X80235000Y-84498061D01*
X80195226Y-84298102D01*
X80117205Y-84109744D01*
X80003937Y-83940226D01*
X79859774Y-83796063D01*
X79690256Y-83682795D01*
X79501898Y-83604774D01*
X79301939Y-83565000D01*
X79098061Y-83565000D01*
X78898102Y-83604774D01*
X78709744Y-83682795D01*
X78540226Y-83796063D01*
X78396063Y-83940226D01*
X78282795Y-84109744D01*
X78204774Y-84298102D01*
X78165000Y-84498061D01*
X76127000Y-84498061D01*
X76127000Y-84427000D01*
X76200000Y-84427000D01*
X76224776Y-84424560D01*
X76248601Y-84417333D01*
X76270557Y-84405597D01*
X76289803Y-84389803D01*
X76305597Y-84370557D01*
X76317333Y-84348601D01*
X76324560Y-84324776D01*
X76326999Y-84299603D01*
X76319898Y-82027318D01*
X78200934Y-82032000D01*
X78225716Y-82029621D01*
X78249559Y-82022453D01*
X78271544Y-82010772D01*
X78290829Y-81995026D01*
X78296449Y-81988212D01*
X78965000Y-81988212D01*
X78965000Y-82211788D01*
X79008617Y-82431067D01*
X79094176Y-82637624D01*
X79218388Y-82823520D01*
X79376480Y-82981612D01*
X79562376Y-83105824D01*
X79768933Y-83191383D01*
X79988212Y-83235000D01*
X80211788Y-83235000D01*
X80431067Y-83191383D01*
X80637624Y-83105824D01*
X80823520Y-82981612D01*
X80981612Y-82823520D01*
X81105824Y-82637624D01*
X81191383Y-82431067D01*
X81235000Y-82211788D01*
X81235000Y-81988212D01*
X81191383Y-81768933D01*
X81105824Y-81562376D01*
X80981612Y-81376480D01*
X80823520Y-81218388D01*
X80637624Y-81094176D01*
X80431067Y-81008617D01*
X80211788Y-80965000D01*
X79988212Y-80965000D01*
X79768933Y-81008617D01*
X79562376Y-81094176D01*
X79376480Y-81218388D01*
X79218388Y-81376480D01*
X79094176Y-81562376D01*
X79008617Y-81768933D01*
X78965000Y-81988212D01*
X78296449Y-81988212D01*
X78306671Y-81975820D01*
X78318461Y-81953893D01*
X78325748Y-81930086D01*
X78328250Y-81904686D01*
X78325750Y-80894686D01*
X78323248Y-80869915D01*
X78315962Y-80846109D01*
X78304172Y-80824181D01*
X78288330Y-80804975D01*
X78269046Y-80789229D01*
X78247060Y-80777547D01*
X78223218Y-80770379D01*
X78199037Y-80768000D01*
X76118432Y-80763290D01*
X76126992Y-80001427D01*
X76124830Y-79976625D01*
X76117871Y-79952721D01*
X76106383Y-79930633D01*
X76090806Y-79911212D01*
X76071739Y-79895203D01*
X76049916Y-79883221D01*
X76026174Y-79875727D01*
X76000000Y-79873000D01*
X75066609Y-79873000D01*
X74901898Y-79804774D01*
X74868150Y-79798061D01*
X99465000Y-79798061D01*
X99465000Y-80001939D01*
X99504774Y-80201898D01*
X99582795Y-80390256D01*
X99696063Y-80559774D01*
X99840226Y-80703937D01*
X100009744Y-80817205D01*
X100198102Y-80895226D01*
X100398061Y-80935000D01*
X100601939Y-80935000D01*
X100801898Y-80895226D01*
X100990256Y-80817205D01*
X101159774Y-80703937D01*
X101303937Y-80559774D01*
X101417205Y-80390256D01*
X101495226Y-80201898D01*
X101535000Y-80001939D01*
X101535000Y-79798061D01*
X101495226Y-79598102D01*
X101417205Y-79409744D01*
X101303937Y-79240226D01*
X101159774Y-79096063D01*
X100990256Y-78982795D01*
X100801898Y-78904774D01*
X100601939Y-78865000D01*
X100398061Y-78865000D01*
X100198102Y-78904774D01*
X100009744Y-78982795D01*
X99840226Y-79096063D01*
X99696063Y-79240226D01*
X99582795Y-79409744D01*
X99504774Y-79598102D01*
X99465000Y-79798061D01*
X74868150Y-79798061D01*
X74701939Y-79765000D01*
X74498061Y-79765000D01*
X74298102Y-79804774D01*
X74133391Y-79873000D01*
X70000000Y-79873000D01*
X69975224Y-79875440D01*
X69951399Y-79882667D01*
X69929443Y-79894403D01*
X69910197Y-79910197D01*
X69894403Y-79929443D01*
X69882667Y-79951399D01*
X69875440Y-79975224D01*
X69873000Y-80000000D01*
X61447554Y-80000000D01*
X61455824Y-79987624D01*
X61541383Y-79781067D01*
X61585000Y-79561788D01*
X61585000Y-79338212D01*
X61541383Y-79118933D01*
X61455824Y-78912376D01*
X61331612Y-78726480D01*
X61173520Y-78568388D01*
X61089878Y-78512500D01*
X61173520Y-78456612D01*
X61331612Y-78298520D01*
X61398736Y-78198061D01*
X90065000Y-78198061D01*
X90065000Y-78401939D01*
X90104774Y-78601898D01*
X90182795Y-78790256D01*
X90296063Y-78959774D01*
X90440226Y-79103937D01*
X90609744Y-79217205D01*
X90798102Y-79295226D01*
X90998061Y-79335000D01*
X91201939Y-79335000D01*
X91401898Y-79295226D01*
X91590256Y-79217205D01*
X91759774Y-79103937D01*
X91903937Y-78959774D01*
X92017205Y-78790256D01*
X92095226Y-78601898D01*
X92135000Y-78401939D01*
X92135000Y-78198061D01*
X92095226Y-77998102D01*
X92017205Y-77809744D01*
X91903937Y-77640226D01*
X91759774Y-77496063D01*
X91590256Y-77382795D01*
X91401898Y-77304774D01*
X91201939Y-77265000D01*
X90998061Y-77265000D01*
X90798102Y-77304774D01*
X90609744Y-77382795D01*
X90440226Y-77496063D01*
X90296063Y-77640226D01*
X90182795Y-77809744D01*
X90104774Y-77998102D01*
X90065000Y-78198061D01*
X61398736Y-78198061D01*
X61455824Y-78112624D01*
X61541383Y-77906067D01*
X61585000Y-77686788D01*
X61585000Y-77463212D01*
X61541383Y-77243933D01*
X61455824Y-77037376D01*
X61331612Y-76851480D01*
X61173520Y-76693388D01*
X61089878Y-76637500D01*
X61173520Y-76581612D01*
X61331612Y-76423520D01*
X61455824Y-76237624D01*
X61541383Y-76031067D01*
X61585000Y-75811788D01*
X61585000Y-75588212D01*
X61541383Y-75368933D01*
X61455824Y-75162376D01*
X61331612Y-74976480D01*
X61173520Y-74818388D01*
X60987624Y-74694176D01*
X60781067Y-74608617D01*
X60561788Y-74565000D01*
X60338212Y-74565000D01*
X60118933Y-74608617D01*
X59912376Y-74694176D01*
X59726480Y-74818388D01*
X59568388Y-74976480D01*
X59444176Y-75162376D01*
X59358617Y-75368933D01*
X59315000Y-75588212D01*
X57809964Y-75588212D01*
X57809960Y-72898061D01*
X76965000Y-72898061D01*
X76965000Y-73101939D01*
X77004774Y-73301898D01*
X77082795Y-73490256D01*
X77122715Y-73550000D01*
X77082795Y-73609744D01*
X77004774Y-73798102D01*
X76965000Y-73998061D01*
X76965000Y-74201939D01*
X77004774Y-74401898D01*
X77082795Y-74590256D01*
X77196063Y-74759774D01*
X77340226Y-74903937D01*
X77509744Y-75017205D01*
X77698102Y-75095226D01*
X77898061Y-75135000D01*
X77930912Y-75135000D01*
X77904774Y-75198102D01*
X77865000Y-75398061D01*
X77865000Y-75601939D01*
X77904774Y-75801898D01*
X77982795Y-75990256D01*
X78096063Y-76159774D01*
X78240226Y-76303937D01*
X78409744Y-76417205D01*
X78598102Y-76495226D01*
X78798061Y-76535000D01*
X79001939Y-76535000D01*
X79201898Y-76495226D01*
X79390256Y-76417205D01*
X79559774Y-76303937D01*
X79703937Y-76159774D01*
X79817205Y-75990256D01*
X79895226Y-75801898D01*
X79935000Y-75601939D01*
X79935000Y-75398061D01*
X79895226Y-75198102D01*
X79817205Y-75009744D01*
X79703937Y-74840226D01*
X79559774Y-74696063D01*
X79390256Y-74582795D01*
X79201898Y-74504774D01*
X79001939Y-74465000D01*
X78969088Y-74465000D01*
X78995226Y-74401898D01*
X79035000Y-74201939D01*
X79035000Y-73998061D01*
X78995226Y-73798102D01*
X78917205Y-73609744D01*
X78877285Y-73550000D01*
X78917205Y-73490256D01*
X78995226Y-73301898D01*
X79035000Y-73101939D01*
X79035000Y-72898061D01*
X78995226Y-72698102D01*
X78917205Y-72509744D01*
X78803937Y-72340226D01*
X78659774Y-72196063D01*
X78490256Y-72082795D01*
X78301898Y-72004774D01*
X78101939Y-71965000D01*
X77898061Y-71965000D01*
X77698102Y-72004774D01*
X77509744Y-72082795D01*
X77340226Y-72196063D01*
X77196063Y-72340226D01*
X77082795Y-72509744D01*
X77004774Y-72698102D01*
X76965000Y-72898061D01*
X57809960Y-72898061D01*
X57809951Y-67273586D01*
X57941850Y-67936686D01*
X58313860Y-68834799D01*
X58853935Y-69643079D01*
X59541321Y-70330465D01*
X60349601Y-70870540D01*
X61247714Y-71242550D01*
X62201145Y-71432200D01*
X63173255Y-71432200D01*
X64126686Y-71242550D01*
X65024799Y-70870540D01*
X65833079Y-70330465D01*
X66520465Y-69643079D01*
X67060540Y-68834799D01*
X67432550Y-67936686D01*
X67622200Y-66983255D01*
X67622200Y-66011145D01*
X67432550Y-65057714D01*
X67060540Y-64159601D01*
X66520465Y-63351321D01*
X66322884Y-63153740D01*
X80075000Y-63153740D01*
X80075000Y-63446260D01*
X80132068Y-63733158D01*
X80244010Y-64003411D01*
X80406525Y-64246632D01*
X80613368Y-64453475D01*
X80856589Y-64615990D01*
X81126842Y-64727932D01*
X81413740Y-64785000D01*
X81706260Y-64785000D01*
X81993158Y-64727932D01*
X82263411Y-64615990D01*
X82506632Y-64453475D01*
X82638487Y-64321620D01*
X82660498Y-64394180D01*
X82719463Y-64504494D01*
X82798815Y-64601185D01*
X82895506Y-64680537D01*
X83005820Y-64739502D01*
X83125518Y-64775812D01*
X83250000Y-64788072D01*
X84950000Y-64788072D01*
X85074482Y-64775812D01*
X85194180Y-64739502D01*
X85304494Y-64680537D01*
X85401185Y-64601185D01*
X85480537Y-64504494D01*
X85539502Y-64394180D01*
X85575812Y-64274482D01*
X85588072Y-64150000D01*
X85588072Y-62450000D01*
X85575812Y-62325518D01*
X85539502Y-62205820D01*
X85480537Y-62095506D01*
X85401185Y-61998815D01*
X85304494Y-61919463D01*
X85194180Y-61860498D01*
X85074482Y-61824188D01*
X84950000Y-61811928D01*
X83250000Y-61811928D01*
X83125518Y-61824188D01*
X83005820Y-61860498D01*
X82895506Y-61919463D01*
X82798815Y-61998815D01*
X82719463Y-62095506D01*
X82660498Y-62205820D01*
X82638487Y-62278380D01*
X82506632Y-62146525D01*
X82263411Y-61984010D01*
X81993158Y-61872068D01*
X81706260Y-61815000D01*
X81413740Y-61815000D01*
X81126842Y-61872068D01*
X80856589Y-61984010D01*
X80613368Y-62146525D01*
X80406525Y-62353368D01*
X80244010Y-62596589D01*
X80132068Y-62866842D01*
X80075000Y-63153740D01*
X66322884Y-63153740D01*
X65833079Y-62663935D01*
X65024799Y-62123860D01*
X64127958Y-61752377D01*
X100061929Y-61771643D01*
M02*
