G04 #@! TF.GenerationSoftware,KiCad,Pcbnew,(5.1.5)-3*
G04 #@! TF.CreationDate,2020-08-02T02:59:21-04:00*
G04 #@! TF.ProjectId,STM32F4,53544d33-3246-4342-9e6b-696361645f70,rev?*
G04 #@! TF.SameCoordinates,Original*
G04 #@! TF.FileFunction,Soldermask,Bot*
G04 #@! TF.FilePolarity,Negative*
%FSLAX46Y46*%
G04 Gerber Fmt 4.6, Leading zero omitted, Abs format (unit mm)*
G04 Created by KiCad (PCBNEW (5.1.5)-3) date 2020-08-02 02:59:21*
%MOMM*%
%LPD*%
G04 APERTURE LIST*
%ADD10C,0.100000*%
G04 APERTURE END LIST*
D10*
G36*
X63349656Y-97272794D02*
G01*
X64070640Y-97416206D01*
X64862472Y-97744193D01*
X65575101Y-98220357D01*
X66181143Y-98826399D01*
X66657307Y-99539028D01*
X66985294Y-100330860D01*
X67152500Y-101171464D01*
X67152500Y-102028536D01*
X66985294Y-102869140D01*
X66657307Y-103660972D01*
X66181143Y-104373601D01*
X65575101Y-104979643D01*
X64862472Y-105455807D01*
X64070640Y-105783794D01*
X63349656Y-105927206D01*
X63230037Y-105951000D01*
X62372963Y-105951000D01*
X62253344Y-105927206D01*
X61532360Y-105783794D01*
X60740528Y-105455807D01*
X60027899Y-104979643D01*
X59421857Y-104373601D01*
X58945693Y-103660972D01*
X58617706Y-102869140D01*
X58450500Y-102028536D01*
X58450500Y-101171464D01*
X58617706Y-100330860D01*
X58945693Y-99539028D01*
X59421857Y-98826399D01*
X60027899Y-98220357D01*
X60740528Y-97744193D01*
X61532360Y-97416206D01*
X62253344Y-97272794D01*
X62372963Y-97249000D01*
X63230037Y-97249000D01*
X63349656Y-97272794D01*
G37*
G36*
X102021156Y-97272794D02*
G01*
X102742140Y-97416206D01*
X103533972Y-97744193D01*
X104246601Y-98220357D01*
X104852643Y-98826399D01*
X105328807Y-99539028D01*
X105656794Y-100330860D01*
X105824000Y-101171464D01*
X105824000Y-102028536D01*
X105656794Y-102869140D01*
X105328807Y-103660972D01*
X104852643Y-104373601D01*
X104246601Y-104979643D01*
X103533972Y-105455807D01*
X102742140Y-105783794D01*
X102021156Y-105927206D01*
X101901537Y-105951000D01*
X101044463Y-105951000D01*
X100924844Y-105927206D01*
X100203860Y-105783794D01*
X99412028Y-105455807D01*
X98699399Y-104979643D01*
X98093357Y-104373601D01*
X97617193Y-103660972D01*
X97289206Y-102869140D01*
X97122000Y-102028536D01*
X97122000Y-101171464D01*
X97289206Y-100330860D01*
X97617193Y-99539028D01*
X98093357Y-98826399D01*
X98699399Y-98220357D01*
X99412028Y-97744193D01*
X100203860Y-97416206D01*
X100924844Y-97272794D01*
X101044463Y-97249000D01*
X101901537Y-97249000D01*
X102021156Y-97272794D01*
G37*
G36*
X82435000Y-105866500D02*
G01*
X80633000Y-105866500D01*
X80633000Y-104064500D01*
X82435000Y-104064500D01*
X82435000Y-105866500D01*
G37*
G36*
X73710012Y-104069427D02*
G01*
X73859312Y-104099124D01*
X74023284Y-104167044D01*
X74170854Y-104265647D01*
X74296353Y-104391146D01*
X74394956Y-104538716D01*
X74462876Y-104702688D01*
X74497500Y-104876759D01*
X74497500Y-105054241D01*
X74462876Y-105228312D01*
X74394956Y-105392284D01*
X74296353Y-105539854D01*
X74170854Y-105665353D01*
X74023284Y-105763956D01*
X73859312Y-105831876D01*
X73710012Y-105861573D01*
X73685242Y-105866500D01*
X73507758Y-105866500D01*
X73482988Y-105861573D01*
X73333688Y-105831876D01*
X73169716Y-105763956D01*
X73022146Y-105665353D01*
X72896647Y-105539854D01*
X72798044Y-105392284D01*
X72730124Y-105228312D01*
X72695500Y-105054241D01*
X72695500Y-104876759D01*
X72730124Y-104702688D01*
X72798044Y-104538716D01*
X72896647Y-104391146D01*
X73022146Y-104265647D01*
X73169716Y-104167044D01*
X73333688Y-104099124D01*
X73482988Y-104069427D01*
X73507758Y-104064500D01*
X73685242Y-104064500D01*
X73710012Y-104069427D01*
G37*
G36*
X71957500Y-105866500D02*
G01*
X70155500Y-105866500D01*
X70155500Y-104064500D01*
X71957500Y-104064500D01*
X71957500Y-105866500D01*
G37*
G36*
X89267512Y-104069427D02*
G01*
X89416812Y-104099124D01*
X89580784Y-104167044D01*
X89728354Y-104265647D01*
X89853853Y-104391146D01*
X89952456Y-104538716D01*
X90020376Y-104702688D01*
X90055000Y-104876759D01*
X90055000Y-105054241D01*
X90020376Y-105228312D01*
X89952456Y-105392284D01*
X89853853Y-105539854D01*
X89728354Y-105665353D01*
X89580784Y-105763956D01*
X89416812Y-105831876D01*
X89267512Y-105861573D01*
X89242742Y-105866500D01*
X89065258Y-105866500D01*
X89040488Y-105861573D01*
X88891188Y-105831876D01*
X88727216Y-105763956D01*
X88579646Y-105665353D01*
X88454147Y-105539854D01*
X88355544Y-105392284D01*
X88287624Y-105228312D01*
X88253000Y-105054241D01*
X88253000Y-104876759D01*
X88287624Y-104702688D01*
X88355544Y-104538716D01*
X88454147Y-104391146D01*
X88579646Y-104265647D01*
X88727216Y-104167044D01*
X88891188Y-104099124D01*
X89040488Y-104069427D01*
X89065258Y-104064500D01*
X89242742Y-104064500D01*
X89267512Y-104069427D01*
G37*
G36*
X86727512Y-104069427D02*
G01*
X86876812Y-104099124D01*
X87040784Y-104167044D01*
X87188354Y-104265647D01*
X87313853Y-104391146D01*
X87412456Y-104538716D01*
X87480376Y-104702688D01*
X87515000Y-104876759D01*
X87515000Y-105054241D01*
X87480376Y-105228312D01*
X87412456Y-105392284D01*
X87313853Y-105539854D01*
X87188354Y-105665353D01*
X87040784Y-105763956D01*
X86876812Y-105831876D01*
X86727512Y-105861573D01*
X86702742Y-105866500D01*
X86525258Y-105866500D01*
X86500488Y-105861573D01*
X86351188Y-105831876D01*
X86187216Y-105763956D01*
X86039646Y-105665353D01*
X85914147Y-105539854D01*
X85815544Y-105392284D01*
X85747624Y-105228312D01*
X85713000Y-105054241D01*
X85713000Y-104876759D01*
X85747624Y-104702688D01*
X85815544Y-104538716D01*
X85914147Y-104391146D01*
X86039646Y-104265647D01*
X86187216Y-104167044D01*
X86351188Y-104099124D01*
X86500488Y-104069427D01*
X86525258Y-104064500D01*
X86702742Y-104064500D01*
X86727512Y-104069427D01*
G37*
G36*
X84187512Y-104069427D02*
G01*
X84336812Y-104099124D01*
X84500784Y-104167044D01*
X84648354Y-104265647D01*
X84773853Y-104391146D01*
X84872456Y-104538716D01*
X84940376Y-104702688D01*
X84975000Y-104876759D01*
X84975000Y-105054241D01*
X84940376Y-105228312D01*
X84872456Y-105392284D01*
X84773853Y-105539854D01*
X84648354Y-105665353D01*
X84500784Y-105763956D01*
X84336812Y-105831876D01*
X84187512Y-105861573D01*
X84162742Y-105866500D01*
X83985258Y-105866500D01*
X83960488Y-105861573D01*
X83811188Y-105831876D01*
X83647216Y-105763956D01*
X83499646Y-105665353D01*
X83374147Y-105539854D01*
X83275544Y-105392284D01*
X83207624Y-105228312D01*
X83173000Y-105054241D01*
X83173000Y-104876759D01*
X83207624Y-104702688D01*
X83275544Y-104538716D01*
X83374147Y-104391146D01*
X83499646Y-104265647D01*
X83647216Y-104167044D01*
X83811188Y-104099124D01*
X83960488Y-104069427D01*
X83985258Y-104064500D01*
X84162742Y-104064500D01*
X84187512Y-104069427D01*
G37*
G36*
X60718000Y-94944500D02*
G01*
X58916000Y-94944500D01*
X58916000Y-93142500D01*
X60718000Y-93142500D01*
X60718000Y-94944500D01*
G37*
G36*
X104279000Y-94944500D02*
G01*
X102477000Y-94944500D01*
X102477000Y-93142500D01*
X104279000Y-93142500D01*
X104279000Y-94944500D01*
G37*
G36*
X59930512Y-90607427D02*
G01*
X60079812Y-90637124D01*
X60243784Y-90705044D01*
X60391354Y-90803647D01*
X60516853Y-90929146D01*
X60615456Y-91076716D01*
X60683376Y-91240688D01*
X60718000Y-91414759D01*
X60718000Y-91592241D01*
X60683376Y-91766312D01*
X60615456Y-91930284D01*
X60516853Y-92077854D01*
X60391354Y-92203353D01*
X60243784Y-92301956D01*
X60079812Y-92369876D01*
X59930512Y-92399573D01*
X59905742Y-92404500D01*
X59728258Y-92404500D01*
X59703488Y-92399573D01*
X59554188Y-92369876D01*
X59390216Y-92301956D01*
X59242646Y-92203353D01*
X59117147Y-92077854D01*
X59018544Y-91930284D01*
X58950624Y-91766312D01*
X58916000Y-91592241D01*
X58916000Y-91414759D01*
X58950624Y-91240688D01*
X59018544Y-91076716D01*
X59117147Y-90929146D01*
X59242646Y-90803647D01*
X59390216Y-90705044D01*
X59554188Y-90637124D01*
X59703488Y-90607427D01*
X59728258Y-90602500D01*
X59905742Y-90602500D01*
X59930512Y-90607427D01*
G37*
G36*
X103491512Y-90607427D02*
G01*
X103640812Y-90637124D01*
X103804784Y-90705044D01*
X103952354Y-90803647D01*
X104077853Y-90929146D01*
X104176456Y-91076716D01*
X104244376Y-91240688D01*
X104279000Y-91414759D01*
X104279000Y-91592241D01*
X104244376Y-91766312D01*
X104176456Y-91930284D01*
X104077853Y-92077854D01*
X103952354Y-92203353D01*
X103804784Y-92301956D01*
X103640812Y-92369876D01*
X103491512Y-92399573D01*
X103466742Y-92404500D01*
X103289258Y-92404500D01*
X103264488Y-92399573D01*
X103115188Y-92369876D01*
X102951216Y-92301956D01*
X102803646Y-92203353D01*
X102678147Y-92077854D01*
X102579544Y-91930284D01*
X102511624Y-91766312D01*
X102477000Y-91592241D01*
X102477000Y-91414759D01*
X102511624Y-91240688D01*
X102579544Y-91076716D01*
X102678147Y-90929146D01*
X102803646Y-90803647D01*
X102951216Y-90705044D01*
X103115188Y-90637124D01*
X103264488Y-90607427D01*
X103289258Y-90602500D01*
X103466742Y-90602500D01*
X103491512Y-90607427D01*
G37*
G36*
X102097356Y-62169994D02*
G01*
X102818340Y-62313406D01*
X103610172Y-62641393D01*
X104322801Y-63117557D01*
X104928843Y-63723599D01*
X105405007Y-64436228D01*
X105732994Y-65228060D01*
X105900200Y-66068664D01*
X105900200Y-66925736D01*
X105732994Y-67766340D01*
X105405007Y-68558172D01*
X104928843Y-69270801D01*
X104322801Y-69876843D01*
X103610172Y-70353007D01*
X102818340Y-70680994D01*
X102097356Y-70824406D01*
X101977737Y-70848200D01*
X101120663Y-70848200D01*
X101001044Y-70824406D01*
X100280060Y-70680994D01*
X99488228Y-70353007D01*
X98775599Y-69876843D01*
X98169557Y-69270801D01*
X97693393Y-68558172D01*
X97365406Y-67766340D01*
X97198200Y-66925736D01*
X97198200Y-66068664D01*
X97365406Y-65228060D01*
X97693393Y-64436228D01*
X98169557Y-63723599D01*
X98775599Y-63117557D01*
X99488228Y-62641393D01*
X100280060Y-62313406D01*
X101001044Y-62169994D01*
X101120663Y-62146200D01*
X101977737Y-62146200D01*
X102097356Y-62169994D01*
G37*
G36*
X63235356Y-62169994D02*
G01*
X63956340Y-62313406D01*
X64748172Y-62641393D01*
X65460801Y-63117557D01*
X66066843Y-63723599D01*
X66543007Y-64436228D01*
X66870994Y-65228060D01*
X67038200Y-66068664D01*
X67038200Y-66925736D01*
X66870994Y-67766340D01*
X66543007Y-68558172D01*
X66066843Y-69270801D01*
X65460801Y-69876843D01*
X64748172Y-70353007D01*
X63956340Y-70680994D01*
X63235356Y-70824406D01*
X63115737Y-70848200D01*
X62258663Y-70848200D01*
X62139044Y-70824406D01*
X61418060Y-70680994D01*
X60626228Y-70353007D01*
X59913599Y-69876843D01*
X59307557Y-69270801D01*
X58831393Y-68558172D01*
X58503406Y-67766340D01*
X58336200Y-66925736D01*
X58336200Y-66068664D01*
X58503406Y-65228060D01*
X58831393Y-64436228D01*
X59307557Y-63723599D01*
X59913599Y-63117557D01*
X60626228Y-62641393D01*
X61418060Y-62313406D01*
X62139044Y-62169994D01*
X62258663Y-62146200D01*
X63115737Y-62146200D01*
X63235356Y-62169994D01*
G37*
G36*
X81673512Y-62403927D02*
G01*
X81822812Y-62433624D01*
X81986784Y-62501544D01*
X82134354Y-62600147D01*
X82259853Y-62725646D01*
X82358456Y-62873216D01*
X82426376Y-63037188D01*
X82461000Y-63211259D01*
X82461000Y-63388741D01*
X82426376Y-63562812D01*
X82358456Y-63726784D01*
X82259853Y-63874354D01*
X82134354Y-63999853D01*
X81986784Y-64098456D01*
X81822812Y-64166376D01*
X81673512Y-64196073D01*
X81648742Y-64201000D01*
X81471258Y-64201000D01*
X81446488Y-64196073D01*
X81297188Y-64166376D01*
X81133216Y-64098456D01*
X80985646Y-63999853D01*
X80860147Y-63874354D01*
X80761544Y-63726784D01*
X80693624Y-63562812D01*
X80659000Y-63388741D01*
X80659000Y-63211259D01*
X80693624Y-63037188D01*
X80761544Y-62873216D01*
X80860147Y-62725646D01*
X80985646Y-62600147D01*
X81133216Y-62501544D01*
X81297188Y-62433624D01*
X81446488Y-62403927D01*
X81471258Y-62399000D01*
X81648742Y-62399000D01*
X81673512Y-62403927D01*
G37*
G36*
X85001000Y-64201000D02*
G01*
X83199000Y-64201000D01*
X83199000Y-62399000D01*
X85001000Y-62399000D01*
X85001000Y-64201000D01*
G37*
M02*
