G04 #@! TF.GenerationSoftware,KiCad,Pcbnew,(5.1.5)-3*
G04 #@! TF.CreationDate,2020-07-05T19:40:21-04:00*
G04 #@! TF.ProjectId,RPi HAT,52506920-4841-4542-9e6b-696361645f70,rev?*
G04 #@! TF.SameCoordinates,Original*
G04 #@! TF.FileFunction,Legend,Top*
G04 #@! TF.FilePolarity,Positive*
%FSLAX46Y46*%
G04 Gerber Fmt 4.6, Leading zero omitted, Abs format (unit mm)*
G04 Created by KiCad (PCBNEW (5.1.5)-3) date 2020-07-05 19:40:21*
%MOMM*%
%LPD*%
G04 APERTURE LIST*
%ADD10C,0.120000*%
%ADD11C,0.203200*%
%ADD12C,0.150000*%
G04 APERTURE END LIST*
D10*
X137753400Y-101919800D02*
X137753400Y-103529800D01*
X137753400Y-101919800D02*
X135753400Y-101919800D01*
X125213400Y-102199800D02*
X137463400Y-102199800D01*
X125213400Y-107959800D02*
X125213400Y-102199800D01*
X137473400Y-107959800D02*
X125213400Y-107959800D01*
X137473400Y-102209800D02*
X137473400Y-107949800D01*
X136916800Y-91220600D02*
X136916800Y-86020600D01*
X119076800Y-91220600D02*
X136916800Y-91220600D01*
X116476800Y-86020600D02*
X136916800Y-86020600D01*
X119076800Y-91220600D02*
X119076800Y-88620600D01*
X119076800Y-88620600D02*
X116476800Y-88620600D01*
X116476800Y-88620600D02*
X116476800Y-86020600D01*
X117806800Y-91220600D02*
X116476800Y-91220600D01*
X116476800Y-91220600D02*
X116476800Y-89890600D01*
X135823200Y-93274000D02*
X133138200Y-93274000D01*
X133138200Y-93274000D02*
X133138200Y-95194000D01*
X133138200Y-95194000D02*
X135823200Y-95194000D01*
X135823200Y-98100000D02*
X133138200Y-98100000D01*
X133138200Y-98100000D02*
X133138200Y-100020000D01*
X133138200Y-100020000D02*
X135823200Y-100020000D01*
X118232422Y-98395000D02*
X118749578Y-98395000D01*
X118232422Y-99815000D02*
X118749578Y-99815000D01*
X129093888Y-94842400D02*
X129611044Y-94842400D01*
X129093888Y-93422400D02*
X129611044Y-93422400D01*
X123663155Y-99815000D02*
X124180311Y-99815000D01*
X123663155Y-98395000D02*
X124180311Y-98395000D01*
X129093888Y-98395000D02*
X129611044Y-98395000D01*
X129093888Y-99815000D02*
X129611044Y-99815000D01*
D11*
X122250200Y-105029000D02*
G75*
G03X122250200Y-105029000I-1778000J0D01*
G01*
X123520200Y-106055160D02*
X123520200Y-104013000D01*
X117424200Y-106024680D02*
X117424200Y-104013000D01*
X122631200Y-101981000D02*
X118313200Y-101981000D01*
X118313200Y-108077000D02*
X122631200Y-108077000D01*
D12*
X136144095Y-100442780D02*
X136144095Y-101252304D01*
X136191714Y-101347542D01*
X136239333Y-101395161D01*
X136334571Y-101442780D01*
X136525047Y-101442780D01*
X136620285Y-101395161D01*
X136667904Y-101347542D01*
X136715523Y-101252304D01*
X136715523Y-100442780D01*
X137715523Y-101442780D02*
X137144095Y-101442780D01*
X137429809Y-101442780D02*
X137429809Y-100442780D01*
X137334571Y-100585638D01*
X137239333Y-100680876D01*
X137144095Y-100728495D01*
X114929180Y-88953933D02*
X115643466Y-88953933D01*
X115786323Y-89001552D01*
X115881561Y-89096790D01*
X115929180Y-89239647D01*
X115929180Y-89334885D01*
X115929180Y-87953933D02*
X115929180Y-88525361D01*
X115929180Y-88239647D02*
X114929180Y-88239647D01*
X115072038Y-88334885D01*
X115167276Y-88430123D01*
X115214895Y-88525361D01*
X134085104Y-93036380D02*
X134085104Y-92036380D01*
X134323200Y-92036380D01*
X134466057Y-92084000D01*
X134561295Y-92179238D01*
X134608914Y-92274476D01*
X134656533Y-92464952D01*
X134656533Y-92607809D01*
X134608914Y-92798285D01*
X134561295Y-92893523D01*
X134466057Y-92988761D01*
X134323200Y-93036380D01*
X134085104Y-93036380D01*
X135037485Y-92131619D02*
X135085104Y-92084000D01*
X135180342Y-92036380D01*
X135418438Y-92036380D01*
X135513676Y-92084000D01*
X135561295Y-92131619D01*
X135608914Y-92226857D01*
X135608914Y-92322095D01*
X135561295Y-92464952D01*
X134989866Y-93036380D01*
X135608914Y-93036380D01*
X134085104Y-97862380D02*
X134085104Y-96862380D01*
X134323200Y-96862380D01*
X134466057Y-96910000D01*
X134561295Y-97005238D01*
X134608914Y-97100476D01*
X134656533Y-97290952D01*
X134656533Y-97433809D01*
X134608914Y-97624285D01*
X134561295Y-97719523D01*
X134466057Y-97814761D01*
X134323200Y-97862380D01*
X134085104Y-97862380D01*
X135608914Y-97862380D02*
X135037485Y-97862380D01*
X135323200Y-97862380D02*
X135323200Y-96862380D01*
X135227961Y-97005238D01*
X135132723Y-97100476D01*
X135037485Y-97148095D01*
X118324333Y-97907380D02*
X117991000Y-97431190D01*
X117752904Y-97907380D02*
X117752904Y-96907380D01*
X118133857Y-96907380D01*
X118229095Y-96955000D01*
X118276714Y-97002619D01*
X118324333Y-97097857D01*
X118324333Y-97240714D01*
X118276714Y-97335952D01*
X118229095Y-97383571D01*
X118133857Y-97431190D01*
X117752904Y-97431190D01*
X119276714Y-97907380D02*
X118705285Y-97907380D01*
X118991000Y-97907380D02*
X118991000Y-96907380D01*
X118895761Y-97050238D01*
X118800523Y-97145476D01*
X118705285Y-97193095D01*
X117324333Y-101207380D02*
X116752904Y-101207380D01*
X117038619Y-101207380D02*
X117038619Y-100207380D01*
X116943380Y-100350238D01*
X116848142Y-100445476D01*
X116752904Y-100493095D01*
X117943380Y-100207380D02*
X118038619Y-100207380D01*
X118133857Y-100255000D01*
X118181476Y-100302619D01*
X118229095Y-100397857D01*
X118276714Y-100588333D01*
X118276714Y-100826428D01*
X118229095Y-101016904D01*
X118181476Y-101112142D01*
X118133857Y-101159761D01*
X118038619Y-101207380D01*
X117943380Y-101207380D01*
X117848142Y-101159761D01*
X117800523Y-101112142D01*
X117752904Y-101016904D01*
X117705285Y-100826428D01*
X117705285Y-100588333D01*
X117752904Y-100397857D01*
X117800523Y-100302619D01*
X117848142Y-100255000D01*
X117943380Y-100207380D01*
X118705285Y-101207380D02*
X118705285Y-100207380D01*
X118800523Y-100826428D02*
X119086238Y-101207380D01*
X119086238Y-100540714D02*
X118705285Y-100921666D01*
X119467190Y-101207380D02*
X119705285Y-101207380D01*
X119705285Y-101016904D01*
X119610047Y-100969285D01*
X119514809Y-100874047D01*
X119467190Y-100731190D01*
X119467190Y-100493095D01*
X119514809Y-100350238D01*
X119610047Y-100255000D01*
X119752904Y-100207380D01*
X119943380Y-100207380D01*
X120086238Y-100255000D01*
X120181476Y-100350238D01*
X120229095Y-100493095D01*
X120229095Y-100731190D01*
X120181476Y-100874047D01*
X120086238Y-100969285D01*
X119991000Y-101016904D01*
X119991000Y-101207380D01*
X120229095Y-101207380D01*
X129185799Y-92934780D02*
X128852466Y-92458590D01*
X128614370Y-92934780D02*
X128614370Y-91934780D01*
X128995323Y-91934780D01*
X129090561Y-91982400D01*
X129138180Y-92030019D01*
X129185799Y-92125257D01*
X129185799Y-92268114D01*
X129138180Y-92363352D01*
X129090561Y-92410971D01*
X128995323Y-92458590D01*
X128614370Y-92458590D01*
X130042942Y-92268114D02*
X130042942Y-92934780D01*
X129804846Y-91887161D02*
X129566751Y-92601447D01*
X130185799Y-92601447D01*
X127495323Y-95234780D02*
X128114370Y-95234780D01*
X127781037Y-95615733D01*
X127923894Y-95615733D01*
X128019132Y-95663352D01*
X128066751Y-95710971D01*
X128114370Y-95806209D01*
X128114370Y-96044304D01*
X128066751Y-96139542D01*
X128019132Y-96187161D01*
X127923894Y-96234780D01*
X127638180Y-96234780D01*
X127542942Y-96187161D01*
X127495323Y-96139542D01*
X128447704Y-95234780D02*
X129066751Y-95234780D01*
X128733418Y-95615733D01*
X128876275Y-95615733D01*
X128971513Y-95663352D01*
X129019132Y-95710971D01*
X129066751Y-95806209D01*
X129066751Y-96044304D01*
X129019132Y-96139542D01*
X128971513Y-96187161D01*
X128876275Y-96234780D01*
X128590561Y-96234780D01*
X128495323Y-96187161D01*
X128447704Y-96139542D01*
X129685799Y-95234780D02*
X129781037Y-95234780D01*
X129876275Y-95282400D01*
X129923894Y-95330019D01*
X129971513Y-95425257D01*
X130019132Y-95615733D01*
X130019132Y-95853828D01*
X129971513Y-96044304D01*
X129923894Y-96139542D01*
X129876275Y-96187161D01*
X129781037Y-96234780D01*
X129685799Y-96234780D01*
X129590561Y-96187161D01*
X129542942Y-96139542D01*
X129495323Y-96044304D01*
X129447704Y-95853828D01*
X129447704Y-95615733D01*
X129495323Y-95425257D01*
X129542942Y-95330019D01*
X129590561Y-95282400D01*
X129685799Y-95234780D01*
X130400085Y-96234780D02*
X130638180Y-96234780D01*
X130638180Y-96044304D01*
X130542942Y-95996685D01*
X130447704Y-95901447D01*
X130400085Y-95758590D01*
X130400085Y-95520495D01*
X130447704Y-95377638D01*
X130542942Y-95282400D01*
X130685799Y-95234780D01*
X130876275Y-95234780D01*
X131019132Y-95282400D01*
X131114370Y-95377638D01*
X131161989Y-95520495D01*
X131161989Y-95758590D01*
X131114370Y-95901447D01*
X131019132Y-95996685D01*
X130923894Y-96044304D01*
X130923894Y-96234780D01*
X131161989Y-96234780D01*
X123755066Y-97907380D02*
X123421733Y-97431190D01*
X123183637Y-97907380D02*
X123183637Y-96907380D01*
X123564590Y-96907380D01*
X123659828Y-96955000D01*
X123707447Y-97002619D01*
X123755066Y-97097857D01*
X123755066Y-97240714D01*
X123707447Y-97335952D01*
X123659828Y-97383571D01*
X123564590Y-97431190D01*
X123183637Y-97431190D01*
X124136018Y-97002619D02*
X124183637Y-96955000D01*
X124278875Y-96907380D01*
X124516971Y-96907380D01*
X124612209Y-96955000D01*
X124659828Y-97002619D01*
X124707447Y-97097857D01*
X124707447Y-97193095D01*
X124659828Y-97335952D01*
X124088399Y-97907380D01*
X124707447Y-97907380D01*
X122755066Y-101207380D02*
X122183637Y-101207380D01*
X122469352Y-101207380D02*
X122469352Y-100207380D01*
X122374113Y-100350238D01*
X122278875Y-100445476D01*
X122183637Y-100493095D01*
X123374113Y-100207380D02*
X123469352Y-100207380D01*
X123564590Y-100255000D01*
X123612209Y-100302619D01*
X123659828Y-100397857D01*
X123707447Y-100588333D01*
X123707447Y-100826428D01*
X123659828Y-101016904D01*
X123612209Y-101112142D01*
X123564590Y-101159761D01*
X123469352Y-101207380D01*
X123374113Y-101207380D01*
X123278875Y-101159761D01*
X123231256Y-101112142D01*
X123183637Y-101016904D01*
X123136018Y-100826428D01*
X123136018Y-100588333D01*
X123183637Y-100397857D01*
X123231256Y-100302619D01*
X123278875Y-100255000D01*
X123374113Y-100207380D01*
X124136018Y-101207380D02*
X124136018Y-100207380D01*
X124231256Y-100826428D02*
X124516971Y-101207380D01*
X124516971Y-100540714D02*
X124136018Y-100921666D01*
X124897923Y-101207380D02*
X125136018Y-101207380D01*
X125136018Y-101016904D01*
X125040780Y-100969285D01*
X124945542Y-100874047D01*
X124897923Y-100731190D01*
X124897923Y-100493095D01*
X124945542Y-100350238D01*
X125040780Y-100255000D01*
X125183637Y-100207380D01*
X125374113Y-100207380D01*
X125516971Y-100255000D01*
X125612209Y-100350238D01*
X125659828Y-100493095D01*
X125659828Y-100731190D01*
X125612209Y-100874047D01*
X125516971Y-100969285D01*
X125421733Y-101016904D01*
X125421733Y-101207380D01*
X125659828Y-101207380D01*
X129185799Y-97907380D02*
X128852466Y-97431190D01*
X128614370Y-97907380D02*
X128614370Y-96907380D01*
X128995323Y-96907380D01*
X129090561Y-96955000D01*
X129138180Y-97002619D01*
X129185799Y-97097857D01*
X129185799Y-97240714D01*
X129138180Y-97335952D01*
X129090561Y-97383571D01*
X128995323Y-97431190D01*
X128614370Y-97431190D01*
X129519132Y-96907380D02*
X130138180Y-96907380D01*
X129804846Y-97288333D01*
X129947704Y-97288333D01*
X130042942Y-97335952D01*
X130090561Y-97383571D01*
X130138180Y-97478809D01*
X130138180Y-97716904D01*
X130090561Y-97812142D01*
X130042942Y-97859761D01*
X129947704Y-97907380D01*
X129661989Y-97907380D01*
X129566751Y-97859761D01*
X129519132Y-97812142D01*
X127495323Y-100207380D02*
X128114370Y-100207380D01*
X127781037Y-100588333D01*
X127923894Y-100588333D01*
X128019132Y-100635952D01*
X128066751Y-100683571D01*
X128114370Y-100778809D01*
X128114370Y-101016904D01*
X128066751Y-101112142D01*
X128019132Y-101159761D01*
X127923894Y-101207380D01*
X127638180Y-101207380D01*
X127542942Y-101159761D01*
X127495323Y-101112142D01*
X128447704Y-100207380D02*
X129066751Y-100207380D01*
X128733418Y-100588333D01*
X128876275Y-100588333D01*
X128971513Y-100635952D01*
X129019132Y-100683571D01*
X129066751Y-100778809D01*
X129066751Y-101016904D01*
X129019132Y-101112142D01*
X128971513Y-101159761D01*
X128876275Y-101207380D01*
X128590561Y-101207380D01*
X128495323Y-101159761D01*
X128447704Y-101112142D01*
X129685799Y-100207380D02*
X129781037Y-100207380D01*
X129876275Y-100255000D01*
X129923894Y-100302619D01*
X129971513Y-100397857D01*
X130019132Y-100588333D01*
X130019132Y-100826428D01*
X129971513Y-101016904D01*
X129923894Y-101112142D01*
X129876275Y-101159761D01*
X129781037Y-101207380D01*
X129685799Y-101207380D01*
X129590561Y-101159761D01*
X129542942Y-101112142D01*
X129495323Y-101016904D01*
X129447704Y-100826428D01*
X129447704Y-100588333D01*
X129495323Y-100397857D01*
X129542942Y-100302619D01*
X129590561Y-100255000D01*
X129685799Y-100207380D01*
X130400085Y-101207380D02*
X130638180Y-101207380D01*
X130638180Y-101016904D01*
X130542942Y-100969285D01*
X130447704Y-100874047D01*
X130400085Y-100731190D01*
X130400085Y-100493095D01*
X130447704Y-100350238D01*
X130542942Y-100255000D01*
X130685799Y-100207380D01*
X130876275Y-100207380D01*
X131019132Y-100255000D01*
X131114370Y-100350238D01*
X131161989Y-100493095D01*
X131161989Y-100731190D01*
X131114370Y-100874047D01*
X131019132Y-100969285D01*
X130923894Y-101016904D01*
X130923894Y-101207380D01*
X131161989Y-101207380D01*
M02*
