M48
; DRILL file {KiCad (5.1.5)-3} date 2020-07-05 7:40:59 PM
; FORMAT={-:-/ absolute / inch / decimal}
; #@! TF.CreationDate,2020-07-05T19:40:59-04:00
; #@! TF.GenerationSoftware,Kicad,Pcbnew,(5.1.5)-3
; #@! TF.FileFunction,Plated,1,2,PTH
FMAT,2
INCH
T1C0.0315
T2C0.0394
T3C0.0400
%
G90
G05
T1
X4.771Y-3.903
X5.309Y-3.784
X5.021Y-4.137
X5.121Y-4.137
X5.221Y-4.137
X5.321Y-4.137
T2
X4.6381Y-3.439
X4.6381Y-3.539
X4.7381Y-3.439
X4.7381Y-3.539
X4.8381Y-3.439
X4.8381Y-3.539
X4.9381Y-3.439
X4.9381Y-3.539
X5.0381Y-3.439
X5.0381Y-3.539
X5.1381Y-3.439
X5.1381Y-3.539
X5.2381Y-3.439
X5.2381Y-3.539
X5.3381Y-3.439
X5.3381Y-3.539
T3
X4.615Y-4.046
X4.615Y-4.224
X4.871Y-4.046
X4.871Y-4.224
T0
M30
