G04 #@! TF.GenerationSoftware,KiCad,Pcbnew,(5.1.5)-3*
G04 #@! TF.CreationDate,2020-07-05T19:40:21-04:00*
G04 #@! TF.ProjectId,RPi HAT,52506920-4841-4542-9e6b-696361645f70,rev?*
G04 #@! TF.SameCoordinates,Original*
G04 #@! TF.FileFunction,Copper,L2,Bot*
G04 #@! TF.FilePolarity,Positive*
%FSLAX46Y46*%
G04 Gerber Fmt 4.6, Leading zero omitted, Abs format (unit mm)*
G04 Created by KiCad (PCBNEW (5.1.5)-3) date 2020-07-05 19:40:21*
%MOMM*%
%LPD*%
G04 APERTURE LIST*
%ADD10C,1.500000*%
%ADD11R,1.500000X1.500000*%
%ADD12R,1.700000X1.700000*%
%ADD13O,1.700000X1.700000*%
%ADD14O,1.524000X1.524000*%
%ADD15C,1.000000*%
%ADD16C,0.254000*%
G04 APERTURE END LIST*
D10*
X127533400Y-105079800D03*
X130073400Y-105079800D03*
X132613400Y-105079800D03*
D11*
X135153400Y-105079800D03*
D12*
X117806800Y-89890600D03*
D13*
X117806800Y-87350600D03*
X120346800Y-89890600D03*
X120346800Y-87350600D03*
X122886800Y-89890600D03*
X122886800Y-87350600D03*
X125426800Y-89890600D03*
X125426800Y-87350600D03*
X127966800Y-89890600D03*
X127966800Y-87350600D03*
X130506800Y-89890600D03*
X130506800Y-87350600D03*
X133046800Y-89890600D03*
X133046800Y-87350600D03*
X135586800Y-89890600D03*
X135586800Y-87350600D03*
D14*
X117221000Y-102768400D03*
X123723400Y-102768400D03*
X117221000Y-107289600D03*
X123723400Y-107289600D03*
D15*
X134848600Y-96113600D03*
X121183400Y-99136200D03*
D16*
G36*
X137487401Y-108480600D02*
G01*
X123871458Y-108480600D01*
X124072552Y-108440600D01*
X124290392Y-108350368D01*
X124486443Y-108219371D01*
X124653171Y-108052643D01*
X124784168Y-107856592D01*
X124874400Y-107638752D01*
X124920400Y-107407494D01*
X124920400Y-107171706D01*
X124874400Y-106940448D01*
X124784168Y-106722608D01*
X124653171Y-106526557D01*
X124486443Y-106359829D01*
X124290392Y-106228832D01*
X124072552Y-106138600D01*
X123841294Y-106092600D01*
X123605506Y-106092600D01*
X123374248Y-106138600D01*
X123156408Y-106228832D01*
X122960357Y-106359829D01*
X122793629Y-106526557D01*
X122662632Y-106722608D01*
X122572400Y-106940448D01*
X122526400Y-107171706D01*
X122526400Y-107407494D01*
X122572400Y-107638752D01*
X122662632Y-107856592D01*
X122793629Y-108052643D01*
X122960357Y-108219371D01*
X123156408Y-108350368D01*
X123374248Y-108440600D01*
X123575342Y-108480600D01*
X117369058Y-108480600D01*
X117570152Y-108440600D01*
X117787992Y-108350368D01*
X117984043Y-108219371D01*
X118150771Y-108052643D01*
X118281768Y-107856592D01*
X118372000Y-107638752D01*
X118418000Y-107407494D01*
X118418000Y-107171706D01*
X118372000Y-106940448D01*
X118281768Y-106722608D01*
X118150771Y-106526557D01*
X117984043Y-106359829D01*
X117787992Y-106228832D01*
X117570152Y-106138600D01*
X117338894Y-106092600D01*
X117103106Y-106092600D01*
X116871848Y-106138600D01*
X116654008Y-106228832D01*
X116457957Y-106359829D01*
X116291229Y-106526557D01*
X116160232Y-106722608D01*
X116070000Y-106940448D01*
X116024000Y-107171706D01*
X116024000Y-107407494D01*
X116070000Y-107638752D01*
X116160232Y-107856592D01*
X116291229Y-108052643D01*
X116457957Y-108219371D01*
X116654008Y-108350368D01*
X116871848Y-108440600D01*
X117072942Y-108480600D01*
X115953800Y-108480600D01*
X115953800Y-105950888D01*
X126771207Y-105950888D01*
X126838086Y-106167818D01*
X127063708Y-106282561D01*
X127307380Y-106351083D01*
X127559738Y-106370750D01*
X127811084Y-106340806D01*
X128051758Y-106262403D01*
X128228714Y-106167818D01*
X128295593Y-105950888D01*
X127533400Y-105188694D01*
X126771207Y-105950888D01*
X115953800Y-105950888D01*
X115953800Y-105106138D01*
X126242450Y-105106138D01*
X126272394Y-105357484D01*
X126350797Y-105598158D01*
X126445382Y-105775114D01*
X126662312Y-105841993D01*
X127424506Y-105079800D01*
X127642294Y-105079800D01*
X128404488Y-105841993D01*
X128621418Y-105775114D01*
X128736161Y-105549492D01*
X128804683Y-105305820D01*
X128824350Y-105053462D01*
X128813584Y-104963088D01*
X128888400Y-104963088D01*
X128888400Y-105196512D01*
X128933939Y-105425452D01*
X129023266Y-105641108D01*
X129152950Y-105835194D01*
X129318006Y-106000250D01*
X129512092Y-106129934D01*
X129727748Y-106219261D01*
X129956688Y-106264800D01*
X130190112Y-106264800D01*
X130419052Y-106219261D01*
X130634708Y-106129934D01*
X130828794Y-106000250D01*
X130993850Y-105835194D01*
X131123534Y-105641108D01*
X131212861Y-105425452D01*
X131258400Y-105196512D01*
X131258400Y-104963088D01*
X131428400Y-104963088D01*
X131428400Y-105196512D01*
X131473939Y-105425452D01*
X131563266Y-105641108D01*
X131692950Y-105835194D01*
X131858006Y-106000250D01*
X132052092Y-106129934D01*
X132267748Y-106219261D01*
X132496688Y-106264800D01*
X132730112Y-106264800D01*
X132959052Y-106219261D01*
X133174708Y-106129934D01*
X133368794Y-106000250D01*
X133533850Y-105835194D01*
X133663534Y-105641108D01*
X133752861Y-105425452D01*
X133798400Y-105196512D01*
X133798400Y-104963088D01*
X133752861Y-104734148D01*
X133663534Y-104518492D01*
X133537455Y-104329800D01*
X133966296Y-104329800D01*
X133966296Y-105829800D01*
X133974695Y-105915075D01*
X133999569Y-105997072D01*
X134039961Y-106072642D01*
X134094321Y-106138879D01*
X134160558Y-106193239D01*
X134236128Y-106233631D01*
X134318125Y-106258505D01*
X134403400Y-106266904D01*
X135903400Y-106266904D01*
X135988675Y-106258505D01*
X136070672Y-106233631D01*
X136146242Y-106193239D01*
X136212479Y-106138879D01*
X136266839Y-106072642D01*
X136307231Y-105997072D01*
X136332105Y-105915075D01*
X136340504Y-105829800D01*
X136340504Y-104329800D01*
X136332105Y-104244525D01*
X136307231Y-104162528D01*
X136266839Y-104086958D01*
X136212479Y-104020721D01*
X136146242Y-103966361D01*
X136070672Y-103925969D01*
X135988675Y-103901095D01*
X135903400Y-103892696D01*
X134403400Y-103892696D01*
X134318125Y-103901095D01*
X134236128Y-103925969D01*
X134160558Y-103966361D01*
X134094321Y-104020721D01*
X134039961Y-104086958D01*
X133999569Y-104162528D01*
X133974695Y-104244525D01*
X133966296Y-104329800D01*
X133537455Y-104329800D01*
X133533850Y-104324406D01*
X133368794Y-104159350D01*
X133174708Y-104029666D01*
X132959052Y-103940339D01*
X132730112Y-103894800D01*
X132496688Y-103894800D01*
X132267748Y-103940339D01*
X132052092Y-104029666D01*
X131858006Y-104159350D01*
X131692950Y-104324406D01*
X131563266Y-104518492D01*
X131473939Y-104734148D01*
X131428400Y-104963088D01*
X131258400Y-104963088D01*
X131212861Y-104734148D01*
X131123534Y-104518492D01*
X130993850Y-104324406D01*
X130828794Y-104159350D01*
X130634708Y-104029666D01*
X130419052Y-103940339D01*
X130190112Y-103894800D01*
X129956688Y-103894800D01*
X129727748Y-103940339D01*
X129512092Y-104029666D01*
X129318006Y-104159350D01*
X129152950Y-104324406D01*
X129023266Y-104518492D01*
X128933939Y-104734148D01*
X128888400Y-104963088D01*
X128813584Y-104963088D01*
X128794406Y-104802116D01*
X128716003Y-104561442D01*
X128621418Y-104384486D01*
X128404488Y-104317607D01*
X127642294Y-105079800D01*
X127424506Y-105079800D01*
X126662312Y-104317607D01*
X126445382Y-104384486D01*
X126330639Y-104610108D01*
X126262117Y-104853780D01*
X126242450Y-105106138D01*
X115953800Y-105106138D01*
X115953800Y-104208712D01*
X126771207Y-104208712D01*
X127533400Y-104970906D01*
X128295593Y-104208712D01*
X128228714Y-103991782D01*
X128003092Y-103877039D01*
X127759420Y-103808517D01*
X127507062Y-103788850D01*
X127255716Y-103818794D01*
X127015042Y-103897197D01*
X126838086Y-103991782D01*
X126771207Y-104208712D01*
X115953800Y-104208712D01*
X115953800Y-102650506D01*
X116024000Y-102650506D01*
X116024000Y-102886294D01*
X116070000Y-103117552D01*
X116160232Y-103335392D01*
X116291229Y-103531443D01*
X116457957Y-103698171D01*
X116654008Y-103829168D01*
X116871848Y-103919400D01*
X117103106Y-103965400D01*
X117338894Y-103965400D01*
X117570152Y-103919400D01*
X117787992Y-103829168D01*
X117984043Y-103698171D01*
X118150771Y-103531443D01*
X118281768Y-103335392D01*
X118372000Y-103117552D01*
X118418000Y-102886294D01*
X118418000Y-102650506D01*
X122526400Y-102650506D01*
X122526400Y-102886294D01*
X122572400Y-103117552D01*
X122662632Y-103335392D01*
X122793629Y-103531443D01*
X122960357Y-103698171D01*
X123156408Y-103829168D01*
X123374248Y-103919400D01*
X123605506Y-103965400D01*
X123841294Y-103965400D01*
X124072552Y-103919400D01*
X124290392Y-103829168D01*
X124486443Y-103698171D01*
X124653171Y-103531443D01*
X124784168Y-103335392D01*
X124874400Y-103117552D01*
X124920400Y-102886294D01*
X124920400Y-102650506D01*
X124874400Y-102419248D01*
X124784168Y-102201408D01*
X124653171Y-102005357D01*
X124486443Y-101838629D01*
X124290392Y-101707632D01*
X124072552Y-101617400D01*
X123841294Y-101571400D01*
X123605506Y-101571400D01*
X123374248Y-101617400D01*
X123156408Y-101707632D01*
X122960357Y-101838629D01*
X122793629Y-102005357D01*
X122662632Y-102201408D01*
X122572400Y-102419248D01*
X122526400Y-102650506D01*
X118418000Y-102650506D01*
X118372000Y-102419248D01*
X118281768Y-102201408D01*
X118150771Y-102005357D01*
X117984043Y-101838629D01*
X117787992Y-101707632D01*
X117570152Y-101617400D01*
X117338894Y-101571400D01*
X117103106Y-101571400D01*
X116871848Y-101617400D01*
X116654008Y-101707632D01*
X116457957Y-101838629D01*
X116291229Y-102005357D01*
X116160232Y-102201408D01*
X116070000Y-102419248D01*
X116024000Y-102650506D01*
X115953800Y-102650506D01*
X115953800Y-93043010D01*
X115951883Y-93023549D01*
X115951898Y-93021428D01*
X115951271Y-93015036D01*
X115947668Y-92980758D01*
X115947143Y-92975424D01*
X115947089Y-92975246D01*
X115944017Y-92946016D01*
X115935640Y-92905208D01*
X115927823Y-92864225D01*
X115925966Y-92858076D01*
X115905444Y-92791777D01*
X115889301Y-92753374D01*
X115873668Y-92714681D01*
X115870652Y-92709010D01*
X115837643Y-92647961D01*
X115814329Y-92613397D01*
X115791500Y-92578512D01*
X115787441Y-92573534D01*
X115743203Y-92520060D01*
X115713605Y-92490669D01*
X115684452Y-92460898D01*
X115679503Y-92456804D01*
X115625721Y-92412940D01*
X115590975Y-92389854D01*
X115556595Y-92366314D01*
X115550945Y-92363258D01*
X115489668Y-92330676D01*
X115451146Y-92314798D01*
X115412799Y-92298363D01*
X115406663Y-92296464D01*
X115340224Y-92276405D01*
X115299346Y-92268311D01*
X115258543Y-92259639D01*
X115252156Y-92258967D01*
X115183086Y-92252195D01*
X115183075Y-92252195D01*
X115160790Y-92250000D01*
X109603800Y-92250000D01*
X109603800Y-88696691D01*
X110524587Y-88696691D01*
X110524587Y-89093149D01*
X110601932Y-89481989D01*
X110753650Y-89848269D01*
X110973911Y-90177911D01*
X111254249Y-90458249D01*
X111583891Y-90678510D01*
X111950171Y-90830228D01*
X112339011Y-90907573D01*
X112735469Y-90907573D01*
X113124309Y-90830228D01*
X113490589Y-90678510D01*
X113820231Y-90458249D01*
X114100569Y-90177911D01*
X114320830Y-89848269D01*
X114472548Y-89481989D01*
X114549893Y-89093149D01*
X114549893Y-89040600D01*
X116519696Y-89040600D01*
X116519696Y-90740600D01*
X116528095Y-90825875D01*
X116552969Y-90907872D01*
X116593361Y-90983442D01*
X116647721Y-91049679D01*
X116713958Y-91104039D01*
X116789528Y-91144431D01*
X116871525Y-91169305D01*
X116956800Y-91177704D01*
X118656800Y-91177704D01*
X118742075Y-91169305D01*
X118824072Y-91144431D01*
X118899642Y-91104039D01*
X118965879Y-91049679D01*
X119020239Y-90983442D01*
X119060631Y-90907872D01*
X119085505Y-90825875D01*
X119093904Y-90740600D01*
X119093904Y-90178562D01*
X119111181Y-90265421D01*
X119208047Y-90499276D01*
X119348675Y-90709740D01*
X119527660Y-90888725D01*
X119738124Y-91029353D01*
X119971979Y-91126219D01*
X120220239Y-91175600D01*
X120473361Y-91175600D01*
X120721621Y-91126219D01*
X120955476Y-91029353D01*
X121165940Y-90888725D01*
X121344925Y-90709740D01*
X121485553Y-90499276D01*
X121582419Y-90265421D01*
X121616800Y-90092573D01*
X121651181Y-90265421D01*
X121748047Y-90499276D01*
X121888675Y-90709740D01*
X122067660Y-90888725D01*
X122278124Y-91029353D01*
X122511979Y-91126219D01*
X122760239Y-91175600D01*
X123013361Y-91175600D01*
X123261621Y-91126219D01*
X123495476Y-91029353D01*
X123705940Y-90888725D01*
X123884925Y-90709740D01*
X124025553Y-90499276D01*
X124122419Y-90265421D01*
X124156800Y-90092573D01*
X124191181Y-90265421D01*
X124288047Y-90499276D01*
X124428675Y-90709740D01*
X124607660Y-90888725D01*
X124818124Y-91029353D01*
X125051979Y-91126219D01*
X125300239Y-91175600D01*
X125553361Y-91175600D01*
X125801621Y-91126219D01*
X126035476Y-91029353D01*
X126245940Y-90888725D01*
X126424925Y-90709740D01*
X126565553Y-90499276D01*
X126649511Y-90296584D01*
X126696063Y-90441472D01*
X126827950Y-90678796D01*
X127003602Y-90885830D01*
X127216269Y-91054618D01*
X127457779Y-91178673D01*
X127674421Y-91244387D01*
X127889800Y-91139479D01*
X127889800Y-89967600D01*
X127869800Y-89967600D01*
X127869800Y-89813600D01*
X127889800Y-89813600D01*
X127889800Y-89793600D01*
X128043800Y-89793600D01*
X128043800Y-89813600D01*
X128063800Y-89813600D01*
X128063800Y-89967600D01*
X128043800Y-89967600D01*
X128043800Y-91139479D01*
X128259179Y-91244387D01*
X128475821Y-91178673D01*
X128717331Y-91054618D01*
X128929998Y-90885830D01*
X129105650Y-90678796D01*
X129237537Y-90441472D01*
X129284089Y-90296584D01*
X129368047Y-90499276D01*
X129508675Y-90709740D01*
X129687660Y-90888725D01*
X129898124Y-91029353D01*
X130131979Y-91126219D01*
X130380239Y-91175600D01*
X130633361Y-91175600D01*
X130881621Y-91126219D01*
X131115476Y-91029353D01*
X131325940Y-90888725D01*
X131504925Y-90709740D01*
X131645553Y-90499276D01*
X131742419Y-90265421D01*
X131776800Y-90092573D01*
X131811181Y-90265421D01*
X131908047Y-90499276D01*
X132048675Y-90709740D01*
X132227660Y-90888725D01*
X132438124Y-91029353D01*
X132671979Y-91126219D01*
X132920239Y-91175600D01*
X133173361Y-91175600D01*
X133421621Y-91126219D01*
X133655476Y-91029353D01*
X133865940Y-90888725D01*
X134044925Y-90709740D01*
X134185553Y-90499276D01*
X134282419Y-90265421D01*
X134316800Y-90092573D01*
X134351181Y-90265421D01*
X134448047Y-90499276D01*
X134588675Y-90709740D01*
X134767660Y-90888725D01*
X134978124Y-91029353D01*
X135211979Y-91126219D01*
X135460239Y-91175600D01*
X135713361Y-91175600D01*
X135961621Y-91126219D01*
X136195476Y-91029353D01*
X136405940Y-90888725D01*
X136584925Y-90709740D01*
X136725553Y-90499276D01*
X136822419Y-90265421D01*
X136871800Y-90017161D01*
X136871800Y-89764039D01*
X136822419Y-89515779D01*
X136725553Y-89281924D01*
X136584925Y-89071460D01*
X136405940Y-88892475D01*
X136195476Y-88751847D01*
X135961621Y-88654981D01*
X135788773Y-88620600D01*
X135961621Y-88586219D01*
X136195476Y-88489353D01*
X136405940Y-88348725D01*
X136584925Y-88169740D01*
X136725553Y-87959276D01*
X136822419Y-87725421D01*
X136871800Y-87477161D01*
X136871800Y-87224039D01*
X136822419Y-86975779D01*
X136725553Y-86741924D01*
X136584925Y-86531460D01*
X136405940Y-86352475D01*
X136195476Y-86211847D01*
X135961621Y-86114981D01*
X135713361Y-86065600D01*
X135460239Y-86065600D01*
X135211979Y-86114981D01*
X134978124Y-86211847D01*
X134767660Y-86352475D01*
X134588675Y-86531460D01*
X134448047Y-86741924D01*
X134351181Y-86975779D01*
X134316800Y-87148627D01*
X134282419Y-86975779D01*
X134185553Y-86741924D01*
X134044925Y-86531460D01*
X133865940Y-86352475D01*
X133655476Y-86211847D01*
X133421621Y-86114981D01*
X133173361Y-86065600D01*
X132920239Y-86065600D01*
X132671979Y-86114981D01*
X132438124Y-86211847D01*
X132227660Y-86352475D01*
X132048675Y-86531460D01*
X131908047Y-86741924D01*
X131811181Y-86975779D01*
X131776800Y-87148627D01*
X131742419Y-86975779D01*
X131645553Y-86741924D01*
X131504925Y-86531460D01*
X131325940Y-86352475D01*
X131115476Y-86211847D01*
X130881621Y-86114981D01*
X130633361Y-86065600D01*
X130380239Y-86065600D01*
X130131979Y-86114981D01*
X129898124Y-86211847D01*
X129687660Y-86352475D01*
X129508675Y-86531460D01*
X129368047Y-86741924D01*
X129271181Y-86975779D01*
X129236800Y-87148627D01*
X129202419Y-86975779D01*
X129105553Y-86741924D01*
X128964925Y-86531460D01*
X128785940Y-86352475D01*
X128575476Y-86211847D01*
X128341621Y-86114981D01*
X128093361Y-86065600D01*
X127840239Y-86065600D01*
X127591979Y-86114981D01*
X127358124Y-86211847D01*
X127147660Y-86352475D01*
X126968675Y-86531460D01*
X126828047Y-86741924D01*
X126731181Y-86975779D01*
X126696800Y-87148627D01*
X126662419Y-86975779D01*
X126565553Y-86741924D01*
X126424925Y-86531460D01*
X126245940Y-86352475D01*
X126035476Y-86211847D01*
X125801621Y-86114981D01*
X125553361Y-86065600D01*
X125300239Y-86065600D01*
X125051979Y-86114981D01*
X124818124Y-86211847D01*
X124607660Y-86352475D01*
X124428675Y-86531460D01*
X124288047Y-86741924D01*
X124204089Y-86944616D01*
X124157537Y-86799728D01*
X124025650Y-86562404D01*
X123849998Y-86355370D01*
X123637331Y-86186582D01*
X123395821Y-86062527D01*
X123179179Y-85996813D01*
X122963800Y-86101721D01*
X122963800Y-87273600D01*
X122983800Y-87273600D01*
X122983800Y-87427600D01*
X122963800Y-87427600D01*
X122963800Y-87447600D01*
X122809800Y-87447600D01*
X122809800Y-87427600D01*
X122789800Y-87427600D01*
X122789800Y-87273600D01*
X122809800Y-87273600D01*
X122809800Y-86101721D01*
X122594421Y-85996813D01*
X122377779Y-86062527D01*
X122136269Y-86186582D01*
X121923602Y-86355370D01*
X121747950Y-86562404D01*
X121616063Y-86799728D01*
X121569511Y-86944616D01*
X121485553Y-86741924D01*
X121344925Y-86531460D01*
X121165940Y-86352475D01*
X120955476Y-86211847D01*
X120721621Y-86114981D01*
X120473361Y-86065600D01*
X120220239Y-86065600D01*
X119971979Y-86114981D01*
X119738124Y-86211847D01*
X119527660Y-86352475D01*
X119348675Y-86531460D01*
X119208047Y-86741924D01*
X119111181Y-86975779D01*
X119076800Y-87148627D01*
X119042419Y-86975779D01*
X118945553Y-86741924D01*
X118804925Y-86531460D01*
X118625940Y-86352475D01*
X118415476Y-86211847D01*
X118181621Y-86114981D01*
X117933361Y-86065600D01*
X117680239Y-86065600D01*
X117431979Y-86114981D01*
X117198124Y-86211847D01*
X116987660Y-86352475D01*
X116808675Y-86531460D01*
X116668047Y-86741924D01*
X116571181Y-86975779D01*
X116521800Y-87224039D01*
X116521800Y-87477161D01*
X116571181Y-87725421D01*
X116668047Y-87959276D01*
X116808675Y-88169740D01*
X116987660Y-88348725D01*
X117198124Y-88489353D01*
X117431979Y-88586219D01*
X117518838Y-88603496D01*
X116956800Y-88603496D01*
X116871525Y-88611895D01*
X116789528Y-88636769D01*
X116713958Y-88677161D01*
X116647721Y-88731521D01*
X116593361Y-88797758D01*
X116552969Y-88873328D01*
X116528095Y-88955325D01*
X116519696Y-89040600D01*
X114549893Y-89040600D01*
X114549893Y-88696691D01*
X114472548Y-88307851D01*
X114320830Y-87941571D01*
X114100569Y-87611929D01*
X113820231Y-87331591D01*
X113490589Y-87111330D01*
X113124309Y-86959612D01*
X112735469Y-86882267D01*
X112339011Y-86882267D01*
X111950171Y-86959612D01*
X111583891Y-87111330D01*
X111254249Y-87331591D01*
X110973911Y-87611929D01*
X110753650Y-87941571D01*
X110601932Y-88307851D01*
X110524587Y-88696691D01*
X109603800Y-88696691D01*
X109603800Y-85702400D01*
X137487400Y-85702400D01*
X137487401Y-108480600D01*
G37*
X137487401Y-108480600D02*
X123871458Y-108480600D01*
X124072552Y-108440600D01*
X124290392Y-108350368D01*
X124486443Y-108219371D01*
X124653171Y-108052643D01*
X124784168Y-107856592D01*
X124874400Y-107638752D01*
X124920400Y-107407494D01*
X124920400Y-107171706D01*
X124874400Y-106940448D01*
X124784168Y-106722608D01*
X124653171Y-106526557D01*
X124486443Y-106359829D01*
X124290392Y-106228832D01*
X124072552Y-106138600D01*
X123841294Y-106092600D01*
X123605506Y-106092600D01*
X123374248Y-106138600D01*
X123156408Y-106228832D01*
X122960357Y-106359829D01*
X122793629Y-106526557D01*
X122662632Y-106722608D01*
X122572400Y-106940448D01*
X122526400Y-107171706D01*
X122526400Y-107407494D01*
X122572400Y-107638752D01*
X122662632Y-107856592D01*
X122793629Y-108052643D01*
X122960357Y-108219371D01*
X123156408Y-108350368D01*
X123374248Y-108440600D01*
X123575342Y-108480600D01*
X117369058Y-108480600D01*
X117570152Y-108440600D01*
X117787992Y-108350368D01*
X117984043Y-108219371D01*
X118150771Y-108052643D01*
X118281768Y-107856592D01*
X118372000Y-107638752D01*
X118418000Y-107407494D01*
X118418000Y-107171706D01*
X118372000Y-106940448D01*
X118281768Y-106722608D01*
X118150771Y-106526557D01*
X117984043Y-106359829D01*
X117787992Y-106228832D01*
X117570152Y-106138600D01*
X117338894Y-106092600D01*
X117103106Y-106092600D01*
X116871848Y-106138600D01*
X116654008Y-106228832D01*
X116457957Y-106359829D01*
X116291229Y-106526557D01*
X116160232Y-106722608D01*
X116070000Y-106940448D01*
X116024000Y-107171706D01*
X116024000Y-107407494D01*
X116070000Y-107638752D01*
X116160232Y-107856592D01*
X116291229Y-108052643D01*
X116457957Y-108219371D01*
X116654008Y-108350368D01*
X116871848Y-108440600D01*
X117072942Y-108480600D01*
X115953800Y-108480600D01*
X115953800Y-105950888D01*
X126771207Y-105950888D01*
X126838086Y-106167818D01*
X127063708Y-106282561D01*
X127307380Y-106351083D01*
X127559738Y-106370750D01*
X127811084Y-106340806D01*
X128051758Y-106262403D01*
X128228714Y-106167818D01*
X128295593Y-105950888D01*
X127533400Y-105188694D01*
X126771207Y-105950888D01*
X115953800Y-105950888D01*
X115953800Y-105106138D01*
X126242450Y-105106138D01*
X126272394Y-105357484D01*
X126350797Y-105598158D01*
X126445382Y-105775114D01*
X126662312Y-105841993D01*
X127424506Y-105079800D01*
X127642294Y-105079800D01*
X128404488Y-105841993D01*
X128621418Y-105775114D01*
X128736161Y-105549492D01*
X128804683Y-105305820D01*
X128824350Y-105053462D01*
X128813584Y-104963088D01*
X128888400Y-104963088D01*
X128888400Y-105196512D01*
X128933939Y-105425452D01*
X129023266Y-105641108D01*
X129152950Y-105835194D01*
X129318006Y-106000250D01*
X129512092Y-106129934D01*
X129727748Y-106219261D01*
X129956688Y-106264800D01*
X130190112Y-106264800D01*
X130419052Y-106219261D01*
X130634708Y-106129934D01*
X130828794Y-106000250D01*
X130993850Y-105835194D01*
X131123534Y-105641108D01*
X131212861Y-105425452D01*
X131258400Y-105196512D01*
X131258400Y-104963088D01*
X131428400Y-104963088D01*
X131428400Y-105196512D01*
X131473939Y-105425452D01*
X131563266Y-105641108D01*
X131692950Y-105835194D01*
X131858006Y-106000250D01*
X132052092Y-106129934D01*
X132267748Y-106219261D01*
X132496688Y-106264800D01*
X132730112Y-106264800D01*
X132959052Y-106219261D01*
X133174708Y-106129934D01*
X133368794Y-106000250D01*
X133533850Y-105835194D01*
X133663534Y-105641108D01*
X133752861Y-105425452D01*
X133798400Y-105196512D01*
X133798400Y-104963088D01*
X133752861Y-104734148D01*
X133663534Y-104518492D01*
X133537455Y-104329800D01*
X133966296Y-104329800D01*
X133966296Y-105829800D01*
X133974695Y-105915075D01*
X133999569Y-105997072D01*
X134039961Y-106072642D01*
X134094321Y-106138879D01*
X134160558Y-106193239D01*
X134236128Y-106233631D01*
X134318125Y-106258505D01*
X134403400Y-106266904D01*
X135903400Y-106266904D01*
X135988675Y-106258505D01*
X136070672Y-106233631D01*
X136146242Y-106193239D01*
X136212479Y-106138879D01*
X136266839Y-106072642D01*
X136307231Y-105997072D01*
X136332105Y-105915075D01*
X136340504Y-105829800D01*
X136340504Y-104329800D01*
X136332105Y-104244525D01*
X136307231Y-104162528D01*
X136266839Y-104086958D01*
X136212479Y-104020721D01*
X136146242Y-103966361D01*
X136070672Y-103925969D01*
X135988675Y-103901095D01*
X135903400Y-103892696D01*
X134403400Y-103892696D01*
X134318125Y-103901095D01*
X134236128Y-103925969D01*
X134160558Y-103966361D01*
X134094321Y-104020721D01*
X134039961Y-104086958D01*
X133999569Y-104162528D01*
X133974695Y-104244525D01*
X133966296Y-104329800D01*
X133537455Y-104329800D01*
X133533850Y-104324406D01*
X133368794Y-104159350D01*
X133174708Y-104029666D01*
X132959052Y-103940339D01*
X132730112Y-103894800D01*
X132496688Y-103894800D01*
X132267748Y-103940339D01*
X132052092Y-104029666D01*
X131858006Y-104159350D01*
X131692950Y-104324406D01*
X131563266Y-104518492D01*
X131473939Y-104734148D01*
X131428400Y-104963088D01*
X131258400Y-104963088D01*
X131212861Y-104734148D01*
X131123534Y-104518492D01*
X130993850Y-104324406D01*
X130828794Y-104159350D01*
X130634708Y-104029666D01*
X130419052Y-103940339D01*
X130190112Y-103894800D01*
X129956688Y-103894800D01*
X129727748Y-103940339D01*
X129512092Y-104029666D01*
X129318006Y-104159350D01*
X129152950Y-104324406D01*
X129023266Y-104518492D01*
X128933939Y-104734148D01*
X128888400Y-104963088D01*
X128813584Y-104963088D01*
X128794406Y-104802116D01*
X128716003Y-104561442D01*
X128621418Y-104384486D01*
X128404488Y-104317607D01*
X127642294Y-105079800D01*
X127424506Y-105079800D01*
X126662312Y-104317607D01*
X126445382Y-104384486D01*
X126330639Y-104610108D01*
X126262117Y-104853780D01*
X126242450Y-105106138D01*
X115953800Y-105106138D01*
X115953800Y-104208712D01*
X126771207Y-104208712D01*
X127533400Y-104970906D01*
X128295593Y-104208712D01*
X128228714Y-103991782D01*
X128003092Y-103877039D01*
X127759420Y-103808517D01*
X127507062Y-103788850D01*
X127255716Y-103818794D01*
X127015042Y-103897197D01*
X126838086Y-103991782D01*
X126771207Y-104208712D01*
X115953800Y-104208712D01*
X115953800Y-102650506D01*
X116024000Y-102650506D01*
X116024000Y-102886294D01*
X116070000Y-103117552D01*
X116160232Y-103335392D01*
X116291229Y-103531443D01*
X116457957Y-103698171D01*
X116654008Y-103829168D01*
X116871848Y-103919400D01*
X117103106Y-103965400D01*
X117338894Y-103965400D01*
X117570152Y-103919400D01*
X117787992Y-103829168D01*
X117984043Y-103698171D01*
X118150771Y-103531443D01*
X118281768Y-103335392D01*
X118372000Y-103117552D01*
X118418000Y-102886294D01*
X118418000Y-102650506D01*
X122526400Y-102650506D01*
X122526400Y-102886294D01*
X122572400Y-103117552D01*
X122662632Y-103335392D01*
X122793629Y-103531443D01*
X122960357Y-103698171D01*
X123156408Y-103829168D01*
X123374248Y-103919400D01*
X123605506Y-103965400D01*
X123841294Y-103965400D01*
X124072552Y-103919400D01*
X124290392Y-103829168D01*
X124486443Y-103698171D01*
X124653171Y-103531443D01*
X124784168Y-103335392D01*
X124874400Y-103117552D01*
X124920400Y-102886294D01*
X124920400Y-102650506D01*
X124874400Y-102419248D01*
X124784168Y-102201408D01*
X124653171Y-102005357D01*
X124486443Y-101838629D01*
X124290392Y-101707632D01*
X124072552Y-101617400D01*
X123841294Y-101571400D01*
X123605506Y-101571400D01*
X123374248Y-101617400D01*
X123156408Y-101707632D01*
X122960357Y-101838629D01*
X122793629Y-102005357D01*
X122662632Y-102201408D01*
X122572400Y-102419248D01*
X122526400Y-102650506D01*
X118418000Y-102650506D01*
X118372000Y-102419248D01*
X118281768Y-102201408D01*
X118150771Y-102005357D01*
X117984043Y-101838629D01*
X117787992Y-101707632D01*
X117570152Y-101617400D01*
X117338894Y-101571400D01*
X117103106Y-101571400D01*
X116871848Y-101617400D01*
X116654008Y-101707632D01*
X116457957Y-101838629D01*
X116291229Y-102005357D01*
X116160232Y-102201408D01*
X116070000Y-102419248D01*
X116024000Y-102650506D01*
X115953800Y-102650506D01*
X115953800Y-93043010D01*
X115951883Y-93023549D01*
X115951898Y-93021428D01*
X115951271Y-93015036D01*
X115947668Y-92980758D01*
X115947143Y-92975424D01*
X115947089Y-92975246D01*
X115944017Y-92946016D01*
X115935640Y-92905208D01*
X115927823Y-92864225D01*
X115925966Y-92858076D01*
X115905444Y-92791777D01*
X115889301Y-92753374D01*
X115873668Y-92714681D01*
X115870652Y-92709010D01*
X115837643Y-92647961D01*
X115814329Y-92613397D01*
X115791500Y-92578512D01*
X115787441Y-92573534D01*
X115743203Y-92520060D01*
X115713605Y-92490669D01*
X115684452Y-92460898D01*
X115679503Y-92456804D01*
X115625721Y-92412940D01*
X115590975Y-92389854D01*
X115556595Y-92366314D01*
X115550945Y-92363258D01*
X115489668Y-92330676D01*
X115451146Y-92314798D01*
X115412799Y-92298363D01*
X115406663Y-92296464D01*
X115340224Y-92276405D01*
X115299346Y-92268311D01*
X115258543Y-92259639D01*
X115252156Y-92258967D01*
X115183086Y-92252195D01*
X115183075Y-92252195D01*
X115160790Y-92250000D01*
X109603800Y-92250000D01*
X109603800Y-88696691D01*
X110524587Y-88696691D01*
X110524587Y-89093149D01*
X110601932Y-89481989D01*
X110753650Y-89848269D01*
X110973911Y-90177911D01*
X111254249Y-90458249D01*
X111583891Y-90678510D01*
X111950171Y-90830228D01*
X112339011Y-90907573D01*
X112735469Y-90907573D01*
X113124309Y-90830228D01*
X113490589Y-90678510D01*
X113820231Y-90458249D01*
X114100569Y-90177911D01*
X114320830Y-89848269D01*
X114472548Y-89481989D01*
X114549893Y-89093149D01*
X114549893Y-89040600D01*
X116519696Y-89040600D01*
X116519696Y-90740600D01*
X116528095Y-90825875D01*
X116552969Y-90907872D01*
X116593361Y-90983442D01*
X116647721Y-91049679D01*
X116713958Y-91104039D01*
X116789528Y-91144431D01*
X116871525Y-91169305D01*
X116956800Y-91177704D01*
X118656800Y-91177704D01*
X118742075Y-91169305D01*
X118824072Y-91144431D01*
X118899642Y-91104039D01*
X118965879Y-91049679D01*
X119020239Y-90983442D01*
X119060631Y-90907872D01*
X119085505Y-90825875D01*
X119093904Y-90740600D01*
X119093904Y-90178562D01*
X119111181Y-90265421D01*
X119208047Y-90499276D01*
X119348675Y-90709740D01*
X119527660Y-90888725D01*
X119738124Y-91029353D01*
X119971979Y-91126219D01*
X120220239Y-91175600D01*
X120473361Y-91175600D01*
X120721621Y-91126219D01*
X120955476Y-91029353D01*
X121165940Y-90888725D01*
X121344925Y-90709740D01*
X121485553Y-90499276D01*
X121582419Y-90265421D01*
X121616800Y-90092573D01*
X121651181Y-90265421D01*
X121748047Y-90499276D01*
X121888675Y-90709740D01*
X122067660Y-90888725D01*
X122278124Y-91029353D01*
X122511979Y-91126219D01*
X122760239Y-91175600D01*
X123013361Y-91175600D01*
X123261621Y-91126219D01*
X123495476Y-91029353D01*
X123705940Y-90888725D01*
X123884925Y-90709740D01*
X124025553Y-90499276D01*
X124122419Y-90265421D01*
X124156800Y-90092573D01*
X124191181Y-90265421D01*
X124288047Y-90499276D01*
X124428675Y-90709740D01*
X124607660Y-90888725D01*
X124818124Y-91029353D01*
X125051979Y-91126219D01*
X125300239Y-91175600D01*
X125553361Y-91175600D01*
X125801621Y-91126219D01*
X126035476Y-91029353D01*
X126245940Y-90888725D01*
X126424925Y-90709740D01*
X126565553Y-90499276D01*
X126649511Y-90296584D01*
X126696063Y-90441472D01*
X126827950Y-90678796D01*
X127003602Y-90885830D01*
X127216269Y-91054618D01*
X127457779Y-91178673D01*
X127674421Y-91244387D01*
X127889800Y-91139479D01*
X127889800Y-89967600D01*
X127869800Y-89967600D01*
X127869800Y-89813600D01*
X127889800Y-89813600D01*
X127889800Y-89793600D01*
X128043800Y-89793600D01*
X128043800Y-89813600D01*
X128063800Y-89813600D01*
X128063800Y-89967600D01*
X128043800Y-89967600D01*
X128043800Y-91139479D01*
X128259179Y-91244387D01*
X128475821Y-91178673D01*
X128717331Y-91054618D01*
X128929998Y-90885830D01*
X129105650Y-90678796D01*
X129237537Y-90441472D01*
X129284089Y-90296584D01*
X129368047Y-90499276D01*
X129508675Y-90709740D01*
X129687660Y-90888725D01*
X129898124Y-91029353D01*
X130131979Y-91126219D01*
X130380239Y-91175600D01*
X130633361Y-91175600D01*
X130881621Y-91126219D01*
X131115476Y-91029353D01*
X131325940Y-90888725D01*
X131504925Y-90709740D01*
X131645553Y-90499276D01*
X131742419Y-90265421D01*
X131776800Y-90092573D01*
X131811181Y-90265421D01*
X131908047Y-90499276D01*
X132048675Y-90709740D01*
X132227660Y-90888725D01*
X132438124Y-91029353D01*
X132671979Y-91126219D01*
X132920239Y-91175600D01*
X133173361Y-91175600D01*
X133421621Y-91126219D01*
X133655476Y-91029353D01*
X133865940Y-90888725D01*
X134044925Y-90709740D01*
X134185553Y-90499276D01*
X134282419Y-90265421D01*
X134316800Y-90092573D01*
X134351181Y-90265421D01*
X134448047Y-90499276D01*
X134588675Y-90709740D01*
X134767660Y-90888725D01*
X134978124Y-91029353D01*
X135211979Y-91126219D01*
X135460239Y-91175600D01*
X135713361Y-91175600D01*
X135961621Y-91126219D01*
X136195476Y-91029353D01*
X136405940Y-90888725D01*
X136584925Y-90709740D01*
X136725553Y-90499276D01*
X136822419Y-90265421D01*
X136871800Y-90017161D01*
X136871800Y-89764039D01*
X136822419Y-89515779D01*
X136725553Y-89281924D01*
X136584925Y-89071460D01*
X136405940Y-88892475D01*
X136195476Y-88751847D01*
X135961621Y-88654981D01*
X135788773Y-88620600D01*
X135961621Y-88586219D01*
X136195476Y-88489353D01*
X136405940Y-88348725D01*
X136584925Y-88169740D01*
X136725553Y-87959276D01*
X136822419Y-87725421D01*
X136871800Y-87477161D01*
X136871800Y-87224039D01*
X136822419Y-86975779D01*
X136725553Y-86741924D01*
X136584925Y-86531460D01*
X136405940Y-86352475D01*
X136195476Y-86211847D01*
X135961621Y-86114981D01*
X135713361Y-86065600D01*
X135460239Y-86065600D01*
X135211979Y-86114981D01*
X134978124Y-86211847D01*
X134767660Y-86352475D01*
X134588675Y-86531460D01*
X134448047Y-86741924D01*
X134351181Y-86975779D01*
X134316800Y-87148627D01*
X134282419Y-86975779D01*
X134185553Y-86741924D01*
X134044925Y-86531460D01*
X133865940Y-86352475D01*
X133655476Y-86211847D01*
X133421621Y-86114981D01*
X133173361Y-86065600D01*
X132920239Y-86065600D01*
X132671979Y-86114981D01*
X132438124Y-86211847D01*
X132227660Y-86352475D01*
X132048675Y-86531460D01*
X131908047Y-86741924D01*
X131811181Y-86975779D01*
X131776800Y-87148627D01*
X131742419Y-86975779D01*
X131645553Y-86741924D01*
X131504925Y-86531460D01*
X131325940Y-86352475D01*
X131115476Y-86211847D01*
X130881621Y-86114981D01*
X130633361Y-86065600D01*
X130380239Y-86065600D01*
X130131979Y-86114981D01*
X129898124Y-86211847D01*
X129687660Y-86352475D01*
X129508675Y-86531460D01*
X129368047Y-86741924D01*
X129271181Y-86975779D01*
X129236800Y-87148627D01*
X129202419Y-86975779D01*
X129105553Y-86741924D01*
X128964925Y-86531460D01*
X128785940Y-86352475D01*
X128575476Y-86211847D01*
X128341621Y-86114981D01*
X128093361Y-86065600D01*
X127840239Y-86065600D01*
X127591979Y-86114981D01*
X127358124Y-86211847D01*
X127147660Y-86352475D01*
X126968675Y-86531460D01*
X126828047Y-86741924D01*
X126731181Y-86975779D01*
X126696800Y-87148627D01*
X126662419Y-86975779D01*
X126565553Y-86741924D01*
X126424925Y-86531460D01*
X126245940Y-86352475D01*
X126035476Y-86211847D01*
X125801621Y-86114981D01*
X125553361Y-86065600D01*
X125300239Y-86065600D01*
X125051979Y-86114981D01*
X124818124Y-86211847D01*
X124607660Y-86352475D01*
X124428675Y-86531460D01*
X124288047Y-86741924D01*
X124204089Y-86944616D01*
X124157537Y-86799728D01*
X124025650Y-86562404D01*
X123849998Y-86355370D01*
X123637331Y-86186582D01*
X123395821Y-86062527D01*
X123179179Y-85996813D01*
X122963800Y-86101721D01*
X122963800Y-87273600D01*
X122983800Y-87273600D01*
X122983800Y-87427600D01*
X122963800Y-87427600D01*
X122963800Y-87447600D01*
X122809800Y-87447600D01*
X122809800Y-87427600D01*
X122789800Y-87427600D01*
X122789800Y-87273600D01*
X122809800Y-87273600D01*
X122809800Y-86101721D01*
X122594421Y-85996813D01*
X122377779Y-86062527D01*
X122136269Y-86186582D01*
X121923602Y-86355370D01*
X121747950Y-86562404D01*
X121616063Y-86799728D01*
X121569511Y-86944616D01*
X121485553Y-86741924D01*
X121344925Y-86531460D01*
X121165940Y-86352475D01*
X120955476Y-86211847D01*
X120721621Y-86114981D01*
X120473361Y-86065600D01*
X120220239Y-86065600D01*
X119971979Y-86114981D01*
X119738124Y-86211847D01*
X119527660Y-86352475D01*
X119348675Y-86531460D01*
X119208047Y-86741924D01*
X119111181Y-86975779D01*
X119076800Y-87148627D01*
X119042419Y-86975779D01*
X118945553Y-86741924D01*
X118804925Y-86531460D01*
X118625940Y-86352475D01*
X118415476Y-86211847D01*
X118181621Y-86114981D01*
X117933361Y-86065600D01*
X117680239Y-86065600D01*
X117431979Y-86114981D01*
X117198124Y-86211847D01*
X116987660Y-86352475D01*
X116808675Y-86531460D01*
X116668047Y-86741924D01*
X116571181Y-86975779D01*
X116521800Y-87224039D01*
X116521800Y-87477161D01*
X116571181Y-87725421D01*
X116668047Y-87959276D01*
X116808675Y-88169740D01*
X116987660Y-88348725D01*
X117198124Y-88489353D01*
X117431979Y-88586219D01*
X117518838Y-88603496D01*
X116956800Y-88603496D01*
X116871525Y-88611895D01*
X116789528Y-88636769D01*
X116713958Y-88677161D01*
X116647721Y-88731521D01*
X116593361Y-88797758D01*
X116552969Y-88873328D01*
X116528095Y-88955325D01*
X116519696Y-89040600D01*
X114549893Y-89040600D01*
X114549893Y-88696691D01*
X114472548Y-88307851D01*
X114320830Y-87941571D01*
X114100569Y-87611929D01*
X113820231Y-87331591D01*
X113490589Y-87111330D01*
X113124309Y-86959612D01*
X112735469Y-86882267D01*
X112339011Y-86882267D01*
X111950171Y-86959612D01*
X111583891Y-87111330D01*
X111254249Y-87331591D01*
X110973911Y-87611929D01*
X110753650Y-87941571D01*
X110601932Y-88307851D01*
X110524587Y-88696691D01*
X109603800Y-88696691D01*
X109603800Y-85702400D01*
X137487400Y-85702400D01*
X137487401Y-108480600D01*
M02*
