G04 #@! TF.GenerationSoftware,KiCad,Pcbnew,(5.1.5)-3*
G04 #@! TF.CreationDate,2020-07-05T19:40:21-04:00*
G04 #@! TF.ProjectId,RPi HAT,52506920-4841-4542-9e6b-696361645f70,rev?*
G04 #@! TF.SameCoordinates,Original*
G04 #@! TF.FileFunction,Soldermask,Top*
G04 #@! TF.FilePolarity,Negative*
%FSLAX46Y46*%
G04 Gerber Fmt 4.6, Leading zero omitted, Abs format (unit mm)*
G04 Created by KiCad (PCBNEW (5.1.5)-3) date 2020-07-05 19:40:21*
%MOMM*%
%LPD*%
G04 APERTURE LIST*
%ADD10C,0.100000*%
G04 APERTURE END LIST*
D10*
G36*
X123960542Y-106507842D02*
G01*
X124108501Y-106569129D01*
X124241655Y-106658099D01*
X124354901Y-106771345D01*
X124443871Y-106904499D01*
X124505158Y-107052458D01*
X124536400Y-107209525D01*
X124536400Y-107369675D01*
X124505158Y-107526742D01*
X124443871Y-107674701D01*
X124354901Y-107807855D01*
X124241655Y-107921101D01*
X124108501Y-108010071D01*
X123960542Y-108071358D01*
X123803475Y-108102600D01*
X123643325Y-108102600D01*
X123486258Y-108071358D01*
X123338299Y-108010071D01*
X123205145Y-107921101D01*
X123091899Y-107807855D01*
X123002929Y-107674701D01*
X122941642Y-107526742D01*
X122910400Y-107369675D01*
X122910400Y-107209525D01*
X122941642Y-107052458D01*
X123002929Y-106904499D01*
X123091899Y-106771345D01*
X123205145Y-106658099D01*
X123338299Y-106569129D01*
X123486258Y-106507842D01*
X123643325Y-106476600D01*
X123803475Y-106476600D01*
X123960542Y-106507842D01*
G37*
G36*
X117458142Y-106507842D02*
G01*
X117606101Y-106569129D01*
X117739255Y-106658099D01*
X117852501Y-106771345D01*
X117941471Y-106904499D01*
X118002758Y-107052458D01*
X118034000Y-107209525D01*
X118034000Y-107369675D01*
X118002758Y-107526742D01*
X117941471Y-107674701D01*
X117852501Y-107807855D01*
X117739255Y-107921101D01*
X117606101Y-108010071D01*
X117458142Y-108071358D01*
X117301075Y-108102600D01*
X117140925Y-108102600D01*
X116983858Y-108071358D01*
X116835899Y-108010071D01*
X116702745Y-107921101D01*
X116589499Y-107807855D01*
X116500529Y-107674701D01*
X116439242Y-107526742D01*
X116408000Y-107369675D01*
X116408000Y-107209525D01*
X116439242Y-107052458D01*
X116500529Y-106904499D01*
X116589499Y-106771345D01*
X116702745Y-106658099D01*
X116835899Y-106569129D01*
X116983858Y-106507842D01*
X117140925Y-106476600D01*
X117301075Y-106476600D01*
X117458142Y-106507842D01*
G37*
G36*
X135954400Y-105880800D02*
G01*
X134352400Y-105880800D01*
X134352400Y-104278800D01*
X135954400Y-104278800D01*
X135954400Y-105880800D01*
G37*
G36*
X132847042Y-104309581D02*
G01*
X132992814Y-104369962D01*
X132992816Y-104369963D01*
X133124008Y-104457622D01*
X133235578Y-104569192D01*
X133323237Y-104700384D01*
X133323238Y-104700386D01*
X133383619Y-104846158D01*
X133414400Y-105000907D01*
X133414400Y-105158693D01*
X133383619Y-105313442D01*
X133323238Y-105459214D01*
X133323237Y-105459216D01*
X133235578Y-105590408D01*
X133124008Y-105701978D01*
X132992816Y-105789637D01*
X132992815Y-105789638D01*
X132992814Y-105789638D01*
X132847042Y-105850019D01*
X132692293Y-105880800D01*
X132534507Y-105880800D01*
X132379758Y-105850019D01*
X132233986Y-105789638D01*
X132233985Y-105789638D01*
X132233984Y-105789637D01*
X132102792Y-105701978D01*
X131991222Y-105590408D01*
X131903563Y-105459216D01*
X131903562Y-105459214D01*
X131843181Y-105313442D01*
X131812400Y-105158693D01*
X131812400Y-105000907D01*
X131843181Y-104846158D01*
X131903562Y-104700386D01*
X131903563Y-104700384D01*
X131991222Y-104569192D01*
X132102792Y-104457622D01*
X132233984Y-104369963D01*
X132233986Y-104369962D01*
X132379758Y-104309581D01*
X132534507Y-104278800D01*
X132692293Y-104278800D01*
X132847042Y-104309581D01*
G37*
G36*
X127767042Y-104309581D02*
G01*
X127912814Y-104369962D01*
X127912816Y-104369963D01*
X128044008Y-104457622D01*
X128155578Y-104569192D01*
X128243237Y-104700384D01*
X128243238Y-104700386D01*
X128303619Y-104846158D01*
X128334400Y-105000907D01*
X128334400Y-105158693D01*
X128303619Y-105313442D01*
X128243238Y-105459214D01*
X128243237Y-105459216D01*
X128155578Y-105590408D01*
X128044008Y-105701978D01*
X127912816Y-105789637D01*
X127912815Y-105789638D01*
X127912814Y-105789638D01*
X127767042Y-105850019D01*
X127612293Y-105880800D01*
X127454507Y-105880800D01*
X127299758Y-105850019D01*
X127153986Y-105789638D01*
X127153985Y-105789638D01*
X127153984Y-105789637D01*
X127022792Y-105701978D01*
X126911222Y-105590408D01*
X126823563Y-105459216D01*
X126823562Y-105459214D01*
X126763181Y-105313442D01*
X126732400Y-105158693D01*
X126732400Y-105000907D01*
X126763181Y-104846158D01*
X126823562Y-104700386D01*
X126823563Y-104700384D01*
X126911222Y-104569192D01*
X127022792Y-104457622D01*
X127153984Y-104369963D01*
X127153986Y-104369962D01*
X127299758Y-104309581D01*
X127454507Y-104278800D01*
X127612293Y-104278800D01*
X127767042Y-104309581D01*
G37*
G36*
X130307042Y-104309581D02*
G01*
X130452814Y-104369962D01*
X130452816Y-104369963D01*
X130584008Y-104457622D01*
X130695578Y-104569192D01*
X130783237Y-104700384D01*
X130783238Y-104700386D01*
X130843619Y-104846158D01*
X130874400Y-105000907D01*
X130874400Y-105158693D01*
X130843619Y-105313442D01*
X130783238Y-105459214D01*
X130783237Y-105459216D01*
X130695578Y-105590408D01*
X130584008Y-105701978D01*
X130452816Y-105789637D01*
X130452815Y-105789638D01*
X130452814Y-105789638D01*
X130307042Y-105850019D01*
X130152293Y-105880800D01*
X129994507Y-105880800D01*
X129839758Y-105850019D01*
X129693986Y-105789638D01*
X129693985Y-105789638D01*
X129693984Y-105789637D01*
X129562792Y-105701978D01*
X129451222Y-105590408D01*
X129363563Y-105459216D01*
X129363562Y-105459214D01*
X129303181Y-105313442D01*
X129272400Y-105158693D01*
X129272400Y-105000907D01*
X129303181Y-104846158D01*
X129363562Y-104700386D01*
X129363563Y-104700384D01*
X129451222Y-104569192D01*
X129562792Y-104457622D01*
X129693984Y-104369963D01*
X129693986Y-104369962D01*
X129839758Y-104309581D01*
X129994507Y-104278800D01*
X130152293Y-104278800D01*
X130307042Y-104309581D01*
G37*
G36*
X123960542Y-101986642D02*
G01*
X124108501Y-102047929D01*
X124241655Y-102136899D01*
X124354901Y-102250145D01*
X124443871Y-102383299D01*
X124505158Y-102531258D01*
X124536400Y-102688325D01*
X124536400Y-102848475D01*
X124505158Y-103005542D01*
X124443871Y-103153501D01*
X124354901Y-103286655D01*
X124241655Y-103399901D01*
X124108501Y-103488871D01*
X123960542Y-103550158D01*
X123803475Y-103581400D01*
X123643325Y-103581400D01*
X123486258Y-103550158D01*
X123338299Y-103488871D01*
X123205145Y-103399901D01*
X123091899Y-103286655D01*
X123002929Y-103153501D01*
X122941642Y-103005542D01*
X122910400Y-102848475D01*
X122910400Y-102688325D01*
X122941642Y-102531258D01*
X123002929Y-102383299D01*
X123091899Y-102250145D01*
X123205145Y-102136899D01*
X123338299Y-102047929D01*
X123486258Y-101986642D01*
X123643325Y-101955400D01*
X123803475Y-101955400D01*
X123960542Y-101986642D01*
G37*
G36*
X117458142Y-101986642D02*
G01*
X117606101Y-102047929D01*
X117739255Y-102136899D01*
X117852501Y-102250145D01*
X117941471Y-102383299D01*
X118002758Y-102531258D01*
X118034000Y-102688325D01*
X118034000Y-102848475D01*
X118002758Y-103005542D01*
X117941471Y-103153501D01*
X117852501Y-103286655D01*
X117739255Y-103399901D01*
X117606101Y-103488871D01*
X117458142Y-103550158D01*
X117301075Y-103581400D01*
X117140925Y-103581400D01*
X116983858Y-103550158D01*
X116835899Y-103488871D01*
X116702745Y-103399901D01*
X116589499Y-103286655D01*
X116500529Y-103153501D01*
X116439242Y-103005542D01*
X116408000Y-102848475D01*
X116408000Y-102688325D01*
X116439242Y-102531258D01*
X116500529Y-102383299D01*
X116589499Y-102250145D01*
X116702745Y-102136899D01*
X116835899Y-102047929D01*
X116983858Y-101986642D01*
X117140925Y-101955400D01*
X117301075Y-101955400D01*
X117458142Y-101986642D01*
G37*
G36*
X128786934Y-98358565D02*
G01*
X128825604Y-98370296D01*
X128861243Y-98389346D01*
X128892483Y-98414983D01*
X128918120Y-98446223D01*
X128937170Y-98481862D01*
X128948901Y-98520532D01*
X128953466Y-98566888D01*
X128953466Y-99643112D01*
X128948901Y-99689468D01*
X128937170Y-99728138D01*
X128918120Y-99763777D01*
X128892483Y-99795017D01*
X128861243Y-99820654D01*
X128825604Y-99839704D01*
X128786934Y-99851435D01*
X128740578Y-99856000D01*
X128089354Y-99856000D01*
X128042998Y-99851435D01*
X128004328Y-99839704D01*
X127968689Y-99820654D01*
X127937449Y-99795017D01*
X127911812Y-99763777D01*
X127892762Y-99728138D01*
X127881031Y-99689468D01*
X127876466Y-99643112D01*
X127876466Y-98566888D01*
X127881031Y-98520532D01*
X127892762Y-98481862D01*
X127911812Y-98446223D01*
X127937449Y-98414983D01*
X127968689Y-98389346D01*
X128004328Y-98370296D01*
X128042998Y-98358565D01*
X128089354Y-98354000D01*
X128740578Y-98354000D01*
X128786934Y-98358565D01*
G37*
G36*
X117925468Y-98358565D02*
G01*
X117964138Y-98370296D01*
X117999777Y-98389346D01*
X118031017Y-98414983D01*
X118056654Y-98446223D01*
X118075704Y-98481862D01*
X118087435Y-98520532D01*
X118092000Y-98566888D01*
X118092000Y-99643112D01*
X118087435Y-99689468D01*
X118075704Y-99728138D01*
X118056654Y-99763777D01*
X118031017Y-99795017D01*
X117999777Y-99820654D01*
X117964138Y-99839704D01*
X117925468Y-99851435D01*
X117879112Y-99856000D01*
X117227888Y-99856000D01*
X117181532Y-99851435D01*
X117142862Y-99839704D01*
X117107223Y-99820654D01*
X117075983Y-99795017D01*
X117050346Y-99763777D01*
X117031296Y-99728138D01*
X117019565Y-99689468D01*
X117015000Y-99643112D01*
X117015000Y-98566888D01*
X117019565Y-98520532D01*
X117031296Y-98481862D01*
X117050346Y-98446223D01*
X117075983Y-98414983D01*
X117107223Y-98389346D01*
X117142862Y-98370296D01*
X117181532Y-98358565D01*
X117227888Y-98354000D01*
X117879112Y-98354000D01*
X117925468Y-98358565D01*
G37*
G36*
X119800468Y-98358565D02*
G01*
X119839138Y-98370296D01*
X119874777Y-98389346D01*
X119906017Y-98414983D01*
X119931654Y-98446223D01*
X119950704Y-98481862D01*
X119962435Y-98520532D01*
X119967000Y-98566888D01*
X119967000Y-99643112D01*
X119962435Y-99689468D01*
X119950704Y-99728138D01*
X119931654Y-99763777D01*
X119906017Y-99795017D01*
X119874777Y-99820654D01*
X119839138Y-99839704D01*
X119800468Y-99851435D01*
X119754112Y-99856000D01*
X119102888Y-99856000D01*
X119056532Y-99851435D01*
X119017862Y-99839704D01*
X118982223Y-99820654D01*
X118950983Y-99795017D01*
X118925346Y-99763777D01*
X118906296Y-99728138D01*
X118894565Y-99689468D01*
X118890000Y-99643112D01*
X118890000Y-98566888D01*
X118894565Y-98520532D01*
X118906296Y-98481862D01*
X118925346Y-98446223D01*
X118950983Y-98414983D01*
X118982223Y-98389346D01*
X119017862Y-98370296D01*
X119056532Y-98358565D01*
X119102888Y-98354000D01*
X119754112Y-98354000D01*
X119800468Y-98358565D01*
G37*
G36*
X125231201Y-98358565D02*
G01*
X125269871Y-98370296D01*
X125305510Y-98389346D01*
X125336750Y-98414983D01*
X125362387Y-98446223D01*
X125381437Y-98481862D01*
X125393168Y-98520532D01*
X125397733Y-98566888D01*
X125397733Y-99643112D01*
X125393168Y-99689468D01*
X125381437Y-99728138D01*
X125362387Y-99763777D01*
X125336750Y-99795017D01*
X125305510Y-99820654D01*
X125269871Y-99839704D01*
X125231201Y-99851435D01*
X125184845Y-99856000D01*
X124533621Y-99856000D01*
X124487265Y-99851435D01*
X124448595Y-99839704D01*
X124412956Y-99820654D01*
X124381716Y-99795017D01*
X124356079Y-99763777D01*
X124337029Y-99728138D01*
X124325298Y-99689468D01*
X124320733Y-99643112D01*
X124320733Y-98566888D01*
X124325298Y-98520532D01*
X124337029Y-98481862D01*
X124356079Y-98446223D01*
X124381716Y-98414983D01*
X124412956Y-98389346D01*
X124448595Y-98370296D01*
X124487265Y-98358565D01*
X124533621Y-98354000D01*
X125184845Y-98354000D01*
X125231201Y-98358565D01*
G37*
G36*
X130661934Y-98358565D02*
G01*
X130700604Y-98370296D01*
X130736243Y-98389346D01*
X130767483Y-98414983D01*
X130793120Y-98446223D01*
X130812170Y-98481862D01*
X130823901Y-98520532D01*
X130828466Y-98566888D01*
X130828466Y-99643112D01*
X130823901Y-99689468D01*
X130812170Y-99728138D01*
X130793120Y-99763777D01*
X130767483Y-99795017D01*
X130736243Y-99820654D01*
X130700604Y-99839704D01*
X130661934Y-99851435D01*
X130615578Y-99856000D01*
X129964354Y-99856000D01*
X129917998Y-99851435D01*
X129879328Y-99839704D01*
X129843689Y-99820654D01*
X129812449Y-99795017D01*
X129786812Y-99763777D01*
X129767762Y-99728138D01*
X129756031Y-99689468D01*
X129751466Y-99643112D01*
X129751466Y-98566888D01*
X129756031Y-98520532D01*
X129767762Y-98481862D01*
X129786812Y-98446223D01*
X129812449Y-98414983D01*
X129843689Y-98389346D01*
X129879328Y-98370296D01*
X129917998Y-98358565D01*
X129964354Y-98354000D01*
X130615578Y-98354000D01*
X130661934Y-98358565D01*
G37*
G36*
X123356201Y-98358565D02*
G01*
X123394871Y-98370296D01*
X123430510Y-98389346D01*
X123461750Y-98414983D01*
X123487387Y-98446223D01*
X123506437Y-98481862D01*
X123518168Y-98520532D01*
X123522733Y-98566888D01*
X123522733Y-99643112D01*
X123518168Y-99689468D01*
X123506437Y-99728138D01*
X123487387Y-99763777D01*
X123461750Y-99795017D01*
X123430510Y-99820654D01*
X123394871Y-99839704D01*
X123356201Y-99851435D01*
X123309845Y-99856000D01*
X122658621Y-99856000D01*
X122612265Y-99851435D01*
X122573595Y-99839704D01*
X122537956Y-99820654D01*
X122506716Y-99795017D01*
X122481079Y-99763777D01*
X122462029Y-99728138D01*
X122450298Y-99689468D01*
X122445733Y-99643112D01*
X122445733Y-98566888D01*
X122450298Y-98520532D01*
X122462029Y-98481862D01*
X122481079Y-98446223D01*
X122506716Y-98414983D01*
X122537956Y-98389346D01*
X122573595Y-98370296D01*
X122612265Y-98358565D01*
X122658621Y-98354000D01*
X123309845Y-98354000D01*
X123356201Y-98358565D01*
G37*
G36*
X136132668Y-98313565D02*
G01*
X136171338Y-98325296D01*
X136206977Y-98344346D01*
X136238217Y-98369983D01*
X136263854Y-98401223D01*
X136282904Y-98436862D01*
X136294635Y-98475532D01*
X136299200Y-98521888D01*
X136299200Y-99598112D01*
X136294635Y-99644468D01*
X136282904Y-99683138D01*
X136263854Y-99718777D01*
X136238217Y-99750017D01*
X136206977Y-99775654D01*
X136171338Y-99794704D01*
X136132668Y-99806435D01*
X136086312Y-99811000D01*
X135435088Y-99811000D01*
X135388732Y-99806435D01*
X135350062Y-99794704D01*
X135314423Y-99775654D01*
X135283183Y-99750017D01*
X135257546Y-99718777D01*
X135238496Y-99683138D01*
X135226765Y-99644468D01*
X135222200Y-99598112D01*
X135222200Y-98521888D01*
X135226765Y-98475532D01*
X135238496Y-98436862D01*
X135257546Y-98401223D01*
X135283183Y-98369983D01*
X135314423Y-98344346D01*
X135350062Y-98325296D01*
X135388732Y-98313565D01*
X135435088Y-98309000D01*
X136086312Y-98309000D01*
X136132668Y-98313565D01*
G37*
G36*
X134257668Y-98313565D02*
G01*
X134296338Y-98325296D01*
X134331977Y-98344346D01*
X134363217Y-98369983D01*
X134388854Y-98401223D01*
X134407904Y-98436862D01*
X134419635Y-98475532D01*
X134424200Y-98521888D01*
X134424200Y-99598112D01*
X134419635Y-99644468D01*
X134407904Y-99683138D01*
X134388854Y-99718777D01*
X134363217Y-99750017D01*
X134331977Y-99775654D01*
X134296338Y-99794704D01*
X134257668Y-99806435D01*
X134211312Y-99811000D01*
X133560088Y-99811000D01*
X133513732Y-99806435D01*
X133475062Y-99794704D01*
X133439423Y-99775654D01*
X133408183Y-99750017D01*
X133382546Y-99718777D01*
X133363496Y-99683138D01*
X133351765Y-99644468D01*
X133347200Y-99598112D01*
X133347200Y-98521888D01*
X133351765Y-98475532D01*
X133363496Y-98436862D01*
X133382546Y-98401223D01*
X133408183Y-98369983D01*
X133439423Y-98344346D01*
X133475062Y-98325296D01*
X133513732Y-98313565D01*
X133560088Y-98309000D01*
X134211312Y-98309000D01*
X134257668Y-98313565D01*
G37*
G36*
X136132668Y-93487565D02*
G01*
X136171338Y-93499296D01*
X136206977Y-93518346D01*
X136238217Y-93543983D01*
X136263854Y-93575223D01*
X136282904Y-93610862D01*
X136294635Y-93649532D01*
X136299200Y-93695888D01*
X136299200Y-94772112D01*
X136294635Y-94818468D01*
X136282904Y-94857138D01*
X136263854Y-94892777D01*
X136238217Y-94924017D01*
X136206977Y-94949654D01*
X136171338Y-94968704D01*
X136132668Y-94980435D01*
X136086312Y-94985000D01*
X135435088Y-94985000D01*
X135388732Y-94980435D01*
X135350062Y-94968704D01*
X135314423Y-94949654D01*
X135283183Y-94924017D01*
X135257546Y-94892777D01*
X135238496Y-94857138D01*
X135226765Y-94818468D01*
X135222200Y-94772112D01*
X135222200Y-93695888D01*
X135226765Y-93649532D01*
X135238496Y-93610862D01*
X135257546Y-93575223D01*
X135283183Y-93543983D01*
X135314423Y-93518346D01*
X135350062Y-93499296D01*
X135388732Y-93487565D01*
X135435088Y-93483000D01*
X136086312Y-93483000D01*
X136132668Y-93487565D01*
G37*
G36*
X134257668Y-93487565D02*
G01*
X134296338Y-93499296D01*
X134331977Y-93518346D01*
X134363217Y-93543983D01*
X134388854Y-93575223D01*
X134407904Y-93610862D01*
X134419635Y-93649532D01*
X134424200Y-93695888D01*
X134424200Y-94772112D01*
X134419635Y-94818468D01*
X134407904Y-94857138D01*
X134388854Y-94892777D01*
X134363217Y-94924017D01*
X134331977Y-94949654D01*
X134296338Y-94968704D01*
X134257668Y-94980435D01*
X134211312Y-94985000D01*
X133560088Y-94985000D01*
X133513732Y-94980435D01*
X133475062Y-94968704D01*
X133439423Y-94949654D01*
X133408183Y-94924017D01*
X133382546Y-94892777D01*
X133363496Y-94857138D01*
X133351765Y-94818468D01*
X133347200Y-94772112D01*
X133347200Y-93695888D01*
X133351765Y-93649532D01*
X133363496Y-93610862D01*
X133382546Y-93575223D01*
X133408183Y-93543983D01*
X133439423Y-93518346D01*
X133475062Y-93499296D01*
X133513732Y-93487565D01*
X133560088Y-93483000D01*
X134211312Y-93483000D01*
X134257668Y-93487565D01*
G37*
G36*
X130661934Y-93385965D02*
G01*
X130700604Y-93397696D01*
X130736243Y-93416746D01*
X130767483Y-93442383D01*
X130793120Y-93473623D01*
X130812170Y-93509262D01*
X130823901Y-93547932D01*
X130828466Y-93594288D01*
X130828466Y-94670512D01*
X130823901Y-94716868D01*
X130812170Y-94755538D01*
X130793120Y-94791177D01*
X130767483Y-94822417D01*
X130736243Y-94848054D01*
X130700604Y-94867104D01*
X130661934Y-94878835D01*
X130615578Y-94883400D01*
X129964354Y-94883400D01*
X129917998Y-94878835D01*
X129879328Y-94867104D01*
X129843689Y-94848054D01*
X129812449Y-94822417D01*
X129786812Y-94791177D01*
X129767762Y-94755538D01*
X129756031Y-94716868D01*
X129751466Y-94670512D01*
X129751466Y-93594288D01*
X129756031Y-93547932D01*
X129767762Y-93509262D01*
X129786812Y-93473623D01*
X129812449Y-93442383D01*
X129843689Y-93416746D01*
X129879328Y-93397696D01*
X129917998Y-93385965D01*
X129964354Y-93381400D01*
X130615578Y-93381400D01*
X130661934Y-93385965D01*
G37*
G36*
X128786934Y-93385965D02*
G01*
X128825604Y-93397696D01*
X128861243Y-93416746D01*
X128892483Y-93442383D01*
X128918120Y-93473623D01*
X128937170Y-93509262D01*
X128948901Y-93547932D01*
X128953466Y-93594288D01*
X128953466Y-94670512D01*
X128948901Y-94716868D01*
X128937170Y-94755538D01*
X128918120Y-94791177D01*
X128892483Y-94822417D01*
X128861243Y-94848054D01*
X128825604Y-94867104D01*
X128786934Y-94878835D01*
X128740578Y-94883400D01*
X128089354Y-94883400D01*
X128042998Y-94878835D01*
X128004328Y-94867104D01*
X127968689Y-94848054D01*
X127937449Y-94822417D01*
X127911812Y-94791177D01*
X127892762Y-94755538D01*
X127881031Y-94716868D01*
X127876466Y-94670512D01*
X127876466Y-93594288D01*
X127881031Y-93547932D01*
X127892762Y-93509262D01*
X127911812Y-93473623D01*
X127937449Y-93442383D01*
X127968689Y-93416746D01*
X128004328Y-93397696D01*
X128042998Y-93385965D01*
X128089354Y-93381400D01*
X128740578Y-93381400D01*
X128786934Y-93385965D01*
G37*
G36*
X135700312Y-88994527D02*
G01*
X135849612Y-89024224D01*
X136013584Y-89092144D01*
X136161154Y-89190747D01*
X136286653Y-89316246D01*
X136385256Y-89463816D01*
X136453176Y-89627788D01*
X136487800Y-89801859D01*
X136487800Y-89979341D01*
X136453176Y-90153412D01*
X136385256Y-90317384D01*
X136286653Y-90464954D01*
X136161154Y-90590453D01*
X136013584Y-90689056D01*
X135849612Y-90756976D01*
X135700312Y-90786673D01*
X135675542Y-90791600D01*
X135498058Y-90791600D01*
X135473288Y-90786673D01*
X135323988Y-90756976D01*
X135160016Y-90689056D01*
X135012446Y-90590453D01*
X134886947Y-90464954D01*
X134788344Y-90317384D01*
X134720424Y-90153412D01*
X134685800Y-89979341D01*
X134685800Y-89801859D01*
X134720424Y-89627788D01*
X134788344Y-89463816D01*
X134886947Y-89316246D01*
X135012446Y-89190747D01*
X135160016Y-89092144D01*
X135323988Y-89024224D01*
X135473288Y-88994527D01*
X135498058Y-88989600D01*
X135675542Y-88989600D01*
X135700312Y-88994527D01*
G37*
G36*
X125540312Y-88994527D02*
G01*
X125689612Y-89024224D01*
X125853584Y-89092144D01*
X126001154Y-89190747D01*
X126126653Y-89316246D01*
X126225256Y-89463816D01*
X126293176Y-89627788D01*
X126327800Y-89801859D01*
X126327800Y-89979341D01*
X126293176Y-90153412D01*
X126225256Y-90317384D01*
X126126653Y-90464954D01*
X126001154Y-90590453D01*
X125853584Y-90689056D01*
X125689612Y-90756976D01*
X125540312Y-90786673D01*
X125515542Y-90791600D01*
X125338058Y-90791600D01*
X125313288Y-90786673D01*
X125163988Y-90756976D01*
X125000016Y-90689056D01*
X124852446Y-90590453D01*
X124726947Y-90464954D01*
X124628344Y-90317384D01*
X124560424Y-90153412D01*
X124525800Y-89979341D01*
X124525800Y-89801859D01*
X124560424Y-89627788D01*
X124628344Y-89463816D01*
X124726947Y-89316246D01*
X124852446Y-89190747D01*
X125000016Y-89092144D01*
X125163988Y-89024224D01*
X125313288Y-88994527D01*
X125338058Y-88989600D01*
X125515542Y-88989600D01*
X125540312Y-88994527D01*
G37*
G36*
X118707800Y-90791600D02*
G01*
X116905800Y-90791600D01*
X116905800Y-88989600D01*
X118707800Y-88989600D01*
X118707800Y-90791600D01*
G37*
G36*
X120460312Y-88994527D02*
G01*
X120609612Y-89024224D01*
X120773584Y-89092144D01*
X120921154Y-89190747D01*
X121046653Y-89316246D01*
X121145256Y-89463816D01*
X121213176Y-89627788D01*
X121247800Y-89801859D01*
X121247800Y-89979341D01*
X121213176Y-90153412D01*
X121145256Y-90317384D01*
X121046653Y-90464954D01*
X120921154Y-90590453D01*
X120773584Y-90689056D01*
X120609612Y-90756976D01*
X120460312Y-90786673D01*
X120435542Y-90791600D01*
X120258058Y-90791600D01*
X120233288Y-90786673D01*
X120083988Y-90756976D01*
X119920016Y-90689056D01*
X119772446Y-90590453D01*
X119646947Y-90464954D01*
X119548344Y-90317384D01*
X119480424Y-90153412D01*
X119445800Y-89979341D01*
X119445800Y-89801859D01*
X119480424Y-89627788D01*
X119548344Y-89463816D01*
X119646947Y-89316246D01*
X119772446Y-89190747D01*
X119920016Y-89092144D01*
X120083988Y-89024224D01*
X120233288Y-88994527D01*
X120258058Y-88989600D01*
X120435542Y-88989600D01*
X120460312Y-88994527D01*
G37*
G36*
X123000312Y-88994527D02*
G01*
X123149612Y-89024224D01*
X123313584Y-89092144D01*
X123461154Y-89190747D01*
X123586653Y-89316246D01*
X123685256Y-89463816D01*
X123753176Y-89627788D01*
X123787800Y-89801859D01*
X123787800Y-89979341D01*
X123753176Y-90153412D01*
X123685256Y-90317384D01*
X123586653Y-90464954D01*
X123461154Y-90590453D01*
X123313584Y-90689056D01*
X123149612Y-90756976D01*
X123000312Y-90786673D01*
X122975542Y-90791600D01*
X122798058Y-90791600D01*
X122773288Y-90786673D01*
X122623988Y-90756976D01*
X122460016Y-90689056D01*
X122312446Y-90590453D01*
X122186947Y-90464954D01*
X122088344Y-90317384D01*
X122020424Y-90153412D01*
X121985800Y-89979341D01*
X121985800Y-89801859D01*
X122020424Y-89627788D01*
X122088344Y-89463816D01*
X122186947Y-89316246D01*
X122312446Y-89190747D01*
X122460016Y-89092144D01*
X122623988Y-89024224D01*
X122773288Y-88994527D01*
X122798058Y-88989600D01*
X122975542Y-88989600D01*
X123000312Y-88994527D01*
G37*
G36*
X130620312Y-88994527D02*
G01*
X130769612Y-89024224D01*
X130933584Y-89092144D01*
X131081154Y-89190747D01*
X131206653Y-89316246D01*
X131305256Y-89463816D01*
X131373176Y-89627788D01*
X131407800Y-89801859D01*
X131407800Y-89979341D01*
X131373176Y-90153412D01*
X131305256Y-90317384D01*
X131206653Y-90464954D01*
X131081154Y-90590453D01*
X130933584Y-90689056D01*
X130769612Y-90756976D01*
X130620312Y-90786673D01*
X130595542Y-90791600D01*
X130418058Y-90791600D01*
X130393288Y-90786673D01*
X130243988Y-90756976D01*
X130080016Y-90689056D01*
X129932446Y-90590453D01*
X129806947Y-90464954D01*
X129708344Y-90317384D01*
X129640424Y-90153412D01*
X129605800Y-89979341D01*
X129605800Y-89801859D01*
X129640424Y-89627788D01*
X129708344Y-89463816D01*
X129806947Y-89316246D01*
X129932446Y-89190747D01*
X130080016Y-89092144D01*
X130243988Y-89024224D01*
X130393288Y-88994527D01*
X130418058Y-88989600D01*
X130595542Y-88989600D01*
X130620312Y-88994527D01*
G37*
G36*
X133160312Y-88994527D02*
G01*
X133309612Y-89024224D01*
X133473584Y-89092144D01*
X133621154Y-89190747D01*
X133746653Y-89316246D01*
X133845256Y-89463816D01*
X133913176Y-89627788D01*
X133947800Y-89801859D01*
X133947800Y-89979341D01*
X133913176Y-90153412D01*
X133845256Y-90317384D01*
X133746653Y-90464954D01*
X133621154Y-90590453D01*
X133473584Y-90689056D01*
X133309612Y-90756976D01*
X133160312Y-90786673D01*
X133135542Y-90791600D01*
X132958058Y-90791600D01*
X132933288Y-90786673D01*
X132783988Y-90756976D01*
X132620016Y-90689056D01*
X132472446Y-90590453D01*
X132346947Y-90464954D01*
X132248344Y-90317384D01*
X132180424Y-90153412D01*
X132145800Y-89979341D01*
X132145800Y-89801859D01*
X132180424Y-89627788D01*
X132248344Y-89463816D01*
X132346947Y-89316246D01*
X132472446Y-89190747D01*
X132620016Y-89092144D01*
X132783988Y-89024224D01*
X132933288Y-88994527D01*
X132958058Y-88989600D01*
X133135542Y-88989600D01*
X133160312Y-88994527D01*
G37*
G36*
X128080312Y-88994527D02*
G01*
X128229612Y-89024224D01*
X128393584Y-89092144D01*
X128541154Y-89190747D01*
X128666653Y-89316246D01*
X128765256Y-89463816D01*
X128833176Y-89627788D01*
X128867800Y-89801859D01*
X128867800Y-89979341D01*
X128833176Y-90153412D01*
X128765256Y-90317384D01*
X128666653Y-90464954D01*
X128541154Y-90590453D01*
X128393584Y-90689056D01*
X128229612Y-90756976D01*
X128080312Y-90786673D01*
X128055542Y-90791600D01*
X127878058Y-90791600D01*
X127853288Y-90786673D01*
X127703988Y-90756976D01*
X127540016Y-90689056D01*
X127392446Y-90590453D01*
X127266947Y-90464954D01*
X127168344Y-90317384D01*
X127100424Y-90153412D01*
X127065800Y-89979341D01*
X127065800Y-89801859D01*
X127100424Y-89627788D01*
X127168344Y-89463816D01*
X127266947Y-89316246D01*
X127392446Y-89190747D01*
X127540016Y-89092144D01*
X127703988Y-89024224D01*
X127853288Y-88994527D01*
X127878058Y-88989600D01*
X128055542Y-88989600D01*
X128080312Y-88994527D01*
G37*
G36*
X120460312Y-86454527D02*
G01*
X120609612Y-86484224D01*
X120773584Y-86552144D01*
X120921154Y-86650747D01*
X121046653Y-86776246D01*
X121145256Y-86923816D01*
X121213176Y-87087788D01*
X121247800Y-87261859D01*
X121247800Y-87439341D01*
X121213176Y-87613412D01*
X121145256Y-87777384D01*
X121046653Y-87924954D01*
X120921154Y-88050453D01*
X120773584Y-88149056D01*
X120609612Y-88216976D01*
X120460312Y-88246673D01*
X120435542Y-88251600D01*
X120258058Y-88251600D01*
X120233288Y-88246673D01*
X120083988Y-88216976D01*
X119920016Y-88149056D01*
X119772446Y-88050453D01*
X119646947Y-87924954D01*
X119548344Y-87777384D01*
X119480424Y-87613412D01*
X119445800Y-87439341D01*
X119445800Y-87261859D01*
X119480424Y-87087788D01*
X119548344Y-86923816D01*
X119646947Y-86776246D01*
X119772446Y-86650747D01*
X119920016Y-86552144D01*
X120083988Y-86484224D01*
X120233288Y-86454527D01*
X120258058Y-86449600D01*
X120435542Y-86449600D01*
X120460312Y-86454527D01*
G37*
G36*
X125540312Y-86454527D02*
G01*
X125689612Y-86484224D01*
X125853584Y-86552144D01*
X126001154Y-86650747D01*
X126126653Y-86776246D01*
X126225256Y-86923816D01*
X126293176Y-87087788D01*
X126327800Y-87261859D01*
X126327800Y-87439341D01*
X126293176Y-87613412D01*
X126225256Y-87777384D01*
X126126653Y-87924954D01*
X126001154Y-88050453D01*
X125853584Y-88149056D01*
X125689612Y-88216976D01*
X125540312Y-88246673D01*
X125515542Y-88251600D01*
X125338058Y-88251600D01*
X125313288Y-88246673D01*
X125163988Y-88216976D01*
X125000016Y-88149056D01*
X124852446Y-88050453D01*
X124726947Y-87924954D01*
X124628344Y-87777384D01*
X124560424Y-87613412D01*
X124525800Y-87439341D01*
X124525800Y-87261859D01*
X124560424Y-87087788D01*
X124628344Y-86923816D01*
X124726947Y-86776246D01*
X124852446Y-86650747D01*
X125000016Y-86552144D01*
X125163988Y-86484224D01*
X125313288Y-86454527D01*
X125338058Y-86449600D01*
X125515542Y-86449600D01*
X125540312Y-86454527D01*
G37*
G36*
X123000312Y-86454527D02*
G01*
X123149612Y-86484224D01*
X123313584Y-86552144D01*
X123461154Y-86650747D01*
X123586653Y-86776246D01*
X123685256Y-86923816D01*
X123753176Y-87087788D01*
X123787800Y-87261859D01*
X123787800Y-87439341D01*
X123753176Y-87613412D01*
X123685256Y-87777384D01*
X123586653Y-87924954D01*
X123461154Y-88050453D01*
X123313584Y-88149056D01*
X123149612Y-88216976D01*
X123000312Y-88246673D01*
X122975542Y-88251600D01*
X122798058Y-88251600D01*
X122773288Y-88246673D01*
X122623988Y-88216976D01*
X122460016Y-88149056D01*
X122312446Y-88050453D01*
X122186947Y-87924954D01*
X122088344Y-87777384D01*
X122020424Y-87613412D01*
X121985800Y-87439341D01*
X121985800Y-87261859D01*
X122020424Y-87087788D01*
X122088344Y-86923816D01*
X122186947Y-86776246D01*
X122312446Y-86650747D01*
X122460016Y-86552144D01*
X122623988Y-86484224D01*
X122773288Y-86454527D01*
X122798058Y-86449600D01*
X122975542Y-86449600D01*
X123000312Y-86454527D01*
G37*
G36*
X135700312Y-86454527D02*
G01*
X135849612Y-86484224D01*
X136013584Y-86552144D01*
X136161154Y-86650747D01*
X136286653Y-86776246D01*
X136385256Y-86923816D01*
X136453176Y-87087788D01*
X136487800Y-87261859D01*
X136487800Y-87439341D01*
X136453176Y-87613412D01*
X136385256Y-87777384D01*
X136286653Y-87924954D01*
X136161154Y-88050453D01*
X136013584Y-88149056D01*
X135849612Y-88216976D01*
X135700312Y-88246673D01*
X135675542Y-88251600D01*
X135498058Y-88251600D01*
X135473288Y-88246673D01*
X135323988Y-88216976D01*
X135160016Y-88149056D01*
X135012446Y-88050453D01*
X134886947Y-87924954D01*
X134788344Y-87777384D01*
X134720424Y-87613412D01*
X134685800Y-87439341D01*
X134685800Y-87261859D01*
X134720424Y-87087788D01*
X134788344Y-86923816D01*
X134886947Y-86776246D01*
X135012446Y-86650747D01*
X135160016Y-86552144D01*
X135323988Y-86484224D01*
X135473288Y-86454527D01*
X135498058Y-86449600D01*
X135675542Y-86449600D01*
X135700312Y-86454527D01*
G37*
G36*
X133160312Y-86454527D02*
G01*
X133309612Y-86484224D01*
X133473584Y-86552144D01*
X133621154Y-86650747D01*
X133746653Y-86776246D01*
X133845256Y-86923816D01*
X133913176Y-87087788D01*
X133947800Y-87261859D01*
X133947800Y-87439341D01*
X133913176Y-87613412D01*
X133845256Y-87777384D01*
X133746653Y-87924954D01*
X133621154Y-88050453D01*
X133473584Y-88149056D01*
X133309612Y-88216976D01*
X133160312Y-88246673D01*
X133135542Y-88251600D01*
X132958058Y-88251600D01*
X132933288Y-88246673D01*
X132783988Y-88216976D01*
X132620016Y-88149056D01*
X132472446Y-88050453D01*
X132346947Y-87924954D01*
X132248344Y-87777384D01*
X132180424Y-87613412D01*
X132145800Y-87439341D01*
X132145800Y-87261859D01*
X132180424Y-87087788D01*
X132248344Y-86923816D01*
X132346947Y-86776246D01*
X132472446Y-86650747D01*
X132620016Y-86552144D01*
X132783988Y-86484224D01*
X132933288Y-86454527D01*
X132958058Y-86449600D01*
X133135542Y-86449600D01*
X133160312Y-86454527D01*
G37*
G36*
X130620312Y-86454527D02*
G01*
X130769612Y-86484224D01*
X130933584Y-86552144D01*
X131081154Y-86650747D01*
X131206653Y-86776246D01*
X131305256Y-86923816D01*
X131373176Y-87087788D01*
X131407800Y-87261859D01*
X131407800Y-87439341D01*
X131373176Y-87613412D01*
X131305256Y-87777384D01*
X131206653Y-87924954D01*
X131081154Y-88050453D01*
X130933584Y-88149056D01*
X130769612Y-88216976D01*
X130620312Y-88246673D01*
X130595542Y-88251600D01*
X130418058Y-88251600D01*
X130393288Y-88246673D01*
X130243988Y-88216976D01*
X130080016Y-88149056D01*
X129932446Y-88050453D01*
X129806947Y-87924954D01*
X129708344Y-87777384D01*
X129640424Y-87613412D01*
X129605800Y-87439341D01*
X129605800Y-87261859D01*
X129640424Y-87087788D01*
X129708344Y-86923816D01*
X129806947Y-86776246D01*
X129932446Y-86650747D01*
X130080016Y-86552144D01*
X130243988Y-86484224D01*
X130393288Y-86454527D01*
X130418058Y-86449600D01*
X130595542Y-86449600D01*
X130620312Y-86454527D01*
G37*
G36*
X128080312Y-86454527D02*
G01*
X128229612Y-86484224D01*
X128393584Y-86552144D01*
X128541154Y-86650747D01*
X128666653Y-86776246D01*
X128765256Y-86923816D01*
X128833176Y-87087788D01*
X128867800Y-87261859D01*
X128867800Y-87439341D01*
X128833176Y-87613412D01*
X128765256Y-87777384D01*
X128666653Y-87924954D01*
X128541154Y-88050453D01*
X128393584Y-88149056D01*
X128229612Y-88216976D01*
X128080312Y-88246673D01*
X128055542Y-88251600D01*
X127878058Y-88251600D01*
X127853288Y-88246673D01*
X127703988Y-88216976D01*
X127540016Y-88149056D01*
X127392446Y-88050453D01*
X127266947Y-87924954D01*
X127168344Y-87777384D01*
X127100424Y-87613412D01*
X127065800Y-87439341D01*
X127065800Y-87261859D01*
X127100424Y-87087788D01*
X127168344Y-86923816D01*
X127266947Y-86776246D01*
X127392446Y-86650747D01*
X127540016Y-86552144D01*
X127703988Y-86484224D01*
X127853288Y-86454527D01*
X127878058Y-86449600D01*
X128055542Y-86449600D01*
X128080312Y-86454527D01*
G37*
G36*
X117920312Y-86454527D02*
G01*
X118069612Y-86484224D01*
X118233584Y-86552144D01*
X118381154Y-86650747D01*
X118506653Y-86776246D01*
X118605256Y-86923816D01*
X118673176Y-87087788D01*
X118707800Y-87261859D01*
X118707800Y-87439341D01*
X118673176Y-87613412D01*
X118605256Y-87777384D01*
X118506653Y-87924954D01*
X118381154Y-88050453D01*
X118233584Y-88149056D01*
X118069612Y-88216976D01*
X117920312Y-88246673D01*
X117895542Y-88251600D01*
X117718058Y-88251600D01*
X117693288Y-88246673D01*
X117543988Y-88216976D01*
X117380016Y-88149056D01*
X117232446Y-88050453D01*
X117106947Y-87924954D01*
X117008344Y-87777384D01*
X116940424Y-87613412D01*
X116905800Y-87439341D01*
X116905800Y-87261859D01*
X116940424Y-87087788D01*
X117008344Y-86923816D01*
X117106947Y-86776246D01*
X117232446Y-86650747D01*
X117380016Y-86552144D01*
X117543988Y-86484224D01*
X117693288Y-86454527D01*
X117718058Y-86449600D01*
X117895542Y-86449600D01*
X117920312Y-86454527D01*
G37*
M02*
