M48
; DRILL file {KiCad (5.1.5)-3} date 2020-07-04 5:38:49 PM
; FORMAT={-:-/ absolute / inch / decimal}
; #@! TF.CreationDate,2020-07-04T17:38:49-04:00
; #@! TF.GenerationSoftware,Kicad,Pcbnew,(5.1.5)-3
; #@! TF.FileFunction,Plated,1,2,PTH
FMAT,2
INCH
T1C0.0315
T2C0.0354
T3C0.0394
T4C0.0433
T5C0.0630
%
G90
G05
T1
X5.7372Y-2.8964
X5.8356Y-2.8964
X5.7682Y-3.1924
X5.7682Y-3.4924
X5.9744Y-4.36
X5.9744Y-4.66
T2
X5.9556Y-4.1173
X6.0556Y-4.1173
X5.9556Y-3.2869
X6.0556Y-3.2869
X6.0331Y-3.5793
X6.0331Y-3.6777
X6.0331Y-3.7761
T3
X6.2177Y-4.5594
X6.2177Y-4.6594
X6.3177Y-4.5594
X6.3177Y-4.6594
X6.2177Y-2.7569
X6.2177Y-2.8569
X6.3177Y-2.7569
X6.3177Y-2.8569
X5.3302Y-2.9679
X5.5271Y-2.9679
T4
X5.2912Y-4.0121
X5.6912Y-4.0121
X5.2912Y-4.2019
X5.6912Y-4.2019
X5.3412Y-3.3954
X5.4412Y-3.3954
X5.5412Y-3.3954
X5.2912Y-3.6324
X5.6912Y-3.6324
X5.2912Y-3.8222
X5.6912Y-3.8222
T5
X5.5345Y-4.4724
X5.6526Y-4.6574
X5.7707Y-4.4724
T0
M30
