G04 #@! TF.GenerationSoftware,KiCad,Pcbnew,(5.1.5)-3*
G04 #@! TF.CreationDate,2020-07-04T17:37:37-04:00*
G04 #@! TF.ProjectId,Power Supply,506f7765-7220-4537-9570-706c792e6b69,rev?*
G04 #@! TF.SameCoordinates,Original*
G04 #@! TF.FileFunction,Soldermask,Bot*
G04 #@! TF.FilePolarity,Negative*
%FSLAX46Y46*%
G04 Gerber Fmt 4.6, Leading zero omitted, Abs format (unit mm)*
G04 Created by KiCad (PCBNEW (5.1.5)-3) date 2020-07-04 17:37:37*
%MOMM*%
%LPD*%
G04 APERTURE LIST*
%ADD10C,0.100000*%
G04 APERTURE END LIST*
D10*
G36*
X143969852Y-116999878D02*
G01*
X144215719Y-117101719D01*
X144436992Y-117249570D01*
X144625170Y-117437748D01*
X144766264Y-117648908D01*
X144773022Y-117659023D01*
X144874862Y-117904888D01*
X144926780Y-118165897D01*
X144926780Y-118432023D01*
X144874862Y-118693032D01*
X144773022Y-118938897D01*
X144653251Y-119118147D01*
X144625170Y-119160172D01*
X144436992Y-119348350D01*
X144215719Y-119496201D01*
X144215718Y-119496202D01*
X144215717Y-119496202D01*
X143969852Y-119598042D01*
X143708843Y-119649960D01*
X143442717Y-119649960D01*
X143181708Y-119598042D01*
X142935843Y-119496202D01*
X142935842Y-119496202D01*
X142935841Y-119496201D01*
X142714568Y-119348350D01*
X142526390Y-119160172D01*
X142498310Y-119118147D01*
X142378538Y-118938897D01*
X142276698Y-118693032D01*
X142224780Y-118432023D01*
X142224780Y-118165897D01*
X142276698Y-117904888D01*
X142378538Y-117659023D01*
X142385297Y-117648908D01*
X142526390Y-117437748D01*
X142714568Y-117249570D01*
X142935841Y-117101719D01*
X143181708Y-116999878D01*
X143442717Y-116947960D01*
X143708843Y-116947960D01*
X143969852Y-116999878D01*
G37*
G36*
X160583092Y-117452687D02*
G01*
X160732392Y-117482384D01*
X160896364Y-117550304D01*
X161043934Y-117648907D01*
X161169433Y-117774406D01*
X161268036Y-117921976D01*
X161335956Y-118085948D01*
X161365653Y-118235248D01*
X161370580Y-118260018D01*
X161370580Y-118437502D01*
X161368528Y-118447816D01*
X161335956Y-118611572D01*
X161268036Y-118775544D01*
X161169433Y-118923114D01*
X161043934Y-119048613D01*
X160896364Y-119147216D01*
X160732392Y-119215136D01*
X160583092Y-119244833D01*
X160558322Y-119249760D01*
X160380838Y-119249760D01*
X160356068Y-119244833D01*
X160206768Y-119215136D01*
X160042796Y-119147216D01*
X159895226Y-119048613D01*
X159769727Y-118923114D01*
X159671124Y-118775544D01*
X159603204Y-118611572D01*
X159570632Y-118447816D01*
X159568580Y-118437502D01*
X159568580Y-118260018D01*
X159573507Y-118235248D01*
X159603204Y-118085948D01*
X159671124Y-117921976D01*
X159769727Y-117774406D01*
X159895226Y-117648907D01*
X160042796Y-117550304D01*
X160206768Y-117482384D01*
X160356068Y-117452687D01*
X160380838Y-117447760D01*
X160558322Y-117447760D01*
X160583092Y-117452687D01*
G37*
G36*
X158043092Y-117452687D02*
G01*
X158192392Y-117482384D01*
X158356364Y-117550304D01*
X158503934Y-117648907D01*
X158629433Y-117774406D01*
X158728036Y-117921976D01*
X158795956Y-118085948D01*
X158825653Y-118235248D01*
X158830580Y-118260018D01*
X158830580Y-118437502D01*
X158828528Y-118447816D01*
X158795956Y-118611572D01*
X158728036Y-118775544D01*
X158629433Y-118923114D01*
X158503934Y-119048613D01*
X158356364Y-119147216D01*
X158192392Y-119215136D01*
X158043092Y-119244833D01*
X158018322Y-119249760D01*
X157840838Y-119249760D01*
X157816068Y-119244833D01*
X157666768Y-119215136D01*
X157502796Y-119147216D01*
X157355226Y-119048613D01*
X157229727Y-118923114D01*
X157131124Y-118775544D01*
X157063204Y-118611572D01*
X157030632Y-118447816D01*
X157028580Y-118437502D01*
X157028580Y-118260018D01*
X157033507Y-118235248D01*
X157063204Y-118085948D01*
X157131124Y-117921976D01*
X157229727Y-117774406D01*
X157355226Y-117648907D01*
X157502796Y-117550304D01*
X157666768Y-117482384D01*
X157816068Y-117452687D01*
X157840838Y-117447760D01*
X158018322Y-117447760D01*
X158043092Y-117452687D01*
G37*
G36*
X151997988Y-117545703D02*
G01*
X152152860Y-117609853D01*
X152292241Y-117702985D01*
X152410775Y-117821519D01*
X152503907Y-117960900D01*
X152568057Y-118115772D01*
X152600760Y-118280184D01*
X152600760Y-118447816D01*
X152568057Y-118612228D01*
X152503907Y-118767100D01*
X152410775Y-118906481D01*
X152292241Y-119025015D01*
X152152860Y-119118147D01*
X151997988Y-119182297D01*
X151833576Y-119215000D01*
X151665944Y-119215000D01*
X151501532Y-119182297D01*
X151346660Y-119118147D01*
X151207279Y-119025015D01*
X151088745Y-118906481D01*
X150995613Y-118767100D01*
X150931463Y-118612228D01*
X150898760Y-118447816D01*
X150898760Y-118280184D01*
X150931463Y-118115772D01*
X150995613Y-117960900D01*
X151088745Y-117821519D01*
X151207279Y-117702985D01*
X151346660Y-117609853D01*
X151501532Y-117545703D01*
X151665944Y-117513000D01*
X151833576Y-117513000D01*
X151997988Y-117545703D01*
G37*
G36*
X158830580Y-116709760D02*
G01*
X157028580Y-116709760D01*
X157028580Y-114907760D01*
X158830580Y-114907760D01*
X158830580Y-116709760D01*
G37*
G36*
X160583092Y-114912687D02*
G01*
X160732392Y-114942384D01*
X160896364Y-115010304D01*
X161043934Y-115108907D01*
X161169433Y-115234406D01*
X161268036Y-115381976D01*
X161335956Y-115545948D01*
X161370580Y-115720019D01*
X161370580Y-115897501D01*
X161335956Y-116071572D01*
X161268036Y-116235544D01*
X161169433Y-116383114D01*
X161043934Y-116508613D01*
X160896364Y-116607216D01*
X160732392Y-116675136D01*
X160583092Y-116704833D01*
X160558322Y-116709760D01*
X160380838Y-116709760D01*
X160356068Y-116704833D01*
X160206768Y-116675136D01*
X160042796Y-116607216D01*
X159895226Y-116508613D01*
X159769727Y-116383114D01*
X159671124Y-116235544D01*
X159603204Y-116071572D01*
X159568580Y-115897501D01*
X159568580Y-115720019D01*
X159603204Y-115545948D01*
X159671124Y-115381976D01*
X159769727Y-115234406D01*
X159895226Y-115108907D01*
X160042796Y-115010304D01*
X160206768Y-114942384D01*
X160356068Y-114912687D01*
X160380838Y-114907760D01*
X160558322Y-114907760D01*
X160583092Y-114912687D01*
G37*
G36*
X147926780Y-114949960D02*
G01*
X145224780Y-114949960D01*
X145224780Y-112247960D01*
X147926780Y-112247960D01*
X147926780Y-114949960D01*
G37*
G36*
X140969852Y-112299878D02*
G01*
X141215719Y-112401719D01*
X141436992Y-112549570D01*
X141625170Y-112737748D01*
X141773021Y-112959021D01*
X141874862Y-113204888D01*
X141926780Y-113465898D01*
X141926780Y-113732022D01*
X141874862Y-113993032D01*
X141773021Y-114238899D01*
X141625170Y-114460172D01*
X141436992Y-114648350D01*
X141215719Y-114796201D01*
X141215718Y-114796202D01*
X141215717Y-114796202D01*
X140969852Y-114898042D01*
X140708843Y-114949960D01*
X140442717Y-114949960D01*
X140181708Y-114898042D01*
X139935843Y-114796202D01*
X139935842Y-114796202D01*
X139935841Y-114796201D01*
X139714568Y-114648350D01*
X139526390Y-114460172D01*
X139378539Y-114238899D01*
X139276698Y-113993032D01*
X139224780Y-113732022D01*
X139224780Y-113465898D01*
X139276698Y-113204888D01*
X139378539Y-112959021D01*
X139526390Y-112737748D01*
X139714568Y-112549570D01*
X139935841Y-112401719D01*
X140181708Y-112299878D01*
X140442717Y-112247960D01*
X140708843Y-112247960D01*
X140969852Y-112299878D01*
G37*
G36*
X151997988Y-109925703D02*
G01*
X152152860Y-109989853D01*
X152292241Y-110082985D01*
X152410775Y-110201519D01*
X152503907Y-110340900D01*
X152568057Y-110495772D01*
X152600760Y-110660184D01*
X152600760Y-110827816D01*
X152568057Y-110992228D01*
X152503907Y-111147100D01*
X152410775Y-111286481D01*
X152292241Y-111405015D01*
X152152860Y-111498147D01*
X151997988Y-111562297D01*
X151833576Y-111595000D01*
X151665944Y-111595000D01*
X151501532Y-111562297D01*
X151346660Y-111498147D01*
X151207279Y-111405015D01*
X151088745Y-111286481D01*
X150995613Y-111147100D01*
X150931463Y-110992228D01*
X150898760Y-110827816D01*
X150898760Y-110660184D01*
X150931463Y-110495772D01*
X150995613Y-110340900D01*
X151088745Y-110201519D01*
X151207279Y-110082985D01*
X151346660Y-109989853D01*
X151501532Y-109925703D01*
X151665944Y-109893000D01*
X151833576Y-109893000D01*
X151997988Y-109925703D01*
G37*
G36*
X135547480Y-107879260D02*
G01*
X133245480Y-107879260D01*
X133245480Y-105577260D01*
X135547480Y-105577260D01*
X135547480Y-107879260D01*
G37*
G36*
X144781029Y-105599376D02*
G01*
X144892214Y-105621492D01*
X145101683Y-105708257D01*
X145290200Y-105834220D01*
X145450520Y-105994540D01*
X145576483Y-106183057D01*
X145663248Y-106392526D01*
X145707480Y-106614896D01*
X145707480Y-106841624D01*
X145663248Y-107063994D01*
X145576483Y-107273463D01*
X145450520Y-107461980D01*
X145290200Y-107622300D01*
X145101683Y-107748263D01*
X144892214Y-107835028D01*
X144781029Y-107857144D01*
X144669845Y-107879260D01*
X144443115Y-107879260D01*
X144331931Y-107857144D01*
X144220746Y-107835028D01*
X144011277Y-107748263D01*
X143822760Y-107622300D01*
X143662440Y-107461980D01*
X143536477Y-107273463D01*
X143449712Y-107063994D01*
X143405480Y-106841624D01*
X143405480Y-106614896D01*
X143449712Y-106392526D01*
X143536477Y-106183057D01*
X143662440Y-105994540D01*
X143822760Y-105834220D01*
X144011277Y-105708257D01*
X144220746Y-105621492D01*
X144331931Y-105599376D01*
X144443115Y-105577260D01*
X144669845Y-105577260D01*
X144781029Y-105599376D01*
G37*
G36*
X154088975Y-103664306D02*
G01*
X154262046Y-103735994D01*
X154262047Y-103735995D01*
X154417807Y-103840070D01*
X154550270Y-103972533D01*
X154550271Y-103972535D01*
X154654346Y-104128294D01*
X154726034Y-104301365D01*
X154762580Y-104485093D01*
X154762580Y-104672427D01*
X154726034Y-104856155D01*
X154654346Y-105029226D01*
X154654345Y-105029227D01*
X154550270Y-105184987D01*
X154417807Y-105317450D01*
X154339398Y-105369841D01*
X154262046Y-105421526D01*
X154088975Y-105493214D01*
X153905247Y-105529760D01*
X153717913Y-105529760D01*
X153534185Y-105493214D01*
X153361114Y-105421526D01*
X153283762Y-105369841D01*
X153205353Y-105317450D01*
X153072890Y-105184987D01*
X152968815Y-105029227D01*
X152968814Y-105029226D01*
X152897126Y-104856155D01*
X152860580Y-104672427D01*
X152860580Y-104485093D01*
X152897126Y-104301365D01*
X152968814Y-104128294D01*
X153072889Y-103972535D01*
X153072890Y-103972533D01*
X153205353Y-103840070D01*
X153361113Y-103735995D01*
X153361114Y-103735994D01*
X153534185Y-103664306D01*
X153717913Y-103627760D01*
X153905247Y-103627760D01*
X154088975Y-103664306D01*
G37*
G36*
X152222580Y-105529760D02*
G01*
X150320580Y-105529760D01*
X150320580Y-103627760D01*
X152222580Y-103627760D01*
X152222580Y-105529760D01*
G37*
G36*
X135547480Y-103057492D02*
G01*
X133245480Y-103057492D01*
X133245480Y-100755492D01*
X135547480Y-100755492D01*
X135547480Y-103057492D01*
G37*
G36*
X144781029Y-100777608D02*
G01*
X144892214Y-100799724D01*
X145101683Y-100886489D01*
X145290200Y-101012452D01*
X145450520Y-101172772D01*
X145576483Y-101361289D01*
X145663248Y-101570758D01*
X145707480Y-101793128D01*
X145707480Y-102019856D01*
X145663248Y-102242226D01*
X145576483Y-102451695D01*
X145450520Y-102640212D01*
X145290200Y-102800532D01*
X145101683Y-102926495D01*
X144892214Y-103013260D01*
X144781029Y-103035376D01*
X144669845Y-103057492D01*
X144443115Y-103057492D01*
X144331931Y-103035376D01*
X144220746Y-103013260D01*
X144011277Y-102926495D01*
X143822760Y-102800532D01*
X143662440Y-102640212D01*
X143536477Y-102451695D01*
X143449712Y-102242226D01*
X143405480Y-102019856D01*
X143405480Y-101793128D01*
X143449712Y-101570758D01*
X143536477Y-101361289D01*
X143662440Y-101172772D01*
X143822760Y-101012452D01*
X144011277Y-100886489D01*
X144220746Y-100799724D01*
X144331931Y-100777608D01*
X144443115Y-100755492D01*
X144669845Y-100755492D01*
X144781029Y-100777608D01*
G37*
G36*
X144781029Y-95955842D02*
G01*
X144892214Y-95977958D01*
X145101683Y-96064723D01*
X145290200Y-96190686D01*
X145450520Y-96351006D01*
X145576483Y-96539523D01*
X145663248Y-96748992D01*
X145707480Y-96971362D01*
X145707480Y-97198090D01*
X145663248Y-97420460D01*
X145576483Y-97629929D01*
X145450520Y-97818446D01*
X145290200Y-97978766D01*
X145101683Y-98104729D01*
X144892214Y-98191494D01*
X144781029Y-98213610D01*
X144669845Y-98235726D01*
X144443115Y-98235726D01*
X144331931Y-98213610D01*
X144220746Y-98191494D01*
X144011277Y-98104729D01*
X143822760Y-97978766D01*
X143662440Y-97818446D01*
X143536477Y-97629929D01*
X143449712Y-97420460D01*
X143405480Y-97198090D01*
X143405480Y-96971362D01*
X143449712Y-96748992D01*
X143536477Y-96539523D01*
X143662440Y-96351006D01*
X143822760Y-96190686D01*
X144011277Y-96064723D01*
X144220746Y-95977958D01*
X144331931Y-95955842D01*
X144443115Y-95933726D01*
X144669845Y-95933726D01*
X144781029Y-95955842D01*
G37*
G36*
X135547480Y-98235726D02*
G01*
X133245480Y-98235726D01*
X133245480Y-95933726D01*
X135547480Y-95933726D01*
X135547480Y-98235726D01*
G37*
G36*
X154240980Y-96913960D02*
G01*
X152238980Y-96913960D01*
X152238980Y-94911960D01*
X154240980Y-94911960D01*
X154240980Y-96913960D01*
G37*
G36*
X153435265Y-92431194D02*
G01*
X153531961Y-92450428D01*
X153714131Y-92525886D01*
X153878080Y-92635433D01*
X154017507Y-92774860D01*
X154127054Y-92938809D01*
X154202512Y-93120979D01*
X154240980Y-93314370D01*
X154240980Y-93511550D01*
X154202512Y-93704941D01*
X154127054Y-93887111D01*
X154017507Y-94051060D01*
X153878080Y-94190487D01*
X153714131Y-94300034D01*
X153531961Y-94375492D01*
X153338571Y-94413960D01*
X153141389Y-94413960D01*
X152947999Y-94375492D01*
X152765829Y-94300034D01*
X152601880Y-94190487D01*
X152462453Y-94051060D01*
X152352906Y-93887111D01*
X152277448Y-93704941D01*
X152238980Y-93511550D01*
X152238980Y-93314370D01*
X152277448Y-93120979D01*
X152352906Y-92938809D01*
X152462453Y-92774860D01*
X152601880Y-92635433D01*
X152765829Y-92525886D01*
X152947999Y-92450428D01*
X153044695Y-92431194D01*
X153141389Y-92411960D01*
X153338571Y-92411960D01*
X153435265Y-92431194D01*
G37*
G36*
X144781029Y-91134076D02*
G01*
X144892214Y-91156192D01*
X145101683Y-91242957D01*
X145290200Y-91368920D01*
X145450520Y-91529240D01*
X145576483Y-91717757D01*
X145663248Y-91927226D01*
X145707480Y-92149596D01*
X145707480Y-92376324D01*
X145663248Y-92598694D01*
X145576483Y-92808163D01*
X145450520Y-92996680D01*
X145290200Y-93157000D01*
X145101683Y-93282963D01*
X144892214Y-93369728D01*
X144781029Y-93391844D01*
X144669845Y-93413960D01*
X144443115Y-93413960D01*
X144331931Y-93391844D01*
X144220746Y-93369728D01*
X144011277Y-93282963D01*
X143822760Y-93157000D01*
X143662440Y-92996680D01*
X143536477Y-92808163D01*
X143449712Y-92598694D01*
X143405480Y-92376324D01*
X143405480Y-92149596D01*
X143449712Y-91927226D01*
X143536477Y-91717757D01*
X143662440Y-91529240D01*
X143822760Y-91368920D01*
X144011277Y-91242957D01*
X144220746Y-91156192D01*
X144331931Y-91134076D01*
X144443115Y-91111960D01*
X144669845Y-91111960D01*
X144781029Y-91134076D01*
G37*
G36*
X135547480Y-93413960D02*
G01*
X133245480Y-93413960D01*
X133245480Y-91111960D01*
X135547480Y-91111960D01*
X135547480Y-93413960D01*
G37*
G36*
X153435265Y-89931194D02*
G01*
X153531961Y-89950428D01*
X153714131Y-90025886D01*
X153878080Y-90135433D01*
X154017507Y-90274860D01*
X154127054Y-90438809D01*
X154202512Y-90620979D01*
X154240980Y-90814370D01*
X154240980Y-91011550D01*
X154202512Y-91204941D01*
X154127054Y-91387111D01*
X154017507Y-91551060D01*
X153878080Y-91690487D01*
X153714131Y-91800034D01*
X153531961Y-91875492D01*
X153338571Y-91913960D01*
X153141389Y-91913960D01*
X152947999Y-91875492D01*
X152765829Y-91800034D01*
X152601880Y-91690487D01*
X152462453Y-91551060D01*
X152352906Y-91387111D01*
X152277448Y-91204941D01*
X152238980Y-91011550D01*
X152238980Y-90814370D01*
X152277448Y-90620979D01*
X152352906Y-90438809D01*
X152462453Y-90274860D01*
X152601880Y-90135433D01*
X152765829Y-90025886D01*
X152947999Y-89950428D01*
X153044695Y-89931194D01*
X153141389Y-89911960D01*
X153338571Y-89911960D01*
X153435265Y-89931194D01*
G37*
G36*
X146760508Y-87888663D02*
G01*
X146915380Y-87952813D01*
X147054761Y-88045945D01*
X147173295Y-88164479D01*
X147266427Y-88303860D01*
X147330577Y-88458732D01*
X147363280Y-88623144D01*
X147363280Y-88790776D01*
X147330577Y-88955188D01*
X147266427Y-89110060D01*
X147173295Y-89249441D01*
X147054761Y-89367975D01*
X146915380Y-89461107D01*
X146760508Y-89525257D01*
X146596096Y-89557960D01*
X146428464Y-89557960D01*
X146264052Y-89525257D01*
X146109180Y-89461107D01*
X145969799Y-89367975D01*
X145851265Y-89249441D01*
X145758133Y-89110060D01*
X145693983Y-88955188D01*
X145661280Y-88790776D01*
X145661280Y-88623144D01*
X145693983Y-88458732D01*
X145758133Y-88303860D01*
X145851265Y-88164479D01*
X145969799Y-88045945D01*
X146109180Y-87952813D01*
X146264052Y-87888663D01*
X146428464Y-87855960D01*
X146596096Y-87855960D01*
X146760508Y-87888663D01*
G37*
G36*
X138403199Y-85206680D02*
G01*
X138592360Y-85264061D01*
X138592363Y-85264062D01*
X138684813Y-85313478D01*
X138766692Y-85357243D01*
X138919495Y-85482645D01*
X139044897Y-85635448D01*
X139138079Y-85809779D01*
X139195460Y-85998940D01*
X139209980Y-86146366D01*
X139209980Y-86339953D01*
X139195460Y-86487379D01*
X139138079Y-86676540D01*
X139138078Y-86676543D01*
X139088662Y-86768993D01*
X139044897Y-86850872D01*
X138919495Y-87003675D01*
X138766692Y-87129077D01*
X138592361Y-87222259D01*
X138403200Y-87279640D01*
X138206480Y-87299015D01*
X138009761Y-87279640D01*
X137820600Y-87222259D01*
X137646268Y-87129077D01*
X137493465Y-87003675D01*
X137368063Y-86850872D01*
X137274881Y-86676541D01*
X137217500Y-86487380D01*
X137202980Y-86339954D01*
X137202980Y-86146367D01*
X137217500Y-85998941D01*
X137274881Y-85809780D01*
X137274882Y-85809777D01*
X137324298Y-85717327D01*
X137368063Y-85635448D01*
X137493465Y-85482645D01*
X137646268Y-85357243D01*
X137820599Y-85264061D01*
X138009760Y-85206680D01*
X138206480Y-85187305D01*
X138403199Y-85206680D01*
G37*
G36*
X140943199Y-85206680D02*
G01*
X141132360Y-85264061D01*
X141132363Y-85264062D01*
X141224813Y-85313478D01*
X141306692Y-85357243D01*
X141459495Y-85482645D01*
X141584897Y-85635448D01*
X141678079Y-85809779D01*
X141735460Y-85998940D01*
X141749980Y-86146366D01*
X141749980Y-86339953D01*
X141735460Y-86487379D01*
X141678079Y-86676540D01*
X141678078Y-86676543D01*
X141628662Y-86768993D01*
X141584897Y-86850872D01*
X141459495Y-87003675D01*
X141306692Y-87129077D01*
X141132361Y-87222259D01*
X140943200Y-87279640D01*
X140746480Y-87299015D01*
X140549761Y-87279640D01*
X140360600Y-87222259D01*
X140186268Y-87129077D01*
X140033465Y-87003675D01*
X139908063Y-86850872D01*
X139814881Y-86676541D01*
X139757500Y-86487380D01*
X139742980Y-86339954D01*
X139742980Y-86146367D01*
X139757500Y-85998941D01*
X139814881Y-85809780D01*
X139814882Y-85809777D01*
X139864298Y-85717327D01*
X139908063Y-85635448D01*
X140033465Y-85482645D01*
X140186268Y-85357243D01*
X140360599Y-85264061D01*
X140549760Y-85206680D01*
X140746480Y-85187305D01*
X140943199Y-85206680D01*
G37*
G36*
X136669980Y-87294160D02*
G01*
X134662980Y-87294160D01*
X134662980Y-85192160D01*
X136669980Y-85192160D01*
X136669980Y-87294160D01*
G37*
G36*
X152222580Y-84438160D02*
G01*
X150320580Y-84438160D01*
X150320580Y-82536160D01*
X152222580Y-82536160D01*
X152222580Y-84438160D01*
G37*
G36*
X154088975Y-82572706D02*
G01*
X154262046Y-82644394D01*
X154262047Y-82644395D01*
X154417807Y-82748470D01*
X154550270Y-82880933D01*
X154550271Y-82880935D01*
X154654346Y-83036694D01*
X154726034Y-83209765D01*
X154762580Y-83393493D01*
X154762580Y-83580827D01*
X154726034Y-83764555D01*
X154654346Y-83937626D01*
X154654345Y-83937627D01*
X154550270Y-84093387D01*
X154417807Y-84225850D01*
X154339398Y-84278241D01*
X154262046Y-84329926D01*
X154088975Y-84401614D01*
X153905247Y-84438160D01*
X153717913Y-84438160D01*
X153534185Y-84401614D01*
X153361114Y-84329926D01*
X153283762Y-84278241D01*
X153205353Y-84225850D01*
X153072890Y-84093387D01*
X152968815Y-83937627D01*
X152968814Y-83937626D01*
X152897126Y-83764555D01*
X152860580Y-83580827D01*
X152860580Y-83393493D01*
X152897126Y-83209765D01*
X152968814Y-83036694D01*
X153072889Y-82880935D01*
X153072890Y-82880933D01*
X153205353Y-82748470D01*
X153361113Y-82644395D01*
X153361114Y-82644394D01*
X153534185Y-82572706D01*
X153717913Y-82536160D01*
X153905247Y-82536160D01*
X154088975Y-82572706D01*
G37*
G36*
X146760508Y-80268663D02*
G01*
X146915380Y-80332813D01*
X147054761Y-80425945D01*
X147173295Y-80544479D01*
X147266427Y-80683860D01*
X147330577Y-80838732D01*
X147363280Y-81003144D01*
X147363280Y-81170776D01*
X147330577Y-81335188D01*
X147266427Y-81490060D01*
X147173295Y-81629441D01*
X147054761Y-81747975D01*
X146915380Y-81841107D01*
X146760508Y-81905257D01*
X146596096Y-81937960D01*
X146428464Y-81937960D01*
X146264052Y-81905257D01*
X146109180Y-81841107D01*
X145969799Y-81747975D01*
X145851265Y-81629441D01*
X145758133Y-81490060D01*
X145693983Y-81335188D01*
X145661280Y-81170776D01*
X145661280Y-81003144D01*
X145693983Y-80838732D01*
X145758133Y-80683860D01*
X145851265Y-80544479D01*
X145969799Y-80425945D01*
X146109180Y-80332813D01*
X146264052Y-80268663D01*
X146428464Y-80235960D01*
X146596096Y-80235960D01*
X146760508Y-80268663D01*
G37*
G36*
X140693644Y-74374049D02*
G01*
X140884913Y-74453275D01*
X140884915Y-74453276D01*
X141057053Y-74568295D01*
X141203445Y-74714687D01*
X141318465Y-74886827D01*
X141397691Y-75078096D01*
X141438080Y-75281144D01*
X141438080Y-75488176D01*
X141397691Y-75691224D01*
X141318465Y-75882493D01*
X141318464Y-75882495D01*
X141203445Y-76054633D01*
X141057053Y-76201025D01*
X140884915Y-76316044D01*
X140884914Y-76316045D01*
X140884913Y-76316045D01*
X140693644Y-76395271D01*
X140490596Y-76435660D01*
X140283564Y-76435660D01*
X140080516Y-76395271D01*
X139889247Y-76316045D01*
X139889246Y-76316045D01*
X139889245Y-76316044D01*
X139717107Y-76201025D01*
X139570715Y-76054633D01*
X139455696Y-75882495D01*
X139455695Y-75882493D01*
X139376469Y-75691224D01*
X139336080Y-75488176D01*
X139336080Y-75281144D01*
X139376469Y-75078096D01*
X139455695Y-74886827D01*
X139570715Y-74714687D01*
X139717107Y-74568295D01*
X139889245Y-74453276D01*
X139889247Y-74453275D01*
X140080516Y-74374049D01*
X140283564Y-74333660D01*
X140490596Y-74333660D01*
X140693644Y-74374049D01*
G37*
G36*
X136438080Y-76435660D02*
G01*
X134336080Y-76435660D01*
X134336080Y-74333660D01*
X136438080Y-74333660D01*
X136438080Y-76435660D01*
G37*
G36*
X146575880Y-74419560D02*
G01*
X144873880Y-74419560D01*
X144873880Y-72717560D01*
X146575880Y-72717560D01*
X146575880Y-74419560D01*
G37*
G36*
X148473108Y-72750263D02*
G01*
X148627980Y-72814413D01*
X148767361Y-72907545D01*
X148885895Y-73026079D01*
X148979027Y-73165460D01*
X149043177Y-73320332D01*
X149075880Y-73484744D01*
X149075880Y-73652376D01*
X149043177Y-73816788D01*
X148979027Y-73971660D01*
X148885895Y-74111041D01*
X148767361Y-74229575D01*
X148627980Y-74322707D01*
X148473108Y-74386857D01*
X148308696Y-74419560D01*
X148141064Y-74419560D01*
X147976652Y-74386857D01*
X147821780Y-74322707D01*
X147682399Y-74229575D01*
X147563865Y-74111041D01*
X147470733Y-73971660D01*
X147406583Y-73816788D01*
X147373880Y-73652376D01*
X147373880Y-73484744D01*
X147406583Y-73320332D01*
X147470733Y-73165460D01*
X147563865Y-73026079D01*
X147682399Y-72907545D01*
X147821780Y-72814413D01*
X147976652Y-72750263D01*
X148141064Y-72717560D01*
X148308696Y-72717560D01*
X148473108Y-72750263D01*
G37*
G36*
X160583092Y-71669187D02*
G01*
X160732392Y-71698884D01*
X160896364Y-71766804D01*
X161043934Y-71865407D01*
X161169433Y-71990906D01*
X161268036Y-72138476D01*
X161335956Y-72302448D01*
X161370580Y-72476519D01*
X161370580Y-72654001D01*
X161335956Y-72828072D01*
X161268036Y-72992044D01*
X161169433Y-73139614D01*
X161043934Y-73265113D01*
X160896364Y-73363716D01*
X160732392Y-73431636D01*
X160583092Y-73461333D01*
X160558322Y-73466260D01*
X160380838Y-73466260D01*
X160356068Y-73461333D01*
X160206768Y-73431636D01*
X160042796Y-73363716D01*
X159895226Y-73265113D01*
X159769727Y-73139614D01*
X159671124Y-72992044D01*
X159603204Y-72828072D01*
X159568580Y-72654001D01*
X159568580Y-72476519D01*
X159603204Y-72302448D01*
X159671124Y-72138476D01*
X159769727Y-71990906D01*
X159895226Y-71865407D01*
X160042796Y-71766804D01*
X160206768Y-71698884D01*
X160356068Y-71669187D01*
X160380838Y-71664260D01*
X160558322Y-71664260D01*
X160583092Y-71669187D01*
G37*
G36*
X158043092Y-71669187D02*
G01*
X158192392Y-71698884D01*
X158356364Y-71766804D01*
X158503934Y-71865407D01*
X158629433Y-71990906D01*
X158728036Y-72138476D01*
X158795956Y-72302448D01*
X158830580Y-72476519D01*
X158830580Y-72654001D01*
X158795956Y-72828072D01*
X158728036Y-72992044D01*
X158629433Y-73139614D01*
X158503934Y-73265113D01*
X158356364Y-73363716D01*
X158192392Y-73431636D01*
X158043092Y-73461333D01*
X158018322Y-73466260D01*
X157840838Y-73466260D01*
X157816068Y-73461333D01*
X157666768Y-73431636D01*
X157502796Y-73363716D01*
X157355226Y-73265113D01*
X157229727Y-73139614D01*
X157131124Y-72992044D01*
X157063204Y-72828072D01*
X157028580Y-72654001D01*
X157028580Y-72476519D01*
X157063204Y-72302448D01*
X157131124Y-72138476D01*
X157229727Y-71990906D01*
X157355226Y-71865407D01*
X157502796Y-71766804D01*
X157666768Y-71698884D01*
X157816068Y-71669187D01*
X157840838Y-71664260D01*
X158018322Y-71664260D01*
X158043092Y-71669187D01*
G37*
G36*
X160583092Y-69129187D02*
G01*
X160732392Y-69158884D01*
X160896364Y-69226804D01*
X161043934Y-69325407D01*
X161169433Y-69450906D01*
X161268036Y-69598476D01*
X161335956Y-69762448D01*
X161370580Y-69936519D01*
X161370580Y-70114001D01*
X161335956Y-70288072D01*
X161268036Y-70452044D01*
X161169433Y-70599614D01*
X161043934Y-70725113D01*
X160896364Y-70823716D01*
X160732392Y-70891636D01*
X160583092Y-70921333D01*
X160558322Y-70926260D01*
X160380838Y-70926260D01*
X160356068Y-70921333D01*
X160206768Y-70891636D01*
X160042796Y-70823716D01*
X159895226Y-70725113D01*
X159769727Y-70599614D01*
X159671124Y-70452044D01*
X159603204Y-70288072D01*
X159568580Y-70114001D01*
X159568580Y-69936519D01*
X159603204Y-69762448D01*
X159671124Y-69598476D01*
X159769727Y-69450906D01*
X159895226Y-69325407D01*
X160042796Y-69226804D01*
X160206768Y-69158884D01*
X160356068Y-69129187D01*
X160380838Y-69124260D01*
X160558322Y-69124260D01*
X160583092Y-69129187D01*
G37*
G36*
X158830580Y-70926260D02*
G01*
X157028580Y-70926260D01*
X157028580Y-69124260D01*
X158830580Y-69124260D01*
X158830580Y-70926260D01*
G37*
M02*
