G04 #@! TF.GenerationSoftware,KiCad,Pcbnew,(5.1.5)-3*
G04 #@! TF.CreationDate,2020-07-04T17:37:37-04:00*
G04 #@! TF.ProjectId,Power Supply,506f7765-7220-4537-9570-706c792e6b69,rev?*
G04 #@! TF.SameCoordinates,Original*
G04 #@! TF.FileFunction,Legend,Top*
G04 #@! TF.FilePolarity,Positive*
%FSLAX46Y46*%
G04 Gerber Fmt 4.6, Leading zero omitted, Abs format (unit mm)*
G04 Created by KiCad (PCBNEW (5.1.5)-3) date 2020-07-04 17:37:37*
%MOMM*%
%LPD*%
G04 APERTURE LIST*
%ADD10C,0.250000*%
%ADD11C,0.120000*%
%ADD12C,0.100000*%
%ADD13C,0.150000*%
G04 APERTURE END LIST*
D10*
X153919015Y-72296400D02*
X153823777Y-72248780D01*
X153680920Y-72248780D01*
X153538062Y-72296400D01*
X153442824Y-72391638D01*
X153395205Y-72486876D01*
X153347586Y-72677352D01*
X153347586Y-72820209D01*
X153395205Y-73010685D01*
X153442824Y-73105923D01*
X153538062Y-73201161D01*
X153680920Y-73248780D01*
X153776158Y-73248780D01*
X153919015Y-73201161D01*
X153966634Y-73153542D01*
X153966634Y-72820209D01*
X153776158Y-72820209D01*
X154395205Y-73248780D02*
X154395205Y-72248780D01*
X154966634Y-73248780D01*
X154966634Y-72248780D01*
X155442824Y-73248780D02*
X155442824Y-72248780D01*
X155680920Y-72248780D01*
X155823777Y-72296400D01*
X155919015Y-72391638D01*
X155966634Y-72486876D01*
X156014253Y-72677352D01*
X156014253Y-72820209D01*
X155966634Y-73010685D01*
X155919015Y-73105923D01*
X155823777Y-73201161D01*
X155680920Y-73248780D01*
X155442824Y-73248780D01*
X154239055Y-118321200D02*
X154143817Y-118273580D01*
X154000960Y-118273580D01*
X153858102Y-118321200D01*
X153762864Y-118416438D01*
X153715245Y-118511676D01*
X153667626Y-118702152D01*
X153667626Y-118845009D01*
X153715245Y-119035485D01*
X153762864Y-119130723D01*
X153858102Y-119225961D01*
X154000960Y-119273580D01*
X154096198Y-119273580D01*
X154239055Y-119225961D01*
X154286674Y-119178342D01*
X154286674Y-118845009D01*
X154096198Y-118845009D01*
X154715245Y-119273580D02*
X154715245Y-118273580D01*
X155286674Y-119273580D01*
X155286674Y-118273580D01*
X155762864Y-119273580D02*
X155762864Y-118273580D01*
X156000960Y-118273580D01*
X156143817Y-118321200D01*
X156239055Y-118416438D01*
X156286674Y-118511676D01*
X156334293Y-118702152D01*
X156334293Y-118845009D01*
X156286674Y-119035485D01*
X156239055Y-119130723D01*
X156143817Y-119225961D01*
X156000960Y-119273580D01*
X155762864Y-119273580D01*
X155046703Y-69172840D02*
X154570513Y-69172840D01*
X154522894Y-69649031D01*
X154570513Y-69601412D01*
X154665751Y-69553793D01*
X154903846Y-69553793D01*
X154999084Y-69601412D01*
X155046703Y-69649031D01*
X155094322Y-69744269D01*
X155094322Y-69982364D01*
X155046703Y-70077602D01*
X154999084Y-70125221D01*
X154903846Y-70172840D01*
X154665751Y-70172840D01*
X154570513Y-70125221D01*
X154522894Y-70077602D01*
X155380037Y-69172840D02*
X155713370Y-70172840D01*
X156046703Y-69172840D01*
X155166083Y-114737900D02*
X154689893Y-114737900D01*
X154642274Y-115214091D01*
X154689893Y-115166472D01*
X154785131Y-115118853D01*
X155023226Y-115118853D01*
X155118464Y-115166472D01*
X155166083Y-115214091D01*
X155213702Y-115309329D01*
X155213702Y-115547424D01*
X155166083Y-115642662D01*
X155118464Y-115690281D01*
X155023226Y-115737900D01*
X154785131Y-115737900D01*
X154689893Y-115690281D01*
X154642274Y-115642662D01*
X155499417Y-114737900D02*
X155832750Y-115737900D01*
X156166083Y-114737900D01*
D11*
X143007080Y-75384660D02*
G75*
G03X143007080Y-75384660I-5120000J0D01*
G01*
X137887080Y-70304660D02*
X137887080Y-80464660D01*
X137927080Y-70304660D02*
X137927080Y-80464660D01*
X137967080Y-70304660D02*
X137967080Y-80464660D01*
X138007080Y-70305660D02*
X138007080Y-80463660D01*
X138047080Y-70306660D02*
X138047080Y-80462660D01*
X138087080Y-70307660D02*
X138087080Y-80461660D01*
X138127080Y-70309660D02*
X138127080Y-80459660D01*
X138167080Y-70311660D02*
X138167080Y-80457660D01*
X138207080Y-70314660D02*
X138207080Y-80454660D01*
X138247080Y-70316660D02*
X138247080Y-80452660D01*
X138287080Y-70319660D02*
X138287080Y-80449660D01*
X138327080Y-70322660D02*
X138327080Y-80446660D01*
X138367080Y-70326660D02*
X138367080Y-80442660D01*
X138407080Y-70330660D02*
X138407080Y-80438660D01*
X138447080Y-70334660D02*
X138447080Y-80434660D01*
X138487080Y-70339660D02*
X138487080Y-80429660D01*
X138527080Y-70344660D02*
X138527080Y-80424660D01*
X138567080Y-70349660D02*
X138567080Y-80419660D01*
X138608080Y-70354660D02*
X138608080Y-80414660D01*
X138648080Y-70360660D02*
X138648080Y-80408660D01*
X138688080Y-70366660D02*
X138688080Y-80402660D01*
X138728080Y-70373660D02*
X138728080Y-80395660D01*
X138768080Y-70380660D02*
X138768080Y-80388660D01*
X138808080Y-70387660D02*
X138808080Y-80381660D01*
X138848080Y-70394660D02*
X138848080Y-80374660D01*
X138888080Y-70402660D02*
X138888080Y-80366660D01*
X138928080Y-70410660D02*
X138928080Y-80358660D01*
X138968080Y-70419660D02*
X138968080Y-80349660D01*
X139008080Y-70428660D02*
X139008080Y-80340660D01*
X139048080Y-70437660D02*
X139048080Y-80331660D01*
X139088080Y-70446660D02*
X139088080Y-80322660D01*
X139128080Y-70456660D02*
X139128080Y-80312660D01*
X139168080Y-70466660D02*
X139168080Y-74143660D01*
X139168080Y-76625660D02*
X139168080Y-80302660D01*
X139208080Y-70477660D02*
X139208080Y-74143660D01*
X139208080Y-76625660D02*
X139208080Y-80291660D01*
X139248080Y-70487660D02*
X139248080Y-74143660D01*
X139248080Y-76625660D02*
X139248080Y-80281660D01*
X139288080Y-70499660D02*
X139288080Y-74143660D01*
X139288080Y-76625660D02*
X139288080Y-80269660D01*
X139328080Y-70510660D02*
X139328080Y-74143660D01*
X139328080Y-76625660D02*
X139328080Y-80258660D01*
X139368080Y-70522660D02*
X139368080Y-74143660D01*
X139368080Y-76625660D02*
X139368080Y-80246660D01*
X139408080Y-70534660D02*
X139408080Y-74143660D01*
X139408080Y-76625660D02*
X139408080Y-80234660D01*
X139448080Y-70547660D02*
X139448080Y-74143660D01*
X139448080Y-76625660D02*
X139448080Y-80221660D01*
X139488080Y-70560660D02*
X139488080Y-74143660D01*
X139488080Y-76625660D02*
X139488080Y-80208660D01*
X139528080Y-70573660D02*
X139528080Y-74143660D01*
X139528080Y-76625660D02*
X139528080Y-80195660D01*
X139568080Y-70587660D02*
X139568080Y-74143660D01*
X139568080Y-76625660D02*
X139568080Y-80181660D01*
X139608080Y-70601660D02*
X139608080Y-74143660D01*
X139608080Y-76625660D02*
X139608080Y-80167660D01*
X139648080Y-70616660D02*
X139648080Y-74143660D01*
X139648080Y-76625660D02*
X139648080Y-80152660D01*
X139688080Y-70630660D02*
X139688080Y-74143660D01*
X139688080Y-76625660D02*
X139688080Y-80138660D01*
X139728080Y-70646660D02*
X139728080Y-74143660D01*
X139728080Y-76625660D02*
X139728080Y-80122660D01*
X139768080Y-70661660D02*
X139768080Y-74143660D01*
X139768080Y-76625660D02*
X139768080Y-80107660D01*
X139808080Y-70677660D02*
X139808080Y-74143660D01*
X139808080Y-76625660D02*
X139808080Y-80091660D01*
X139848080Y-70694660D02*
X139848080Y-74143660D01*
X139848080Y-76625660D02*
X139848080Y-80074660D01*
X139888080Y-70710660D02*
X139888080Y-74143660D01*
X139888080Y-76625660D02*
X139888080Y-80058660D01*
X139928080Y-70727660D02*
X139928080Y-74143660D01*
X139928080Y-76625660D02*
X139928080Y-80041660D01*
X139968080Y-70745660D02*
X139968080Y-74143660D01*
X139968080Y-76625660D02*
X139968080Y-80023660D01*
X140008080Y-70763660D02*
X140008080Y-74143660D01*
X140008080Y-76625660D02*
X140008080Y-80005660D01*
X140048080Y-70781660D02*
X140048080Y-74143660D01*
X140048080Y-76625660D02*
X140048080Y-79987660D01*
X140088080Y-70800660D02*
X140088080Y-74143660D01*
X140088080Y-76625660D02*
X140088080Y-79968660D01*
X140128080Y-70820660D02*
X140128080Y-74143660D01*
X140128080Y-76625660D02*
X140128080Y-79948660D01*
X140168080Y-70839660D02*
X140168080Y-74143660D01*
X140168080Y-76625660D02*
X140168080Y-79929660D01*
X140208080Y-70859660D02*
X140208080Y-74143660D01*
X140208080Y-76625660D02*
X140208080Y-79909660D01*
X140248080Y-70880660D02*
X140248080Y-74143660D01*
X140248080Y-76625660D02*
X140248080Y-79888660D01*
X140288080Y-70901660D02*
X140288080Y-74143660D01*
X140288080Y-76625660D02*
X140288080Y-79867660D01*
X140328080Y-70922660D02*
X140328080Y-74143660D01*
X140328080Y-76625660D02*
X140328080Y-79846660D01*
X140368080Y-70944660D02*
X140368080Y-74143660D01*
X140368080Y-76625660D02*
X140368080Y-79824660D01*
X140408080Y-70967660D02*
X140408080Y-74143660D01*
X140408080Y-76625660D02*
X140408080Y-79801660D01*
X140448080Y-70989660D02*
X140448080Y-74143660D01*
X140448080Y-76625660D02*
X140448080Y-79779660D01*
X140488080Y-71013660D02*
X140488080Y-74143660D01*
X140488080Y-76625660D02*
X140488080Y-79755660D01*
X140528080Y-71037660D02*
X140528080Y-74143660D01*
X140528080Y-76625660D02*
X140528080Y-79731660D01*
X140568080Y-71061660D02*
X140568080Y-74143660D01*
X140568080Y-76625660D02*
X140568080Y-79707660D01*
X140608080Y-71086660D02*
X140608080Y-74143660D01*
X140608080Y-76625660D02*
X140608080Y-79682660D01*
X140648080Y-71111660D02*
X140648080Y-74143660D01*
X140648080Y-76625660D02*
X140648080Y-79657660D01*
X140688080Y-71137660D02*
X140688080Y-74143660D01*
X140688080Y-76625660D02*
X140688080Y-79631660D01*
X140728080Y-71163660D02*
X140728080Y-74143660D01*
X140728080Y-76625660D02*
X140728080Y-79605660D01*
X140768080Y-71190660D02*
X140768080Y-74143660D01*
X140768080Y-76625660D02*
X140768080Y-79578660D01*
X140808080Y-71218660D02*
X140808080Y-74143660D01*
X140808080Y-76625660D02*
X140808080Y-79550660D01*
X140848080Y-71246660D02*
X140848080Y-74143660D01*
X140848080Y-76625660D02*
X140848080Y-79522660D01*
X140888080Y-71274660D02*
X140888080Y-74143660D01*
X140888080Y-76625660D02*
X140888080Y-79494660D01*
X140928080Y-71304660D02*
X140928080Y-74143660D01*
X140928080Y-76625660D02*
X140928080Y-79464660D01*
X140968080Y-71334660D02*
X140968080Y-74143660D01*
X140968080Y-76625660D02*
X140968080Y-79434660D01*
X141008080Y-71364660D02*
X141008080Y-74143660D01*
X141008080Y-76625660D02*
X141008080Y-79404660D01*
X141048080Y-71395660D02*
X141048080Y-74143660D01*
X141048080Y-76625660D02*
X141048080Y-79373660D01*
X141088080Y-71427660D02*
X141088080Y-74143660D01*
X141088080Y-76625660D02*
X141088080Y-79341660D01*
X141128080Y-71459660D02*
X141128080Y-74143660D01*
X141128080Y-76625660D02*
X141128080Y-79309660D01*
X141168080Y-71492660D02*
X141168080Y-74143660D01*
X141168080Y-76625660D02*
X141168080Y-79276660D01*
X141208080Y-71526660D02*
X141208080Y-74143660D01*
X141208080Y-76625660D02*
X141208080Y-79242660D01*
X141248080Y-71560660D02*
X141248080Y-74143660D01*
X141248080Y-76625660D02*
X141248080Y-79208660D01*
X141288080Y-71595660D02*
X141288080Y-74143660D01*
X141288080Y-76625660D02*
X141288080Y-79173660D01*
X141328080Y-71631660D02*
X141328080Y-74143660D01*
X141328080Y-76625660D02*
X141328080Y-79137660D01*
X141368080Y-71668660D02*
X141368080Y-74143660D01*
X141368080Y-76625660D02*
X141368080Y-79100660D01*
X141408080Y-71705660D02*
X141408080Y-74143660D01*
X141408080Y-76625660D02*
X141408080Y-79063660D01*
X141448080Y-71744660D02*
X141448080Y-74143660D01*
X141448080Y-76625660D02*
X141448080Y-79024660D01*
X141488080Y-71783660D02*
X141488080Y-74143660D01*
X141488080Y-76625660D02*
X141488080Y-78985660D01*
X141528080Y-71823660D02*
X141528080Y-74143660D01*
X141528080Y-76625660D02*
X141528080Y-78945660D01*
X141568080Y-71864660D02*
X141568080Y-74143660D01*
X141568080Y-76625660D02*
X141568080Y-78904660D01*
X141608080Y-71906660D02*
X141608080Y-74143660D01*
X141608080Y-76625660D02*
X141608080Y-78862660D01*
X141648080Y-71948660D02*
X141648080Y-78820660D01*
X141688080Y-71992660D02*
X141688080Y-78776660D01*
X141728080Y-72037660D02*
X141728080Y-78731660D01*
X141768080Y-72083660D02*
X141768080Y-78685660D01*
X141808080Y-72130660D02*
X141808080Y-78638660D01*
X141848080Y-72178660D02*
X141848080Y-78590660D01*
X141888080Y-72228660D02*
X141888080Y-78540660D01*
X141928080Y-72278660D02*
X141928080Y-78490660D01*
X141968080Y-72330660D02*
X141968080Y-78438660D01*
X142008080Y-72384660D02*
X142008080Y-78384660D01*
X142048080Y-72439660D02*
X142048080Y-78329660D01*
X142088080Y-72495660D02*
X142088080Y-78273660D01*
X142128080Y-72554660D02*
X142128080Y-78214660D01*
X142168080Y-72614660D02*
X142168080Y-78154660D01*
X142208080Y-72675660D02*
X142208080Y-78093660D01*
X142248080Y-72739660D02*
X142248080Y-78029660D01*
X142288080Y-72805660D02*
X142288080Y-77963660D01*
X142328080Y-72874660D02*
X142328080Y-77894660D01*
X142368080Y-72945660D02*
X142368080Y-77823660D01*
X142408080Y-73019660D02*
X142408080Y-77749660D01*
X142448080Y-73095660D02*
X142448080Y-77673660D01*
X142488080Y-73175660D02*
X142488080Y-77593660D01*
X142528080Y-73259660D02*
X142528080Y-77509660D01*
X142568080Y-73347660D02*
X142568080Y-77421660D01*
X142608080Y-73440660D02*
X142608080Y-77328660D01*
X142648080Y-73538660D02*
X142648080Y-77230660D01*
X142688080Y-73642660D02*
X142688080Y-77126660D01*
X142728080Y-73754660D02*
X142728080Y-77014660D01*
X142768080Y-73874660D02*
X142768080Y-76894660D01*
X142808080Y-74006660D02*
X142808080Y-76762660D01*
X142848080Y-74154660D02*
X142848080Y-76614660D01*
X142888080Y-74322660D02*
X142888080Y-76446660D01*
X142928080Y-74522660D02*
X142928080Y-76246660D01*
X142968080Y-74785660D02*
X142968080Y-75983660D01*
X132407434Y-72509660D02*
X133407434Y-72509660D01*
X132907434Y-72009660D02*
X132907434Y-73009660D01*
X150244880Y-73568560D02*
G75*
G03X150244880Y-73568560I-3270000J0D01*
G01*
X146974880Y-70338560D02*
X146974880Y-76798560D01*
X147014880Y-70338560D02*
X147014880Y-76798560D01*
X147054880Y-70338560D02*
X147054880Y-76798560D01*
X147094880Y-70340560D02*
X147094880Y-76796560D01*
X147134880Y-70341560D02*
X147134880Y-76795560D01*
X147174880Y-70344560D02*
X147174880Y-76792560D01*
X147214880Y-70346560D02*
X147214880Y-72528560D01*
X147214880Y-74608560D02*
X147214880Y-76790560D01*
X147254880Y-70350560D02*
X147254880Y-72528560D01*
X147254880Y-74608560D02*
X147254880Y-76786560D01*
X147294880Y-70353560D02*
X147294880Y-72528560D01*
X147294880Y-74608560D02*
X147294880Y-76783560D01*
X147334880Y-70357560D02*
X147334880Y-72528560D01*
X147334880Y-74608560D02*
X147334880Y-76779560D01*
X147374880Y-70362560D02*
X147374880Y-72528560D01*
X147374880Y-74608560D02*
X147374880Y-76774560D01*
X147414880Y-70367560D02*
X147414880Y-72528560D01*
X147414880Y-74608560D02*
X147414880Y-76769560D01*
X147454880Y-70373560D02*
X147454880Y-72528560D01*
X147454880Y-74608560D02*
X147454880Y-76763560D01*
X147494880Y-70379560D02*
X147494880Y-72528560D01*
X147494880Y-74608560D02*
X147494880Y-76757560D01*
X147534880Y-70386560D02*
X147534880Y-72528560D01*
X147534880Y-74608560D02*
X147534880Y-76750560D01*
X147574880Y-70393560D02*
X147574880Y-72528560D01*
X147574880Y-74608560D02*
X147574880Y-76743560D01*
X147614880Y-70401560D02*
X147614880Y-72528560D01*
X147614880Y-74608560D02*
X147614880Y-76735560D01*
X147654880Y-70409560D02*
X147654880Y-72528560D01*
X147654880Y-74608560D02*
X147654880Y-76727560D01*
X147695880Y-70418560D02*
X147695880Y-72528560D01*
X147695880Y-74608560D02*
X147695880Y-76718560D01*
X147735880Y-70427560D02*
X147735880Y-72528560D01*
X147735880Y-74608560D02*
X147735880Y-76709560D01*
X147775880Y-70437560D02*
X147775880Y-72528560D01*
X147775880Y-74608560D02*
X147775880Y-76699560D01*
X147815880Y-70447560D02*
X147815880Y-72528560D01*
X147815880Y-74608560D02*
X147815880Y-76689560D01*
X147855880Y-70458560D02*
X147855880Y-72528560D01*
X147855880Y-74608560D02*
X147855880Y-76678560D01*
X147895880Y-70470560D02*
X147895880Y-72528560D01*
X147895880Y-74608560D02*
X147895880Y-76666560D01*
X147935880Y-70482560D02*
X147935880Y-72528560D01*
X147935880Y-74608560D02*
X147935880Y-76654560D01*
X147975880Y-70494560D02*
X147975880Y-72528560D01*
X147975880Y-74608560D02*
X147975880Y-76642560D01*
X148015880Y-70507560D02*
X148015880Y-72528560D01*
X148015880Y-74608560D02*
X148015880Y-76629560D01*
X148055880Y-70521560D02*
X148055880Y-72528560D01*
X148055880Y-74608560D02*
X148055880Y-76615560D01*
X148095880Y-70535560D02*
X148095880Y-72528560D01*
X148095880Y-74608560D02*
X148095880Y-76601560D01*
X148135880Y-70550560D02*
X148135880Y-72528560D01*
X148135880Y-74608560D02*
X148135880Y-76586560D01*
X148175880Y-70566560D02*
X148175880Y-72528560D01*
X148175880Y-74608560D02*
X148175880Y-76570560D01*
X148215880Y-70582560D02*
X148215880Y-72528560D01*
X148215880Y-74608560D02*
X148215880Y-76554560D01*
X148255880Y-70598560D02*
X148255880Y-72528560D01*
X148255880Y-74608560D02*
X148255880Y-76538560D01*
X148295880Y-70616560D02*
X148295880Y-72528560D01*
X148295880Y-74608560D02*
X148295880Y-76520560D01*
X148335880Y-70634560D02*
X148335880Y-72528560D01*
X148335880Y-74608560D02*
X148335880Y-76502560D01*
X148375880Y-70652560D02*
X148375880Y-72528560D01*
X148375880Y-74608560D02*
X148375880Y-76484560D01*
X148415880Y-70672560D02*
X148415880Y-72528560D01*
X148415880Y-74608560D02*
X148415880Y-76464560D01*
X148455880Y-70692560D02*
X148455880Y-72528560D01*
X148455880Y-74608560D02*
X148455880Y-76444560D01*
X148495880Y-70712560D02*
X148495880Y-72528560D01*
X148495880Y-74608560D02*
X148495880Y-76424560D01*
X148535880Y-70734560D02*
X148535880Y-72528560D01*
X148535880Y-74608560D02*
X148535880Y-76402560D01*
X148575880Y-70756560D02*
X148575880Y-72528560D01*
X148575880Y-74608560D02*
X148575880Y-76380560D01*
X148615880Y-70778560D02*
X148615880Y-72528560D01*
X148615880Y-74608560D02*
X148615880Y-76358560D01*
X148655880Y-70802560D02*
X148655880Y-72528560D01*
X148655880Y-74608560D02*
X148655880Y-76334560D01*
X148695880Y-70826560D02*
X148695880Y-72528560D01*
X148695880Y-74608560D02*
X148695880Y-76310560D01*
X148735880Y-70852560D02*
X148735880Y-72528560D01*
X148735880Y-74608560D02*
X148735880Y-76284560D01*
X148775880Y-70878560D02*
X148775880Y-72528560D01*
X148775880Y-74608560D02*
X148775880Y-76258560D01*
X148815880Y-70904560D02*
X148815880Y-72528560D01*
X148815880Y-74608560D02*
X148815880Y-76232560D01*
X148855880Y-70932560D02*
X148855880Y-72528560D01*
X148855880Y-74608560D02*
X148855880Y-76204560D01*
X148895880Y-70961560D02*
X148895880Y-72528560D01*
X148895880Y-74608560D02*
X148895880Y-76175560D01*
X148935880Y-70990560D02*
X148935880Y-72528560D01*
X148935880Y-74608560D02*
X148935880Y-76146560D01*
X148975880Y-71020560D02*
X148975880Y-72528560D01*
X148975880Y-74608560D02*
X148975880Y-76116560D01*
X149015880Y-71052560D02*
X149015880Y-72528560D01*
X149015880Y-74608560D02*
X149015880Y-76084560D01*
X149055880Y-71084560D02*
X149055880Y-72528560D01*
X149055880Y-74608560D02*
X149055880Y-76052560D01*
X149095880Y-71118560D02*
X149095880Y-72528560D01*
X149095880Y-74608560D02*
X149095880Y-76018560D01*
X149135880Y-71152560D02*
X149135880Y-72528560D01*
X149135880Y-74608560D02*
X149135880Y-75984560D01*
X149175880Y-71188560D02*
X149175880Y-72528560D01*
X149175880Y-74608560D02*
X149175880Y-75948560D01*
X149215880Y-71225560D02*
X149215880Y-72528560D01*
X149215880Y-74608560D02*
X149215880Y-75911560D01*
X149255880Y-71263560D02*
X149255880Y-72528560D01*
X149255880Y-74608560D02*
X149255880Y-75873560D01*
X149295880Y-71303560D02*
X149295880Y-75833560D01*
X149335880Y-71344560D02*
X149335880Y-75792560D01*
X149375880Y-71386560D02*
X149375880Y-75750560D01*
X149415880Y-71431560D02*
X149415880Y-75705560D01*
X149455880Y-71476560D02*
X149455880Y-75660560D01*
X149495880Y-71524560D02*
X149495880Y-75612560D01*
X149535880Y-71573560D02*
X149535880Y-75563560D01*
X149575880Y-71624560D02*
X149575880Y-75512560D01*
X149615880Y-71678560D02*
X149615880Y-75458560D01*
X149655880Y-71734560D02*
X149655880Y-75402560D01*
X149695880Y-71792560D02*
X149695880Y-75344560D01*
X149735880Y-71854560D02*
X149735880Y-75282560D01*
X149775880Y-71918560D02*
X149775880Y-75218560D01*
X149815880Y-71987560D02*
X149815880Y-75149560D01*
X149855880Y-72059560D02*
X149855880Y-75077560D01*
X149895880Y-72136560D02*
X149895880Y-75000560D01*
X149935880Y-72218560D02*
X149935880Y-74918560D01*
X149975880Y-72306560D02*
X149975880Y-74830560D01*
X150015880Y-72403560D02*
X150015880Y-74733560D01*
X150055880Y-72509560D02*
X150055880Y-74627560D01*
X150095880Y-72628560D02*
X150095880Y-74508560D01*
X150135880Y-72766560D02*
X150135880Y-74370560D01*
X150175880Y-72935560D02*
X150175880Y-74201560D01*
X150215880Y-73166560D02*
X150215880Y-73970560D01*
X143474639Y-71729560D02*
X144104639Y-71729560D01*
X143789639Y-71414560D02*
X143789639Y-72044560D01*
X137536480Y-90792960D02*
X137536480Y-93732960D01*
X137776480Y-90792960D02*
X137776480Y-93732960D01*
X137656480Y-90792960D02*
X137656480Y-93732960D01*
X143216480Y-92262960D02*
X142196480Y-92262960D01*
X135736480Y-92262960D02*
X136756480Y-92262960D01*
X142196480Y-90792960D02*
X136756480Y-90792960D01*
X142196480Y-93732960D02*
X142196480Y-90792960D01*
X136756480Y-93732960D02*
X142196480Y-93732960D01*
X136756480Y-90792960D02*
X136756480Y-93732960D01*
X136756480Y-95614726D02*
X136756480Y-98554726D01*
X136756480Y-98554726D02*
X142196480Y-98554726D01*
X142196480Y-98554726D02*
X142196480Y-95614726D01*
X142196480Y-95614726D02*
X136756480Y-95614726D01*
X135736480Y-97084726D02*
X136756480Y-97084726D01*
X143216480Y-97084726D02*
X142196480Y-97084726D01*
X137656480Y-95614726D02*
X137656480Y-98554726D01*
X137776480Y-95614726D02*
X137776480Y-98554726D01*
X137536480Y-95614726D02*
X137536480Y-98554726D01*
X137536480Y-100436492D02*
X137536480Y-103376492D01*
X137776480Y-100436492D02*
X137776480Y-103376492D01*
X137656480Y-100436492D02*
X137656480Y-103376492D01*
X143216480Y-101906492D02*
X142196480Y-101906492D01*
X135736480Y-101906492D02*
X136756480Y-101906492D01*
X142196480Y-100436492D02*
X136756480Y-100436492D01*
X142196480Y-103376492D02*
X142196480Y-100436492D01*
X136756480Y-103376492D02*
X142196480Y-103376492D01*
X136756480Y-100436492D02*
X136756480Y-103376492D01*
X136756480Y-105258260D02*
X136756480Y-108198260D01*
X136756480Y-108198260D02*
X142196480Y-108198260D01*
X142196480Y-108198260D02*
X142196480Y-105258260D01*
X142196480Y-105258260D02*
X136756480Y-105258260D01*
X135736480Y-106728260D02*
X136756480Y-106728260D01*
X143216480Y-106728260D02*
X142196480Y-106728260D01*
X137656480Y-105258260D02*
X137656480Y-108198260D01*
X137776480Y-105258260D02*
X137776480Y-108198260D01*
X137536480Y-105258260D02*
X137536480Y-108198260D01*
X149981580Y-103033760D02*
X149981580Y-106123760D01*
X155041580Y-104578760D02*
G75*
G03X155041580Y-104578760I-2500000J0D01*
G01*
X155531580Y-104578298D02*
G75*
G02X149981580Y-106123590I-2990000J-462D01*
G01*
X155531580Y-104579222D02*
G75*
G03X149981580Y-103033930I-2990000J462D01*
G01*
X155531580Y-83487622D02*
G75*
G03X149981580Y-81942330I-2990000J462D01*
G01*
X155531580Y-83486698D02*
G75*
G02X149981580Y-85031990I-2990000J-462D01*
G01*
X155041580Y-83487160D02*
G75*
G03X155041580Y-83487160I-2500000J0D01*
G01*
X149981580Y-81942160D02*
X149981580Y-85032160D01*
X141775780Y-118198960D02*
X132775780Y-118198960D01*
X132775780Y-118198960D02*
X132775780Y-108998960D01*
X132775780Y-108998960D02*
X147375780Y-108998960D01*
X147375780Y-108998960D02*
X147375780Y-111798960D01*
X147375780Y-115398960D02*
X147375780Y-118198960D01*
X147375780Y-118198960D02*
X145375780Y-118198960D01*
X145875780Y-108758960D02*
X147615780Y-108758960D01*
X147615780Y-108758960D02*
X147615780Y-110498960D01*
X156599580Y-73895260D02*
X161799580Y-73895260D01*
X156599580Y-71295260D02*
X156599580Y-73895260D01*
X161799580Y-68695260D02*
X161799580Y-73895260D01*
X156599580Y-71295260D02*
X159199580Y-71295260D01*
X159199580Y-71295260D02*
X159199580Y-68695260D01*
X159199580Y-68695260D02*
X161799580Y-68695260D01*
X156599580Y-70025260D02*
X156599580Y-68695260D01*
X156599580Y-68695260D02*
X157929580Y-68695260D01*
X156599580Y-114478760D02*
X157929580Y-114478760D01*
X156599580Y-115808760D02*
X156599580Y-114478760D01*
X159199580Y-114478760D02*
X161799580Y-114478760D01*
X159199580Y-117078760D02*
X159199580Y-114478760D01*
X156599580Y-117078760D02*
X159199580Y-117078760D01*
X161799580Y-114478760D02*
X161799580Y-119678760D01*
X156599580Y-117078760D02*
X156599580Y-119678760D01*
X156599580Y-119678760D02*
X161799580Y-119678760D01*
X150379760Y-117824000D02*
X150709760Y-117824000D01*
X150379760Y-111284000D02*
X150379760Y-117824000D01*
X150709760Y-111284000D02*
X150379760Y-111284000D01*
X153119760Y-117824000D02*
X152789760Y-117824000D01*
X153119760Y-111284000D02*
X153119760Y-117824000D01*
X152789760Y-111284000D02*
X153119760Y-111284000D01*
X147882280Y-81626960D02*
X147552280Y-81626960D01*
X147882280Y-88166960D02*
X147882280Y-81626960D01*
X147552280Y-88166960D02*
X147882280Y-88166960D01*
X145142280Y-81626960D02*
X145472280Y-81626960D01*
X145142280Y-88166960D02*
X145142280Y-81626960D01*
X145472280Y-88166960D02*
X145142280Y-88166960D01*
D12*
X155339980Y-87612960D02*
X155339980Y-88112960D01*
X155339980Y-87612960D02*
X154839980Y-87612960D01*
X155339980Y-99512960D02*
X155339980Y-99012960D01*
X155339980Y-99512960D02*
X154839980Y-99512960D01*
X151139980Y-99512960D02*
X151139980Y-99012960D01*
X151139980Y-99512960D02*
X151639980Y-99512960D01*
X151139980Y-87612960D02*
X151639980Y-87612960D01*
X151139980Y-87612960D02*
X151139980Y-88112960D01*
D11*
X133086480Y-82973160D02*
X143326480Y-82973160D01*
X133086480Y-87614160D02*
X143326480Y-87614160D01*
X133086480Y-82973160D02*
X133086480Y-87614160D01*
X143326480Y-82973160D02*
X143326480Y-87614160D01*
X133086480Y-84483160D02*
X143326480Y-84483160D01*
X136356480Y-82973160D02*
X136356480Y-84483160D01*
X140057480Y-82973160D02*
X140057480Y-84483160D01*
D13*
X137720413Y-69491802D02*
X137672794Y-69539421D01*
X137529937Y-69587040D01*
X137434699Y-69587040D01*
X137291841Y-69539421D01*
X137196603Y-69444183D01*
X137148984Y-69348945D01*
X137101365Y-69158469D01*
X137101365Y-69015612D01*
X137148984Y-68825136D01*
X137196603Y-68729898D01*
X137291841Y-68634660D01*
X137434699Y-68587040D01*
X137529937Y-68587040D01*
X137672794Y-68634660D01*
X137720413Y-68682279D01*
X138672794Y-69587040D02*
X138101365Y-69587040D01*
X138387080Y-69587040D02*
X138387080Y-68587040D01*
X138291841Y-68729898D01*
X138196603Y-68825136D01*
X138101365Y-68872755D01*
X135791841Y-81420374D02*
X135791841Y-82087040D01*
X135553746Y-81039421D02*
X135315651Y-81753707D01*
X135934699Y-81753707D01*
X136220413Y-81087040D02*
X136887080Y-81087040D01*
X136458508Y-82087040D01*
X137458508Y-81087040D02*
X137553746Y-81087040D01*
X137648984Y-81134660D01*
X137696603Y-81182279D01*
X137744222Y-81277517D01*
X137791841Y-81467993D01*
X137791841Y-81706088D01*
X137744222Y-81896564D01*
X137696603Y-81991802D01*
X137648984Y-82039421D01*
X137553746Y-82087040D01*
X137458508Y-82087040D01*
X137363270Y-82039421D01*
X137315651Y-81991802D01*
X137268032Y-81896564D01*
X137220413Y-81706088D01*
X137220413Y-81467993D01*
X137268032Y-81277517D01*
X137315651Y-81182279D01*
X137363270Y-81134660D01*
X137458508Y-81087040D01*
X138982318Y-81420374D02*
X138982318Y-82420374D01*
X139458508Y-81944183D02*
X139506127Y-82039421D01*
X139601365Y-82087040D01*
X138982318Y-81944183D02*
X139029937Y-82039421D01*
X139125175Y-82087040D01*
X139315651Y-82087040D01*
X139410889Y-82039421D01*
X139458508Y-81944183D01*
X139458508Y-81420374D01*
X140363270Y-81563231D02*
X140029937Y-81563231D01*
X140029937Y-82087040D02*
X140029937Y-81087040D01*
X140506127Y-81087040D01*
X146808213Y-69525702D02*
X146760594Y-69573321D01*
X146617737Y-69620940D01*
X146522499Y-69620940D01*
X146379641Y-69573321D01*
X146284403Y-69478083D01*
X146236784Y-69382845D01*
X146189165Y-69192369D01*
X146189165Y-69049512D01*
X146236784Y-68859036D01*
X146284403Y-68763798D01*
X146379641Y-68668560D01*
X146522499Y-68620940D01*
X146617737Y-68620940D01*
X146760594Y-68668560D01*
X146808213Y-68716179D01*
X147189165Y-68716179D02*
X147236784Y-68668560D01*
X147332022Y-68620940D01*
X147570118Y-68620940D01*
X147665356Y-68668560D01*
X147712975Y-68716179D01*
X147760594Y-68811417D01*
X147760594Y-68906655D01*
X147712975Y-69049512D01*
X147141546Y-69620940D01*
X147760594Y-69620940D01*
X145355832Y-77754274D02*
X145355832Y-78420940D01*
X145117737Y-77373321D02*
X144879641Y-78087607D01*
X145498689Y-78087607D01*
X145784403Y-77420940D02*
X146451070Y-77420940D01*
X146022499Y-78420940D01*
X147593927Y-77754274D02*
X147593927Y-78754274D01*
X148070118Y-78278083D02*
X148117737Y-78373321D01*
X148212975Y-78420940D01*
X147593927Y-78278083D02*
X147641546Y-78373321D01*
X147736784Y-78420940D01*
X147927260Y-78420940D01*
X148022499Y-78373321D01*
X148070118Y-78278083D01*
X148070118Y-77754274D01*
X148974880Y-77897131D02*
X148641546Y-77897131D01*
X148641546Y-78420940D02*
X148641546Y-77420940D01*
X149117737Y-77420940D01*
X138738384Y-90245340D02*
X138738384Y-89245340D01*
X138976480Y-89245340D01*
X139119337Y-89292960D01*
X139214575Y-89388198D01*
X139262194Y-89483436D01*
X139309813Y-89673912D01*
X139309813Y-89816769D01*
X139262194Y-90007245D01*
X139214575Y-90102483D01*
X139119337Y-90197721D01*
X138976480Y-90245340D01*
X138738384Y-90245340D01*
X140262194Y-90245340D02*
X139690765Y-90245340D01*
X139976480Y-90245340D02*
X139976480Y-89245340D01*
X139881241Y-89388198D01*
X139786003Y-89483436D01*
X139690765Y-89531055D01*
X134134575Y-90615340D02*
X134134575Y-89615340D01*
X134706003Y-90615340D02*
X134277432Y-90043912D01*
X134706003Y-89615340D02*
X134134575Y-90186769D01*
X138738384Y-95067106D02*
X138738384Y-94067106D01*
X138976480Y-94067106D01*
X139119337Y-94114726D01*
X139214575Y-94209964D01*
X139262194Y-94305202D01*
X139309813Y-94495678D01*
X139309813Y-94638535D01*
X139262194Y-94829011D01*
X139214575Y-94924249D01*
X139119337Y-95019487D01*
X138976480Y-95067106D01*
X138738384Y-95067106D01*
X139690765Y-94162345D02*
X139738384Y-94114726D01*
X139833622Y-94067106D01*
X140071718Y-94067106D01*
X140166956Y-94114726D01*
X140214575Y-94162345D01*
X140262194Y-94257583D01*
X140262194Y-94352821D01*
X140214575Y-94495678D01*
X139643146Y-95067106D01*
X140262194Y-95067106D01*
X134134575Y-95437106D02*
X134134575Y-94437106D01*
X134706003Y-95437106D02*
X134277432Y-94865678D01*
X134706003Y-94437106D02*
X134134575Y-95008535D01*
X138738384Y-99888872D02*
X138738384Y-98888872D01*
X138976480Y-98888872D01*
X139119337Y-98936492D01*
X139214575Y-99031730D01*
X139262194Y-99126968D01*
X139309813Y-99317444D01*
X139309813Y-99460301D01*
X139262194Y-99650777D01*
X139214575Y-99746015D01*
X139119337Y-99841253D01*
X138976480Y-99888872D01*
X138738384Y-99888872D01*
X139643146Y-98888872D02*
X140262194Y-98888872D01*
X139928860Y-99269825D01*
X140071718Y-99269825D01*
X140166956Y-99317444D01*
X140214575Y-99365063D01*
X140262194Y-99460301D01*
X140262194Y-99698396D01*
X140214575Y-99793634D01*
X140166956Y-99841253D01*
X140071718Y-99888872D01*
X139786003Y-99888872D01*
X139690765Y-99841253D01*
X139643146Y-99793634D01*
X134134575Y-100258872D02*
X134134575Y-99258872D01*
X134706003Y-100258872D02*
X134277432Y-99687444D01*
X134706003Y-99258872D02*
X134134575Y-99830301D01*
X138738384Y-104710640D02*
X138738384Y-103710640D01*
X138976480Y-103710640D01*
X139119337Y-103758260D01*
X139214575Y-103853498D01*
X139262194Y-103948736D01*
X139309813Y-104139212D01*
X139309813Y-104282069D01*
X139262194Y-104472545D01*
X139214575Y-104567783D01*
X139119337Y-104663021D01*
X138976480Y-104710640D01*
X138738384Y-104710640D01*
X140166956Y-104043974D02*
X140166956Y-104710640D01*
X139928860Y-103663021D02*
X139690765Y-104377307D01*
X140309813Y-104377307D01*
X134134575Y-105080640D02*
X134134575Y-104080640D01*
X134706003Y-105080640D02*
X134277432Y-104509212D01*
X134706003Y-104080640D02*
X134134575Y-104652069D01*
X151803484Y-101071140D02*
X151803484Y-100071140D01*
X152041580Y-100071140D01*
X152184437Y-100118760D01*
X152279675Y-100213998D01*
X152327294Y-100309236D01*
X152374913Y-100499712D01*
X152374913Y-100642569D01*
X152327294Y-100833045D01*
X152279675Y-100928283D01*
X152184437Y-101023521D01*
X152041580Y-101071140D01*
X151803484Y-101071140D01*
X153279675Y-100071140D02*
X152803484Y-100071140D01*
X152755865Y-100547331D01*
X152803484Y-100499712D01*
X152898722Y-100452093D01*
X153136818Y-100452093D01*
X153232056Y-100499712D01*
X153279675Y-100547331D01*
X153327294Y-100642569D01*
X153327294Y-100880664D01*
X153279675Y-100975902D01*
X153232056Y-101023521D01*
X153136818Y-101071140D01*
X152898722Y-101071140D01*
X152803484Y-101023521D01*
X152755865Y-100975902D01*
X151803484Y-79979540D02*
X151803484Y-78979540D01*
X152041580Y-78979540D01*
X152184437Y-79027160D01*
X152279675Y-79122398D01*
X152327294Y-79217636D01*
X152374913Y-79408112D01*
X152374913Y-79550969D01*
X152327294Y-79741445D01*
X152279675Y-79836683D01*
X152184437Y-79931921D01*
X152041580Y-79979540D01*
X151803484Y-79979540D01*
X153232056Y-78979540D02*
X153041580Y-78979540D01*
X152946341Y-79027160D01*
X152898722Y-79074779D01*
X152803484Y-79217636D01*
X152755865Y-79408112D01*
X152755865Y-79789064D01*
X152803484Y-79884302D01*
X152851103Y-79931921D01*
X152946341Y-79979540D01*
X153136818Y-79979540D01*
X153232056Y-79931921D01*
X153279675Y-79884302D01*
X153327294Y-79789064D01*
X153327294Y-79550969D01*
X153279675Y-79455731D01*
X153232056Y-79408112D01*
X153136818Y-79360493D01*
X152946341Y-79360493D01*
X152851103Y-79408112D01*
X152803484Y-79455731D01*
X152755865Y-79550969D01*
X137792446Y-118801340D02*
X137792446Y-119515626D01*
X137744827Y-119658483D01*
X137649589Y-119753721D01*
X137506732Y-119801340D01*
X137411494Y-119801340D01*
X138792446Y-119801340D02*
X138221018Y-119801340D01*
X138506732Y-119801340D02*
X138506732Y-118801340D01*
X138411494Y-118944198D01*
X138316256Y-119039436D01*
X138221018Y-119087055D01*
X155272146Y-70709540D02*
X155272146Y-71423826D01*
X155224527Y-71566683D01*
X155129289Y-71661921D01*
X154986432Y-71709540D01*
X154891194Y-71709540D01*
X155700718Y-70804779D02*
X155748337Y-70757160D01*
X155843575Y-70709540D01*
X156081670Y-70709540D01*
X156176908Y-70757160D01*
X156224527Y-70804779D01*
X156272146Y-70900017D01*
X156272146Y-70995255D01*
X156224527Y-71138112D01*
X155653099Y-71709540D01*
X156272146Y-71709540D01*
X155150226Y-116424460D02*
X155150226Y-117138746D01*
X155102607Y-117281603D01*
X155007369Y-117376841D01*
X154864512Y-117424460D01*
X154769274Y-117424460D01*
X155531179Y-116424460D02*
X156150226Y-116424460D01*
X155816893Y-116805413D01*
X155959750Y-116805413D01*
X156054988Y-116853032D01*
X156102607Y-116900651D01*
X156150226Y-116995889D01*
X156150226Y-117233984D01*
X156102607Y-117329222D01*
X156054988Y-117376841D01*
X155959750Y-117424460D01*
X155674036Y-117424460D01*
X155578798Y-117376841D01*
X155531179Y-117329222D01*
X149855180Y-116846646D02*
X149378990Y-117179980D01*
X149855180Y-117418075D02*
X148855180Y-117418075D01*
X148855180Y-117037122D01*
X148902800Y-116941884D01*
X148950419Y-116894265D01*
X149045657Y-116846646D01*
X149188514Y-116846646D01*
X149283752Y-116894265D01*
X149331371Y-116941884D01*
X149378990Y-117037122D01*
X149378990Y-117418075D01*
X149855180Y-115894265D02*
X149855180Y-116465694D01*
X149855180Y-116179980D02*
X148855180Y-116179980D01*
X148998038Y-116275218D01*
X149093276Y-116370456D01*
X149140895Y-116465694D01*
X148855180Y-114592574D02*
X148855180Y-115068764D01*
X149331371Y-115116383D01*
X149283752Y-115068764D01*
X149236133Y-114973526D01*
X149236133Y-114735431D01*
X149283752Y-114640193D01*
X149331371Y-114592574D01*
X149426609Y-114544955D01*
X149664704Y-114544955D01*
X149759942Y-114592574D01*
X149807561Y-114640193D01*
X149855180Y-114735431D01*
X149855180Y-114973526D01*
X149807561Y-115068764D01*
X149759942Y-115116383D01*
X148855180Y-113687812D02*
X148855180Y-113878288D01*
X148902800Y-113973526D01*
X148950419Y-114021145D01*
X149093276Y-114116383D01*
X149283752Y-114164002D01*
X149664704Y-114164002D01*
X149759942Y-114116383D01*
X149807561Y-114068764D01*
X149855180Y-113973526D01*
X149855180Y-113783050D01*
X149807561Y-113687812D01*
X149759942Y-113640193D01*
X149664704Y-113592574D01*
X149426609Y-113592574D01*
X149331371Y-113640193D01*
X149283752Y-113687812D01*
X149236133Y-113783050D01*
X149236133Y-113973526D01*
X149283752Y-114068764D01*
X149331371Y-114116383D01*
X149426609Y-114164002D01*
X148855180Y-112973526D02*
X148855180Y-112878288D01*
X148902800Y-112783050D01*
X148950419Y-112735431D01*
X149045657Y-112687812D01*
X149236133Y-112640193D01*
X149474228Y-112640193D01*
X149664704Y-112687812D01*
X149759942Y-112735431D01*
X149807561Y-112783050D01*
X149855180Y-112878288D01*
X149855180Y-112973526D01*
X149807561Y-113068764D01*
X149759942Y-113116383D01*
X149664704Y-113164002D01*
X149474228Y-113211621D01*
X149236133Y-113211621D01*
X149045657Y-113164002D01*
X148950419Y-113116383D01*
X148902800Y-113068764D01*
X148855180Y-112973526D01*
X149855180Y-112259240D02*
X149855180Y-112021145D01*
X149664704Y-112021145D01*
X149617085Y-112116383D01*
X149521847Y-112211621D01*
X149378990Y-112259240D01*
X149140895Y-112259240D01*
X148998038Y-112211621D01*
X148902800Y-112116383D01*
X148855180Y-111973526D01*
X148855180Y-111783050D01*
X148902800Y-111640193D01*
X148998038Y-111544955D01*
X149140895Y-111497336D01*
X149378990Y-111497336D01*
X149521847Y-111544955D01*
X149617085Y-111640193D01*
X149664704Y-111735431D01*
X149855180Y-111735431D01*
X149855180Y-111497336D01*
X144767560Y-85050926D02*
X144291370Y-85384260D01*
X144767560Y-85622355D02*
X143767560Y-85622355D01*
X143767560Y-85241402D01*
X143815180Y-85146164D01*
X143862799Y-85098545D01*
X143958037Y-85050926D01*
X144100894Y-85050926D01*
X144196132Y-85098545D01*
X144243751Y-85146164D01*
X144291370Y-85241402D01*
X144291370Y-85622355D01*
X143862799Y-84669974D02*
X143815180Y-84622355D01*
X143767560Y-84527117D01*
X143767560Y-84289021D01*
X143815180Y-84193783D01*
X143862799Y-84146164D01*
X143958037Y-84098545D01*
X144053275Y-84098545D01*
X144196132Y-84146164D01*
X144767560Y-84717593D01*
X144767560Y-84098545D01*
X148250660Y-86703302D02*
X148250660Y-86084255D01*
X148631613Y-86417588D01*
X148631613Y-86274731D01*
X148679232Y-86179493D01*
X148726851Y-86131874D01*
X148822089Y-86084255D01*
X149060184Y-86084255D01*
X149155422Y-86131874D01*
X149203041Y-86179493D01*
X149250660Y-86274731D01*
X149250660Y-86560445D01*
X149203041Y-86655683D01*
X149155422Y-86703302D01*
X148250660Y-85750921D02*
X148250660Y-85131874D01*
X148631613Y-85465207D01*
X148631613Y-85322350D01*
X148679232Y-85227112D01*
X148726851Y-85179493D01*
X148822089Y-85131874D01*
X149060184Y-85131874D01*
X149155422Y-85179493D01*
X149203041Y-85227112D01*
X149250660Y-85322350D01*
X149250660Y-85608064D01*
X149203041Y-85703302D01*
X149155422Y-85750921D01*
X148250660Y-84512826D02*
X148250660Y-84417588D01*
X148298280Y-84322350D01*
X148345899Y-84274731D01*
X148441137Y-84227112D01*
X148631613Y-84179493D01*
X148869708Y-84179493D01*
X149060184Y-84227112D01*
X149155422Y-84274731D01*
X149203041Y-84322350D01*
X149250660Y-84417588D01*
X149250660Y-84512826D01*
X149203041Y-84608064D01*
X149155422Y-84655683D01*
X149060184Y-84703302D01*
X148869708Y-84750921D01*
X148631613Y-84750921D01*
X148441137Y-84703302D01*
X148345899Y-84655683D01*
X148298280Y-84608064D01*
X148250660Y-84512826D01*
X149250660Y-83798540D02*
X149250660Y-83560445D01*
X149060184Y-83560445D01*
X149012565Y-83655683D01*
X148917327Y-83750921D01*
X148774470Y-83798540D01*
X148536375Y-83798540D01*
X148393518Y-83750921D01*
X148298280Y-83655683D01*
X148250660Y-83512826D01*
X148250660Y-83322350D01*
X148298280Y-83179493D01*
X148393518Y-83084255D01*
X148536375Y-83036636D01*
X148774470Y-83036636D01*
X148917327Y-83084255D01*
X149012565Y-83179493D01*
X149060184Y-83274731D01*
X149250660Y-83274731D01*
X149250660Y-83036636D01*
X150624741Y-94756293D02*
X150672360Y-94613436D01*
X150672360Y-94375340D01*
X150624741Y-94280102D01*
X150577122Y-94232483D01*
X150481884Y-94184864D01*
X150386646Y-94184864D01*
X150291408Y-94232483D01*
X150243789Y-94280102D01*
X150196170Y-94375340D01*
X150148551Y-94565817D01*
X150100932Y-94661055D01*
X150053313Y-94708674D01*
X149958075Y-94756293D01*
X149862837Y-94756293D01*
X149767599Y-94708674D01*
X149719980Y-94661055D01*
X149672360Y-94565817D01*
X149672360Y-94327721D01*
X149719980Y-94184864D01*
X149672360Y-93851531D02*
X150672360Y-93613436D01*
X149958075Y-93422960D01*
X150672360Y-93232483D01*
X149672360Y-92994388D01*
X150672360Y-92089626D02*
X150672360Y-92661055D01*
X150672360Y-92375340D02*
X149672360Y-92375340D01*
X149815218Y-92470579D01*
X149910456Y-92565817D01*
X149958075Y-92661055D01*
X133215475Y-81555340D02*
X133215475Y-82364864D01*
X133263094Y-82460102D01*
X133310713Y-82507721D01*
X133405951Y-82555340D01*
X133596427Y-82555340D01*
X133691665Y-82507721D01*
X133739284Y-82460102D01*
X133786903Y-82364864D01*
X133786903Y-81555340D01*
X134786903Y-82555340D02*
X134215475Y-82555340D01*
X134501189Y-82555340D02*
X134501189Y-81555340D01*
X134405951Y-81698198D01*
X134310713Y-81793436D01*
X134215475Y-81841055D01*
M02*
