G04 #@! TF.GenerationSoftware,KiCad,Pcbnew,(5.1.5)-3*
G04 #@! TF.CreationDate,2020-07-04T17:37:37-04:00*
G04 #@! TF.ProjectId,Power Supply,506f7765-7220-4537-9570-706c792e6b69,rev?*
G04 #@! TF.SameCoordinates,Original*
G04 #@! TF.FileFunction,Copper,L1,Top*
G04 #@! TF.FilePolarity,Positive*
%FSLAX46Y46*%
G04 Gerber Fmt 4.6, Leading zero omitted, Abs format (unit mm)*
G04 Created by KiCad (PCBNEW (5.1.5)-3) date 2020-07-04 17:37:37*
%MOMM*%
%LPD*%
G04 APERTURE LIST*
%ADD10R,2.000000X2.000000*%
%ADD11C,2.000000*%
%ADD12R,1.600000X1.600000*%
%ADD13C,1.600000*%
%ADD14O,2.200000X2.200000*%
%ADD15R,2.200000X2.200000*%
%ADD16C,1.800000*%
%ADD17R,1.800000X1.800000*%
%ADD18R,2.600000X2.600000*%
%ADD19C,2.600000*%
%ADD20R,1.700000X1.700000*%
%ADD21O,1.700000X1.700000*%
%ADD22O,1.600000X1.600000*%
%ADD23R,1.900000X1.900000*%
%ADD24C,1.900000*%
%ADD25R,1.905000X2.000000*%
%ADD26O,1.905000X2.000000*%
%ADD27C,0.300000*%
%ADD28C,0.250000*%
G04 APERTURE END LIST*
D10*
X135387080Y-75384660D03*
D11*
X140387080Y-75384660D03*
D12*
X145724880Y-73568560D03*
D13*
X148224880Y-73568560D03*
D14*
X144556480Y-92262960D03*
D15*
X134396480Y-92262960D03*
X134396480Y-97084726D03*
D14*
X144556480Y-97084726D03*
X144556480Y-101906492D03*
D15*
X134396480Y-101906492D03*
X134396480Y-106728260D03*
D14*
X144556480Y-106728260D03*
D16*
X153811580Y-104578760D03*
D17*
X151271580Y-104578760D03*
X151271580Y-83487160D03*
D16*
X153811580Y-83487160D03*
D18*
X146575780Y-113598960D03*
D19*
X140575780Y-113598960D03*
X143575780Y-118298960D03*
D20*
X157929580Y-70025260D03*
D21*
X160469580Y-70025260D03*
X157929580Y-72565260D03*
X160469580Y-72565260D03*
X160469580Y-118348760D03*
X157929580Y-118348760D03*
X160469580Y-115808760D03*
D20*
X157929580Y-115808760D03*
D22*
X151749760Y-118364000D03*
D13*
X151749760Y-110744000D03*
D22*
X146512280Y-81086960D03*
D13*
X146512280Y-88706960D03*
D23*
X153239980Y-95912960D03*
D24*
X153239980Y-93412960D03*
X153239980Y-90912960D03*
D25*
X135666480Y-86243160D03*
D26*
X138206480Y-86243160D03*
X140746480Y-86243160D03*
D27*
X135387080Y-85963760D02*
X135666480Y-86243160D01*
X135387080Y-75384660D02*
X135387080Y-85963760D01*
X135440880Y-92262960D02*
X134040880Y-92262960D01*
X135666480Y-92037360D02*
X135440880Y-92262960D01*
X135666480Y-86243160D02*
X135666480Y-92037360D01*
X132846479Y-92412961D02*
X132996480Y-92262960D01*
X132846479Y-98956491D02*
X132846479Y-92412961D01*
X134396480Y-100506492D02*
X132846479Y-98956491D01*
X132996480Y-92262960D02*
X134396480Y-92262960D01*
X134396480Y-101906492D02*
X134396480Y-100506492D01*
X149921579Y-94165759D02*
X149921579Y-95387859D01*
X141998980Y-86243160D02*
X149921579Y-94165759D01*
X140746480Y-86243160D02*
X141998980Y-86243160D01*
X140746480Y-84943160D02*
X140746480Y-86243160D01*
X145724880Y-74668560D02*
X140746480Y-79646960D01*
X140746480Y-79646960D02*
X140746480Y-84943160D01*
X145724880Y-73568560D02*
X145724880Y-74668560D01*
X149921579Y-108915819D02*
X149921579Y-95387859D01*
X151749760Y-110744000D02*
X149921579Y-108915819D01*
X150118779Y-94362959D02*
X149921579Y-94165759D01*
X152289981Y-94362959D02*
X150118779Y-94362959D01*
X153239980Y-93412960D02*
X152289981Y-94362959D01*
D28*
X139379114Y-97084726D02*
X144200880Y-92262960D01*
X134040880Y-97084726D02*
X139379114Y-97084726D01*
D27*
X139379114Y-108002294D02*
X139379114Y-97084726D01*
X144975780Y-113598960D02*
X139379114Y-108002294D01*
X146575780Y-113598960D02*
X144975780Y-113598960D01*
X153811580Y-116302180D02*
X153811580Y-104578760D01*
X151749760Y-118364000D02*
X153811580Y-116302180D01*
D28*
X151411380Y-81086960D02*
X146512280Y-81086960D01*
X153811580Y-83487160D02*
X151411380Y-81086960D01*
D27*
X160469580Y-115808760D02*
X157929580Y-115808760D01*
X154489980Y-95912960D02*
X153239980Y-95912960D01*
X155161581Y-96584561D02*
X154489980Y-95912960D01*
X155161581Y-114190761D02*
X155161581Y-96584561D01*
X156779580Y-115808760D02*
X155161581Y-114190761D01*
X157929580Y-115808760D02*
X156779580Y-115808760D01*
X147643650Y-88706960D02*
X146512280Y-88706960D01*
X153105982Y-88706960D02*
X147643650Y-88706960D01*
X154639981Y-90240959D02*
X153105982Y-88706960D01*
X154639981Y-94084961D02*
X154639981Y-90240959D01*
X152811982Y-95912960D02*
X154639981Y-94084961D01*
X153239980Y-95912960D02*
X152811982Y-95912960D01*
X160469580Y-70025260D02*
X157929580Y-70025260D01*
X155161581Y-86651361D02*
X153105982Y-88706960D01*
X155161581Y-71643259D02*
X155161581Y-86651361D01*
X156779580Y-70025260D02*
X155161581Y-71643259D01*
X157929580Y-70025260D02*
X156779580Y-70025260D01*
M02*
