G04 #@! TF.GenerationSoftware,KiCad,Pcbnew,(5.1.5)-3*
G04 #@! TF.CreationDate,2020-07-04T17:37:37-04:00*
G04 #@! TF.ProjectId,Power Supply,506f7765-7220-4537-9570-706c792e6b69,rev?*
G04 #@! TF.SameCoordinates,Original*
G04 #@! TF.FileFunction,Legend,Bot*
G04 #@! TF.FilePolarity,Positive*
%FSLAX46Y46*%
G04 Gerber Fmt 4.6, Leading zero omitted, Abs format (unit mm)*
G04 Created by KiCad (PCBNEW (5.1.5)-3) date 2020-07-04 17:37:37*
%MOMM*%
%LPD*%
G04 APERTURE LIST*
%ADD10C,0.150000*%
%ADD11C,0.120000*%
G04 APERTURE END LIST*
D10*
X171955558Y-90580050D02*
X171955465Y-90103860D01*
X171479265Y-90056333D01*
X171526894Y-90103943D01*
X171574531Y-90199172D01*
X171574578Y-90437267D01*
X171526977Y-90532515D01*
X171479368Y-90580143D01*
X171384139Y-90627781D01*
X171146044Y-90627827D01*
X171050796Y-90580227D01*
X171003168Y-90532617D01*
X170955530Y-90437388D01*
X170955484Y-90199293D01*
X171003084Y-90104045D01*
X171050694Y-90056417D01*
X171860404Y-91008640D02*
X171908032Y-91056250D01*
X171955670Y-91151479D01*
X171955716Y-91389574D01*
X171908116Y-91484821D01*
X171860506Y-91532450D01*
X171765277Y-91580087D01*
X171670039Y-91580106D01*
X171527173Y-91532515D01*
X170955633Y-90961198D01*
X170955753Y-91580245D01*
X171051075Y-92008798D02*
X171003465Y-92056426D01*
X170955837Y-92008817D01*
X171003447Y-91961188D01*
X171051075Y-92008798D01*
X170955837Y-92008817D01*
X171955967Y-92675288D02*
X171955986Y-92770526D01*
X171908385Y-92865774D01*
X171860775Y-92913402D01*
X171765547Y-92961040D01*
X171575080Y-93008696D01*
X171336985Y-93008742D01*
X171146499Y-92961160D01*
X171051252Y-92913560D01*
X171003623Y-92865950D01*
X170955986Y-92770721D01*
X170955967Y-92675483D01*
X171003568Y-92580236D01*
X171051177Y-92532608D01*
X171146406Y-92484970D01*
X171336873Y-92437314D01*
X171574968Y-92437267D01*
X171765454Y-92484849D01*
X171860701Y-92532450D01*
X171908329Y-92580059D01*
X171955967Y-92675288D01*
X171956209Y-93913383D02*
X171956116Y-93437193D01*
X171479916Y-93389667D01*
X171527544Y-93437277D01*
X171575182Y-93532505D01*
X171575229Y-93770601D01*
X171527628Y-93865848D01*
X171480018Y-93913476D01*
X171384790Y-93961114D01*
X171146694Y-93961160D01*
X171051447Y-93913560D01*
X171003819Y-93865950D01*
X170956181Y-93770721D01*
X170956134Y-93532626D01*
X171003735Y-93437379D01*
X171051345Y-93389750D01*
X171956395Y-94865764D02*
X171956302Y-94389574D01*
X171480102Y-94342048D01*
X171527730Y-94389657D01*
X171575368Y-94484886D01*
X171575414Y-94722981D01*
X171527814Y-94818229D01*
X171480204Y-94865857D01*
X171384975Y-94913495D01*
X171146880Y-94913541D01*
X171051633Y-94865941D01*
X171004004Y-94818331D01*
X170956367Y-94723102D01*
X170956320Y-94485007D01*
X171003921Y-94389760D01*
X171051531Y-94342131D01*
X170956636Y-96104055D02*
X171623303Y-96103925D01*
X171528065Y-96103943D02*
X171575693Y-96151553D01*
X171623331Y-96246782D01*
X171623359Y-96389639D01*
X171575758Y-96484886D01*
X171480529Y-96532524D01*
X170956720Y-96532626D01*
X171480529Y-96532524D02*
X171575777Y-96580124D01*
X171623415Y-96675353D01*
X171623442Y-96818210D01*
X171575842Y-96913458D01*
X171480613Y-96961095D01*
X170956804Y-96961198D01*
X170956897Y-97437388D02*
X171623563Y-97437258D01*
X171528325Y-97437276D02*
X171575953Y-97484886D01*
X171623591Y-97580115D01*
X171623619Y-97722972D01*
X171576019Y-97818220D01*
X171480790Y-97865857D01*
X170956980Y-97865959D01*
X171480790Y-97865857D02*
X171576037Y-97913458D01*
X171623675Y-98008686D01*
X171623703Y-98151544D01*
X171576102Y-98246791D01*
X171480873Y-98294429D01*
X170957064Y-98294531D01*
D11*
X170143726Y-120226833D02*
X170133566Y-68172073D01*
X162321240Y-120228360D02*
X170730147Y-120226719D01*
X162311080Y-68173600D02*
X170719987Y-68171959D01*
X170133566Y-68172073D02*
X170720207Y-69298462D01*
X170133566Y-68172073D02*
X169547365Y-69298691D01*
X170143726Y-120226833D02*
X170729927Y-119100215D01*
X170143726Y-120226833D02*
X169557085Y-119100444D01*
D10*
X143097191Y-124300230D02*
X143716239Y-124300125D01*
X143382970Y-124681134D01*
X143525827Y-124681110D01*
X143621073Y-124728713D01*
X143668700Y-124776324D01*
X143716335Y-124871554D01*
X143716375Y-125109649D01*
X143668772Y-125204895D01*
X143621161Y-125252522D01*
X143525931Y-125300157D01*
X143240217Y-125300206D01*
X143144971Y-125252603D01*
X143097344Y-125204992D01*
X144335286Y-124300021D02*
X144430524Y-124300005D01*
X144525770Y-124347608D01*
X144573397Y-124395219D01*
X144621033Y-124490449D01*
X144668684Y-124680917D01*
X144668724Y-124919012D01*
X144621137Y-125109496D01*
X144573534Y-125204742D01*
X144525923Y-125252370D01*
X144430693Y-125300005D01*
X144335455Y-125300021D01*
X144240209Y-125252418D01*
X144192582Y-125204807D01*
X144144947Y-125109577D01*
X144097295Y-124919109D01*
X144097255Y-124681013D01*
X144144842Y-124490529D01*
X144192445Y-124395283D01*
X144240056Y-124347656D01*
X144335286Y-124300021D01*
X145097344Y-125204654D02*
X145144971Y-125252265D01*
X145097360Y-125299892D01*
X145049733Y-125252281D01*
X145097344Y-125204654D01*
X145097360Y-125299892D01*
X145763858Y-124299780D02*
X145859096Y-124299764D01*
X145954342Y-124347367D01*
X146001969Y-124394978D01*
X146049604Y-124490208D01*
X146097255Y-124680676D01*
X146097295Y-124918771D01*
X146049708Y-125109255D01*
X146002106Y-125204501D01*
X145954494Y-125252128D01*
X145859264Y-125299764D01*
X145764026Y-125299780D01*
X145668780Y-125252177D01*
X145621153Y-125204566D01*
X145573518Y-125109336D01*
X145525867Y-124918867D01*
X145525827Y-124680772D01*
X145573414Y-124490288D01*
X145621017Y-124395042D01*
X145668628Y-124347415D01*
X145763858Y-124299780D01*
X146573550Y-125299643D02*
X146764026Y-125299611D01*
X146859256Y-125251976D01*
X146906867Y-125204349D01*
X147002081Y-125061475D01*
X147049668Y-124870991D01*
X147049604Y-124490039D01*
X147001969Y-124394809D01*
X146954342Y-124347198D01*
X146859096Y-124299595D01*
X146668619Y-124299627D01*
X146573389Y-124347262D01*
X146525778Y-124394889D01*
X146478175Y-124490135D01*
X146478216Y-124728231D01*
X146525851Y-124823461D01*
X146573478Y-124871072D01*
X146668724Y-124918675D01*
X146859200Y-124918642D01*
X146954430Y-124871007D01*
X147002041Y-124823380D01*
X147049644Y-124728134D01*
X147525931Y-125299482D02*
X147716407Y-125299450D01*
X147811637Y-125251815D01*
X147859248Y-125204188D01*
X147954462Y-125061315D01*
X148002049Y-124870830D01*
X148001985Y-124489878D01*
X147954350Y-124394648D01*
X147906723Y-124347037D01*
X147811477Y-124299434D01*
X147621000Y-124299466D01*
X147525770Y-124347101D01*
X147478159Y-124394728D01*
X147430556Y-124489975D01*
X147430597Y-124728070D01*
X147478232Y-124823300D01*
X147525859Y-124870911D01*
X147621105Y-124918514D01*
X147811581Y-124918482D01*
X147906811Y-124870847D01*
X147954422Y-124823219D01*
X148002025Y-124727973D01*
X149192598Y-125299201D02*
X149192485Y-124632534D01*
X149192501Y-124727772D02*
X149240112Y-124680145D01*
X149335342Y-124632510D01*
X149478199Y-124632486D01*
X149573446Y-124680089D01*
X149621081Y-124775319D01*
X149621169Y-125299129D01*
X149621081Y-124775319D02*
X149668684Y-124680073D01*
X149763914Y-124632438D01*
X149906771Y-124632414D01*
X150002017Y-124680017D01*
X150049652Y-124775247D01*
X150049741Y-125299056D01*
X150525931Y-125298976D02*
X150525819Y-124632309D01*
X150525835Y-124727547D02*
X150573446Y-124679920D01*
X150668676Y-124632285D01*
X150811533Y-124632261D01*
X150906779Y-124679864D01*
X150954414Y-124775094D01*
X150954502Y-125298904D01*
X150954414Y-124775094D02*
X151002017Y-124679848D01*
X151097247Y-124632213D01*
X151240104Y-124632189D01*
X151335350Y-124679792D01*
X151382985Y-124775022D01*
X151383074Y-125298831D01*
D11*
X132238046Y-123579682D02*
X162337046Y-123574602D01*
X132237480Y-120228360D02*
X132238145Y-124166103D01*
X162336480Y-120223280D02*
X162337145Y-124161023D01*
X162337046Y-123574602D02*
X161210641Y-124161213D01*
X162337046Y-123574602D02*
X161210443Y-122988371D01*
X132238046Y-123579682D02*
X133364649Y-124165913D01*
X132238046Y-123579682D02*
X133364451Y-122993071D01*
D10*
X165714024Y-68096474D02*
X165713559Y-67905999D01*
X165665708Y-67810877D01*
X165617973Y-67763374D01*
X165474885Y-67668484D01*
X165284293Y-67621330D01*
X164903342Y-67622258D01*
X164808220Y-67670109D01*
X164760717Y-67717844D01*
X164713330Y-67813198D01*
X164713794Y-68003673D01*
X164761645Y-68098795D01*
X164809380Y-68146298D01*
X164904734Y-68193685D01*
X165142829Y-68193105D01*
X165237951Y-68145254D01*
X165285453Y-68097519D01*
X165332840Y-68002165D01*
X165332376Y-67811689D01*
X165284525Y-67716567D01*
X165236790Y-67669065D01*
X165141436Y-67621678D01*
X164810541Y-68622487D02*
X164763038Y-68670222D01*
X164715303Y-68622719D01*
X164762806Y-68574984D01*
X164810541Y-68622487D01*
X164715303Y-68622719D01*
X165621107Y-69049084D02*
X165668842Y-69096587D01*
X165716693Y-69191709D01*
X165717273Y-69429804D01*
X165669886Y-69525157D01*
X165622383Y-69572892D01*
X165527262Y-69620743D01*
X165432024Y-69620976D01*
X165289051Y-69573705D01*
X164716232Y-69003670D01*
X164717740Y-69622716D01*
X165719942Y-70525038D02*
X165718782Y-70048849D01*
X165242477Y-70002391D01*
X165290211Y-70049894D01*
X165338062Y-70145016D01*
X165338643Y-70383110D01*
X165291256Y-70478464D01*
X165243753Y-70526199D01*
X165148631Y-70574050D01*
X164910537Y-70574630D01*
X164815183Y-70527243D01*
X164767448Y-70479741D01*
X164719597Y-70384619D01*
X164719017Y-70146524D01*
X164766404Y-70051170D01*
X164813906Y-70003435D01*
X165720871Y-70905990D02*
X165722379Y-71525035D01*
X165340616Y-71192632D01*
X165340964Y-71335488D01*
X165293577Y-71430842D01*
X165246074Y-71478577D01*
X165150952Y-71526428D01*
X164912858Y-71527008D01*
X164817504Y-71479621D01*
X164769769Y-71432119D01*
X164721918Y-71336997D01*
X164721222Y-71051283D01*
X164768608Y-70955930D01*
X164816111Y-70908195D01*
X164725283Y-72717945D02*
X165391948Y-72716320D01*
X165296710Y-72716553D02*
X165344445Y-72764055D01*
X165392296Y-72859177D01*
X165392644Y-73002034D01*
X165345258Y-73097388D01*
X165250136Y-73145239D01*
X164726328Y-73146515D01*
X165250136Y-73145239D02*
X165345490Y-73192626D01*
X165393341Y-73287747D01*
X165393689Y-73430604D01*
X165346302Y-73525958D01*
X165251180Y-73573809D01*
X164727372Y-73575085D01*
X164728533Y-74051275D02*
X165395197Y-74049650D01*
X165299960Y-74049882D02*
X165347695Y-74097385D01*
X165395546Y-74192507D01*
X165395894Y-74335363D01*
X165348507Y-74430717D01*
X165253385Y-74478568D01*
X164729577Y-74479845D01*
X165253385Y-74478568D02*
X165348739Y-74525955D01*
X165396590Y-74621077D01*
X165396938Y-74763933D01*
X165349551Y-74859287D01*
X165254430Y-74907138D01*
X164730622Y-74908415D01*
D11*
X163911806Y-74418111D02*
X163896566Y-68164631D01*
X162316160Y-74422000D02*
X164498225Y-74416682D01*
X162300920Y-68168520D02*
X164482985Y-68163202D01*
X163896566Y-68164631D02*
X164485730Y-69289702D01*
X163896566Y-68164631D02*
X163312892Y-69292561D01*
X163911806Y-74418111D02*
X164495480Y-73290181D01*
X163911806Y-74418111D02*
X163322642Y-73293040D01*
D10*
X167871076Y-89988044D02*
X167871314Y-90607092D01*
X167490233Y-90273906D01*
X167490289Y-90416763D01*
X167442706Y-90512019D01*
X167395106Y-90559657D01*
X167299886Y-90607312D01*
X167061791Y-90607404D01*
X166966534Y-90559822D01*
X166918897Y-90512221D01*
X166871241Y-90417002D01*
X166871131Y-90131287D01*
X166918713Y-90036031D01*
X166966314Y-89988393D01*
X166871498Y-91083668D02*
X166871572Y-91274144D01*
X166919228Y-91369364D01*
X166966865Y-91416965D01*
X167109759Y-91512148D01*
X167300253Y-91559693D01*
X167681206Y-91559546D01*
X167776425Y-91511890D01*
X167824026Y-91464253D01*
X167871608Y-91368997D01*
X167871535Y-91178520D01*
X167823879Y-91083301D01*
X167776242Y-91035700D01*
X167680985Y-90988118D01*
X167442890Y-90988210D01*
X167347670Y-91035865D01*
X167300070Y-91083503D01*
X167252487Y-91178759D01*
X167252561Y-91369235D01*
X167300217Y-91464455D01*
X167347854Y-91512056D01*
X167443111Y-91559638D01*
X166967085Y-91988393D02*
X166919485Y-92036031D01*
X166871847Y-91988430D01*
X166919448Y-91940793D01*
X166967085Y-91988393D01*
X166871847Y-91988430D01*
X167538863Y-92892935D02*
X166872196Y-92893192D01*
X167919724Y-92654692D02*
X167205346Y-92416873D01*
X167205585Y-93035920D01*
X166872417Y-93464620D02*
X166872490Y-93655097D01*
X166920146Y-93750316D01*
X166967784Y-93797917D01*
X167110678Y-93893100D01*
X167301172Y-93940645D01*
X167682124Y-93940498D01*
X167777344Y-93892843D01*
X167824945Y-93845205D01*
X167872527Y-93749949D01*
X167872454Y-93559473D01*
X167824798Y-93464253D01*
X167777160Y-93416652D01*
X167681904Y-93369070D01*
X167443809Y-93369162D01*
X167348589Y-93416818D01*
X167300988Y-93464455D01*
X167253406Y-93559711D01*
X167253480Y-93750188D01*
X167301135Y-93845407D01*
X167348773Y-93893008D01*
X167444029Y-93940590D01*
X167872729Y-94273758D02*
X167872986Y-94940425D01*
X166872821Y-94512239D01*
X166873428Y-96083668D02*
X167540094Y-96083411D01*
X167444856Y-96083447D02*
X167492493Y-96131048D01*
X167540149Y-96226268D01*
X167540204Y-96369125D01*
X167492622Y-96464381D01*
X167397402Y-96512037D01*
X166873593Y-96512239D01*
X167397402Y-96512037D02*
X167492659Y-96559619D01*
X167540315Y-96654839D01*
X167540370Y-96797696D01*
X167492787Y-96892953D01*
X167397568Y-96940608D01*
X166873758Y-96940811D01*
X166873942Y-97417001D02*
X167540609Y-97416744D01*
X167445371Y-97416781D02*
X167493008Y-97464381D01*
X167540664Y-97559601D01*
X167540719Y-97702458D01*
X167493137Y-97797715D01*
X167397917Y-97845370D01*
X166874107Y-97845572D01*
X167397917Y-97845370D02*
X167493173Y-97892953D01*
X167540829Y-97988172D01*
X167540884Y-98131029D01*
X167493302Y-98226286D01*
X167398082Y-98273942D01*
X166874273Y-98274144D01*
D11*
X166062694Y-113927722D02*
X166047454Y-74430722D01*
X162336480Y-113929160D02*
X166649114Y-113927496D01*
X162321240Y-74432160D02*
X166633874Y-74430496D01*
X166047454Y-74430722D02*
X166634309Y-75556999D01*
X166047454Y-74430722D02*
X165461468Y-75557452D01*
X166062694Y-113927722D02*
X166648680Y-112800992D01*
X166062694Y-113927722D02*
X165475839Y-112801445D01*
M02*
